M48
;DRILL file {PCBnew (2010-10-01 BZR 2513)-testing} date Mon 02 May 2011 06:26:08 AM COT
;FORMAT={-.-/ absolute / inch / decimal}
R,T
VER,1
FMAT,2
INCH,TZ
TCST,OFF
ICI,OFF
ATC,ON
T1C0.008
T2C0.031
T3C0.032
T4C0.038
T5C0.039
T6C0.040
T7C0.052
%
M47
G05
M72
T1
X4.770Y-4.878
X4.791Y-4.899
X4.810Y-4.917
X4.841Y-4.228
X4.950Y-3.655
X4.955Y-3.921
X4.974Y-3.675
X4.979Y-4.476
X4.980Y-4.140
X4.983Y-3.924
X4.994Y-4.212
X4.997Y-4.459
X4.998Y-3.655
X4.998Y-3.946
X5.000Y-4.494
X5.006Y-4.352
X5.013Y-4.232
X5.014Y-4.322
X5.017Y-4.478
X5.024Y-4.123
X5.025Y-3.697
X5.037Y-4.166
X5.042Y-4.323
X5.050Y-3.682
X5.050Y-4.270
X5.056Y-4.033
X5.077Y-3.663
X5.085Y-4.328
X5.086Y-4.032
X5.100Y-4.274
X5.106Y-4.012
X5.115Y-4.188
X5.122Y-3.828
X5.137Y-4.442
X5.158Y-4.352
X5.162Y-3.713
X5.163Y-3.684
X5.177Y-4.412
X5.184Y-4.367
X5.207Y-4.168
X5.209Y-3.824
X5.211Y-3.852
X5.212Y-3.885
X5.213Y-4.341
X5.222Y-4.308
X5.225Y-3.609
X5.230Y-4.012
X5.234Y-3.937
X5.241Y-4.444
X5.243Y-4.325
X5.244Y-4.194
X5.258Y-4.219
X5.263Y-4.162
X5.273Y-4.292
X5.276Y-4.432
X5.277Y-4.458
X5.288Y-4.217
X5.293Y-4.163
X5.295Y-4.244
X5.316Y-4.330
X5.317Y-3.633
X5.323Y-3.818
X5.332Y-3.581
X5.337Y-4.446
X5.341Y-3.798
X5.355Y-4.465
X5.357Y-4.426
X5.359Y-3.657
X5.366Y-3.815
X5.373Y-4.779
X5.374Y-4.815
X5.378Y-3.577
X5.381Y-4.476
X5.389Y-4.161
X5.391Y-4.298
X5.391Y-4.327
X5.394Y-3.811
X5.405Y-3.658
X5.412Y-3.576
X5.414Y-4.483
X5.418Y-3.682
X5.421Y-4.302
X5.422Y-3.358
X5.422Y-3.808
X5.425Y-4.162
X5.433Y-3.658
X5.434Y-3.948
X5.435Y-3.785
X5.456Y-3.575
X5.460Y-4.163
X5.462Y-3.714
X5.463Y-3.941
X5.472Y-4.436
X5.475Y-4.111
X5.478Y-4.819
X5.480Y-4.485
X5.480Y-3.919
X5.502Y-4.307
X5.509Y-3.919
X5.524Y-3.785
X5.527Y-4.620
X5.530Y-4.240
X5.532Y-4.817
X5.534Y-3.636
X5.537Y-4.884
X5.539Y-3.918
X5.555Y-4.942
X5.556Y-3.714
X5.560Y-4.625
X5.568Y-3.442
X5.568Y-4.437
X5.572Y-4.242
X5.572Y-4.802
X5.574Y-4.053
X5.579Y-3.919
X5.589Y-4.030
X5.600Y-4.868
X5.613Y-3.940
X5.614Y-3.660
X5.618Y-4.461
X5.639Y-3.820
X5.640Y-4.484
X5.644Y-3.902
X5.648Y-4.284
X5.661Y-3.578
X5.663Y-3.924
X5.683Y-3.901
X5.683Y-4.868
X5.690Y-3.592
X5.693Y-4.137
X5.694Y-3.831
X5.698Y-4.550
X5.708Y-3.856
X5.715Y-4.071
X5.727Y-4.246
X5.729Y-4.172
X5.731Y-4.055
X5.738Y-4.544
X5.741Y-4.093
X5.743Y-3.907
X5.743Y-3.935
X5.746Y-4.405
X5.748Y-4.274
X5.753Y-4.376
X5.756Y-3.851
X5.777Y-4.458
X5.787Y-4.985
X5.790Y-4.349
X5.805Y-4.444
X5.825Y-4.541
X5.847Y-3.854
X5.864Y-4.061
X5.869Y-3.873
X5.873Y-3.410
X5.873Y-3.243
X5.873Y-3.842
X5.909Y-3.774
X5.917Y-4.068
X5.930Y-3.876
X5.932Y-4.848
X5.934Y-3.411
X5.939Y-3.538
X5.972Y-3.849
X5.977Y-4.511
X5.978Y-3.419
X5.985Y-4.979
X5.997Y-4.237
X6.015Y-4.194
X6.029Y-4.303
X6.031Y-4.215
X6.033Y-4.276
X6.036Y-4.172
X6.041Y-4.482
X6.047Y-4.852
X6.057Y-4.262
X6.059Y-3.828
X6.062Y-4.150
X6.063Y-3.655
X6.063Y-4.580
X6.065Y-3.509
X6.066Y-3.800
X6.068Y-4.834
X6.071Y-4.968
X6.101Y-3.671
X6.107Y-3.806
X6.124Y-3.539
X6.126Y-4.555
X6.135Y-4.123
X6.146Y-3.352
X6.154Y-3.849
X6.174Y-3.684
X6.191Y-3.849
X6.196Y-3.342
X6.198Y-5.015
X6.206Y-3.683
X6.211Y-4.593
X6.229Y-3.662
X6.271Y-4.325
X6.272Y-4.410
X6.278Y-4.555
X6.280Y-3.661
X6.289Y-3.804
X6.309Y-4.495
X6.311Y-4.325
X6.317Y-3.820
X6.354Y-3.239
X6.369Y-3.684
X6.370Y-3.779
X6.402Y-3.663
X6.441Y-4.586
X6.447Y-4.734
X6.482Y-3.835
X6.505Y-3.628
X6.505Y-3.780
X6.531Y-3.601
X6.538Y-3.365
X6.698Y-4.987
T2
X4.652Y-3.331
X4.770Y-3.520
T3
X6.565Y-3.680
T4
X6.012Y-3.318
X6.327Y-3.318
T5
X4.889Y-3.331
T6
X4.679Y-3.755
X4.679Y-3.855
X4.679Y-3.955
X4.679Y-4.055
X4.679Y-4.155
X4.679Y-4.255
X4.679Y-4.355
X4.679Y-4.455
X4.779Y-3.755
X4.779Y-3.855
X4.779Y-3.955
X4.779Y-4.055
X4.779Y-4.155
X4.779Y-4.255
X4.779Y-4.355
X4.779Y-4.455
X4.872Y-4.673
X4.872Y-4.773
X5.041Y-3.237
X5.049Y-5.022
X5.141Y-3.237
X5.226Y-5.022
X5.481Y-5.022
X5.658Y-5.022
X5.903Y-5.022
X6.080Y-5.022
X6.165Y-4.639
X6.165Y-4.739
X6.274Y-4.639
X6.274Y-4.739
X6.326Y-4.917
X6.326Y-5.017
X6.383Y-4.638
X6.383Y-4.738
X6.426Y-4.917
X6.426Y-5.017
X6.526Y-4.917
X6.526Y-5.017
X6.565Y-3.780
X6.565Y-3.880
X6.565Y-3.980
X6.565Y-4.080
X6.565Y-4.180
X6.565Y-4.280
X6.565Y-4.380
X6.565Y-4.480
X6.565Y-4.580
X6.565Y-4.680
X6.565Y-4.780
X6.626Y-4.917
X6.626Y-5.017
X6.665Y-3.680
X6.665Y-3.780
X6.665Y-3.880
X6.665Y-3.980
X6.665Y-4.080
X6.665Y-4.180
X6.665Y-4.280
X6.665Y-4.380
X6.665Y-4.480
X6.665Y-4.580
X6.665Y-4.680
X6.665Y-4.780
T7
X4.999Y-4.924
X5.275Y-4.924
X5.431Y-4.924
X5.707Y-4.924
X5.853Y-4.924
X6.129Y-4.924
T0
M30
