G04 (created by PCBNEW-RS274X (2011-01-25 BZR 2758)-stable) date Mon 25 Apr 2011 03:55:26 PM COT*
G01*
G70*
G90*
%MOIN*%
G04 Gerber Fmt 3.4, Leading zero omitted, Abs format*
%FSLAX34Y34*%
G04 APERTURE LIST*
%ADD10C,0.006000*%
%ADD11O,0.105900X0.191900*%
%ADD12R,0.031800X0.047500*%
%ADD13R,0.051400X0.051400*%
%ADD14R,0.080000X0.080000*%
%ADD15C,0.080000*%
%ADD16C,0.086000*%
%ADD17C,0.096000*%
%ADD18R,0.055000X0.028000*%
%ADD19R,0.028000X0.055000*%
%ADD20R,0.046000X0.082000*%
%ADD21R,0.082000X0.074000*%
%ADD22R,0.066000X0.106000*%
%ADD23R,0.066000X0.074000*%
%ADD24R,0.045000X0.065000*%
%ADD25R,0.065000X0.045000*%
%ADD26R,0.080000X0.100000*%
%ADD27R,0.100000X0.080000*%
G04 APERTURE END LIST*
G54D10*
G54D11*
X46524Y-33307D03*
X47705Y-35196D03*
X48886Y-33307D03*
G54D12*
X56375Y-46644D03*
X56120Y-46644D03*
X55865Y-46644D03*
X55865Y-47272D03*
X56120Y-47272D03*
X56375Y-47272D03*
G54D13*
X46347Y-47492D03*
X46937Y-47492D03*
X66177Y-35555D03*
X66767Y-35555D03*
G54D14*
X46793Y-37553D03*
G54D15*
X47793Y-37553D03*
X46793Y-38553D03*
X47793Y-38553D03*
X46793Y-39553D03*
X47793Y-39553D03*
X46793Y-40553D03*
X47793Y-40553D03*
X46793Y-41553D03*
X47793Y-41553D03*
X46793Y-42553D03*
X47793Y-42553D03*
X46793Y-43553D03*
X47793Y-43553D03*
X46793Y-44553D03*
X47793Y-44553D03*
G54D16*
X54809Y-50218D03*
X56579Y-50218D03*
G54D17*
X54309Y-49238D03*
X57069Y-49238D03*
G54D18*
X57919Y-43054D03*
G54D19*
X57228Y-37495D03*
G54D18*
X51669Y-38186D03*
G54D19*
X52360Y-43745D03*
G54D18*
X57919Y-42897D03*
G54D19*
X57071Y-37495D03*
G54D18*
X51669Y-38343D03*
G54D19*
X52517Y-43745D03*
G54D18*
X57919Y-42740D03*
G54D19*
X56914Y-37495D03*
G54D18*
X51669Y-38500D03*
G54D19*
X52674Y-43745D03*
G54D18*
X57919Y-42583D03*
G54D19*
X56757Y-37495D03*
G54D18*
X51669Y-38657D03*
G54D19*
X52831Y-43745D03*
G54D18*
X57919Y-42426D03*
G54D19*
X56600Y-37495D03*
G54D18*
X51669Y-38814D03*
G54D19*
X52988Y-43745D03*
G54D18*
X57919Y-42269D03*
G54D19*
X56443Y-37495D03*
G54D18*
X51669Y-38971D03*
G54D19*
X53145Y-43745D03*
G54D18*
X57919Y-42112D03*
G54D19*
X56286Y-37495D03*
G54D18*
X51669Y-39128D03*
G54D19*
X53302Y-43745D03*
G54D18*
X57919Y-41955D03*
G54D19*
X56129Y-37495D03*
G54D18*
X51669Y-39285D03*
G54D19*
X53459Y-43745D03*
G54D18*
X57919Y-41798D03*
G54D19*
X55972Y-37495D03*
G54D18*
X51669Y-39442D03*
G54D19*
X53616Y-43745D03*
G54D18*
X57919Y-41641D03*
G54D19*
X55815Y-37495D03*
G54D18*
X51669Y-39599D03*
G54D19*
X53773Y-43745D03*
G54D18*
X57919Y-41484D03*
G54D19*
X55658Y-37495D03*
G54D18*
X51669Y-39756D03*
G54D19*
X53930Y-43745D03*
G54D18*
X57919Y-41327D03*
G54D19*
X55501Y-37495D03*
G54D18*
X51669Y-39913D03*
G54D19*
X54087Y-43745D03*
G54D18*
X57919Y-41170D03*
G54D19*
X55344Y-37495D03*
G54D18*
X51669Y-40070D03*
G54D19*
X54244Y-43745D03*
G54D18*
X57919Y-41013D03*
G54D19*
X55187Y-37495D03*
G54D18*
X51669Y-40227D03*
G54D19*
X54401Y-43745D03*
G54D18*
X57919Y-40856D03*
G54D19*
X55030Y-37495D03*
G54D18*
X51669Y-40384D03*
G54D19*
X54558Y-43745D03*
G54D18*
X57919Y-40699D03*
G54D19*
X54873Y-37495D03*
G54D18*
X51669Y-40541D03*
G54D19*
X54715Y-43745D03*
G54D18*
X57919Y-40542D03*
G54D19*
X54716Y-37495D03*
G54D18*
X51669Y-40698D03*
G54D19*
X54872Y-43745D03*
G54D18*
X57919Y-40385D03*
G54D19*
X54559Y-37495D03*
G54D18*
X51669Y-40855D03*
G54D19*
X55029Y-43745D03*
G54D18*
X57919Y-40228D03*
G54D19*
X54402Y-37495D03*
G54D18*
X51669Y-41012D03*
G54D19*
X55186Y-43745D03*
G54D18*
X57919Y-40071D03*
G54D19*
X54245Y-37495D03*
G54D18*
X51669Y-41169D03*
G54D19*
X55343Y-43745D03*
G54D18*
X57919Y-39914D03*
G54D19*
X54088Y-37495D03*
G54D18*
X51669Y-41326D03*
G54D19*
X55500Y-43745D03*
G54D18*
X57919Y-39757D03*
G54D19*
X53931Y-37495D03*
G54D18*
X51669Y-41483D03*
G54D19*
X55657Y-43745D03*
G54D18*
X57919Y-39600D03*
G54D19*
X53774Y-37495D03*
G54D18*
X51669Y-41640D03*
G54D19*
X55814Y-43745D03*
G54D18*
X57919Y-39443D03*
G54D19*
X53617Y-37495D03*
G54D18*
X51669Y-41797D03*
G54D19*
X55971Y-43745D03*
G54D18*
X57919Y-39286D03*
G54D19*
X53460Y-37495D03*
G54D18*
X51669Y-41954D03*
G54D19*
X56128Y-43745D03*
G54D18*
X57919Y-39129D03*
G54D19*
X53303Y-37495D03*
G54D18*
X51669Y-42111D03*
G54D19*
X56285Y-43745D03*
G54D18*
X57919Y-38972D03*
G54D19*
X53146Y-37495D03*
G54D18*
X51669Y-42268D03*
G54D19*
X56442Y-43745D03*
G54D18*
X57919Y-38815D03*
G54D19*
X52989Y-37495D03*
G54D18*
X51669Y-42425D03*
G54D19*
X56599Y-43745D03*
G54D18*
X57919Y-38658D03*
G54D19*
X52832Y-37495D03*
G54D18*
X51669Y-42582D03*
G54D19*
X56756Y-43745D03*
G54D18*
X57919Y-38501D03*
G54D19*
X52675Y-37495D03*
G54D18*
X51669Y-42739D03*
G54D19*
X56913Y-43745D03*
G54D18*
X57919Y-38344D03*
G54D19*
X52518Y-37495D03*
G54D18*
X51669Y-42896D03*
G54D19*
X57070Y-43745D03*
G54D18*
X57919Y-38187D03*
G54D19*
X52361Y-37495D03*
G54D18*
X51669Y-43053D03*
G54D19*
X57227Y-43745D03*
G54D20*
X60440Y-37321D03*
X60870Y-37321D03*
X61300Y-37321D03*
X61740Y-37321D03*
X62170Y-37321D03*
X62600Y-37321D03*
X63040Y-37321D03*
X63470Y-37321D03*
X63900Y-37321D03*
G54D21*
X58630Y-37121D03*
G54D22*
X58270Y-33341D03*
X64370Y-33341D03*
G54D23*
X64380Y-37121D03*
G54D24*
X66153Y-34224D03*
X66753Y-34224D03*
X66761Y-34898D03*
X66161Y-34898D03*
X46306Y-46803D03*
X46906Y-46803D03*
G54D25*
X58752Y-46087D03*
X58752Y-45487D03*
G54D24*
X49540Y-44102D03*
X48940Y-44102D03*
G54D14*
X65651Y-36797D03*
G54D15*
X66651Y-36797D03*
X65651Y-37797D03*
X66651Y-37797D03*
X65651Y-38797D03*
X66651Y-38797D03*
X65651Y-39797D03*
X66651Y-39797D03*
X65651Y-40797D03*
X66651Y-40797D03*
X65651Y-41797D03*
X66651Y-41797D03*
X65651Y-42797D03*
X66651Y-42797D03*
X65651Y-43797D03*
X66651Y-43797D03*
X65651Y-44797D03*
X66651Y-44797D03*
X65651Y-45797D03*
X66651Y-45797D03*
X65651Y-46797D03*
X66651Y-46797D03*
X65651Y-47797D03*
X66651Y-47797D03*
G54D24*
X62843Y-40953D03*
X62243Y-40953D03*
G54D16*
X59029Y-50218D03*
X60799Y-50218D03*
G54D17*
X58529Y-49238D03*
X61289Y-49238D03*
G54D16*
X50494Y-50218D03*
X52264Y-50218D03*
G54D17*
X49994Y-49238D03*
X52754Y-49238D03*
G54D26*
X49844Y-46595D03*
X51144Y-46595D03*
X52144Y-47095D03*
X53444Y-47095D03*
X49269Y-45545D03*
X47969Y-45545D03*
G54D27*
X58809Y-43348D03*
X58809Y-44648D03*
G54D25*
X56319Y-45220D03*
X56319Y-45820D03*
X54394Y-45220D03*
X54394Y-45820D03*
X53144Y-45220D03*
X53144Y-45820D03*
G54D24*
X52619Y-46295D03*
X53219Y-46295D03*
G54D25*
X52519Y-45195D03*
X52519Y-45795D03*
X49969Y-45245D03*
X49969Y-45845D03*
X51244Y-45245D03*
X51244Y-45845D03*
X53769Y-45220D03*
X53769Y-45820D03*
X50619Y-45245D03*
X50619Y-45845D03*
X51894Y-45170D03*
X51894Y-45770D03*
G54D24*
X49569Y-42020D03*
X48969Y-42020D03*
G54D25*
X55044Y-45220D03*
X55044Y-45820D03*
G54D24*
X49494Y-44745D03*
X48894Y-44745D03*
G54D25*
X60860Y-43678D03*
X60860Y-44278D03*
X60234Y-43717D03*
X60234Y-44317D03*
G54D24*
X49585Y-43269D03*
X48985Y-43269D03*
X55054Y-36712D03*
X55654Y-36712D03*
X49569Y-42645D03*
X48969Y-42645D03*
G54D25*
X59620Y-43741D03*
X59620Y-44341D03*
X64315Y-44920D03*
X64315Y-45520D03*
X61669Y-44920D03*
X61669Y-45520D03*
X55277Y-47151D03*
X55277Y-47751D03*
G54D24*
X54731Y-47132D03*
X54131Y-47132D03*
X54746Y-47738D03*
X54146Y-47738D03*
G54D25*
X58300Y-47780D03*
X58300Y-47180D03*
X55694Y-45220D03*
X55694Y-45820D03*
X56938Y-45832D03*
X56938Y-46432D03*
G54D24*
X54319Y-46495D03*
X54919Y-46495D03*
G54D14*
X66256Y-49169D03*
G54D15*
X66256Y-50169D03*
X65256Y-49169D03*
X65256Y-50169D03*
X64256Y-49169D03*
X64256Y-50169D03*
X63256Y-49169D03*
X63256Y-50169D03*
G54D14*
X61654Y-47390D03*
G54D15*
X61654Y-46390D03*
G54D14*
X62744Y-47390D03*
G54D15*
X62744Y-46390D03*
G54D14*
X48718Y-46730D03*
G54D15*
X48718Y-47730D03*
G54D14*
X51413Y-32366D03*
G54D15*
X50413Y-32366D03*
G54D14*
X63827Y-46382D03*
G54D15*
X63827Y-47382D03*
G54D24*
X63204Y-45484D03*
X63804Y-45484D03*
G54D25*
X61929Y-42670D03*
X61929Y-42070D03*
X60783Y-46783D03*
X60783Y-47383D03*
X59406Y-45487D03*
X59406Y-46087D03*
G54D24*
X66153Y-33520D03*
X66753Y-33520D03*
M02*
