G04 (created by PCBNEW-RS274X (2011-01-25 BZR 2758)-stable) date Tue 26 Apr 2011 02:48:04 PM COT*
G01*
G70*
G90*
%MOIN*%
G04 Gerber Fmt 3.4, Leading zero omitted, Abs format*
%FSLAX34Y34*%
G04 APERTURE LIST*
%ADD10C,0.006000*%
%ADD11R,0.039300X0.023600*%
%ADD12R,0.015700X0.039300*%
%ADD13R,0.023600X0.086600*%
%ADD14R,0.027600X0.059100*%
%ADD15R,0.078700X0.098400*%
%ADD16R,0.015700X0.011800*%
%ADD17R,0.011800X0.015700*%
%ADD18R,0.013800X0.027500*%
%ADD19R,0.013700X0.027500*%
%ADD20R,0.013600X0.027500*%
%ADD21R,0.055000X0.035000*%
%ADD22R,0.025000X0.045000*%
%ADD23R,0.045000X0.025000*%
%ADD24R,0.060000X0.080000*%
%ADD25R,0.035000X0.055000*%
G04 APERTURE END LIST*
G54D10*
G54D11*
X52342Y-42600D03*
X53208Y-42600D03*
G54D12*
X57168Y-44961D03*
X57418Y-44961D03*
X57668Y-44961D03*
X57918Y-44961D03*
X58168Y-44961D03*
X58418Y-44961D03*
X58668Y-44961D03*
X58918Y-44961D03*
X58918Y-47125D03*
X58668Y-47125D03*
X58418Y-47125D03*
X58168Y-47125D03*
X57918Y-47125D03*
X57668Y-47125D03*
X57418Y-47125D03*
X57168Y-47125D03*
G54D13*
X60917Y-32391D03*
X61417Y-32391D03*
X61917Y-32391D03*
X62417Y-32391D03*
X62417Y-36013D03*
X61917Y-36013D03*
X61417Y-36013D03*
X60917Y-36013D03*
G54D14*
X56131Y-45305D03*
X56643Y-45305D03*
G54D15*
X56387Y-47628D03*
G54D16*
X60957Y-42145D03*
X60957Y-41948D03*
X60957Y-41752D03*
X60957Y-41555D03*
X61311Y-41555D03*
X61311Y-41752D03*
X61311Y-41948D03*
X61311Y-42145D03*
X60954Y-43037D03*
X60954Y-42840D03*
X60954Y-42644D03*
X60954Y-42447D03*
X61308Y-42447D03*
X61308Y-42644D03*
X61308Y-42840D03*
X61308Y-43037D03*
G54D17*
X59332Y-40297D03*
X59135Y-40297D03*
X58939Y-40297D03*
X58742Y-40297D03*
X58742Y-39943D03*
X58939Y-39943D03*
X59135Y-39943D03*
X59332Y-39943D03*
G54D18*
X57413Y-39796D03*
X57157Y-39796D03*
X56901Y-39796D03*
X56645Y-39796D03*
G54D19*
X56389Y-39796D03*
X56133Y-39796D03*
X55877Y-39796D03*
G54D18*
X55622Y-39796D03*
X55366Y-39796D03*
X55110Y-39796D03*
X54854Y-39796D03*
X54598Y-39796D03*
X54342Y-39796D03*
X54086Y-39796D03*
X53830Y-39796D03*
G54D19*
X53574Y-39796D03*
G54D20*
X53319Y-39796D03*
G54D19*
X53064Y-39796D03*
G54D18*
X52808Y-39796D03*
X52552Y-39796D03*
X52296Y-39796D03*
X52040Y-39796D03*
X51784Y-39796D03*
X51528Y-39796D03*
X51272Y-39796D03*
G54D19*
X51017Y-39796D03*
X50761Y-39796D03*
X50505Y-39796D03*
G54D18*
X50249Y-39796D03*
X49993Y-39796D03*
X49737Y-39796D03*
X49481Y-39796D03*
X49225Y-39796D03*
X49225Y-35444D03*
X49481Y-35444D03*
X49737Y-35444D03*
X49993Y-35444D03*
X50249Y-35444D03*
G54D19*
X50505Y-35444D03*
X50761Y-35444D03*
G54D18*
X51016Y-35444D03*
X51272Y-35444D03*
X51528Y-35444D03*
X51784Y-35444D03*
X52040Y-35444D03*
X52296Y-35444D03*
X52552Y-35444D03*
X52808Y-35444D03*
G54D19*
X53064Y-35444D03*
G54D20*
X53319Y-35444D03*
G54D19*
X53574Y-35444D03*
G54D18*
X53830Y-35444D03*
X54086Y-35444D03*
X54342Y-35444D03*
X54598Y-35444D03*
X54854Y-35444D03*
X55110Y-35444D03*
X55366Y-35444D03*
X55622Y-35444D03*
G54D19*
X55877Y-35444D03*
X56133Y-35444D03*
G54D18*
X56389Y-35444D03*
X56645Y-35444D03*
X56901Y-35444D03*
X57157Y-35444D03*
X57413Y-35444D03*
G54D21*
X55236Y-44926D03*
X55236Y-44176D03*
G54D22*
X60594Y-41012D03*
X61194Y-41012D03*
X57143Y-44398D03*
X56543Y-44398D03*
X58428Y-44390D03*
X59028Y-44390D03*
X59468Y-44831D03*
X60068Y-44831D03*
X57172Y-47728D03*
X57772Y-47728D03*
X58381Y-47717D03*
X58981Y-47717D03*
G54D23*
X51598Y-40267D03*
X51598Y-40867D03*
X59287Y-33603D03*
X59287Y-33003D03*
G54D22*
X63146Y-37327D03*
X62546Y-37327D03*
G54D24*
X59325Y-42218D03*
X58025Y-42218D03*
G54D25*
X51769Y-45020D03*
X52519Y-45020D03*
G54D22*
X51863Y-34714D03*
X52463Y-34714D03*
X51120Y-34765D03*
X50520Y-34765D03*
X54579Y-34021D03*
X55179Y-34021D03*
X54144Y-34021D03*
X53544Y-34021D03*
X54599Y-33340D03*
X55199Y-33340D03*
X54144Y-34722D03*
X53544Y-34722D03*
G54D23*
X55344Y-40241D03*
X55344Y-40841D03*
X53844Y-40270D03*
X53844Y-40870D03*
X53112Y-40296D03*
X53112Y-40896D03*
G54D22*
X56845Y-40344D03*
X56245Y-40344D03*
X56597Y-40958D03*
X55997Y-40958D03*
G54D23*
X50969Y-40665D03*
X50969Y-41265D03*
G54D22*
X54623Y-34714D03*
X55223Y-34714D03*
X55684Y-34886D03*
X56284Y-34886D03*
G54D23*
X59852Y-35328D03*
X59852Y-35928D03*
G54D22*
X56585Y-41722D03*
X55985Y-41722D03*
G54D23*
X53969Y-42670D03*
X53969Y-42070D03*
X58041Y-39879D03*
X58041Y-40479D03*
G54D22*
X58518Y-43021D03*
X57918Y-43021D03*
G54D23*
X58061Y-37711D03*
X58061Y-37111D03*
X58009Y-39404D03*
X58009Y-38804D03*
X55541Y-43723D03*
X55541Y-43123D03*
G54D22*
X50569Y-43670D03*
X51169Y-43670D03*
G54D23*
X64689Y-46879D03*
X64689Y-46279D03*
G54D22*
X58981Y-41415D03*
X59581Y-41415D03*
G54D23*
X60067Y-46141D03*
X60067Y-46741D03*
X53797Y-46729D03*
X53797Y-47329D03*
X53096Y-47337D03*
X53096Y-46737D03*
G54D22*
X60052Y-49339D03*
X59452Y-49339D03*
G54D23*
X57917Y-34527D03*
X57917Y-35127D03*
X58567Y-34527D03*
X58567Y-35127D03*
G54D22*
X60257Y-38098D03*
X59657Y-38098D03*
M02*
