G04 (created by PCBNEW-RS274X (2011-01-25 BZR 2758)-stable) date Mon 25 Apr 2011 03:17:09 PM COT*
G01*
G70*
G90*
%MOIN*%
G04 Gerber Fmt 3.4, Leading zero omitted, Abs format*
%FSLAX34Y34*%
G04 APERTURE LIST*
%ADD10C,0.006000*%
%ADD11O,0.085900X0.171900*%
%ADD12R,0.039300X0.023600*%
%ADD13R,0.015700X0.039300*%
%ADD14R,0.023600X0.086600*%
%ADD15R,0.060000X0.060000*%
%ADD16C,0.060000*%
%ADD17C,0.066000*%
%ADD18C,0.076000*%
%ADD19R,0.027600X0.059100*%
%ADD20R,0.078700X0.098400*%
%ADD21R,0.015700X0.011800*%
%ADD22R,0.011800X0.015700*%
%ADD23R,0.013800X0.027500*%
%ADD24R,0.013700X0.027500*%
%ADD25R,0.013600X0.027500*%
%ADD26R,0.055000X0.035000*%
%ADD27R,0.025000X0.045000*%
%ADD28R,0.045000X0.025000*%
%ADD29R,0.060000X0.080000*%
%ADD30R,0.035000X0.055000*%
%ADD31C,0.019700*%
%ADD32C,0.007900*%
%ADD33C,0.019700*%
%ADD34C,0.015700*%
%ADD35C,0.011800*%
%ADD36C,0.010000*%
G04 APERTURE END LIST*
G54D10*
G54D11*
X46524Y-33307D03*
X47705Y-35196D03*
X48886Y-33307D03*
G54D12*
X52342Y-42600D03*
X53208Y-42600D03*
G54D13*
X57168Y-44961D03*
X57418Y-44961D03*
X57668Y-44961D03*
X57918Y-44961D03*
X58168Y-44961D03*
X58418Y-44961D03*
X58668Y-44961D03*
X58918Y-44961D03*
X58918Y-47125D03*
X58668Y-47125D03*
X58418Y-47125D03*
X58168Y-47125D03*
X57918Y-47125D03*
X57668Y-47125D03*
X57418Y-47125D03*
X57168Y-47125D03*
G54D14*
X60917Y-32391D03*
X61417Y-32391D03*
X61917Y-32391D03*
X62417Y-32391D03*
X62417Y-36013D03*
X61917Y-36013D03*
X61417Y-36013D03*
X60917Y-36013D03*
G54D15*
X46793Y-37553D03*
G54D16*
X47793Y-37553D03*
X46793Y-38553D03*
X47793Y-38553D03*
X46793Y-39553D03*
X47793Y-39553D03*
X46793Y-40553D03*
X47793Y-40553D03*
X46793Y-41553D03*
X47793Y-41553D03*
X46793Y-42553D03*
X47793Y-42553D03*
X46793Y-43553D03*
X47793Y-43553D03*
X46793Y-44553D03*
X47793Y-44553D03*
G54D17*
X54809Y-50218D03*
X56579Y-50218D03*
G54D18*
X54309Y-49238D03*
X57069Y-49238D03*
G54D19*
X56131Y-45305D03*
X56643Y-45305D03*
G54D20*
X56387Y-47628D03*
G54D21*
X60957Y-42145D03*
X60957Y-41948D03*
X60957Y-41752D03*
X60957Y-41555D03*
X61311Y-41555D03*
X61311Y-41752D03*
X61311Y-41948D03*
X61311Y-42145D03*
X60954Y-43037D03*
X60954Y-42840D03*
X60954Y-42644D03*
X60954Y-42447D03*
X61308Y-42447D03*
X61308Y-42644D03*
X61308Y-42840D03*
X61308Y-43037D03*
G54D22*
X59332Y-40297D03*
X59135Y-40297D03*
X58939Y-40297D03*
X58742Y-40297D03*
X58742Y-39943D03*
X58939Y-39943D03*
X59135Y-39943D03*
X59332Y-39943D03*
G54D23*
X57413Y-39796D03*
X57157Y-39796D03*
X56901Y-39796D03*
X56645Y-39796D03*
G54D24*
X56389Y-39796D03*
X56133Y-39796D03*
X55877Y-39796D03*
G54D23*
X55622Y-39796D03*
X55366Y-39796D03*
X55110Y-39796D03*
X54854Y-39796D03*
X54598Y-39796D03*
X54342Y-39796D03*
X54086Y-39796D03*
X53830Y-39796D03*
G54D24*
X53574Y-39796D03*
G54D25*
X53319Y-39796D03*
G54D24*
X53064Y-39796D03*
G54D23*
X52808Y-39796D03*
X52552Y-39796D03*
X52296Y-39796D03*
X52040Y-39796D03*
X51784Y-39796D03*
X51528Y-39796D03*
X51272Y-39796D03*
G54D24*
X51017Y-39796D03*
X50761Y-39796D03*
X50505Y-39796D03*
G54D23*
X50249Y-39796D03*
X49993Y-39796D03*
X49737Y-39796D03*
X49481Y-39796D03*
X49225Y-39796D03*
X49225Y-35444D03*
X49481Y-35444D03*
X49737Y-35444D03*
X49993Y-35444D03*
X50249Y-35444D03*
G54D24*
X50505Y-35444D03*
X50761Y-35444D03*
G54D23*
X51016Y-35444D03*
X51272Y-35444D03*
X51528Y-35444D03*
X51784Y-35444D03*
X52040Y-35444D03*
X52296Y-35444D03*
X52552Y-35444D03*
X52808Y-35444D03*
G54D24*
X53064Y-35444D03*
G54D25*
X53319Y-35444D03*
G54D24*
X53574Y-35444D03*
G54D23*
X53830Y-35444D03*
X54086Y-35444D03*
X54342Y-35444D03*
X54598Y-35444D03*
X54854Y-35444D03*
X55110Y-35444D03*
X55366Y-35444D03*
X55622Y-35444D03*
G54D24*
X55877Y-35444D03*
X56133Y-35444D03*
G54D23*
X56389Y-35444D03*
X56645Y-35444D03*
X56901Y-35444D03*
X57157Y-35444D03*
X57413Y-35444D03*
G54D26*
X55236Y-44926D03*
X55236Y-44176D03*
G54D27*
X60594Y-41012D03*
X61194Y-41012D03*
X57143Y-44398D03*
X56543Y-44398D03*
X58428Y-44390D03*
X59028Y-44390D03*
X59468Y-44831D03*
X60068Y-44831D03*
X57172Y-47728D03*
X57772Y-47728D03*
X58381Y-47717D03*
X58981Y-47717D03*
G54D28*
X51598Y-40267D03*
X51598Y-40867D03*
X59287Y-33603D03*
X59287Y-33003D03*
G54D27*
X63146Y-37327D03*
X62546Y-37327D03*
G54D15*
X65651Y-36797D03*
G54D16*
X66651Y-36797D03*
X65651Y-37797D03*
X66651Y-37797D03*
X65651Y-38797D03*
X66651Y-38797D03*
X65651Y-39797D03*
X66651Y-39797D03*
X65651Y-40797D03*
X66651Y-40797D03*
X65651Y-41797D03*
X66651Y-41797D03*
X65651Y-42797D03*
X66651Y-42797D03*
X65651Y-43797D03*
X66651Y-43797D03*
X65651Y-44797D03*
X66651Y-44797D03*
X65651Y-45797D03*
X66651Y-45797D03*
X65651Y-46797D03*
X66651Y-46797D03*
X65651Y-47797D03*
X66651Y-47797D03*
G54D17*
X59029Y-50218D03*
X60799Y-50218D03*
G54D18*
X58529Y-49238D03*
X61289Y-49238D03*
G54D17*
X50494Y-50218D03*
X52264Y-50218D03*
G54D18*
X49994Y-49238D03*
X52754Y-49238D03*
G54D29*
X59325Y-42218D03*
X58025Y-42218D03*
G54D30*
X51769Y-45020D03*
X52519Y-45020D03*
G54D27*
X51863Y-34714D03*
X52463Y-34714D03*
X51120Y-34765D03*
X50520Y-34765D03*
X54579Y-34021D03*
X55179Y-34021D03*
X54144Y-34021D03*
X53544Y-34021D03*
X54599Y-33340D03*
X55199Y-33340D03*
X54144Y-34722D03*
X53544Y-34722D03*
G54D28*
X55344Y-40241D03*
X55344Y-40841D03*
X53844Y-40270D03*
X53844Y-40870D03*
X53112Y-40296D03*
X53112Y-40896D03*
G54D27*
X56845Y-40344D03*
X56245Y-40344D03*
X56597Y-40958D03*
X55997Y-40958D03*
G54D28*
X50969Y-40665D03*
X50969Y-41265D03*
G54D27*
X54623Y-34714D03*
X55223Y-34714D03*
X55684Y-34886D03*
X56284Y-34886D03*
G54D28*
X59852Y-35328D03*
X59852Y-35928D03*
G54D27*
X56585Y-41722D03*
X55985Y-41722D03*
G54D28*
X53969Y-42670D03*
X53969Y-42070D03*
X58041Y-39879D03*
X58041Y-40479D03*
G54D27*
X58518Y-43021D03*
X57918Y-43021D03*
G54D28*
X58061Y-37711D03*
X58061Y-37111D03*
X58009Y-39404D03*
X58009Y-38804D03*
X55541Y-43723D03*
X55541Y-43123D03*
G54D27*
X50569Y-43670D03*
X51169Y-43670D03*
G54D28*
X64689Y-46879D03*
X64689Y-46279D03*
G54D27*
X58981Y-41415D03*
X59581Y-41415D03*
G54D28*
X60067Y-46141D03*
X60067Y-46741D03*
X53797Y-46729D03*
X53797Y-47329D03*
X53096Y-47337D03*
X53096Y-46737D03*
G54D27*
X60052Y-49339D03*
X59452Y-49339D03*
G54D15*
X66256Y-49169D03*
G54D16*
X66256Y-50169D03*
X65256Y-49169D03*
X65256Y-50169D03*
X64256Y-49169D03*
X64256Y-50169D03*
X63256Y-49169D03*
X63256Y-50169D03*
G54D28*
X57917Y-34527D03*
X57917Y-35127D03*
X58567Y-34527D03*
X58567Y-35127D03*
G54D27*
X60257Y-38098D03*
X59657Y-38098D03*
G54D15*
X61654Y-47390D03*
G54D16*
X61654Y-46390D03*
G54D15*
X62744Y-47390D03*
G54D16*
X62744Y-46390D03*
G54D15*
X48718Y-46730D03*
G54D16*
X48718Y-47730D03*
G54D15*
X51413Y-32366D03*
G54D16*
X50413Y-32366D03*
G54D15*
X63827Y-46382D03*
G54D16*
X63827Y-47382D03*
G54D31*
X51218Y-38285D03*
X51616Y-37128D03*
X51627Y-36836D03*
X49551Y-39213D03*
X49738Y-36754D03*
X49978Y-36549D03*
X50498Y-36825D03*
X50773Y-36628D03*
X51061Y-40124D03*
X50864Y-40325D03*
X52118Y-38850D03*
X52339Y-39366D03*
X56627Y-39238D03*
X53941Y-38106D03*
X53406Y-37976D03*
X53228Y-38181D03*
X55791Y-39193D03*
X55094Y-39189D03*
X54799Y-39193D03*
X54339Y-39480D03*
X53592Y-36573D03*
X56390Y-38205D03*
X55561Y-37145D03*
X52297Y-40116D03*
X61457Y-33524D03*
X61071Y-38059D03*
X62890Y-38043D03*
X61244Y-35386D03*
X58732Y-38421D03*
X62063Y-36831D03*
X60647Y-35088D03*
X60657Y-38000D03*
X50557Y-40328D03*
X49978Y-39462D03*
X49827Y-39240D03*
X49498Y-36549D03*
X50246Y-36974D03*
X52088Y-38242D03*
X52252Y-36094D03*
X53169Y-36331D03*
X56828Y-39014D03*
X54217Y-38083D03*
X53665Y-38154D03*
X56610Y-35776D03*
X56438Y-39025D03*
X55394Y-39177D03*
X54328Y-36584D03*
X54179Y-36821D03*
X54616Y-37136D03*
X52108Y-38521D03*
X61957Y-33421D03*
X63173Y-38197D03*
X60591Y-38276D03*
X59717Y-38488D03*
X59297Y-38762D03*
X64820Y-38348D03*
X58474Y-38543D03*
X58690Y-38726D03*
X65049Y-37801D03*
X63705Y-37787D03*
X59094Y-37744D03*
X63689Y-36843D03*
X62291Y-36618D03*
X57457Y-44047D03*
X57528Y-43764D03*
X60293Y-43029D03*
X60331Y-42760D03*
X60567Y-42622D03*
X64472Y-47335D03*
X59965Y-42370D03*
X60307Y-42154D03*
X60146Y-41937D03*
X60358Y-41720D03*
X60622Y-41504D03*
X57293Y-41722D03*
X57415Y-40935D03*
X54139Y-44825D03*
X53813Y-44758D03*
X55683Y-44368D03*
X57772Y-44583D03*
X58248Y-45409D03*
X58051Y-44445D03*
X50130Y-42323D03*
X48407Y-42277D03*
X50057Y-43521D03*
X50852Y-43285D03*
X52072Y-41675D03*
X52442Y-41943D03*
X52218Y-43076D03*
X50236Y-41230D03*
X49803Y-41398D03*
X50374Y-41661D03*
X51146Y-41882D03*
X49941Y-42122D03*
X60713Y-49681D03*
X61984Y-50154D03*
X60469Y-48524D03*
X60677Y-48343D03*
X56183Y-44612D03*
X55600Y-46250D03*
X56976Y-45504D03*
X56399Y-44836D03*
X66980Y-49870D03*
X61350Y-41228D03*
X60413Y-44819D03*
X61260Y-45547D03*
X62114Y-45929D03*
X63541Y-32388D03*
X55724Y-48020D03*
X56004Y-48681D03*
X56835Y-48681D03*
X54797Y-44852D03*
X59394Y-35378D03*
X64024Y-36626D03*
X54780Y-48189D03*
X55551Y-49417D03*
X57866Y-49846D03*
X59846Y-49795D03*
X57898Y-43488D03*
X55344Y-36358D03*
X53568Y-44258D03*
X55273Y-46199D03*
X57557Y-38510D03*
X59777Y-34191D03*
X53320Y-35809D03*
X53785Y-35769D03*
X56903Y-35923D03*
X56131Y-39403D03*
X54627Y-39415D03*
X62801Y-36612D03*
X53726Y-47785D03*
X54750Y-41112D03*
X54600Y-41632D03*
X55019Y-43070D03*
X51369Y-44420D03*
X51769Y-44120D03*
X54717Y-44358D03*
X55316Y-48171D03*
X55372Y-48840D03*
X53742Y-48147D03*
X59324Y-48482D03*
X52411Y-44439D03*
X58639Y-40612D03*
X59171Y-40675D03*
X58728Y-34098D03*
X59343Y-34106D03*
X52734Y-42923D03*
X49795Y-44756D03*
X49970Y-44586D03*
X47911Y-48994D03*
X47697Y-48780D03*
X48098Y-49169D03*
X51840Y-43671D03*
X53163Y-43297D03*
X51576Y-43521D03*
X52431Y-43248D03*
X54212Y-43021D03*
X53907Y-42982D03*
X52131Y-43415D03*
X50423Y-43228D03*
X52883Y-42175D03*
X55718Y-42421D03*
X57480Y-42736D03*
X57273Y-42460D03*
X55301Y-42395D03*
X52584Y-42187D03*
X51003Y-42736D03*
X50144Y-43220D03*
X50498Y-42699D03*
X58732Y-32433D03*
X65378Y-33646D03*
X59772Y-45106D03*
X60634Y-45799D03*
X62783Y-45551D03*
X64413Y-45858D03*
X63087Y-44949D03*
X62717Y-44098D03*
X63106Y-43248D03*
X62713Y-43252D03*
X61740Y-36839D03*
X61013Y-36712D03*
X65311Y-36012D03*
X65047Y-36280D03*
X61535Y-38488D03*
X61909Y-38488D03*
X60629Y-36545D03*
X52933Y-41634D03*
X53887Y-41614D03*
X57151Y-40715D03*
X57313Y-40553D03*
X52627Y-41620D03*
X54250Y-41620D03*
X54217Y-33579D03*
X55677Y-34417D03*
X57435Y-39071D03*
X57083Y-38559D03*
X55244Y-37846D03*
X54346Y-37846D03*
X55738Y-40531D03*
X55887Y-40305D03*
X54120Y-35758D03*
X54564Y-35750D03*
X56139Y-36600D03*
X56935Y-38309D03*
X56931Y-41372D03*
X56478Y-42840D03*
X57435Y-39348D03*
X54053Y-36576D03*
X53907Y-43269D03*
X49996Y-44944D03*
X52775Y-44576D03*
X52765Y-44321D03*
X50167Y-44785D03*
X53549Y-44655D03*
X53370Y-44465D03*
X52954Y-42443D03*
X57378Y-45441D03*
G54D32*
X50730Y-38293D02*
X50505Y-38518D01*
X51210Y-38293D02*
X50730Y-38293D01*
X51218Y-38285D02*
X51210Y-38293D01*
X50505Y-38514D02*
X50505Y-38518D01*
X50505Y-38518D02*
X50505Y-39796D01*
X51016Y-35444D02*
X51016Y-36528D01*
X51016Y-36528D02*
X51616Y-37128D01*
X51272Y-36481D02*
X51272Y-35444D01*
X51627Y-36836D02*
X51272Y-36481D01*
X49481Y-39283D02*
X49481Y-39796D01*
X49551Y-39213D02*
X49481Y-39283D01*
X49737Y-35444D02*
X49737Y-36753D01*
X49737Y-36753D02*
X49738Y-36754D01*
X49993Y-36534D02*
X49993Y-35444D01*
X49978Y-36549D02*
X49993Y-36534D01*
X50505Y-35444D02*
X50505Y-36818D01*
X50505Y-36818D02*
X50498Y-36825D01*
X50761Y-35444D02*
X50761Y-36616D01*
X50761Y-36616D02*
X50773Y-36628D01*
X51017Y-40080D02*
X51017Y-39796D01*
X51061Y-40124D02*
X51017Y-40080D01*
X50761Y-40222D02*
X50761Y-39796D01*
X50864Y-40325D02*
X50761Y-40222D01*
X52040Y-39796D02*
X52040Y-38928D01*
X52040Y-38928D02*
X52118Y-38850D01*
X51784Y-35444D02*
X51784Y-36646D01*
X52339Y-37201D02*
X52339Y-39366D01*
X51784Y-36646D02*
X52339Y-37201D01*
X51120Y-34765D02*
X51304Y-34765D01*
X51784Y-35272D02*
X51784Y-35444D01*
X51730Y-35218D02*
X51784Y-35272D01*
X51730Y-35191D02*
X51730Y-35218D01*
X51304Y-34765D02*
X51730Y-35191D01*
X56645Y-39256D02*
X56645Y-39796D01*
X56627Y-39238D02*
X56645Y-39256D01*
X55622Y-36645D02*
X55622Y-35444D01*
X56045Y-37068D02*
X55622Y-36645D01*
X56045Y-37574D02*
X56045Y-37068D01*
X55324Y-38295D02*
X56045Y-37574D01*
X54130Y-38295D02*
X55324Y-38295D01*
X53941Y-38106D02*
X54130Y-38295D01*
X56374Y-35459D02*
X56389Y-35444D01*
X56374Y-37693D02*
X56374Y-35459D01*
X55457Y-38610D02*
X56374Y-37693D01*
X53811Y-38610D02*
X55457Y-38610D01*
X53445Y-38244D02*
X53811Y-38610D01*
X53445Y-38015D02*
X53445Y-38244D01*
X53406Y-37976D02*
X53445Y-38015D01*
X57157Y-37130D02*
X57157Y-35444D01*
X55519Y-38768D02*
X57157Y-37130D01*
X53752Y-38768D02*
X55519Y-38768D01*
X53280Y-38296D02*
X53752Y-38768D01*
X53280Y-38233D02*
X53280Y-38296D01*
X53228Y-38181D02*
X53280Y-38233D01*
X55877Y-39279D02*
X55877Y-39796D01*
X55791Y-39193D02*
X55877Y-39279D01*
X55110Y-39205D02*
X55110Y-39796D01*
X55094Y-39189D02*
X55110Y-39205D01*
X54854Y-39248D02*
X54854Y-39796D01*
X54799Y-39193D02*
X54854Y-39248D01*
X54342Y-39796D02*
X54342Y-39483D01*
X54342Y-39483D02*
X54339Y-39480D01*
X52552Y-35444D02*
X52552Y-35733D01*
X53592Y-36455D02*
X53592Y-36573D01*
X53036Y-35899D02*
X53592Y-36455D01*
X52718Y-35899D02*
X53036Y-35899D01*
X52552Y-35733D02*
X52718Y-35899D01*
X53574Y-39379D02*
X53574Y-39796D01*
X53988Y-38965D02*
X53574Y-39379D01*
X55673Y-38965D02*
X53988Y-38965D01*
X56382Y-38256D02*
X55673Y-38965D01*
X56382Y-38213D02*
X56382Y-38256D01*
X56390Y-38205D02*
X56382Y-38213D01*
X55561Y-37145D02*
X55288Y-36872D01*
X55288Y-36872D02*
X55285Y-36872D01*
X54722Y-36872D02*
X54584Y-36872D01*
X54047Y-37047D02*
X53840Y-36840D01*
X54049Y-37049D02*
X54047Y-37047D01*
X53840Y-36840D02*
X53840Y-36249D01*
X53840Y-36249D02*
X53574Y-35983D01*
X53574Y-35983D02*
X53574Y-35444D01*
X55285Y-36872D02*
X55269Y-36872D01*
X54722Y-36872D02*
X55269Y-36872D01*
X54260Y-37049D02*
X54049Y-37049D01*
X54343Y-36966D02*
X54260Y-37049D01*
X54490Y-36966D02*
X54343Y-36966D01*
X54584Y-36872D02*
X54490Y-36966D01*
X52296Y-40115D02*
X52296Y-39796D01*
X52297Y-40116D02*
X52296Y-40115D01*
X61417Y-33484D02*
X61417Y-32391D01*
X61457Y-33524D02*
X61417Y-33484D01*
X62689Y-38071D02*
X62862Y-38071D01*
X61071Y-38059D02*
X61083Y-38071D01*
X61083Y-38071D02*
X62689Y-38071D01*
X62862Y-38071D02*
X62890Y-38043D01*
X61417Y-35559D02*
X61417Y-36013D01*
X61244Y-35386D02*
X61417Y-35559D01*
X58484Y-36181D02*
X58484Y-36055D01*
X58484Y-38173D02*
X58732Y-38421D01*
X58484Y-38173D02*
X58484Y-36181D01*
X57917Y-35488D02*
X57917Y-35127D01*
X58484Y-36055D02*
X57917Y-35488D01*
X61917Y-36685D02*
X61917Y-36013D01*
X62063Y-36831D02*
X61917Y-36685D01*
X61917Y-35334D02*
X61917Y-36013D01*
X61671Y-35088D02*
X61917Y-35334D01*
X60647Y-35088D02*
X61671Y-35088D01*
X60324Y-38031D02*
X60257Y-38098D01*
X60626Y-38031D02*
X60324Y-38031D01*
X60657Y-38000D02*
X60626Y-38031D01*
X50557Y-40328D02*
X50344Y-40328D01*
X50249Y-40233D02*
X50249Y-39796D01*
X50344Y-40328D02*
X50249Y-40233D01*
X50249Y-39936D02*
X50249Y-39796D01*
X50557Y-40328D02*
X50554Y-40325D01*
X49993Y-39477D02*
X49993Y-39796D01*
X49978Y-39462D02*
X49993Y-39477D01*
X49737Y-39330D02*
X49737Y-39796D01*
X49827Y-39240D02*
X49737Y-39330D01*
X49481Y-36532D02*
X49481Y-35444D01*
X49498Y-36549D02*
X49481Y-36532D01*
X50249Y-35444D02*
X50249Y-36971D01*
X50249Y-36971D02*
X50246Y-36974D01*
X51598Y-40267D02*
X51598Y-39866D01*
X51598Y-39866D02*
X51528Y-39796D01*
X51528Y-39796D02*
X51528Y-38802D01*
X51528Y-38802D02*
X52088Y-38242D01*
X52252Y-36094D02*
X52252Y-36083D01*
X52040Y-35871D02*
X52040Y-35444D01*
X52252Y-36083D02*
X52040Y-35871D01*
X52040Y-35444D02*
X52040Y-34891D01*
X52040Y-34891D02*
X51863Y-34714D01*
X53168Y-36332D02*
X52789Y-36332D01*
X52297Y-35840D02*
X52789Y-36332D01*
X52296Y-35840D02*
X52296Y-35444D01*
X52296Y-35840D02*
X52297Y-35840D01*
X53168Y-36332D02*
X53169Y-36331D01*
X53169Y-36331D02*
X53168Y-36332D01*
X52296Y-35444D02*
X52296Y-34881D01*
X52296Y-34881D02*
X52463Y-34714D01*
X57157Y-39796D02*
X57157Y-39347D01*
X57157Y-39347D02*
X56828Y-39014D01*
X55331Y-38067D02*
X55872Y-37526D01*
X54233Y-38067D02*
X55331Y-38067D01*
X54217Y-38083D02*
X54233Y-38067D01*
X55872Y-37526D02*
X55872Y-37152D01*
X55110Y-35835D02*
X55110Y-35444D01*
X55110Y-36397D02*
X55110Y-35835D01*
X55110Y-36518D02*
X55110Y-36397D01*
X55285Y-36693D02*
X55110Y-36518D01*
X55413Y-36693D02*
X55285Y-36693D01*
X55872Y-37152D02*
X55413Y-36693D01*
X55872Y-37526D02*
X55875Y-37523D01*
X53959Y-38448D02*
X55394Y-38448D01*
X56218Y-37018D02*
X55877Y-36677D01*
X55877Y-36677D02*
X55877Y-35444D01*
X56218Y-37624D02*
X56218Y-37018D01*
X55394Y-38448D02*
X56218Y-37624D01*
X53665Y-38154D02*
X53959Y-38448D01*
X53959Y-38448D02*
X53964Y-38453D01*
X56645Y-35444D02*
X56645Y-35741D01*
X56645Y-35741D02*
X56610Y-35776D01*
X56415Y-39770D02*
X56389Y-39796D01*
X56415Y-39048D02*
X56415Y-39770D01*
X56438Y-39025D02*
X56415Y-39048D01*
X55622Y-39405D02*
X55622Y-39796D01*
X55394Y-39177D02*
X55622Y-39405D01*
X54342Y-36570D02*
X54342Y-35444D01*
X54328Y-36584D02*
X54342Y-36570D01*
X54854Y-36377D02*
X54854Y-35444D01*
X54418Y-36813D02*
X54854Y-36377D01*
X54187Y-36813D02*
X54418Y-36813D01*
X54179Y-36821D02*
X54187Y-36813D01*
X53451Y-37328D02*
X54424Y-37328D01*
X52552Y-38227D02*
X53451Y-37328D01*
X52552Y-39796D02*
X52552Y-38227D01*
X54424Y-37328D02*
X54616Y-37136D01*
X51784Y-38845D02*
X51784Y-39796D01*
X52108Y-38521D02*
X51784Y-38845D01*
X61917Y-33381D02*
X61917Y-32391D01*
X61957Y-33421D02*
X61917Y-33381D01*
X62969Y-38272D02*
X63098Y-38272D01*
X63098Y-38272D02*
X63173Y-38197D01*
X60595Y-38272D02*
X62969Y-38272D01*
G54D33*
X60591Y-38276D02*
X60595Y-38272D01*
G54D32*
X59657Y-38098D02*
X59035Y-38098D01*
X58697Y-35257D02*
X58567Y-35127D01*
X58697Y-37760D02*
X58697Y-35257D01*
X59035Y-38098D02*
X58697Y-37760D01*
X59724Y-38165D02*
X59657Y-38098D01*
X59724Y-38481D02*
X59724Y-38165D01*
X59717Y-38488D02*
X59724Y-38481D01*
X66143Y-37289D02*
X66651Y-37797D01*
X65210Y-37289D02*
X66143Y-37289D01*
X63789Y-38710D02*
X65210Y-37289D01*
X59349Y-38710D02*
X63789Y-38710D01*
X59297Y-38762D02*
X59349Y-38710D01*
X58470Y-38817D02*
X58470Y-38547D01*
X58470Y-38817D02*
X58852Y-39199D01*
X58852Y-39199D02*
X63969Y-39199D01*
X63969Y-39199D02*
X64820Y-38348D01*
X58470Y-38547D02*
X58474Y-38543D01*
X58690Y-38726D02*
X58966Y-39002D01*
X58966Y-39002D02*
X63848Y-39002D01*
X63848Y-39002D02*
X65049Y-37801D01*
X59220Y-37740D02*
X63658Y-37740D01*
X63658Y-37740D02*
X63705Y-37787D01*
X59098Y-37740D02*
X59220Y-37740D01*
X59094Y-37744D02*
X59098Y-37740D01*
X63146Y-37327D02*
X63205Y-37327D01*
X63205Y-37327D02*
X63689Y-36843D01*
X62417Y-36492D02*
X62417Y-36013D01*
X62291Y-36618D02*
X62417Y-36492D01*
X65496Y-46283D02*
X63697Y-44484D01*
X63697Y-44484D02*
X63515Y-44484D01*
X66651Y-46797D02*
X66137Y-46283D01*
X60106Y-44484D02*
X63515Y-44484D01*
X59669Y-44047D02*
X60106Y-44484D01*
X57457Y-44047D02*
X59669Y-44047D01*
X66137Y-46283D02*
X65496Y-46283D01*
X63598Y-44323D02*
X63843Y-44323D01*
X63598Y-44323D02*
X60209Y-44323D01*
X60209Y-44323D02*
X59650Y-43764D01*
X59650Y-43764D02*
X57528Y-43764D01*
X65317Y-45797D02*
X65651Y-45797D01*
X63843Y-44323D02*
X65317Y-45797D01*
X65651Y-45584D02*
X65651Y-45797D01*
X61308Y-43037D02*
X63391Y-43037D01*
X66118Y-45264D02*
X66651Y-45797D01*
X65496Y-45264D02*
X66118Y-45264D01*
X65228Y-44996D02*
X65496Y-45264D01*
X65228Y-44874D02*
X65228Y-44996D01*
X63391Y-43037D02*
X65228Y-44874D01*
X60301Y-43037D02*
X60954Y-43037D01*
X60293Y-43029D02*
X60301Y-43037D01*
X60331Y-42760D02*
X60411Y-42840D01*
X60411Y-42840D02*
X60954Y-42840D01*
X60589Y-42644D02*
X60567Y-42622D01*
X60954Y-42644D02*
X60589Y-42644D01*
X63827Y-47382D02*
X64425Y-47382D01*
X64425Y-47382D02*
X64472Y-47335D01*
X60954Y-42447D02*
X60691Y-42447D01*
X60691Y-42447D02*
X60614Y-42370D01*
X60614Y-42370D02*
X59965Y-42370D01*
X60316Y-42145D02*
X60957Y-42145D01*
X60307Y-42154D02*
X60316Y-42145D01*
X60594Y-41012D02*
X60425Y-41012D01*
X60047Y-41838D02*
X60146Y-41937D01*
X60047Y-41390D02*
X60047Y-41838D01*
X60425Y-41012D02*
X60047Y-41390D01*
X60957Y-41948D02*
X60416Y-41948D01*
X60405Y-41937D02*
X60146Y-41937D01*
X60416Y-41948D02*
X60405Y-41937D01*
X60795Y-41752D02*
X60957Y-41752D01*
X60760Y-41717D02*
X60795Y-41752D01*
X60361Y-41717D02*
X60760Y-41717D01*
X60358Y-41720D02*
X60361Y-41717D01*
X60902Y-41500D02*
X60957Y-41555D01*
X60626Y-41500D02*
X60902Y-41500D01*
X60622Y-41504D02*
X60626Y-41500D01*
X61308Y-42840D02*
X63525Y-42840D01*
X65482Y-44797D02*
X65651Y-44797D01*
X63525Y-42840D02*
X65482Y-44797D01*
X66651Y-44797D02*
X66608Y-44797D01*
X63569Y-42644D02*
X61308Y-42644D01*
X65224Y-44299D02*
X63569Y-42644D01*
X66110Y-44299D02*
X65224Y-44299D01*
X66608Y-44797D02*
X66110Y-44299D01*
X61308Y-42447D02*
X64301Y-42447D01*
X64301Y-42447D02*
X65651Y-43797D01*
X61311Y-42145D02*
X64271Y-42145D01*
X64271Y-42145D02*
X65425Y-43299D01*
X65425Y-43299D02*
X66153Y-43299D01*
X66153Y-43299D02*
X66651Y-43797D01*
X61311Y-41948D02*
X64802Y-41948D01*
X64802Y-41948D02*
X65651Y-42797D01*
X61311Y-41752D02*
X64906Y-41752D01*
X64906Y-41752D02*
X65430Y-42276D01*
X65430Y-42276D02*
X66130Y-42276D01*
X66130Y-42276D02*
X66651Y-42797D01*
X61311Y-41555D02*
X65409Y-41555D01*
X65409Y-41555D02*
X65651Y-41797D01*
X65545Y-40691D02*
X65651Y-40797D01*
X57293Y-41722D02*
X56585Y-41722D01*
X59332Y-39943D02*
X64505Y-39943D01*
X64505Y-39943D02*
X65651Y-38797D01*
X59581Y-41415D02*
X59581Y-41404D01*
X66171Y-40277D02*
X66651Y-39797D01*
X60708Y-40277D02*
X66171Y-40277D01*
X59581Y-41404D02*
X60708Y-40277D01*
X59581Y-41415D02*
X59581Y-41105D01*
X59581Y-41105D02*
X59367Y-40891D01*
X59367Y-40891D02*
X57459Y-40891D01*
X57459Y-40891D02*
X57415Y-40935D01*
X59581Y-41415D02*
X59581Y-41359D01*
X58839Y-39691D02*
X63898Y-39691D01*
X58742Y-39943D02*
X58742Y-39788D01*
X66131Y-38277D02*
X66651Y-38797D01*
X65312Y-38277D02*
X66131Y-38277D01*
X63898Y-39691D02*
X65312Y-38277D01*
X58742Y-39788D02*
X58839Y-39691D01*
X48950Y-43053D02*
X51623Y-45726D01*
X51623Y-45726D02*
X52989Y-45726D01*
X48454Y-43053D02*
X48950Y-43053D01*
X47293Y-43053D02*
X46793Y-43553D01*
X48474Y-43053D02*
X48454Y-43053D01*
X48454Y-43053D02*
X47293Y-43053D01*
X52989Y-45726D02*
X53238Y-45726D01*
X53238Y-45726D02*
X54139Y-44825D01*
X53813Y-44758D02*
X53813Y-44769D01*
X53813Y-44769D02*
X53238Y-45344D01*
X53238Y-45344D02*
X53041Y-45541D01*
X47793Y-42553D02*
X48687Y-42553D01*
X53041Y-45541D02*
X52789Y-45541D01*
X52789Y-45541D02*
X52781Y-45533D01*
X49025Y-42891D02*
X51667Y-45533D01*
X51667Y-45533D02*
X52781Y-45533D01*
X48687Y-42553D02*
X49025Y-42891D01*
X53797Y-46729D02*
X53797Y-46249D01*
X53797Y-46249D02*
X53428Y-45880D01*
X52902Y-45880D02*
X53428Y-45880D01*
X53428Y-45880D02*
X53450Y-45880D01*
X53450Y-45880D02*
X54578Y-44752D01*
X55683Y-44368D02*
X55659Y-44368D01*
X54738Y-44592D02*
X54578Y-44752D01*
X55435Y-44592D02*
X54738Y-44592D01*
X55659Y-44368D02*
X55435Y-44592D01*
X52907Y-45880D02*
X52902Y-45880D01*
X52902Y-45880D02*
X51561Y-45880D01*
X51561Y-45880D02*
X49234Y-43553D01*
X53797Y-46729D02*
X53104Y-46729D01*
X53104Y-46729D02*
X53096Y-46737D01*
X47793Y-43553D02*
X48719Y-43553D01*
X49234Y-43553D02*
X48719Y-43553D01*
X57918Y-44729D02*
X57918Y-44961D01*
X57772Y-44583D02*
X57918Y-44729D01*
X58168Y-45329D02*
X58168Y-44961D01*
X58248Y-45409D02*
X58168Y-45329D01*
X58168Y-44562D02*
X58168Y-44961D01*
X58051Y-44445D02*
X58168Y-44562D01*
X46793Y-42553D02*
X47307Y-42039D01*
X49177Y-42039D02*
X47307Y-42039D01*
X49473Y-42335D02*
X49177Y-42039D01*
X50118Y-42335D02*
X49473Y-42335D01*
X50130Y-42323D02*
X50118Y-42335D01*
X65256Y-50169D02*
X64827Y-49740D01*
X59346Y-46889D02*
X59346Y-46870D01*
X59346Y-46889D02*
X59603Y-47146D01*
X59603Y-47146D02*
X60013Y-47146D01*
X60013Y-47146D02*
X60343Y-47476D01*
X57918Y-46767D02*
X57918Y-47125D01*
X58189Y-46496D02*
X57918Y-46767D01*
X58972Y-46496D02*
X58189Y-46496D01*
X59346Y-46870D02*
X58972Y-46496D01*
X60787Y-49449D02*
X61078Y-49740D01*
X60787Y-49145D02*
X60787Y-49449D01*
X61078Y-49740D02*
X64740Y-49740D01*
X60343Y-47476D02*
X60343Y-48330D01*
X60256Y-48614D02*
X60787Y-49145D01*
X60256Y-48417D02*
X60256Y-48614D01*
X60343Y-48330D02*
X60256Y-48417D01*
X64740Y-49740D02*
X64827Y-49740D01*
X50057Y-43521D02*
X50050Y-43521D01*
X48806Y-42277D02*
X48407Y-42277D01*
X50050Y-43521D02*
X48806Y-42277D01*
X51683Y-43171D02*
X50966Y-43171D01*
X50852Y-43285D02*
X50966Y-43171D01*
X52174Y-41675D02*
X52072Y-41675D01*
X52442Y-41943D02*
X52174Y-41675D01*
X51671Y-43171D02*
X51683Y-43171D01*
X51683Y-43171D02*
X52123Y-43171D01*
X52123Y-43171D02*
X52218Y-43076D01*
X51699Y-43171D02*
X51671Y-43171D01*
X47793Y-38553D02*
X47793Y-38856D01*
X50167Y-41230D02*
X50236Y-41230D01*
X47793Y-38856D02*
X50167Y-41230D01*
X47299Y-40059D02*
X46793Y-39553D01*
X48464Y-40059D02*
X47299Y-40059D01*
X49803Y-41398D02*
X48464Y-40059D01*
X47793Y-39553D02*
X48258Y-39553D01*
X48258Y-39553D02*
X50366Y-41661D01*
X50366Y-41661D02*
X50374Y-41661D01*
X48482Y-40553D02*
X47793Y-40553D01*
X49823Y-41894D02*
X48482Y-40553D01*
X51134Y-41894D02*
X49823Y-41894D01*
X51146Y-41882D02*
X51134Y-41894D01*
X48915Y-41553D02*
X47793Y-41553D01*
X49476Y-42114D02*
X48915Y-41553D01*
X49933Y-42114D02*
X49476Y-42114D01*
X49941Y-42122D02*
X49933Y-42114D01*
X66256Y-50169D02*
X66256Y-50256D01*
X58168Y-46919D02*
X58433Y-46654D01*
X58168Y-46919D02*
X58168Y-47125D01*
X58433Y-46654D02*
X58913Y-46654D01*
X58913Y-46654D02*
X59181Y-46922D01*
X59181Y-46922D02*
X59181Y-46968D01*
X59181Y-46968D02*
X59516Y-47303D01*
X59516Y-47303D02*
X59944Y-47303D01*
X59944Y-47303D02*
X60190Y-47549D01*
X60190Y-47549D02*
X60190Y-48267D01*
X60190Y-48267D02*
X60098Y-48359D01*
X60098Y-48359D02*
X60098Y-48693D01*
X60098Y-48693D02*
X60622Y-49217D01*
X60622Y-49217D02*
X60622Y-49590D01*
X60622Y-49590D02*
X60713Y-49681D01*
X61984Y-50154D02*
X62633Y-50803D01*
X62633Y-50803D02*
X65709Y-50803D01*
X66256Y-50256D02*
X65709Y-50803D01*
X64256Y-49169D02*
X64256Y-49134D01*
X60469Y-48525D02*
X60617Y-48673D01*
X60617Y-48673D02*
X63795Y-48673D01*
X60469Y-48524D02*
X60469Y-48525D01*
X64256Y-49134D02*
X63795Y-48673D01*
X65256Y-49169D02*
X65256Y-48989D01*
X60677Y-48344D02*
X60845Y-48512D01*
X60845Y-48512D02*
X64634Y-48512D01*
X60677Y-48343D02*
X60677Y-48344D01*
X64779Y-48512D02*
X64634Y-48512D01*
X65256Y-48989D02*
X64779Y-48512D01*
X56131Y-45305D02*
X56131Y-44664D01*
X56131Y-44664D02*
X56183Y-44612D01*
X56131Y-45305D02*
X56131Y-45719D01*
X56131Y-45719D02*
X55600Y-46250D01*
X56777Y-45305D02*
X56643Y-45305D01*
X56976Y-45504D02*
X56777Y-45305D01*
X56643Y-45080D02*
X56643Y-45305D01*
X56399Y-44836D02*
X56643Y-45080D01*
X66256Y-49169D02*
X66279Y-49169D01*
X66279Y-49169D02*
X66980Y-49870D01*
X67217Y-49633D02*
X67217Y-49598D01*
X67217Y-48638D02*
X67217Y-49598D01*
X66980Y-49870D02*
X67217Y-49633D01*
X61386Y-41012D02*
X64988Y-41012D01*
X65106Y-41130D02*
X65106Y-41121D01*
X64988Y-41012D02*
X65106Y-41130D01*
X61194Y-41072D02*
X61194Y-41012D01*
X61350Y-41228D02*
X61194Y-41072D01*
X65106Y-41121D02*
X65261Y-41276D01*
X61194Y-41012D02*
X61386Y-41012D01*
X65651Y-46797D02*
X64771Y-46797D01*
X64771Y-46797D02*
X64689Y-46879D01*
X60413Y-44819D02*
X60425Y-44831D01*
X60544Y-44831D02*
X60425Y-44831D01*
X61260Y-45547D02*
X60544Y-44831D01*
X60425Y-44831D02*
X60068Y-44831D01*
X62118Y-45925D02*
X63296Y-45925D01*
X62114Y-45929D02*
X62118Y-45925D01*
X60068Y-44831D02*
X60068Y-46140D01*
X60068Y-46140D02*
X60067Y-46141D01*
X65261Y-41276D02*
X67217Y-41276D01*
X67217Y-47847D02*
X67217Y-41276D01*
X67217Y-41276D02*
X67217Y-34799D01*
X67217Y-34799D02*
X64806Y-32388D01*
X64806Y-32388D02*
X63541Y-32388D01*
X67167Y-47797D02*
X67217Y-47847D01*
X51413Y-32366D02*
X51413Y-32859D01*
X50520Y-33752D02*
X50520Y-34765D01*
X51413Y-32859D02*
X50520Y-33752D01*
X67217Y-48645D02*
X67217Y-48638D01*
X67217Y-48638D02*
X67217Y-48626D01*
X58981Y-47717D02*
X58981Y-47834D01*
X55724Y-48401D02*
X55724Y-48020D01*
X56004Y-48681D02*
X55724Y-48401D01*
X58134Y-48681D02*
X56835Y-48681D01*
X58981Y-47834D02*
X58134Y-48681D01*
X56284Y-34886D02*
X56608Y-34886D01*
X56608Y-34886D02*
X56901Y-35179D01*
X56284Y-34886D02*
X56284Y-34611D01*
X55694Y-34021D02*
X55179Y-34021D01*
X56284Y-34611D02*
X55694Y-34021D01*
X47705Y-35196D02*
X47705Y-34488D01*
X47705Y-34488D02*
X46524Y-33307D01*
X49225Y-35444D02*
X47953Y-35444D01*
X47953Y-35444D02*
X47705Y-35196D01*
X54797Y-44852D02*
X55162Y-44852D01*
X55162Y-44852D02*
X55236Y-44926D01*
X55170Y-46199D02*
X54797Y-45826D01*
X55273Y-46199D02*
X55170Y-46199D01*
X54797Y-45826D02*
X54797Y-44852D01*
X65651Y-46797D02*
X66651Y-47797D01*
X66651Y-47797D02*
X67167Y-47797D01*
X59794Y-35386D02*
X59852Y-35328D01*
X59402Y-35386D02*
X59794Y-35386D01*
X59394Y-35378D02*
X59402Y-35386D01*
X52754Y-41254D02*
X50980Y-41254D01*
X53112Y-40896D02*
X52754Y-41254D01*
X50980Y-41254D02*
X50969Y-41265D01*
X58918Y-47125D02*
X58918Y-47654D01*
X58918Y-47654D02*
X58981Y-47717D01*
X62801Y-36612D02*
X64010Y-36612D01*
X64010Y-36612D02*
X64024Y-36626D01*
X54780Y-48189D02*
X54866Y-48275D01*
X54866Y-48275D02*
X54866Y-48634D01*
X55228Y-48996D02*
X54866Y-48634D01*
X55228Y-49094D02*
X55228Y-48996D01*
X55551Y-49417D02*
X55228Y-49094D01*
X58682Y-49846D02*
X57866Y-49846D01*
X58823Y-49705D02*
X58682Y-49846D01*
X59756Y-49705D02*
X58823Y-49705D01*
X59846Y-49795D02*
X59756Y-49705D01*
X67217Y-48633D02*
X67217Y-48626D01*
X67217Y-48626D02*
X67217Y-47847D01*
X57918Y-43468D02*
X57918Y-43021D01*
X57898Y-43488D02*
X57918Y-43468D01*
X55366Y-36336D02*
X55366Y-35444D01*
X55344Y-36358D02*
X55366Y-36336D01*
X58041Y-40479D02*
X58182Y-40479D01*
X58415Y-39210D02*
X58009Y-38804D01*
X58415Y-40246D02*
X58415Y-39210D01*
X58182Y-40479D02*
X58415Y-40246D01*
X57557Y-38510D02*
X57557Y-38748D01*
X57613Y-38804D02*
X58009Y-38804D01*
X57557Y-38748D02*
X57613Y-38804D01*
X54974Y-40870D02*
X55315Y-40870D01*
X55315Y-40870D02*
X55344Y-40841D01*
X53844Y-40870D02*
X54974Y-40870D01*
X54974Y-40870D02*
X54983Y-40879D01*
X55997Y-40958D02*
X55997Y-41710D01*
X55997Y-41710D02*
X55985Y-41722D01*
X55997Y-40958D02*
X55461Y-40958D01*
X55461Y-40958D02*
X55344Y-40841D01*
X56133Y-39796D02*
X56133Y-40232D01*
X56133Y-40232D02*
X56245Y-40344D01*
X56245Y-40344D02*
X56245Y-40710D01*
X56245Y-40710D02*
X55997Y-40958D01*
X51860Y-43903D02*
X53410Y-43903D01*
X53568Y-44061D02*
X53568Y-44258D01*
X53410Y-43903D02*
X53568Y-44061D01*
X55273Y-46199D02*
X55273Y-46183D01*
X58061Y-37111D02*
X58061Y-36092D01*
X58061Y-36092D02*
X57413Y-35444D01*
X56131Y-38978D02*
X56131Y-38975D01*
X56131Y-38975D02*
X56325Y-38781D01*
X56325Y-38781D02*
X57286Y-38781D01*
X57286Y-38781D02*
X57557Y-38510D01*
X56131Y-39403D02*
X56131Y-38978D01*
X56131Y-38978D02*
X56131Y-38970D01*
X55541Y-42899D02*
X55545Y-42899D01*
X55545Y-42899D02*
X55832Y-42612D01*
X55832Y-42612D02*
X57006Y-42612D01*
X57006Y-42612D02*
X57415Y-43021D01*
X57415Y-43021D02*
X57918Y-43021D01*
X55541Y-43123D02*
X55541Y-42899D01*
X51867Y-43903D02*
X51860Y-43903D01*
X51860Y-43903D02*
X51402Y-43903D01*
X51402Y-43903D02*
X51320Y-43821D01*
X51169Y-43670D02*
X51320Y-43821D01*
X63538Y-32391D02*
X62417Y-32391D01*
X63541Y-32388D02*
X63538Y-32391D01*
X59777Y-34191D02*
X59852Y-34266D01*
X59852Y-34266D02*
X59852Y-35328D01*
X53830Y-35444D02*
X53830Y-35724D01*
X52808Y-35655D02*
X52808Y-35444D01*
X52883Y-35730D02*
X52808Y-35655D01*
X53241Y-35730D02*
X52883Y-35730D01*
X53320Y-35809D02*
X53241Y-35730D01*
X53830Y-35724D02*
X53785Y-35769D01*
X53844Y-40870D02*
X53138Y-40870D01*
X53138Y-40870D02*
X53112Y-40896D01*
X52478Y-34254D02*
X52478Y-34195D01*
X55199Y-33120D02*
X55199Y-33340D01*
X54919Y-32840D02*
X55199Y-33120D01*
X53833Y-32840D02*
X54919Y-32840D01*
X52478Y-34195D02*
X53833Y-32840D01*
X56901Y-35921D02*
X56901Y-35444D01*
X56903Y-35923D02*
X56901Y-35921D01*
X54598Y-39796D02*
X54598Y-39444D01*
X56133Y-39405D02*
X56133Y-39796D01*
X56131Y-39403D02*
X56133Y-39405D01*
X54598Y-39444D02*
X54627Y-39415D01*
X50520Y-34765D02*
X50520Y-34495D01*
X52808Y-34367D02*
X52808Y-35444D01*
X52478Y-34254D02*
X52695Y-34254D01*
X52695Y-34254D02*
X52808Y-34367D01*
X50761Y-34254D02*
X52478Y-34254D01*
X50520Y-34495D02*
X50761Y-34254D01*
X50520Y-34765D02*
X49573Y-34765D01*
X49225Y-35113D02*
X49225Y-35444D01*
X49573Y-34765D02*
X49225Y-35113D01*
X55179Y-34021D02*
X55179Y-33360D01*
X55179Y-33360D02*
X55199Y-33340D01*
X55223Y-34714D02*
X55223Y-34065D01*
X55223Y-34065D02*
X55179Y-34021D01*
X55366Y-35444D02*
X55366Y-34857D01*
X55366Y-34857D02*
X55223Y-34714D01*
X56901Y-35179D02*
X57375Y-35179D01*
X57375Y-35179D02*
X57413Y-35217D01*
X57413Y-35217D02*
X57413Y-35444D01*
X56901Y-35179D02*
X56901Y-35444D01*
X59852Y-35328D02*
X59852Y-35281D01*
X62194Y-34321D02*
X62417Y-34098D01*
X60812Y-34321D02*
X62194Y-34321D01*
X59852Y-35281D02*
X60812Y-34321D01*
X62801Y-36612D02*
X62836Y-36577D01*
X62836Y-36577D02*
X62836Y-34607D01*
X62836Y-34607D02*
X62417Y-34188D01*
X62417Y-34188D02*
X62417Y-34098D01*
X62417Y-34098D02*
X62417Y-32391D01*
X58025Y-42218D02*
X56155Y-42218D01*
X55985Y-42048D02*
X55985Y-41722D01*
X56147Y-42210D02*
X55985Y-42048D01*
X56155Y-42218D02*
X56147Y-42210D01*
X58025Y-42218D02*
X58025Y-42914D01*
X58025Y-42914D02*
X57918Y-43021D01*
X57918Y-42325D02*
X58025Y-42218D01*
X57918Y-42325D02*
X58025Y-42218D01*
X55541Y-43123D02*
X55072Y-43123D01*
X55072Y-43123D02*
X55019Y-43070D01*
X53797Y-47329D02*
X53797Y-47714D01*
X53797Y-47714D02*
X53726Y-47785D01*
X54594Y-42070D02*
X54594Y-41638D01*
X54750Y-41112D02*
X54983Y-40879D01*
X54594Y-41638D02*
X54600Y-41632D01*
X54983Y-40879D02*
X54992Y-40870D01*
X54994Y-42070D02*
X55268Y-42070D01*
X55268Y-42070D02*
X55616Y-41722D01*
X55616Y-41722D02*
X55985Y-41722D01*
X54594Y-42070D02*
X54994Y-42070D01*
X54994Y-42070D02*
X54969Y-42070D01*
X55019Y-42120D02*
X55019Y-43070D01*
X54969Y-42070D02*
X55019Y-42120D01*
X51369Y-44420D02*
X51169Y-44220D01*
X51169Y-44220D02*
X51169Y-43670D01*
X54594Y-42070D02*
X53969Y-42070D01*
X51769Y-44120D02*
X51769Y-45020D01*
X64689Y-46279D02*
X63930Y-46279D01*
X63930Y-46279D02*
X63827Y-46382D01*
X57172Y-47728D02*
X57172Y-47129D01*
X57172Y-47129D02*
X57168Y-47125D01*
X57418Y-44961D02*
X57418Y-44673D01*
X57418Y-44673D02*
X57143Y-44398D01*
X54899Y-44176D02*
X54717Y-44358D01*
X55236Y-44176D02*
X54899Y-44176D01*
X57772Y-47728D02*
X57755Y-47728D01*
X57418Y-47391D02*
X57418Y-47125D01*
X57755Y-47728D02*
X57418Y-47391D01*
X57106Y-44961D02*
X56543Y-44398D01*
X57168Y-44961D02*
X57106Y-44961D01*
X58668Y-47125D02*
X58668Y-47430D01*
X58668Y-47430D02*
X58381Y-47717D01*
X58668Y-44961D02*
X58668Y-44630D01*
X58668Y-44630D02*
X58428Y-44390D01*
X60799Y-50218D02*
X60799Y-50086D01*
X60799Y-50086D02*
X60052Y-49339D01*
X55372Y-48840D02*
X55372Y-48227D01*
X55372Y-48227D02*
X55316Y-48171D01*
X59452Y-48610D02*
X59452Y-49339D01*
X59452Y-48610D02*
X59324Y-48482D01*
X53742Y-48147D02*
X53742Y-49825D01*
X54135Y-50218D02*
X54809Y-50218D01*
X53742Y-49825D02*
X54135Y-50218D01*
X53096Y-47337D02*
X53096Y-47501D01*
X53096Y-47501D02*
X53742Y-48147D01*
X52519Y-45020D02*
X52481Y-45020D01*
X52175Y-44675D02*
X52411Y-44439D01*
X52175Y-44714D02*
X52175Y-44675D01*
X52481Y-45020D02*
X52175Y-44714D01*
X58742Y-40509D02*
X58742Y-40297D01*
X58639Y-40612D02*
X58742Y-40509D01*
X59332Y-40514D02*
X59332Y-40297D01*
X59171Y-40675D02*
X59332Y-40514D01*
X60067Y-46741D02*
X60067Y-46823D01*
X62744Y-47819D02*
X62744Y-47390D01*
X62543Y-48020D02*
X62744Y-47819D01*
X61264Y-48020D02*
X62543Y-48020D01*
X60067Y-46823D02*
X61264Y-48020D01*
X53544Y-34722D02*
X53320Y-34722D01*
X53064Y-34978D02*
X53064Y-35444D01*
X53320Y-34722D02*
X53064Y-34978D01*
X53544Y-34021D02*
X53544Y-34722D01*
X54599Y-33340D02*
X53734Y-33340D01*
X53544Y-33530D02*
X53544Y-34021D01*
X53734Y-33340D02*
X53544Y-33530D01*
X54599Y-33340D02*
X54599Y-34001D01*
X54599Y-34001D02*
X54579Y-34021D01*
X57917Y-34527D02*
X58567Y-34527D01*
X59287Y-33003D02*
X59503Y-33003D01*
X58567Y-34259D02*
X58567Y-34527D01*
X58728Y-34098D02*
X58567Y-34259D01*
X59406Y-34106D02*
X59343Y-34106D01*
X59736Y-33776D02*
X59406Y-34106D01*
X59736Y-33236D02*
X59736Y-33776D01*
X59503Y-33003D02*
X59736Y-33236D01*
X58551Y-34511D02*
X58567Y-34527D01*
X59287Y-33003D02*
X59332Y-33003D01*
X59332Y-33003D02*
X59944Y-32391D01*
X59944Y-32391D02*
X60917Y-32391D01*
X53969Y-42670D02*
X53445Y-42670D01*
X53445Y-42670D02*
X53375Y-42600D01*
X53375Y-42600D02*
X53208Y-42600D01*
X53445Y-42670D02*
X53375Y-42600D01*
X52734Y-42923D02*
X52753Y-42923D01*
X53320Y-42655D02*
X53375Y-42600D01*
X53021Y-42655D02*
X53320Y-42655D01*
X52753Y-42923D02*
X53021Y-42655D01*
G54D34*
X49970Y-44586D02*
X47635Y-46916D01*
X47874Y-48945D02*
X47874Y-48957D01*
X47874Y-48957D02*
X47911Y-48994D01*
X47697Y-48780D02*
X47703Y-48774D01*
X47630Y-48705D02*
X47634Y-48705D01*
X47635Y-48700D02*
X47630Y-48705D01*
X47635Y-46916D02*
X47635Y-47557D01*
X47635Y-47557D02*
X47635Y-48700D01*
X47634Y-48705D02*
X47703Y-48774D01*
X47703Y-48774D02*
X47874Y-48945D01*
X47874Y-48945D02*
X48098Y-49169D01*
X51840Y-43671D02*
X51860Y-43651D01*
X52246Y-43655D02*
X52226Y-43675D01*
X52226Y-43675D02*
X51730Y-43675D01*
X51730Y-43675D02*
X51576Y-43521D01*
X53163Y-43297D02*
X52655Y-43655D01*
X52655Y-43655D02*
X52246Y-43655D01*
G54D32*
X52431Y-43248D02*
X52490Y-43189D01*
G54D34*
X53907Y-42982D02*
X54173Y-42982D01*
X53482Y-43017D02*
X53872Y-43017D01*
X53872Y-43017D02*
X53907Y-42982D01*
X54173Y-42982D02*
X54212Y-43021D01*
X52711Y-43222D02*
X52459Y-43222D01*
X52459Y-43222D02*
X52439Y-43242D01*
X52785Y-43222D02*
X52824Y-43222D01*
X52785Y-43222D02*
X52711Y-43222D01*
X52266Y-43415D02*
X52131Y-43415D01*
X52439Y-43242D02*
X52266Y-43415D01*
X53482Y-43017D02*
X53029Y-43017D01*
X53029Y-43017D02*
X52824Y-43222D01*
X52824Y-43222D02*
X52828Y-43222D01*
X53482Y-43017D02*
X53481Y-43017D01*
X50569Y-43374D02*
X50569Y-43670D01*
X50423Y-43228D02*
X50569Y-43374D01*
X52584Y-42187D02*
X52871Y-42187D01*
X52871Y-42187D02*
X52883Y-42175D01*
X55718Y-42421D02*
X55708Y-42411D01*
X57273Y-42460D02*
X57273Y-42529D01*
X57273Y-42529D02*
X57480Y-42736D01*
X57224Y-42411D02*
X57273Y-42460D01*
X57210Y-42411D02*
X55317Y-42411D01*
X55317Y-42411D02*
X55301Y-42395D01*
X51257Y-42502D02*
X50990Y-42769D01*
X50990Y-42769D02*
X50568Y-42769D01*
X50498Y-42699D02*
X50568Y-42769D01*
X52584Y-42187D02*
X52576Y-42195D01*
X52576Y-42195D02*
X51572Y-42195D01*
X51572Y-42195D02*
X51265Y-42502D01*
X51265Y-42502D02*
X51257Y-42502D01*
X57210Y-42411D02*
X57224Y-42411D01*
G54D32*
X51003Y-42736D02*
X50984Y-42717D01*
G54D34*
X50132Y-43233D02*
X50132Y-43232D01*
X50144Y-43220D02*
X50132Y-43232D01*
X50119Y-42920D02*
X50119Y-42868D01*
X50119Y-42868D02*
X50288Y-42699D01*
X50288Y-42699D02*
X50498Y-42699D01*
X50132Y-43233D02*
X50119Y-43220D01*
X50119Y-42920D02*
X50119Y-43220D01*
G54D32*
X50498Y-42699D02*
X50498Y-42706D01*
G54D34*
X50132Y-43233D02*
X50569Y-43670D01*
X58732Y-32433D02*
X58776Y-32477D01*
X58776Y-32477D02*
X58776Y-33630D01*
X59018Y-33872D02*
X58776Y-33630D01*
X65311Y-36012D02*
X65311Y-33713D01*
X65311Y-33713D02*
X65378Y-33646D01*
G54D32*
X59772Y-45106D02*
X59772Y-44866D01*
X59772Y-44866D02*
X59737Y-44831D01*
X59737Y-44831D02*
X59468Y-44831D01*
X62783Y-45551D02*
X61945Y-45551D01*
X61945Y-45551D02*
X61677Y-45819D01*
X61677Y-45819D02*
X60654Y-45819D01*
X60654Y-45819D02*
X60634Y-45799D01*
X63087Y-45247D02*
X63087Y-44949D01*
X62783Y-45551D02*
X63087Y-45247D01*
X62713Y-43252D02*
X62713Y-44094D01*
X63996Y-45858D02*
X64413Y-45858D01*
X63087Y-44949D02*
X63996Y-45858D01*
X62713Y-44094D02*
X62717Y-44098D01*
G54D34*
X58515Y-50732D02*
X49142Y-50732D01*
X59029Y-50218D02*
X58515Y-50732D01*
X47283Y-45063D02*
X47793Y-44553D01*
X47283Y-48873D02*
X47283Y-45063D01*
X49142Y-50732D02*
X47283Y-48873D01*
X63102Y-43252D02*
X62713Y-43252D01*
X63106Y-43248D02*
X63102Y-43252D01*
X62674Y-43291D02*
X62713Y-43252D01*
X59325Y-42495D02*
X60121Y-43291D01*
X59325Y-42495D02*
X59325Y-42218D01*
X60121Y-43291D02*
X62674Y-43291D01*
X59852Y-35928D02*
X59243Y-35928D01*
X59243Y-35928D02*
X58988Y-35673D01*
X58988Y-35673D02*
X58988Y-33902D01*
X58988Y-33902D02*
X59018Y-33872D01*
X59018Y-33872D02*
X59287Y-33603D01*
G54D32*
X61740Y-36839D02*
X61740Y-36984D01*
X62083Y-37327D02*
X62546Y-37327D01*
X61740Y-36984D02*
X62083Y-37327D01*
X59468Y-44831D02*
X59048Y-44831D01*
X59048Y-44831D02*
X58918Y-44961D01*
X59028Y-44390D02*
X59028Y-44851D01*
X59028Y-44851D02*
X58918Y-44961D01*
G54D34*
X61637Y-36712D02*
X61637Y-36736D01*
X61024Y-36712D02*
X61637Y-36712D01*
X61013Y-36712D02*
X61024Y-36712D01*
X61637Y-36736D02*
X61740Y-36839D01*
X61013Y-36712D02*
X60917Y-36616D01*
X60917Y-36013D02*
X60917Y-36616D01*
X61909Y-38488D02*
X63673Y-38488D01*
X65047Y-37114D02*
X65047Y-36280D01*
X63673Y-38488D02*
X65047Y-37114D01*
X47793Y-44553D02*
X47781Y-44553D01*
X65311Y-36012D02*
X65311Y-36016D01*
X65311Y-36016D02*
X65047Y-36280D01*
X61909Y-38488D02*
X61535Y-38488D01*
X60629Y-36545D02*
X60629Y-36301D01*
X60629Y-36301D02*
X60917Y-36013D01*
X60917Y-36110D02*
X60917Y-36013D01*
X52933Y-41634D02*
X52952Y-41615D01*
X58009Y-39404D02*
X58009Y-39847D01*
X58009Y-39847D02*
X58041Y-39879D01*
X57419Y-40447D02*
X57419Y-40399D01*
X57939Y-39879D02*
X58041Y-39879D01*
X57419Y-40399D02*
X57939Y-39879D01*
X57313Y-40553D02*
X57419Y-40447D01*
X57419Y-40447D02*
X57435Y-40447D01*
X57313Y-40553D02*
X57313Y-40552D01*
X52627Y-41620D02*
X54250Y-41620D01*
G54D35*
X57635Y-41415D02*
X57548Y-41415D01*
G54D34*
X58981Y-41415D02*
X57635Y-41415D01*
G54D35*
X57151Y-41018D02*
X57151Y-40715D01*
X57548Y-41415D02*
X57151Y-41018D01*
G54D34*
X60917Y-36013D02*
X59937Y-36013D01*
X59937Y-36013D02*
X59852Y-35928D01*
X58518Y-43021D02*
X58522Y-43021D01*
X58522Y-43021D02*
X59325Y-42218D01*
X59325Y-42218D02*
X59325Y-41759D01*
X59325Y-41759D02*
X58981Y-41415D01*
X59541Y-42002D02*
X59325Y-42218D01*
X58530Y-43033D02*
X58518Y-43021D01*
X57151Y-40715D02*
X57313Y-40553D01*
G54D35*
X54144Y-33652D02*
X54217Y-33579D01*
X54144Y-34021D02*
X54144Y-33652D01*
X55684Y-34424D02*
X55684Y-34886D01*
X55677Y-34417D02*
X55684Y-34424D01*
X56133Y-35444D02*
X56133Y-35299D01*
X56133Y-35299D02*
X55720Y-34886D01*
X55720Y-34886D02*
X55684Y-34886D01*
G54D34*
X51598Y-40867D02*
X52541Y-40867D01*
X52541Y-40867D02*
X53112Y-40296D01*
X50969Y-40665D02*
X51396Y-40665D01*
X51396Y-40665D02*
X51598Y-40867D01*
X49882Y-40654D02*
X50958Y-40654D01*
X49225Y-39997D02*
X49882Y-40654D01*
X49225Y-39796D02*
X49225Y-39997D01*
X50958Y-40654D02*
X50969Y-40665D01*
G54D35*
X57435Y-39071D02*
X57435Y-39348D01*
X56935Y-38411D02*
X56935Y-38309D01*
X57083Y-38559D02*
X56935Y-38411D01*
G54D32*
X54346Y-37846D02*
X55244Y-37846D01*
G54D35*
X55344Y-40241D02*
X55448Y-40241D01*
X55448Y-40241D02*
X55738Y-40531D01*
X53844Y-40270D02*
X55315Y-40270D01*
X55315Y-40270D02*
X55344Y-40241D01*
G54D34*
X55366Y-39796D02*
X55366Y-40219D01*
X55366Y-40219D02*
X55344Y-40241D01*
G54D35*
X55852Y-40270D02*
X55469Y-40270D01*
X55887Y-40305D02*
X55852Y-40270D01*
G54D34*
X56597Y-40571D02*
X56618Y-40571D01*
X56618Y-40571D02*
X56845Y-40344D01*
X57132Y-40320D02*
X56869Y-40320D01*
X56869Y-40320D02*
X56845Y-40344D01*
G54D35*
X57413Y-39796D02*
X57413Y-40039D01*
X57413Y-40039D02*
X57132Y-40320D01*
G54D32*
X56901Y-39796D02*
X56901Y-40288D01*
X56901Y-40288D02*
X56845Y-40344D01*
X54598Y-35444D02*
X54598Y-35716D01*
X54053Y-35825D02*
X54053Y-36576D01*
X54120Y-35758D02*
X54053Y-35825D01*
X54598Y-35716D02*
X54564Y-35750D01*
G54D35*
X56133Y-36594D02*
X56133Y-35444D01*
X56133Y-36594D02*
X56139Y-36600D01*
X57533Y-37711D02*
X58061Y-37711D01*
X56935Y-38309D02*
X57533Y-37711D01*
G54D34*
X56931Y-41372D02*
X56931Y-41292D01*
G54D35*
X55541Y-43723D02*
X55729Y-43723D01*
X56097Y-42840D02*
X56478Y-42840D01*
X55950Y-42987D02*
X56097Y-42840D01*
X55950Y-43502D02*
X55950Y-42987D01*
X55729Y-43723D02*
X55950Y-43502D01*
G54D34*
X56931Y-41292D02*
X56597Y-40958D01*
X56597Y-40958D02*
X56597Y-40571D01*
X56597Y-40571D02*
X56597Y-40567D01*
G54D35*
X53844Y-40270D02*
X53138Y-40270D01*
X53138Y-40270D02*
X53112Y-40296D01*
X53112Y-40296D02*
X53112Y-39844D01*
X53112Y-39844D02*
X53064Y-39796D01*
X53844Y-40270D02*
X53844Y-39810D01*
X53844Y-39810D02*
X53830Y-39796D01*
X57413Y-39370D02*
X57413Y-39796D01*
X57435Y-39348D02*
X57413Y-39370D01*
X54053Y-36576D02*
X54049Y-36572D01*
X54623Y-34714D02*
X54623Y-35419D01*
X54623Y-35419D02*
X54598Y-35444D01*
X54144Y-34722D02*
X54615Y-34722D01*
X54615Y-34722D02*
X54623Y-34714D01*
X54144Y-34021D02*
X54144Y-34722D01*
X55541Y-43723D02*
X54361Y-43723D01*
X54361Y-43723D02*
X53907Y-43269D01*
G54D34*
X49972Y-44980D02*
X49972Y-44968D01*
X49972Y-44968D02*
X49996Y-44944D01*
G54D35*
X52600Y-42600D02*
X52342Y-42600D01*
G54D34*
X52765Y-44321D02*
X52765Y-44566D01*
X52765Y-44566D02*
X52775Y-44576D01*
X52765Y-44321D02*
X53226Y-44321D01*
X53226Y-44321D02*
X53370Y-44465D01*
X50167Y-44785D02*
X49972Y-44980D01*
X49972Y-44980D02*
X48761Y-46191D01*
X53370Y-44465D02*
X53370Y-44476D01*
X53370Y-44476D02*
X53549Y-44655D01*
X49754Y-50218D02*
X49754Y-50203D01*
X50494Y-50218D02*
X49754Y-50218D01*
X49320Y-47332D02*
X48718Y-46730D01*
X49320Y-49769D02*
X49320Y-47332D01*
X49754Y-50203D02*
X49320Y-49769D01*
X48718Y-46730D02*
X48718Y-46234D01*
X48718Y-46234D02*
X48761Y-46191D01*
X48761Y-46191D02*
X48757Y-46191D01*
G54D35*
X52509Y-42600D02*
X52600Y-42600D01*
X52600Y-42600D02*
X52797Y-42600D01*
X52797Y-42600D02*
X52954Y-42443D01*
G54D32*
X56579Y-50218D02*
X56579Y-49622D01*
X56906Y-45913D02*
X57378Y-45441D01*
X56906Y-48189D02*
X56906Y-45913D01*
X56555Y-48540D02*
X56906Y-48189D01*
X56555Y-49598D02*
X56555Y-48540D01*
X56579Y-49622D02*
X56555Y-49598D01*
G54D10*
G36*
X49491Y-50404D02*
X49278Y-50404D01*
X48316Y-49442D01*
X48392Y-49366D01*
X48445Y-49238D01*
X48445Y-49100D01*
X48392Y-48972D01*
X48295Y-48875D01*
X48247Y-48855D01*
X48215Y-48823D01*
X48205Y-48797D01*
X48108Y-48700D01*
X48082Y-48689D01*
X48001Y-48608D01*
X47991Y-48583D01*
X47963Y-48555D01*
X47963Y-47557D01*
X47963Y-47052D01*
X48169Y-46847D01*
X48169Y-47079D01*
X48207Y-47171D01*
X48277Y-47241D01*
X48368Y-47279D01*
X48430Y-47279D01*
X48410Y-47352D01*
X48683Y-47624D01*
X48718Y-47659D01*
X48789Y-47730D01*
X48718Y-47801D01*
X48647Y-47871D01*
X48647Y-47730D01*
X48340Y-47422D01*
X48246Y-47449D01*
X48175Y-47651D01*
X48186Y-47864D01*
X48246Y-48011D01*
X48340Y-48038D01*
X48647Y-47730D01*
X48647Y-47871D01*
X48410Y-48108D01*
X48437Y-48202D01*
X48639Y-48273D01*
X48852Y-48262D01*
X48992Y-48204D01*
X48992Y-49769D01*
X49017Y-49895D01*
X49088Y-50001D01*
X49489Y-50401D01*
X49491Y-50404D01*
X49491Y-50404D01*
G37*
G54D36*
X49491Y-50404D02*
X49278Y-50404D01*
X48316Y-49442D01*
X48392Y-49366D01*
X48445Y-49238D01*
X48445Y-49100D01*
X48392Y-48972D01*
X48295Y-48875D01*
X48247Y-48855D01*
X48215Y-48823D01*
X48205Y-48797D01*
X48108Y-48700D01*
X48082Y-48689D01*
X48001Y-48608D01*
X47991Y-48583D01*
X47963Y-48555D01*
X47963Y-47557D01*
X47963Y-47052D01*
X48169Y-46847D01*
X48169Y-47079D01*
X48207Y-47171D01*
X48277Y-47241D01*
X48368Y-47279D01*
X48430Y-47279D01*
X48410Y-47352D01*
X48683Y-47624D01*
X48718Y-47659D01*
X48789Y-47730D01*
X48718Y-47801D01*
X48647Y-47871D01*
X48647Y-47730D01*
X48340Y-47422D01*
X48246Y-47449D01*
X48175Y-47651D01*
X48186Y-47864D01*
X48246Y-48011D01*
X48340Y-48038D01*
X48647Y-47730D01*
X48647Y-47871D01*
X48410Y-48108D01*
X48437Y-48202D01*
X48639Y-48273D01*
X48852Y-48262D01*
X48992Y-48204D01*
X48992Y-49769D01*
X49017Y-49895D01*
X49088Y-50001D01*
X49489Y-50401D01*
X49491Y-50404D01*
G54D10*
G36*
X51480Y-44522D02*
X51453Y-44534D01*
X51383Y-44604D01*
X51345Y-44695D01*
X51345Y-44794D01*
X51345Y-44802D01*
X50686Y-44144D01*
X50743Y-44144D01*
X50835Y-44106D01*
X50869Y-44072D01*
X50903Y-44106D01*
X50995Y-44144D01*
X51057Y-44145D01*
X51119Y-44083D01*
X51119Y-43770D01*
X51119Y-43720D01*
X51119Y-43620D01*
X51219Y-43620D01*
X51219Y-43720D01*
X51219Y-43770D01*
X51219Y-44083D01*
X51281Y-44145D01*
X51343Y-44144D01*
X51422Y-44111D01*
X51422Y-44189D01*
X51475Y-44317D01*
X51480Y-44322D01*
X51480Y-44522D01*
X51480Y-44522D01*
G37*
G54D36*
X51480Y-44522D02*
X51453Y-44534D01*
X51383Y-44604D01*
X51345Y-44695D01*
X51345Y-44794D01*
X51345Y-44802D01*
X50686Y-44144D01*
X50743Y-44144D01*
X50835Y-44106D01*
X50869Y-44072D01*
X50903Y-44106D01*
X50995Y-44144D01*
X51057Y-44145D01*
X51119Y-44083D01*
X51119Y-43770D01*
X51119Y-43720D01*
X51119Y-43620D01*
X51219Y-43620D01*
X51219Y-43720D01*
X51219Y-43770D01*
X51219Y-44083D01*
X51281Y-44145D01*
X51343Y-44144D01*
X51422Y-44111D01*
X51422Y-44189D01*
X51475Y-44317D01*
X51480Y-44322D01*
X51480Y-44522D01*
G54D10*
G36*
X54597Y-44032D02*
X54520Y-44064D01*
X54423Y-44161D01*
X54370Y-44289D01*
X54370Y-44427D01*
X54406Y-44515D01*
X54375Y-44546D01*
X54373Y-44548D01*
X54363Y-44558D01*
X54336Y-44531D01*
X54208Y-44478D01*
X54070Y-44478D01*
X54037Y-44491D01*
X54010Y-44464D01*
X53882Y-44411D01*
X53796Y-44411D01*
X53746Y-44361D01*
X53699Y-44341D01*
X53690Y-44332D01*
X53664Y-44268D01*
X53567Y-44171D01*
X53520Y-44151D01*
X53458Y-44089D01*
X53352Y-44018D01*
X53226Y-43993D01*
X52879Y-43993D01*
X52834Y-43974D01*
X52729Y-43974D01*
X52752Y-43963D01*
X52781Y-43958D01*
X52812Y-43937D01*
X52844Y-43923D01*
X53251Y-43636D01*
X53360Y-43591D01*
X53457Y-43494D01*
X53510Y-43366D01*
X53510Y-43345D01*
X53562Y-43345D01*
X53613Y-43466D01*
X53710Y-43563D01*
X53803Y-43601D01*
X54142Y-43941D01*
X54143Y-43941D01*
X54243Y-44008D01*
X54361Y-44032D01*
X54597Y-44032D01*
X54597Y-44032D01*
G37*
G54D36*
X54597Y-44032D02*
X54520Y-44064D01*
X54423Y-44161D01*
X54370Y-44289D01*
X54370Y-44427D01*
X54406Y-44515D01*
X54375Y-44546D01*
X54373Y-44548D01*
X54363Y-44558D01*
X54336Y-44531D01*
X54208Y-44478D01*
X54070Y-44478D01*
X54037Y-44491D01*
X54010Y-44464D01*
X53882Y-44411D01*
X53796Y-44411D01*
X53746Y-44361D01*
X53699Y-44341D01*
X53690Y-44332D01*
X53664Y-44268D01*
X53567Y-44171D01*
X53520Y-44151D01*
X53458Y-44089D01*
X53352Y-44018D01*
X53226Y-43993D01*
X52879Y-43993D01*
X52834Y-43974D01*
X52729Y-43974D01*
X52752Y-43963D01*
X52781Y-43958D01*
X52812Y-43937D01*
X52844Y-43923D01*
X53251Y-43636D01*
X53360Y-43591D01*
X53457Y-43494D01*
X53510Y-43366D01*
X53510Y-43345D01*
X53562Y-43345D01*
X53613Y-43466D01*
X53710Y-43563D01*
X53803Y-43601D01*
X54142Y-43941D01*
X54143Y-43941D01*
X54243Y-44008D01*
X54361Y-44032D01*
X54597Y-44032D01*
G54D10*
G36*
X56047Y-41297D02*
X56035Y-41309D01*
X56035Y-41622D01*
X56035Y-41672D01*
X56035Y-41772D01*
X55935Y-41772D01*
X55885Y-41772D01*
X55672Y-41772D01*
X55610Y-41834D01*
X55611Y-41898D01*
X55611Y-41997D01*
X55644Y-42076D01*
X55627Y-42083D01*
X55454Y-42083D01*
X55370Y-42048D01*
X55294Y-42048D01*
X55294Y-41154D01*
X55294Y-40891D01*
X54931Y-40891D01*
X54869Y-40953D01*
X54870Y-41015D01*
X54908Y-41107D01*
X54978Y-41177D01*
X55069Y-41215D01*
X55168Y-41215D01*
X55232Y-41216D01*
X55294Y-41154D01*
X55294Y-42048D01*
X55232Y-42048D01*
X55104Y-42101D01*
X55007Y-42198D01*
X54954Y-42326D01*
X54954Y-42464D01*
X55007Y-42592D01*
X55104Y-42689D01*
X55232Y-42742D01*
X55370Y-42742D01*
X55377Y-42739D01*
X55578Y-42739D01*
X55637Y-42763D01*
X55591Y-42810D01*
X55591Y-43023D01*
X55591Y-43073D01*
X55591Y-43173D01*
X55491Y-43173D01*
X55491Y-43073D01*
X55491Y-42810D01*
X55429Y-42748D01*
X55365Y-42749D01*
X55266Y-42749D01*
X55175Y-42787D01*
X55105Y-42857D01*
X55067Y-42949D01*
X55066Y-43011D01*
X55128Y-43073D01*
X55491Y-43073D01*
X55491Y-43173D01*
X55441Y-43173D01*
X55128Y-43173D01*
X55066Y-43235D01*
X55067Y-43297D01*
X55105Y-43389D01*
X55130Y-43414D01*
X54488Y-43414D01*
X54395Y-43320D01*
X54409Y-43315D01*
X54506Y-43218D01*
X54559Y-43090D01*
X54559Y-42952D01*
X54506Y-42824D01*
X54443Y-42761D01*
X54443Y-42746D01*
X54443Y-42496D01*
X54405Y-42404D01*
X54371Y-42370D01*
X54405Y-42336D01*
X54443Y-42244D01*
X54444Y-42182D01*
X54382Y-42120D01*
X54069Y-42120D01*
X54019Y-42120D01*
X53919Y-42120D01*
X53869Y-42120D01*
X53556Y-42120D01*
X53494Y-42182D01*
X53495Y-42244D01*
X53498Y-42251D01*
X53454Y-42233D01*
X53355Y-42233D01*
X53235Y-42233D01*
X53230Y-42228D01*
X53230Y-42106D01*
X53177Y-41978D01*
X53147Y-41948D01*
X53494Y-41948D01*
X53494Y-41958D01*
X53556Y-42020D01*
X53869Y-42020D01*
X53919Y-42020D01*
X54019Y-42020D01*
X54069Y-42020D01*
X54382Y-42020D01*
X54444Y-41958D01*
X54443Y-41915D01*
X54447Y-41914D01*
X54544Y-41817D01*
X54597Y-41689D01*
X54597Y-41551D01*
X54544Y-41423D01*
X54447Y-41326D01*
X54319Y-41273D01*
X54319Y-40982D01*
X54257Y-40920D01*
X53894Y-40920D01*
X53894Y-41183D01*
X53956Y-41245D01*
X54020Y-41244D01*
X54119Y-41244D01*
X54210Y-41206D01*
X54280Y-41136D01*
X54318Y-41044D01*
X54319Y-40982D01*
X54319Y-41273D01*
X54181Y-41273D01*
X54135Y-41292D01*
X54016Y-41292D01*
X53956Y-41267D01*
X53818Y-41267D01*
X53794Y-41276D01*
X53794Y-41183D01*
X53794Y-40920D01*
X53431Y-40920D01*
X53405Y-40946D01*
X53162Y-40946D01*
X53162Y-41209D01*
X53224Y-41271D01*
X53288Y-41270D01*
X53387Y-41270D01*
X53478Y-41232D01*
X53496Y-41213D01*
X53569Y-41244D01*
X53668Y-41244D01*
X53732Y-41245D01*
X53794Y-41183D01*
X53794Y-41276D01*
X53757Y-41292D01*
X53014Y-41292D01*
X53002Y-41287D01*
X52864Y-41287D01*
X52851Y-41292D01*
X52741Y-41292D01*
X52696Y-41273D01*
X52558Y-41273D01*
X52430Y-41326D01*
X52333Y-41423D01*
X52327Y-41436D01*
X52320Y-41432D01*
X52319Y-41431D01*
X52269Y-41381D01*
X52141Y-41328D01*
X52003Y-41328D01*
X51875Y-41381D01*
X51778Y-41478D01*
X51725Y-41606D01*
X51725Y-41744D01*
X51775Y-41867D01*
X51572Y-41867D01*
X51493Y-41882D01*
X51493Y-41813D01*
X51440Y-41685D01*
X51345Y-41590D01*
X51405Y-41531D01*
X51443Y-41439D01*
X51444Y-41377D01*
X51382Y-41315D01*
X51069Y-41315D01*
X51019Y-41315D01*
X50919Y-41315D01*
X50919Y-41215D01*
X51019Y-41215D01*
X51069Y-41215D01*
X51260Y-41215D01*
X51323Y-41241D01*
X51422Y-41241D01*
X51872Y-41241D01*
X51964Y-41203D01*
X51972Y-41195D01*
X52541Y-41195D01*
X52666Y-41170D01*
X52667Y-41170D01*
X52677Y-41163D01*
X52746Y-41232D01*
X52837Y-41270D01*
X52936Y-41270D01*
X53000Y-41271D01*
X53062Y-41209D01*
X53062Y-40996D01*
X53062Y-40946D01*
X53062Y-40846D01*
X53162Y-40846D01*
X53212Y-40846D01*
X53525Y-40846D01*
X53551Y-40820D01*
X53744Y-40820D01*
X53794Y-40820D01*
X53894Y-40820D01*
X53944Y-40820D01*
X54257Y-40820D01*
X54319Y-40758D01*
X54318Y-40696D01*
X54280Y-40604D01*
X54255Y-40579D01*
X54906Y-40579D01*
X54870Y-40667D01*
X54869Y-40729D01*
X54931Y-40791D01*
X55244Y-40791D01*
X55294Y-40791D01*
X55394Y-40791D01*
X55394Y-40891D01*
X55394Y-40941D01*
X55394Y-41154D01*
X55456Y-41216D01*
X55520Y-41215D01*
X55619Y-41215D01*
X55623Y-41213D01*
X55623Y-41233D01*
X55661Y-41324D01*
X55671Y-41334D01*
X55649Y-41356D01*
X55611Y-41447D01*
X55611Y-41546D01*
X55610Y-41610D01*
X55672Y-41672D01*
X55935Y-41672D01*
X55935Y-41383D01*
X55947Y-41371D01*
X55947Y-41058D01*
X55947Y-41008D01*
X55947Y-40908D01*
X56047Y-40908D01*
X56047Y-41008D01*
X56047Y-41058D01*
X56047Y-41297D01*
X56047Y-41297D01*
G37*
G54D36*
X56047Y-41297D02*
X56035Y-41309D01*
X56035Y-41622D01*
X56035Y-41672D01*
X56035Y-41772D01*
X55935Y-41772D01*
X55885Y-41772D01*
X55672Y-41772D01*
X55610Y-41834D01*
X55611Y-41898D01*
X55611Y-41997D01*
X55644Y-42076D01*
X55627Y-42083D01*
X55454Y-42083D01*
X55370Y-42048D01*
X55294Y-42048D01*
X55294Y-41154D01*
X55294Y-40891D01*
X54931Y-40891D01*
X54869Y-40953D01*
X54870Y-41015D01*
X54908Y-41107D01*
X54978Y-41177D01*
X55069Y-41215D01*
X55168Y-41215D01*
X55232Y-41216D01*
X55294Y-41154D01*
X55294Y-42048D01*
X55232Y-42048D01*
X55104Y-42101D01*
X55007Y-42198D01*
X54954Y-42326D01*
X54954Y-42464D01*
X55007Y-42592D01*
X55104Y-42689D01*
X55232Y-42742D01*
X55370Y-42742D01*
X55377Y-42739D01*
X55578Y-42739D01*
X55637Y-42763D01*
X55591Y-42810D01*
X55591Y-43023D01*
X55591Y-43073D01*
X55591Y-43173D01*
X55491Y-43173D01*
X55491Y-43073D01*
X55491Y-42810D01*
X55429Y-42748D01*
X55365Y-42749D01*
X55266Y-42749D01*
X55175Y-42787D01*
X55105Y-42857D01*
X55067Y-42949D01*
X55066Y-43011D01*
X55128Y-43073D01*
X55491Y-43073D01*
X55491Y-43173D01*
X55441Y-43173D01*
X55128Y-43173D01*
X55066Y-43235D01*
X55067Y-43297D01*
X55105Y-43389D01*
X55130Y-43414D01*
X54488Y-43414D01*
X54395Y-43320D01*
X54409Y-43315D01*
X54506Y-43218D01*
X54559Y-43090D01*
X54559Y-42952D01*
X54506Y-42824D01*
X54443Y-42761D01*
X54443Y-42746D01*
X54443Y-42496D01*
X54405Y-42404D01*
X54371Y-42370D01*
X54405Y-42336D01*
X54443Y-42244D01*
X54444Y-42182D01*
X54382Y-42120D01*
X54069Y-42120D01*
X54019Y-42120D01*
X53919Y-42120D01*
X53869Y-42120D01*
X53556Y-42120D01*
X53494Y-42182D01*
X53495Y-42244D01*
X53498Y-42251D01*
X53454Y-42233D01*
X53355Y-42233D01*
X53235Y-42233D01*
X53230Y-42228D01*
X53230Y-42106D01*
X53177Y-41978D01*
X53147Y-41948D01*
X53494Y-41948D01*
X53494Y-41958D01*
X53556Y-42020D01*
X53869Y-42020D01*
X53919Y-42020D01*
X54019Y-42020D01*
X54069Y-42020D01*
X54382Y-42020D01*
X54444Y-41958D01*
X54443Y-41915D01*
X54447Y-41914D01*
X54544Y-41817D01*
X54597Y-41689D01*
X54597Y-41551D01*
X54544Y-41423D01*
X54447Y-41326D01*
X54319Y-41273D01*
X54319Y-40982D01*
X54257Y-40920D01*
X53894Y-40920D01*
X53894Y-41183D01*
X53956Y-41245D01*
X54020Y-41244D01*
X54119Y-41244D01*
X54210Y-41206D01*
X54280Y-41136D01*
X54318Y-41044D01*
X54319Y-40982D01*
X54319Y-41273D01*
X54181Y-41273D01*
X54135Y-41292D01*
X54016Y-41292D01*
X53956Y-41267D01*
X53818Y-41267D01*
X53794Y-41276D01*
X53794Y-41183D01*
X53794Y-40920D01*
X53431Y-40920D01*
X53405Y-40946D01*
X53162Y-40946D01*
X53162Y-41209D01*
X53224Y-41271D01*
X53288Y-41270D01*
X53387Y-41270D01*
X53478Y-41232D01*
X53496Y-41213D01*
X53569Y-41244D01*
X53668Y-41244D01*
X53732Y-41245D01*
X53794Y-41183D01*
X53794Y-41276D01*
X53757Y-41292D01*
X53014Y-41292D01*
X53002Y-41287D01*
X52864Y-41287D01*
X52851Y-41292D01*
X52741Y-41292D01*
X52696Y-41273D01*
X52558Y-41273D01*
X52430Y-41326D01*
X52333Y-41423D01*
X52327Y-41436D01*
X52320Y-41432D01*
X52319Y-41431D01*
X52269Y-41381D01*
X52141Y-41328D01*
X52003Y-41328D01*
X51875Y-41381D01*
X51778Y-41478D01*
X51725Y-41606D01*
X51725Y-41744D01*
X51775Y-41867D01*
X51572Y-41867D01*
X51493Y-41882D01*
X51493Y-41813D01*
X51440Y-41685D01*
X51345Y-41590D01*
X51405Y-41531D01*
X51443Y-41439D01*
X51444Y-41377D01*
X51382Y-41315D01*
X51069Y-41315D01*
X51019Y-41315D01*
X50919Y-41315D01*
X50919Y-41215D01*
X51019Y-41215D01*
X51069Y-41215D01*
X51260Y-41215D01*
X51323Y-41241D01*
X51422Y-41241D01*
X51872Y-41241D01*
X51964Y-41203D01*
X51972Y-41195D01*
X52541Y-41195D01*
X52666Y-41170D01*
X52667Y-41170D01*
X52677Y-41163D01*
X52746Y-41232D01*
X52837Y-41270D01*
X52936Y-41270D01*
X53000Y-41271D01*
X53062Y-41209D01*
X53062Y-40996D01*
X53062Y-40946D01*
X53062Y-40846D01*
X53162Y-40846D01*
X53212Y-40846D01*
X53525Y-40846D01*
X53551Y-40820D01*
X53744Y-40820D01*
X53794Y-40820D01*
X53894Y-40820D01*
X53944Y-40820D01*
X54257Y-40820D01*
X54319Y-40758D01*
X54318Y-40696D01*
X54280Y-40604D01*
X54255Y-40579D01*
X54906Y-40579D01*
X54870Y-40667D01*
X54869Y-40729D01*
X54931Y-40791D01*
X55244Y-40791D01*
X55294Y-40791D01*
X55394Y-40791D01*
X55394Y-40891D01*
X55394Y-40941D01*
X55394Y-41154D01*
X55456Y-41216D01*
X55520Y-41215D01*
X55619Y-41215D01*
X55623Y-41213D01*
X55623Y-41233D01*
X55661Y-41324D01*
X55671Y-41334D01*
X55649Y-41356D01*
X55611Y-41447D01*
X55611Y-41546D01*
X55610Y-41610D01*
X55672Y-41672D01*
X55935Y-41672D01*
X55935Y-41383D01*
X55947Y-41371D01*
X55947Y-41058D01*
X55947Y-41008D01*
X55947Y-40908D01*
X56047Y-40908D01*
X56047Y-41008D01*
X56047Y-41058D01*
X56047Y-41297D01*
G54D10*
G36*
X56295Y-40394D02*
X56225Y-40394D01*
X56234Y-40374D01*
X56234Y-40294D01*
X56295Y-40294D01*
X56295Y-40394D01*
X56295Y-40394D01*
G37*
G54D36*
X56295Y-40394D02*
X56225Y-40394D01*
X56234Y-40374D01*
X56234Y-40294D01*
X56295Y-40294D01*
X56295Y-40394D01*
G54D10*
G36*
X56629Y-45849D02*
X56617Y-45913D01*
X56617Y-46887D01*
X55945Y-46887D01*
X55853Y-46925D01*
X55783Y-46995D01*
X55745Y-47086D01*
X55745Y-47185D01*
X55745Y-48169D01*
X55783Y-48261D01*
X55853Y-48331D01*
X55944Y-48369D01*
X56043Y-48369D01*
X56328Y-48369D01*
X56288Y-48429D01*
X56266Y-48540D01*
X56266Y-49598D01*
X56288Y-49709D01*
X56288Y-49710D01*
X56251Y-49726D01*
X56088Y-49889D01*
X55999Y-50102D01*
X55999Y-50333D01*
X56028Y-50404D01*
X55719Y-50404D01*
X55719Y-48909D01*
X55719Y-48771D01*
X55666Y-48643D01*
X55661Y-48638D01*
X55661Y-48244D01*
X55663Y-48240D01*
X55663Y-48102D01*
X55610Y-47974D01*
X55513Y-47877D01*
X55385Y-47824D01*
X55247Y-47824D01*
X55186Y-47849D01*
X55119Y-47877D01*
X55022Y-47974D01*
X54969Y-48102D01*
X54969Y-48240D01*
X55022Y-48368D01*
X55083Y-48429D01*
X55083Y-48638D01*
X55078Y-48643D01*
X55025Y-48771D01*
X55025Y-48909D01*
X55078Y-49037D01*
X55175Y-49134D01*
X55303Y-49187D01*
X55441Y-49187D01*
X55569Y-49134D01*
X55666Y-49037D01*
X55719Y-48909D01*
X55719Y-50404D01*
X55359Y-50404D01*
X55389Y-50334D01*
X55389Y-50103D01*
X55301Y-49890D01*
X55138Y-49727D01*
X54925Y-49638D01*
X54800Y-49638D01*
X54843Y-49595D01*
X54939Y-49364D01*
X54939Y-49113D01*
X54843Y-48881D01*
X54666Y-48704D01*
X54435Y-48608D01*
X54272Y-48608D01*
X54272Y-47441D01*
X54210Y-47379D01*
X53847Y-47379D01*
X53847Y-47642D01*
X53909Y-47704D01*
X53973Y-47703D01*
X54072Y-47703D01*
X54163Y-47665D01*
X54233Y-47595D01*
X54271Y-47503D01*
X54272Y-47441D01*
X54272Y-48608D01*
X54184Y-48608D01*
X54031Y-48671D01*
X54031Y-48349D01*
X54036Y-48344D01*
X54089Y-48216D01*
X54089Y-48078D01*
X54036Y-47950D01*
X53939Y-47853D01*
X53811Y-47800D01*
X53803Y-47800D01*
X53696Y-47692D01*
X53747Y-47642D01*
X53747Y-47429D01*
X53747Y-47379D01*
X53747Y-47279D01*
X53847Y-47279D01*
X53897Y-47279D01*
X54210Y-47279D01*
X54272Y-47217D01*
X54271Y-47155D01*
X54233Y-47063D01*
X54199Y-47029D01*
X54233Y-46995D01*
X54271Y-46904D01*
X54271Y-46805D01*
X54271Y-46555D01*
X54233Y-46463D01*
X54163Y-46393D01*
X54086Y-46360D01*
X54086Y-46249D01*
X54085Y-46248D01*
X54064Y-46138D01*
X54001Y-46045D01*
X54001Y-46044D01*
X53847Y-45890D01*
X54711Y-45026D01*
X54712Y-45026D01*
X54723Y-45026D01*
X54711Y-45038D01*
X54712Y-45150D01*
X54750Y-45242D01*
X54820Y-45312D01*
X54911Y-45350D01*
X55010Y-45350D01*
X55124Y-45351D01*
X55186Y-45289D01*
X55186Y-45026D01*
X55186Y-44976D01*
X55186Y-44881D01*
X55286Y-44881D01*
X55286Y-44976D01*
X55286Y-45026D01*
X55286Y-45289D01*
X55348Y-45351D01*
X55462Y-45350D01*
X55561Y-45350D01*
X55652Y-45312D01*
X55722Y-45242D01*
X55744Y-45188D01*
X55744Y-45649D01*
X55758Y-45683D01*
X55538Y-45903D01*
X55531Y-45903D01*
X55403Y-45956D01*
X55306Y-46053D01*
X55253Y-46181D01*
X55253Y-46319D01*
X55306Y-46447D01*
X55403Y-46544D01*
X55531Y-46597D01*
X55669Y-46597D01*
X55797Y-46544D01*
X55894Y-46447D01*
X55947Y-46319D01*
X55947Y-46311D01*
X56335Y-45924D01*
X56335Y-45923D01*
X56398Y-45830D01*
X56398Y-45825D01*
X56455Y-45849D01*
X56554Y-45849D01*
X56629Y-45849D01*
X56629Y-45849D01*
G37*
G54D36*
X56629Y-45849D02*
X56617Y-45913D01*
X56617Y-46887D01*
X55945Y-46887D01*
X55853Y-46925D01*
X55783Y-46995D01*
X55745Y-47086D01*
X55745Y-47185D01*
X55745Y-48169D01*
X55783Y-48261D01*
X55853Y-48331D01*
X55944Y-48369D01*
X56043Y-48369D01*
X56328Y-48369D01*
X56288Y-48429D01*
X56266Y-48540D01*
X56266Y-49598D01*
X56288Y-49709D01*
X56288Y-49710D01*
X56251Y-49726D01*
X56088Y-49889D01*
X55999Y-50102D01*
X55999Y-50333D01*
X56028Y-50404D01*
X55719Y-50404D01*
X55719Y-48909D01*
X55719Y-48771D01*
X55666Y-48643D01*
X55661Y-48638D01*
X55661Y-48244D01*
X55663Y-48240D01*
X55663Y-48102D01*
X55610Y-47974D01*
X55513Y-47877D01*
X55385Y-47824D01*
X55247Y-47824D01*
X55186Y-47849D01*
X55119Y-47877D01*
X55022Y-47974D01*
X54969Y-48102D01*
X54969Y-48240D01*
X55022Y-48368D01*
X55083Y-48429D01*
X55083Y-48638D01*
X55078Y-48643D01*
X55025Y-48771D01*
X55025Y-48909D01*
X55078Y-49037D01*
X55175Y-49134D01*
X55303Y-49187D01*
X55441Y-49187D01*
X55569Y-49134D01*
X55666Y-49037D01*
X55719Y-48909D01*
X55719Y-50404D01*
X55359Y-50404D01*
X55389Y-50334D01*
X55389Y-50103D01*
X55301Y-49890D01*
X55138Y-49727D01*
X54925Y-49638D01*
X54800Y-49638D01*
X54843Y-49595D01*
X54939Y-49364D01*
X54939Y-49113D01*
X54843Y-48881D01*
X54666Y-48704D01*
X54435Y-48608D01*
X54272Y-48608D01*
X54272Y-47441D01*
X54210Y-47379D01*
X53847Y-47379D01*
X53847Y-47642D01*
X53909Y-47704D01*
X53973Y-47703D01*
X54072Y-47703D01*
X54163Y-47665D01*
X54233Y-47595D01*
X54271Y-47503D01*
X54272Y-47441D01*
X54272Y-48608D01*
X54184Y-48608D01*
X54031Y-48671D01*
X54031Y-48349D01*
X54036Y-48344D01*
X54089Y-48216D01*
X54089Y-48078D01*
X54036Y-47950D01*
X53939Y-47853D01*
X53811Y-47800D01*
X53803Y-47800D01*
X53696Y-47692D01*
X53747Y-47642D01*
X53747Y-47429D01*
X53747Y-47379D01*
X53747Y-47279D01*
X53847Y-47279D01*
X53897Y-47279D01*
X54210Y-47279D01*
X54272Y-47217D01*
X54271Y-47155D01*
X54233Y-47063D01*
X54199Y-47029D01*
X54233Y-46995D01*
X54271Y-46904D01*
X54271Y-46805D01*
X54271Y-46555D01*
X54233Y-46463D01*
X54163Y-46393D01*
X54086Y-46360D01*
X54086Y-46249D01*
X54085Y-46248D01*
X54064Y-46138D01*
X54001Y-46045D01*
X54001Y-46044D01*
X53847Y-45890D01*
X54711Y-45026D01*
X54712Y-45026D01*
X54723Y-45026D01*
X54711Y-45038D01*
X54712Y-45150D01*
X54750Y-45242D01*
X54820Y-45312D01*
X54911Y-45350D01*
X55010Y-45350D01*
X55124Y-45351D01*
X55186Y-45289D01*
X55186Y-45026D01*
X55186Y-44976D01*
X55186Y-44881D01*
X55286Y-44881D01*
X55286Y-44976D01*
X55286Y-45026D01*
X55286Y-45289D01*
X55348Y-45351D01*
X55462Y-45350D01*
X55561Y-45350D01*
X55652Y-45312D01*
X55722Y-45242D01*
X55744Y-45188D01*
X55744Y-45649D01*
X55758Y-45683D01*
X55538Y-45903D01*
X55531Y-45903D01*
X55403Y-45956D01*
X55306Y-46053D01*
X55253Y-46181D01*
X55253Y-46319D01*
X55306Y-46447D01*
X55403Y-46544D01*
X55531Y-46597D01*
X55669Y-46597D01*
X55797Y-46544D01*
X55894Y-46447D01*
X55947Y-46319D01*
X55947Y-46311D01*
X56335Y-45924D01*
X56335Y-45923D01*
X56398Y-45830D01*
X56398Y-45825D01*
X56455Y-45849D01*
X56554Y-45849D01*
X56629Y-45849D01*
G54D10*
G36*
X57968Y-43071D02*
X57868Y-43071D01*
X57868Y-42971D01*
X57968Y-42971D01*
X57968Y-43071D01*
X57968Y-43071D01*
G37*
G54D36*
X57968Y-43071D02*
X57868Y-43071D01*
X57868Y-42971D01*
X57968Y-42971D01*
X57968Y-43071D01*
G54D10*
G36*
X58091Y-40529D02*
X57991Y-40529D01*
X57991Y-40429D01*
X58091Y-40429D01*
X58091Y-40529D01*
X58091Y-40529D01*
G37*
G54D36*
X58091Y-40529D02*
X57991Y-40529D01*
X57991Y-40429D01*
X58091Y-40429D01*
X58091Y-40529D01*
G54D10*
G36*
X58195Y-36736D02*
X58173Y-36736D01*
X58111Y-36798D01*
X58111Y-37011D01*
X58111Y-37061D01*
X58111Y-37161D01*
X58011Y-37161D01*
X58011Y-37061D01*
X58011Y-36798D01*
X57949Y-36736D01*
X57885Y-36737D01*
X57786Y-36737D01*
X57695Y-36775D01*
X57625Y-36845D01*
X57587Y-36937D01*
X57586Y-36999D01*
X57648Y-37061D01*
X58011Y-37061D01*
X58011Y-37161D01*
X57961Y-37161D01*
X57648Y-37161D01*
X57586Y-37223D01*
X57587Y-37285D01*
X57625Y-37377D01*
X57650Y-37402D01*
X57533Y-37402D01*
X57415Y-37426D01*
X57381Y-37448D01*
X57314Y-37493D01*
X56831Y-37976D01*
X56738Y-38015D01*
X56701Y-38051D01*
X56685Y-38010D01*
X57361Y-37335D01*
X57361Y-37334D01*
X57424Y-37241D01*
X57445Y-37130D01*
X57446Y-37130D01*
X57446Y-35831D01*
X57509Y-35831D01*
X57513Y-35831D01*
X57513Y-35830D01*
X57531Y-35830D01*
X57623Y-35792D01*
X57693Y-35722D01*
X57708Y-35685D01*
X57713Y-35692D01*
X58195Y-36174D01*
X58195Y-36181D01*
X58195Y-36736D01*
X58195Y-36736D01*
G37*
G54D36*
X58195Y-36736D02*
X58173Y-36736D01*
X58111Y-36798D01*
X58111Y-37011D01*
X58111Y-37061D01*
X58111Y-37161D01*
X58011Y-37161D01*
X58011Y-37061D01*
X58011Y-36798D01*
X57949Y-36736D01*
X57885Y-36737D01*
X57786Y-36737D01*
X57695Y-36775D01*
X57625Y-36845D01*
X57587Y-36937D01*
X57586Y-36999D01*
X57648Y-37061D01*
X58011Y-37061D01*
X58011Y-37161D01*
X57961Y-37161D01*
X57648Y-37161D01*
X57586Y-37223D01*
X57587Y-37285D01*
X57625Y-37377D01*
X57650Y-37402D01*
X57533Y-37402D01*
X57415Y-37426D01*
X57381Y-37448D01*
X57314Y-37493D01*
X56831Y-37976D01*
X56738Y-38015D01*
X56701Y-38051D01*
X56685Y-38010D01*
X57361Y-37335D01*
X57361Y-37334D01*
X57424Y-37241D01*
X57445Y-37130D01*
X57446Y-37130D01*
X57446Y-35831D01*
X57509Y-35831D01*
X57513Y-35831D01*
X57513Y-35830D01*
X57531Y-35830D01*
X57623Y-35792D01*
X57693Y-35722D01*
X57708Y-35685D01*
X57713Y-35692D01*
X58195Y-36174D01*
X58195Y-36181D01*
X58195Y-36736D01*
G54D10*
G36*
X58227Y-38298D02*
X58180Y-38346D01*
X58145Y-38429D01*
X58121Y-38429D01*
X58059Y-38491D01*
X58059Y-38704D01*
X58059Y-38754D01*
X58059Y-38854D01*
X57959Y-38854D01*
X57959Y-38754D01*
X57959Y-38704D01*
X57959Y-38491D01*
X57897Y-38429D01*
X57833Y-38430D01*
X57734Y-38430D01*
X57643Y-38468D01*
X57573Y-38538D01*
X57535Y-38630D01*
X57534Y-38692D01*
X57546Y-38704D01*
X57534Y-38704D01*
X57534Y-38736D01*
X57504Y-38724D01*
X57390Y-38724D01*
X57430Y-38628D01*
X57430Y-38490D01*
X57377Y-38362D01*
X57347Y-38332D01*
X57660Y-38020D01*
X57668Y-38020D01*
X57695Y-38047D01*
X57786Y-38085D01*
X57885Y-38085D01*
X58195Y-38085D01*
X58195Y-38173D01*
X58217Y-38284D01*
X58227Y-38298D01*
X58227Y-38298D01*
G37*
G54D36*
X58227Y-38298D02*
X58180Y-38346D01*
X58145Y-38429D01*
X58121Y-38429D01*
X58059Y-38491D01*
X58059Y-38704D01*
X58059Y-38754D01*
X58059Y-38854D01*
X57959Y-38854D01*
X57959Y-38754D01*
X57959Y-38704D01*
X57959Y-38491D01*
X57897Y-38429D01*
X57833Y-38430D01*
X57734Y-38430D01*
X57643Y-38468D01*
X57573Y-38538D01*
X57535Y-38630D01*
X57534Y-38692D01*
X57546Y-38704D01*
X57534Y-38704D01*
X57534Y-38736D01*
X57504Y-38724D01*
X57390Y-38724D01*
X57430Y-38628D01*
X57430Y-38490D01*
X57377Y-38362D01*
X57347Y-38332D01*
X57660Y-38020D01*
X57668Y-38020D01*
X57695Y-38047D01*
X57786Y-38085D01*
X57885Y-38085D01*
X58195Y-38085D01*
X58195Y-38173D01*
X58217Y-38284D01*
X58227Y-38298D01*
G54D10*
G36*
X58776Y-42303D02*
X58574Y-42505D01*
X58575Y-42330D01*
X58513Y-42268D01*
X58125Y-42268D01*
X58075Y-42268D01*
X57975Y-42268D01*
X57975Y-42168D01*
X58075Y-42168D01*
X58125Y-42168D01*
X58513Y-42168D01*
X58575Y-42106D01*
X58574Y-41867D01*
X58574Y-41768D01*
X58563Y-41743D01*
X58629Y-41743D01*
X58645Y-41781D01*
X58715Y-41851D01*
X58776Y-41876D01*
X58776Y-42303D01*
X58776Y-42303D01*
G37*
G54D36*
X58776Y-42303D02*
X58574Y-42505D01*
X58575Y-42330D01*
X58513Y-42268D01*
X58125Y-42268D01*
X58075Y-42268D01*
X57975Y-42268D01*
X57975Y-42168D01*
X58075Y-42168D01*
X58125Y-42168D01*
X58513Y-42168D01*
X58575Y-42106D01*
X58574Y-41867D01*
X58574Y-41768D01*
X58563Y-41743D01*
X58629Y-41743D01*
X58645Y-41781D01*
X58715Y-41851D01*
X58776Y-41876D01*
X58776Y-42303D01*
G54D10*
G36*
X59901Y-48148D02*
X59894Y-48155D01*
X59831Y-48248D01*
X59809Y-48359D01*
X59809Y-48693D01*
X59831Y-48804D01*
X59873Y-48866D01*
X59786Y-48903D01*
X59752Y-48937D01*
X59741Y-48926D01*
X59741Y-48610D01*
X59719Y-48500D01*
X59719Y-48499D01*
X59671Y-48428D01*
X59671Y-48413D01*
X59618Y-48285D01*
X59521Y-48188D01*
X59393Y-48135D01*
X59265Y-48135D01*
X59317Y-48083D01*
X59355Y-47992D01*
X59355Y-47893D01*
X59356Y-47829D01*
X59294Y-47767D01*
X59031Y-47767D01*
X59031Y-48130D01*
X59093Y-48192D01*
X59123Y-48191D01*
X59030Y-48285D01*
X58977Y-48413D01*
X58977Y-48551D01*
X59030Y-48679D01*
X59127Y-48776D01*
X59163Y-48790D01*
X59163Y-48926D01*
X59116Y-48973D01*
X59108Y-48990D01*
X59063Y-48881D01*
X58886Y-48704D01*
X58655Y-48608D01*
X58404Y-48608D01*
X58172Y-48704D01*
X57995Y-48881D01*
X57899Y-49112D01*
X57899Y-49363D01*
X57995Y-49595D01*
X58172Y-49772D01*
X58403Y-49868D01*
X58559Y-49868D01*
X58538Y-49889D01*
X58449Y-50102D01*
X58449Y-50333D01*
X58379Y-50404D01*
X57129Y-50404D01*
X57159Y-50334D01*
X57159Y-50103D01*
X57071Y-49890D01*
X57049Y-49868D01*
X57194Y-49868D01*
X57426Y-49772D01*
X57603Y-49595D01*
X57699Y-49364D01*
X57699Y-49113D01*
X57603Y-48881D01*
X57426Y-48704D01*
X57195Y-48608D01*
X56944Y-48608D01*
X56860Y-48642D01*
X57110Y-48394D01*
X57110Y-48393D01*
X57173Y-48300D01*
X57192Y-48202D01*
X57346Y-48202D01*
X57438Y-48164D01*
X57472Y-48130D01*
X57506Y-48164D01*
X57597Y-48202D01*
X57696Y-48202D01*
X57946Y-48202D01*
X58038Y-48164D01*
X58082Y-48120D01*
X58115Y-48153D01*
X58206Y-48191D01*
X58305Y-48191D01*
X58555Y-48191D01*
X58647Y-48153D01*
X58681Y-48119D01*
X58715Y-48153D01*
X58807Y-48191D01*
X58869Y-48192D01*
X58931Y-48130D01*
X58931Y-47817D01*
X58931Y-47767D01*
X58931Y-47667D01*
X59031Y-47667D01*
X59081Y-47667D01*
X59294Y-47667D01*
X59356Y-47605D01*
X59355Y-47541D01*
X59355Y-47536D01*
X59405Y-47570D01*
X59515Y-47591D01*
X59516Y-47592D01*
X59824Y-47592D01*
X59901Y-47668D01*
X59901Y-48148D01*
X59901Y-48148D01*
G37*
G54D36*
X59901Y-48148D02*
X59894Y-48155D01*
X59831Y-48248D01*
X59809Y-48359D01*
X59809Y-48693D01*
X59831Y-48804D01*
X59873Y-48866D01*
X59786Y-48903D01*
X59752Y-48937D01*
X59741Y-48926D01*
X59741Y-48610D01*
X59719Y-48500D01*
X59719Y-48499D01*
X59671Y-48428D01*
X59671Y-48413D01*
X59618Y-48285D01*
X59521Y-48188D01*
X59393Y-48135D01*
X59265Y-48135D01*
X59317Y-48083D01*
X59355Y-47992D01*
X59355Y-47893D01*
X59356Y-47829D01*
X59294Y-47767D01*
X59031Y-47767D01*
X59031Y-48130D01*
X59093Y-48192D01*
X59123Y-48191D01*
X59030Y-48285D01*
X58977Y-48413D01*
X58977Y-48551D01*
X59030Y-48679D01*
X59127Y-48776D01*
X59163Y-48790D01*
X59163Y-48926D01*
X59116Y-48973D01*
X59108Y-48990D01*
X59063Y-48881D01*
X58886Y-48704D01*
X58655Y-48608D01*
X58404Y-48608D01*
X58172Y-48704D01*
X57995Y-48881D01*
X57899Y-49112D01*
X57899Y-49363D01*
X57995Y-49595D01*
X58172Y-49772D01*
X58403Y-49868D01*
X58559Y-49868D01*
X58538Y-49889D01*
X58449Y-50102D01*
X58449Y-50333D01*
X58379Y-50404D01*
X57129Y-50404D01*
X57159Y-50334D01*
X57159Y-50103D01*
X57071Y-49890D01*
X57049Y-49868D01*
X57194Y-49868D01*
X57426Y-49772D01*
X57603Y-49595D01*
X57699Y-49364D01*
X57699Y-49113D01*
X57603Y-48881D01*
X57426Y-48704D01*
X57195Y-48608D01*
X56944Y-48608D01*
X56860Y-48642D01*
X57110Y-48394D01*
X57110Y-48393D01*
X57173Y-48300D01*
X57192Y-48202D01*
X57346Y-48202D01*
X57438Y-48164D01*
X57472Y-48130D01*
X57506Y-48164D01*
X57597Y-48202D01*
X57696Y-48202D01*
X57946Y-48202D01*
X58038Y-48164D01*
X58082Y-48120D01*
X58115Y-48153D01*
X58206Y-48191D01*
X58305Y-48191D01*
X58555Y-48191D01*
X58647Y-48153D01*
X58681Y-48119D01*
X58715Y-48153D01*
X58807Y-48191D01*
X58869Y-48192D01*
X58931Y-48130D01*
X58931Y-47817D01*
X58931Y-47767D01*
X58931Y-47667D01*
X59031Y-47667D01*
X59081Y-47667D01*
X59294Y-47667D01*
X59356Y-47605D01*
X59355Y-47541D01*
X59355Y-47536D01*
X59405Y-47570D01*
X59515Y-47591D01*
X59516Y-47592D01*
X59824Y-47592D01*
X59901Y-47668D01*
X59901Y-48148D01*
G54D10*
G36*
X62605Y-45853D02*
X62433Y-45925D01*
X62279Y-46079D01*
X62199Y-46271D01*
X62119Y-46079D01*
X61972Y-45932D01*
X62064Y-45840D01*
X62581Y-45840D01*
X62586Y-45845D01*
X62605Y-45853D01*
X62605Y-45853D01*
G37*
G54D36*
X62605Y-45853D02*
X62433Y-45925D01*
X62279Y-46079D01*
X62199Y-46271D01*
X62119Y-46079D01*
X61972Y-45932D01*
X62064Y-45840D01*
X62581Y-45840D01*
X62586Y-45845D01*
X62605Y-45853D01*
G54D10*
G36*
X62788Y-45136D02*
X62721Y-45204D01*
X62714Y-45204D01*
X62586Y-45257D01*
X62581Y-45262D01*
X61945Y-45262D01*
X61834Y-45284D01*
X61741Y-45347D01*
X61558Y-45530D01*
X60856Y-45530D01*
X60831Y-45505D01*
X60703Y-45452D01*
X60565Y-45452D01*
X60437Y-45505D01*
X60340Y-45602D01*
X60287Y-45730D01*
X60287Y-45767D01*
X60243Y-45767D01*
X60179Y-45766D01*
X60117Y-45828D01*
X60117Y-46091D01*
X60435Y-46091D01*
X60437Y-46093D01*
X60565Y-46146D01*
X60703Y-46146D01*
X60794Y-46108D01*
X61176Y-46108D01*
X61105Y-46281D01*
X61105Y-46499D01*
X61189Y-46701D01*
X61329Y-46841D01*
X61305Y-46841D01*
X61213Y-46879D01*
X61143Y-46949D01*
X61105Y-47040D01*
X61105Y-47139D01*
X61105Y-47452D01*
X60541Y-46888D01*
X60541Y-46817D01*
X60541Y-46567D01*
X60503Y-46475D01*
X60469Y-46441D01*
X60503Y-46407D01*
X60541Y-46315D01*
X60542Y-46253D01*
X60480Y-46191D01*
X60167Y-46191D01*
X60117Y-46191D01*
X60017Y-46191D01*
X60017Y-46091D01*
X60017Y-45828D01*
X59955Y-45766D01*
X59891Y-45767D01*
X59792Y-45767D01*
X59701Y-45805D01*
X59631Y-45875D01*
X59593Y-45967D01*
X59592Y-46029D01*
X59654Y-46091D01*
X60017Y-46091D01*
X60017Y-46191D01*
X59967Y-46191D01*
X59654Y-46191D01*
X59592Y-46253D01*
X59593Y-46315D01*
X59631Y-46407D01*
X59665Y-46441D01*
X59631Y-46475D01*
X59593Y-46566D01*
X59593Y-46665D01*
X59593Y-46727D01*
X59590Y-46725D01*
X59589Y-46724D01*
X59550Y-46666D01*
X59550Y-46665D01*
X59176Y-46292D01*
X59083Y-46229D01*
X58972Y-46207D01*
X58189Y-46207D01*
X58078Y-46229D01*
X58031Y-46260D01*
X57984Y-46292D01*
X57714Y-46563D01*
X57651Y-46656D01*
X57646Y-46680D01*
X57546Y-46680D01*
X57541Y-46680D01*
X57447Y-46680D01*
X57296Y-46680D01*
X57291Y-46680D01*
X57197Y-46680D01*
X57195Y-46680D01*
X57195Y-46032D01*
X57439Y-45788D01*
X57447Y-45788D01*
X57575Y-45735D01*
X57672Y-45638D01*
X57725Y-45510D01*
X57725Y-45406D01*
X57790Y-45406D01*
X57795Y-45406D01*
X57889Y-45406D01*
X57894Y-45406D01*
X57901Y-45440D01*
X57901Y-45478D01*
X57954Y-45606D01*
X58051Y-45703D01*
X58179Y-45756D01*
X58317Y-45756D01*
X58445Y-45703D01*
X58542Y-45606D01*
X58595Y-45478D01*
X58595Y-45406D01*
X58639Y-45406D01*
X58790Y-45406D01*
X58795Y-45406D01*
X58889Y-45406D01*
X59045Y-45406D01*
X59137Y-45368D01*
X59207Y-45298D01*
X59217Y-45273D01*
X59293Y-45305D01*
X59392Y-45305D01*
X59480Y-45305D01*
X59575Y-45400D01*
X59703Y-45453D01*
X59841Y-45453D01*
X59969Y-45400D01*
X60066Y-45303D01*
X60118Y-45177D01*
X60118Y-45244D01*
X60180Y-45306D01*
X60242Y-45305D01*
X60334Y-45267D01*
X60404Y-45197D01*
X60442Y-45106D01*
X60442Y-45007D01*
X60443Y-44943D01*
X60381Y-44881D01*
X60118Y-44881D01*
X60118Y-45034D01*
X60066Y-44909D01*
X60061Y-44904D01*
X60061Y-44866D01*
X60043Y-44781D01*
X60118Y-44781D01*
X60168Y-44781D01*
X60381Y-44781D01*
X60389Y-44773D01*
X62784Y-44773D01*
X62740Y-44880D01*
X62740Y-45018D01*
X62788Y-45136D01*
X62788Y-45136D01*
G37*
G54D36*
X62788Y-45136D02*
X62721Y-45204D01*
X62714Y-45204D01*
X62586Y-45257D01*
X62581Y-45262D01*
X61945Y-45262D01*
X61834Y-45284D01*
X61741Y-45347D01*
X61558Y-45530D01*
X60856Y-45530D01*
X60831Y-45505D01*
X60703Y-45452D01*
X60565Y-45452D01*
X60437Y-45505D01*
X60340Y-45602D01*
X60287Y-45730D01*
X60287Y-45767D01*
X60243Y-45767D01*
X60179Y-45766D01*
X60117Y-45828D01*
X60117Y-46091D01*
X60435Y-46091D01*
X60437Y-46093D01*
X60565Y-46146D01*
X60703Y-46146D01*
X60794Y-46108D01*
X61176Y-46108D01*
X61105Y-46281D01*
X61105Y-46499D01*
X61189Y-46701D01*
X61329Y-46841D01*
X61305Y-46841D01*
X61213Y-46879D01*
X61143Y-46949D01*
X61105Y-47040D01*
X61105Y-47139D01*
X61105Y-47452D01*
X60541Y-46888D01*
X60541Y-46817D01*
X60541Y-46567D01*
X60503Y-46475D01*
X60469Y-46441D01*
X60503Y-46407D01*
X60541Y-46315D01*
X60542Y-46253D01*
X60480Y-46191D01*
X60167Y-46191D01*
X60117Y-46191D01*
X60017Y-46191D01*
X60017Y-46091D01*
X60017Y-45828D01*
X59955Y-45766D01*
X59891Y-45767D01*
X59792Y-45767D01*
X59701Y-45805D01*
X59631Y-45875D01*
X59593Y-45967D01*
X59592Y-46029D01*
X59654Y-46091D01*
X60017Y-46091D01*
X60017Y-46191D01*
X59967Y-46191D01*
X59654Y-46191D01*
X59592Y-46253D01*
X59593Y-46315D01*
X59631Y-46407D01*
X59665Y-46441D01*
X59631Y-46475D01*
X59593Y-46566D01*
X59593Y-46665D01*
X59593Y-46727D01*
X59590Y-46725D01*
X59589Y-46724D01*
X59550Y-46666D01*
X59550Y-46665D01*
X59176Y-46292D01*
X59083Y-46229D01*
X58972Y-46207D01*
X58189Y-46207D01*
X58078Y-46229D01*
X58031Y-46260D01*
X57984Y-46292D01*
X57714Y-46563D01*
X57651Y-46656D01*
X57646Y-46680D01*
X57546Y-46680D01*
X57541Y-46680D01*
X57447Y-46680D01*
X57296Y-46680D01*
X57291Y-46680D01*
X57197Y-46680D01*
X57195Y-46680D01*
X57195Y-46032D01*
X57439Y-45788D01*
X57447Y-45788D01*
X57575Y-45735D01*
X57672Y-45638D01*
X57725Y-45510D01*
X57725Y-45406D01*
X57790Y-45406D01*
X57795Y-45406D01*
X57889Y-45406D01*
X57894Y-45406D01*
X57901Y-45440D01*
X57901Y-45478D01*
X57954Y-45606D01*
X58051Y-45703D01*
X58179Y-45756D01*
X58317Y-45756D01*
X58445Y-45703D01*
X58542Y-45606D01*
X58595Y-45478D01*
X58595Y-45406D01*
X58639Y-45406D01*
X58790Y-45406D01*
X58795Y-45406D01*
X58889Y-45406D01*
X59045Y-45406D01*
X59137Y-45368D01*
X59207Y-45298D01*
X59217Y-45273D01*
X59293Y-45305D01*
X59392Y-45305D01*
X59480Y-45305D01*
X59575Y-45400D01*
X59703Y-45453D01*
X59841Y-45453D01*
X59969Y-45400D01*
X60066Y-45303D01*
X60118Y-45177D01*
X60118Y-45244D01*
X60180Y-45306D01*
X60242Y-45305D01*
X60334Y-45267D01*
X60404Y-45197D01*
X60442Y-45106D01*
X60442Y-45007D01*
X60443Y-44943D01*
X60381Y-44881D01*
X60118Y-44881D01*
X60118Y-45034D01*
X60066Y-44909D01*
X60061Y-44904D01*
X60061Y-44866D01*
X60043Y-44781D01*
X60118Y-44781D01*
X60168Y-44781D01*
X60381Y-44781D01*
X60389Y-44773D01*
X62784Y-44773D01*
X62740Y-44880D01*
X62740Y-45018D01*
X62788Y-45136D01*
G54D10*
G36*
X63327Y-50169D02*
X63256Y-50240D01*
X63185Y-50169D01*
X63256Y-50098D01*
X63327Y-50169D01*
X63327Y-50169D01*
G37*
G54D36*
X63327Y-50169D02*
X63256Y-50240D01*
X63185Y-50169D01*
X63256Y-50098D01*
X63327Y-50169D01*
G54D10*
G36*
X63562Y-45833D02*
X63478Y-45833D01*
X63386Y-45871D01*
X63316Y-45941D01*
X63278Y-46032D01*
X63278Y-46131D01*
X63278Y-46244D01*
X63209Y-46079D01*
X63055Y-45925D01*
X62921Y-45869D01*
X62980Y-45845D01*
X63077Y-45748D01*
X63130Y-45620D01*
X63130Y-45612D01*
X63236Y-45506D01*
X63562Y-45833D01*
X63562Y-45833D01*
G37*
G54D36*
X63562Y-45833D02*
X63478Y-45833D01*
X63386Y-45871D01*
X63316Y-45941D01*
X63278Y-46032D01*
X63278Y-46131D01*
X63278Y-46244D01*
X63209Y-46079D01*
X63055Y-45925D01*
X62921Y-45869D01*
X62980Y-45845D01*
X63077Y-45748D01*
X63130Y-45620D01*
X63130Y-45612D01*
X63236Y-45506D01*
X63562Y-45833D01*
G54D10*
G36*
X64739Y-46929D02*
X64639Y-46929D01*
X64639Y-46829D01*
X64739Y-46829D01*
X64739Y-46929D01*
X64739Y-46929D01*
G37*
G54D36*
X64739Y-46929D02*
X64639Y-46929D01*
X64639Y-46829D01*
X64739Y-46829D01*
X64739Y-46929D01*
G54D10*
G36*
X65349Y-41266D02*
X61568Y-41266D01*
X61568Y-41188D01*
X61569Y-41124D01*
X61507Y-41062D01*
X61294Y-41062D01*
X61244Y-41062D01*
X61144Y-41062D01*
X61144Y-40962D01*
X61244Y-40962D01*
X61294Y-40962D01*
X61507Y-40962D01*
X61569Y-40900D01*
X61568Y-40836D01*
X61568Y-40737D01*
X61530Y-40646D01*
X61460Y-40576D01*
X61435Y-40566D01*
X65152Y-40566D01*
X65102Y-40688D01*
X65102Y-40906D01*
X65186Y-41108D01*
X65340Y-41262D01*
X65349Y-41266D01*
X65349Y-41266D01*
G37*
G54D36*
X65349Y-41266D02*
X61568Y-41266D01*
X61568Y-41188D01*
X61569Y-41124D01*
X61507Y-41062D01*
X61294Y-41062D01*
X61244Y-41062D01*
X61144Y-41062D01*
X61144Y-40962D01*
X61244Y-40962D01*
X61294Y-40962D01*
X61507Y-40962D01*
X61569Y-40900D01*
X61568Y-40836D01*
X61568Y-40737D01*
X61530Y-40646D01*
X61460Y-40576D01*
X61435Y-40566D01*
X65152Y-40566D01*
X65102Y-40688D01*
X65102Y-40906D01*
X65186Y-41108D01*
X65340Y-41262D01*
X65349Y-41266D01*
G54D10*
G36*
X68175Y-51925D02*
X67200Y-51925D01*
X67200Y-46906D01*
X67200Y-46688D01*
X67116Y-46486D01*
X66962Y-46332D01*
X66877Y-46297D01*
X66962Y-46262D01*
X67116Y-46108D01*
X67200Y-45906D01*
X67200Y-45688D01*
X67116Y-45486D01*
X66962Y-45332D01*
X66877Y-45297D01*
X66962Y-45262D01*
X67116Y-45108D01*
X67200Y-44906D01*
X67200Y-44688D01*
X67116Y-44486D01*
X66962Y-44332D01*
X66877Y-44297D01*
X66962Y-44262D01*
X67116Y-44108D01*
X67200Y-43906D01*
X67200Y-43688D01*
X67116Y-43486D01*
X66962Y-43332D01*
X66877Y-43297D01*
X66962Y-43262D01*
X67116Y-43108D01*
X67200Y-42906D01*
X67200Y-42688D01*
X67116Y-42486D01*
X66962Y-42332D01*
X66877Y-42297D01*
X66962Y-42262D01*
X67116Y-42108D01*
X67200Y-41906D01*
X67200Y-41688D01*
X67116Y-41486D01*
X66962Y-41332D01*
X66877Y-41297D01*
X66962Y-41262D01*
X67116Y-41108D01*
X67200Y-40906D01*
X67200Y-40688D01*
X67116Y-40486D01*
X66962Y-40332D01*
X66877Y-40297D01*
X66962Y-40262D01*
X67116Y-40108D01*
X67200Y-39906D01*
X67200Y-39688D01*
X67116Y-39486D01*
X66962Y-39332D01*
X66877Y-39297D01*
X66962Y-39262D01*
X67116Y-39108D01*
X67200Y-38906D01*
X67200Y-38688D01*
X67116Y-38486D01*
X66962Y-38332D01*
X66877Y-38297D01*
X66962Y-38262D01*
X67116Y-38108D01*
X67200Y-37906D01*
X67200Y-37688D01*
X67116Y-37486D01*
X66962Y-37332D01*
X66877Y-37297D01*
X66962Y-37262D01*
X67116Y-37108D01*
X67200Y-36906D01*
X67200Y-36688D01*
X67116Y-36486D01*
X66962Y-36332D01*
X66760Y-36248D01*
X66542Y-36248D01*
X66340Y-36332D01*
X66200Y-36472D01*
X66200Y-36448D01*
X66162Y-36356D01*
X66092Y-36286D01*
X66001Y-36248D01*
X65902Y-36248D01*
X65566Y-36248D01*
X65605Y-36209D01*
X65658Y-36081D01*
X65658Y-35943D01*
X65639Y-35897D01*
X65639Y-33876D01*
X65672Y-33843D01*
X65725Y-33715D01*
X65725Y-33577D01*
X65672Y-33449D01*
X65575Y-33352D01*
X65447Y-33299D01*
X65309Y-33299D01*
X65181Y-33352D01*
X65084Y-33449D01*
X65057Y-33513D01*
X65008Y-33587D01*
X64983Y-33713D01*
X64983Y-35880D01*
X64896Y-35966D01*
X64850Y-35986D01*
X64753Y-36083D01*
X64700Y-36211D01*
X64700Y-36349D01*
X64719Y-36394D01*
X64719Y-36978D01*
X64030Y-37666D01*
X63999Y-37590D01*
X63902Y-37493D01*
X63774Y-37440D01*
X63636Y-37440D01*
X63609Y-37451D01*
X63520Y-37451D01*
X63520Y-37420D01*
X63750Y-37190D01*
X63758Y-37190D01*
X63886Y-37137D01*
X63983Y-37040D01*
X64036Y-36912D01*
X64036Y-36774D01*
X63983Y-36646D01*
X63886Y-36549D01*
X63758Y-36496D01*
X63709Y-36496D01*
X63709Y-33269D01*
X63709Y-33094D01*
X63642Y-32933D01*
X63519Y-32809D01*
X63358Y-32742D01*
X63183Y-32742D01*
X63022Y-32809D01*
X62898Y-32932D01*
X62831Y-33093D01*
X62831Y-33268D01*
X62898Y-33429D01*
X63021Y-33553D01*
X63182Y-33620D01*
X63357Y-33620D01*
X63518Y-33553D01*
X63642Y-33430D01*
X63709Y-33269D01*
X63709Y-36496D01*
X63620Y-36496D01*
X63492Y-36549D01*
X63395Y-36646D01*
X63342Y-36774D01*
X63342Y-36781D01*
X63270Y-36853D01*
X63222Y-36853D01*
X62972Y-36853D01*
X62880Y-36891D01*
X62846Y-36925D01*
X62812Y-36891D01*
X62785Y-36879D01*
X62785Y-32503D01*
X62785Y-32279D01*
X62784Y-32007D01*
X62784Y-31908D01*
X62746Y-31817D01*
X62676Y-31747D01*
X62584Y-31709D01*
X62529Y-31708D01*
X62467Y-31770D01*
X62467Y-32341D01*
X62723Y-32341D01*
X62785Y-32279D01*
X62785Y-32503D01*
X62723Y-32441D01*
X62467Y-32441D01*
X62467Y-33012D01*
X62529Y-33074D01*
X62584Y-33073D01*
X62676Y-33035D01*
X62746Y-32965D01*
X62784Y-32874D01*
X62784Y-32775D01*
X62785Y-32503D01*
X62785Y-36879D01*
X62721Y-36853D01*
X62622Y-36853D01*
X62547Y-36853D01*
X62585Y-36815D01*
X62638Y-36687D01*
X62638Y-36672D01*
X62676Y-36657D01*
X62746Y-36587D01*
X62784Y-36496D01*
X62784Y-36397D01*
X62784Y-35531D01*
X62746Y-35439D01*
X62676Y-35369D01*
X62585Y-35331D01*
X62486Y-35331D01*
X62250Y-35331D01*
X62206Y-35349D01*
X62206Y-35334D01*
X62205Y-35333D01*
X62184Y-35223D01*
X62121Y-35130D01*
X62121Y-35129D01*
X61875Y-34884D01*
X61782Y-34821D01*
X61671Y-34799D01*
X60849Y-34799D01*
X60844Y-34794D01*
X60716Y-34741D01*
X60578Y-34741D01*
X60450Y-34794D01*
X60353Y-34891D01*
X60300Y-35019D01*
X60300Y-35091D01*
X60288Y-35062D01*
X60218Y-34992D01*
X60127Y-34954D01*
X60028Y-34954D01*
X59964Y-34953D01*
X59902Y-35015D01*
X59902Y-35278D01*
X60265Y-35278D01*
X60325Y-35217D01*
X60353Y-35285D01*
X60450Y-35382D01*
X60578Y-35435D01*
X60592Y-35435D01*
X60588Y-35439D01*
X60550Y-35530D01*
X60550Y-35629D01*
X60550Y-35685D01*
X60297Y-35685D01*
X60288Y-35662D01*
X60254Y-35628D01*
X60288Y-35594D01*
X60326Y-35502D01*
X60327Y-35440D01*
X60265Y-35378D01*
X59952Y-35378D01*
X59902Y-35378D01*
X59802Y-35378D01*
X59802Y-35278D01*
X59802Y-35015D01*
X59740Y-34953D01*
X59676Y-34954D01*
X59577Y-34954D01*
X59486Y-34992D01*
X59416Y-35062D01*
X59378Y-35154D01*
X59377Y-35216D01*
X59439Y-35278D01*
X59802Y-35278D01*
X59802Y-35378D01*
X59752Y-35378D01*
X59439Y-35378D01*
X59377Y-35440D01*
X59378Y-35502D01*
X59416Y-35594D01*
X59422Y-35600D01*
X59378Y-35600D01*
X59316Y-35537D01*
X59316Y-34453D01*
X59412Y-34453D01*
X59540Y-34400D01*
X59637Y-34303D01*
X59651Y-34269D01*
X59940Y-33981D01*
X59940Y-33980D01*
X60003Y-33887D01*
X60024Y-33776D01*
X60025Y-33776D01*
X60025Y-33617D01*
X60032Y-33620D01*
X60207Y-33620D01*
X60368Y-33553D01*
X60492Y-33430D01*
X60559Y-33269D01*
X60559Y-33094D01*
X60492Y-32933D01*
X60369Y-32809D01*
X60208Y-32742D01*
X60033Y-32742D01*
X59979Y-32764D01*
X60063Y-32680D01*
X60550Y-32680D01*
X60550Y-32873D01*
X60588Y-32965D01*
X60658Y-33035D01*
X60749Y-33073D01*
X60848Y-33073D01*
X61084Y-33073D01*
X61128Y-33054D01*
X61128Y-33411D01*
X61110Y-33455D01*
X61110Y-33593D01*
X61163Y-33721D01*
X61260Y-33818D01*
X61388Y-33871D01*
X61526Y-33871D01*
X61654Y-33818D01*
X61751Y-33721D01*
X61755Y-33710D01*
X61760Y-33715D01*
X61888Y-33768D01*
X62026Y-33768D01*
X62154Y-33715D01*
X62251Y-33618D01*
X62304Y-33490D01*
X62304Y-33352D01*
X62251Y-33224D01*
X62206Y-33179D01*
X62206Y-33054D01*
X62250Y-33073D01*
X62305Y-33074D01*
X62367Y-33012D01*
X62367Y-32491D01*
X62367Y-32441D01*
X62367Y-32341D01*
X62367Y-32291D01*
X62367Y-31770D01*
X62305Y-31708D01*
X62250Y-31709D01*
X62167Y-31743D01*
X62085Y-31709D01*
X61986Y-31709D01*
X61750Y-31709D01*
X61667Y-31743D01*
X61585Y-31709D01*
X61486Y-31709D01*
X61250Y-31709D01*
X61167Y-31743D01*
X61085Y-31709D01*
X60986Y-31709D01*
X60750Y-31709D01*
X60658Y-31747D01*
X60588Y-31817D01*
X60550Y-31908D01*
X60550Y-32007D01*
X60550Y-32102D01*
X59944Y-32102D01*
X59833Y-32124D01*
X59739Y-32187D01*
X59297Y-32629D01*
X59104Y-32629D01*
X59104Y-32477D01*
X59079Y-32352D01*
X59079Y-32351D01*
X59064Y-32329D01*
X59026Y-32236D01*
X58929Y-32139D01*
X58801Y-32086D01*
X58663Y-32086D01*
X58535Y-32139D01*
X58438Y-32236D01*
X58385Y-32364D01*
X58385Y-32502D01*
X58438Y-32630D01*
X58448Y-32640D01*
X58448Y-33630D01*
X58473Y-33756D01*
X58515Y-33819D01*
X58434Y-33901D01*
X58381Y-34029D01*
X58381Y-34036D01*
X58363Y-34055D01*
X58300Y-34148D01*
X58299Y-34153D01*
X58293Y-34153D01*
X58242Y-34173D01*
X58192Y-34153D01*
X58093Y-34153D01*
X57643Y-34153D01*
X57551Y-34191D01*
X57481Y-34261D01*
X57443Y-34352D01*
X57443Y-34451D01*
X57443Y-34701D01*
X57481Y-34793D01*
X57515Y-34827D01*
X57481Y-34861D01*
X57443Y-34952D01*
X57443Y-35051D01*
X57443Y-35180D01*
X57437Y-35166D01*
X57367Y-35096D01*
X57348Y-35088D01*
X57317Y-35057D01*
X57295Y-35058D01*
X57285Y-35061D01*
X57276Y-35058D01*
X57177Y-35058D01*
X57039Y-35058D01*
X57029Y-35062D01*
X57019Y-35058D01*
X56997Y-35057D01*
X56965Y-35088D01*
X56947Y-35096D01*
X56901Y-35142D01*
X56855Y-35096D01*
X56836Y-35088D01*
X56805Y-35057D01*
X56783Y-35058D01*
X56773Y-35061D01*
X56764Y-35058D01*
X56665Y-35058D01*
X56658Y-35058D01*
X56659Y-34998D01*
X56659Y-34774D01*
X56658Y-34710D01*
X56658Y-34611D01*
X56620Y-34520D01*
X56550Y-34450D01*
X56458Y-34412D01*
X56396Y-34411D01*
X56334Y-34473D01*
X56334Y-34836D01*
X56597Y-34836D01*
X56659Y-34774D01*
X56659Y-34998D01*
X56597Y-34936D01*
X56384Y-34936D01*
X56334Y-34936D01*
X56234Y-34936D01*
X56234Y-34836D01*
X56234Y-34786D01*
X56234Y-34473D01*
X56172Y-34411D01*
X56110Y-34412D01*
X56024Y-34447D01*
X56024Y-34348D01*
X55971Y-34220D01*
X55874Y-34123D01*
X55746Y-34070D01*
X55608Y-34070D01*
X55574Y-34083D01*
X55574Y-33452D01*
X55574Y-33228D01*
X55573Y-33164D01*
X55573Y-33065D01*
X55535Y-32974D01*
X55465Y-32904D01*
X55373Y-32866D01*
X55311Y-32865D01*
X55249Y-32927D01*
X55249Y-33290D01*
X55512Y-33290D01*
X55574Y-33228D01*
X55574Y-33452D01*
X55512Y-33390D01*
X55249Y-33390D01*
X55249Y-33588D01*
X55229Y-33608D01*
X55229Y-33971D01*
X55492Y-33971D01*
X55554Y-33909D01*
X55553Y-33845D01*
X55553Y-33746D01*
X55535Y-33704D01*
X55573Y-33615D01*
X55573Y-33516D01*
X55574Y-33452D01*
X55574Y-34083D01*
X55525Y-34104D01*
X55492Y-34071D01*
X55229Y-34071D01*
X55229Y-34434D01*
X55273Y-34478D01*
X55273Y-34614D01*
X55273Y-34664D01*
X55273Y-34764D01*
X55173Y-34764D01*
X55173Y-34664D01*
X55173Y-34614D01*
X55173Y-34301D01*
X55129Y-34257D01*
X55129Y-34121D01*
X55129Y-34071D01*
X55129Y-33971D01*
X55129Y-33921D01*
X55129Y-33773D01*
X55149Y-33753D01*
X55149Y-33440D01*
X55149Y-33390D01*
X55149Y-33290D01*
X55149Y-33240D01*
X55149Y-32927D01*
X55087Y-32865D01*
X55025Y-32866D01*
X54933Y-32904D01*
X54899Y-32938D01*
X54865Y-32904D01*
X54774Y-32866D01*
X54675Y-32866D01*
X54425Y-32866D01*
X54333Y-32904D01*
X54263Y-32974D01*
X54230Y-33051D01*
X53734Y-33051D01*
X53623Y-33073D01*
X53529Y-33136D01*
X53340Y-33326D01*
X53277Y-33419D01*
X53255Y-33530D01*
X53255Y-33608D01*
X53208Y-33655D01*
X53170Y-33746D01*
X53170Y-33845D01*
X53170Y-34295D01*
X53201Y-34371D01*
X53170Y-34447D01*
X53170Y-34481D01*
X53116Y-34518D01*
X52860Y-34774D01*
X52837Y-34807D01*
X52837Y-34440D01*
X52799Y-34348D01*
X52729Y-34278D01*
X52638Y-34240D01*
X52539Y-34240D01*
X52289Y-34240D01*
X52197Y-34278D01*
X52163Y-34312D01*
X52129Y-34278D01*
X52038Y-34240D01*
X51963Y-34240D01*
X51963Y-32478D01*
X51963Y-32254D01*
X51962Y-32115D01*
X51962Y-32016D01*
X51924Y-31925D01*
X51854Y-31855D01*
X51762Y-31817D01*
X51525Y-31816D01*
X51463Y-31878D01*
X51463Y-32316D01*
X51901Y-32316D01*
X51963Y-32254D01*
X51963Y-32478D01*
X51901Y-32416D01*
X51463Y-32416D01*
X51463Y-32854D01*
X51525Y-32916D01*
X51762Y-32915D01*
X51854Y-32877D01*
X51924Y-32807D01*
X51962Y-32716D01*
X51962Y-32617D01*
X51963Y-32478D01*
X51963Y-34240D01*
X51939Y-34240D01*
X51689Y-34240D01*
X51597Y-34278D01*
X51527Y-34348D01*
X51489Y-34439D01*
X51489Y-34478D01*
X51456Y-34399D01*
X51386Y-34329D01*
X51363Y-34319D01*
X51363Y-32854D01*
X51363Y-32466D01*
X51363Y-32416D01*
X51363Y-32316D01*
X51363Y-32266D01*
X51363Y-31878D01*
X51301Y-31816D01*
X51064Y-31817D01*
X50972Y-31855D01*
X50902Y-31925D01*
X50864Y-32016D01*
X50864Y-32041D01*
X50724Y-31901D01*
X50522Y-31817D01*
X50304Y-31817D01*
X50102Y-31901D01*
X49948Y-32055D01*
X49864Y-32257D01*
X49864Y-32475D01*
X49948Y-32677D01*
X50102Y-32831D01*
X50304Y-32915D01*
X50522Y-32915D01*
X50724Y-32831D01*
X50864Y-32691D01*
X50864Y-32716D01*
X50902Y-32807D01*
X50972Y-32877D01*
X51064Y-32915D01*
X51301Y-32916D01*
X51363Y-32854D01*
X51363Y-34319D01*
X51295Y-34291D01*
X51196Y-34291D01*
X50946Y-34291D01*
X50854Y-34329D01*
X50820Y-34363D01*
X50786Y-34329D01*
X50694Y-34291D01*
X50632Y-34290D01*
X50570Y-34352D01*
X50570Y-34665D01*
X50570Y-34715D01*
X50570Y-34815D01*
X50470Y-34815D01*
X50470Y-34715D01*
X50470Y-34352D01*
X50408Y-34290D01*
X50346Y-34291D01*
X50254Y-34329D01*
X50184Y-34399D01*
X50146Y-34490D01*
X50146Y-34589D01*
X50145Y-34653D01*
X50207Y-34715D01*
X50470Y-34715D01*
X50470Y-34815D01*
X50420Y-34815D01*
X50207Y-34815D01*
X50145Y-34877D01*
X50146Y-34941D01*
X50146Y-35040D01*
X50153Y-35058D01*
X50131Y-35058D01*
X50121Y-35061D01*
X50112Y-35058D01*
X50013Y-35058D01*
X49875Y-35058D01*
X49865Y-35061D01*
X49856Y-35058D01*
X49757Y-35058D01*
X49619Y-35058D01*
X49609Y-35061D01*
X49600Y-35058D01*
X49552Y-35058D01*
X49552Y-33891D01*
X49552Y-33626D01*
X49552Y-32724D01*
X49451Y-32479D01*
X49264Y-32292D01*
X49019Y-32190D01*
X48754Y-32190D01*
X48509Y-32291D01*
X48322Y-32478D01*
X48220Y-32723D01*
X48220Y-32988D01*
X48220Y-33890D01*
X48321Y-34135D01*
X48508Y-34322D01*
X48753Y-34424D01*
X49018Y-34424D01*
X49263Y-34323D01*
X49450Y-34136D01*
X49552Y-33891D01*
X49552Y-35058D01*
X49501Y-35058D01*
X49363Y-35058D01*
X49353Y-35062D01*
X49343Y-35058D01*
X49321Y-35057D01*
X49289Y-35088D01*
X49271Y-35096D01*
X49201Y-35166D01*
X49191Y-35189D01*
X49191Y-35119D01*
X49129Y-35057D01*
X49107Y-35058D01*
X49015Y-35096D01*
X48945Y-35166D01*
X48907Y-35257D01*
X48907Y-35333D01*
X48968Y-35394D01*
X49163Y-35394D01*
X49163Y-35494D01*
X49125Y-35494D01*
X48968Y-35494D01*
X48907Y-35555D01*
X48907Y-35631D01*
X48945Y-35722D01*
X49015Y-35792D01*
X49107Y-35830D01*
X49125Y-35830D01*
X49125Y-35831D01*
X49129Y-35831D01*
X49192Y-35831D01*
X49192Y-36380D01*
X49151Y-36480D01*
X49151Y-36618D01*
X49204Y-36746D01*
X49301Y-36843D01*
X49419Y-36892D01*
X49444Y-36951D01*
X49541Y-37048D01*
X49669Y-37101D01*
X49807Y-37101D01*
X49906Y-37059D01*
X49952Y-37171D01*
X50049Y-37268D01*
X50177Y-37321D01*
X50315Y-37321D01*
X50443Y-37268D01*
X50539Y-37172D01*
X50567Y-37172D01*
X50695Y-37119D01*
X50792Y-37022D01*
X50811Y-36975D01*
X50842Y-36975D01*
X50970Y-36922D01*
X50985Y-36906D01*
X51269Y-37189D01*
X51269Y-37197D01*
X51322Y-37325D01*
X51419Y-37422D01*
X51547Y-37475D01*
X51685Y-37475D01*
X51813Y-37422D01*
X51910Y-37325D01*
X51952Y-37222D01*
X52050Y-37320D01*
X52050Y-37895D01*
X52019Y-37895D01*
X51891Y-37948D01*
X51794Y-38045D01*
X51741Y-38173D01*
X51741Y-38180D01*
X51563Y-38358D01*
X51565Y-38354D01*
X51565Y-38216D01*
X51512Y-38088D01*
X51415Y-37991D01*
X51287Y-37938D01*
X51149Y-37938D01*
X51021Y-37991D01*
X51008Y-38004D01*
X50730Y-38004D01*
X50619Y-38026D01*
X50526Y-38089D01*
X50313Y-38301D01*
X50301Y-38310D01*
X50238Y-38403D01*
X50216Y-38514D01*
X50216Y-38518D01*
X50216Y-39209D01*
X50175Y-39168D01*
X50172Y-39166D01*
X50121Y-39043D01*
X50024Y-38946D01*
X49896Y-38893D01*
X49758Y-38893D01*
X49721Y-38908D01*
X49620Y-38866D01*
X49482Y-38866D01*
X49354Y-38919D01*
X49257Y-39016D01*
X49204Y-39144D01*
X49204Y-39222D01*
X49192Y-39283D01*
X49192Y-39410D01*
X49107Y-39410D01*
X49015Y-39448D01*
X48945Y-39518D01*
X48920Y-39575D01*
X48384Y-39039D01*
X48384Y-35791D01*
X48384Y-35246D01*
X48384Y-35146D01*
X48384Y-34601D01*
X48269Y-34354D01*
X48068Y-34170D01*
X47860Y-34105D01*
X47755Y-34152D01*
X47755Y-35146D01*
X48384Y-35146D01*
X48384Y-35246D01*
X47755Y-35246D01*
X47755Y-36240D01*
X47860Y-36287D01*
X48068Y-36222D01*
X48269Y-36038D01*
X48384Y-35791D01*
X48384Y-39039D01*
X48233Y-38888D01*
X48258Y-38864D01*
X48342Y-38662D01*
X48342Y-38444D01*
X48258Y-38242D01*
X48104Y-38088D01*
X48019Y-38053D01*
X48104Y-38018D01*
X48258Y-37864D01*
X48342Y-37662D01*
X48342Y-37444D01*
X48258Y-37242D01*
X48104Y-37088D01*
X47902Y-37004D01*
X47684Y-37004D01*
X47655Y-37016D01*
X47655Y-36240D01*
X47655Y-35246D01*
X47655Y-35146D01*
X47655Y-34152D01*
X47550Y-34105D01*
X47342Y-34170D01*
X47203Y-34297D01*
X47203Y-33902D01*
X47203Y-33357D01*
X47203Y-33257D01*
X47203Y-32712D01*
X47088Y-32465D01*
X46887Y-32281D01*
X46679Y-32216D01*
X46574Y-32263D01*
X46574Y-33257D01*
X47203Y-33257D01*
X47203Y-33357D01*
X46574Y-33357D01*
X46574Y-34351D01*
X46679Y-34398D01*
X46887Y-34333D01*
X47088Y-34149D01*
X47203Y-33902D01*
X47203Y-34297D01*
X47141Y-34354D01*
X47026Y-34601D01*
X47026Y-35146D01*
X47655Y-35146D01*
X47655Y-35246D01*
X47026Y-35246D01*
X47026Y-35791D01*
X47141Y-36038D01*
X47342Y-36222D01*
X47550Y-36287D01*
X47655Y-36240D01*
X47655Y-37016D01*
X47482Y-37088D01*
X47342Y-37228D01*
X47342Y-37204D01*
X47304Y-37112D01*
X47234Y-37042D01*
X47143Y-37004D01*
X47044Y-37004D01*
X46474Y-37004D01*
X46474Y-34351D01*
X46474Y-33357D01*
X46474Y-33257D01*
X46474Y-32263D01*
X46369Y-32216D01*
X46161Y-32281D01*
X45960Y-32465D01*
X45845Y-32712D01*
X45845Y-33257D01*
X46474Y-33257D01*
X46474Y-33357D01*
X45845Y-33357D01*
X45845Y-33902D01*
X45960Y-34149D01*
X46161Y-34333D01*
X46369Y-34398D01*
X46474Y-34351D01*
X46474Y-37004D01*
X46444Y-37004D01*
X46352Y-37042D01*
X46282Y-37112D01*
X46244Y-37203D01*
X46244Y-37302D01*
X46244Y-37902D01*
X46282Y-37994D01*
X46352Y-38064D01*
X46443Y-38102D01*
X46468Y-38102D01*
X46328Y-38242D01*
X46244Y-38444D01*
X46244Y-38662D01*
X46328Y-38864D01*
X46482Y-39018D01*
X46566Y-39053D01*
X46482Y-39088D01*
X46328Y-39242D01*
X46244Y-39444D01*
X46244Y-39662D01*
X46328Y-39864D01*
X46482Y-40018D01*
X46566Y-40053D01*
X46482Y-40088D01*
X46328Y-40242D01*
X46244Y-40444D01*
X46244Y-40662D01*
X46328Y-40864D01*
X46482Y-41018D01*
X46566Y-41053D01*
X46482Y-41088D01*
X46328Y-41242D01*
X46244Y-41444D01*
X46244Y-41662D01*
X46328Y-41864D01*
X46482Y-42018D01*
X46566Y-42053D01*
X46482Y-42088D01*
X46328Y-42242D01*
X46244Y-42444D01*
X46244Y-42662D01*
X46328Y-42864D01*
X46482Y-43018D01*
X46566Y-43053D01*
X46482Y-43088D01*
X46328Y-43242D01*
X46244Y-43444D01*
X46244Y-43662D01*
X46328Y-43864D01*
X46482Y-44018D01*
X46573Y-44055D01*
X46512Y-44081D01*
X46485Y-44175D01*
X46793Y-44482D01*
X47101Y-44175D01*
X47074Y-44081D01*
X47008Y-44057D01*
X47104Y-44018D01*
X47258Y-43864D01*
X47293Y-43779D01*
X47328Y-43864D01*
X47482Y-44018D01*
X47566Y-44053D01*
X47482Y-44088D01*
X47328Y-44242D01*
X47290Y-44333D01*
X47265Y-44272D01*
X47171Y-44245D01*
X46864Y-44553D01*
X46793Y-44624D01*
X46722Y-44694D01*
X46722Y-44553D01*
X46415Y-44245D01*
X46321Y-44272D01*
X46250Y-44474D01*
X46261Y-44687D01*
X46321Y-44834D01*
X46415Y-44861D01*
X46722Y-44553D01*
X46722Y-44694D01*
X46485Y-44931D01*
X46512Y-45025D01*
X46714Y-45096D01*
X46927Y-45085D01*
X46955Y-45073D01*
X46955Y-48873D01*
X46980Y-48999D01*
X47051Y-49105D01*
X48910Y-50964D01*
X49016Y-51035D01*
X49017Y-51035D01*
X49142Y-51060D01*
X58515Y-51060D01*
X58640Y-51035D01*
X58641Y-51035D01*
X58747Y-50964D01*
X58913Y-50798D01*
X59144Y-50798D01*
X59357Y-50710D01*
X59520Y-50547D01*
X59609Y-50334D01*
X59609Y-50103D01*
X59521Y-49890D01*
X59444Y-49813D01*
X59626Y-49813D01*
X59718Y-49775D01*
X59752Y-49741D01*
X59786Y-49775D01*
X59877Y-49813D01*
X59976Y-49813D01*
X60117Y-49813D01*
X60274Y-49969D01*
X60219Y-50102D01*
X60219Y-50333D01*
X60307Y-50546D01*
X60470Y-50709D01*
X60683Y-50798D01*
X60914Y-50798D01*
X61127Y-50710D01*
X61290Y-50547D01*
X61379Y-50334D01*
X61379Y-50103D01*
X61348Y-50029D01*
X61660Y-50029D01*
X61637Y-50085D01*
X61637Y-50223D01*
X61690Y-50351D01*
X61787Y-50448D01*
X61915Y-50501D01*
X61922Y-50501D01*
X62428Y-51007D01*
X62429Y-51007D01*
X62522Y-51070D01*
X62632Y-51091D01*
X62633Y-51092D01*
X65709Y-51092D01*
X65709Y-51091D01*
X65819Y-51070D01*
X65820Y-51070D01*
X65913Y-51007D01*
X66202Y-50718D01*
X66365Y-50718D01*
X66567Y-50634D01*
X66721Y-50480D01*
X66805Y-50278D01*
X66805Y-50060D01*
X66721Y-49858D01*
X66581Y-49718D01*
X66605Y-49718D01*
X66697Y-49680D01*
X66767Y-49610D01*
X66805Y-49519D01*
X66805Y-49420D01*
X66806Y-49281D01*
X66806Y-49057D01*
X66805Y-48918D01*
X66805Y-48819D01*
X66767Y-48728D01*
X66697Y-48658D01*
X66605Y-48620D01*
X66368Y-48619D01*
X66306Y-48681D01*
X66306Y-49119D01*
X66744Y-49119D01*
X66806Y-49057D01*
X66806Y-49281D01*
X66744Y-49219D01*
X66356Y-49219D01*
X66306Y-49219D01*
X66206Y-49219D01*
X66206Y-49119D01*
X66206Y-49069D01*
X66206Y-48681D01*
X66144Y-48619D01*
X65907Y-48620D01*
X65815Y-48658D01*
X65745Y-48728D01*
X65707Y-48819D01*
X65707Y-48844D01*
X65567Y-48704D01*
X65365Y-48620D01*
X65295Y-48620D01*
X64983Y-48308D01*
X64890Y-48245D01*
X64779Y-48223D01*
X64634Y-48223D01*
X62748Y-48223D01*
X62948Y-48024D01*
X62948Y-48023D01*
X62979Y-47976D01*
X63004Y-47939D01*
X63093Y-47939D01*
X63185Y-47901D01*
X63255Y-47831D01*
X63293Y-47740D01*
X63293Y-47641D01*
X63293Y-47527D01*
X63362Y-47693D01*
X63516Y-47847D01*
X63718Y-47931D01*
X63936Y-47931D01*
X64138Y-47847D01*
X64292Y-47693D01*
X64301Y-47671D01*
X64376Y-47671D01*
X64403Y-47682D01*
X64541Y-47682D01*
X64669Y-47629D01*
X64766Y-47532D01*
X64819Y-47404D01*
X64819Y-47266D01*
X64813Y-47253D01*
X64865Y-47253D01*
X64964Y-47253D01*
X65055Y-47215D01*
X65125Y-47145D01*
X65163Y-47053D01*
X65163Y-47039D01*
X65179Y-47078D01*
X65273Y-47105D01*
X65545Y-46832D01*
X65580Y-46797D01*
X65651Y-46726D01*
X65722Y-46797D01*
X65757Y-46832D01*
X66029Y-47105D01*
X66123Y-47078D01*
X66146Y-47012D01*
X66186Y-47108D01*
X66340Y-47262D01*
X66431Y-47299D01*
X66370Y-47325D01*
X66343Y-47419D01*
X66651Y-47726D01*
X66959Y-47419D01*
X66932Y-47325D01*
X66866Y-47301D01*
X66962Y-47262D01*
X67116Y-47108D01*
X67200Y-46906D01*
X67200Y-51925D01*
X67194Y-51925D01*
X67194Y-47876D01*
X67183Y-47663D01*
X67123Y-47516D01*
X67029Y-47489D01*
X66722Y-47797D01*
X67029Y-48105D01*
X67123Y-48078D01*
X67194Y-47876D01*
X67194Y-51925D01*
X66959Y-51925D01*
X66959Y-48175D01*
X66651Y-47868D01*
X66580Y-47938D01*
X66580Y-47797D01*
X66273Y-47489D01*
X66179Y-47516D01*
X66155Y-47581D01*
X66116Y-47486D01*
X65962Y-47332D01*
X65870Y-47294D01*
X65932Y-47269D01*
X65959Y-47175D01*
X65651Y-46868D01*
X65343Y-47175D01*
X65370Y-47269D01*
X65435Y-47292D01*
X65340Y-47332D01*
X65186Y-47486D01*
X65102Y-47688D01*
X65102Y-47906D01*
X65186Y-48108D01*
X65340Y-48262D01*
X65542Y-48346D01*
X65760Y-48346D01*
X65962Y-48262D01*
X66116Y-48108D01*
X66153Y-48016D01*
X66179Y-48078D01*
X66273Y-48105D01*
X66580Y-47797D01*
X66580Y-47938D01*
X66343Y-48175D01*
X66370Y-48269D01*
X66572Y-48340D01*
X66785Y-48329D01*
X66932Y-48269D01*
X66959Y-48175D01*
X66959Y-51925D01*
X44775Y-51925D01*
X44775Y-31300D01*
X68150Y-31300D01*
X68175Y-51925D01*
X68175Y-51925D01*
G37*
G54D36*
X68175Y-51925D02*
X67200Y-51925D01*
X67200Y-46906D01*
X67200Y-46688D01*
X67116Y-46486D01*
X66962Y-46332D01*
X66877Y-46297D01*
X66962Y-46262D01*
X67116Y-46108D01*
X67200Y-45906D01*
X67200Y-45688D01*
X67116Y-45486D01*
X66962Y-45332D01*
X66877Y-45297D01*
X66962Y-45262D01*
X67116Y-45108D01*
X67200Y-44906D01*
X67200Y-44688D01*
X67116Y-44486D01*
X66962Y-44332D01*
X66877Y-44297D01*
X66962Y-44262D01*
X67116Y-44108D01*
X67200Y-43906D01*
X67200Y-43688D01*
X67116Y-43486D01*
X66962Y-43332D01*
X66877Y-43297D01*
X66962Y-43262D01*
X67116Y-43108D01*
X67200Y-42906D01*
X67200Y-42688D01*
X67116Y-42486D01*
X66962Y-42332D01*
X66877Y-42297D01*
X66962Y-42262D01*
X67116Y-42108D01*
X67200Y-41906D01*
X67200Y-41688D01*
X67116Y-41486D01*
X66962Y-41332D01*
X66877Y-41297D01*
X66962Y-41262D01*
X67116Y-41108D01*
X67200Y-40906D01*
X67200Y-40688D01*
X67116Y-40486D01*
X66962Y-40332D01*
X66877Y-40297D01*
X66962Y-40262D01*
X67116Y-40108D01*
X67200Y-39906D01*
X67200Y-39688D01*
X67116Y-39486D01*
X66962Y-39332D01*
X66877Y-39297D01*
X66962Y-39262D01*
X67116Y-39108D01*
X67200Y-38906D01*
X67200Y-38688D01*
X67116Y-38486D01*
X66962Y-38332D01*
X66877Y-38297D01*
X66962Y-38262D01*
X67116Y-38108D01*
X67200Y-37906D01*
X67200Y-37688D01*
X67116Y-37486D01*
X66962Y-37332D01*
X66877Y-37297D01*
X66962Y-37262D01*
X67116Y-37108D01*
X67200Y-36906D01*
X67200Y-36688D01*
X67116Y-36486D01*
X66962Y-36332D01*
X66760Y-36248D01*
X66542Y-36248D01*
X66340Y-36332D01*
X66200Y-36472D01*
X66200Y-36448D01*
X66162Y-36356D01*
X66092Y-36286D01*
X66001Y-36248D01*
X65902Y-36248D01*
X65566Y-36248D01*
X65605Y-36209D01*
X65658Y-36081D01*
X65658Y-35943D01*
X65639Y-35897D01*
X65639Y-33876D01*
X65672Y-33843D01*
X65725Y-33715D01*
X65725Y-33577D01*
X65672Y-33449D01*
X65575Y-33352D01*
X65447Y-33299D01*
X65309Y-33299D01*
X65181Y-33352D01*
X65084Y-33449D01*
X65057Y-33513D01*
X65008Y-33587D01*
X64983Y-33713D01*
X64983Y-35880D01*
X64896Y-35966D01*
X64850Y-35986D01*
X64753Y-36083D01*
X64700Y-36211D01*
X64700Y-36349D01*
X64719Y-36394D01*
X64719Y-36978D01*
X64030Y-37666D01*
X63999Y-37590D01*
X63902Y-37493D01*
X63774Y-37440D01*
X63636Y-37440D01*
X63609Y-37451D01*
X63520Y-37451D01*
X63520Y-37420D01*
X63750Y-37190D01*
X63758Y-37190D01*
X63886Y-37137D01*
X63983Y-37040D01*
X64036Y-36912D01*
X64036Y-36774D01*
X63983Y-36646D01*
X63886Y-36549D01*
X63758Y-36496D01*
X63709Y-36496D01*
X63709Y-33269D01*
X63709Y-33094D01*
X63642Y-32933D01*
X63519Y-32809D01*
X63358Y-32742D01*
X63183Y-32742D01*
X63022Y-32809D01*
X62898Y-32932D01*
X62831Y-33093D01*
X62831Y-33268D01*
X62898Y-33429D01*
X63021Y-33553D01*
X63182Y-33620D01*
X63357Y-33620D01*
X63518Y-33553D01*
X63642Y-33430D01*
X63709Y-33269D01*
X63709Y-36496D01*
X63620Y-36496D01*
X63492Y-36549D01*
X63395Y-36646D01*
X63342Y-36774D01*
X63342Y-36781D01*
X63270Y-36853D01*
X63222Y-36853D01*
X62972Y-36853D01*
X62880Y-36891D01*
X62846Y-36925D01*
X62812Y-36891D01*
X62785Y-36879D01*
X62785Y-32503D01*
X62785Y-32279D01*
X62784Y-32007D01*
X62784Y-31908D01*
X62746Y-31817D01*
X62676Y-31747D01*
X62584Y-31709D01*
X62529Y-31708D01*
X62467Y-31770D01*
X62467Y-32341D01*
X62723Y-32341D01*
X62785Y-32279D01*
X62785Y-32503D01*
X62723Y-32441D01*
X62467Y-32441D01*
X62467Y-33012D01*
X62529Y-33074D01*
X62584Y-33073D01*
X62676Y-33035D01*
X62746Y-32965D01*
X62784Y-32874D01*
X62784Y-32775D01*
X62785Y-32503D01*
X62785Y-36879D01*
X62721Y-36853D01*
X62622Y-36853D01*
X62547Y-36853D01*
X62585Y-36815D01*
X62638Y-36687D01*
X62638Y-36672D01*
X62676Y-36657D01*
X62746Y-36587D01*
X62784Y-36496D01*
X62784Y-36397D01*
X62784Y-35531D01*
X62746Y-35439D01*
X62676Y-35369D01*
X62585Y-35331D01*
X62486Y-35331D01*
X62250Y-35331D01*
X62206Y-35349D01*
X62206Y-35334D01*
X62205Y-35333D01*
X62184Y-35223D01*
X62121Y-35130D01*
X62121Y-35129D01*
X61875Y-34884D01*
X61782Y-34821D01*
X61671Y-34799D01*
X60849Y-34799D01*
X60844Y-34794D01*
X60716Y-34741D01*
X60578Y-34741D01*
X60450Y-34794D01*
X60353Y-34891D01*
X60300Y-35019D01*
X60300Y-35091D01*
X60288Y-35062D01*
X60218Y-34992D01*
X60127Y-34954D01*
X60028Y-34954D01*
X59964Y-34953D01*
X59902Y-35015D01*
X59902Y-35278D01*
X60265Y-35278D01*
X60325Y-35217D01*
X60353Y-35285D01*
X60450Y-35382D01*
X60578Y-35435D01*
X60592Y-35435D01*
X60588Y-35439D01*
X60550Y-35530D01*
X60550Y-35629D01*
X60550Y-35685D01*
X60297Y-35685D01*
X60288Y-35662D01*
X60254Y-35628D01*
X60288Y-35594D01*
X60326Y-35502D01*
X60327Y-35440D01*
X60265Y-35378D01*
X59952Y-35378D01*
X59902Y-35378D01*
X59802Y-35378D01*
X59802Y-35278D01*
X59802Y-35015D01*
X59740Y-34953D01*
X59676Y-34954D01*
X59577Y-34954D01*
X59486Y-34992D01*
X59416Y-35062D01*
X59378Y-35154D01*
X59377Y-35216D01*
X59439Y-35278D01*
X59802Y-35278D01*
X59802Y-35378D01*
X59752Y-35378D01*
X59439Y-35378D01*
X59377Y-35440D01*
X59378Y-35502D01*
X59416Y-35594D01*
X59422Y-35600D01*
X59378Y-35600D01*
X59316Y-35537D01*
X59316Y-34453D01*
X59412Y-34453D01*
X59540Y-34400D01*
X59637Y-34303D01*
X59651Y-34269D01*
X59940Y-33981D01*
X59940Y-33980D01*
X60003Y-33887D01*
X60024Y-33776D01*
X60025Y-33776D01*
X60025Y-33617D01*
X60032Y-33620D01*
X60207Y-33620D01*
X60368Y-33553D01*
X60492Y-33430D01*
X60559Y-33269D01*
X60559Y-33094D01*
X60492Y-32933D01*
X60369Y-32809D01*
X60208Y-32742D01*
X60033Y-32742D01*
X59979Y-32764D01*
X60063Y-32680D01*
X60550Y-32680D01*
X60550Y-32873D01*
X60588Y-32965D01*
X60658Y-33035D01*
X60749Y-33073D01*
X60848Y-33073D01*
X61084Y-33073D01*
X61128Y-33054D01*
X61128Y-33411D01*
X61110Y-33455D01*
X61110Y-33593D01*
X61163Y-33721D01*
X61260Y-33818D01*
X61388Y-33871D01*
X61526Y-33871D01*
X61654Y-33818D01*
X61751Y-33721D01*
X61755Y-33710D01*
X61760Y-33715D01*
X61888Y-33768D01*
X62026Y-33768D01*
X62154Y-33715D01*
X62251Y-33618D01*
X62304Y-33490D01*
X62304Y-33352D01*
X62251Y-33224D01*
X62206Y-33179D01*
X62206Y-33054D01*
X62250Y-33073D01*
X62305Y-33074D01*
X62367Y-33012D01*
X62367Y-32491D01*
X62367Y-32441D01*
X62367Y-32341D01*
X62367Y-32291D01*
X62367Y-31770D01*
X62305Y-31708D01*
X62250Y-31709D01*
X62167Y-31743D01*
X62085Y-31709D01*
X61986Y-31709D01*
X61750Y-31709D01*
X61667Y-31743D01*
X61585Y-31709D01*
X61486Y-31709D01*
X61250Y-31709D01*
X61167Y-31743D01*
X61085Y-31709D01*
X60986Y-31709D01*
X60750Y-31709D01*
X60658Y-31747D01*
X60588Y-31817D01*
X60550Y-31908D01*
X60550Y-32007D01*
X60550Y-32102D01*
X59944Y-32102D01*
X59833Y-32124D01*
X59739Y-32187D01*
X59297Y-32629D01*
X59104Y-32629D01*
X59104Y-32477D01*
X59079Y-32352D01*
X59079Y-32351D01*
X59064Y-32329D01*
X59026Y-32236D01*
X58929Y-32139D01*
X58801Y-32086D01*
X58663Y-32086D01*
X58535Y-32139D01*
X58438Y-32236D01*
X58385Y-32364D01*
X58385Y-32502D01*
X58438Y-32630D01*
X58448Y-32640D01*
X58448Y-33630D01*
X58473Y-33756D01*
X58515Y-33819D01*
X58434Y-33901D01*
X58381Y-34029D01*
X58381Y-34036D01*
X58363Y-34055D01*
X58300Y-34148D01*
X58299Y-34153D01*
X58293Y-34153D01*
X58242Y-34173D01*
X58192Y-34153D01*
X58093Y-34153D01*
X57643Y-34153D01*
X57551Y-34191D01*
X57481Y-34261D01*
X57443Y-34352D01*
X57443Y-34451D01*
X57443Y-34701D01*
X57481Y-34793D01*
X57515Y-34827D01*
X57481Y-34861D01*
X57443Y-34952D01*
X57443Y-35051D01*
X57443Y-35180D01*
X57437Y-35166D01*
X57367Y-35096D01*
X57348Y-35088D01*
X57317Y-35057D01*
X57295Y-35058D01*
X57285Y-35061D01*
X57276Y-35058D01*
X57177Y-35058D01*
X57039Y-35058D01*
X57029Y-35062D01*
X57019Y-35058D01*
X56997Y-35057D01*
X56965Y-35088D01*
X56947Y-35096D01*
X56901Y-35142D01*
X56855Y-35096D01*
X56836Y-35088D01*
X56805Y-35057D01*
X56783Y-35058D01*
X56773Y-35061D01*
X56764Y-35058D01*
X56665Y-35058D01*
X56658Y-35058D01*
X56659Y-34998D01*
X56659Y-34774D01*
X56658Y-34710D01*
X56658Y-34611D01*
X56620Y-34520D01*
X56550Y-34450D01*
X56458Y-34412D01*
X56396Y-34411D01*
X56334Y-34473D01*
X56334Y-34836D01*
X56597Y-34836D01*
X56659Y-34774D01*
X56659Y-34998D01*
X56597Y-34936D01*
X56384Y-34936D01*
X56334Y-34936D01*
X56234Y-34936D01*
X56234Y-34836D01*
X56234Y-34786D01*
X56234Y-34473D01*
X56172Y-34411D01*
X56110Y-34412D01*
X56024Y-34447D01*
X56024Y-34348D01*
X55971Y-34220D01*
X55874Y-34123D01*
X55746Y-34070D01*
X55608Y-34070D01*
X55574Y-34083D01*
X55574Y-33452D01*
X55574Y-33228D01*
X55573Y-33164D01*
X55573Y-33065D01*
X55535Y-32974D01*
X55465Y-32904D01*
X55373Y-32866D01*
X55311Y-32865D01*
X55249Y-32927D01*
X55249Y-33290D01*
X55512Y-33290D01*
X55574Y-33228D01*
X55574Y-33452D01*
X55512Y-33390D01*
X55249Y-33390D01*
X55249Y-33588D01*
X55229Y-33608D01*
X55229Y-33971D01*
X55492Y-33971D01*
X55554Y-33909D01*
X55553Y-33845D01*
X55553Y-33746D01*
X55535Y-33704D01*
X55573Y-33615D01*
X55573Y-33516D01*
X55574Y-33452D01*
X55574Y-34083D01*
X55525Y-34104D01*
X55492Y-34071D01*
X55229Y-34071D01*
X55229Y-34434D01*
X55273Y-34478D01*
X55273Y-34614D01*
X55273Y-34664D01*
X55273Y-34764D01*
X55173Y-34764D01*
X55173Y-34664D01*
X55173Y-34614D01*
X55173Y-34301D01*
X55129Y-34257D01*
X55129Y-34121D01*
X55129Y-34071D01*
X55129Y-33971D01*
X55129Y-33921D01*
X55129Y-33773D01*
X55149Y-33753D01*
X55149Y-33440D01*
X55149Y-33390D01*
X55149Y-33290D01*
X55149Y-33240D01*
X55149Y-32927D01*
X55087Y-32865D01*
X55025Y-32866D01*
X54933Y-32904D01*
X54899Y-32938D01*
X54865Y-32904D01*
X54774Y-32866D01*
X54675Y-32866D01*
X54425Y-32866D01*
X54333Y-32904D01*
X54263Y-32974D01*
X54230Y-33051D01*
X53734Y-33051D01*
X53623Y-33073D01*
X53529Y-33136D01*
X53340Y-33326D01*
X53277Y-33419D01*
X53255Y-33530D01*
X53255Y-33608D01*
X53208Y-33655D01*
X53170Y-33746D01*
X53170Y-33845D01*
X53170Y-34295D01*
X53201Y-34371D01*
X53170Y-34447D01*
X53170Y-34481D01*
X53116Y-34518D01*
X52860Y-34774D01*
X52837Y-34807D01*
X52837Y-34440D01*
X52799Y-34348D01*
X52729Y-34278D01*
X52638Y-34240D01*
X52539Y-34240D01*
X52289Y-34240D01*
X52197Y-34278D01*
X52163Y-34312D01*
X52129Y-34278D01*
X52038Y-34240D01*
X51963Y-34240D01*
X51963Y-32478D01*
X51963Y-32254D01*
X51962Y-32115D01*
X51962Y-32016D01*
X51924Y-31925D01*
X51854Y-31855D01*
X51762Y-31817D01*
X51525Y-31816D01*
X51463Y-31878D01*
X51463Y-32316D01*
X51901Y-32316D01*
X51963Y-32254D01*
X51963Y-32478D01*
X51901Y-32416D01*
X51463Y-32416D01*
X51463Y-32854D01*
X51525Y-32916D01*
X51762Y-32915D01*
X51854Y-32877D01*
X51924Y-32807D01*
X51962Y-32716D01*
X51962Y-32617D01*
X51963Y-32478D01*
X51963Y-34240D01*
X51939Y-34240D01*
X51689Y-34240D01*
X51597Y-34278D01*
X51527Y-34348D01*
X51489Y-34439D01*
X51489Y-34478D01*
X51456Y-34399D01*
X51386Y-34329D01*
X51363Y-34319D01*
X51363Y-32854D01*
X51363Y-32466D01*
X51363Y-32416D01*
X51363Y-32316D01*
X51363Y-32266D01*
X51363Y-31878D01*
X51301Y-31816D01*
X51064Y-31817D01*
X50972Y-31855D01*
X50902Y-31925D01*
X50864Y-32016D01*
X50864Y-32041D01*
X50724Y-31901D01*
X50522Y-31817D01*
X50304Y-31817D01*
X50102Y-31901D01*
X49948Y-32055D01*
X49864Y-32257D01*
X49864Y-32475D01*
X49948Y-32677D01*
X50102Y-32831D01*
X50304Y-32915D01*
X50522Y-32915D01*
X50724Y-32831D01*
X50864Y-32691D01*
X50864Y-32716D01*
X50902Y-32807D01*
X50972Y-32877D01*
X51064Y-32915D01*
X51301Y-32916D01*
X51363Y-32854D01*
X51363Y-34319D01*
X51295Y-34291D01*
X51196Y-34291D01*
X50946Y-34291D01*
X50854Y-34329D01*
X50820Y-34363D01*
X50786Y-34329D01*
X50694Y-34291D01*
X50632Y-34290D01*
X50570Y-34352D01*
X50570Y-34665D01*
X50570Y-34715D01*
X50570Y-34815D01*
X50470Y-34815D01*
X50470Y-34715D01*
X50470Y-34352D01*
X50408Y-34290D01*
X50346Y-34291D01*
X50254Y-34329D01*
X50184Y-34399D01*
X50146Y-34490D01*
X50146Y-34589D01*
X50145Y-34653D01*
X50207Y-34715D01*
X50470Y-34715D01*
X50470Y-34815D01*
X50420Y-34815D01*
X50207Y-34815D01*
X50145Y-34877D01*
X50146Y-34941D01*
X50146Y-35040D01*
X50153Y-35058D01*
X50131Y-35058D01*
X50121Y-35061D01*
X50112Y-35058D01*
X50013Y-35058D01*
X49875Y-35058D01*
X49865Y-35061D01*
X49856Y-35058D01*
X49757Y-35058D01*
X49619Y-35058D01*
X49609Y-35061D01*
X49600Y-35058D01*
X49552Y-35058D01*
X49552Y-33891D01*
X49552Y-33626D01*
X49552Y-32724D01*
X49451Y-32479D01*
X49264Y-32292D01*
X49019Y-32190D01*
X48754Y-32190D01*
X48509Y-32291D01*
X48322Y-32478D01*
X48220Y-32723D01*
X48220Y-32988D01*
X48220Y-33890D01*
X48321Y-34135D01*
X48508Y-34322D01*
X48753Y-34424D01*
X49018Y-34424D01*
X49263Y-34323D01*
X49450Y-34136D01*
X49552Y-33891D01*
X49552Y-35058D01*
X49501Y-35058D01*
X49363Y-35058D01*
X49353Y-35062D01*
X49343Y-35058D01*
X49321Y-35057D01*
X49289Y-35088D01*
X49271Y-35096D01*
X49201Y-35166D01*
X49191Y-35189D01*
X49191Y-35119D01*
X49129Y-35057D01*
X49107Y-35058D01*
X49015Y-35096D01*
X48945Y-35166D01*
X48907Y-35257D01*
X48907Y-35333D01*
X48968Y-35394D01*
X49163Y-35394D01*
X49163Y-35494D01*
X49125Y-35494D01*
X48968Y-35494D01*
X48907Y-35555D01*
X48907Y-35631D01*
X48945Y-35722D01*
X49015Y-35792D01*
X49107Y-35830D01*
X49125Y-35830D01*
X49125Y-35831D01*
X49129Y-35831D01*
X49192Y-35831D01*
X49192Y-36380D01*
X49151Y-36480D01*
X49151Y-36618D01*
X49204Y-36746D01*
X49301Y-36843D01*
X49419Y-36892D01*
X49444Y-36951D01*
X49541Y-37048D01*
X49669Y-37101D01*
X49807Y-37101D01*
X49906Y-37059D01*
X49952Y-37171D01*
X50049Y-37268D01*
X50177Y-37321D01*
X50315Y-37321D01*
X50443Y-37268D01*
X50539Y-37172D01*
X50567Y-37172D01*
X50695Y-37119D01*
X50792Y-37022D01*
X50811Y-36975D01*
X50842Y-36975D01*
X50970Y-36922D01*
X50985Y-36906D01*
X51269Y-37189D01*
X51269Y-37197D01*
X51322Y-37325D01*
X51419Y-37422D01*
X51547Y-37475D01*
X51685Y-37475D01*
X51813Y-37422D01*
X51910Y-37325D01*
X51952Y-37222D01*
X52050Y-37320D01*
X52050Y-37895D01*
X52019Y-37895D01*
X51891Y-37948D01*
X51794Y-38045D01*
X51741Y-38173D01*
X51741Y-38180D01*
X51563Y-38358D01*
X51565Y-38354D01*
X51565Y-38216D01*
X51512Y-38088D01*
X51415Y-37991D01*
X51287Y-37938D01*
X51149Y-37938D01*
X51021Y-37991D01*
X51008Y-38004D01*
X50730Y-38004D01*
X50619Y-38026D01*
X50526Y-38089D01*
X50313Y-38301D01*
X50301Y-38310D01*
X50238Y-38403D01*
X50216Y-38514D01*
X50216Y-38518D01*
X50216Y-39209D01*
X50175Y-39168D01*
X50172Y-39166D01*
X50121Y-39043D01*
X50024Y-38946D01*
X49896Y-38893D01*
X49758Y-38893D01*
X49721Y-38908D01*
X49620Y-38866D01*
X49482Y-38866D01*
X49354Y-38919D01*
X49257Y-39016D01*
X49204Y-39144D01*
X49204Y-39222D01*
X49192Y-39283D01*
X49192Y-39410D01*
X49107Y-39410D01*
X49015Y-39448D01*
X48945Y-39518D01*
X48920Y-39575D01*
X48384Y-39039D01*
X48384Y-35791D01*
X48384Y-35246D01*
X48384Y-35146D01*
X48384Y-34601D01*
X48269Y-34354D01*
X48068Y-34170D01*
X47860Y-34105D01*
X47755Y-34152D01*
X47755Y-35146D01*
X48384Y-35146D01*
X48384Y-35246D01*
X47755Y-35246D01*
X47755Y-36240D01*
X47860Y-36287D01*
X48068Y-36222D01*
X48269Y-36038D01*
X48384Y-35791D01*
X48384Y-39039D01*
X48233Y-38888D01*
X48258Y-38864D01*
X48342Y-38662D01*
X48342Y-38444D01*
X48258Y-38242D01*
X48104Y-38088D01*
X48019Y-38053D01*
X48104Y-38018D01*
X48258Y-37864D01*
X48342Y-37662D01*
X48342Y-37444D01*
X48258Y-37242D01*
X48104Y-37088D01*
X47902Y-37004D01*
X47684Y-37004D01*
X47655Y-37016D01*
X47655Y-36240D01*
X47655Y-35246D01*
X47655Y-35146D01*
X47655Y-34152D01*
X47550Y-34105D01*
X47342Y-34170D01*
X47203Y-34297D01*
X47203Y-33902D01*
X47203Y-33357D01*
X47203Y-33257D01*
X47203Y-32712D01*
X47088Y-32465D01*
X46887Y-32281D01*
X46679Y-32216D01*
X46574Y-32263D01*
X46574Y-33257D01*
X47203Y-33257D01*
X47203Y-33357D01*
X46574Y-33357D01*
X46574Y-34351D01*
X46679Y-34398D01*
X46887Y-34333D01*
X47088Y-34149D01*
X47203Y-33902D01*
X47203Y-34297D01*
X47141Y-34354D01*
X47026Y-34601D01*
X47026Y-35146D01*
X47655Y-35146D01*
X47655Y-35246D01*
X47026Y-35246D01*
X47026Y-35791D01*
X47141Y-36038D01*
X47342Y-36222D01*
X47550Y-36287D01*
X47655Y-36240D01*
X47655Y-37016D01*
X47482Y-37088D01*
X47342Y-37228D01*
X47342Y-37204D01*
X47304Y-37112D01*
X47234Y-37042D01*
X47143Y-37004D01*
X47044Y-37004D01*
X46474Y-37004D01*
X46474Y-34351D01*
X46474Y-33357D01*
X46474Y-33257D01*
X46474Y-32263D01*
X46369Y-32216D01*
X46161Y-32281D01*
X45960Y-32465D01*
X45845Y-32712D01*
X45845Y-33257D01*
X46474Y-33257D01*
X46474Y-33357D01*
X45845Y-33357D01*
X45845Y-33902D01*
X45960Y-34149D01*
X46161Y-34333D01*
X46369Y-34398D01*
X46474Y-34351D01*
X46474Y-37004D01*
X46444Y-37004D01*
X46352Y-37042D01*
X46282Y-37112D01*
X46244Y-37203D01*
X46244Y-37302D01*
X46244Y-37902D01*
X46282Y-37994D01*
X46352Y-38064D01*
X46443Y-38102D01*
X46468Y-38102D01*
X46328Y-38242D01*
X46244Y-38444D01*
X46244Y-38662D01*
X46328Y-38864D01*
X46482Y-39018D01*
X46566Y-39053D01*
X46482Y-39088D01*
X46328Y-39242D01*
X46244Y-39444D01*
X46244Y-39662D01*
X46328Y-39864D01*
X46482Y-40018D01*
X46566Y-40053D01*
X46482Y-40088D01*
X46328Y-40242D01*
X46244Y-40444D01*
X46244Y-40662D01*
X46328Y-40864D01*
X46482Y-41018D01*
X46566Y-41053D01*
X46482Y-41088D01*
X46328Y-41242D01*
X46244Y-41444D01*
X46244Y-41662D01*
X46328Y-41864D01*
X46482Y-42018D01*
X46566Y-42053D01*
X46482Y-42088D01*
X46328Y-42242D01*
X46244Y-42444D01*
X46244Y-42662D01*
X46328Y-42864D01*
X46482Y-43018D01*
X46566Y-43053D01*
X46482Y-43088D01*
X46328Y-43242D01*
X46244Y-43444D01*
X46244Y-43662D01*
X46328Y-43864D01*
X46482Y-44018D01*
X46573Y-44055D01*
X46512Y-44081D01*
X46485Y-44175D01*
X46793Y-44482D01*
X47101Y-44175D01*
X47074Y-44081D01*
X47008Y-44057D01*
X47104Y-44018D01*
X47258Y-43864D01*
X47293Y-43779D01*
X47328Y-43864D01*
X47482Y-44018D01*
X47566Y-44053D01*
X47482Y-44088D01*
X47328Y-44242D01*
X47290Y-44333D01*
X47265Y-44272D01*
X47171Y-44245D01*
X46864Y-44553D01*
X46793Y-44624D01*
X46722Y-44694D01*
X46722Y-44553D01*
X46415Y-44245D01*
X46321Y-44272D01*
X46250Y-44474D01*
X46261Y-44687D01*
X46321Y-44834D01*
X46415Y-44861D01*
X46722Y-44553D01*
X46722Y-44694D01*
X46485Y-44931D01*
X46512Y-45025D01*
X46714Y-45096D01*
X46927Y-45085D01*
X46955Y-45073D01*
X46955Y-48873D01*
X46980Y-48999D01*
X47051Y-49105D01*
X48910Y-50964D01*
X49016Y-51035D01*
X49017Y-51035D01*
X49142Y-51060D01*
X58515Y-51060D01*
X58640Y-51035D01*
X58641Y-51035D01*
X58747Y-50964D01*
X58913Y-50798D01*
X59144Y-50798D01*
X59357Y-50710D01*
X59520Y-50547D01*
X59609Y-50334D01*
X59609Y-50103D01*
X59521Y-49890D01*
X59444Y-49813D01*
X59626Y-49813D01*
X59718Y-49775D01*
X59752Y-49741D01*
X59786Y-49775D01*
X59877Y-49813D01*
X59976Y-49813D01*
X60117Y-49813D01*
X60274Y-49969D01*
X60219Y-50102D01*
X60219Y-50333D01*
X60307Y-50546D01*
X60470Y-50709D01*
X60683Y-50798D01*
X60914Y-50798D01*
X61127Y-50710D01*
X61290Y-50547D01*
X61379Y-50334D01*
X61379Y-50103D01*
X61348Y-50029D01*
X61660Y-50029D01*
X61637Y-50085D01*
X61637Y-50223D01*
X61690Y-50351D01*
X61787Y-50448D01*
X61915Y-50501D01*
X61922Y-50501D01*
X62428Y-51007D01*
X62429Y-51007D01*
X62522Y-51070D01*
X62632Y-51091D01*
X62633Y-51092D01*
X65709Y-51092D01*
X65709Y-51091D01*
X65819Y-51070D01*
X65820Y-51070D01*
X65913Y-51007D01*
X66202Y-50718D01*
X66365Y-50718D01*
X66567Y-50634D01*
X66721Y-50480D01*
X66805Y-50278D01*
X66805Y-50060D01*
X66721Y-49858D01*
X66581Y-49718D01*
X66605Y-49718D01*
X66697Y-49680D01*
X66767Y-49610D01*
X66805Y-49519D01*
X66805Y-49420D01*
X66806Y-49281D01*
X66806Y-49057D01*
X66805Y-48918D01*
X66805Y-48819D01*
X66767Y-48728D01*
X66697Y-48658D01*
X66605Y-48620D01*
X66368Y-48619D01*
X66306Y-48681D01*
X66306Y-49119D01*
X66744Y-49119D01*
X66806Y-49057D01*
X66806Y-49281D01*
X66744Y-49219D01*
X66356Y-49219D01*
X66306Y-49219D01*
X66206Y-49219D01*
X66206Y-49119D01*
X66206Y-49069D01*
X66206Y-48681D01*
X66144Y-48619D01*
X65907Y-48620D01*
X65815Y-48658D01*
X65745Y-48728D01*
X65707Y-48819D01*
X65707Y-48844D01*
X65567Y-48704D01*
X65365Y-48620D01*
X65295Y-48620D01*
X64983Y-48308D01*
X64890Y-48245D01*
X64779Y-48223D01*
X64634Y-48223D01*
X62748Y-48223D01*
X62948Y-48024D01*
X62948Y-48023D01*
X62979Y-47976D01*
X63004Y-47939D01*
X63093Y-47939D01*
X63185Y-47901D01*
X63255Y-47831D01*
X63293Y-47740D01*
X63293Y-47641D01*
X63293Y-47527D01*
X63362Y-47693D01*
X63516Y-47847D01*
X63718Y-47931D01*
X63936Y-47931D01*
X64138Y-47847D01*
X64292Y-47693D01*
X64301Y-47671D01*
X64376Y-47671D01*
X64403Y-47682D01*
X64541Y-47682D01*
X64669Y-47629D01*
X64766Y-47532D01*
X64819Y-47404D01*
X64819Y-47266D01*
X64813Y-47253D01*
X64865Y-47253D01*
X64964Y-47253D01*
X65055Y-47215D01*
X65125Y-47145D01*
X65163Y-47053D01*
X65163Y-47039D01*
X65179Y-47078D01*
X65273Y-47105D01*
X65545Y-46832D01*
X65580Y-46797D01*
X65651Y-46726D01*
X65722Y-46797D01*
X65757Y-46832D01*
X66029Y-47105D01*
X66123Y-47078D01*
X66146Y-47012D01*
X66186Y-47108D01*
X66340Y-47262D01*
X66431Y-47299D01*
X66370Y-47325D01*
X66343Y-47419D01*
X66651Y-47726D01*
X66959Y-47419D01*
X66932Y-47325D01*
X66866Y-47301D01*
X66962Y-47262D01*
X67116Y-47108D01*
X67200Y-46906D01*
X67200Y-51925D01*
X67194Y-51925D01*
X67194Y-47876D01*
X67183Y-47663D01*
X67123Y-47516D01*
X67029Y-47489D01*
X66722Y-47797D01*
X67029Y-48105D01*
X67123Y-48078D01*
X67194Y-47876D01*
X67194Y-51925D01*
X66959Y-51925D01*
X66959Y-48175D01*
X66651Y-47868D01*
X66580Y-47938D01*
X66580Y-47797D01*
X66273Y-47489D01*
X66179Y-47516D01*
X66155Y-47581D01*
X66116Y-47486D01*
X65962Y-47332D01*
X65870Y-47294D01*
X65932Y-47269D01*
X65959Y-47175D01*
X65651Y-46868D01*
X65343Y-47175D01*
X65370Y-47269D01*
X65435Y-47292D01*
X65340Y-47332D01*
X65186Y-47486D01*
X65102Y-47688D01*
X65102Y-47906D01*
X65186Y-48108D01*
X65340Y-48262D01*
X65542Y-48346D01*
X65760Y-48346D01*
X65962Y-48262D01*
X66116Y-48108D01*
X66153Y-48016D01*
X66179Y-48078D01*
X66273Y-48105D01*
X66580Y-47797D01*
X66580Y-47938D01*
X66343Y-48175D01*
X66370Y-48269D01*
X66572Y-48340D01*
X66785Y-48329D01*
X66932Y-48269D01*
X66959Y-48175D01*
X66959Y-51925D01*
X44775Y-51925D01*
X44775Y-31300D01*
X68150Y-31300D01*
X68175Y-51925D01*
M02*
