G04 (created by PCBNEW-RS274X (2011-01-25 BZR 2758)-stable) date Tue 26 Apr 2011 02:48:04 PM COT*
G01*
G70*
G90*
%MOIN*%
G04 Gerber Fmt 3.4, Leading zero omitted, Abs format*
%FSLAX34Y34*%
G04 APERTURE LIST*
%ADD10C,0.006000*%
%ADD11R,0.011800X0.027500*%
%ADD12O,0.085900X0.171900*%
%ADD13R,0.031400X0.031400*%
%ADD14R,0.035000X0.008000*%
%ADD15R,0.008000X0.035000*%
%ADD16R,0.026000X0.062000*%
%ADD17R,0.062000X0.054000*%
%ADD18R,0.046000X0.086000*%
%ADD19R,0.046000X0.054000*%
%ADD20R,0.025000X0.045000*%
%ADD21R,0.045000X0.025000*%
%ADD22R,0.060000X0.080000*%
%ADD23R,0.080000X0.060000*%
G04 APERTURE END LIST*
G54D10*
G54D11*
X56375Y-46644D03*
X56120Y-46644D03*
X55865Y-46644D03*
X55865Y-47272D03*
X56120Y-47272D03*
X56375Y-47272D03*
G54D12*
X46524Y-33307D03*
X47705Y-35196D03*
X48886Y-33307D03*
G54D13*
X46347Y-47492D03*
X46937Y-47492D03*
X66177Y-35555D03*
X66767Y-35555D03*
G54D14*
X57919Y-43054D03*
G54D15*
X57228Y-37495D03*
G54D14*
X51669Y-38186D03*
G54D15*
X52360Y-43745D03*
G54D14*
X57919Y-42897D03*
G54D15*
X57071Y-37495D03*
G54D14*
X51669Y-38343D03*
G54D15*
X52517Y-43745D03*
G54D14*
X57919Y-42740D03*
G54D15*
X56914Y-37495D03*
G54D14*
X51669Y-38500D03*
G54D15*
X52674Y-43745D03*
G54D14*
X57919Y-42583D03*
G54D15*
X56757Y-37495D03*
G54D14*
X51669Y-38657D03*
G54D15*
X52831Y-43745D03*
G54D14*
X57919Y-42426D03*
G54D15*
X56600Y-37495D03*
G54D14*
X51669Y-38814D03*
G54D15*
X52988Y-43745D03*
G54D14*
X57919Y-42269D03*
G54D15*
X56443Y-37495D03*
G54D14*
X51669Y-38971D03*
G54D15*
X53145Y-43745D03*
G54D14*
X57919Y-42112D03*
G54D15*
X56286Y-37495D03*
G54D14*
X51669Y-39128D03*
G54D15*
X53302Y-43745D03*
G54D14*
X57919Y-41955D03*
G54D15*
X56129Y-37495D03*
G54D14*
X51669Y-39285D03*
G54D15*
X53459Y-43745D03*
G54D14*
X57919Y-41798D03*
G54D15*
X55972Y-37495D03*
G54D14*
X51669Y-39442D03*
G54D15*
X53616Y-43745D03*
G54D14*
X57919Y-41641D03*
G54D15*
X55815Y-37495D03*
G54D14*
X51669Y-39599D03*
G54D15*
X53773Y-43745D03*
G54D14*
X57919Y-41484D03*
G54D15*
X55658Y-37495D03*
G54D14*
X51669Y-39756D03*
G54D15*
X53930Y-43745D03*
G54D14*
X57919Y-41327D03*
G54D15*
X55501Y-37495D03*
G54D14*
X51669Y-39913D03*
G54D15*
X54087Y-43745D03*
G54D14*
X57919Y-41170D03*
G54D15*
X55344Y-37495D03*
G54D14*
X51669Y-40070D03*
G54D15*
X54244Y-43745D03*
G54D14*
X57919Y-41013D03*
G54D15*
X55187Y-37495D03*
G54D14*
X51669Y-40227D03*
G54D15*
X54401Y-43745D03*
G54D14*
X57919Y-40856D03*
G54D15*
X55030Y-37495D03*
G54D14*
X51669Y-40384D03*
G54D15*
X54558Y-43745D03*
G54D14*
X57919Y-40699D03*
G54D15*
X54873Y-37495D03*
G54D14*
X51669Y-40541D03*
G54D15*
X54715Y-43745D03*
G54D14*
X57919Y-40542D03*
G54D15*
X54716Y-37495D03*
G54D14*
X51669Y-40698D03*
G54D15*
X54872Y-43745D03*
G54D14*
X57919Y-40385D03*
G54D15*
X54559Y-37495D03*
G54D14*
X51669Y-40855D03*
G54D15*
X55029Y-43745D03*
G54D14*
X57919Y-40228D03*
G54D15*
X54402Y-37495D03*
G54D14*
X51669Y-41012D03*
G54D15*
X55186Y-43745D03*
G54D14*
X57919Y-40071D03*
G54D15*
X54245Y-37495D03*
G54D14*
X51669Y-41169D03*
G54D15*
X55343Y-43745D03*
G54D14*
X57919Y-39914D03*
G54D15*
X54088Y-37495D03*
G54D14*
X51669Y-41326D03*
G54D15*
X55500Y-43745D03*
G54D14*
X57919Y-39757D03*
G54D15*
X53931Y-37495D03*
G54D14*
X51669Y-41483D03*
G54D15*
X55657Y-43745D03*
G54D14*
X57919Y-39600D03*
G54D15*
X53774Y-37495D03*
G54D14*
X51669Y-41640D03*
G54D15*
X55814Y-43745D03*
G54D14*
X57919Y-39443D03*
G54D15*
X53617Y-37495D03*
G54D14*
X51669Y-41797D03*
G54D15*
X55971Y-43745D03*
G54D14*
X57919Y-39286D03*
G54D15*
X53460Y-37495D03*
G54D14*
X51669Y-41954D03*
G54D15*
X56128Y-43745D03*
G54D14*
X57919Y-39129D03*
G54D15*
X53303Y-37495D03*
G54D14*
X51669Y-42111D03*
G54D15*
X56285Y-43745D03*
G54D14*
X57919Y-38972D03*
G54D15*
X53146Y-37495D03*
G54D14*
X51669Y-42268D03*
G54D15*
X56442Y-43745D03*
G54D14*
X57919Y-38815D03*
G54D15*
X52989Y-37495D03*
G54D14*
X51669Y-42425D03*
G54D15*
X56599Y-43745D03*
G54D14*
X57919Y-38658D03*
G54D15*
X52832Y-37495D03*
G54D14*
X51669Y-42582D03*
G54D15*
X56756Y-43745D03*
G54D14*
X57919Y-38501D03*
G54D15*
X52675Y-37495D03*
G54D14*
X51669Y-42739D03*
G54D15*
X56913Y-43745D03*
G54D14*
X57919Y-38344D03*
G54D15*
X52518Y-37495D03*
G54D14*
X51669Y-42896D03*
G54D15*
X57070Y-43745D03*
G54D14*
X57919Y-38187D03*
G54D15*
X52361Y-37495D03*
G54D14*
X51669Y-43053D03*
G54D15*
X57227Y-43745D03*
G54D16*
X60440Y-37321D03*
X60870Y-37321D03*
X61300Y-37321D03*
X61740Y-37321D03*
X62170Y-37321D03*
X62600Y-37321D03*
X63040Y-37321D03*
X63470Y-37321D03*
X63900Y-37321D03*
G54D17*
X58630Y-37121D03*
G54D18*
X58270Y-33341D03*
X64370Y-33341D03*
G54D19*
X64380Y-37121D03*
G54D20*
X66153Y-34224D03*
X66753Y-34224D03*
X66761Y-34898D03*
X66161Y-34898D03*
X46306Y-46803D03*
X46906Y-46803D03*
G54D21*
X58752Y-46087D03*
X58752Y-45487D03*
G54D20*
X49540Y-44102D03*
X48940Y-44102D03*
X62843Y-40953D03*
X62243Y-40953D03*
G54D22*
X49844Y-46595D03*
X51144Y-46595D03*
X52144Y-47095D03*
X53444Y-47095D03*
X49269Y-45545D03*
X47969Y-45545D03*
G54D23*
X58809Y-43348D03*
X58809Y-44648D03*
G54D21*
X56319Y-45220D03*
X56319Y-45820D03*
X54394Y-45220D03*
X54394Y-45820D03*
X53144Y-45220D03*
X53144Y-45820D03*
G54D20*
X52619Y-46295D03*
X53219Y-46295D03*
G54D21*
X52519Y-45195D03*
X52519Y-45795D03*
X49969Y-45245D03*
X49969Y-45845D03*
X51244Y-45245D03*
X51244Y-45845D03*
X53769Y-45220D03*
X53769Y-45820D03*
X50619Y-45245D03*
X50619Y-45845D03*
X51894Y-45170D03*
X51894Y-45770D03*
G54D20*
X49569Y-42020D03*
X48969Y-42020D03*
G54D21*
X55044Y-45220D03*
X55044Y-45820D03*
G54D20*
X49494Y-44745D03*
X48894Y-44745D03*
G54D21*
X60860Y-43678D03*
X60860Y-44278D03*
X60234Y-43717D03*
X60234Y-44317D03*
G54D20*
X49585Y-43269D03*
X48985Y-43269D03*
X55054Y-36712D03*
X55654Y-36712D03*
X49569Y-42645D03*
X48969Y-42645D03*
G54D21*
X59620Y-43741D03*
X59620Y-44341D03*
X64315Y-44920D03*
X64315Y-45520D03*
X61669Y-44920D03*
X61669Y-45520D03*
X55277Y-47151D03*
X55277Y-47751D03*
G54D20*
X54731Y-47132D03*
X54131Y-47132D03*
X54746Y-47738D03*
X54146Y-47738D03*
G54D21*
X58300Y-47780D03*
X58300Y-47180D03*
X55694Y-45220D03*
X55694Y-45820D03*
X56938Y-45832D03*
X56938Y-46432D03*
G54D20*
X54319Y-46495D03*
X54919Y-46495D03*
X63204Y-45484D03*
X63804Y-45484D03*
G54D21*
X61929Y-42670D03*
X61929Y-42070D03*
X60783Y-46783D03*
X60783Y-47383D03*
X59406Y-45487D03*
X59406Y-46087D03*
G54D20*
X66153Y-33520D03*
X66753Y-33520D03*
M02*
