M48
;DRILL file {PCBnew (2011-01-25 BZR 2758)-stable} date Mon 25 Apr 2011 12:36:06 PM COT
;FORMAT={-:-/ absolute / inch / decimal}
FMAT,2
INCH,TZ
T1C0.008
T2C0.031
T3C0.032
T4C0.038
T5C0.039
T6C0.040
T7C0.052
%
G90
G05
M72
T1
X4.770Y4.878
X4.791Y4.899
X4.810Y4.917
X4.841Y4.228
X4.950Y3.655
X4.955Y3.921
X4.974Y3.675
X4.979Y4.476
X4.980Y4.140
X4.983Y3.924
X4.994Y4.212
X4.997Y4.459
X4.998Y3.655
X4.998Y3.946
X5.000Y4.494
X5.006Y4.352
X5.013Y4.232
X5.014Y4.322
X5.017Y4.479
X5.024Y4.123
X5.025Y3.697
X5.037Y4.166
X5.042Y4.323
X5.050Y3.683
X5.050Y4.270
X5.056Y4.033
X5.077Y3.663
X5.085Y4.329
X5.086Y4.032
X5.100Y4.274
X5.106Y4.012
X5.115Y4.188
X5.122Y3.829
X5.137Y4.442
X5.158Y4.352
X5.162Y3.713
X5.163Y3.684
X5.177Y4.412
X5.184Y4.367
X5.207Y4.168
X5.209Y3.824
X5.211Y3.852
X5.212Y3.885
X5.213Y4.341
X5.222Y4.308
X5.225Y3.609
X5.230Y4.012
X5.234Y3.937
X5.241Y4.444
X5.243Y4.325
X5.244Y4.194
X5.258Y4.219
X5.263Y4.162
X5.273Y4.292
X5.277Y4.432
X5.277Y4.458
X5.288Y4.218
X5.293Y4.163
X5.295Y4.244
X5.316Y4.330
X5.317Y3.633
X5.323Y3.818
X5.332Y3.581
X5.337Y4.447
X5.341Y3.798
X5.355Y4.466
X5.357Y4.426
X5.359Y3.657
X5.367Y3.815
X5.373Y4.779
X5.374Y4.815
X5.378Y3.577
X5.381Y4.476
X5.389Y4.161
X5.391Y4.298
X5.391Y4.327
X5.394Y3.811
X5.405Y3.658
X5.412Y3.576
X5.414Y4.482
X5.418Y3.682
X5.421Y4.302
X5.422Y3.358
X5.422Y3.808
X5.425Y4.162
X5.433Y3.658
X5.434Y3.948
X5.435Y3.785
X5.456Y3.575
X5.460Y4.163
X5.462Y3.714
X5.463Y3.942
X5.472Y4.436
X5.475Y4.111
X5.478Y4.819
X5.480Y4.485
X5.480Y3.919
X5.502Y4.307
X5.509Y3.919
X5.524Y3.785
X5.527Y4.620
X5.530Y4.240
X5.532Y4.817
X5.534Y3.636
X5.537Y4.884
X5.539Y3.918
X5.555Y4.942
X5.556Y3.715
X5.560Y4.625
X5.568Y3.442
X5.568Y4.437
X5.572Y4.242
X5.572Y4.802
X5.574Y4.053
X5.579Y3.919
X5.589Y4.030
X5.600Y4.868
X5.613Y3.940
X5.614Y3.660
X5.618Y4.461
X5.639Y3.821
X5.640Y4.484
X5.644Y3.903
X5.648Y4.284
X5.661Y3.578
X5.663Y3.924
X5.683Y3.901
X5.684Y4.868
X5.690Y3.592
X5.693Y4.137
X5.694Y3.831
X5.698Y4.550
X5.708Y3.856
X5.715Y4.072
X5.727Y4.246
X5.729Y4.172
X5.731Y4.055
X5.738Y4.544
X5.742Y4.094
X5.744Y3.907
X5.744Y3.935
X5.746Y4.405
X5.748Y4.274
X5.753Y4.376
X5.756Y3.851
X5.777Y4.458
X5.787Y4.985
X5.790Y4.349
X5.805Y4.445
X5.825Y4.541
X5.847Y3.854
X5.864Y4.061
X5.869Y3.873
X5.873Y3.410
X5.873Y3.243
X5.873Y3.842
X5.909Y3.774
X5.917Y4.067
X5.930Y3.876
X5.932Y4.848
X5.934Y3.411
X5.939Y3.538
X5.972Y3.849
X5.977Y4.511
X5.978Y3.419
X5.985Y4.979
X5.997Y4.237
X6.015Y4.194
X6.029Y4.303
X6.031Y4.215
X6.033Y4.276
X6.036Y4.172
X6.041Y4.482
X6.047Y4.852
X6.057Y4.262
X6.059Y3.828
X6.062Y4.150
X6.063Y3.655
X6.063Y4.580
X6.065Y3.509
X6.066Y3.800
X6.068Y4.834
X6.071Y4.968
X6.101Y3.671
X6.107Y3.806
X6.124Y3.539
X6.126Y4.555
X6.135Y4.123
X6.146Y3.352
X6.154Y3.849
X6.174Y3.684
X6.191Y3.849
X6.196Y3.342
X6.198Y5.015
X6.206Y3.683
X6.211Y4.593
X6.229Y3.662
X6.271Y4.325
X6.272Y4.410
X6.278Y4.555
X6.280Y3.661
X6.289Y3.804
X6.309Y4.495
X6.311Y4.325
X6.317Y3.820
X6.354Y3.239
X6.369Y3.684
X6.371Y3.779
X6.402Y3.663
X6.441Y4.586
X6.447Y4.734
X6.482Y3.835
X6.505Y3.628
X6.505Y3.780
X6.531Y3.601
X6.538Y3.365
X6.698Y4.987
T2
X4.652Y3.331
X4.771Y3.520
T3
X6.565Y3.680
T4
X6.012Y3.318
X6.327Y3.318
T5
X4.889Y3.331
T6
X4.679Y3.755
X4.679Y3.855
X4.679Y3.955
X4.679Y4.055
X4.679Y4.155
X4.679Y4.255
X4.679Y4.355
X4.679Y4.455
X4.779Y3.755
X4.779Y3.855
X4.779Y3.955
X4.779Y4.055
X4.779Y4.155
X4.779Y4.255
X4.779Y4.355
X4.779Y4.455
X4.872Y4.673
X4.872Y4.773
X5.041Y3.237
X5.049Y5.022
X5.141Y3.237
X5.226Y5.022
X5.481Y5.022
X5.658Y5.022
X5.903Y5.022
X6.080Y5.022
X6.165Y4.639
X6.165Y4.739
X6.274Y4.639
X6.274Y4.739
X6.326Y4.917
X6.326Y5.017
X6.383Y4.638
X6.383Y4.738
X6.426Y4.917
X6.426Y5.017
X6.526Y4.917
X6.526Y5.017
X6.565Y3.780
X6.565Y3.880
X6.565Y3.980
X6.565Y4.080
X6.565Y4.180
X6.565Y4.280
X6.565Y4.380
X6.565Y4.480
X6.565Y4.580
X6.565Y4.680
X6.565Y4.780
X6.626Y4.917
X6.626Y5.017
X6.665Y3.680
X6.665Y3.780
X6.665Y3.880
X6.665Y3.980
X6.665Y4.080
X6.665Y4.180
X6.665Y4.280
X6.665Y4.380
X6.665Y4.480
X6.665Y4.580
X6.665Y4.680
X6.665Y4.780
T7
X4.999Y4.924
X5.275Y4.924
X5.431Y4.924
X5.707Y4.924
X5.853Y4.924
X6.129Y4.924
T0
M30
