G04 (created by PCBNEW-RS274X (2011-01-25 BZR 2758)-stable) date Tue 26 Apr 2011 02:48:04 PM COT*
G01*
G70*
G90*
%MOIN*%
G04 Gerber Fmt 3.4, Leading zero omitted, Abs format*
%FSLAX34Y34*%
G04 APERTURE LIST*
%ADD10C,0.006000*%
%ADD11C,0.003900*%
%ADD12C,0.004500*%
%ADD13C,0.003500*%
%ADD14C,0.007900*%
%ADD15C,0.012000*%
%ADD16C,0.001000*%
%ADD17C,0.008000*%
%ADD18C,0.007000*%
%ADD19C,0.005000*%
%ADD20C,0.015000*%
G04 APERTURE END LIST*
G54D10*
G54D11*
X62360Y-40500D02*
X62360Y-38520D01*
X60380Y-40500D02*
X60380Y-38500D01*
X64620Y-40500D02*
X64620Y-38100D01*
X60380Y-38100D02*
X64620Y-38100D01*
X60380Y-38500D02*
X60380Y-38100D01*
X60380Y-38500D02*
X64620Y-38500D01*
X60380Y-39300D02*
X64620Y-39300D01*
X60380Y-38900D02*
X64620Y-38900D01*
X60380Y-39700D02*
X64620Y-39700D01*
X60380Y-40100D02*
X64620Y-40100D01*
X60380Y-40500D02*
X64620Y-40500D01*
G54D12*
X60606Y-40153D02*
X60606Y-40353D01*
X60598Y-40393D01*
X60581Y-40420D01*
X60555Y-40433D01*
X60538Y-40433D01*
X60692Y-40433D02*
X60692Y-40153D01*
X60760Y-40153D01*
X60778Y-40167D01*
X60786Y-40180D01*
X60795Y-40207D01*
X60795Y-40247D01*
X60786Y-40273D01*
X60778Y-40287D01*
X60760Y-40300D01*
X60692Y-40300D01*
X60863Y-40180D02*
X60872Y-40167D01*
X60889Y-40153D01*
X60932Y-40153D01*
X60949Y-40167D01*
X60958Y-40180D01*
X60966Y-40207D01*
X60966Y-40233D01*
X60958Y-40273D01*
X60855Y-40433D01*
X60966Y-40433D01*
X61257Y-40433D02*
X61257Y-40287D01*
X61248Y-40260D01*
X61231Y-40247D01*
X61197Y-40247D01*
X61180Y-40260D01*
X61257Y-40420D02*
X61240Y-40433D01*
X61197Y-40433D01*
X61180Y-40420D01*
X61171Y-40393D01*
X61171Y-40367D01*
X61180Y-40340D01*
X61197Y-40327D01*
X61240Y-40327D01*
X61257Y-40313D01*
X61343Y-40247D02*
X61343Y-40433D01*
X61343Y-40273D02*
X61351Y-40260D01*
X61369Y-40247D01*
X61394Y-40247D01*
X61411Y-40260D01*
X61420Y-40287D01*
X61420Y-40433D01*
X61583Y-40433D02*
X61583Y-40153D01*
X61583Y-40420D02*
X61566Y-40433D01*
X61532Y-40433D01*
X61514Y-40420D01*
X61506Y-40407D01*
X61497Y-40380D01*
X61497Y-40300D01*
X61506Y-40273D01*
X61514Y-40260D01*
X61532Y-40247D01*
X61566Y-40247D01*
X61583Y-40260D01*
X61857Y-40153D02*
X61857Y-40353D01*
X61849Y-40393D01*
X61832Y-40420D01*
X61806Y-40433D01*
X61789Y-40433D01*
X61943Y-40433D02*
X61943Y-40153D01*
X62011Y-40153D01*
X62029Y-40167D01*
X62037Y-40180D01*
X62046Y-40207D01*
X62046Y-40247D01*
X62037Y-40273D01*
X62029Y-40287D01*
X62011Y-40300D01*
X61943Y-40300D01*
X62106Y-40153D02*
X62217Y-40153D01*
X62157Y-40260D01*
X62183Y-40260D01*
X62200Y-40273D01*
X62209Y-40287D01*
X62217Y-40313D01*
X62217Y-40380D01*
X62209Y-40407D01*
X62200Y-40420D01*
X62183Y-40433D01*
X62131Y-40433D01*
X62114Y-40420D01*
X62106Y-40407D01*
X62431Y-40153D02*
X62431Y-40380D01*
X62439Y-40407D01*
X62448Y-40420D01*
X62465Y-40433D01*
X62499Y-40433D01*
X62517Y-40420D01*
X62525Y-40407D01*
X62534Y-40380D01*
X62534Y-40153D01*
X62611Y-40420D02*
X62637Y-40433D01*
X62680Y-40433D01*
X62697Y-40420D01*
X62706Y-40407D01*
X62714Y-40380D01*
X62714Y-40353D01*
X62706Y-40327D01*
X62697Y-40313D01*
X62680Y-40300D01*
X62646Y-40287D01*
X62628Y-40273D01*
X62620Y-40260D01*
X62611Y-40233D01*
X62611Y-40207D01*
X62620Y-40180D01*
X62628Y-40167D01*
X62646Y-40153D01*
X62688Y-40153D01*
X62714Y-40167D01*
X62851Y-40287D02*
X62877Y-40300D01*
X62885Y-40313D01*
X62894Y-40340D01*
X62894Y-40380D01*
X62885Y-40407D01*
X62877Y-40420D01*
X62859Y-40433D01*
X62791Y-40433D01*
X62791Y-40153D01*
X62851Y-40153D01*
X62868Y-40167D01*
X62877Y-40180D01*
X62885Y-40207D01*
X62885Y-40233D01*
X62877Y-40260D01*
X62868Y-40273D01*
X62851Y-40287D01*
X62791Y-40287D01*
X60595Y-39753D02*
X60595Y-39953D01*
X60587Y-39993D01*
X60570Y-40020D01*
X60544Y-40033D01*
X60527Y-40033D01*
X60681Y-40033D02*
X60681Y-39753D01*
X60749Y-39753D01*
X60767Y-39767D01*
X60775Y-39780D01*
X60784Y-39807D01*
X60784Y-39847D01*
X60775Y-39873D01*
X60767Y-39887D01*
X60749Y-39900D01*
X60681Y-39900D01*
X60955Y-40033D02*
X60852Y-40033D01*
X60904Y-40033D02*
X60904Y-39753D01*
X60887Y-39793D01*
X60869Y-39820D01*
X60852Y-39833D01*
X61246Y-40033D02*
X61246Y-39887D01*
X61237Y-39860D01*
X61220Y-39847D01*
X61186Y-39847D01*
X61169Y-39860D01*
X61246Y-40020D02*
X61229Y-40033D01*
X61186Y-40033D01*
X61169Y-40020D01*
X61160Y-39993D01*
X61160Y-39967D01*
X61169Y-39940D01*
X61186Y-39927D01*
X61229Y-39927D01*
X61246Y-39913D01*
X61332Y-39847D02*
X61332Y-40033D01*
X61332Y-39873D02*
X61340Y-39860D01*
X61358Y-39847D01*
X61383Y-39847D01*
X61400Y-39860D01*
X61409Y-39887D01*
X61409Y-40033D01*
X61572Y-40033D02*
X61572Y-39753D01*
X61572Y-40020D02*
X61555Y-40033D01*
X61521Y-40033D01*
X61503Y-40020D01*
X61495Y-40007D01*
X61486Y-39980D01*
X61486Y-39900D01*
X61495Y-39873D01*
X61503Y-39860D01*
X61521Y-39847D01*
X61555Y-39847D01*
X61572Y-39860D01*
X61846Y-39753D02*
X61846Y-39953D01*
X61838Y-39993D01*
X61821Y-40020D01*
X61795Y-40033D01*
X61778Y-40033D01*
X61932Y-40033D02*
X61932Y-39753D01*
X62000Y-39753D01*
X62018Y-39767D01*
X62026Y-39780D01*
X62035Y-39807D01*
X62035Y-39847D01*
X62026Y-39873D01*
X62018Y-39887D01*
X62000Y-39900D01*
X61932Y-39900D01*
X62103Y-39780D02*
X62112Y-39767D01*
X62129Y-39753D01*
X62172Y-39753D01*
X62189Y-39767D01*
X62198Y-39780D01*
X62206Y-39807D01*
X62206Y-39833D01*
X62198Y-39873D01*
X62095Y-40033D01*
X62206Y-40033D01*
X62411Y-40020D02*
X62437Y-40033D01*
X62480Y-40033D01*
X62497Y-40020D01*
X62506Y-40007D01*
X62514Y-39980D01*
X62514Y-39953D01*
X62506Y-39927D01*
X62497Y-39913D01*
X62480Y-39900D01*
X62446Y-39887D01*
X62428Y-39873D01*
X62420Y-39860D01*
X62411Y-39833D01*
X62411Y-39807D01*
X62420Y-39780D01*
X62428Y-39767D01*
X62446Y-39753D01*
X62488Y-39753D01*
X62514Y-39767D01*
X62591Y-40033D02*
X62591Y-39753D01*
X62634Y-39753D01*
X62659Y-39767D01*
X62677Y-39793D01*
X62685Y-39820D01*
X62694Y-39873D01*
X62694Y-39913D01*
X62685Y-39967D01*
X62677Y-39993D01*
X62659Y-40020D01*
X62634Y-40033D01*
X62591Y-40033D01*
X62899Y-39740D02*
X62745Y-40100D01*
X62960Y-40033D02*
X62960Y-39753D01*
X63020Y-39953D01*
X63080Y-39753D01*
X63080Y-40033D01*
X63166Y-40033D02*
X63166Y-39753D01*
X63226Y-39953D01*
X63286Y-39753D01*
X63286Y-40033D01*
X63475Y-40007D02*
X63466Y-40020D01*
X63440Y-40033D01*
X63423Y-40033D01*
X63398Y-40020D01*
X63380Y-39993D01*
X63372Y-39967D01*
X63363Y-39913D01*
X63363Y-39873D01*
X63372Y-39820D01*
X63380Y-39793D01*
X63398Y-39767D01*
X63423Y-39753D01*
X63440Y-39753D01*
X63466Y-39767D01*
X63475Y-39780D01*
X63680Y-40020D02*
X63706Y-40033D01*
X63749Y-40033D01*
X63766Y-40020D01*
X63775Y-40007D01*
X63783Y-39980D01*
X63783Y-39953D01*
X63775Y-39927D01*
X63766Y-39913D01*
X63749Y-39900D01*
X63715Y-39887D01*
X63697Y-39873D01*
X63689Y-39860D01*
X63680Y-39833D01*
X63680Y-39807D01*
X63689Y-39780D01*
X63697Y-39767D01*
X63715Y-39753D01*
X63757Y-39753D01*
X63783Y-39767D01*
X63851Y-40020D02*
X63877Y-40033D01*
X63920Y-40033D01*
X63937Y-40020D01*
X63946Y-40007D01*
X63954Y-39980D01*
X63954Y-39953D01*
X63946Y-39927D01*
X63937Y-39913D01*
X63920Y-39900D01*
X63886Y-39887D01*
X63868Y-39873D01*
X63860Y-39860D01*
X63851Y-39833D01*
X63851Y-39807D01*
X63860Y-39780D01*
X63868Y-39767D01*
X63886Y-39753D01*
X63928Y-39753D01*
X63954Y-39767D01*
X64031Y-40033D02*
X64031Y-39753D01*
X64099Y-39753D01*
X64117Y-39767D01*
X64125Y-39780D01*
X64134Y-39807D01*
X64134Y-39847D01*
X64125Y-39873D01*
X64117Y-39887D01*
X64099Y-39900D01*
X64031Y-39900D01*
X64305Y-40033D02*
X64202Y-40033D01*
X64254Y-40033D02*
X64254Y-39753D01*
X64237Y-39793D01*
X64219Y-39820D01*
X64202Y-39833D01*
X60623Y-39353D02*
X60623Y-39553D01*
X60615Y-39593D01*
X60598Y-39620D01*
X60572Y-39633D01*
X60555Y-39633D01*
X60709Y-39633D02*
X60709Y-39353D01*
X60777Y-39353D01*
X60795Y-39367D01*
X60803Y-39380D01*
X60812Y-39407D01*
X60812Y-39447D01*
X60803Y-39473D01*
X60795Y-39487D01*
X60777Y-39500D01*
X60709Y-39500D01*
X60872Y-39353D02*
X60983Y-39353D01*
X60923Y-39460D01*
X60949Y-39460D01*
X60966Y-39473D01*
X60975Y-39487D01*
X60983Y-39513D01*
X60983Y-39580D01*
X60975Y-39607D01*
X60966Y-39620D01*
X60949Y-39633D01*
X60897Y-39633D01*
X60880Y-39620D01*
X60872Y-39607D01*
X62421Y-39620D02*
X62447Y-39633D01*
X62490Y-39633D01*
X62507Y-39620D01*
X62516Y-39607D01*
X62524Y-39580D01*
X62524Y-39553D01*
X62516Y-39527D01*
X62507Y-39513D01*
X62490Y-39500D01*
X62456Y-39487D01*
X62438Y-39473D01*
X62430Y-39460D01*
X62421Y-39433D01*
X62421Y-39407D01*
X62430Y-39380D01*
X62438Y-39367D01*
X62456Y-39353D01*
X62498Y-39353D01*
X62524Y-39367D01*
X62601Y-39633D02*
X62601Y-39353D01*
X62669Y-39353D01*
X62687Y-39367D01*
X62695Y-39380D01*
X62704Y-39407D01*
X62704Y-39447D01*
X62695Y-39473D01*
X62687Y-39487D01*
X62669Y-39500D01*
X62601Y-39500D01*
X62781Y-39633D02*
X62781Y-39353D01*
X63064Y-39487D02*
X63004Y-39487D01*
X63004Y-39633D02*
X63004Y-39353D01*
X63090Y-39353D01*
X63184Y-39633D02*
X63166Y-39620D01*
X63158Y-39593D01*
X63158Y-39353D01*
X63329Y-39633D02*
X63329Y-39487D01*
X63320Y-39460D01*
X63303Y-39447D01*
X63269Y-39447D01*
X63252Y-39460D01*
X63329Y-39620D02*
X63312Y-39633D01*
X63269Y-39633D01*
X63252Y-39620D01*
X63243Y-39593D01*
X63243Y-39567D01*
X63252Y-39540D01*
X63269Y-39527D01*
X63312Y-39527D01*
X63329Y-39513D01*
X63406Y-39620D02*
X63423Y-39633D01*
X63458Y-39633D01*
X63475Y-39620D01*
X63483Y-39593D01*
X63483Y-39580D01*
X63475Y-39553D01*
X63458Y-39540D01*
X63432Y-39540D01*
X63415Y-39527D01*
X63406Y-39500D01*
X63406Y-39487D01*
X63415Y-39460D01*
X63432Y-39447D01*
X63458Y-39447D01*
X63475Y-39460D01*
X63561Y-39633D02*
X63561Y-39353D01*
X63638Y-39633D02*
X63638Y-39487D01*
X63629Y-39460D01*
X63612Y-39447D01*
X63587Y-39447D01*
X63569Y-39460D01*
X63561Y-39473D01*
X63852Y-39620D02*
X63878Y-39633D01*
X63921Y-39633D01*
X63938Y-39620D01*
X63947Y-39607D01*
X63955Y-39580D01*
X63955Y-39553D01*
X63947Y-39527D01*
X63938Y-39513D01*
X63921Y-39500D01*
X63887Y-39487D01*
X63869Y-39473D01*
X63861Y-39460D01*
X63852Y-39433D01*
X63852Y-39407D01*
X63861Y-39380D01*
X63869Y-39367D01*
X63887Y-39353D01*
X63929Y-39353D01*
X63955Y-39367D01*
X64023Y-39620D02*
X64049Y-39633D01*
X64092Y-39633D01*
X64109Y-39620D01*
X64118Y-39607D01*
X64126Y-39580D01*
X64126Y-39553D01*
X64118Y-39527D01*
X64109Y-39513D01*
X64092Y-39500D01*
X64058Y-39487D01*
X64040Y-39473D01*
X64032Y-39460D01*
X64023Y-39433D01*
X64023Y-39407D01*
X64032Y-39380D01*
X64040Y-39367D01*
X64058Y-39353D01*
X64100Y-39353D01*
X64126Y-39367D01*
X64203Y-39633D02*
X64203Y-39353D01*
X64271Y-39353D01*
X64289Y-39367D01*
X64297Y-39380D01*
X64306Y-39407D01*
X64306Y-39447D01*
X64297Y-39473D01*
X64289Y-39487D01*
X64271Y-39500D01*
X64203Y-39500D01*
X64477Y-39633D02*
X64374Y-39633D01*
X64426Y-39633D02*
X64426Y-39353D01*
X64409Y-39393D01*
X64391Y-39420D01*
X64374Y-39433D01*
X60640Y-38953D02*
X60640Y-39153D01*
X60632Y-39193D01*
X60615Y-39220D01*
X60589Y-39233D01*
X60572Y-39233D01*
X60726Y-39233D02*
X60726Y-38953D01*
X60794Y-38953D01*
X60812Y-38967D01*
X60820Y-38980D01*
X60829Y-39007D01*
X60829Y-39047D01*
X60820Y-39073D01*
X60812Y-39087D01*
X60794Y-39100D01*
X60726Y-39100D01*
X61000Y-39233D02*
X60897Y-39233D01*
X60949Y-39233D02*
X60949Y-38953D01*
X60932Y-38993D01*
X60914Y-39020D01*
X60897Y-39033D01*
X61291Y-39233D02*
X61291Y-39087D01*
X61282Y-39060D01*
X61265Y-39047D01*
X61231Y-39047D01*
X61214Y-39060D01*
X61291Y-39220D02*
X61274Y-39233D01*
X61231Y-39233D01*
X61214Y-39220D01*
X61205Y-39193D01*
X61205Y-39167D01*
X61214Y-39140D01*
X61231Y-39127D01*
X61274Y-39127D01*
X61291Y-39113D01*
X61377Y-39047D02*
X61377Y-39233D01*
X61377Y-39073D02*
X61385Y-39060D01*
X61403Y-39047D01*
X61428Y-39047D01*
X61445Y-39060D01*
X61454Y-39087D01*
X61454Y-39233D01*
X61617Y-39233D02*
X61617Y-38953D01*
X61617Y-39220D02*
X61600Y-39233D01*
X61566Y-39233D01*
X61548Y-39220D01*
X61540Y-39207D01*
X61531Y-39180D01*
X61531Y-39100D01*
X61540Y-39073D01*
X61548Y-39060D01*
X61566Y-39047D01*
X61600Y-39047D01*
X61617Y-39060D01*
X61891Y-38953D02*
X61891Y-39153D01*
X61883Y-39193D01*
X61866Y-39220D01*
X61840Y-39233D01*
X61823Y-39233D01*
X61977Y-39233D02*
X61977Y-38953D01*
X62045Y-38953D01*
X62063Y-38967D01*
X62071Y-38980D01*
X62080Y-39007D01*
X62080Y-39047D01*
X62071Y-39073D01*
X62063Y-39087D01*
X62045Y-39100D01*
X61977Y-39100D01*
X62140Y-38953D02*
X62251Y-38953D01*
X62191Y-39060D01*
X62217Y-39060D01*
X62234Y-39073D01*
X62243Y-39087D01*
X62251Y-39113D01*
X62251Y-39180D01*
X62243Y-39207D01*
X62234Y-39220D01*
X62217Y-39233D01*
X62165Y-39233D01*
X62148Y-39220D01*
X62140Y-39207D01*
X62456Y-39220D02*
X62482Y-39233D01*
X62525Y-39233D01*
X62542Y-39220D01*
X62551Y-39207D01*
X62559Y-39180D01*
X62559Y-39153D01*
X62551Y-39127D01*
X62542Y-39113D01*
X62525Y-39100D01*
X62491Y-39087D01*
X62473Y-39073D01*
X62465Y-39060D01*
X62456Y-39033D01*
X62456Y-39007D01*
X62465Y-38980D01*
X62473Y-38967D01*
X62491Y-38953D01*
X62533Y-38953D01*
X62559Y-38967D01*
X62636Y-39233D02*
X62636Y-38953D01*
X62704Y-38953D01*
X62722Y-38967D01*
X62730Y-38980D01*
X62739Y-39007D01*
X62739Y-39047D01*
X62730Y-39073D01*
X62722Y-39087D01*
X62704Y-39100D01*
X62636Y-39100D01*
X62816Y-39233D02*
X62816Y-38953D01*
X63013Y-39047D02*
X63082Y-39047D01*
X63039Y-39233D02*
X63039Y-38993D01*
X63047Y-38967D01*
X63065Y-38953D01*
X63082Y-38953D01*
X63168Y-39233D02*
X63150Y-39220D01*
X63142Y-39193D01*
X63142Y-38953D01*
X63313Y-39233D02*
X63313Y-39087D01*
X63304Y-39060D01*
X63287Y-39047D01*
X63253Y-39047D01*
X63236Y-39060D01*
X63313Y-39220D02*
X63296Y-39233D01*
X63253Y-39233D01*
X63236Y-39220D01*
X63227Y-39193D01*
X63227Y-39167D01*
X63236Y-39140D01*
X63253Y-39127D01*
X63296Y-39127D01*
X63313Y-39113D01*
X63390Y-39220D02*
X63407Y-39233D01*
X63442Y-39233D01*
X63459Y-39220D01*
X63467Y-39193D01*
X63467Y-39180D01*
X63459Y-39153D01*
X63442Y-39140D01*
X63416Y-39140D01*
X63399Y-39127D01*
X63390Y-39100D01*
X63390Y-39087D01*
X63399Y-39060D01*
X63416Y-39047D01*
X63442Y-39047D01*
X63459Y-39060D01*
X63545Y-39233D02*
X63545Y-38953D01*
X63622Y-39233D02*
X63622Y-39087D01*
X63613Y-39060D01*
X63596Y-39047D01*
X63571Y-39047D01*
X63553Y-39060D01*
X63545Y-39073D01*
X63836Y-39220D02*
X63862Y-39233D01*
X63905Y-39233D01*
X63922Y-39220D01*
X63931Y-39207D01*
X63939Y-39180D01*
X63939Y-39153D01*
X63931Y-39127D01*
X63922Y-39113D01*
X63905Y-39100D01*
X63871Y-39087D01*
X63853Y-39073D01*
X63845Y-39060D01*
X63836Y-39033D01*
X63836Y-39007D01*
X63845Y-38980D01*
X63853Y-38967D01*
X63871Y-38953D01*
X63913Y-38953D01*
X63939Y-38967D01*
X64007Y-39220D02*
X64033Y-39233D01*
X64076Y-39233D01*
X64093Y-39220D01*
X64102Y-39207D01*
X64110Y-39180D01*
X64110Y-39153D01*
X64102Y-39127D01*
X64093Y-39113D01*
X64076Y-39100D01*
X64042Y-39087D01*
X64024Y-39073D01*
X64016Y-39060D01*
X64007Y-39033D01*
X64007Y-39007D01*
X64016Y-38980D01*
X64024Y-38967D01*
X64042Y-38953D01*
X64084Y-38953D01*
X64110Y-38967D01*
X64187Y-39233D02*
X64187Y-38953D01*
X64255Y-38953D01*
X64273Y-38967D01*
X64281Y-38980D01*
X64290Y-39007D01*
X64290Y-39047D01*
X64281Y-39073D01*
X64273Y-39087D01*
X64255Y-39100D01*
X64187Y-39100D01*
X64358Y-38980D02*
X64367Y-38967D01*
X64384Y-38953D01*
X64427Y-38953D01*
X64444Y-38967D01*
X64453Y-38980D01*
X64461Y-39007D01*
X64461Y-39033D01*
X64453Y-39073D01*
X64350Y-39233D01*
X64461Y-39233D01*
X60510Y-38833D02*
X60510Y-38553D01*
X60553Y-38553D01*
X60578Y-38567D01*
X60596Y-38593D01*
X60604Y-38620D01*
X60613Y-38673D01*
X60613Y-38713D01*
X60604Y-38767D01*
X60596Y-38793D01*
X60578Y-38820D01*
X60553Y-38833D01*
X60510Y-38833D01*
X60690Y-38687D02*
X60750Y-38687D01*
X60776Y-38833D02*
X60690Y-38833D01*
X60690Y-38553D01*
X60776Y-38553D01*
X60913Y-38687D02*
X60853Y-38687D01*
X60853Y-38833D02*
X60853Y-38553D01*
X60939Y-38553D01*
X60998Y-38753D02*
X61084Y-38753D01*
X60981Y-38833D02*
X61041Y-38553D01*
X61101Y-38833D01*
X61161Y-38553D02*
X61161Y-38780D01*
X61169Y-38807D01*
X61178Y-38820D01*
X61195Y-38833D01*
X61229Y-38833D01*
X61247Y-38820D01*
X61255Y-38807D01*
X61264Y-38780D01*
X61264Y-38553D01*
X61436Y-38833D02*
X61350Y-38833D01*
X61350Y-38553D01*
X61470Y-38553D02*
X61573Y-38553D01*
X61522Y-38833D02*
X61522Y-38553D01*
X62446Y-38820D02*
X62472Y-38833D01*
X62515Y-38833D01*
X62532Y-38820D01*
X62541Y-38807D01*
X62549Y-38780D01*
X62549Y-38753D01*
X62541Y-38727D01*
X62532Y-38713D01*
X62515Y-38700D01*
X62481Y-38687D01*
X62463Y-38673D01*
X62455Y-38660D01*
X62446Y-38633D01*
X62446Y-38607D01*
X62455Y-38580D01*
X62463Y-38567D01*
X62481Y-38553D01*
X62523Y-38553D01*
X62549Y-38567D01*
X62626Y-38833D02*
X62626Y-38553D01*
X62669Y-38553D01*
X62694Y-38567D01*
X62712Y-38593D01*
X62720Y-38620D01*
X62729Y-38673D01*
X62729Y-38713D01*
X62720Y-38767D01*
X62712Y-38793D01*
X62694Y-38820D01*
X62669Y-38833D01*
X62626Y-38833D01*
X62934Y-38540D02*
X62780Y-38900D01*
X62995Y-38833D02*
X62995Y-38553D01*
X63055Y-38753D01*
X63115Y-38553D01*
X63115Y-38833D01*
X63201Y-38833D02*
X63201Y-38553D01*
X63261Y-38753D01*
X63321Y-38553D01*
X63321Y-38833D01*
X63510Y-38807D02*
X63501Y-38820D01*
X63475Y-38833D01*
X63458Y-38833D01*
X63433Y-38820D01*
X63415Y-38793D01*
X63407Y-38767D01*
X63398Y-38713D01*
X63398Y-38673D01*
X63407Y-38620D01*
X63415Y-38593D01*
X63433Y-38567D01*
X63458Y-38553D01*
X63475Y-38553D01*
X63501Y-38567D01*
X63510Y-38580D01*
X63715Y-38820D02*
X63741Y-38833D01*
X63784Y-38833D01*
X63801Y-38820D01*
X63810Y-38807D01*
X63818Y-38780D01*
X63818Y-38753D01*
X63810Y-38727D01*
X63801Y-38713D01*
X63784Y-38700D01*
X63750Y-38687D01*
X63732Y-38673D01*
X63724Y-38660D01*
X63715Y-38633D01*
X63715Y-38607D01*
X63724Y-38580D01*
X63732Y-38567D01*
X63750Y-38553D01*
X63792Y-38553D01*
X63818Y-38567D01*
X63886Y-38820D02*
X63912Y-38833D01*
X63955Y-38833D01*
X63972Y-38820D01*
X63981Y-38807D01*
X63989Y-38780D01*
X63989Y-38753D01*
X63981Y-38727D01*
X63972Y-38713D01*
X63955Y-38700D01*
X63921Y-38687D01*
X63903Y-38673D01*
X63895Y-38660D01*
X63886Y-38633D01*
X63886Y-38607D01*
X63895Y-38580D01*
X63903Y-38567D01*
X63921Y-38553D01*
X63963Y-38553D01*
X63989Y-38567D01*
X64066Y-38833D02*
X64066Y-38553D01*
X64134Y-38553D01*
X64152Y-38567D01*
X64160Y-38580D01*
X64169Y-38607D01*
X64169Y-38647D01*
X64160Y-38673D01*
X64152Y-38687D01*
X64134Y-38700D01*
X64066Y-38700D01*
X64237Y-38580D02*
X64246Y-38567D01*
X64263Y-38553D01*
X64306Y-38553D01*
X64323Y-38567D01*
X64332Y-38580D01*
X64340Y-38607D01*
X64340Y-38633D01*
X64332Y-38673D01*
X64229Y-38833D01*
X64340Y-38833D01*
X59735Y-45389D02*
X59872Y-45389D01*
X59803Y-45495D02*
X59803Y-45282D01*
X45790Y-47550D02*
X45927Y-47550D01*
X45858Y-47656D02*
X45858Y-47443D01*
X66062Y-35944D02*
X66199Y-35944D01*
X66130Y-36050D02*
X66130Y-35837D01*
X66007Y-33066D02*
X66144Y-33066D01*
X66075Y-33172D02*
X66075Y-32959D01*
X49683Y-51054D02*
X49623Y-51054D01*
X49623Y-51200D02*
X49623Y-50920D01*
X49709Y-50920D01*
X49777Y-51200D02*
X49777Y-50920D01*
X49966Y-51200D02*
X49906Y-51067D01*
X49863Y-51200D02*
X49863Y-50920D01*
X49931Y-50920D01*
X49949Y-50934D01*
X49957Y-50947D01*
X49966Y-50974D01*
X49966Y-51014D01*
X49957Y-51040D01*
X49949Y-51054D01*
X49931Y-51067D01*
X49863Y-51067D01*
X50043Y-51200D02*
X50043Y-50920D01*
X50103Y-51120D01*
X50163Y-50920D01*
X50163Y-51200D01*
X50249Y-51094D02*
X50386Y-51094D01*
X50575Y-51200D02*
X50515Y-51067D01*
X50472Y-51200D02*
X50472Y-50920D01*
X50540Y-50920D01*
X50558Y-50934D01*
X50566Y-50947D01*
X50575Y-50974D01*
X50575Y-51014D01*
X50566Y-51040D01*
X50558Y-51054D01*
X50540Y-51067D01*
X50472Y-51067D01*
X50652Y-51054D02*
X50712Y-51054D01*
X50738Y-51200D02*
X50652Y-51200D01*
X50652Y-50920D01*
X50738Y-50920D01*
X50918Y-51174D02*
X50909Y-51187D01*
X50883Y-51200D01*
X50866Y-51200D01*
X50841Y-51187D01*
X50823Y-51160D01*
X50815Y-51134D01*
X50806Y-51080D01*
X50806Y-51040D01*
X50815Y-50987D01*
X50823Y-50960D01*
X50841Y-50934D01*
X50866Y-50920D01*
X50883Y-50920D01*
X50909Y-50934D01*
X50918Y-50947D01*
X51029Y-50920D02*
X51063Y-50920D01*
X51081Y-50934D01*
X51098Y-50960D01*
X51106Y-51014D01*
X51106Y-51107D01*
X51098Y-51160D01*
X51081Y-51187D01*
X51063Y-51200D01*
X51029Y-51200D01*
X51012Y-51187D01*
X50995Y-51160D01*
X50986Y-51107D01*
X50986Y-51014D01*
X50995Y-50960D01*
X51012Y-50934D01*
X51029Y-50920D01*
X51158Y-50920D02*
X51218Y-51200D01*
X51278Y-50920D01*
X53479Y-51152D02*
X53479Y-50872D01*
X53547Y-50872D01*
X53565Y-50886D01*
X53573Y-50899D01*
X53582Y-50926D01*
X53582Y-50966D01*
X53573Y-50992D01*
X53565Y-51006D01*
X53547Y-51019D01*
X53479Y-51019D01*
X53693Y-50872D02*
X53727Y-50872D01*
X53745Y-50886D01*
X53762Y-50912D01*
X53770Y-50966D01*
X53770Y-51059D01*
X53762Y-51112D01*
X53745Y-51139D01*
X53727Y-51152D01*
X53693Y-51152D01*
X53676Y-51139D01*
X53659Y-51112D01*
X53650Y-51059D01*
X53650Y-50966D01*
X53659Y-50912D01*
X53676Y-50886D01*
X53693Y-50872D01*
X53831Y-50872D02*
X53874Y-51152D01*
X53908Y-50952D01*
X53942Y-51152D01*
X53985Y-50872D01*
X54054Y-51046D02*
X54191Y-51046D01*
X54311Y-50872D02*
X54345Y-50872D01*
X54363Y-50886D01*
X54380Y-50912D01*
X54388Y-50966D01*
X54388Y-51059D01*
X54380Y-51112D01*
X54363Y-51139D01*
X54345Y-51152D01*
X54311Y-51152D01*
X54294Y-51139D01*
X54277Y-51112D01*
X54268Y-51059D01*
X54268Y-50966D01*
X54277Y-50912D01*
X54294Y-50886D01*
X54311Y-50872D01*
X54466Y-51152D02*
X54466Y-50872D01*
X54569Y-51152D01*
X54569Y-50872D01*
X58007Y-51109D02*
X57947Y-50976D01*
X57904Y-51109D02*
X57904Y-50829D01*
X57972Y-50829D01*
X57990Y-50843D01*
X57998Y-50856D01*
X58007Y-50883D01*
X58007Y-50923D01*
X57998Y-50949D01*
X57990Y-50963D01*
X57972Y-50976D01*
X57904Y-50976D01*
X58084Y-50963D02*
X58144Y-50963D01*
X58170Y-51109D02*
X58084Y-51109D01*
X58084Y-50829D01*
X58170Y-50829D01*
X58238Y-51096D02*
X58264Y-51109D01*
X58307Y-51109D01*
X58324Y-51096D01*
X58333Y-51083D01*
X58341Y-51056D01*
X58341Y-51029D01*
X58333Y-51003D01*
X58324Y-50989D01*
X58307Y-50976D01*
X58273Y-50963D01*
X58255Y-50949D01*
X58247Y-50936D01*
X58238Y-50909D01*
X58238Y-50883D01*
X58247Y-50856D01*
X58255Y-50843D01*
X58273Y-50829D01*
X58315Y-50829D01*
X58341Y-50843D01*
X58418Y-50963D02*
X58478Y-50963D01*
X58504Y-51109D02*
X58418Y-51109D01*
X58418Y-50829D01*
X58504Y-50829D01*
X58555Y-50829D02*
X58658Y-50829D01*
X58607Y-51109D02*
X58607Y-50829D01*
X64685Y-48585D02*
X64685Y-48305D01*
X64728Y-48305D01*
X64753Y-48319D01*
X64771Y-48345D01*
X64779Y-48372D01*
X64788Y-48425D01*
X64788Y-48465D01*
X64779Y-48519D01*
X64771Y-48545D01*
X64753Y-48572D01*
X64728Y-48585D01*
X64685Y-48585D01*
X64865Y-48479D02*
X65002Y-48479D01*
X64933Y-48585D02*
X64933Y-48372D01*
X64092Y-48563D02*
X64092Y-48283D01*
X64135Y-48283D01*
X64160Y-48297D01*
X64178Y-48323D01*
X64186Y-48350D01*
X64195Y-48403D01*
X64195Y-48443D01*
X64186Y-48497D01*
X64178Y-48523D01*
X64160Y-48550D01*
X64135Y-48563D01*
X64092Y-48563D01*
X64272Y-48457D02*
X64409Y-48457D01*
X67012Y-48797D02*
X66991Y-48783D01*
X66961Y-48783D01*
X66930Y-48797D01*
X66909Y-48823D01*
X66899Y-48850D01*
X66889Y-48903D01*
X66889Y-48943D01*
X66899Y-48997D01*
X66909Y-49023D01*
X66930Y-49050D01*
X66961Y-49063D01*
X66981Y-49063D01*
X67012Y-49050D01*
X67022Y-49037D01*
X67022Y-48943D01*
X66981Y-48943D01*
X67114Y-49063D02*
X67114Y-48783D01*
X67237Y-49063D01*
X67237Y-48783D01*
X67339Y-49063D02*
X67339Y-48783D01*
X67390Y-48783D01*
X67421Y-48797D01*
X67442Y-48823D01*
X67452Y-48850D01*
X67462Y-48903D01*
X67462Y-48943D01*
X67452Y-48997D01*
X67442Y-49023D01*
X67421Y-49050D01*
X67390Y-49063D01*
X67339Y-49063D01*
X62135Y-48808D02*
X62195Y-49088D01*
X62255Y-48808D01*
X62315Y-49088D02*
X62315Y-48808D01*
X62358Y-48808D01*
X62383Y-48822D01*
X62401Y-48848D01*
X62409Y-48875D01*
X62418Y-48928D01*
X62418Y-48968D01*
X62409Y-49022D01*
X62401Y-49048D01*
X62383Y-49075D01*
X62358Y-49088D01*
X62315Y-49088D01*
X62495Y-49088D02*
X62495Y-48808D01*
X62538Y-48808D01*
X62563Y-48822D01*
X62581Y-48848D01*
X62589Y-48875D01*
X62598Y-48928D01*
X62598Y-48968D01*
X62589Y-49022D01*
X62581Y-49048D01*
X62563Y-49075D01*
X62538Y-49088D01*
X62495Y-49088D01*
X67343Y-47738D02*
X67352Y-47725D01*
X67369Y-47711D01*
X67412Y-47711D01*
X67429Y-47725D01*
X67438Y-47738D01*
X67446Y-47765D01*
X67446Y-47791D01*
X67438Y-47831D01*
X67335Y-47991D01*
X67446Y-47991D01*
X67600Y-47805D02*
X67600Y-47991D01*
X67557Y-47698D02*
X67514Y-47898D01*
X67626Y-47898D01*
X64663Y-47660D02*
X64672Y-47647D01*
X64689Y-47633D01*
X64732Y-47633D01*
X64749Y-47647D01*
X64758Y-47660D01*
X64766Y-47687D01*
X64766Y-47713D01*
X64758Y-47753D01*
X64655Y-47913D01*
X64766Y-47913D01*
X64826Y-47633D02*
X64937Y-47633D01*
X64877Y-47740D01*
X64903Y-47740D01*
X64920Y-47753D01*
X64929Y-47767D01*
X64937Y-47793D01*
X64937Y-47860D01*
X64929Y-47887D01*
X64920Y-47900D01*
X64903Y-47913D01*
X64851Y-47913D01*
X64834Y-47900D01*
X64826Y-47887D01*
X67453Y-36577D02*
X67462Y-36564D01*
X67479Y-36550D01*
X67522Y-36550D01*
X67539Y-36564D01*
X67548Y-36577D01*
X67556Y-36604D01*
X67556Y-36630D01*
X67548Y-36670D01*
X67445Y-36830D01*
X67556Y-36830D01*
X65631Y-36117D02*
X65528Y-36117D01*
X65580Y-36117D02*
X65580Y-35837D01*
X65563Y-35877D01*
X65545Y-35904D01*
X65528Y-35917D01*
X47269Y-45365D02*
X47166Y-45365D01*
X47218Y-45365D02*
X47218Y-45085D01*
X47201Y-45125D01*
X47183Y-45152D01*
X47166Y-45165D01*
X47423Y-45085D02*
X47389Y-45085D01*
X47372Y-45099D01*
X47363Y-45112D01*
X47346Y-45152D01*
X47337Y-45205D01*
X47337Y-45312D01*
X47346Y-45339D01*
X47354Y-45352D01*
X47372Y-45365D01*
X47406Y-45365D01*
X47423Y-45352D01*
X47432Y-45339D01*
X47440Y-45312D01*
X47440Y-45245D01*
X47432Y-45219D01*
X47423Y-45205D01*
X47406Y-45192D01*
X47372Y-45192D01*
X47354Y-45205D01*
X47346Y-45219D01*
X47337Y-45245D01*
X46580Y-45353D02*
X46477Y-45353D01*
X46529Y-45353D02*
X46529Y-45073D01*
X46512Y-45113D01*
X46494Y-45140D01*
X46477Y-45153D01*
X46743Y-45073D02*
X46657Y-45073D01*
X46648Y-45207D01*
X46657Y-45193D01*
X46674Y-45180D01*
X46717Y-45180D01*
X46734Y-45193D01*
X46743Y-45207D01*
X46751Y-45233D01*
X46751Y-45300D01*
X46743Y-45327D01*
X46734Y-45340D01*
X46717Y-45353D01*
X46674Y-45353D01*
X46657Y-45340D01*
X46648Y-45327D01*
G54D13*
X47599Y-36661D02*
X47613Y-36647D01*
X47642Y-36632D01*
X47713Y-36632D01*
X47742Y-36647D01*
X47756Y-36661D01*
X47771Y-36690D01*
X47771Y-36718D01*
X47756Y-36761D01*
X47585Y-36932D01*
X47771Y-36932D01*
X46940Y-36932D02*
X46768Y-36932D01*
X46854Y-36932D02*
X46854Y-36632D01*
X46825Y-36675D01*
X46797Y-36704D01*
X46768Y-36718D01*
G54D12*
X60560Y-38287D02*
X60586Y-38300D01*
X60594Y-38313D01*
X60603Y-38340D01*
X60603Y-38380D01*
X60594Y-38407D01*
X60586Y-38420D01*
X60568Y-38433D01*
X60500Y-38433D01*
X60500Y-38153D01*
X60560Y-38153D01*
X60577Y-38167D01*
X60586Y-38180D01*
X60594Y-38207D01*
X60594Y-38233D01*
X60586Y-38260D01*
X60577Y-38273D01*
X60560Y-38287D01*
X60500Y-38287D01*
X60714Y-38153D02*
X60748Y-38153D01*
X60766Y-38167D01*
X60783Y-38193D01*
X60791Y-38247D01*
X60791Y-38340D01*
X60783Y-38393D01*
X60766Y-38420D01*
X60748Y-38433D01*
X60714Y-38433D01*
X60697Y-38420D01*
X60680Y-38393D01*
X60671Y-38340D01*
X60671Y-38247D01*
X60680Y-38193D01*
X60697Y-38167D01*
X60714Y-38153D01*
X60903Y-38153D02*
X60937Y-38153D01*
X60955Y-38167D01*
X60972Y-38193D01*
X60980Y-38247D01*
X60980Y-38340D01*
X60972Y-38393D01*
X60955Y-38420D01*
X60937Y-38433D01*
X60903Y-38433D01*
X60886Y-38420D01*
X60869Y-38393D01*
X60860Y-38340D01*
X60860Y-38247D01*
X60869Y-38193D01*
X60886Y-38167D01*
X60903Y-38153D01*
X61032Y-38153D02*
X61135Y-38153D01*
X61084Y-38433D02*
X61084Y-38153D01*
X61332Y-38433D02*
X61332Y-38153D01*
X61392Y-38353D01*
X61452Y-38153D01*
X61452Y-38433D01*
X61572Y-38153D02*
X61606Y-38153D01*
X61624Y-38167D01*
X61641Y-38193D01*
X61649Y-38247D01*
X61649Y-38340D01*
X61641Y-38393D01*
X61624Y-38420D01*
X61606Y-38433D01*
X61572Y-38433D01*
X61555Y-38420D01*
X61538Y-38393D01*
X61529Y-38340D01*
X61529Y-38247D01*
X61538Y-38193D01*
X61555Y-38167D01*
X61572Y-38153D01*
X61727Y-38433D02*
X61727Y-38153D01*
X61770Y-38153D01*
X61795Y-38167D01*
X61813Y-38193D01*
X61821Y-38220D01*
X61830Y-38273D01*
X61830Y-38313D01*
X61821Y-38367D01*
X61813Y-38393D01*
X61795Y-38420D01*
X61770Y-38433D01*
X61727Y-38433D01*
X61907Y-38287D02*
X61967Y-38287D01*
X61993Y-38433D02*
X61907Y-38433D01*
X61907Y-38153D01*
X61993Y-38153D01*
X62061Y-38420D02*
X62087Y-38433D01*
X62130Y-38433D01*
X62147Y-38420D01*
X62156Y-38407D01*
X62164Y-38380D01*
X62164Y-38353D01*
X62156Y-38327D01*
X62147Y-38313D01*
X62130Y-38300D01*
X62096Y-38287D01*
X62078Y-38273D01*
X62070Y-38260D01*
X62061Y-38233D01*
X62061Y-38207D01*
X62070Y-38180D01*
X62078Y-38167D01*
X62096Y-38153D01*
X62138Y-38153D01*
X62164Y-38167D01*
X62241Y-38407D02*
X62249Y-38420D01*
X62241Y-38433D01*
X62232Y-38420D01*
X62241Y-38407D01*
X62241Y-38433D01*
X62241Y-38260D02*
X62249Y-38273D01*
X62241Y-38287D01*
X62232Y-38273D01*
X62241Y-38260D01*
X62241Y-38287D01*
X48517Y-48406D02*
X48500Y-48392D01*
X48474Y-48392D01*
X48449Y-48406D01*
X48431Y-48432D01*
X48423Y-48459D01*
X48414Y-48512D01*
X48414Y-48552D01*
X48423Y-48606D01*
X48431Y-48632D01*
X48449Y-48659D01*
X48474Y-48672D01*
X48491Y-48672D01*
X48517Y-48659D01*
X48526Y-48646D01*
X48526Y-48552D01*
X48491Y-48552D01*
X48603Y-48672D02*
X48603Y-48392D01*
X48706Y-48672D01*
X48706Y-48392D01*
X48792Y-48672D02*
X48792Y-48392D01*
X48835Y-48392D01*
X48860Y-48406D01*
X48878Y-48432D01*
X48886Y-48459D01*
X48895Y-48512D01*
X48895Y-48552D01*
X48886Y-48606D01*
X48878Y-48632D01*
X48860Y-48659D01*
X48835Y-48672D01*
X48792Y-48672D01*
X47719Y-48403D02*
X47999Y-48343D01*
X47719Y-48283D01*
X47999Y-48223D02*
X47719Y-48223D01*
X47719Y-48180D01*
X47733Y-48155D01*
X47759Y-48137D01*
X47786Y-48129D01*
X47839Y-48120D01*
X47879Y-48120D01*
X47933Y-48129D01*
X47959Y-48137D01*
X47986Y-48155D01*
X47999Y-48180D01*
X47999Y-48223D01*
X47999Y-48043D02*
X47719Y-48043D01*
X47719Y-48000D01*
X47733Y-47975D01*
X47759Y-47957D01*
X47786Y-47949D01*
X47839Y-47940D01*
X47879Y-47940D01*
X47933Y-47949D01*
X47959Y-47957D01*
X47986Y-47975D01*
X47999Y-48000D01*
X47999Y-48043D01*
X48026Y-47906D02*
X48026Y-47769D01*
X47853Y-47666D02*
X47866Y-47640D01*
X47879Y-47632D01*
X47906Y-47623D01*
X47946Y-47623D01*
X47973Y-47632D01*
X47986Y-47640D01*
X47999Y-47658D01*
X47999Y-47726D01*
X47719Y-47726D01*
X47719Y-47666D01*
X47733Y-47649D01*
X47746Y-47640D01*
X47773Y-47632D01*
X47799Y-47632D01*
X47826Y-47640D01*
X47839Y-47649D01*
X47853Y-47666D01*
X47853Y-47726D01*
X47919Y-47555D02*
X47919Y-47469D01*
X47999Y-47572D02*
X47719Y-47512D01*
X47999Y-47452D01*
X47719Y-47418D02*
X47719Y-47315D01*
X47999Y-47366D02*
X47719Y-47366D01*
X47719Y-47281D02*
X47719Y-47178D01*
X47999Y-47229D02*
X47719Y-47229D01*
X51328Y-33016D02*
X51311Y-33002D01*
X51285Y-33002D01*
X51260Y-33016D01*
X51242Y-33042D01*
X51234Y-33069D01*
X51225Y-33122D01*
X51225Y-33162D01*
X51234Y-33216D01*
X51242Y-33242D01*
X51260Y-33269D01*
X51285Y-33282D01*
X51302Y-33282D01*
X51328Y-33269D01*
X51337Y-33256D01*
X51337Y-33162D01*
X51302Y-33162D01*
X51414Y-33282D02*
X51414Y-33002D01*
X51517Y-33282D01*
X51517Y-33002D01*
X51603Y-33282D02*
X51603Y-33002D01*
X51646Y-33002D01*
X51671Y-33016D01*
X51689Y-33042D01*
X51697Y-33069D01*
X51706Y-33122D01*
X51706Y-33162D01*
X51697Y-33216D01*
X51689Y-33242D01*
X51671Y-33269D01*
X51646Y-33282D01*
X51603Y-33282D01*
X49803Y-32975D02*
X49863Y-33255D01*
X49923Y-32975D01*
X49983Y-33255D02*
X49983Y-32975D01*
X50026Y-32975D01*
X50051Y-32989D01*
X50069Y-33015D01*
X50077Y-33042D01*
X50086Y-33095D01*
X50086Y-33135D01*
X50077Y-33189D01*
X50069Y-33215D01*
X50051Y-33242D01*
X50026Y-33255D01*
X49983Y-33255D01*
X50163Y-33255D02*
X50163Y-32975D01*
X50206Y-32975D01*
X50231Y-32989D01*
X50249Y-33015D01*
X50257Y-33042D01*
X50266Y-33095D01*
X50266Y-33135D01*
X50257Y-33189D01*
X50249Y-33215D01*
X50231Y-33242D01*
X50206Y-33255D01*
X50163Y-33255D01*
X50429Y-32975D02*
X50343Y-32975D01*
X50334Y-33109D01*
X50343Y-33095D01*
X50360Y-33082D01*
X50403Y-33082D01*
X50420Y-33095D01*
X50429Y-33109D01*
X50437Y-33135D01*
X50437Y-33202D01*
X50429Y-33229D01*
X50420Y-33242D01*
X50403Y-33255D01*
X50360Y-33255D01*
X50343Y-33242D01*
X50334Y-33229D01*
X50488Y-32975D02*
X50548Y-33255D01*
X50608Y-32975D01*
X66139Y-50821D02*
X66242Y-50821D01*
X66191Y-51101D02*
X66191Y-50821D01*
X66285Y-50821D02*
X66405Y-51101D01*
X66405Y-50821D02*
X66285Y-51101D01*
X65219Y-51074D02*
X65159Y-50941D01*
X65116Y-51074D02*
X65116Y-50794D01*
X65184Y-50794D01*
X65202Y-50808D01*
X65210Y-50821D01*
X65219Y-50848D01*
X65219Y-50888D01*
X65210Y-50914D01*
X65202Y-50928D01*
X65184Y-50941D01*
X65116Y-50941D01*
X65279Y-50794D02*
X65399Y-51074D01*
X65399Y-50794D02*
X65279Y-51074D01*
X64046Y-50802D02*
X64157Y-50802D01*
X64097Y-50909D01*
X64123Y-50909D01*
X64140Y-50922D01*
X64149Y-50936D01*
X64157Y-50962D01*
X64157Y-51029D01*
X64149Y-51056D01*
X64140Y-51069D01*
X64123Y-51082D01*
X64071Y-51082D01*
X64054Y-51069D01*
X64046Y-51056D01*
X64208Y-50802D02*
X64268Y-51082D01*
X64328Y-50802D01*
X64371Y-50802D02*
X64482Y-50802D01*
X64422Y-50909D01*
X64448Y-50909D01*
X64465Y-50922D01*
X64474Y-50936D01*
X64482Y-50962D01*
X64482Y-51029D01*
X64474Y-51056D01*
X64465Y-51069D01*
X64448Y-51082D01*
X64396Y-51082D01*
X64379Y-51069D01*
X64371Y-51056D01*
X63115Y-50800D02*
X63098Y-50786D01*
X63072Y-50786D01*
X63047Y-50800D01*
X63029Y-50826D01*
X63021Y-50853D01*
X63012Y-50906D01*
X63012Y-50946D01*
X63021Y-51000D01*
X63029Y-51026D01*
X63047Y-51053D01*
X63072Y-51066D01*
X63089Y-51066D01*
X63115Y-51053D01*
X63124Y-51040D01*
X63124Y-50946D01*
X63089Y-50946D01*
X63201Y-51066D02*
X63201Y-50786D01*
X63304Y-51066D01*
X63304Y-50786D01*
X63390Y-51066D02*
X63390Y-50786D01*
X63433Y-50786D01*
X63458Y-50800D01*
X63476Y-50826D01*
X63484Y-50853D01*
X63493Y-50906D01*
X63493Y-50946D01*
X63484Y-51000D01*
X63476Y-51026D01*
X63458Y-51053D01*
X63433Y-51066D01*
X63390Y-51066D01*
G54D14*
X56541Y-47052D02*
X55742Y-47052D01*
X55734Y-47037D02*
X55734Y-46891D01*
X56541Y-46887D02*
X56541Y-47033D01*
X55746Y-46879D02*
X56529Y-46879D01*
X45505Y-32307D02*
X49505Y-32307D01*
X49505Y-32307D02*
X49505Y-36207D01*
X49505Y-36207D02*
X45605Y-36207D01*
X45605Y-36207D02*
X45505Y-36207D01*
X45505Y-36207D02*
X45505Y-32307D01*
X46091Y-47228D02*
X47177Y-47232D01*
X47177Y-47232D02*
X47181Y-47740D01*
X47181Y-47740D02*
X46083Y-47744D01*
X46083Y-47744D02*
X46087Y-47232D01*
X65917Y-35283D02*
X67019Y-35279D01*
X67019Y-35279D02*
X67019Y-35799D01*
X67019Y-35799D02*
X65925Y-35795D01*
X65925Y-35795D02*
X65925Y-35272D01*
G54D15*
X46393Y-37153D02*
X48193Y-37153D01*
X48193Y-37153D02*
X48193Y-44953D01*
X48193Y-44953D02*
X46393Y-44953D01*
X46393Y-44953D02*
X46393Y-37153D01*
G54D16*
X53739Y-50758D02*
X53739Y-48658D01*
X53739Y-48658D02*
X57649Y-48658D01*
X57649Y-48658D02*
X57649Y-50758D01*
X57649Y-50758D02*
X53739Y-50758D01*
G54D17*
X57688Y-43376D02*
X57685Y-43402D01*
X57677Y-43428D01*
X57664Y-43452D01*
X57647Y-43473D01*
X57627Y-43490D01*
X57603Y-43503D01*
X57577Y-43511D01*
X57550Y-43513D01*
X57525Y-43511D01*
X57499Y-43503D01*
X57475Y-43491D01*
X57454Y-43474D01*
X57437Y-43453D01*
X57424Y-43430D01*
X57416Y-43404D01*
X57413Y-43377D01*
X57415Y-43352D01*
X57422Y-43326D01*
X57435Y-43302D01*
X57451Y-43281D01*
X57472Y-43263D01*
X57495Y-43250D01*
X57521Y-43242D01*
X57548Y-43239D01*
X57573Y-43241D01*
X57599Y-43248D01*
X57623Y-43260D01*
X57645Y-43277D01*
X57662Y-43297D01*
X57676Y-43320D01*
X57684Y-43346D01*
X57687Y-43373D01*
X57688Y-43376D01*
X52038Y-43376D02*
X57156Y-43376D01*
X57156Y-43376D02*
X57550Y-42982D01*
X57550Y-42982D02*
X57550Y-37864D01*
X57550Y-37864D02*
X52038Y-37864D01*
X52038Y-37864D02*
X52038Y-43376D01*
G54D18*
X64770Y-36761D02*
X64770Y-31901D01*
X64770Y-31901D02*
X64720Y-31851D01*
X64720Y-31851D02*
X57980Y-31851D01*
X57980Y-31851D02*
X57980Y-37561D01*
X57980Y-37561D02*
X58990Y-37561D01*
X58990Y-37561D02*
X58990Y-37791D01*
X58990Y-37791D02*
X64220Y-37791D01*
X64220Y-37791D02*
X64220Y-37581D01*
X64220Y-37581D02*
X64780Y-37581D01*
X64780Y-37581D02*
X64780Y-36731D01*
G54D19*
X66003Y-33974D02*
X66903Y-33974D01*
X66903Y-33974D02*
X66903Y-34474D01*
X66903Y-34474D02*
X66003Y-34474D01*
X66003Y-34474D02*
X66003Y-33974D01*
X66911Y-35148D02*
X66011Y-35148D01*
X66011Y-35148D02*
X66011Y-34648D01*
X66011Y-34648D02*
X66911Y-34648D01*
X66911Y-34648D02*
X66911Y-35148D01*
X46156Y-46553D02*
X47056Y-46553D01*
X47056Y-46553D02*
X47056Y-47053D01*
X47056Y-47053D02*
X46156Y-47053D01*
X46156Y-47053D02*
X46156Y-46553D01*
X58502Y-46237D02*
X58502Y-45337D01*
X58502Y-45337D02*
X59002Y-45337D01*
X59002Y-45337D02*
X59002Y-46237D01*
X59002Y-46237D02*
X58502Y-46237D01*
X49690Y-44352D02*
X48790Y-44352D01*
X48790Y-44352D02*
X48790Y-43852D01*
X48790Y-43852D02*
X49690Y-43852D01*
X49690Y-43852D02*
X49690Y-44352D01*
G54D20*
X67151Y-36297D02*
X65151Y-36297D01*
X65151Y-36297D02*
X65151Y-48297D01*
X65151Y-48297D02*
X67151Y-48297D01*
X67151Y-48297D02*
X67151Y-36297D01*
G54D19*
X62993Y-41203D02*
X62093Y-41203D01*
X62093Y-41203D02*
X62093Y-40703D01*
X62093Y-40703D02*
X62993Y-40703D01*
X62993Y-40703D02*
X62993Y-41203D01*
G54D16*
X57959Y-50758D02*
X57959Y-48658D01*
X57959Y-48658D02*
X61869Y-48658D01*
X61869Y-48658D02*
X61869Y-50758D01*
X61869Y-50758D02*
X57959Y-50758D01*
X49424Y-50758D02*
X49424Y-48658D01*
X49424Y-48658D02*
X53334Y-48658D01*
X53334Y-48658D02*
X53334Y-50758D01*
X53334Y-50758D02*
X49424Y-50758D01*
G54D19*
X49494Y-46145D02*
X49494Y-47045D01*
X49494Y-47045D02*
X50144Y-47045D01*
X50844Y-46145D02*
X51494Y-46145D01*
X51494Y-46145D02*
X51494Y-47045D01*
X51494Y-47045D02*
X50844Y-47045D01*
X50144Y-46145D02*
X49494Y-46145D01*
X51794Y-46645D02*
X51794Y-47545D01*
X51794Y-47545D02*
X52444Y-47545D01*
X53144Y-46645D02*
X53794Y-46645D01*
X53794Y-46645D02*
X53794Y-47545D01*
X53794Y-47545D02*
X53144Y-47545D01*
X52444Y-46645D02*
X51794Y-46645D01*
X49619Y-45995D02*
X49619Y-45095D01*
X49619Y-45095D02*
X48969Y-45095D01*
X48269Y-45995D02*
X47619Y-45995D01*
X47619Y-45995D02*
X47619Y-45095D01*
X47619Y-45095D02*
X48269Y-45095D01*
X48969Y-45995D02*
X49619Y-45995D01*
X59259Y-42998D02*
X58359Y-42998D01*
X58359Y-42998D02*
X58359Y-43648D01*
X59259Y-44348D02*
X59259Y-44998D01*
X59259Y-44998D02*
X58359Y-44998D01*
X58359Y-44998D02*
X58359Y-44348D01*
X59259Y-43648D02*
X59259Y-42998D01*
X56569Y-45070D02*
X56569Y-45970D01*
X56569Y-45970D02*
X56069Y-45970D01*
X56069Y-45970D02*
X56069Y-45070D01*
X56069Y-45070D02*
X56569Y-45070D01*
X54644Y-45070D02*
X54644Y-45970D01*
X54644Y-45970D02*
X54144Y-45970D01*
X54144Y-45970D02*
X54144Y-45070D01*
X54144Y-45070D02*
X54644Y-45070D01*
X53394Y-45070D02*
X53394Y-45970D01*
X53394Y-45970D02*
X52894Y-45970D01*
X52894Y-45970D02*
X52894Y-45070D01*
X52894Y-45070D02*
X53394Y-45070D01*
X52469Y-46045D02*
X53369Y-46045D01*
X53369Y-46045D02*
X53369Y-46545D01*
X53369Y-46545D02*
X52469Y-46545D01*
X52469Y-46545D02*
X52469Y-46045D01*
X52769Y-45045D02*
X52769Y-45945D01*
X52769Y-45945D02*
X52269Y-45945D01*
X52269Y-45945D02*
X52269Y-45045D01*
X52269Y-45045D02*
X52769Y-45045D01*
X50219Y-45095D02*
X50219Y-45995D01*
X50219Y-45995D02*
X49719Y-45995D01*
X49719Y-45995D02*
X49719Y-45095D01*
X49719Y-45095D02*
X50219Y-45095D01*
X51494Y-45095D02*
X51494Y-45995D01*
X51494Y-45995D02*
X50994Y-45995D01*
X50994Y-45995D02*
X50994Y-45095D01*
X50994Y-45095D02*
X51494Y-45095D01*
X54019Y-45070D02*
X54019Y-45970D01*
X54019Y-45970D02*
X53519Y-45970D01*
X53519Y-45970D02*
X53519Y-45070D01*
X53519Y-45070D02*
X54019Y-45070D01*
X50869Y-45095D02*
X50869Y-45995D01*
X50869Y-45995D02*
X50369Y-45995D01*
X50369Y-45995D02*
X50369Y-45095D01*
X50369Y-45095D02*
X50869Y-45095D01*
X52144Y-45020D02*
X52144Y-45920D01*
X52144Y-45920D02*
X51644Y-45920D01*
X51644Y-45920D02*
X51644Y-45020D01*
X51644Y-45020D02*
X52144Y-45020D01*
X49719Y-42270D02*
X48819Y-42270D01*
X48819Y-42270D02*
X48819Y-41770D01*
X48819Y-41770D02*
X49719Y-41770D01*
X49719Y-41770D02*
X49719Y-42270D01*
X55294Y-45070D02*
X55294Y-45970D01*
X55294Y-45970D02*
X54794Y-45970D01*
X54794Y-45970D02*
X54794Y-45070D01*
X54794Y-45070D02*
X55294Y-45070D01*
X49644Y-44995D02*
X48744Y-44995D01*
X48744Y-44995D02*
X48744Y-44495D01*
X48744Y-44495D02*
X49644Y-44495D01*
X49644Y-44495D02*
X49644Y-44995D01*
X61110Y-43528D02*
X61110Y-44428D01*
X61110Y-44428D02*
X60610Y-44428D01*
X60610Y-44428D02*
X60610Y-43528D01*
X60610Y-43528D02*
X61110Y-43528D01*
X60484Y-43567D02*
X60484Y-44467D01*
X60484Y-44467D02*
X59984Y-44467D01*
X59984Y-44467D02*
X59984Y-43567D01*
X59984Y-43567D02*
X60484Y-43567D01*
X49735Y-43519D02*
X48835Y-43519D01*
X48835Y-43519D02*
X48835Y-43019D01*
X48835Y-43019D02*
X49735Y-43019D01*
X49735Y-43019D02*
X49735Y-43519D01*
X54904Y-36462D02*
X55804Y-36462D01*
X55804Y-36462D02*
X55804Y-36962D01*
X55804Y-36962D02*
X54904Y-36962D01*
X54904Y-36962D02*
X54904Y-36462D01*
X49719Y-42895D02*
X48819Y-42895D01*
X48819Y-42895D02*
X48819Y-42395D01*
X48819Y-42395D02*
X49719Y-42395D01*
X49719Y-42395D02*
X49719Y-42895D01*
X59870Y-43591D02*
X59870Y-44491D01*
X59870Y-44491D02*
X59370Y-44491D01*
X59370Y-44491D02*
X59370Y-43591D01*
X59370Y-43591D02*
X59870Y-43591D01*
X64565Y-44770D02*
X64565Y-45670D01*
X64565Y-45670D02*
X64065Y-45670D01*
X64065Y-45670D02*
X64065Y-44770D01*
X64065Y-44770D02*
X64565Y-44770D01*
X61919Y-44770D02*
X61919Y-45670D01*
X61919Y-45670D02*
X61419Y-45670D01*
X61419Y-45670D02*
X61419Y-44770D01*
X61419Y-44770D02*
X61919Y-44770D01*
X55527Y-47001D02*
X55527Y-47901D01*
X55527Y-47901D02*
X55027Y-47901D01*
X55027Y-47901D02*
X55027Y-47001D01*
X55027Y-47001D02*
X55527Y-47001D01*
X54881Y-47382D02*
X53981Y-47382D01*
X53981Y-47382D02*
X53981Y-46882D01*
X53981Y-46882D02*
X54881Y-46882D01*
X54881Y-46882D02*
X54881Y-47382D01*
X54896Y-47988D02*
X53996Y-47988D01*
X53996Y-47988D02*
X53996Y-47488D01*
X53996Y-47488D02*
X54896Y-47488D01*
X54896Y-47488D02*
X54896Y-47988D01*
X58050Y-47930D02*
X58050Y-47030D01*
X58050Y-47030D02*
X58550Y-47030D01*
X58550Y-47030D02*
X58550Y-47930D01*
X58550Y-47930D02*
X58050Y-47930D01*
X55944Y-45070D02*
X55944Y-45970D01*
X55944Y-45970D02*
X55444Y-45970D01*
X55444Y-45970D02*
X55444Y-45070D01*
X55444Y-45070D02*
X55944Y-45070D01*
X57188Y-45682D02*
X57188Y-46582D01*
X57188Y-46582D02*
X56688Y-46582D01*
X56688Y-46582D02*
X56688Y-45682D01*
X56688Y-45682D02*
X57188Y-45682D01*
X54169Y-46245D02*
X55069Y-46245D01*
X55069Y-46245D02*
X55069Y-46745D01*
X55069Y-46745D02*
X54169Y-46745D01*
X54169Y-46745D02*
X54169Y-46245D01*
G54D15*
X66756Y-50669D02*
X62756Y-50669D01*
X62756Y-50669D02*
X62756Y-48669D01*
X62756Y-48669D02*
X66756Y-48669D01*
X66756Y-48669D02*
X66756Y-50669D01*
G54D10*
X62154Y-47890D02*
X61154Y-47890D01*
X61154Y-47890D02*
X61154Y-45890D01*
X61154Y-45890D02*
X62154Y-45890D01*
X62154Y-45890D02*
X62154Y-47890D01*
X63244Y-47890D02*
X62244Y-47890D01*
X62244Y-47890D02*
X62244Y-45890D01*
X62244Y-45890D02*
X63244Y-45890D01*
X63244Y-45890D02*
X63244Y-47890D01*
X48218Y-46230D02*
X49218Y-46230D01*
X49218Y-46230D02*
X49218Y-48230D01*
X49218Y-48230D02*
X48218Y-48230D01*
X48218Y-48230D02*
X48218Y-46230D01*
X51913Y-31866D02*
X51913Y-32866D01*
X51913Y-32866D02*
X49913Y-32866D01*
X49913Y-32866D02*
X49913Y-31866D01*
X49913Y-31866D02*
X51913Y-31866D01*
X63327Y-45882D02*
X64327Y-45882D01*
X64327Y-45882D02*
X64327Y-47882D01*
X64327Y-47882D02*
X63327Y-47882D01*
X63327Y-47882D02*
X63327Y-45882D01*
G54D19*
X63054Y-45234D02*
X63954Y-45234D01*
X63954Y-45234D02*
X63954Y-45734D01*
X63954Y-45734D02*
X63054Y-45734D01*
X63054Y-45734D02*
X63054Y-45234D01*
X61679Y-42820D02*
X61679Y-41920D01*
X61679Y-41920D02*
X62179Y-41920D01*
X62179Y-41920D02*
X62179Y-42820D01*
X62179Y-42820D02*
X61679Y-42820D01*
X61033Y-46633D02*
X61033Y-47533D01*
X61033Y-47533D02*
X60533Y-47533D01*
X60533Y-47533D02*
X60533Y-46633D01*
X60533Y-46633D02*
X61033Y-46633D01*
X59656Y-45337D02*
X59656Y-46237D01*
X59656Y-46237D02*
X59156Y-46237D01*
X59156Y-46237D02*
X59156Y-45337D01*
X59156Y-45337D02*
X59656Y-45337D01*
X66003Y-33270D02*
X66903Y-33270D01*
X66903Y-33270D02*
X66903Y-33770D01*
X66903Y-33770D02*
X66003Y-33770D01*
X66003Y-33770D02*
X66003Y-33270D01*
G54D12*
X56103Y-46425D02*
X56086Y-46412D01*
X56069Y-46385D01*
X56043Y-46345D01*
X56026Y-46332D01*
X56009Y-46332D01*
X56017Y-46398D02*
X56000Y-46385D01*
X55983Y-46358D01*
X55974Y-46305D01*
X55974Y-46212D01*
X55983Y-46158D01*
X56000Y-46132D01*
X56017Y-46118D01*
X56051Y-46118D01*
X56069Y-46132D01*
X56086Y-46158D01*
X56094Y-46212D01*
X56094Y-46305D01*
X56086Y-46358D01*
X56069Y-46385D01*
X56051Y-46398D01*
X56017Y-46398D01*
X56266Y-46398D02*
X56163Y-46398D01*
X56215Y-46398D02*
X56215Y-46118D01*
X56198Y-46158D01*
X56180Y-46185D01*
X56163Y-46198D01*
X49760Y-34213D02*
X49760Y-34413D01*
X49752Y-34453D01*
X49735Y-34480D01*
X49709Y-34493D01*
X49692Y-34493D01*
X49837Y-34240D02*
X49846Y-34227D01*
X49863Y-34213D01*
X49906Y-34213D01*
X49923Y-34227D01*
X49932Y-34240D01*
X49940Y-34267D01*
X49940Y-34293D01*
X49932Y-34333D01*
X49829Y-34493D01*
X49940Y-34493D01*
X46498Y-48148D02*
X46498Y-47868D01*
X46541Y-47868D01*
X46566Y-47882D01*
X46584Y-47908D01*
X46592Y-47935D01*
X46601Y-47988D01*
X46601Y-48028D01*
X46592Y-48082D01*
X46584Y-48108D01*
X46566Y-48135D01*
X46541Y-48148D01*
X46498Y-48148D01*
X46755Y-47962D02*
X46755Y-48148D01*
X46712Y-47855D02*
X46669Y-48055D01*
X46781Y-48055D01*
X65411Y-35684D02*
X65411Y-35404D01*
X65454Y-35404D01*
X65479Y-35418D01*
X65497Y-35444D01*
X65505Y-35471D01*
X65514Y-35524D01*
X65514Y-35564D01*
X65505Y-35618D01*
X65497Y-35644D01*
X65479Y-35671D01*
X65454Y-35684D01*
X65411Y-35684D01*
X65574Y-35404D02*
X65685Y-35404D01*
X65625Y-35511D01*
X65651Y-35511D01*
X65668Y-35524D01*
X65677Y-35538D01*
X65685Y-35564D01*
X65685Y-35631D01*
X65677Y-35658D01*
X65668Y-35671D01*
X65651Y-35684D01*
X65599Y-35684D01*
X65582Y-35671D01*
X65574Y-35658D01*
X48782Y-41167D02*
X48502Y-41167D01*
X48502Y-41099D01*
X48516Y-41081D01*
X48529Y-41073D01*
X48556Y-41064D01*
X48596Y-41064D01*
X48622Y-41073D01*
X48636Y-41081D01*
X48649Y-41099D01*
X48649Y-41167D01*
X48782Y-40893D02*
X48782Y-40996D01*
X48782Y-40944D02*
X48502Y-40944D01*
X48542Y-40961D01*
X48569Y-40979D01*
X48582Y-40996D01*
X56760Y-51050D02*
X56786Y-51063D01*
X56829Y-51063D01*
X56846Y-51050D01*
X56855Y-51037D01*
X56863Y-51010D01*
X56863Y-50983D01*
X56855Y-50957D01*
X56846Y-50943D01*
X56829Y-50930D01*
X56795Y-50917D01*
X56777Y-50903D01*
X56769Y-50890D01*
X56760Y-50863D01*
X56760Y-50837D01*
X56769Y-50810D01*
X56777Y-50797D01*
X56795Y-50783D01*
X56837Y-50783D01*
X56863Y-50797D01*
X56923Y-50783D02*
X56966Y-51063D01*
X57000Y-50863D01*
X57034Y-51063D01*
X57077Y-50783D01*
X57137Y-50810D02*
X57146Y-50797D01*
X57163Y-50783D01*
X57206Y-50783D01*
X57223Y-50797D01*
X57232Y-50810D01*
X57240Y-50837D01*
X57240Y-50863D01*
X57232Y-50903D01*
X57129Y-51063D01*
X57240Y-51063D01*
G54D13*
X51286Y-37570D02*
X51286Y-37270D01*
X51601Y-37542D02*
X51587Y-37556D01*
X51544Y-37570D01*
X51515Y-37570D01*
X51472Y-37556D01*
X51444Y-37528D01*
X51429Y-37499D01*
X51415Y-37442D01*
X51415Y-37399D01*
X51429Y-37342D01*
X51444Y-37313D01*
X51472Y-37285D01*
X51515Y-37270D01*
X51544Y-37270D01*
X51587Y-37285D01*
X51601Y-37299D01*
X51887Y-37570D02*
X51715Y-37570D01*
X51801Y-37570D02*
X51801Y-37270D01*
X51772Y-37313D01*
X51744Y-37342D01*
X51715Y-37356D01*
G54D17*
X54001Y-40364D02*
X54001Y-40137D01*
X54001Y-40024D02*
X53986Y-40040D01*
X54001Y-40056D01*
X54016Y-40040D01*
X54001Y-40024D01*
X54001Y-40056D01*
X54153Y-40364D02*
X54153Y-40024D01*
X54260Y-40266D01*
X54367Y-40024D01*
X54367Y-40364D01*
X54489Y-40024D02*
X54702Y-40364D01*
X54702Y-40024D02*
X54489Y-40364D01*
X54809Y-40056D02*
X54824Y-40040D01*
X54855Y-40024D01*
X54931Y-40024D01*
X54961Y-40040D01*
X54977Y-40056D01*
X54992Y-40088D01*
X54992Y-40121D01*
X54977Y-40169D01*
X54794Y-40364D01*
X54992Y-40364D01*
X55099Y-40024D02*
X55297Y-40024D01*
X55190Y-40153D01*
X55236Y-40153D01*
X55266Y-40169D01*
X55282Y-40186D01*
X55297Y-40218D01*
X55297Y-40299D01*
X55282Y-40331D01*
X55266Y-40347D01*
X55236Y-40364D01*
X55144Y-40364D01*
X55114Y-40347D01*
X55099Y-40331D01*
X55404Y-40024D02*
X55602Y-40024D01*
X55495Y-40153D01*
X55541Y-40153D01*
X55571Y-40169D01*
X55587Y-40186D01*
X55602Y-40218D01*
X55602Y-40299D01*
X55587Y-40331D01*
X55571Y-40347D01*
X55541Y-40364D01*
X55449Y-40364D01*
X55419Y-40347D01*
X55404Y-40331D01*
G54D11*
X59059Y-37886D02*
X59059Y-38083D01*
X59045Y-38122D01*
X59019Y-38149D01*
X58980Y-38162D01*
X58953Y-38162D01*
X59334Y-38162D02*
X59177Y-38162D01*
X59255Y-38162D02*
X59255Y-37886D01*
X59229Y-37925D01*
X59203Y-37951D01*
X59177Y-37965D01*
G54D12*
X65597Y-34393D02*
X65537Y-34260D01*
X65494Y-34393D02*
X65494Y-34113D01*
X65562Y-34113D01*
X65580Y-34127D01*
X65588Y-34140D01*
X65597Y-34167D01*
X65597Y-34207D01*
X65588Y-34233D01*
X65580Y-34247D01*
X65562Y-34260D01*
X65494Y-34260D01*
X65682Y-34393D02*
X65717Y-34393D01*
X65734Y-34380D01*
X65742Y-34367D01*
X65760Y-34327D01*
X65768Y-34273D01*
X65768Y-34167D01*
X65760Y-34140D01*
X65751Y-34127D01*
X65734Y-34113D01*
X65700Y-34113D01*
X65682Y-34127D01*
X65674Y-34140D01*
X65665Y-34167D01*
X65665Y-34233D01*
X65674Y-34260D01*
X65682Y-34273D01*
X65700Y-34287D01*
X65734Y-34287D01*
X65751Y-34273D01*
X65760Y-34260D01*
X65768Y-34233D01*
X65452Y-35034D02*
X65392Y-34901D01*
X65349Y-35034D02*
X65349Y-34754D01*
X65417Y-34754D01*
X65435Y-34768D01*
X65443Y-34781D01*
X65452Y-34808D01*
X65452Y-34848D01*
X65443Y-34874D01*
X65435Y-34888D01*
X65417Y-34901D01*
X65349Y-34901D01*
X65520Y-34781D02*
X65529Y-34768D01*
X65546Y-34754D01*
X65589Y-34754D01*
X65606Y-34768D01*
X65615Y-34781D01*
X65623Y-34808D01*
X65623Y-34834D01*
X65615Y-34874D01*
X65512Y-35034D01*
X65623Y-35034D01*
X65726Y-34874D02*
X65708Y-34861D01*
X65700Y-34848D01*
X65691Y-34821D01*
X65691Y-34808D01*
X65700Y-34781D01*
X65708Y-34768D01*
X65726Y-34754D01*
X65760Y-34754D01*
X65777Y-34768D01*
X65786Y-34781D01*
X65794Y-34808D01*
X65794Y-34821D01*
X65786Y-34848D01*
X65777Y-34861D01*
X65760Y-34874D01*
X65726Y-34874D01*
X65708Y-34888D01*
X65700Y-34901D01*
X65691Y-34928D01*
X65691Y-34981D01*
X65700Y-35008D01*
X65708Y-35021D01*
X65726Y-35034D01*
X65760Y-35034D01*
X65777Y-35021D01*
X65786Y-35008D01*
X65794Y-34981D01*
X65794Y-34928D01*
X65786Y-34901D01*
X65777Y-34888D01*
X65760Y-34874D01*
X46440Y-46412D02*
X46380Y-46279D01*
X46337Y-46412D02*
X46337Y-46132D01*
X46405Y-46132D01*
X46423Y-46146D01*
X46431Y-46159D01*
X46440Y-46186D01*
X46440Y-46226D01*
X46431Y-46252D01*
X46423Y-46266D01*
X46405Y-46279D01*
X46337Y-46279D01*
X46500Y-46132D02*
X46611Y-46132D01*
X46551Y-46239D01*
X46577Y-46239D01*
X46594Y-46252D01*
X46603Y-46266D01*
X46611Y-46292D01*
X46611Y-46359D01*
X46603Y-46386D01*
X46594Y-46399D01*
X46577Y-46412D01*
X46525Y-46412D01*
X46508Y-46399D01*
X46500Y-46386D01*
X46722Y-46132D02*
X46739Y-46132D01*
X46756Y-46146D01*
X46765Y-46159D01*
X46774Y-46186D01*
X46782Y-46239D01*
X46782Y-46306D01*
X46774Y-46359D01*
X46765Y-46386D01*
X46756Y-46399D01*
X46739Y-46412D01*
X46722Y-46412D01*
X46705Y-46399D01*
X46696Y-46386D01*
X46688Y-46359D01*
X46679Y-46306D01*
X46679Y-46239D01*
X46688Y-46186D01*
X46696Y-46159D01*
X46705Y-46146D01*
X46722Y-46132D01*
X58255Y-45895D02*
X58122Y-45955D01*
X58255Y-45998D02*
X57975Y-45998D01*
X57975Y-45930D01*
X57989Y-45912D01*
X58002Y-45904D01*
X58029Y-45895D01*
X58069Y-45895D01*
X58095Y-45904D01*
X58109Y-45912D01*
X58122Y-45930D01*
X58122Y-45998D01*
X57975Y-45835D02*
X57975Y-45724D01*
X58082Y-45784D01*
X58082Y-45758D01*
X58095Y-45741D01*
X58109Y-45732D01*
X58135Y-45724D01*
X58202Y-45724D01*
X58229Y-45732D01*
X58242Y-45741D01*
X58255Y-45758D01*
X58255Y-45810D01*
X58242Y-45827D01*
X58229Y-45835D01*
X58255Y-45553D02*
X58255Y-45656D01*
X58255Y-45604D02*
X57975Y-45604D01*
X58015Y-45621D01*
X58042Y-45639D01*
X58055Y-45656D01*
X49893Y-44221D02*
X49884Y-44234D01*
X49858Y-44247D01*
X49841Y-44247D01*
X49816Y-44234D01*
X49798Y-44207D01*
X49790Y-44181D01*
X49781Y-44127D01*
X49781Y-44087D01*
X49790Y-44034D01*
X49798Y-44007D01*
X49816Y-43981D01*
X49841Y-43967D01*
X49858Y-43967D01*
X49884Y-43981D01*
X49893Y-43994D01*
X49961Y-43994D02*
X49970Y-43981D01*
X49987Y-43967D01*
X50030Y-43967D01*
X50047Y-43981D01*
X50056Y-43994D01*
X50064Y-44021D01*
X50064Y-44047D01*
X50056Y-44087D01*
X49953Y-44247D01*
X50064Y-44247D01*
X50167Y-44087D02*
X50149Y-44074D01*
X50141Y-44061D01*
X50132Y-44034D01*
X50132Y-44021D01*
X50141Y-43994D01*
X50149Y-43981D01*
X50167Y-43967D01*
X50201Y-43967D01*
X50218Y-43981D01*
X50227Y-43994D01*
X50235Y-44021D01*
X50235Y-44034D01*
X50227Y-44061D01*
X50218Y-44074D01*
X50201Y-44087D01*
X50167Y-44087D01*
X50149Y-44101D01*
X50141Y-44114D01*
X50132Y-44141D01*
X50132Y-44194D01*
X50141Y-44221D01*
X50149Y-44234D01*
X50167Y-44247D01*
X50201Y-44247D01*
X50218Y-44234D01*
X50227Y-44221D01*
X50235Y-44194D01*
X50235Y-44141D01*
X50227Y-44114D01*
X50218Y-44101D01*
X50201Y-44087D01*
X64889Y-42730D02*
X64609Y-42730D01*
X64609Y-42662D01*
X64623Y-42644D01*
X64636Y-42636D01*
X64663Y-42627D01*
X64703Y-42627D01*
X64729Y-42636D01*
X64743Y-42644D01*
X64756Y-42662D01*
X64756Y-42730D01*
X64636Y-42559D02*
X64623Y-42550D01*
X64609Y-42533D01*
X64609Y-42490D01*
X64623Y-42473D01*
X64636Y-42464D01*
X64663Y-42456D01*
X64689Y-42456D01*
X64729Y-42464D01*
X64889Y-42567D01*
X64889Y-42456D01*
X63341Y-41098D02*
X63281Y-40965D01*
X63238Y-41098D02*
X63238Y-40818D01*
X63306Y-40818D01*
X63324Y-40832D01*
X63332Y-40845D01*
X63341Y-40872D01*
X63341Y-40912D01*
X63332Y-40938D01*
X63324Y-40952D01*
X63306Y-40965D01*
X63238Y-40965D01*
X63409Y-40845D02*
X63418Y-40832D01*
X63435Y-40818D01*
X63478Y-40818D01*
X63495Y-40832D01*
X63504Y-40845D01*
X63512Y-40872D01*
X63512Y-40898D01*
X63504Y-40938D01*
X63401Y-41098D01*
X63512Y-41098D01*
X63572Y-40818D02*
X63692Y-40818D01*
X63615Y-41098D01*
G54D13*
X61435Y-51125D02*
X61461Y-51138D01*
X61504Y-51138D01*
X61521Y-51125D01*
X61530Y-51112D01*
X61538Y-51085D01*
X61538Y-51058D01*
X61530Y-51032D01*
X61521Y-51018D01*
X61504Y-51005D01*
X61470Y-50992D01*
X61452Y-50978D01*
X61444Y-50965D01*
X61435Y-50938D01*
X61435Y-50912D01*
X61444Y-50885D01*
X61452Y-50872D01*
X61470Y-50858D01*
X61512Y-50858D01*
X61538Y-50872D01*
X61598Y-50858D02*
X61641Y-51138D01*
X61675Y-50938D01*
X61709Y-51138D01*
X61752Y-50858D01*
X61915Y-51138D02*
X61812Y-51138D01*
X61864Y-51138D02*
X61864Y-50858D01*
X61847Y-50898D01*
X61829Y-50925D01*
X61812Y-50938D01*
G54D12*
X52635Y-51150D02*
X52661Y-51163D01*
X52704Y-51163D01*
X52721Y-51150D01*
X52730Y-51137D01*
X52738Y-51110D01*
X52738Y-51083D01*
X52730Y-51057D01*
X52721Y-51043D01*
X52704Y-51030D01*
X52670Y-51017D01*
X52652Y-51003D01*
X52644Y-50990D01*
X52635Y-50963D01*
X52635Y-50937D01*
X52644Y-50910D01*
X52652Y-50897D01*
X52670Y-50883D01*
X52712Y-50883D01*
X52738Y-50897D01*
X52798Y-50883D02*
X52841Y-51163D01*
X52875Y-50963D01*
X52909Y-51163D01*
X52952Y-50883D01*
X53004Y-50883D02*
X53115Y-50883D01*
X53055Y-50990D01*
X53081Y-50990D01*
X53098Y-51003D01*
X53107Y-51017D01*
X53115Y-51043D01*
X53115Y-51110D01*
X53107Y-51137D01*
X53098Y-51150D01*
X53081Y-51163D01*
X53029Y-51163D01*
X53012Y-51150D01*
X53004Y-51137D01*
X50452Y-47457D02*
X50443Y-47470D01*
X50417Y-47483D01*
X50400Y-47483D01*
X50375Y-47470D01*
X50357Y-47443D01*
X50349Y-47417D01*
X50340Y-47363D01*
X50340Y-47323D01*
X50349Y-47270D01*
X50357Y-47243D01*
X50375Y-47217D01*
X50400Y-47203D01*
X50417Y-47203D01*
X50443Y-47217D01*
X50452Y-47230D01*
X50606Y-47297D02*
X50606Y-47483D01*
X50563Y-47190D02*
X50520Y-47390D01*
X50632Y-47390D01*
X50734Y-47203D02*
X50751Y-47203D01*
X50768Y-47217D01*
X50777Y-47230D01*
X50786Y-47257D01*
X50794Y-47310D01*
X50794Y-47377D01*
X50786Y-47430D01*
X50777Y-47457D01*
X50768Y-47470D01*
X50751Y-47483D01*
X50734Y-47483D01*
X50717Y-47470D01*
X50708Y-47457D01*
X50700Y-47430D01*
X50691Y-47377D01*
X50691Y-47310D01*
X50700Y-47257D01*
X50708Y-47230D01*
X50717Y-47217D01*
X50734Y-47203D01*
X52621Y-47945D02*
X52612Y-47958D01*
X52586Y-47971D01*
X52569Y-47971D01*
X52544Y-47958D01*
X52526Y-47931D01*
X52518Y-47905D01*
X52509Y-47851D01*
X52509Y-47811D01*
X52518Y-47758D01*
X52526Y-47731D01*
X52544Y-47705D01*
X52569Y-47691D01*
X52586Y-47691D01*
X52612Y-47705D01*
X52621Y-47718D01*
X52775Y-47785D02*
X52775Y-47971D01*
X52732Y-47678D02*
X52689Y-47878D01*
X52801Y-47878D01*
X52895Y-47811D02*
X52877Y-47798D01*
X52869Y-47785D01*
X52860Y-47758D01*
X52860Y-47745D01*
X52869Y-47718D01*
X52877Y-47705D01*
X52895Y-47691D01*
X52929Y-47691D01*
X52946Y-47705D01*
X52955Y-47718D01*
X52963Y-47745D01*
X52963Y-47758D01*
X52955Y-47785D01*
X52946Y-47798D01*
X52929Y-47811D01*
X52895Y-47811D01*
X52877Y-47825D01*
X52869Y-47838D01*
X52860Y-47865D01*
X52860Y-47918D01*
X52869Y-47945D01*
X52877Y-47958D01*
X52895Y-47971D01*
X52929Y-47971D01*
X52946Y-47958D01*
X52955Y-47945D01*
X52963Y-47918D01*
X52963Y-47865D01*
X52955Y-47838D01*
X52946Y-47825D01*
X52929Y-47811D01*
X47649Y-46477D02*
X47640Y-46490D01*
X47614Y-46503D01*
X47597Y-46503D01*
X47572Y-46490D01*
X47554Y-46463D01*
X47546Y-46437D01*
X47537Y-46383D01*
X47537Y-46343D01*
X47546Y-46290D01*
X47554Y-46263D01*
X47572Y-46237D01*
X47597Y-46223D01*
X47614Y-46223D01*
X47640Y-46237D01*
X47649Y-46250D01*
X47709Y-46223D02*
X47820Y-46223D01*
X47760Y-46330D01*
X47786Y-46330D01*
X47803Y-46343D01*
X47812Y-46357D01*
X47820Y-46383D01*
X47820Y-46450D01*
X47812Y-46477D01*
X47803Y-46490D01*
X47786Y-46503D01*
X47734Y-46503D01*
X47717Y-46490D01*
X47709Y-46477D01*
X47983Y-46223D02*
X47897Y-46223D01*
X47888Y-46357D01*
X47897Y-46343D01*
X47914Y-46330D01*
X47957Y-46330D01*
X47974Y-46343D01*
X47983Y-46357D01*
X47991Y-46383D01*
X47991Y-46450D01*
X47983Y-46477D01*
X47974Y-46490D01*
X47957Y-46503D01*
X47914Y-46503D01*
X47897Y-46490D01*
X47888Y-46477D01*
X58063Y-44115D02*
X58076Y-44124D01*
X58089Y-44150D01*
X58089Y-44167D01*
X58076Y-44192D01*
X58049Y-44210D01*
X58023Y-44218D01*
X57969Y-44227D01*
X57929Y-44227D01*
X57876Y-44218D01*
X57849Y-44210D01*
X57823Y-44192D01*
X57809Y-44167D01*
X57809Y-44150D01*
X57823Y-44124D01*
X57836Y-44115D01*
X57809Y-44055D02*
X57809Y-43944D01*
X57916Y-44004D01*
X57916Y-43978D01*
X57929Y-43961D01*
X57943Y-43952D01*
X57969Y-43944D01*
X58036Y-43944D01*
X58063Y-43952D01*
X58076Y-43961D01*
X58089Y-43978D01*
X58089Y-44030D01*
X58076Y-44047D01*
X58063Y-44055D01*
X58089Y-43859D02*
X58089Y-43824D01*
X58076Y-43807D01*
X58063Y-43799D01*
X58023Y-43781D01*
X57969Y-43773D01*
X57863Y-43773D01*
X57836Y-43781D01*
X57823Y-43790D01*
X57809Y-43807D01*
X57809Y-43841D01*
X57823Y-43859D01*
X57836Y-43867D01*
X57863Y-43876D01*
X57929Y-43876D01*
X57956Y-43867D01*
X57969Y-43859D01*
X57983Y-43841D01*
X57983Y-43807D01*
X57969Y-43790D01*
X57956Y-43781D01*
X57929Y-43773D01*
X56339Y-44804D02*
X56352Y-44813D01*
X56365Y-44839D01*
X56365Y-44856D01*
X56352Y-44881D01*
X56325Y-44899D01*
X56299Y-44907D01*
X56245Y-44916D01*
X56205Y-44916D01*
X56152Y-44907D01*
X56125Y-44899D01*
X56099Y-44881D01*
X56085Y-44856D01*
X56085Y-44839D01*
X56099Y-44813D01*
X56112Y-44804D01*
X56112Y-44736D02*
X56099Y-44727D01*
X56085Y-44710D01*
X56085Y-44667D01*
X56099Y-44650D01*
X56112Y-44641D01*
X56139Y-44633D01*
X56165Y-44633D01*
X56205Y-44641D01*
X56365Y-44744D01*
X56365Y-44633D01*
X56085Y-44573D02*
X56085Y-44462D01*
X56192Y-44522D01*
X56192Y-44496D01*
X56205Y-44479D01*
X56219Y-44470D01*
X56245Y-44462D01*
X56312Y-44462D01*
X56339Y-44470D01*
X56352Y-44479D01*
X56365Y-44496D01*
X56365Y-44548D01*
X56352Y-44565D01*
X56339Y-44573D01*
X54512Y-44851D02*
X54525Y-44860D01*
X54538Y-44886D01*
X54538Y-44903D01*
X54525Y-44928D01*
X54498Y-44946D01*
X54472Y-44954D01*
X54418Y-44963D01*
X54378Y-44963D01*
X54325Y-44954D01*
X54298Y-44946D01*
X54272Y-44928D01*
X54258Y-44903D01*
X54258Y-44886D01*
X54272Y-44860D01*
X54285Y-44851D01*
X54285Y-44783D02*
X54272Y-44774D01*
X54258Y-44757D01*
X54258Y-44714D01*
X54272Y-44697D01*
X54285Y-44688D01*
X54312Y-44680D01*
X54338Y-44680D01*
X54378Y-44688D01*
X54538Y-44791D01*
X54538Y-44680D01*
X54538Y-44595D02*
X54538Y-44560D01*
X54525Y-44543D01*
X54512Y-44535D01*
X54472Y-44517D01*
X54418Y-44509D01*
X54312Y-44509D01*
X54285Y-44517D01*
X54272Y-44526D01*
X54258Y-44543D01*
X54258Y-44577D01*
X54272Y-44595D01*
X54285Y-44603D01*
X54312Y-44612D01*
X54378Y-44612D01*
X54405Y-44603D01*
X54418Y-44595D01*
X54432Y-44577D01*
X54432Y-44543D01*
X54418Y-44526D01*
X54405Y-44517D01*
X54378Y-44509D01*
X53268Y-44851D02*
X53281Y-44860D01*
X53294Y-44886D01*
X53294Y-44903D01*
X53281Y-44928D01*
X53254Y-44946D01*
X53228Y-44954D01*
X53174Y-44963D01*
X53134Y-44963D01*
X53081Y-44954D01*
X53054Y-44946D01*
X53028Y-44928D01*
X53014Y-44903D01*
X53014Y-44886D01*
X53028Y-44860D01*
X53041Y-44851D01*
X53014Y-44791D02*
X53014Y-44680D01*
X53121Y-44740D01*
X53121Y-44714D01*
X53134Y-44697D01*
X53148Y-44688D01*
X53174Y-44680D01*
X53241Y-44680D01*
X53268Y-44688D01*
X53281Y-44697D01*
X53294Y-44714D01*
X53294Y-44766D01*
X53281Y-44783D01*
X53268Y-44791D01*
X53041Y-44612D02*
X53028Y-44603D01*
X53014Y-44586D01*
X53014Y-44543D01*
X53028Y-44526D01*
X53041Y-44517D01*
X53068Y-44509D01*
X53094Y-44509D01*
X53134Y-44517D01*
X53294Y-44620D01*
X53294Y-44509D01*
X51960Y-46426D02*
X51951Y-46439D01*
X51925Y-46452D01*
X51908Y-46452D01*
X51883Y-46439D01*
X51865Y-46412D01*
X51857Y-46386D01*
X51848Y-46332D01*
X51848Y-46292D01*
X51857Y-46239D01*
X51865Y-46212D01*
X51883Y-46186D01*
X51908Y-46172D01*
X51925Y-46172D01*
X51951Y-46186D01*
X51960Y-46199D01*
X52020Y-46172D02*
X52131Y-46172D01*
X52071Y-46279D01*
X52097Y-46279D01*
X52114Y-46292D01*
X52123Y-46306D01*
X52131Y-46332D01*
X52131Y-46399D01*
X52123Y-46426D01*
X52114Y-46439D01*
X52097Y-46452D01*
X52045Y-46452D01*
X52028Y-46439D01*
X52020Y-46426D01*
X52285Y-46266D02*
X52285Y-46452D01*
X52242Y-46159D02*
X52199Y-46359D01*
X52311Y-46359D01*
X52601Y-44765D02*
X52468Y-44825D01*
X52601Y-44868D02*
X52321Y-44868D01*
X52321Y-44800D01*
X52335Y-44782D01*
X52348Y-44774D01*
X52375Y-44765D01*
X52415Y-44765D01*
X52441Y-44774D01*
X52455Y-44782D01*
X52468Y-44800D01*
X52468Y-44868D01*
X52601Y-44594D02*
X52601Y-44697D01*
X52601Y-44645D02*
X52321Y-44645D01*
X52361Y-44662D01*
X52388Y-44680D01*
X52401Y-44697D01*
X50074Y-44820D02*
X49941Y-44880D01*
X50074Y-44923D02*
X49794Y-44923D01*
X49794Y-44855D01*
X49808Y-44837D01*
X49821Y-44829D01*
X49848Y-44820D01*
X49888Y-44820D01*
X49914Y-44829D01*
X49928Y-44837D01*
X49941Y-44855D01*
X49941Y-44923D01*
X49821Y-44752D02*
X49808Y-44743D01*
X49794Y-44726D01*
X49794Y-44683D01*
X49808Y-44666D01*
X49821Y-44657D01*
X49848Y-44649D01*
X49874Y-44649D01*
X49914Y-44657D01*
X50074Y-44760D01*
X50074Y-44649D01*
X51319Y-44879D02*
X51332Y-44888D01*
X51345Y-44914D01*
X51345Y-44931D01*
X51332Y-44956D01*
X51305Y-44974D01*
X51279Y-44982D01*
X51225Y-44991D01*
X51185Y-44991D01*
X51132Y-44982D01*
X51105Y-44974D01*
X51079Y-44956D01*
X51065Y-44931D01*
X51065Y-44914D01*
X51079Y-44888D01*
X51092Y-44879D01*
X51159Y-44725D02*
X51345Y-44725D01*
X51052Y-44768D02*
X51252Y-44811D01*
X51252Y-44699D01*
X51345Y-44537D02*
X51345Y-44640D01*
X51345Y-44588D02*
X51065Y-44588D01*
X51105Y-44605D01*
X51132Y-44623D01*
X51145Y-44640D01*
X53926Y-44867D02*
X53939Y-44876D01*
X53952Y-44902D01*
X53952Y-44919D01*
X53939Y-44944D01*
X53912Y-44962D01*
X53886Y-44970D01*
X53832Y-44979D01*
X53792Y-44979D01*
X53739Y-44970D01*
X53712Y-44962D01*
X53686Y-44944D01*
X53672Y-44919D01*
X53672Y-44902D01*
X53686Y-44876D01*
X53699Y-44867D01*
X53766Y-44713D02*
X53952Y-44713D01*
X53659Y-44756D02*
X53859Y-44799D01*
X53859Y-44687D01*
X53672Y-44636D02*
X53672Y-44525D01*
X53779Y-44585D01*
X53779Y-44559D01*
X53792Y-44542D01*
X53806Y-44533D01*
X53832Y-44525D01*
X53899Y-44525D01*
X53926Y-44533D01*
X53939Y-44542D01*
X53952Y-44559D01*
X53952Y-44611D01*
X53939Y-44628D01*
X53926Y-44636D01*
X50741Y-44879D02*
X50754Y-44888D01*
X50767Y-44914D01*
X50767Y-44931D01*
X50754Y-44956D01*
X50727Y-44974D01*
X50701Y-44982D01*
X50647Y-44991D01*
X50607Y-44991D01*
X50554Y-44982D01*
X50527Y-44974D01*
X50501Y-44956D01*
X50487Y-44931D01*
X50487Y-44914D01*
X50501Y-44888D01*
X50514Y-44879D01*
X50581Y-44725D02*
X50767Y-44725D01*
X50474Y-44768D02*
X50674Y-44811D01*
X50674Y-44699D01*
X50487Y-44545D02*
X50487Y-44631D01*
X50621Y-44640D01*
X50607Y-44631D01*
X50594Y-44614D01*
X50594Y-44571D01*
X50607Y-44554D01*
X50621Y-44545D01*
X50647Y-44537D01*
X50714Y-44537D01*
X50741Y-44545D01*
X50754Y-44554D01*
X50767Y-44571D01*
X50767Y-44614D01*
X50754Y-44631D01*
X50741Y-44640D01*
X52019Y-44801D02*
X51886Y-44861D01*
X52019Y-44904D02*
X51739Y-44904D01*
X51739Y-44836D01*
X51753Y-44818D01*
X51766Y-44810D01*
X51793Y-44801D01*
X51833Y-44801D01*
X51859Y-44810D01*
X51873Y-44818D01*
X51886Y-44836D01*
X51886Y-44904D01*
X51739Y-44741D02*
X51739Y-44630D01*
X51846Y-44690D01*
X51846Y-44664D01*
X51859Y-44647D01*
X51873Y-44638D01*
X51899Y-44630D01*
X51966Y-44630D01*
X51993Y-44638D01*
X52006Y-44647D01*
X52019Y-44664D01*
X52019Y-44716D01*
X52006Y-44733D01*
X51993Y-44741D01*
X49928Y-42146D02*
X49919Y-42159D01*
X49893Y-42172D01*
X49876Y-42172D01*
X49851Y-42159D01*
X49833Y-42132D01*
X49825Y-42106D01*
X49816Y-42052D01*
X49816Y-42012D01*
X49825Y-41959D01*
X49833Y-41932D01*
X49851Y-41906D01*
X49876Y-41892D01*
X49893Y-41892D01*
X49919Y-41906D01*
X49928Y-41919D01*
X49996Y-41919D02*
X50005Y-41906D01*
X50022Y-41892D01*
X50065Y-41892D01*
X50082Y-41906D01*
X50091Y-41919D01*
X50099Y-41946D01*
X50099Y-41972D01*
X50091Y-42012D01*
X49988Y-42172D01*
X50099Y-42172D01*
X50253Y-41986D02*
X50253Y-42172D01*
X50210Y-41879D02*
X50167Y-42079D01*
X50279Y-42079D01*
X55107Y-44796D02*
X55120Y-44805D01*
X55133Y-44831D01*
X55133Y-44848D01*
X55120Y-44873D01*
X55093Y-44891D01*
X55067Y-44899D01*
X55013Y-44908D01*
X54973Y-44908D01*
X54920Y-44899D01*
X54893Y-44891D01*
X54867Y-44873D01*
X54853Y-44848D01*
X54853Y-44831D01*
X54867Y-44805D01*
X54880Y-44796D01*
X54853Y-44736D02*
X54853Y-44625D01*
X54960Y-44685D01*
X54960Y-44659D01*
X54973Y-44642D01*
X54987Y-44633D01*
X55013Y-44625D01*
X55080Y-44625D01*
X55107Y-44633D01*
X55120Y-44642D01*
X55133Y-44659D01*
X55133Y-44711D01*
X55120Y-44728D01*
X55107Y-44736D01*
X55133Y-44454D02*
X55133Y-44557D01*
X55133Y-44505D02*
X54853Y-44505D01*
X54893Y-44522D01*
X54920Y-44540D01*
X54933Y-44557D01*
X48591Y-44832D02*
X48604Y-44841D01*
X48617Y-44867D01*
X48617Y-44884D01*
X48604Y-44909D01*
X48577Y-44927D01*
X48551Y-44935D01*
X48497Y-44944D01*
X48457Y-44944D01*
X48404Y-44935D01*
X48377Y-44927D01*
X48351Y-44909D01*
X48337Y-44884D01*
X48337Y-44867D01*
X48351Y-44841D01*
X48364Y-44832D01*
X48337Y-44772D02*
X48337Y-44661D01*
X48444Y-44721D01*
X48444Y-44695D01*
X48457Y-44678D01*
X48471Y-44669D01*
X48497Y-44661D01*
X48564Y-44661D01*
X48591Y-44669D01*
X48604Y-44678D01*
X48617Y-44695D01*
X48617Y-44747D01*
X48604Y-44764D01*
X48591Y-44772D01*
X48337Y-44550D02*
X48337Y-44533D01*
X48351Y-44516D01*
X48364Y-44507D01*
X48391Y-44498D01*
X48444Y-44490D01*
X48511Y-44490D01*
X48564Y-44498D01*
X48591Y-44507D01*
X48604Y-44516D01*
X48617Y-44533D01*
X48617Y-44550D01*
X48604Y-44567D01*
X48591Y-44576D01*
X48564Y-44584D01*
X48511Y-44593D01*
X48444Y-44593D01*
X48391Y-44584D01*
X48364Y-44576D01*
X48351Y-44567D01*
X48337Y-44550D01*
X61504Y-44048D02*
X61517Y-44057D01*
X61530Y-44083D01*
X61530Y-44100D01*
X61517Y-44125D01*
X61490Y-44143D01*
X61464Y-44151D01*
X61410Y-44160D01*
X61370Y-44160D01*
X61317Y-44151D01*
X61290Y-44143D01*
X61264Y-44125D01*
X61250Y-44100D01*
X61250Y-44083D01*
X61264Y-44057D01*
X61277Y-44048D01*
X61250Y-43988D02*
X61250Y-43877D01*
X61357Y-43937D01*
X61357Y-43911D01*
X61370Y-43894D01*
X61384Y-43885D01*
X61410Y-43877D01*
X61477Y-43877D01*
X61504Y-43885D01*
X61517Y-43894D01*
X61530Y-43911D01*
X61530Y-43963D01*
X61517Y-43980D01*
X61504Y-43988D01*
X61250Y-43723D02*
X61250Y-43757D01*
X61264Y-43774D01*
X61277Y-43783D01*
X61317Y-43800D01*
X61370Y-43809D01*
X61477Y-43809D01*
X61504Y-43800D01*
X61517Y-43792D01*
X61530Y-43774D01*
X61530Y-43740D01*
X61517Y-43723D01*
X61504Y-43714D01*
X61477Y-43706D01*
X61410Y-43706D01*
X61384Y-43714D01*
X61370Y-43723D01*
X61357Y-43740D01*
X61357Y-43774D01*
X61370Y-43792D01*
X61384Y-43800D01*
X61410Y-43809D01*
X60086Y-43394D02*
X60077Y-43407D01*
X60051Y-43420D01*
X60034Y-43420D01*
X60009Y-43407D01*
X59991Y-43380D01*
X59983Y-43354D01*
X59974Y-43300D01*
X59974Y-43260D01*
X59983Y-43207D01*
X59991Y-43180D01*
X60009Y-43154D01*
X60034Y-43140D01*
X60051Y-43140D01*
X60077Y-43154D01*
X60086Y-43167D01*
X60146Y-43140D02*
X60257Y-43140D01*
X60197Y-43247D01*
X60223Y-43247D01*
X60240Y-43260D01*
X60249Y-43274D01*
X60257Y-43300D01*
X60257Y-43367D01*
X60249Y-43394D01*
X60240Y-43407D01*
X60223Y-43420D01*
X60171Y-43420D01*
X60154Y-43407D01*
X60146Y-43394D01*
X60317Y-43140D02*
X60437Y-43140D01*
X60360Y-43420D01*
X49972Y-43363D02*
X49963Y-43376D01*
X49937Y-43389D01*
X49920Y-43389D01*
X49895Y-43376D01*
X49877Y-43349D01*
X49869Y-43323D01*
X49860Y-43269D01*
X49860Y-43229D01*
X49869Y-43176D01*
X49877Y-43149D01*
X49895Y-43123D01*
X49920Y-43109D01*
X49937Y-43109D01*
X49963Y-43123D01*
X49972Y-43136D01*
X50032Y-43109D02*
X50143Y-43109D01*
X50083Y-43216D01*
X50109Y-43216D01*
X50126Y-43229D01*
X50135Y-43243D01*
X50143Y-43269D01*
X50143Y-43336D01*
X50135Y-43363D01*
X50126Y-43376D01*
X50109Y-43389D01*
X50057Y-43389D01*
X50040Y-43376D01*
X50032Y-43363D01*
X50246Y-43229D02*
X50228Y-43216D01*
X50220Y-43203D01*
X50211Y-43176D01*
X50211Y-43163D01*
X50220Y-43136D01*
X50228Y-43123D01*
X50246Y-43109D01*
X50280Y-43109D01*
X50297Y-43123D01*
X50306Y-43136D01*
X50314Y-43163D01*
X50314Y-43176D01*
X50306Y-43203D01*
X50297Y-43216D01*
X50280Y-43229D01*
X50246Y-43229D01*
X50228Y-43243D01*
X50220Y-43256D01*
X50211Y-43283D01*
X50211Y-43336D01*
X50220Y-43363D01*
X50228Y-43376D01*
X50246Y-43389D01*
X50280Y-43389D01*
X50297Y-43376D01*
X50306Y-43363D01*
X50314Y-43336D01*
X50314Y-43283D01*
X50306Y-43256D01*
X50297Y-43243D01*
X50280Y-43229D01*
X55247Y-36122D02*
X55238Y-36135D01*
X55212Y-36148D01*
X55195Y-36148D01*
X55170Y-36135D01*
X55152Y-36108D01*
X55144Y-36082D01*
X55135Y-36028D01*
X55135Y-35988D01*
X55144Y-35935D01*
X55152Y-35908D01*
X55170Y-35882D01*
X55195Y-35868D01*
X55212Y-35868D01*
X55238Y-35882D01*
X55247Y-35895D01*
X55401Y-35962D02*
X55401Y-36148D01*
X55358Y-35855D02*
X55315Y-36055D01*
X55427Y-36055D01*
X55572Y-35868D02*
X55538Y-35868D01*
X55521Y-35882D01*
X55512Y-35895D01*
X55495Y-35935D01*
X55486Y-35988D01*
X55486Y-36095D01*
X55495Y-36122D01*
X55503Y-36135D01*
X55521Y-36148D01*
X55555Y-36148D01*
X55572Y-36135D01*
X55581Y-36122D01*
X55589Y-36095D01*
X55589Y-36028D01*
X55581Y-36002D01*
X55572Y-35988D01*
X55555Y-35975D01*
X55521Y-35975D01*
X55503Y-35988D01*
X55495Y-36002D01*
X55486Y-36028D01*
X49940Y-42768D02*
X49931Y-42781D01*
X49905Y-42794D01*
X49888Y-42794D01*
X49863Y-42781D01*
X49845Y-42754D01*
X49837Y-42728D01*
X49828Y-42674D01*
X49828Y-42634D01*
X49837Y-42581D01*
X49845Y-42554D01*
X49863Y-42528D01*
X49888Y-42514D01*
X49905Y-42514D01*
X49931Y-42528D01*
X49940Y-42541D01*
X50094Y-42608D02*
X50094Y-42794D01*
X50051Y-42501D02*
X50008Y-42701D01*
X50120Y-42701D01*
X50196Y-42794D02*
X50231Y-42794D01*
X50248Y-42781D01*
X50256Y-42768D01*
X50274Y-42728D01*
X50282Y-42674D01*
X50282Y-42568D01*
X50274Y-42541D01*
X50265Y-42528D01*
X50248Y-42514D01*
X50214Y-42514D01*
X50196Y-42528D01*
X50188Y-42541D01*
X50179Y-42568D01*
X50179Y-42634D01*
X50188Y-42661D01*
X50196Y-42674D01*
X50214Y-42688D01*
X50248Y-42688D01*
X50265Y-42674D01*
X50274Y-42661D01*
X50282Y-42634D01*
X59476Y-43418D02*
X59467Y-43431D01*
X59441Y-43444D01*
X59424Y-43444D01*
X59399Y-43431D01*
X59381Y-43404D01*
X59373Y-43378D01*
X59364Y-43324D01*
X59364Y-43284D01*
X59373Y-43231D01*
X59381Y-43204D01*
X59399Y-43178D01*
X59424Y-43164D01*
X59441Y-43164D01*
X59467Y-43178D01*
X59476Y-43191D01*
X59639Y-43164D02*
X59553Y-43164D01*
X59544Y-43298D01*
X59553Y-43284D01*
X59570Y-43271D01*
X59613Y-43271D01*
X59630Y-43284D01*
X59639Y-43298D01*
X59647Y-43324D01*
X59647Y-43391D01*
X59639Y-43418D01*
X59630Y-43431D01*
X59613Y-43444D01*
X59570Y-43444D01*
X59553Y-43431D01*
X59544Y-43418D01*
X59801Y-43164D02*
X59767Y-43164D01*
X59750Y-43178D01*
X59741Y-43191D01*
X59724Y-43231D01*
X59715Y-43284D01*
X59715Y-43391D01*
X59724Y-43418D01*
X59732Y-43431D01*
X59750Y-43444D01*
X59784Y-43444D01*
X59801Y-43431D01*
X59810Y-43418D01*
X59818Y-43391D01*
X59818Y-43324D01*
X59810Y-43298D01*
X59801Y-43284D01*
X59784Y-43271D01*
X59750Y-43271D01*
X59732Y-43284D01*
X59724Y-43298D01*
X59715Y-43324D01*
X64479Y-44544D02*
X64346Y-44604D01*
X64479Y-44647D02*
X64199Y-44647D01*
X64199Y-44579D01*
X64213Y-44561D01*
X64226Y-44553D01*
X64253Y-44544D01*
X64293Y-44544D01*
X64319Y-44553D01*
X64333Y-44561D01*
X64346Y-44579D01*
X64346Y-44647D01*
X64479Y-44373D02*
X64479Y-44476D01*
X64479Y-44424D02*
X64199Y-44424D01*
X64239Y-44441D01*
X64266Y-44459D01*
X64279Y-44476D01*
X64479Y-44288D02*
X64479Y-44253D01*
X64466Y-44236D01*
X64453Y-44228D01*
X64413Y-44210D01*
X64359Y-44202D01*
X64253Y-44202D01*
X64226Y-44210D01*
X64213Y-44219D01*
X64199Y-44236D01*
X64199Y-44270D01*
X64213Y-44288D01*
X64226Y-44296D01*
X64253Y-44305D01*
X64319Y-44305D01*
X64346Y-44296D01*
X64359Y-44288D01*
X64373Y-44270D01*
X64373Y-44236D01*
X64359Y-44219D01*
X64346Y-44210D01*
X64319Y-44202D01*
X61810Y-44551D02*
X61677Y-44611D01*
X61810Y-44654D02*
X61530Y-44654D01*
X61530Y-44586D01*
X61544Y-44568D01*
X61557Y-44560D01*
X61584Y-44551D01*
X61624Y-44551D01*
X61650Y-44560D01*
X61664Y-44568D01*
X61677Y-44586D01*
X61677Y-44654D01*
X61810Y-44380D02*
X61810Y-44483D01*
X61810Y-44431D02*
X61530Y-44431D01*
X61570Y-44448D01*
X61597Y-44466D01*
X61610Y-44483D01*
X61530Y-44320D02*
X61530Y-44200D01*
X61810Y-44277D01*
X55759Y-48505D02*
X55626Y-48565D01*
X55759Y-48608D02*
X55479Y-48608D01*
X55479Y-48540D01*
X55493Y-48522D01*
X55506Y-48514D01*
X55533Y-48505D01*
X55573Y-48505D01*
X55599Y-48514D01*
X55613Y-48522D01*
X55626Y-48540D01*
X55626Y-48608D01*
X55759Y-48334D02*
X55759Y-48437D01*
X55759Y-48385D02*
X55479Y-48385D01*
X55519Y-48402D01*
X55546Y-48420D01*
X55559Y-48437D01*
X55479Y-48274D02*
X55479Y-48163D01*
X55586Y-48223D01*
X55586Y-48197D01*
X55599Y-48180D01*
X55613Y-48171D01*
X55639Y-48163D01*
X55706Y-48163D01*
X55733Y-48171D01*
X55746Y-48180D01*
X55759Y-48197D01*
X55759Y-48249D01*
X55746Y-48266D01*
X55733Y-48274D01*
X55271Y-46928D02*
X55211Y-46795D01*
X55168Y-46928D02*
X55168Y-46648D01*
X55236Y-46648D01*
X55254Y-46662D01*
X55262Y-46675D01*
X55271Y-46702D01*
X55271Y-46742D01*
X55262Y-46768D01*
X55254Y-46782D01*
X55236Y-46795D01*
X55168Y-46795D01*
X55442Y-46928D02*
X55339Y-46928D01*
X55391Y-46928D02*
X55391Y-46648D01*
X55374Y-46688D01*
X55356Y-46715D01*
X55339Y-46728D01*
X55596Y-46648D02*
X55562Y-46648D01*
X55545Y-46662D01*
X55536Y-46675D01*
X55519Y-46715D01*
X55510Y-46768D01*
X55510Y-46875D01*
X55519Y-46902D01*
X55527Y-46915D01*
X55545Y-46928D01*
X55579Y-46928D01*
X55596Y-46915D01*
X55605Y-46902D01*
X55613Y-46875D01*
X55613Y-46808D01*
X55605Y-46782D01*
X55596Y-46768D01*
X55579Y-46755D01*
X55545Y-46755D01*
X55527Y-46768D01*
X55519Y-46782D01*
X55510Y-46808D01*
X54251Y-48607D02*
X54242Y-48620D01*
X54216Y-48633D01*
X54199Y-48633D01*
X54174Y-48620D01*
X54156Y-48593D01*
X54148Y-48567D01*
X54139Y-48513D01*
X54139Y-48473D01*
X54148Y-48420D01*
X54156Y-48393D01*
X54174Y-48367D01*
X54199Y-48353D01*
X54216Y-48353D01*
X54242Y-48367D01*
X54251Y-48380D01*
X54405Y-48353D02*
X54371Y-48353D01*
X54354Y-48367D01*
X54345Y-48380D01*
X54328Y-48420D01*
X54319Y-48473D01*
X54319Y-48580D01*
X54328Y-48607D01*
X54336Y-48620D01*
X54354Y-48633D01*
X54388Y-48633D01*
X54405Y-48620D01*
X54414Y-48607D01*
X54422Y-48580D01*
X54422Y-48513D01*
X54414Y-48487D01*
X54405Y-48473D01*
X54388Y-48460D01*
X54354Y-48460D01*
X54336Y-48473D01*
X54328Y-48487D01*
X54319Y-48513D01*
X54533Y-48353D02*
X54550Y-48353D01*
X54567Y-48367D01*
X54576Y-48380D01*
X54585Y-48407D01*
X54593Y-48460D01*
X54593Y-48527D01*
X54585Y-48580D01*
X54576Y-48607D01*
X54567Y-48620D01*
X54550Y-48633D01*
X54533Y-48633D01*
X54516Y-48620D01*
X54507Y-48607D01*
X54499Y-48580D01*
X54490Y-48527D01*
X54490Y-48460D01*
X54499Y-48407D01*
X54507Y-48380D01*
X54516Y-48367D01*
X54533Y-48353D01*
X57982Y-47980D02*
X57849Y-48040D01*
X57982Y-48083D02*
X57702Y-48083D01*
X57702Y-48015D01*
X57716Y-47997D01*
X57729Y-47989D01*
X57756Y-47980D01*
X57796Y-47980D01*
X57822Y-47989D01*
X57836Y-47997D01*
X57849Y-48015D01*
X57849Y-48083D01*
X57702Y-47826D02*
X57702Y-47860D01*
X57716Y-47877D01*
X57729Y-47886D01*
X57769Y-47903D01*
X57822Y-47912D01*
X57929Y-47912D01*
X57956Y-47903D01*
X57969Y-47895D01*
X57982Y-47877D01*
X57982Y-47843D01*
X57969Y-47826D01*
X57956Y-47817D01*
X57929Y-47809D01*
X57862Y-47809D01*
X57836Y-47817D01*
X57822Y-47826D01*
X57809Y-47843D01*
X57809Y-47877D01*
X57822Y-47895D01*
X57836Y-47903D01*
X57862Y-47912D01*
X55780Y-44816D02*
X55793Y-44825D01*
X55806Y-44851D01*
X55806Y-44868D01*
X55793Y-44893D01*
X55766Y-44911D01*
X55740Y-44919D01*
X55686Y-44928D01*
X55646Y-44928D01*
X55593Y-44919D01*
X55566Y-44911D01*
X55540Y-44893D01*
X55526Y-44868D01*
X55526Y-44851D01*
X55540Y-44825D01*
X55553Y-44816D01*
X55553Y-44748D02*
X55540Y-44739D01*
X55526Y-44722D01*
X55526Y-44679D01*
X55540Y-44662D01*
X55553Y-44653D01*
X55580Y-44645D01*
X55606Y-44645D01*
X55646Y-44653D01*
X55806Y-44756D01*
X55806Y-44645D01*
X55526Y-44491D02*
X55526Y-44525D01*
X55540Y-44542D01*
X55553Y-44551D01*
X55593Y-44568D01*
X55646Y-44577D01*
X55753Y-44577D01*
X55780Y-44568D01*
X55793Y-44560D01*
X55806Y-44542D01*
X55806Y-44508D01*
X55793Y-44491D01*
X55780Y-44482D01*
X55753Y-44474D01*
X55686Y-44474D01*
X55660Y-44482D01*
X55646Y-44491D01*
X55633Y-44508D01*
X55633Y-44542D01*
X55646Y-44560D01*
X55660Y-44568D01*
X55686Y-44577D01*
X56981Y-47044D02*
X56994Y-47053D01*
X57007Y-47079D01*
X57007Y-47096D01*
X56994Y-47121D01*
X56967Y-47139D01*
X56941Y-47147D01*
X56887Y-47156D01*
X56847Y-47156D01*
X56794Y-47147D01*
X56767Y-47139D01*
X56741Y-47121D01*
X56727Y-47096D01*
X56727Y-47079D01*
X56741Y-47053D01*
X56754Y-47044D01*
X56727Y-46881D02*
X56727Y-46967D01*
X56861Y-46976D01*
X56847Y-46967D01*
X56834Y-46950D01*
X56834Y-46907D01*
X56847Y-46890D01*
X56861Y-46881D01*
X56887Y-46873D01*
X56954Y-46873D01*
X56981Y-46881D01*
X56994Y-46890D01*
X57007Y-46907D01*
X57007Y-46950D01*
X56994Y-46967D01*
X56981Y-46976D01*
X56727Y-46813D02*
X56727Y-46702D01*
X56834Y-46762D01*
X56834Y-46736D01*
X56847Y-46719D01*
X56861Y-46710D01*
X56887Y-46702D01*
X56954Y-46702D01*
X56981Y-46710D01*
X56994Y-46719D01*
X57007Y-46736D01*
X57007Y-46788D01*
X56994Y-46805D01*
X56981Y-46813D01*
X55271Y-46516D02*
X55262Y-46529D01*
X55236Y-46542D01*
X55219Y-46542D01*
X55194Y-46529D01*
X55176Y-46502D01*
X55168Y-46476D01*
X55159Y-46422D01*
X55159Y-46382D01*
X55168Y-46329D01*
X55176Y-46302D01*
X55194Y-46276D01*
X55219Y-46262D01*
X55236Y-46262D01*
X55262Y-46276D01*
X55271Y-46289D01*
X55434Y-46262D02*
X55348Y-46262D01*
X55339Y-46396D01*
X55348Y-46382D01*
X55365Y-46369D01*
X55408Y-46369D01*
X55425Y-46382D01*
X55434Y-46396D01*
X55442Y-46422D01*
X55442Y-46489D01*
X55434Y-46516D01*
X55425Y-46529D01*
X55408Y-46542D01*
X55365Y-46542D01*
X55348Y-46529D01*
X55339Y-46516D01*
X55510Y-46289D02*
X55519Y-46276D01*
X55536Y-46262D01*
X55579Y-46262D01*
X55596Y-46276D01*
X55605Y-46289D01*
X55613Y-46316D01*
X55613Y-46342D01*
X55605Y-46382D01*
X55502Y-46542D01*
X55613Y-46542D01*
X66918Y-51088D02*
X66918Y-50808D01*
X66986Y-50808D01*
X67004Y-50822D01*
X67012Y-50835D01*
X67021Y-50862D01*
X67021Y-50902D01*
X67012Y-50928D01*
X67004Y-50942D01*
X66986Y-50955D01*
X66918Y-50955D01*
X67175Y-50902D02*
X67175Y-51088D01*
X67132Y-50795D02*
X67089Y-50995D01*
X67201Y-50995D01*
X61520Y-47983D02*
X61520Y-48183D01*
X61512Y-48223D01*
X61495Y-48250D01*
X61469Y-48263D01*
X61452Y-48263D01*
X61606Y-48263D02*
X61606Y-47983D01*
X61674Y-47983D01*
X61692Y-47997D01*
X61700Y-48010D01*
X61709Y-48037D01*
X61709Y-48077D01*
X61700Y-48103D01*
X61692Y-48117D01*
X61674Y-48130D01*
X61606Y-48130D01*
X61880Y-48263D02*
X61777Y-48263D01*
X61829Y-48263D02*
X61829Y-47983D01*
X61812Y-48023D01*
X61794Y-48050D01*
X61777Y-48063D01*
X62567Y-47983D02*
X62567Y-48183D01*
X62559Y-48223D01*
X62542Y-48250D01*
X62516Y-48263D01*
X62499Y-48263D01*
X62653Y-48263D02*
X62653Y-47983D01*
X62721Y-47983D01*
X62739Y-47997D01*
X62747Y-48010D01*
X62756Y-48037D01*
X62756Y-48077D01*
X62747Y-48103D01*
X62739Y-48117D01*
X62721Y-48130D01*
X62653Y-48130D01*
X62824Y-48010D02*
X62833Y-47997D01*
X62850Y-47983D01*
X62893Y-47983D01*
X62910Y-47997D01*
X62919Y-48010D01*
X62927Y-48037D01*
X62927Y-48063D01*
X62919Y-48103D01*
X62816Y-48263D01*
X62927Y-48263D01*
X49632Y-47700D02*
X49645Y-47674D01*
X49658Y-47666D01*
X49685Y-47657D01*
X49725Y-47657D01*
X49752Y-47666D01*
X49765Y-47674D01*
X49778Y-47692D01*
X49778Y-47760D01*
X49498Y-47760D01*
X49498Y-47700D01*
X49512Y-47683D01*
X49525Y-47674D01*
X49552Y-47666D01*
X49578Y-47666D01*
X49605Y-47674D01*
X49618Y-47683D01*
X49632Y-47700D01*
X49632Y-47760D01*
X49498Y-47606D02*
X49498Y-47503D01*
X49778Y-47554D02*
X49498Y-47554D01*
X49778Y-47349D02*
X49778Y-47452D01*
X49778Y-47400D02*
X49498Y-47400D01*
X49538Y-47417D01*
X49565Y-47435D01*
X49578Y-47452D01*
X52144Y-32483D02*
X52144Y-32203D01*
X52212Y-32203D01*
X52230Y-32217D01*
X52238Y-32230D01*
X52247Y-32257D01*
X52247Y-32297D01*
X52238Y-32323D01*
X52230Y-32337D01*
X52212Y-32350D01*
X52144Y-32350D01*
X52401Y-32203D02*
X52367Y-32203D01*
X52350Y-32217D01*
X52341Y-32230D01*
X52324Y-32270D01*
X52315Y-32323D01*
X52315Y-32430D01*
X52324Y-32457D01*
X52332Y-32470D01*
X52350Y-32483D01*
X52384Y-32483D01*
X52401Y-32470D01*
X52410Y-32457D01*
X52418Y-32430D01*
X52418Y-32363D01*
X52410Y-32337D01*
X52401Y-32323D01*
X52384Y-32310D01*
X52350Y-32310D01*
X52332Y-32323D01*
X52324Y-32337D01*
X52315Y-32363D01*
X63633Y-47975D02*
X63633Y-48175D01*
X63625Y-48215D01*
X63608Y-48242D01*
X63582Y-48255D01*
X63565Y-48255D01*
X63719Y-48255D02*
X63719Y-47975D01*
X63787Y-47975D01*
X63805Y-47989D01*
X63813Y-48002D01*
X63822Y-48029D01*
X63822Y-48069D01*
X63813Y-48095D01*
X63805Y-48109D01*
X63787Y-48122D01*
X63719Y-48122D01*
X63882Y-47975D02*
X63993Y-47975D01*
X63933Y-48082D01*
X63959Y-48082D01*
X63976Y-48095D01*
X63985Y-48109D01*
X63993Y-48135D01*
X63993Y-48202D01*
X63985Y-48229D01*
X63976Y-48242D01*
X63959Y-48255D01*
X63907Y-48255D01*
X63890Y-48242D01*
X63882Y-48229D01*
X63435Y-45113D02*
X63375Y-44980D01*
X63332Y-45113D02*
X63332Y-44833D01*
X63400Y-44833D01*
X63418Y-44847D01*
X63426Y-44860D01*
X63435Y-44887D01*
X63435Y-44927D01*
X63426Y-44953D01*
X63418Y-44967D01*
X63400Y-44980D01*
X63332Y-44980D01*
X63606Y-45113D02*
X63503Y-45113D01*
X63555Y-45113D02*
X63555Y-44833D01*
X63538Y-44873D01*
X63520Y-44900D01*
X63503Y-44913D01*
X63709Y-44953D02*
X63691Y-44940D01*
X63683Y-44927D01*
X63674Y-44900D01*
X63674Y-44887D01*
X63683Y-44860D01*
X63691Y-44847D01*
X63709Y-44833D01*
X63743Y-44833D01*
X63760Y-44847D01*
X63769Y-44860D01*
X63777Y-44887D01*
X63777Y-44900D01*
X63769Y-44927D01*
X63760Y-44940D01*
X63743Y-44953D01*
X63709Y-44953D01*
X63691Y-44967D01*
X63683Y-44980D01*
X63674Y-45007D01*
X63674Y-45060D01*
X63683Y-45087D01*
X63691Y-45100D01*
X63709Y-45113D01*
X63743Y-45113D01*
X63760Y-45100D01*
X63769Y-45087D01*
X63777Y-45060D01*
X63777Y-45007D01*
X63769Y-44980D01*
X63760Y-44967D01*
X63743Y-44953D01*
X62680Y-42517D02*
X62547Y-42577D01*
X62680Y-42620D02*
X62400Y-42620D01*
X62400Y-42552D01*
X62414Y-42534D01*
X62427Y-42526D01*
X62454Y-42517D01*
X62494Y-42517D01*
X62520Y-42526D01*
X62534Y-42534D01*
X62547Y-42552D01*
X62547Y-42620D01*
X62680Y-42346D02*
X62680Y-42449D01*
X62680Y-42397D02*
X62400Y-42397D01*
X62440Y-42414D01*
X62467Y-42432D01*
X62480Y-42449D01*
X62400Y-42183D02*
X62400Y-42269D01*
X62534Y-42278D01*
X62520Y-42269D01*
X62507Y-42252D01*
X62507Y-42209D01*
X62520Y-42192D01*
X62534Y-42183D01*
X62560Y-42175D01*
X62627Y-42175D01*
X62654Y-42183D01*
X62667Y-42192D01*
X62680Y-42209D01*
X62680Y-42252D01*
X62667Y-42269D01*
X62654Y-42278D01*
X60913Y-47940D02*
X60780Y-48000D01*
X60913Y-48043D02*
X60633Y-48043D01*
X60633Y-47975D01*
X60647Y-47957D01*
X60660Y-47949D01*
X60687Y-47940D01*
X60727Y-47940D01*
X60753Y-47949D01*
X60767Y-47957D01*
X60780Y-47975D01*
X60780Y-48043D01*
X60913Y-47769D02*
X60913Y-47872D01*
X60913Y-47820D02*
X60633Y-47820D01*
X60673Y-47837D01*
X60700Y-47855D01*
X60713Y-47872D01*
X60913Y-47598D02*
X60913Y-47701D01*
X60913Y-47649D02*
X60633Y-47649D01*
X60673Y-47666D01*
X60700Y-47684D01*
X60713Y-47701D01*
X60054Y-45864D02*
X59774Y-45864D01*
X59774Y-45821D01*
X59788Y-45796D01*
X59814Y-45778D01*
X59841Y-45770D01*
X59894Y-45761D01*
X59934Y-45761D01*
X59988Y-45770D01*
X60014Y-45778D01*
X60041Y-45796D01*
X60054Y-45821D01*
X60054Y-45864D01*
X59774Y-45598D02*
X59774Y-45684D01*
X59908Y-45693D01*
X59894Y-45684D01*
X59881Y-45667D01*
X59881Y-45624D01*
X59894Y-45607D01*
X59908Y-45598D01*
X59934Y-45590D01*
X60001Y-45590D01*
X60028Y-45598D01*
X60041Y-45607D01*
X60054Y-45624D01*
X60054Y-45667D01*
X60041Y-45684D01*
X60028Y-45693D01*
X67092Y-33664D02*
X67092Y-33384D01*
X67135Y-33384D01*
X67160Y-33398D01*
X67178Y-33424D01*
X67186Y-33451D01*
X67195Y-33504D01*
X67195Y-33544D01*
X67186Y-33598D01*
X67178Y-33624D01*
X67160Y-33651D01*
X67135Y-33664D01*
X67092Y-33664D01*
X67263Y-33411D02*
X67272Y-33398D01*
X67289Y-33384D01*
X67332Y-33384D01*
X67349Y-33398D01*
X67358Y-33411D01*
X67366Y-33438D01*
X67366Y-33464D01*
X67358Y-33504D01*
X67255Y-33664D01*
X67366Y-33664D01*
M02*
