G04 (created by PCBNEW-RS274X (2011-01-25 BZR 2758)-stable) date Tue 26 Apr 2011 02:48:04 PM COT*
G01*
G70*
G90*
%MOIN*%
G04 Gerber Fmt 3.4, Leading zero omitted, Abs format*
%FSLAX34Y34*%
G04 APERTURE LIST*
%ADD10C,0.006000*%
%ADD11R,0.011800X0.027500*%
%ADD12O,0.085900X0.171900*%
%ADD13R,0.031400X0.031400*%
%ADD14R,0.060000X0.060000*%
%ADD15C,0.060000*%
%ADD16C,0.066000*%
%ADD17C,0.076000*%
%ADD18R,0.035000X0.008000*%
%ADD19R,0.008000X0.035000*%
%ADD20R,0.026000X0.062000*%
%ADD21R,0.062000X0.054000*%
%ADD22R,0.046000X0.086000*%
%ADD23R,0.046000X0.054000*%
%ADD24R,0.025000X0.045000*%
%ADD25R,0.045000X0.025000*%
%ADD26R,0.060000X0.080000*%
%ADD27R,0.080000X0.060000*%
%ADD28C,0.019700*%
%ADD29C,0.007900*%
%ADD30C,0.011800*%
%ADD31C,0.015700*%
%ADD32C,0.039400*%
%ADD33C,0.031500*%
%ADD34C,0.010000*%
G04 APERTURE END LIST*
G54D10*
G54D11*
X56375Y-46644D03*
X56120Y-46644D03*
X55865Y-46644D03*
X55865Y-47272D03*
X56120Y-47272D03*
X56375Y-47272D03*
G54D12*
X46524Y-33307D03*
X47705Y-35196D03*
X48886Y-33307D03*
G54D13*
X46347Y-47492D03*
X46937Y-47492D03*
X66177Y-35555D03*
X66767Y-35555D03*
G54D14*
X46793Y-37553D03*
G54D15*
X47793Y-37553D03*
X46793Y-38553D03*
X47793Y-38553D03*
X46793Y-39553D03*
X47793Y-39553D03*
X46793Y-40553D03*
X47793Y-40553D03*
X46793Y-41553D03*
X47793Y-41553D03*
X46793Y-42553D03*
X47793Y-42553D03*
X46793Y-43553D03*
X47793Y-43553D03*
X46793Y-44553D03*
X47793Y-44553D03*
G54D16*
X54809Y-50218D03*
X56579Y-50218D03*
G54D17*
X54309Y-49238D03*
X57069Y-49238D03*
G54D18*
X57919Y-43054D03*
G54D19*
X57228Y-37495D03*
G54D18*
X51669Y-38186D03*
G54D19*
X52360Y-43745D03*
G54D18*
X57919Y-42897D03*
G54D19*
X57071Y-37495D03*
G54D18*
X51669Y-38343D03*
G54D19*
X52517Y-43745D03*
G54D18*
X57919Y-42740D03*
G54D19*
X56914Y-37495D03*
G54D18*
X51669Y-38500D03*
G54D19*
X52674Y-43745D03*
G54D18*
X57919Y-42583D03*
G54D19*
X56757Y-37495D03*
G54D18*
X51669Y-38657D03*
G54D19*
X52831Y-43745D03*
G54D18*
X57919Y-42426D03*
G54D19*
X56600Y-37495D03*
G54D18*
X51669Y-38814D03*
G54D19*
X52988Y-43745D03*
G54D18*
X57919Y-42269D03*
G54D19*
X56443Y-37495D03*
G54D18*
X51669Y-38971D03*
G54D19*
X53145Y-43745D03*
G54D18*
X57919Y-42112D03*
G54D19*
X56286Y-37495D03*
G54D18*
X51669Y-39128D03*
G54D19*
X53302Y-43745D03*
G54D18*
X57919Y-41955D03*
G54D19*
X56129Y-37495D03*
G54D18*
X51669Y-39285D03*
G54D19*
X53459Y-43745D03*
G54D18*
X57919Y-41798D03*
G54D19*
X55972Y-37495D03*
G54D18*
X51669Y-39442D03*
G54D19*
X53616Y-43745D03*
G54D18*
X57919Y-41641D03*
G54D19*
X55815Y-37495D03*
G54D18*
X51669Y-39599D03*
G54D19*
X53773Y-43745D03*
G54D18*
X57919Y-41484D03*
G54D19*
X55658Y-37495D03*
G54D18*
X51669Y-39756D03*
G54D19*
X53930Y-43745D03*
G54D18*
X57919Y-41327D03*
G54D19*
X55501Y-37495D03*
G54D18*
X51669Y-39913D03*
G54D19*
X54087Y-43745D03*
G54D18*
X57919Y-41170D03*
G54D19*
X55344Y-37495D03*
G54D18*
X51669Y-40070D03*
G54D19*
X54244Y-43745D03*
G54D18*
X57919Y-41013D03*
G54D19*
X55187Y-37495D03*
G54D18*
X51669Y-40227D03*
G54D19*
X54401Y-43745D03*
G54D18*
X57919Y-40856D03*
G54D19*
X55030Y-37495D03*
G54D18*
X51669Y-40384D03*
G54D19*
X54558Y-43745D03*
G54D18*
X57919Y-40699D03*
G54D19*
X54873Y-37495D03*
G54D18*
X51669Y-40541D03*
G54D19*
X54715Y-43745D03*
G54D18*
X57919Y-40542D03*
G54D19*
X54716Y-37495D03*
G54D18*
X51669Y-40698D03*
G54D19*
X54872Y-43745D03*
G54D18*
X57919Y-40385D03*
G54D19*
X54559Y-37495D03*
G54D18*
X51669Y-40855D03*
G54D19*
X55029Y-43745D03*
G54D18*
X57919Y-40228D03*
G54D19*
X54402Y-37495D03*
G54D18*
X51669Y-41012D03*
G54D19*
X55186Y-43745D03*
G54D18*
X57919Y-40071D03*
G54D19*
X54245Y-37495D03*
G54D18*
X51669Y-41169D03*
G54D19*
X55343Y-43745D03*
G54D18*
X57919Y-39914D03*
G54D19*
X54088Y-37495D03*
G54D18*
X51669Y-41326D03*
G54D19*
X55500Y-43745D03*
G54D18*
X57919Y-39757D03*
G54D19*
X53931Y-37495D03*
G54D18*
X51669Y-41483D03*
G54D19*
X55657Y-43745D03*
G54D18*
X57919Y-39600D03*
G54D19*
X53774Y-37495D03*
G54D18*
X51669Y-41640D03*
G54D19*
X55814Y-43745D03*
G54D18*
X57919Y-39443D03*
G54D19*
X53617Y-37495D03*
G54D18*
X51669Y-41797D03*
G54D19*
X55971Y-43745D03*
G54D18*
X57919Y-39286D03*
G54D19*
X53460Y-37495D03*
G54D18*
X51669Y-41954D03*
G54D19*
X56128Y-43745D03*
G54D18*
X57919Y-39129D03*
G54D19*
X53303Y-37495D03*
G54D18*
X51669Y-42111D03*
G54D19*
X56285Y-43745D03*
G54D18*
X57919Y-38972D03*
G54D19*
X53146Y-37495D03*
G54D18*
X51669Y-42268D03*
G54D19*
X56442Y-43745D03*
G54D18*
X57919Y-38815D03*
G54D19*
X52989Y-37495D03*
G54D18*
X51669Y-42425D03*
G54D19*
X56599Y-43745D03*
G54D18*
X57919Y-38658D03*
G54D19*
X52832Y-37495D03*
G54D18*
X51669Y-42582D03*
G54D19*
X56756Y-43745D03*
G54D18*
X57919Y-38501D03*
G54D19*
X52675Y-37495D03*
G54D18*
X51669Y-42739D03*
G54D19*
X56913Y-43745D03*
G54D18*
X57919Y-38344D03*
G54D19*
X52518Y-37495D03*
G54D18*
X51669Y-42896D03*
G54D19*
X57070Y-43745D03*
G54D18*
X57919Y-38187D03*
G54D19*
X52361Y-37495D03*
G54D18*
X51669Y-43053D03*
G54D19*
X57227Y-43745D03*
G54D20*
X60440Y-37321D03*
X60870Y-37321D03*
X61300Y-37321D03*
X61740Y-37321D03*
X62170Y-37321D03*
X62600Y-37321D03*
X63040Y-37321D03*
X63470Y-37321D03*
X63900Y-37321D03*
G54D21*
X58630Y-37121D03*
G54D22*
X58270Y-33341D03*
X64370Y-33341D03*
G54D23*
X64380Y-37121D03*
G54D24*
X66153Y-34224D03*
X66753Y-34224D03*
X66761Y-34898D03*
X66161Y-34898D03*
X46306Y-46803D03*
X46906Y-46803D03*
G54D25*
X58752Y-46087D03*
X58752Y-45487D03*
G54D24*
X49540Y-44102D03*
X48940Y-44102D03*
G54D14*
X65651Y-36797D03*
G54D15*
X66651Y-36797D03*
X65651Y-37797D03*
X66651Y-37797D03*
X65651Y-38797D03*
X66651Y-38797D03*
X65651Y-39797D03*
X66651Y-39797D03*
X65651Y-40797D03*
X66651Y-40797D03*
X65651Y-41797D03*
X66651Y-41797D03*
X65651Y-42797D03*
X66651Y-42797D03*
X65651Y-43797D03*
X66651Y-43797D03*
X65651Y-44797D03*
X66651Y-44797D03*
X65651Y-45797D03*
X66651Y-45797D03*
X65651Y-46797D03*
X66651Y-46797D03*
X65651Y-47797D03*
X66651Y-47797D03*
G54D24*
X62843Y-40953D03*
X62243Y-40953D03*
G54D16*
X59029Y-50218D03*
X60799Y-50218D03*
G54D17*
X58529Y-49238D03*
X61289Y-49238D03*
G54D16*
X50494Y-50218D03*
X52264Y-50218D03*
G54D17*
X49994Y-49238D03*
X52754Y-49238D03*
G54D26*
X49844Y-46595D03*
X51144Y-46595D03*
X52144Y-47095D03*
X53444Y-47095D03*
X49269Y-45545D03*
X47969Y-45545D03*
G54D27*
X58809Y-43348D03*
X58809Y-44648D03*
G54D25*
X56319Y-45220D03*
X56319Y-45820D03*
X54394Y-45220D03*
X54394Y-45820D03*
X53144Y-45220D03*
X53144Y-45820D03*
G54D24*
X52619Y-46295D03*
X53219Y-46295D03*
G54D25*
X52519Y-45195D03*
X52519Y-45795D03*
X49969Y-45245D03*
X49969Y-45845D03*
X51244Y-45245D03*
X51244Y-45845D03*
X53769Y-45220D03*
X53769Y-45820D03*
X50619Y-45245D03*
X50619Y-45845D03*
X51894Y-45170D03*
X51894Y-45770D03*
G54D24*
X49569Y-42020D03*
X48969Y-42020D03*
G54D25*
X55044Y-45220D03*
X55044Y-45820D03*
G54D24*
X49494Y-44745D03*
X48894Y-44745D03*
G54D25*
X60860Y-43678D03*
X60860Y-44278D03*
X60234Y-43717D03*
X60234Y-44317D03*
G54D24*
X49585Y-43269D03*
X48985Y-43269D03*
X55054Y-36712D03*
X55654Y-36712D03*
X49569Y-42645D03*
X48969Y-42645D03*
G54D25*
X59620Y-43741D03*
X59620Y-44341D03*
X64315Y-44920D03*
X64315Y-45520D03*
X61669Y-44920D03*
X61669Y-45520D03*
X55277Y-47151D03*
X55277Y-47751D03*
G54D24*
X54731Y-47132D03*
X54131Y-47132D03*
X54746Y-47738D03*
X54146Y-47738D03*
G54D25*
X58300Y-47780D03*
X58300Y-47180D03*
X55694Y-45220D03*
X55694Y-45820D03*
X56938Y-45832D03*
X56938Y-46432D03*
G54D24*
X54319Y-46495D03*
X54919Y-46495D03*
G54D14*
X66256Y-49169D03*
G54D15*
X66256Y-50169D03*
X65256Y-49169D03*
X65256Y-50169D03*
X64256Y-49169D03*
X64256Y-50169D03*
X63256Y-49169D03*
X63256Y-50169D03*
G54D14*
X61654Y-47390D03*
G54D15*
X61654Y-46390D03*
G54D14*
X62744Y-47390D03*
G54D15*
X62744Y-46390D03*
G54D14*
X48718Y-46730D03*
G54D15*
X48718Y-47730D03*
G54D14*
X51413Y-32366D03*
G54D15*
X50413Y-32366D03*
G54D14*
X63827Y-46382D03*
G54D15*
X63827Y-47382D03*
G54D24*
X63204Y-45484D03*
X63804Y-45484D03*
G54D25*
X61929Y-42670D03*
X61929Y-42070D03*
X60783Y-46783D03*
X60783Y-47383D03*
X59406Y-45487D03*
X59406Y-46087D03*
G54D24*
X66153Y-33520D03*
X66753Y-33520D03*
G54D28*
X51218Y-38285D03*
X51616Y-37128D03*
X51627Y-36836D03*
X49551Y-39213D03*
X49738Y-36754D03*
X49978Y-36549D03*
X50498Y-36825D03*
X50773Y-36628D03*
X51061Y-40124D03*
X50864Y-40325D03*
X52118Y-38850D03*
X52339Y-39366D03*
X56627Y-39238D03*
X53941Y-38106D03*
X53406Y-37976D03*
X53228Y-38181D03*
X55791Y-39193D03*
X55094Y-39189D03*
X54799Y-39193D03*
X54339Y-39480D03*
X53592Y-36573D03*
X56390Y-38205D03*
X55561Y-37145D03*
X52297Y-40116D03*
X61457Y-33524D03*
X61071Y-38059D03*
X62890Y-38043D03*
X61244Y-35386D03*
X58732Y-38421D03*
X62063Y-36831D03*
X60647Y-35088D03*
X60657Y-38000D03*
X50557Y-40328D03*
X49978Y-39462D03*
X49827Y-39240D03*
X49498Y-36549D03*
X50246Y-36974D03*
X52088Y-38242D03*
X52252Y-36094D03*
X53169Y-36331D03*
X56828Y-39014D03*
X54217Y-38083D03*
X53665Y-38154D03*
X56610Y-35776D03*
X56438Y-39025D03*
X55394Y-39177D03*
X54328Y-36584D03*
X54179Y-36821D03*
X54616Y-37136D03*
X52108Y-38521D03*
X61957Y-33421D03*
X63173Y-38197D03*
X60591Y-38276D03*
X59717Y-38488D03*
X59297Y-38762D03*
X64820Y-38348D03*
X58474Y-38543D03*
X58690Y-38726D03*
X65049Y-37801D03*
X63705Y-37787D03*
X59094Y-37744D03*
X63689Y-36843D03*
X62291Y-36618D03*
X57457Y-44047D03*
X57528Y-43764D03*
X60293Y-43029D03*
X60331Y-42760D03*
X60567Y-42622D03*
X64472Y-47335D03*
X59965Y-42370D03*
X60307Y-42154D03*
X60146Y-41937D03*
X60358Y-41720D03*
X60622Y-41504D03*
X57293Y-41722D03*
X57415Y-40935D03*
X54139Y-44825D03*
X53813Y-44758D03*
X55683Y-44368D03*
X57772Y-44583D03*
X58248Y-45409D03*
X58051Y-44445D03*
X50130Y-42323D03*
X48407Y-42277D03*
X50057Y-43521D03*
X50852Y-43285D03*
X52072Y-41675D03*
X52442Y-41943D03*
X52218Y-43076D03*
X50236Y-41230D03*
X49803Y-41398D03*
X50374Y-41661D03*
X51146Y-41882D03*
X49941Y-42122D03*
X60713Y-49681D03*
X61984Y-50154D03*
X60469Y-48524D03*
X60677Y-48343D03*
X56183Y-44612D03*
X55600Y-46250D03*
X56976Y-45504D03*
X56399Y-44836D03*
X66980Y-49870D03*
X61350Y-41228D03*
X60413Y-44819D03*
X61260Y-45547D03*
X62114Y-45929D03*
X63541Y-32388D03*
X55724Y-48020D03*
X56004Y-48681D03*
X56835Y-48681D03*
X54797Y-44852D03*
X59394Y-35378D03*
X64024Y-36626D03*
X54780Y-48189D03*
X55551Y-49417D03*
X57866Y-49846D03*
X59846Y-49795D03*
X57898Y-43488D03*
X55344Y-36358D03*
X53568Y-44258D03*
X55273Y-46199D03*
X57557Y-38510D03*
X59777Y-34191D03*
X53320Y-35809D03*
X53785Y-35769D03*
X56903Y-35923D03*
X56131Y-39403D03*
X54627Y-39415D03*
X62801Y-36612D03*
X53726Y-47785D03*
X54750Y-41112D03*
X54600Y-41632D03*
X55019Y-43070D03*
X51369Y-44420D03*
X51769Y-44120D03*
X54717Y-44358D03*
X55316Y-48171D03*
X55372Y-48840D03*
X53742Y-48147D03*
X59324Y-48482D03*
X52411Y-44439D03*
X58639Y-40612D03*
X59171Y-40675D03*
X58728Y-34098D03*
X59343Y-34106D03*
X52734Y-42923D03*
X49795Y-44756D03*
X49970Y-44586D03*
X47911Y-48994D03*
X47697Y-48780D03*
X48098Y-49169D03*
X51840Y-43671D03*
X53163Y-43297D03*
X51576Y-43521D03*
X52431Y-43248D03*
X54212Y-43021D03*
X53907Y-42982D03*
X52131Y-43415D03*
X50423Y-43228D03*
X52883Y-42175D03*
X55718Y-42421D03*
X57480Y-42736D03*
X57273Y-42460D03*
X55301Y-42395D03*
X52584Y-42187D03*
X51003Y-42736D03*
X50144Y-43220D03*
X50498Y-42699D03*
X58732Y-32433D03*
X65378Y-33646D03*
X59772Y-45106D03*
X60634Y-45799D03*
X62783Y-45551D03*
X64413Y-45858D03*
X63087Y-44949D03*
X62717Y-44098D03*
X63106Y-43248D03*
X62713Y-43252D03*
X61740Y-36839D03*
X61013Y-36712D03*
X65311Y-36012D03*
X65047Y-36280D03*
X61535Y-38488D03*
X61909Y-38488D03*
X60629Y-36545D03*
X52933Y-41634D03*
X53887Y-41614D03*
X57151Y-40715D03*
X57313Y-40553D03*
X52627Y-41620D03*
X54250Y-41620D03*
X54217Y-33579D03*
X55677Y-34417D03*
X57435Y-39071D03*
X57083Y-38559D03*
X55244Y-37846D03*
X54346Y-37846D03*
X55738Y-40531D03*
X55887Y-40305D03*
X54120Y-35758D03*
X54564Y-35750D03*
X56139Y-36600D03*
X56935Y-38309D03*
X56931Y-41372D03*
X56478Y-42840D03*
X57435Y-39348D03*
X54053Y-36576D03*
X53907Y-43269D03*
X49996Y-44944D03*
X52775Y-44576D03*
X52765Y-44321D03*
X50167Y-44785D03*
X53549Y-44655D03*
X53370Y-44465D03*
X52954Y-42443D03*
X57378Y-45441D03*
G54D29*
X51669Y-38343D02*
X51276Y-38343D01*
X51276Y-38343D02*
X51218Y-38285D01*
X51669Y-38343D02*
X51446Y-38343D01*
X51669Y-37181D02*
X51669Y-38186D01*
X51616Y-37128D02*
X51669Y-37181D01*
X52361Y-37495D02*
X52286Y-37495D01*
X52286Y-37495D02*
X51627Y-36836D01*
X51669Y-39442D02*
X50493Y-39442D01*
X49756Y-39008D02*
X49551Y-39213D01*
X50059Y-39008D02*
X49756Y-39008D01*
X50493Y-39442D02*
X50059Y-39008D01*
X50643Y-39128D02*
X51669Y-39128D01*
X49750Y-38235D02*
X50643Y-39128D01*
X49750Y-36766D02*
X49750Y-38235D01*
X49738Y-36754D02*
X49750Y-36766D01*
X51669Y-38971D02*
X50805Y-38971D01*
X49978Y-38144D02*
X49978Y-36549D01*
X50805Y-38971D02*
X49978Y-38144D01*
X51669Y-38653D02*
X51669Y-38657D01*
X50976Y-38653D02*
X51669Y-38653D01*
X50494Y-38171D02*
X50976Y-38653D01*
X50494Y-36829D02*
X50494Y-38171D01*
X50498Y-36825D02*
X50494Y-36829D01*
X51098Y-38500D02*
X51669Y-38500D01*
X50750Y-38152D02*
X51098Y-38500D01*
X50750Y-36651D02*
X50750Y-38152D01*
X50773Y-36628D02*
X50750Y-36651D01*
X51669Y-40384D02*
X51321Y-40384D01*
X51321Y-40384D02*
X51061Y-40124D01*
X51669Y-40541D02*
X51080Y-40541D01*
X51080Y-40541D02*
X50864Y-40325D01*
X52836Y-37495D02*
X52832Y-37495D01*
X52836Y-38132D02*
X52836Y-37495D01*
X52118Y-38850D02*
X52836Y-38132D01*
X51669Y-40231D02*
X51669Y-40227D01*
X52098Y-40231D02*
X51669Y-40231D01*
X52213Y-40346D02*
X52098Y-40231D01*
X52390Y-40346D02*
X52213Y-40346D01*
X52524Y-40212D02*
X52390Y-40346D01*
X52524Y-39961D02*
X52524Y-40212D01*
X52354Y-39791D02*
X52524Y-39961D01*
X52354Y-39381D02*
X52354Y-39791D01*
X52339Y-39366D02*
X52354Y-39381D01*
X56179Y-39065D02*
X56179Y-39081D01*
X56336Y-39238D02*
X56627Y-39238D01*
X56179Y-39081D02*
X56336Y-39238D01*
X55658Y-38544D02*
X56179Y-39065D01*
X55658Y-37495D02*
X55658Y-38544D01*
X53774Y-37495D02*
X53774Y-37947D01*
X53933Y-38106D02*
X53941Y-38106D01*
X53774Y-37947D02*
X53933Y-38106D01*
X53770Y-37493D02*
X53774Y-37495D01*
X53303Y-37495D02*
X53303Y-37873D01*
X53303Y-37873D02*
X53406Y-37976D01*
X53146Y-37495D02*
X53146Y-38099D01*
X53146Y-38099D02*
X53228Y-38181D01*
X55501Y-38906D02*
X55504Y-38906D01*
X55501Y-37495D02*
X55501Y-38906D01*
X55504Y-38906D02*
X55791Y-39193D01*
X54873Y-38879D02*
X54873Y-38968D01*
X54873Y-37495D02*
X54873Y-38879D01*
X54873Y-38968D02*
X55094Y-39189D01*
X54716Y-39020D02*
X54716Y-39110D01*
X54716Y-39110D02*
X54799Y-39193D01*
X54716Y-37495D02*
X54716Y-39020D01*
X54716Y-39020D02*
X54716Y-39023D01*
X54354Y-39056D02*
X54559Y-38851D01*
X54354Y-39465D02*
X54354Y-39056D01*
X54339Y-39480D02*
X54354Y-39465D01*
X54559Y-37495D02*
X54559Y-38851D01*
X53617Y-36598D02*
X53617Y-37495D01*
X53592Y-36573D02*
X53617Y-36598D01*
X56286Y-37495D02*
X56286Y-38101D01*
X56286Y-38101D02*
X56390Y-38205D01*
X56129Y-37495D02*
X56129Y-37262D01*
X56012Y-37145D02*
X55561Y-37145D01*
X56129Y-37262D02*
X56012Y-37145D01*
X51669Y-40070D02*
X52251Y-40070D01*
X52251Y-40070D02*
X52297Y-40116D01*
X63040Y-37321D02*
X63040Y-35107D01*
X63040Y-35107D02*
X61457Y-33524D01*
X59425Y-39757D02*
X61071Y-38111D01*
X61071Y-38111D02*
X61071Y-38059D01*
X57919Y-39757D02*
X59425Y-39757D01*
X63040Y-37893D02*
X63040Y-37321D01*
X62890Y-38043D02*
X63040Y-37893D01*
X57919Y-39761D02*
X57919Y-39757D01*
X60440Y-37321D02*
X60440Y-36712D01*
X61004Y-35386D02*
X61244Y-35386D01*
X60268Y-36122D02*
X61004Y-35386D01*
X60268Y-36540D02*
X60268Y-36122D01*
X60440Y-36712D02*
X60268Y-36540D01*
X57919Y-39443D02*
X59172Y-39443D01*
X60268Y-37493D02*
X60440Y-37321D01*
X60268Y-38347D02*
X60268Y-37493D01*
X59172Y-39443D02*
X60268Y-38347D01*
X58732Y-38421D02*
X58933Y-38622D01*
X58933Y-38622D02*
X58933Y-38855D01*
X58933Y-38855D02*
X58812Y-38976D01*
X58812Y-38976D02*
X57919Y-38976D01*
X57919Y-38972D02*
X57919Y-38976D01*
X62170Y-37321D02*
X62170Y-36938D01*
X62170Y-36938D02*
X62063Y-36831D01*
X58253Y-37592D02*
X58927Y-37592D01*
X58156Y-37495D02*
X58253Y-37592D01*
X57228Y-37495D02*
X58156Y-37495D01*
X59846Y-36673D02*
X59846Y-35889D01*
X58927Y-37592D02*
X59846Y-36673D01*
X59844Y-35891D02*
X59846Y-35889D01*
X59846Y-35889D02*
X60647Y-35088D01*
X60870Y-37321D02*
X60870Y-37787D01*
X60870Y-37787D02*
X60657Y-38000D01*
X51669Y-39913D02*
X50968Y-39913D01*
X50557Y-40324D02*
X50557Y-40328D01*
X50968Y-39913D02*
X50557Y-40324D01*
X51669Y-39756D02*
X50272Y-39756D01*
X50272Y-39756D02*
X49978Y-39462D01*
X51669Y-39599D02*
X50434Y-39599D01*
X50075Y-39240D02*
X49827Y-39240D01*
X50434Y-39599D02*
X50075Y-39240D01*
X51669Y-39285D02*
X50565Y-39285D01*
X49498Y-38218D02*
X49498Y-36549D01*
X50565Y-39285D02*
X49498Y-38218D01*
X50873Y-38814D02*
X51669Y-38814D01*
X50253Y-38194D02*
X50873Y-38814D01*
X50253Y-36981D02*
X50253Y-38194D01*
X50246Y-36974D02*
X50253Y-36981D01*
X52518Y-37812D02*
X52518Y-37495D01*
X52088Y-38242D02*
X52518Y-37812D01*
X52258Y-36100D02*
X52252Y-36094D01*
X56757Y-36572D02*
X56745Y-36572D01*
X56757Y-36573D02*
X56757Y-36572D01*
X54844Y-35986D02*
X54730Y-36100D01*
X56159Y-35986D02*
X54844Y-35986D01*
X56745Y-36572D02*
X56159Y-35986D01*
X54730Y-36100D02*
X52258Y-36100D01*
X56757Y-36573D02*
X56757Y-36573D01*
X56757Y-36573D02*
X56757Y-37495D01*
X54225Y-36344D02*
X53182Y-36344D01*
X56104Y-36147D02*
X56604Y-36647D01*
X56600Y-36647D02*
X56604Y-36647D01*
X54225Y-36344D02*
X54785Y-36344D01*
X54982Y-36147D02*
X56100Y-36147D01*
X54785Y-36344D02*
X54982Y-36147D01*
X56100Y-36147D02*
X56104Y-36147D01*
X53182Y-36344D02*
X53169Y-36331D01*
X56600Y-36651D02*
X56600Y-36647D01*
X56600Y-36647D02*
X56600Y-36651D01*
X56600Y-36651D02*
X56600Y-37495D01*
X55976Y-37495D02*
X55972Y-37495D01*
X55976Y-38166D02*
X55976Y-37495D01*
X56828Y-39014D02*
X55976Y-38166D01*
X53931Y-37495D02*
X53931Y-37797D01*
X53931Y-37797D02*
X54217Y-38083D01*
X53460Y-37495D02*
X53460Y-37719D01*
X53618Y-38107D02*
X53665Y-38154D01*
X53618Y-37877D02*
X53618Y-38107D01*
X53460Y-37719D02*
X53618Y-37877D01*
X52989Y-37154D02*
X52031Y-36196D01*
X52031Y-36196D02*
X52031Y-35996D01*
X52031Y-35996D02*
X52492Y-35535D01*
X52492Y-35535D02*
X55563Y-35535D01*
X52989Y-37154D02*
X52989Y-37495D01*
X55563Y-35544D02*
X55563Y-35535D01*
X55795Y-35776D02*
X55563Y-35544D01*
X56610Y-35776D02*
X55795Y-35776D01*
X56238Y-38821D02*
X56238Y-38825D01*
X56238Y-38821D02*
X55815Y-38398D01*
X55815Y-37495D02*
X55815Y-38398D01*
X56238Y-38825D02*
X56438Y-39025D01*
X55030Y-38747D02*
X55030Y-38813D01*
X55030Y-37495D02*
X55030Y-38747D01*
X55030Y-38813D02*
X55394Y-39177D01*
X54402Y-37495D02*
X54402Y-36658D01*
X54402Y-36658D02*
X54328Y-36584D01*
X54245Y-37495D02*
X54245Y-36887D01*
X54245Y-36887D02*
X54179Y-36821D01*
X55191Y-37274D02*
X55187Y-37274D01*
X55092Y-37175D02*
X55191Y-37274D01*
X54655Y-37175D02*
X55092Y-37175D01*
X54616Y-37136D02*
X54655Y-37175D01*
X55187Y-37495D02*
X55187Y-37274D01*
X55187Y-37274D02*
X55187Y-37274D01*
X55183Y-37495D02*
X55187Y-37495D01*
X52675Y-37495D02*
X52675Y-37954D01*
X52675Y-37954D02*
X52108Y-38521D01*
X48309Y-38069D02*
X47793Y-37553D01*
X51669Y-40855D02*
X49252Y-40855D01*
X48745Y-40348D02*
X48309Y-39912D01*
X48309Y-39912D02*
X48309Y-38069D01*
X49252Y-40855D02*
X48745Y-40348D01*
X49402Y-40698D02*
X48883Y-40179D01*
X51669Y-40698D02*
X50521Y-40698D01*
X48883Y-40179D02*
X48470Y-39766D01*
X50521Y-40698D02*
X49402Y-40698D01*
X48470Y-37462D02*
X48470Y-37447D01*
X48470Y-39766D02*
X48470Y-37462D01*
X47224Y-37122D02*
X46793Y-37553D01*
X48145Y-37122D02*
X47224Y-37122D01*
X48470Y-37447D02*
X48145Y-37122D01*
X63470Y-37321D02*
X63470Y-34934D01*
X63470Y-34934D02*
X61957Y-33421D01*
X63173Y-38197D02*
X63470Y-37900D01*
X63470Y-37900D02*
X63470Y-37321D01*
X57919Y-39600D02*
X59267Y-39600D01*
X59267Y-39600D02*
X60591Y-38276D01*
X57919Y-39286D02*
X59084Y-39286D01*
X59717Y-38653D02*
X59717Y-38488D01*
X59084Y-39286D02*
X59717Y-38653D01*
X57919Y-39290D02*
X57919Y-39286D01*
X57919Y-39129D02*
X58930Y-39129D01*
X58930Y-39129D02*
X59297Y-38762D01*
X64809Y-36836D02*
X64809Y-36136D01*
X65390Y-35555D02*
X66177Y-35555D01*
X64809Y-36136D02*
X65390Y-35555D01*
X64820Y-38348D02*
X64809Y-38337D01*
X64809Y-38337D02*
X64809Y-36836D01*
X64809Y-36836D02*
X65376Y-36269D01*
X65376Y-36269D02*
X66123Y-36269D01*
X66651Y-36797D02*
X66123Y-36269D01*
X58290Y-38658D02*
X57919Y-38658D01*
X58359Y-38658D02*
X58290Y-38658D01*
X58474Y-38543D02*
X58359Y-38658D01*
X57919Y-38815D02*
X58601Y-38815D01*
X58601Y-38815D02*
X58690Y-38726D01*
X65049Y-37801D02*
X65017Y-37769D01*
X65017Y-37769D02*
X65017Y-37431D01*
X65017Y-37431D02*
X65651Y-36797D01*
X57919Y-38187D02*
X57971Y-38187D01*
X63705Y-37787D02*
X63900Y-37592D01*
X63900Y-37592D02*
X63900Y-37321D01*
X58414Y-37744D02*
X59094Y-37744D01*
X57971Y-38187D02*
X58414Y-37744D01*
X63900Y-36872D02*
X63900Y-37321D01*
X63863Y-36835D02*
X63900Y-36872D01*
X63697Y-36835D02*
X63863Y-36835D01*
X63689Y-36843D02*
X63697Y-36835D01*
X61300Y-37321D02*
X61300Y-36944D01*
X61626Y-36618D02*
X62291Y-36618D01*
X61300Y-36944D02*
X61626Y-36618D01*
X57919Y-39914D02*
X59535Y-39914D01*
X61287Y-38162D02*
X61287Y-37858D01*
X59535Y-39914D02*
X61287Y-38162D01*
X61300Y-37321D02*
X61300Y-37845D01*
X61300Y-37845D02*
X61287Y-37858D01*
X57457Y-44047D02*
X57138Y-44047D01*
X57070Y-43979D02*
X57070Y-43745D01*
X57138Y-44047D02*
X57070Y-43979D01*
X57528Y-43764D02*
X57509Y-43745D01*
X57227Y-43745D02*
X57509Y-43745D01*
X65429Y-41301D02*
X66155Y-41301D01*
X66155Y-41301D02*
X66651Y-41797D01*
X65476Y-41301D02*
X65429Y-41301D01*
X65429Y-41301D02*
X61742Y-41301D01*
X61742Y-41301D02*
X61650Y-41209D01*
X59339Y-41639D02*
X59695Y-41283D01*
X61650Y-41209D02*
X61433Y-40992D01*
X61433Y-40992D02*
X59986Y-40992D01*
X59986Y-40992D02*
X59695Y-41283D01*
X59339Y-41641D02*
X59339Y-41639D01*
X59339Y-41641D02*
X57919Y-41641D01*
X61669Y-44920D02*
X61344Y-44920D01*
X61043Y-45779D02*
X61654Y-46390D01*
X61043Y-45221D02*
X61043Y-45779D01*
X61344Y-44920D02*
X61043Y-45221D01*
X61669Y-44920D02*
X61669Y-43602D01*
X61096Y-43029D02*
X60293Y-43029D01*
X61669Y-43602D02*
X61096Y-43029D01*
X57919Y-42897D02*
X60161Y-42897D01*
X60161Y-42897D02*
X60293Y-43029D01*
X62735Y-44920D02*
X62731Y-44920D01*
X62735Y-44920D02*
X63043Y-45228D01*
X63043Y-45575D02*
X63043Y-45228D01*
X62315Y-44504D02*
X62315Y-43780D01*
X62731Y-44920D02*
X62315Y-44504D01*
X62020Y-43362D02*
X62035Y-43362D01*
X62035Y-43362D02*
X62315Y-43642D01*
X62315Y-43642D02*
X62315Y-43780D01*
X60331Y-42760D02*
X60374Y-42760D01*
X61504Y-42846D02*
X62020Y-43362D01*
X60460Y-42846D02*
X61504Y-42846D01*
X60374Y-42760D02*
X60460Y-42846D01*
X62315Y-43780D02*
X62315Y-43788D01*
X63204Y-45484D02*
X63134Y-45484D01*
X63134Y-45484D02*
X63043Y-45575D01*
X63043Y-46091D02*
X62744Y-46390D01*
X63043Y-45575D02*
X63043Y-46091D01*
X60280Y-42740D02*
X60311Y-42740D01*
X60311Y-42740D02*
X60331Y-42760D01*
X57919Y-42740D02*
X60280Y-42740D01*
X60280Y-42740D02*
X60294Y-42740D01*
X61929Y-42670D02*
X60615Y-42670D01*
X60615Y-42670D02*
X60567Y-42622D01*
X60588Y-42643D02*
X60567Y-42622D01*
X60082Y-42583D02*
X57919Y-42583D01*
X60567Y-42622D02*
X60492Y-42547D01*
X60492Y-42547D02*
X60118Y-42547D01*
X60118Y-42547D02*
X60082Y-42583D01*
X61654Y-42370D02*
X62374Y-42370D01*
X62480Y-43205D02*
X62469Y-43205D01*
X62480Y-42476D02*
X62480Y-43205D01*
X62374Y-42370D02*
X62480Y-42476D01*
X64640Y-44920D02*
X64315Y-44920D01*
X64823Y-45103D02*
X64640Y-44920D01*
X64823Y-46984D02*
X64823Y-45103D01*
X64472Y-47335D02*
X64823Y-46984D01*
X59965Y-42370D02*
X61654Y-42370D01*
X61654Y-42370D02*
X61685Y-42370D01*
X64315Y-43807D02*
X64315Y-44920D01*
X62469Y-43205D02*
X62469Y-43379D01*
X62469Y-43379D02*
X62657Y-43567D01*
X62657Y-43567D02*
X64075Y-43567D01*
X64075Y-43567D02*
X64315Y-43807D01*
X62469Y-43154D02*
X62469Y-43205D01*
X59904Y-42426D02*
X57919Y-42426D01*
X59965Y-42370D02*
X59909Y-42426D01*
X59909Y-42426D02*
X59904Y-42426D01*
X57919Y-42269D02*
X59739Y-42269D01*
X59854Y-42154D02*
X60307Y-42154D01*
X59739Y-42269D02*
X59854Y-42154D01*
X60146Y-41937D02*
X60146Y-41941D01*
X59709Y-41941D02*
X59538Y-42112D01*
X60146Y-41941D02*
X59709Y-41941D01*
X57919Y-42112D02*
X59538Y-42112D01*
X59538Y-42112D02*
X59541Y-42112D01*
X57919Y-41955D02*
X59474Y-41955D01*
X59709Y-41720D02*
X60358Y-41720D01*
X59474Y-41955D02*
X59709Y-41720D01*
X57919Y-41798D02*
X59404Y-41798D01*
X59698Y-41504D02*
X60622Y-41504D01*
X59404Y-41798D02*
X59698Y-41504D01*
X65651Y-37797D02*
X65651Y-37876D01*
X62872Y-39624D02*
X62915Y-39624D01*
X58379Y-40542D02*
X58399Y-40522D01*
X59710Y-40301D02*
X60387Y-39624D01*
X60387Y-39624D02*
X62872Y-39624D01*
X59627Y-40384D02*
X59710Y-40301D01*
X58537Y-40384D02*
X59627Y-40384D01*
X58399Y-40522D02*
X58537Y-40384D01*
X58379Y-40542D02*
X57919Y-40542D01*
X63903Y-39624D02*
X62915Y-39624D01*
X65651Y-37876D02*
X63903Y-39624D01*
X62843Y-40953D02*
X65495Y-40953D01*
X65495Y-40953D02*
X65651Y-40797D01*
X59939Y-40795D02*
X61602Y-40795D01*
X59939Y-40795D02*
X59246Y-41488D01*
X59246Y-41488D02*
X57919Y-41488D01*
X57919Y-41484D02*
X57919Y-41488D01*
X61760Y-40953D02*
X62243Y-40953D01*
X61602Y-40795D02*
X61760Y-40953D01*
X57919Y-41484D02*
X57531Y-41484D01*
X57531Y-41484D02*
X57293Y-41722D01*
X59116Y-41327D02*
X59191Y-41327D01*
X66175Y-40321D02*
X66651Y-40797D01*
X60197Y-40321D02*
X66175Y-40321D01*
X59191Y-41327D02*
X60197Y-40321D01*
X57919Y-41327D02*
X59116Y-41327D01*
X59116Y-41327D02*
X59125Y-41327D01*
X57961Y-43862D02*
X57031Y-42932D01*
X57031Y-42932D02*
X57031Y-41634D01*
X57031Y-41634D02*
X57415Y-41250D01*
X57415Y-41250D02*
X57415Y-40935D01*
X58268Y-44169D02*
X57961Y-43862D01*
X58268Y-44973D02*
X58268Y-44965D01*
X58268Y-44965D02*
X58268Y-44169D01*
X57493Y-41013D02*
X57919Y-41013D01*
X57415Y-40935D02*
X57493Y-41013D01*
X57919Y-41170D02*
X59097Y-41170D01*
X65458Y-39990D02*
X65651Y-39797D01*
X60277Y-39990D02*
X65458Y-39990D01*
X59097Y-41170D02*
X60277Y-39990D01*
X65647Y-39793D02*
X65651Y-39797D01*
X54087Y-44773D02*
X54139Y-44825D01*
X54087Y-44773D02*
X54087Y-43745D01*
X53930Y-44641D02*
X53930Y-43745D01*
X53813Y-44758D02*
X53930Y-44641D01*
X55814Y-44237D02*
X55814Y-43745D01*
X55683Y-44368D02*
X55814Y-44237D01*
X56756Y-44222D02*
X57128Y-44594D01*
X56756Y-43745D02*
X56756Y-44222D01*
X57761Y-44594D02*
X57772Y-44583D01*
X57128Y-44594D02*
X57761Y-44594D01*
X58752Y-45487D02*
X58326Y-45487D01*
X58326Y-45487D02*
X58248Y-45409D01*
X56913Y-43745D02*
X56913Y-44047D01*
X57870Y-44264D02*
X58051Y-44445D01*
X57130Y-44264D02*
X57870Y-44264D01*
X56913Y-44047D02*
X57130Y-44264D01*
X50185Y-42268D02*
X50130Y-42323D01*
X50185Y-42268D02*
X51669Y-42268D01*
X48407Y-42277D02*
X48210Y-42080D01*
X48124Y-42080D02*
X48210Y-42080D01*
X50116Y-43580D02*
X50474Y-43580D01*
X50057Y-43521D02*
X50116Y-43580D01*
X50557Y-43580D02*
X50852Y-43285D01*
X50474Y-43580D02*
X50557Y-43580D01*
X50459Y-43580D02*
X50474Y-43580D01*
X46793Y-41553D02*
X47320Y-42080D01*
X48124Y-42080D02*
X47320Y-42080D01*
X48147Y-42080D02*
X48124Y-42080D01*
X52328Y-42073D02*
X52328Y-42057D01*
X51669Y-41958D02*
X51669Y-41954D01*
X51892Y-41958D02*
X51669Y-41958D01*
X51962Y-41888D02*
X51892Y-41958D01*
X51962Y-41785D02*
X51962Y-41888D01*
X52072Y-41675D02*
X51962Y-41785D01*
X52328Y-42057D02*
X52442Y-41943D01*
X52328Y-42966D02*
X52328Y-42702D01*
X52218Y-43076D02*
X52328Y-42966D01*
X51896Y-41954D02*
X51669Y-41954D01*
X52328Y-42159D02*
X52328Y-42702D01*
X52328Y-42061D02*
X52328Y-42073D01*
X52328Y-42073D02*
X52328Y-42159D01*
X52328Y-42702D02*
X52328Y-42892D01*
X47309Y-39680D02*
X47309Y-39069D01*
X47309Y-39069D02*
X46793Y-38553D01*
X51669Y-41012D02*
X49194Y-41012D01*
X47966Y-40010D02*
X47639Y-40010D01*
X47639Y-40010D02*
X47309Y-39680D01*
X48192Y-40010D02*
X47966Y-40010D01*
X49194Y-41012D02*
X48192Y-40010D01*
X50236Y-41230D02*
X50756Y-41230D01*
X51669Y-41165D02*
X51669Y-41169D01*
X50821Y-41165D02*
X51669Y-41165D01*
X50756Y-41230D02*
X50821Y-41165D01*
X49852Y-41447D02*
X49803Y-41398D01*
X50767Y-41447D02*
X49852Y-41447D01*
X51669Y-41326D02*
X50888Y-41326D01*
X50888Y-41326D02*
X50767Y-41447D01*
X51669Y-41479D02*
X51669Y-41483D01*
X50958Y-41479D02*
X51669Y-41479D01*
X50783Y-41654D02*
X50958Y-41479D01*
X50381Y-41654D02*
X50783Y-41654D01*
X50374Y-41661D02*
X50381Y-41654D01*
X47248Y-41008D02*
X46793Y-40553D01*
X47862Y-41008D02*
X47248Y-41008D01*
X48023Y-41169D02*
X47862Y-41008D01*
X49263Y-41169D02*
X48023Y-41169D01*
X49976Y-41882D02*
X49263Y-41169D01*
X50783Y-41882D02*
X49976Y-41882D01*
X51669Y-41640D02*
X51025Y-41640D01*
X51025Y-41640D02*
X50783Y-41882D01*
X51669Y-41797D02*
X51231Y-41797D01*
X51231Y-41797D02*
X51146Y-41882D01*
X51669Y-42111D02*
X49952Y-42111D01*
X49952Y-42111D02*
X49941Y-42122D01*
X60713Y-49681D02*
X60776Y-49744D01*
X60776Y-49744D02*
X61574Y-49744D01*
X61574Y-49744D02*
X61984Y-50154D01*
X56442Y-44316D02*
X56442Y-44340D01*
X59586Y-47311D02*
X59578Y-47303D01*
X59578Y-47303D02*
X59236Y-47303D01*
X59236Y-47303D02*
X57594Y-45661D01*
X60193Y-48248D02*
X60469Y-48524D01*
X60193Y-47551D02*
X60193Y-48248D01*
X59953Y-47311D02*
X60193Y-47551D01*
X59953Y-47311D02*
X59586Y-47311D01*
X56442Y-44316D02*
X56442Y-43745D01*
X57594Y-45350D02*
X57594Y-45661D01*
X57295Y-45051D02*
X57594Y-45350D01*
X57153Y-45051D02*
X57295Y-45051D01*
X56442Y-44340D02*
X57153Y-45051D01*
X57747Y-45287D02*
X57358Y-44898D01*
X57358Y-44898D02*
X57216Y-44898D01*
X57216Y-44898D02*
X56599Y-44281D01*
X56599Y-44281D02*
X56599Y-44257D01*
X56599Y-44257D02*
X56599Y-43745D01*
X60350Y-48016D02*
X60677Y-48343D01*
X60350Y-47480D02*
X60350Y-48016D01*
X60020Y-47150D02*
X60350Y-47480D01*
X59299Y-47150D02*
X60020Y-47150D01*
X57747Y-45598D02*
X59299Y-47150D01*
X57747Y-45598D02*
X57747Y-45287D01*
X55500Y-43745D02*
X55500Y-43964D01*
X55344Y-44870D02*
X55694Y-45220D01*
X55344Y-44120D02*
X55344Y-44870D01*
X55500Y-43964D02*
X55344Y-44120D01*
X55622Y-46644D02*
X55518Y-46644D01*
X55518Y-46644D02*
X55369Y-46495D01*
X56124Y-43745D02*
X56128Y-43745D01*
X56124Y-44553D02*
X56124Y-43745D01*
X56183Y-44612D02*
X56124Y-44553D01*
X55600Y-46250D02*
X55369Y-46481D01*
X55369Y-46481D02*
X55369Y-46495D01*
X55865Y-46644D02*
X55622Y-46644D01*
X55622Y-46644D02*
X55618Y-46644D01*
X55369Y-46495D02*
X54919Y-46495D01*
X56938Y-46432D02*
X56938Y-46389D01*
X57126Y-45504D02*
X56976Y-45504D01*
X57323Y-45701D02*
X57126Y-45504D01*
X57323Y-46004D02*
X57323Y-45701D01*
X56938Y-46389D02*
X57323Y-46004D01*
X56375Y-47272D02*
X56527Y-47272D01*
X56938Y-46861D02*
X56938Y-46432D01*
X56527Y-47272D02*
X56938Y-46861D01*
X56285Y-43745D02*
X56285Y-44404D01*
X56399Y-44518D02*
X56399Y-44836D01*
X56285Y-44404D02*
X56399Y-44518D01*
X56293Y-47695D02*
X57185Y-47695D01*
X56293Y-47695D02*
X56120Y-47522D01*
X56120Y-47272D02*
X56120Y-47522D01*
X57700Y-47180D02*
X58300Y-47180D01*
X57185Y-47695D02*
X57700Y-47180D01*
X66256Y-49169D02*
X65819Y-48732D01*
X65784Y-48697D02*
X65819Y-48732D01*
X65784Y-48697D02*
X65406Y-48697D01*
X66976Y-49965D02*
X66976Y-49874D01*
X66976Y-49874D02*
X66980Y-49870D01*
X63677Y-50740D02*
X63768Y-50740D01*
X63768Y-50740D02*
X66567Y-50740D01*
X66567Y-50740D02*
X66976Y-50331D01*
X66976Y-50331D02*
X66976Y-49965D01*
X63677Y-50740D02*
X63489Y-50740D01*
X63256Y-50507D02*
X63256Y-50169D01*
X63489Y-50740D02*
X63256Y-50507D01*
X61929Y-42070D02*
X61929Y-41807D01*
X61929Y-41807D02*
X61350Y-41228D01*
X60234Y-44317D02*
X60234Y-44399D01*
X60413Y-44578D02*
X60413Y-44819D01*
X60234Y-44399D02*
X60413Y-44578D01*
X61669Y-45520D02*
X61287Y-45520D01*
X61287Y-45520D02*
X61260Y-45547D01*
X61669Y-45520D02*
X61669Y-45783D01*
X61815Y-45929D02*
X62114Y-45929D01*
X61669Y-45783D02*
X61815Y-45929D01*
X63677Y-50740D02*
X63654Y-50740D01*
X48718Y-47730D02*
X50009Y-47730D01*
X50009Y-47730D02*
X51144Y-46595D01*
X55744Y-47393D02*
X55865Y-47272D01*
X55744Y-48000D02*
X55744Y-47393D01*
X55724Y-48020D02*
X55744Y-48000D01*
X56835Y-48681D02*
X56004Y-48681D01*
X48940Y-44102D02*
X48940Y-44699D01*
X48940Y-44699D02*
X48894Y-44745D01*
X60860Y-44278D02*
X60273Y-44278D01*
X60273Y-44278D02*
X60234Y-44317D01*
X59620Y-44341D02*
X60210Y-44341D01*
X60210Y-44341D02*
X60234Y-44317D01*
X55004Y-44260D02*
X55004Y-44413D01*
X54715Y-43971D02*
X55004Y-44260D01*
X54715Y-43745D02*
X54715Y-43971D01*
X54797Y-44620D02*
X54797Y-44852D01*
X55004Y-44413D02*
X54797Y-44620D01*
X66153Y-34224D02*
X66153Y-34890D01*
X66153Y-34890D02*
X66161Y-34898D01*
X46306Y-46803D02*
X46306Y-46201D01*
X46306Y-46201D02*
X46962Y-45545D01*
X66161Y-34898D02*
X65927Y-34898D01*
X65927Y-34898D02*
X64370Y-33341D01*
X58915Y-35395D02*
X59377Y-35395D01*
X58630Y-35680D02*
X58915Y-35395D01*
X58630Y-37121D02*
X58630Y-35680D01*
X59377Y-35395D02*
X59394Y-35378D01*
X48940Y-44102D02*
X48940Y-43314D01*
X48940Y-43314D02*
X48985Y-43269D01*
X64380Y-36982D02*
X64380Y-37121D01*
X64024Y-36626D02*
X64380Y-36982D01*
X46793Y-44553D02*
X46793Y-45376D01*
X46793Y-45376D02*
X46962Y-45545D01*
X54732Y-48169D02*
X54760Y-48169D01*
X54760Y-48169D02*
X54780Y-48189D01*
X54146Y-47738D02*
X54577Y-48169D01*
X54732Y-48169D02*
X54577Y-48169D01*
X55870Y-49736D02*
X55551Y-49417D01*
X57756Y-49736D02*
X55870Y-49736D01*
X57866Y-49846D02*
X57756Y-49736D01*
X59875Y-49795D02*
X59846Y-49795D01*
X60973Y-48697D02*
X59875Y-49795D01*
X65406Y-48697D02*
X60973Y-48697D01*
X65410Y-48697D02*
X65406Y-48697D01*
X59620Y-44341D02*
X59463Y-44341D01*
X58296Y-43886D02*
X57898Y-43488D01*
X59008Y-43886D02*
X58296Y-43886D01*
X59463Y-44341D02*
X59008Y-43886D01*
X55654Y-36712D02*
X55654Y-36668D01*
X55654Y-36668D02*
X55344Y-36358D01*
X48718Y-47730D02*
X48399Y-47730D01*
X47969Y-47300D02*
X47969Y-45545D01*
X48399Y-47730D02*
X47969Y-47300D01*
X48985Y-43269D02*
X48985Y-42661D01*
X48985Y-42661D02*
X48969Y-42645D01*
X53616Y-44210D02*
X53568Y-44258D01*
X53616Y-44210D02*
X53616Y-43745D01*
X55273Y-46199D02*
X55044Y-45970D01*
X55044Y-45970D02*
X55044Y-45820D01*
X57199Y-38250D02*
X57450Y-38501D01*
X57450Y-38501D02*
X57557Y-38501D01*
X56914Y-37965D02*
X57199Y-38250D01*
X56914Y-37495D02*
X56914Y-37965D01*
X57557Y-38510D02*
X57557Y-38501D01*
X56938Y-45832D02*
X56331Y-45832D01*
X56331Y-45832D02*
X56319Y-45820D01*
X64370Y-33341D02*
X64370Y-33217D01*
X64370Y-33217D02*
X63541Y-32388D01*
X58270Y-33341D02*
X58927Y-33341D01*
X58927Y-33341D02*
X59777Y-34191D01*
X53745Y-35809D02*
X53320Y-35809D01*
X53785Y-35769D02*
X53745Y-35809D01*
X56914Y-37495D02*
X56914Y-35934D01*
X56914Y-35934D02*
X56903Y-35923D01*
X57557Y-38501D02*
X57919Y-38501D01*
X54639Y-39403D02*
X56131Y-39403D01*
X54627Y-39415D02*
X54639Y-39403D01*
X62600Y-37321D02*
X62600Y-36813D01*
X62600Y-36813D02*
X62801Y-36612D01*
X51144Y-46595D02*
X51144Y-47243D01*
X51144Y-47243D02*
X51781Y-47880D01*
X51781Y-47880D02*
X52659Y-47880D01*
X52659Y-47880D02*
X53444Y-47095D01*
X54319Y-46495D02*
X54319Y-46065D01*
X54319Y-46065D02*
X54319Y-45895D01*
X54319Y-45895D02*
X54394Y-45820D01*
X59620Y-44341D02*
X59116Y-44341D01*
X59116Y-44341D02*
X58809Y-44648D01*
X53773Y-47738D02*
X54146Y-47738D01*
X53726Y-47785D02*
X53773Y-47738D01*
X54750Y-41482D02*
X54750Y-41112D01*
X54600Y-41632D02*
X54750Y-41482D01*
X54131Y-47132D02*
X54131Y-47723D01*
X54131Y-47723D02*
X54146Y-47738D01*
X46962Y-45545D02*
X47969Y-45545D01*
X54131Y-47132D02*
X53481Y-47132D01*
X53481Y-47132D02*
X53444Y-47095D01*
X56375Y-46644D02*
X56375Y-45876D01*
X56375Y-45876D02*
X56319Y-45820D01*
X56375Y-46644D02*
X56375Y-46857D01*
X56375Y-46857D02*
X56278Y-46954D01*
X56278Y-46954D02*
X56202Y-46954D01*
X56202Y-46954D02*
X56120Y-47036D01*
X56120Y-47036D02*
X56120Y-47272D01*
X56120Y-47272D02*
X55865Y-47272D01*
X53616Y-43745D02*
X53616Y-42773D01*
X53616Y-42773D02*
X53894Y-42495D01*
X53894Y-42495D02*
X54694Y-42495D01*
X54694Y-42495D02*
X55019Y-42820D01*
X55657Y-43745D02*
X55657Y-43408D01*
X55657Y-43408D02*
X55619Y-43370D01*
X54715Y-43424D02*
X54715Y-43745D01*
X54769Y-43370D02*
X54715Y-43424D01*
X52517Y-43745D02*
X52517Y-44022D01*
X52517Y-44022D02*
X52119Y-44420D01*
X52119Y-44420D02*
X51369Y-44420D01*
X56344Y-45795D02*
X56319Y-45820D01*
X53444Y-47095D02*
X53444Y-46520D01*
X53444Y-46520D02*
X53219Y-46295D01*
X50619Y-45845D02*
X51244Y-45845D01*
X51144Y-46595D02*
X51144Y-45945D01*
X51144Y-45945D02*
X51244Y-45845D01*
X54394Y-45820D02*
X53769Y-45820D01*
X53769Y-45820D02*
X53144Y-45820D01*
X53219Y-46295D02*
X53219Y-45895D01*
X53219Y-45895D02*
X53144Y-45820D01*
X56319Y-45820D02*
X55694Y-45820D01*
X55694Y-45820D02*
X55044Y-45820D01*
X55044Y-45820D02*
X54394Y-45820D01*
X48969Y-42020D02*
X48969Y-42645D01*
X48894Y-44745D02*
X48769Y-44745D01*
X48769Y-44745D02*
X47969Y-45545D01*
X55019Y-42820D02*
X55019Y-43070D01*
X55019Y-43070D02*
X55019Y-43370D01*
X55619Y-43370D02*
X55019Y-43370D01*
X55019Y-43370D02*
X54769Y-43370D01*
X52360Y-43745D02*
X52144Y-43745D01*
X52144Y-43745D02*
X51769Y-44120D01*
X61654Y-47390D02*
X60790Y-47390D01*
X60790Y-47390D02*
X60783Y-47383D01*
X54598Y-44239D02*
X54598Y-44071D01*
X54717Y-44358D02*
X54598Y-44239D01*
X54555Y-43748D02*
X54558Y-43745D01*
X54555Y-44028D02*
X54555Y-43748D01*
X54598Y-44071D02*
X54555Y-44028D01*
X54554Y-43745D02*
X54558Y-43745D01*
X54554Y-43745D02*
X54558Y-43745D01*
X59406Y-46087D02*
X58752Y-46087D01*
X58764Y-46075D02*
X58752Y-46087D01*
X66767Y-35555D02*
X66767Y-34904D01*
X66767Y-34904D02*
X66761Y-34898D01*
X46937Y-47492D02*
X46937Y-46834D01*
X46937Y-46834D02*
X46906Y-46803D01*
X66753Y-34224D02*
X66753Y-33520D01*
X66736Y-34207D02*
X66753Y-34224D01*
X55316Y-48171D02*
X55277Y-48132D01*
X55277Y-48132D02*
X55277Y-47751D01*
X55320Y-49180D02*
X55331Y-49180D01*
X55320Y-48892D02*
X55372Y-48840D01*
X54052Y-50218D02*
X52264Y-50218D01*
X54801Y-49699D02*
X55320Y-49180D01*
X54571Y-49699D02*
X54801Y-49699D01*
X54052Y-50218D02*
X54571Y-49699D01*
X55372Y-49139D02*
X55372Y-48840D01*
X55331Y-49180D02*
X55372Y-49139D01*
X53996Y-48409D02*
X56951Y-48409D01*
X53742Y-48155D02*
X53996Y-48409D01*
X53742Y-48147D02*
X53742Y-48155D01*
X57580Y-47780D02*
X58300Y-47780D01*
X56951Y-48409D02*
X57580Y-47780D01*
X58300Y-47780D02*
X58622Y-47780D01*
X58622Y-47780D02*
X59324Y-48482D01*
X52674Y-44101D02*
X52423Y-44352D01*
X52674Y-44081D02*
X52674Y-43745D01*
X52674Y-44081D02*
X52674Y-44101D01*
X52423Y-44427D02*
X52423Y-44352D01*
X52411Y-44439D02*
X52423Y-44427D01*
X57919Y-40699D02*
X58552Y-40699D01*
X58552Y-40699D02*
X58639Y-40612D01*
X57919Y-40856D02*
X58990Y-40856D01*
X58990Y-40856D02*
X59171Y-40675D01*
X51894Y-45770D02*
X51894Y-46845D01*
X51894Y-46845D02*
X52144Y-47095D01*
X49844Y-46595D02*
X49844Y-45970D01*
X49844Y-45970D02*
X49969Y-45845D01*
X52619Y-46295D02*
X52619Y-45895D01*
X52619Y-45895D02*
X52519Y-45795D01*
X54731Y-47132D02*
X54731Y-47723D01*
X54731Y-47723D02*
X54746Y-47738D01*
X55277Y-47151D02*
X54750Y-47151D01*
X54750Y-47151D02*
X54731Y-47132D01*
X55277Y-47151D02*
X55321Y-47151D01*
X56120Y-46765D02*
X56120Y-46644D01*
X55923Y-46962D02*
X56120Y-46765D01*
X55510Y-46962D02*
X55923Y-46962D01*
X55321Y-47151D02*
X55510Y-46962D01*
X59335Y-34098D02*
X58728Y-34098D01*
X59343Y-34106D02*
X59335Y-34098D01*
X52988Y-43441D02*
X52827Y-43280D01*
X52827Y-43280D02*
X52719Y-43280D01*
X52719Y-43280D02*
X52647Y-43208D01*
X52647Y-43208D02*
X52647Y-43010D01*
X52647Y-43010D02*
X52734Y-42923D01*
X52988Y-43745D02*
X52988Y-43441D01*
G54D30*
X51894Y-45170D02*
X51919Y-45170D01*
G54D29*
X51919Y-45170D02*
X52169Y-44920D01*
X52169Y-44920D02*
X52844Y-44920D01*
X52844Y-44920D02*
X52988Y-44776D01*
X52988Y-44776D02*
X52988Y-43745D01*
G54D31*
X49970Y-44586D02*
X49965Y-44586D01*
X49965Y-44586D02*
X49795Y-44756D01*
G54D32*
X48886Y-33307D02*
X49472Y-33307D01*
X49472Y-33307D02*
X50413Y-32366D01*
X46347Y-47492D02*
X46106Y-47492D01*
X48594Y-33599D02*
X48886Y-33307D01*
X48594Y-35961D02*
X48594Y-33599D01*
X47945Y-36610D02*
X48594Y-35961D01*
X46358Y-36610D02*
X47945Y-36610D01*
X45665Y-37303D02*
X46358Y-36610D01*
X45665Y-47051D02*
X45665Y-37303D01*
X46106Y-47492D02*
X45665Y-47051D01*
X47697Y-48780D02*
X46874Y-47957D01*
X46347Y-47809D02*
X46347Y-47492D01*
X46495Y-47957D02*
X46347Y-47809D01*
X46874Y-47957D02*
X46495Y-47957D01*
X62875Y-49169D02*
X62866Y-49169D01*
X50051Y-51134D02*
X47697Y-48780D01*
X61728Y-51134D02*
X50051Y-51134D01*
X62437Y-50425D02*
X61728Y-51134D01*
X62437Y-49598D02*
X62437Y-50425D01*
X62866Y-49169D02*
X62437Y-49598D01*
G54D33*
X62875Y-49169D02*
X63256Y-49169D01*
G54D31*
X49970Y-44586D02*
X49971Y-44586D01*
X50307Y-44250D02*
X49971Y-44586D01*
X48098Y-49169D02*
X48092Y-49175D01*
X47697Y-48780D02*
X47911Y-48994D01*
X47911Y-48994D02*
X48092Y-49175D01*
X62875Y-49169D02*
X63256Y-49169D01*
X51576Y-43521D02*
X51576Y-43525D01*
X51722Y-43671D02*
X51840Y-43671D01*
X51576Y-43525D02*
X51722Y-43671D01*
G54D29*
X53145Y-43745D02*
X53145Y-43315D01*
G54D31*
X50300Y-44250D02*
X50307Y-44250D01*
X50307Y-44250D02*
X50847Y-44250D01*
X51576Y-43521D02*
X51017Y-44080D01*
X50847Y-44250D02*
X51017Y-44080D01*
G54D29*
X53145Y-43315D02*
X53163Y-43297D01*
X53144Y-45220D02*
X53144Y-43746D01*
X53144Y-43746D02*
X53145Y-43745D01*
G54D31*
X52519Y-45195D02*
X53119Y-45195D01*
X53119Y-45195D02*
X53144Y-45220D01*
X49494Y-44745D02*
X49494Y-44148D01*
X49494Y-44148D02*
X49540Y-44102D01*
X50032Y-43873D02*
X49769Y-43873D01*
X49769Y-43873D02*
X49540Y-44102D01*
X50779Y-43873D02*
X50032Y-43873D01*
G54D29*
X52131Y-43415D02*
X52264Y-43415D01*
X52264Y-43415D02*
X52431Y-43248D01*
X54212Y-43021D02*
X54212Y-43062D01*
X54401Y-43251D02*
X54401Y-43745D01*
X54212Y-43062D02*
X54401Y-43251D01*
X53907Y-42982D02*
X54173Y-42982D01*
X54173Y-42982D02*
X54212Y-43021D01*
X51669Y-43053D02*
X51599Y-43053D01*
G54D31*
X50776Y-43876D02*
X50779Y-43873D01*
X50779Y-43873D02*
X51442Y-43210D01*
G54D29*
X51599Y-43053D02*
X51442Y-43210D01*
X51669Y-43049D02*
X51669Y-43053D01*
X54401Y-43745D02*
X54401Y-44137D01*
X54401Y-44137D02*
X54394Y-44144D01*
G54D31*
X54394Y-45220D02*
X54394Y-44144D01*
X54394Y-44144D02*
X54399Y-44139D01*
G54D29*
X51669Y-43053D02*
X51769Y-43053D01*
X52131Y-43415D02*
X51769Y-43053D01*
G54D31*
X55044Y-45220D02*
X54394Y-45220D01*
X49269Y-45545D02*
X49269Y-44970D01*
X49269Y-44970D02*
X49494Y-44745D01*
X60234Y-43717D02*
X59644Y-43717D01*
X59644Y-43717D02*
X59620Y-43741D01*
X60860Y-43678D02*
X60273Y-43678D01*
X60273Y-43678D02*
X60234Y-43717D01*
X50144Y-43220D02*
X50415Y-43220D01*
X50415Y-43220D02*
X50423Y-43228D01*
X55301Y-42395D02*
X55692Y-42395D01*
X55692Y-42395D02*
X55718Y-42421D01*
X57541Y-42982D02*
X57541Y-42797D01*
X57613Y-43054D02*
X57541Y-42982D01*
G54D29*
X57919Y-43054D02*
X57613Y-43054D01*
G54D31*
X57541Y-42797D02*
X57480Y-42736D01*
X57480Y-42667D02*
X57480Y-42736D01*
X57273Y-42460D02*
X57480Y-42667D01*
X53238Y-42187D02*
X53879Y-42187D01*
X55301Y-42395D02*
X55234Y-42328D01*
X53238Y-42187D02*
X52584Y-42187D01*
X55132Y-42226D02*
X55234Y-42328D01*
X53918Y-42226D02*
X55132Y-42226D01*
X53879Y-42187D02*
X53918Y-42226D01*
G54D29*
X51003Y-42736D02*
X50535Y-42736D01*
X50535Y-42736D02*
X50498Y-42699D01*
X51669Y-42739D02*
X51006Y-42739D01*
X51006Y-42739D02*
X51003Y-42736D01*
G54D31*
X59644Y-43717D02*
X59620Y-43741D01*
X50144Y-43220D02*
X49634Y-43220D01*
X49634Y-43220D02*
X49585Y-43269D01*
G54D29*
X50538Y-42739D02*
X50498Y-42699D01*
G54D31*
X59620Y-43741D02*
X59202Y-43741D01*
X59202Y-43741D02*
X58809Y-43348D01*
G54D29*
X51669Y-42743D02*
X51669Y-42739D01*
G54D31*
X58809Y-43348D02*
X58506Y-43348D01*
G54D29*
X58506Y-43348D02*
X58208Y-43050D01*
X58208Y-43050D02*
X57919Y-43050D01*
X57919Y-43050D02*
X57919Y-43054D01*
X51669Y-42739D02*
X51669Y-42578D01*
X51669Y-42578D02*
X51669Y-42582D01*
G54D31*
X66146Y-33083D02*
X66146Y-33513D01*
X66146Y-33083D02*
X65091Y-32028D01*
X65091Y-32028D02*
X59137Y-32028D01*
X59137Y-32028D02*
X58732Y-32433D01*
X66146Y-33513D02*
X66153Y-33520D01*
X65544Y-33480D02*
X66113Y-33480D01*
X66113Y-33480D02*
X66153Y-33520D01*
X65378Y-33646D02*
X65544Y-33480D01*
G54D29*
X59571Y-45307D02*
X59571Y-45322D01*
X59571Y-45322D02*
X59406Y-45487D01*
X59571Y-45307D02*
X60221Y-45307D01*
X60638Y-45724D02*
X60221Y-45307D01*
X60638Y-45799D02*
X60638Y-45724D01*
X60638Y-45799D02*
X60634Y-45799D01*
X59571Y-45307D02*
X59772Y-45106D01*
G54D31*
X66464Y-49689D02*
X66717Y-49689D01*
X64280Y-50169D02*
X64760Y-49689D01*
X64760Y-49689D02*
X66464Y-49689D01*
X67130Y-48245D02*
X67130Y-49023D01*
X64280Y-50169D02*
X64256Y-50169D01*
X67130Y-49276D02*
X67130Y-49023D01*
X66717Y-49689D02*
X67130Y-49276D01*
G54D29*
X60783Y-46783D02*
X60783Y-45948D01*
X60783Y-45948D02*
X60634Y-45799D01*
X63804Y-45484D02*
X64279Y-45484D01*
X64279Y-45484D02*
X64315Y-45520D01*
X62315Y-45520D02*
X62752Y-45520D01*
X62752Y-45520D02*
X62783Y-45551D01*
X64315Y-45760D02*
X64315Y-45520D01*
X64413Y-45858D02*
X64315Y-45760D01*
X63056Y-44949D02*
X63087Y-44949D01*
X62717Y-44610D02*
X63056Y-44949D01*
X62717Y-44098D02*
X62717Y-44610D01*
G54D31*
X62713Y-43252D02*
X63102Y-43252D01*
X63102Y-43252D02*
X63106Y-43248D01*
X62713Y-43252D02*
X63020Y-43252D01*
X63024Y-43248D02*
X64421Y-43248D01*
X63020Y-43252D02*
X63024Y-43248D01*
X64421Y-43248D02*
X65061Y-43888D01*
X65061Y-45561D02*
X65061Y-45483D01*
X65061Y-45483D02*
X65061Y-45143D01*
X65061Y-45143D02*
X65061Y-43888D01*
X59663Y-48791D02*
X60595Y-48791D01*
X60595Y-48791D02*
X60894Y-48492D01*
X60894Y-48492D02*
X61177Y-48492D01*
X64956Y-48492D02*
X65651Y-47797D01*
X61177Y-48492D02*
X64956Y-48492D01*
X61740Y-36839D02*
X61740Y-37321D01*
X48661Y-43685D02*
X47793Y-44553D01*
X49569Y-42010D02*
X49183Y-41624D01*
X49569Y-42020D02*
X49569Y-42010D01*
X49183Y-41624D02*
X48729Y-41624D01*
X48729Y-41624D02*
X48661Y-41692D01*
X48661Y-41692D02*
X48661Y-43685D01*
X47793Y-44553D02*
X47927Y-44553D01*
X65651Y-47797D02*
X66366Y-48512D01*
X66532Y-36012D02*
X65311Y-36012D01*
X67130Y-36610D02*
X66532Y-36012D01*
X67130Y-48245D02*
X67130Y-36610D01*
X66863Y-48512D02*
X67130Y-48245D01*
X66366Y-48512D02*
X66863Y-48512D01*
X65311Y-36016D02*
X65311Y-36012D01*
X65047Y-36280D02*
X65311Y-36016D01*
X61535Y-38488D02*
X61527Y-38496D01*
X61240Y-38496D02*
X61527Y-38496D01*
X61909Y-38488D02*
X61535Y-38488D01*
X61013Y-36712D02*
X60855Y-36712D01*
X60688Y-36545D02*
X60629Y-36545D01*
X60855Y-36712D02*
X60688Y-36545D01*
X52627Y-41620D02*
X52919Y-41620D01*
X52919Y-41620D02*
X52933Y-41634D01*
X54250Y-41620D02*
X53893Y-41620D01*
X53893Y-41620D02*
X53887Y-41614D01*
X57151Y-40715D02*
X57313Y-40553D01*
G54D29*
X51669Y-42896D02*
X51276Y-42896D01*
G54D31*
X50066Y-42645D02*
X50372Y-42951D01*
X50066Y-42645D02*
X49569Y-42645D01*
G54D29*
X51221Y-42951D02*
X50372Y-42951D01*
X51276Y-42896D02*
X51221Y-42951D01*
X57919Y-40385D02*
X58253Y-40385D01*
X58253Y-40385D02*
X58289Y-40349D01*
G54D31*
X61740Y-37321D02*
X61740Y-37996D01*
X61740Y-37996D02*
X61240Y-38496D01*
X61240Y-38496D02*
X59620Y-40116D01*
X59620Y-40116D02*
X58522Y-40116D01*
X58522Y-40116D02*
X58289Y-40349D01*
X58289Y-40349D02*
X58289Y-40350D01*
G54D29*
X52120Y-41946D02*
X52120Y-41939D01*
X52120Y-41939D02*
X52439Y-41620D01*
X52439Y-41620D02*
X52627Y-41620D01*
G54D31*
X54250Y-41620D02*
X54250Y-41660D01*
X55994Y-41872D02*
X57313Y-40553D01*
X55963Y-41903D02*
X55994Y-41872D01*
X54493Y-41903D02*
X55963Y-41903D01*
X54250Y-41660D02*
X54493Y-41903D01*
G54D29*
X52120Y-42498D02*
X52120Y-41946D01*
G54D31*
X65061Y-45828D02*
X65061Y-45561D01*
G54D29*
X57481Y-40385D02*
X57919Y-40385D01*
G54D31*
X57313Y-40553D02*
X57481Y-40385D01*
X59663Y-48791D02*
X59663Y-49584D01*
X59663Y-49584D02*
X59029Y-50218D01*
X65061Y-47207D02*
X65651Y-47797D01*
X65061Y-45828D02*
X65061Y-47207D01*
G54D29*
X51669Y-42425D02*
X52047Y-42425D01*
G54D31*
X52047Y-42425D02*
X52120Y-42498D01*
X52120Y-42498D02*
X52135Y-42513D01*
X52135Y-42513D02*
X52135Y-42805D01*
X52135Y-42805D02*
X52044Y-42896D01*
G54D29*
X52044Y-42896D02*
X51669Y-42896D01*
G54D31*
X49569Y-42645D02*
X49569Y-42020D01*
G54D30*
X55685Y-34189D02*
X55685Y-34409D01*
X54217Y-33579D02*
X54265Y-33531D01*
X54265Y-33531D02*
X55287Y-33531D01*
X55287Y-33531D02*
X55685Y-33929D01*
X55685Y-33929D02*
X55685Y-34189D01*
X55685Y-34409D02*
X55677Y-34417D01*
X57112Y-38596D02*
X57112Y-38588D01*
X57112Y-38588D02*
X57083Y-38559D01*
G54D29*
X54088Y-37495D02*
X54088Y-37718D01*
X55344Y-37746D02*
X55344Y-37495D01*
X55244Y-37846D02*
X55344Y-37746D01*
X54216Y-37846D02*
X54346Y-37846D01*
X54088Y-37718D02*
X54216Y-37846D01*
X55054Y-36712D02*
X55054Y-36905D01*
X55054Y-36905D02*
X55344Y-37195D01*
X55344Y-37195D02*
X55344Y-37495D01*
G54D30*
X56279Y-40305D02*
X56478Y-40305D01*
X56053Y-40531D02*
X56279Y-40305D01*
X55738Y-40531D02*
X56053Y-40531D01*
X56364Y-40305D02*
X55887Y-40305D01*
G54D29*
X54556Y-35758D02*
X54120Y-35758D01*
X54564Y-35750D02*
X54556Y-35758D01*
X56443Y-36904D02*
X56443Y-36710D01*
X56443Y-37495D02*
X56443Y-36904D01*
X56333Y-36600D02*
X56139Y-36600D01*
X56443Y-36710D02*
X56333Y-36600D01*
G54D30*
X56848Y-38332D02*
X56912Y-38332D01*
X56912Y-38332D02*
X56935Y-38309D01*
X56364Y-40305D02*
X56478Y-40305D01*
X56478Y-40305D02*
X57435Y-39348D01*
X57261Y-38745D02*
X57264Y-38745D01*
X57264Y-38745D02*
X57435Y-38916D01*
X57435Y-38916D02*
X57435Y-39071D01*
G54D29*
X56443Y-37495D02*
X56443Y-37927D01*
G54D30*
X57261Y-38745D02*
X57112Y-38596D01*
X57112Y-38596D02*
X56848Y-38332D01*
X56848Y-38332D02*
X56490Y-37974D01*
G54D29*
X56443Y-37927D02*
X56490Y-37974D01*
X54088Y-37495D02*
X54088Y-37183D01*
G54D30*
X53887Y-36982D02*
X54068Y-37163D01*
X53887Y-36982D02*
X53879Y-36982D01*
G54D29*
X54088Y-37183D02*
X54068Y-37163D01*
G54D30*
X56478Y-41825D02*
X56931Y-41372D01*
X56478Y-42840D02*
X56478Y-41825D01*
X56368Y-40305D02*
X56364Y-40305D01*
X53879Y-36982D02*
X53879Y-36750D01*
X53879Y-36750D02*
X54053Y-36576D01*
X53879Y-36989D02*
X53879Y-36982D01*
G54D29*
X56447Y-37495D02*
X56443Y-37495D01*
X53773Y-43403D02*
X53773Y-43745D01*
X53907Y-43269D02*
X53773Y-43403D01*
G54D31*
X50167Y-44785D02*
X50155Y-44785D01*
X50155Y-44785D02*
X49996Y-44944D01*
X49996Y-44944D02*
X49960Y-44980D01*
X49960Y-44980D02*
X49970Y-44970D01*
G54D29*
X52765Y-44321D02*
X52765Y-44566D01*
X52765Y-44566D02*
X52775Y-44576D01*
G54D31*
X52775Y-44576D02*
X52765Y-44566D01*
X52765Y-44566D02*
X52765Y-44545D01*
X52765Y-44545D02*
X52761Y-44549D01*
X51247Y-45245D02*
X51797Y-44695D01*
X51797Y-44695D02*
X52615Y-44695D01*
X52615Y-44695D02*
X52761Y-44549D01*
X51247Y-45245D02*
X51244Y-45245D01*
G54D29*
X53370Y-44465D02*
X53370Y-44459D01*
X53370Y-44459D02*
X53302Y-44391D01*
X53302Y-44391D02*
X53302Y-43745D01*
X52765Y-44321D02*
X52765Y-44238D01*
X52827Y-43745D02*
X52831Y-43745D01*
X52827Y-44176D02*
X52827Y-43745D01*
X52765Y-44238D02*
X52827Y-44176D01*
G54D31*
X53549Y-44655D02*
X53561Y-44667D01*
X53561Y-44667D02*
X53572Y-44667D01*
X50619Y-44860D02*
X50454Y-44695D01*
X50454Y-44695D02*
X50257Y-44695D01*
X50257Y-44695D02*
X50167Y-44785D01*
X50619Y-45245D02*
X50619Y-44860D01*
G54D29*
X53370Y-44465D02*
X53356Y-44451D01*
G54D30*
X53572Y-44880D02*
X53572Y-44667D01*
X53769Y-45077D02*
X53572Y-44880D01*
X53769Y-45220D02*
X53769Y-45077D01*
X53572Y-44667D02*
X53356Y-44451D01*
X53375Y-44454D02*
X53359Y-44454D01*
X53356Y-44451D02*
X53359Y-44454D01*
X51269Y-45245D02*
X51244Y-45245D01*
X52954Y-42443D02*
X53163Y-42443D01*
X53444Y-43336D02*
X53444Y-43334D01*
X53444Y-42724D02*
X53444Y-43336D01*
X53163Y-42443D02*
X53444Y-42724D01*
X53442Y-43336D02*
X53444Y-43334D01*
X53444Y-43334D02*
X53359Y-43419D01*
X53359Y-43419D02*
X53359Y-43435D01*
G54D29*
X53359Y-43435D02*
X53298Y-43496D01*
X53298Y-43496D02*
X53298Y-43745D01*
X53298Y-43745D02*
X53302Y-43745D01*
G54D30*
X52954Y-42443D02*
X52954Y-42439D01*
G54D31*
X51244Y-45245D02*
X50757Y-45245D01*
G54D30*
X49969Y-45245D02*
X50619Y-45245D01*
X50619Y-45245D02*
X51244Y-45245D01*
G54D29*
X57157Y-45220D02*
X56319Y-45220D01*
X57378Y-45441D02*
X57157Y-45220D01*
X55971Y-43745D02*
X55971Y-43269D01*
X55971Y-43745D02*
X55971Y-44872D01*
X55971Y-44872D02*
X56319Y-45220D01*
G54D10*
G36*
X51294Y-45895D02*
X51194Y-45895D01*
X51144Y-45895D01*
X51032Y-45895D01*
X50831Y-45895D01*
X50719Y-45895D01*
X50669Y-45895D01*
X50569Y-45895D01*
X50569Y-45795D01*
X50669Y-45795D01*
X50719Y-45795D01*
X50831Y-45795D01*
X51032Y-45795D01*
X51144Y-45795D01*
X51194Y-45795D01*
X51294Y-45795D01*
X51294Y-45895D01*
X51294Y-45895D01*
G37*
G54D34*
X51294Y-45895D02*
X51194Y-45895D01*
X51144Y-45895D01*
X51032Y-45895D01*
X50831Y-45895D01*
X50719Y-45895D01*
X50669Y-45895D01*
X50569Y-45895D01*
X50569Y-45795D01*
X50669Y-45795D01*
X50719Y-45795D01*
X50831Y-45795D01*
X51032Y-45795D01*
X51144Y-45795D01*
X51194Y-45795D01*
X51294Y-45795D01*
X51294Y-45895D01*
G54D10*
G36*
X51612Y-44430D02*
X51565Y-44463D01*
X51564Y-44463D01*
X51564Y-44464D01*
X51157Y-44871D01*
X50970Y-44871D01*
X50947Y-44880D01*
X50947Y-44860D01*
X50922Y-44735D01*
X50922Y-44734D01*
X50851Y-44628D01*
X50801Y-44578D01*
X50847Y-44578D01*
X50972Y-44553D01*
X50973Y-44553D01*
X51079Y-44482D01*
X51249Y-44312D01*
X51422Y-44139D01*
X51422Y-44189D01*
X51475Y-44317D01*
X51572Y-44414D01*
X51612Y-44430D01*
X51612Y-44430D01*
G37*
G54D34*
X51612Y-44430D02*
X51565Y-44463D01*
X51564Y-44463D01*
X51564Y-44464D01*
X51157Y-44871D01*
X50970Y-44871D01*
X50947Y-44880D01*
X50947Y-44860D01*
X50922Y-44735D01*
X50922Y-44734D01*
X50851Y-44628D01*
X50801Y-44578D01*
X50847Y-44578D01*
X50972Y-44553D01*
X50973Y-44553D01*
X51079Y-44482D01*
X51249Y-44312D01*
X51422Y-44139D01*
X51422Y-44189D01*
X51475Y-44317D01*
X51572Y-44414D01*
X51612Y-44430D01*
G54D10*
G36*
X53641Y-44245D02*
X53591Y-44195D01*
X53591Y-44151D01*
X53615Y-44140D01*
X53641Y-44151D01*
X53641Y-44245D01*
X53641Y-44245D01*
G37*
G54D34*
X53641Y-44245D02*
X53591Y-44195D01*
X53591Y-44151D01*
X53615Y-44140D01*
X53641Y-44151D01*
X53641Y-44245D01*
G54D10*
G36*
X54196Y-47788D02*
X54096Y-47788D01*
X54096Y-47688D01*
X54096Y-47638D01*
X54096Y-47325D01*
X54081Y-47310D01*
X54081Y-47182D01*
X53969Y-47182D01*
X53932Y-47145D01*
X53494Y-47145D01*
X53494Y-47683D01*
X53556Y-47745D01*
X53771Y-47744D01*
X53771Y-47800D01*
X53673Y-47800D01*
X53545Y-47853D01*
X53448Y-47950D01*
X53395Y-48078D01*
X53395Y-48216D01*
X53448Y-48344D01*
X53545Y-48441D01*
X53672Y-48493D01*
X53673Y-48494D01*
X53791Y-48613D01*
X53792Y-48613D01*
X53838Y-48644D01*
X53885Y-48676D01*
X53886Y-48676D01*
X53976Y-48694D01*
X53952Y-48704D01*
X53775Y-48881D01*
X53679Y-49112D01*
X53679Y-49363D01*
X53775Y-49595D01*
X53952Y-49772D01*
X54049Y-49812D01*
X53932Y-49929D01*
X53394Y-49929D01*
X53394Y-47683D01*
X53394Y-47145D01*
X52956Y-47145D01*
X52894Y-47207D01*
X52895Y-47446D01*
X52895Y-47545D01*
X52933Y-47636D01*
X53003Y-47706D01*
X53095Y-47744D01*
X53332Y-47745D01*
X53394Y-47683D01*
X53394Y-49929D01*
X52772Y-49929D01*
X52756Y-49890D01*
X52734Y-49868D01*
X52879Y-49868D01*
X53111Y-49772D01*
X53288Y-49595D01*
X53384Y-49364D01*
X53384Y-49113D01*
X53288Y-48881D01*
X53111Y-48704D01*
X52880Y-48608D01*
X52629Y-48608D01*
X52397Y-48704D01*
X52220Y-48881D01*
X52124Y-49112D01*
X52124Y-49363D01*
X52220Y-49595D01*
X52263Y-49638D01*
X52149Y-49638D01*
X51936Y-49726D01*
X51773Y-49889D01*
X51684Y-50102D01*
X51684Y-50333D01*
X51772Y-50546D01*
X51913Y-50687D01*
X51094Y-50687D01*
X51094Y-47183D01*
X51094Y-46645D01*
X50656Y-46645D01*
X50594Y-46707D01*
X50595Y-46946D01*
X50595Y-47045D01*
X50633Y-47136D01*
X50703Y-47206D01*
X50795Y-47244D01*
X51032Y-47245D01*
X51094Y-47183D01*
X51094Y-50687D01*
X50845Y-50687D01*
X50985Y-50547D01*
X51074Y-50334D01*
X51074Y-50103D01*
X50986Y-49890D01*
X50823Y-49727D01*
X50610Y-49638D01*
X50485Y-49638D01*
X50528Y-49595D01*
X50624Y-49364D01*
X50624Y-49113D01*
X50528Y-48881D01*
X50351Y-48704D01*
X50120Y-48608D01*
X49869Y-48608D01*
X49637Y-48704D01*
X49460Y-48881D01*
X49364Y-49112D01*
X49364Y-49363D01*
X49460Y-49595D01*
X49637Y-49772D01*
X49868Y-49868D01*
X50024Y-49868D01*
X50003Y-49889D01*
X49914Y-50102D01*
X49914Y-50333D01*
X49936Y-50387D01*
X49261Y-49712D01*
X49261Y-47809D01*
X49250Y-47596D01*
X49190Y-47449D01*
X49096Y-47422D01*
X48789Y-47730D01*
X49096Y-48038D01*
X49190Y-48011D01*
X49261Y-47809D01*
X49261Y-49712D01*
X49026Y-49477D01*
X49026Y-48108D01*
X48718Y-47801D01*
X48647Y-47871D01*
X48647Y-47730D01*
X48340Y-47422D01*
X48246Y-47449D01*
X48175Y-47651D01*
X48186Y-47864D01*
X48246Y-48011D01*
X48340Y-48038D01*
X48647Y-47730D01*
X48647Y-47871D01*
X48410Y-48108D01*
X48437Y-48202D01*
X48639Y-48273D01*
X48852Y-48262D01*
X48999Y-48202D01*
X49026Y-48108D01*
X49026Y-49477D01*
X48013Y-48464D01*
X48012Y-48463D01*
X47919Y-48370D01*
X47919Y-46133D01*
X47919Y-45595D01*
X47481Y-45595D01*
X47419Y-45657D01*
X47420Y-45896D01*
X47420Y-45995D01*
X47458Y-46086D01*
X47528Y-46156D01*
X47620Y-46194D01*
X47857Y-46195D01*
X47919Y-46133D01*
X47919Y-48370D01*
X47315Y-47766D01*
X47343Y-47699D01*
X47343Y-47600D01*
X47343Y-47286D01*
X47305Y-47194D01*
X47253Y-47142D01*
X47280Y-47078D01*
X47280Y-46979D01*
X47280Y-46529D01*
X47242Y-46437D01*
X47172Y-46367D01*
X47101Y-46337D01*
X47101Y-44931D01*
X46793Y-44624D01*
X46722Y-44694D01*
X46722Y-44553D01*
X46415Y-44245D01*
X46321Y-44272D01*
X46250Y-44474D01*
X46261Y-44687D01*
X46321Y-44834D01*
X46415Y-44861D01*
X46722Y-44553D01*
X46722Y-44694D01*
X46485Y-44931D01*
X46512Y-45025D01*
X46714Y-45096D01*
X46927Y-45085D01*
X47074Y-45025D01*
X47101Y-44931D01*
X47101Y-46337D01*
X47081Y-46329D01*
X46982Y-46329D01*
X46732Y-46329D01*
X46640Y-46367D01*
X46606Y-46401D01*
X46572Y-46367D01*
X46480Y-46329D01*
X46418Y-46328D01*
X46356Y-46390D01*
X46356Y-46703D01*
X46356Y-46753D01*
X46356Y-46853D01*
X46256Y-46853D01*
X46256Y-46753D01*
X46256Y-46703D01*
X46256Y-46390D01*
X46194Y-46328D01*
X46132Y-46329D01*
X46112Y-46337D01*
X46112Y-37488D01*
X46244Y-37356D01*
X46244Y-37902D01*
X46282Y-37994D01*
X46352Y-38064D01*
X46443Y-38102D01*
X46468Y-38102D01*
X46328Y-38242D01*
X46244Y-38444D01*
X46244Y-38662D01*
X46328Y-38864D01*
X46482Y-39018D01*
X46566Y-39053D01*
X46482Y-39088D01*
X46328Y-39242D01*
X46244Y-39444D01*
X46244Y-39662D01*
X46328Y-39864D01*
X46482Y-40018D01*
X46566Y-40053D01*
X46482Y-40088D01*
X46328Y-40242D01*
X46244Y-40444D01*
X46244Y-40662D01*
X46328Y-40864D01*
X46482Y-41018D01*
X46566Y-41053D01*
X46482Y-41088D01*
X46328Y-41242D01*
X46244Y-41444D01*
X46244Y-41662D01*
X46328Y-41864D01*
X46482Y-42018D01*
X46566Y-42053D01*
X46482Y-42088D01*
X46328Y-42242D01*
X46244Y-42444D01*
X46244Y-42662D01*
X46328Y-42864D01*
X46482Y-43018D01*
X46566Y-43053D01*
X46482Y-43088D01*
X46328Y-43242D01*
X46244Y-43444D01*
X46244Y-43662D01*
X46328Y-43864D01*
X46482Y-44018D01*
X46573Y-44055D01*
X46512Y-44081D01*
X46485Y-44175D01*
X46793Y-44482D01*
X47101Y-44175D01*
X47074Y-44081D01*
X47008Y-44057D01*
X47104Y-44018D01*
X47258Y-43864D01*
X47293Y-43779D01*
X47328Y-43864D01*
X47482Y-44018D01*
X47566Y-44053D01*
X47482Y-44088D01*
X47328Y-44242D01*
X47290Y-44333D01*
X47265Y-44272D01*
X47171Y-44245D01*
X46864Y-44553D01*
X47171Y-44861D01*
X47265Y-44834D01*
X47288Y-44768D01*
X47328Y-44864D01*
X47463Y-44999D01*
X47458Y-45004D01*
X47420Y-45095D01*
X47420Y-45194D01*
X47419Y-45433D01*
X47481Y-45495D01*
X47869Y-45495D01*
X47919Y-45495D01*
X48019Y-45495D01*
X48069Y-45495D01*
X48457Y-45495D01*
X48519Y-45433D01*
X48518Y-45194D01*
X48518Y-45095D01*
X48480Y-45004D01*
X48410Y-44934D01*
X48318Y-44896D01*
X48226Y-44895D01*
X48258Y-44864D01*
X48342Y-44662D01*
X48342Y-44468D01*
X48565Y-44244D01*
X48566Y-44278D01*
X48566Y-44371D01*
X48558Y-44379D01*
X48520Y-44470D01*
X48520Y-44569D01*
X48519Y-44633D01*
X48581Y-44695D01*
X48844Y-44695D01*
X48844Y-44561D01*
X48890Y-44515D01*
X48890Y-44202D01*
X48890Y-44152D01*
X48890Y-44052D01*
X48990Y-44052D01*
X48990Y-44152D01*
X48990Y-44202D01*
X48990Y-44286D01*
X48944Y-44332D01*
X48944Y-44645D01*
X48944Y-44695D01*
X48944Y-44795D01*
X48844Y-44795D01*
X48794Y-44795D01*
X48581Y-44795D01*
X48519Y-44857D01*
X48520Y-44921D01*
X48520Y-45020D01*
X48558Y-45111D01*
X48628Y-45181D01*
X48720Y-45219D01*
X48720Y-45994D01*
X48758Y-46086D01*
X48828Y-46156D01*
X48887Y-46181D01*
X48519Y-46181D01*
X48519Y-45657D01*
X48457Y-45595D01*
X48019Y-45595D01*
X48019Y-46133D01*
X48081Y-46195D01*
X48318Y-46194D01*
X48410Y-46156D01*
X48480Y-46086D01*
X48518Y-45995D01*
X48518Y-45896D01*
X48519Y-45657D01*
X48519Y-46181D01*
X48369Y-46181D01*
X48277Y-46219D01*
X48207Y-46289D01*
X48169Y-46380D01*
X48169Y-46479D01*
X48169Y-47079D01*
X48207Y-47171D01*
X48277Y-47241D01*
X48368Y-47279D01*
X48430Y-47279D01*
X48410Y-47352D01*
X48718Y-47659D01*
X49026Y-47352D01*
X49005Y-47279D01*
X49067Y-47279D01*
X49159Y-47241D01*
X49229Y-47171D01*
X49267Y-47080D01*
X49267Y-46981D01*
X49267Y-46381D01*
X49229Y-46289D01*
X49159Y-46219D01*
X49099Y-46194D01*
X49295Y-46194D01*
X49295Y-46244D01*
X49295Y-47044D01*
X49333Y-47136D01*
X49403Y-47206D01*
X49494Y-47244D01*
X49593Y-47244D01*
X50193Y-47244D01*
X50285Y-47206D01*
X50355Y-47136D01*
X50393Y-47045D01*
X50393Y-46946D01*
X50393Y-46219D01*
X50443Y-46219D01*
X50507Y-46220D01*
X50519Y-46208D01*
X50519Y-46220D01*
X50595Y-46220D01*
X50595Y-46244D01*
X50594Y-46483D01*
X50656Y-46545D01*
X51044Y-46545D01*
X51094Y-46545D01*
X51194Y-46545D01*
X51194Y-46645D01*
X51194Y-46695D01*
X51194Y-47183D01*
X51256Y-47245D01*
X51493Y-47244D01*
X51585Y-47206D01*
X51595Y-47196D01*
X51595Y-47544D01*
X51633Y-47636D01*
X51703Y-47706D01*
X51794Y-47744D01*
X51893Y-47744D01*
X52493Y-47744D01*
X52585Y-47706D01*
X52655Y-47636D01*
X52693Y-47545D01*
X52693Y-47446D01*
X52693Y-46769D01*
X52793Y-46769D01*
X52885Y-46731D01*
X52895Y-46721D01*
X52895Y-46744D01*
X52894Y-46983D01*
X52956Y-47045D01*
X53344Y-47045D01*
X53394Y-47045D01*
X53494Y-47045D01*
X53544Y-47045D01*
X53781Y-47045D01*
X53818Y-47082D01*
X54031Y-47082D01*
X54081Y-47082D01*
X54181Y-47082D01*
X54181Y-47182D01*
X54181Y-47232D01*
X54181Y-47545D01*
X54196Y-47560D01*
X54196Y-47638D01*
X54196Y-47688D01*
X54196Y-47788D01*
X54196Y-47788D01*
G37*
G54D34*
X54196Y-47788D02*
X54096Y-47788D01*
X54096Y-47688D01*
X54096Y-47638D01*
X54096Y-47325D01*
X54081Y-47310D01*
X54081Y-47182D01*
X53969Y-47182D01*
X53932Y-47145D01*
X53494Y-47145D01*
X53494Y-47683D01*
X53556Y-47745D01*
X53771Y-47744D01*
X53771Y-47800D01*
X53673Y-47800D01*
X53545Y-47853D01*
X53448Y-47950D01*
X53395Y-48078D01*
X53395Y-48216D01*
X53448Y-48344D01*
X53545Y-48441D01*
X53672Y-48493D01*
X53673Y-48494D01*
X53791Y-48613D01*
X53792Y-48613D01*
X53838Y-48644D01*
X53885Y-48676D01*
X53886Y-48676D01*
X53976Y-48694D01*
X53952Y-48704D01*
X53775Y-48881D01*
X53679Y-49112D01*
X53679Y-49363D01*
X53775Y-49595D01*
X53952Y-49772D01*
X54049Y-49812D01*
X53932Y-49929D01*
X53394Y-49929D01*
X53394Y-47683D01*
X53394Y-47145D01*
X52956Y-47145D01*
X52894Y-47207D01*
X52895Y-47446D01*
X52895Y-47545D01*
X52933Y-47636D01*
X53003Y-47706D01*
X53095Y-47744D01*
X53332Y-47745D01*
X53394Y-47683D01*
X53394Y-49929D01*
X52772Y-49929D01*
X52756Y-49890D01*
X52734Y-49868D01*
X52879Y-49868D01*
X53111Y-49772D01*
X53288Y-49595D01*
X53384Y-49364D01*
X53384Y-49113D01*
X53288Y-48881D01*
X53111Y-48704D01*
X52880Y-48608D01*
X52629Y-48608D01*
X52397Y-48704D01*
X52220Y-48881D01*
X52124Y-49112D01*
X52124Y-49363D01*
X52220Y-49595D01*
X52263Y-49638D01*
X52149Y-49638D01*
X51936Y-49726D01*
X51773Y-49889D01*
X51684Y-50102D01*
X51684Y-50333D01*
X51772Y-50546D01*
X51913Y-50687D01*
X51094Y-50687D01*
X51094Y-47183D01*
X51094Y-46645D01*
X50656Y-46645D01*
X50594Y-46707D01*
X50595Y-46946D01*
X50595Y-47045D01*
X50633Y-47136D01*
X50703Y-47206D01*
X50795Y-47244D01*
X51032Y-47245D01*
X51094Y-47183D01*
X51094Y-50687D01*
X50845Y-50687D01*
X50985Y-50547D01*
X51074Y-50334D01*
X51074Y-50103D01*
X50986Y-49890D01*
X50823Y-49727D01*
X50610Y-49638D01*
X50485Y-49638D01*
X50528Y-49595D01*
X50624Y-49364D01*
X50624Y-49113D01*
X50528Y-48881D01*
X50351Y-48704D01*
X50120Y-48608D01*
X49869Y-48608D01*
X49637Y-48704D01*
X49460Y-48881D01*
X49364Y-49112D01*
X49364Y-49363D01*
X49460Y-49595D01*
X49637Y-49772D01*
X49868Y-49868D01*
X50024Y-49868D01*
X50003Y-49889D01*
X49914Y-50102D01*
X49914Y-50333D01*
X49936Y-50387D01*
X49261Y-49712D01*
X49261Y-47809D01*
X49250Y-47596D01*
X49190Y-47449D01*
X49096Y-47422D01*
X48789Y-47730D01*
X49096Y-48038D01*
X49190Y-48011D01*
X49261Y-47809D01*
X49261Y-49712D01*
X49026Y-49477D01*
X49026Y-48108D01*
X48718Y-47801D01*
X48647Y-47871D01*
X48647Y-47730D01*
X48340Y-47422D01*
X48246Y-47449D01*
X48175Y-47651D01*
X48186Y-47864D01*
X48246Y-48011D01*
X48340Y-48038D01*
X48647Y-47730D01*
X48647Y-47871D01*
X48410Y-48108D01*
X48437Y-48202D01*
X48639Y-48273D01*
X48852Y-48262D01*
X48999Y-48202D01*
X49026Y-48108D01*
X49026Y-49477D01*
X48013Y-48464D01*
X48012Y-48463D01*
X47919Y-48370D01*
X47919Y-46133D01*
X47919Y-45595D01*
X47481Y-45595D01*
X47419Y-45657D01*
X47420Y-45896D01*
X47420Y-45995D01*
X47458Y-46086D01*
X47528Y-46156D01*
X47620Y-46194D01*
X47857Y-46195D01*
X47919Y-46133D01*
X47919Y-48370D01*
X47315Y-47766D01*
X47343Y-47699D01*
X47343Y-47600D01*
X47343Y-47286D01*
X47305Y-47194D01*
X47253Y-47142D01*
X47280Y-47078D01*
X47280Y-46979D01*
X47280Y-46529D01*
X47242Y-46437D01*
X47172Y-46367D01*
X47101Y-46337D01*
X47101Y-44931D01*
X46793Y-44624D01*
X46722Y-44694D01*
X46722Y-44553D01*
X46415Y-44245D01*
X46321Y-44272D01*
X46250Y-44474D01*
X46261Y-44687D01*
X46321Y-44834D01*
X46415Y-44861D01*
X46722Y-44553D01*
X46722Y-44694D01*
X46485Y-44931D01*
X46512Y-45025D01*
X46714Y-45096D01*
X46927Y-45085D01*
X47074Y-45025D01*
X47101Y-44931D01*
X47101Y-46337D01*
X47081Y-46329D01*
X46982Y-46329D01*
X46732Y-46329D01*
X46640Y-46367D01*
X46606Y-46401D01*
X46572Y-46367D01*
X46480Y-46329D01*
X46418Y-46328D01*
X46356Y-46390D01*
X46356Y-46703D01*
X46356Y-46753D01*
X46356Y-46853D01*
X46256Y-46853D01*
X46256Y-46753D01*
X46256Y-46703D01*
X46256Y-46390D01*
X46194Y-46328D01*
X46132Y-46329D01*
X46112Y-46337D01*
X46112Y-37488D01*
X46244Y-37356D01*
X46244Y-37902D01*
X46282Y-37994D01*
X46352Y-38064D01*
X46443Y-38102D01*
X46468Y-38102D01*
X46328Y-38242D01*
X46244Y-38444D01*
X46244Y-38662D01*
X46328Y-38864D01*
X46482Y-39018D01*
X46566Y-39053D01*
X46482Y-39088D01*
X46328Y-39242D01*
X46244Y-39444D01*
X46244Y-39662D01*
X46328Y-39864D01*
X46482Y-40018D01*
X46566Y-40053D01*
X46482Y-40088D01*
X46328Y-40242D01*
X46244Y-40444D01*
X46244Y-40662D01*
X46328Y-40864D01*
X46482Y-41018D01*
X46566Y-41053D01*
X46482Y-41088D01*
X46328Y-41242D01*
X46244Y-41444D01*
X46244Y-41662D01*
X46328Y-41864D01*
X46482Y-42018D01*
X46566Y-42053D01*
X46482Y-42088D01*
X46328Y-42242D01*
X46244Y-42444D01*
X46244Y-42662D01*
X46328Y-42864D01*
X46482Y-43018D01*
X46566Y-43053D01*
X46482Y-43088D01*
X46328Y-43242D01*
X46244Y-43444D01*
X46244Y-43662D01*
X46328Y-43864D01*
X46482Y-44018D01*
X46573Y-44055D01*
X46512Y-44081D01*
X46485Y-44175D01*
X46793Y-44482D01*
X47101Y-44175D01*
X47074Y-44081D01*
X47008Y-44057D01*
X47104Y-44018D01*
X47258Y-43864D01*
X47293Y-43779D01*
X47328Y-43864D01*
X47482Y-44018D01*
X47566Y-44053D01*
X47482Y-44088D01*
X47328Y-44242D01*
X47290Y-44333D01*
X47265Y-44272D01*
X47171Y-44245D01*
X46864Y-44553D01*
X47171Y-44861D01*
X47265Y-44834D01*
X47288Y-44768D01*
X47328Y-44864D01*
X47463Y-44999D01*
X47458Y-45004D01*
X47420Y-45095D01*
X47420Y-45194D01*
X47419Y-45433D01*
X47481Y-45495D01*
X47869Y-45495D01*
X47919Y-45495D01*
X48019Y-45495D01*
X48069Y-45495D01*
X48457Y-45495D01*
X48519Y-45433D01*
X48518Y-45194D01*
X48518Y-45095D01*
X48480Y-45004D01*
X48410Y-44934D01*
X48318Y-44896D01*
X48226Y-44895D01*
X48258Y-44864D01*
X48342Y-44662D01*
X48342Y-44468D01*
X48565Y-44244D01*
X48566Y-44278D01*
X48566Y-44371D01*
X48558Y-44379D01*
X48520Y-44470D01*
X48520Y-44569D01*
X48519Y-44633D01*
X48581Y-44695D01*
X48844Y-44695D01*
X48844Y-44561D01*
X48890Y-44515D01*
X48890Y-44202D01*
X48890Y-44152D01*
X48890Y-44052D01*
X48990Y-44052D01*
X48990Y-44152D01*
X48990Y-44202D01*
X48990Y-44286D01*
X48944Y-44332D01*
X48944Y-44645D01*
X48944Y-44695D01*
X48944Y-44795D01*
X48844Y-44795D01*
X48794Y-44795D01*
X48581Y-44795D01*
X48519Y-44857D01*
X48520Y-44921D01*
X48520Y-45020D01*
X48558Y-45111D01*
X48628Y-45181D01*
X48720Y-45219D01*
X48720Y-45994D01*
X48758Y-46086D01*
X48828Y-46156D01*
X48887Y-46181D01*
X48519Y-46181D01*
X48519Y-45657D01*
X48457Y-45595D01*
X48019Y-45595D01*
X48019Y-46133D01*
X48081Y-46195D01*
X48318Y-46194D01*
X48410Y-46156D01*
X48480Y-46086D01*
X48518Y-45995D01*
X48518Y-45896D01*
X48519Y-45657D01*
X48519Y-46181D01*
X48369Y-46181D01*
X48277Y-46219D01*
X48207Y-46289D01*
X48169Y-46380D01*
X48169Y-46479D01*
X48169Y-47079D01*
X48207Y-47171D01*
X48277Y-47241D01*
X48368Y-47279D01*
X48430Y-47279D01*
X48410Y-47352D01*
X48718Y-47659D01*
X49026Y-47352D01*
X49005Y-47279D01*
X49067Y-47279D01*
X49159Y-47241D01*
X49229Y-47171D01*
X49267Y-47080D01*
X49267Y-46981D01*
X49267Y-46381D01*
X49229Y-46289D01*
X49159Y-46219D01*
X49099Y-46194D01*
X49295Y-46194D01*
X49295Y-46244D01*
X49295Y-47044D01*
X49333Y-47136D01*
X49403Y-47206D01*
X49494Y-47244D01*
X49593Y-47244D01*
X50193Y-47244D01*
X50285Y-47206D01*
X50355Y-47136D01*
X50393Y-47045D01*
X50393Y-46946D01*
X50393Y-46219D01*
X50443Y-46219D01*
X50507Y-46220D01*
X50519Y-46208D01*
X50519Y-46220D01*
X50595Y-46220D01*
X50595Y-46244D01*
X50594Y-46483D01*
X50656Y-46545D01*
X51044Y-46545D01*
X51094Y-46545D01*
X51194Y-46545D01*
X51194Y-46645D01*
X51194Y-46695D01*
X51194Y-47183D01*
X51256Y-47245D01*
X51493Y-47244D01*
X51585Y-47206D01*
X51595Y-47196D01*
X51595Y-47544D01*
X51633Y-47636D01*
X51703Y-47706D01*
X51794Y-47744D01*
X51893Y-47744D01*
X52493Y-47744D01*
X52585Y-47706D01*
X52655Y-47636D01*
X52693Y-47545D01*
X52693Y-47446D01*
X52693Y-46769D01*
X52793Y-46769D01*
X52885Y-46731D01*
X52895Y-46721D01*
X52895Y-46744D01*
X52894Y-46983D01*
X52956Y-47045D01*
X53344Y-47045D01*
X53394Y-47045D01*
X53494Y-47045D01*
X53544Y-47045D01*
X53781Y-47045D01*
X53818Y-47082D01*
X54031Y-47082D01*
X54081Y-47082D01*
X54181Y-47082D01*
X54181Y-47182D01*
X54181Y-47232D01*
X54181Y-47545D01*
X54196Y-47560D01*
X54196Y-47638D01*
X54196Y-47688D01*
X54196Y-47788D01*
G54D10*
G36*
X55704Y-36762D02*
X55604Y-36762D01*
X55604Y-36662D01*
X55704Y-36662D01*
X55704Y-36762D01*
X55704Y-36762D01*
G37*
G54D34*
X55704Y-36762D02*
X55604Y-36762D01*
X55604Y-36662D01*
X55704Y-36662D01*
X55704Y-36762D01*
G54D10*
G36*
X55915Y-47322D02*
X55894Y-47322D01*
X55873Y-47322D01*
X55836Y-47359D01*
X55836Y-47322D01*
X55815Y-47322D01*
X55815Y-47251D01*
X55915Y-47251D01*
X55915Y-47322D01*
X55915Y-47322D01*
G37*
G54D34*
X55915Y-47322D02*
X55894Y-47322D01*
X55873Y-47322D01*
X55836Y-47359D01*
X55836Y-47322D01*
X55815Y-47322D01*
X55815Y-47251D01*
X55915Y-47251D01*
X55915Y-47322D01*
G54D10*
G36*
X56726Y-48698D02*
X56712Y-48704D01*
X56535Y-48881D01*
X56439Y-49112D01*
X56439Y-49363D01*
X56535Y-49595D01*
X56578Y-49638D01*
X56464Y-49638D01*
X56251Y-49726D01*
X56088Y-49889D01*
X55999Y-50102D01*
X55999Y-50333D01*
X56087Y-50546D01*
X56228Y-50687D01*
X55160Y-50687D01*
X55300Y-50547D01*
X55389Y-50334D01*
X55389Y-50103D01*
X55301Y-49890D01*
X55159Y-49748D01*
X55503Y-49405D01*
X55504Y-49404D01*
X55535Y-49384D01*
X55576Y-49344D01*
X55576Y-49343D01*
X55639Y-49250D01*
X55660Y-49140D01*
X55661Y-49139D01*
X55661Y-49042D01*
X55666Y-49037D01*
X55719Y-48909D01*
X55719Y-48771D01*
X55688Y-48698D01*
X56726Y-48698D01*
X56726Y-48698D01*
G37*
G54D34*
X56726Y-48698D02*
X56712Y-48704D01*
X56535Y-48881D01*
X56439Y-49112D01*
X56439Y-49363D01*
X56535Y-49595D01*
X56578Y-49638D01*
X56464Y-49638D01*
X56251Y-49726D01*
X56088Y-49889D01*
X55999Y-50102D01*
X55999Y-50333D01*
X56087Y-50546D01*
X56228Y-50687D01*
X55160Y-50687D01*
X55300Y-50547D01*
X55389Y-50334D01*
X55389Y-50103D01*
X55301Y-49890D01*
X55159Y-49748D01*
X55503Y-49405D01*
X55504Y-49404D01*
X55535Y-49384D01*
X55576Y-49344D01*
X55576Y-49343D01*
X55639Y-49250D01*
X55660Y-49140D01*
X55661Y-49139D01*
X55661Y-49042D01*
X55666Y-49037D01*
X55719Y-48909D01*
X55719Y-48771D01*
X55688Y-48698D01*
X56726Y-48698D01*
G54D10*
G36*
X56988Y-45882D02*
X56888Y-45882D01*
X56838Y-45882D01*
X56744Y-45882D01*
X56732Y-45870D01*
X56369Y-45870D01*
X56369Y-46133D01*
X56431Y-46195D01*
X56490Y-46194D01*
X56464Y-46257D01*
X56464Y-46259D01*
X56404Y-46319D01*
X56404Y-46399D01*
X56390Y-46366D01*
X56346Y-46322D01*
X56346Y-46319D01*
X56284Y-46257D01*
X56267Y-46258D01*
X56247Y-46265D01*
X56229Y-46258D01*
X56130Y-46258D01*
X56012Y-46258D01*
X55992Y-46265D01*
X55974Y-46258D01*
X55947Y-46258D01*
X55947Y-46194D01*
X55969Y-46194D01*
X56006Y-46178D01*
X56044Y-46194D01*
X56143Y-46194D01*
X56207Y-46195D01*
X56269Y-46133D01*
X56269Y-45870D01*
X56107Y-45870D01*
X55906Y-45870D01*
X55794Y-45870D01*
X55744Y-45870D01*
X55644Y-45870D01*
X55594Y-45870D01*
X55457Y-45870D01*
X55281Y-45870D01*
X55144Y-45870D01*
X55094Y-45870D01*
X54994Y-45870D01*
X54944Y-45870D01*
X54807Y-45870D01*
X54631Y-45870D01*
X54494Y-45870D01*
X54444Y-45870D01*
X54344Y-45870D01*
X54294Y-45870D01*
X54182Y-45870D01*
X53981Y-45870D01*
X53819Y-45870D01*
X53819Y-46133D01*
X53881Y-46195D01*
X53945Y-46194D01*
X53955Y-46194D01*
X53945Y-46220D01*
X53945Y-46319D01*
X53944Y-46383D01*
X54006Y-46445D01*
X54219Y-46445D01*
X54269Y-46445D01*
X54344Y-46445D01*
X54369Y-46445D01*
X54369Y-46545D01*
X54344Y-46545D01*
X54269Y-46545D01*
X54219Y-46545D01*
X54006Y-46545D01*
X53967Y-46583D01*
X53955Y-46554D01*
X53885Y-46484D01*
X53793Y-46446D01*
X53719Y-46445D01*
X53593Y-46445D01*
X53594Y-46407D01*
X53532Y-46345D01*
X53319Y-46345D01*
X53269Y-46345D01*
X53169Y-46345D01*
X53169Y-46245D01*
X53169Y-46195D01*
X53244Y-46195D01*
X53244Y-46183D01*
X53256Y-46195D01*
X53269Y-46194D01*
X53269Y-46245D01*
X53532Y-46245D01*
X53583Y-46194D01*
X53593Y-46194D01*
X53657Y-46195D01*
X53719Y-46133D01*
X53719Y-45870D01*
X53557Y-45870D01*
X53496Y-45870D01*
X53485Y-45859D01*
X53393Y-45821D01*
X53331Y-45820D01*
X53281Y-45870D01*
X53244Y-45870D01*
X53194Y-45870D01*
X53157Y-45870D01*
X53107Y-45820D01*
X53094Y-45820D01*
X53094Y-45770D01*
X53194Y-45770D01*
X53244Y-45770D01*
X53356Y-45770D01*
X53557Y-45770D01*
X53669Y-45770D01*
X53719Y-45770D01*
X53819Y-45770D01*
X53869Y-45770D01*
X53981Y-45770D01*
X54182Y-45770D01*
X54294Y-45770D01*
X54344Y-45770D01*
X54444Y-45770D01*
X54494Y-45770D01*
X54631Y-45770D01*
X54807Y-45770D01*
X54944Y-45770D01*
X54994Y-45770D01*
X55094Y-45770D01*
X55144Y-45770D01*
X55281Y-45770D01*
X55457Y-45770D01*
X55594Y-45770D01*
X55644Y-45770D01*
X55744Y-45770D01*
X55794Y-45770D01*
X55906Y-45770D01*
X56107Y-45770D01*
X56219Y-45770D01*
X56269Y-45770D01*
X56369Y-45770D01*
X56419Y-45770D01*
X56513Y-45770D01*
X56525Y-45782D01*
X56763Y-45782D01*
X56779Y-45798D01*
X56907Y-45851D01*
X56988Y-45851D01*
X56988Y-45882D01*
X56988Y-45882D01*
G37*
G54D34*
X56988Y-45882D02*
X56888Y-45882D01*
X56838Y-45882D01*
X56744Y-45882D01*
X56732Y-45870D01*
X56369Y-45870D01*
X56369Y-46133D01*
X56431Y-46195D01*
X56490Y-46194D01*
X56464Y-46257D01*
X56464Y-46259D01*
X56404Y-46319D01*
X56404Y-46399D01*
X56390Y-46366D01*
X56346Y-46322D01*
X56346Y-46319D01*
X56284Y-46257D01*
X56267Y-46258D01*
X56247Y-46265D01*
X56229Y-46258D01*
X56130Y-46258D01*
X56012Y-46258D01*
X55992Y-46265D01*
X55974Y-46258D01*
X55947Y-46258D01*
X55947Y-46194D01*
X55969Y-46194D01*
X56006Y-46178D01*
X56044Y-46194D01*
X56143Y-46194D01*
X56207Y-46195D01*
X56269Y-46133D01*
X56269Y-45870D01*
X56107Y-45870D01*
X55906Y-45870D01*
X55794Y-45870D01*
X55744Y-45870D01*
X55644Y-45870D01*
X55594Y-45870D01*
X55457Y-45870D01*
X55281Y-45870D01*
X55144Y-45870D01*
X55094Y-45870D01*
X54994Y-45870D01*
X54944Y-45870D01*
X54807Y-45870D01*
X54631Y-45870D01*
X54494Y-45870D01*
X54444Y-45870D01*
X54344Y-45870D01*
X54294Y-45870D01*
X54182Y-45870D01*
X53981Y-45870D01*
X53819Y-45870D01*
X53819Y-46133D01*
X53881Y-46195D01*
X53945Y-46194D01*
X53955Y-46194D01*
X53945Y-46220D01*
X53945Y-46319D01*
X53944Y-46383D01*
X54006Y-46445D01*
X54219Y-46445D01*
X54269Y-46445D01*
X54344Y-46445D01*
X54369Y-46445D01*
X54369Y-46545D01*
X54344Y-46545D01*
X54269Y-46545D01*
X54219Y-46545D01*
X54006Y-46545D01*
X53967Y-46583D01*
X53955Y-46554D01*
X53885Y-46484D01*
X53793Y-46446D01*
X53719Y-46445D01*
X53593Y-46445D01*
X53594Y-46407D01*
X53532Y-46345D01*
X53319Y-46345D01*
X53269Y-46345D01*
X53169Y-46345D01*
X53169Y-46245D01*
X53169Y-46195D01*
X53244Y-46195D01*
X53244Y-46183D01*
X53256Y-46195D01*
X53269Y-46194D01*
X53269Y-46245D01*
X53532Y-46245D01*
X53583Y-46194D01*
X53593Y-46194D01*
X53657Y-46195D01*
X53719Y-46133D01*
X53719Y-45870D01*
X53557Y-45870D01*
X53496Y-45870D01*
X53485Y-45859D01*
X53393Y-45821D01*
X53331Y-45820D01*
X53281Y-45870D01*
X53244Y-45870D01*
X53194Y-45870D01*
X53157Y-45870D01*
X53107Y-45820D01*
X53094Y-45820D01*
X53094Y-45770D01*
X53194Y-45770D01*
X53244Y-45770D01*
X53356Y-45770D01*
X53557Y-45770D01*
X53669Y-45770D01*
X53719Y-45770D01*
X53819Y-45770D01*
X53869Y-45770D01*
X53981Y-45770D01*
X54182Y-45770D01*
X54294Y-45770D01*
X54344Y-45770D01*
X54444Y-45770D01*
X54494Y-45770D01*
X54631Y-45770D01*
X54807Y-45770D01*
X54944Y-45770D01*
X54994Y-45770D01*
X55094Y-45770D01*
X55144Y-45770D01*
X55281Y-45770D01*
X55457Y-45770D01*
X55594Y-45770D01*
X55644Y-45770D01*
X55744Y-45770D01*
X55794Y-45770D01*
X55906Y-45770D01*
X56107Y-45770D01*
X56219Y-45770D01*
X56269Y-45770D01*
X56369Y-45770D01*
X56419Y-45770D01*
X56513Y-45770D01*
X56525Y-45782D01*
X56763Y-45782D01*
X56779Y-45798D01*
X56907Y-45851D01*
X56988Y-45851D01*
X56988Y-45882D01*
G54D10*
G36*
X57011Y-43321D02*
X57003Y-43321D01*
X56981Y-43321D01*
X56904Y-43321D01*
X56846Y-43321D01*
X56824Y-43321D01*
X56747Y-43321D01*
X56689Y-43321D01*
X56667Y-43321D01*
X56590Y-43321D01*
X56532Y-43321D01*
X56510Y-43321D01*
X56433Y-43321D01*
X56375Y-43321D01*
X56353Y-43321D01*
X56276Y-43321D01*
X56260Y-43321D01*
X56260Y-43269D01*
X56238Y-43158D01*
X56175Y-43065D01*
X56082Y-43002D01*
X55971Y-42980D01*
X55860Y-43002D01*
X55767Y-43065D01*
X55704Y-43158D01*
X55682Y-43269D01*
X55682Y-43338D01*
X55657Y-43349D01*
X55590Y-43321D01*
X55576Y-43321D01*
X55575Y-43320D01*
X55568Y-43321D01*
X55491Y-43321D01*
X55433Y-43321D01*
X55411Y-43321D01*
X55334Y-43321D01*
X55276Y-43321D01*
X55254Y-43321D01*
X55177Y-43321D01*
X55119Y-43321D01*
X55097Y-43321D01*
X55020Y-43321D01*
X54962Y-43321D01*
X54940Y-43321D01*
X54863Y-43321D01*
X54804Y-43321D01*
X54797Y-43320D01*
X54796Y-43321D01*
X54783Y-43321D01*
X54715Y-43349D01*
X54690Y-43338D01*
X54690Y-43251D01*
X54668Y-43140D01*
X54605Y-43047D01*
X54605Y-43046D01*
X54559Y-43000D01*
X54559Y-42952D01*
X54506Y-42824D01*
X54409Y-42727D01*
X54281Y-42674D01*
X54143Y-42674D01*
X54105Y-42689D01*
X54104Y-42688D01*
X53976Y-42635D01*
X53838Y-42635D01*
X53742Y-42674D01*
X53729Y-42606D01*
X53668Y-42515D01*
X53771Y-42515D01*
X53792Y-42529D01*
X53793Y-42529D01*
X53918Y-42554D01*
X54991Y-42554D01*
X55007Y-42592D01*
X55104Y-42689D01*
X55232Y-42742D01*
X55370Y-42742D01*
X55415Y-42723D01*
X55540Y-42723D01*
X55649Y-42768D01*
X55787Y-42768D01*
X55915Y-42715D01*
X56012Y-42618D01*
X56065Y-42490D01*
X56065Y-42352D01*
X56012Y-42224D01*
X56009Y-42221D01*
X56088Y-42206D01*
X56089Y-42206D01*
X56169Y-42152D01*
X56169Y-42679D01*
X56131Y-42771D01*
X56131Y-42909D01*
X56184Y-43037D01*
X56281Y-43134D01*
X56409Y-43187D01*
X56547Y-43187D01*
X56675Y-43134D01*
X56764Y-43044D01*
X56827Y-43136D01*
X57011Y-43321D01*
X57011Y-43321D01*
G37*
G54D34*
X57011Y-43321D02*
X57003Y-43321D01*
X56981Y-43321D01*
X56904Y-43321D01*
X56846Y-43321D01*
X56824Y-43321D01*
X56747Y-43321D01*
X56689Y-43321D01*
X56667Y-43321D01*
X56590Y-43321D01*
X56532Y-43321D01*
X56510Y-43321D01*
X56433Y-43321D01*
X56375Y-43321D01*
X56353Y-43321D01*
X56276Y-43321D01*
X56260Y-43321D01*
X56260Y-43269D01*
X56238Y-43158D01*
X56175Y-43065D01*
X56082Y-43002D01*
X55971Y-42980D01*
X55860Y-43002D01*
X55767Y-43065D01*
X55704Y-43158D01*
X55682Y-43269D01*
X55682Y-43338D01*
X55657Y-43349D01*
X55590Y-43321D01*
X55576Y-43321D01*
X55575Y-43320D01*
X55568Y-43321D01*
X55491Y-43321D01*
X55433Y-43321D01*
X55411Y-43321D01*
X55334Y-43321D01*
X55276Y-43321D01*
X55254Y-43321D01*
X55177Y-43321D01*
X55119Y-43321D01*
X55097Y-43321D01*
X55020Y-43321D01*
X54962Y-43321D01*
X54940Y-43321D01*
X54863Y-43321D01*
X54804Y-43321D01*
X54797Y-43320D01*
X54796Y-43321D01*
X54783Y-43321D01*
X54715Y-43349D01*
X54690Y-43338D01*
X54690Y-43251D01*
X54668Y-43140D01*
X54605Y-43047D01*
X54605Y-43046D01*
X54559Y-43000D01*
X54559Y-42952D01*
X54506Y-42824D01*
X54409Y-42727D01*
X54281Y-42674D01*
X54143Y-42674D01*
X54105Y-42689D01*
X54104Y-42688D01*
X53976Y-42635D01*
X53838Y-42635D01*
X53742Y-42674D01*
X53729Y-42606D01*
X53668Y-42515D01*
X53771Y-42515D01*
X53792Y-42529D01*
X53793Y-42529D01*
X53918Y-42554D01*
X54991Y-42554D01*
X55007Y-42592D01*
X55104Y-42689D01*
X55232Y-42742D01*
X55370Y-42742D01*
X55415Y-42723D01*
X55540Y-42723D01*
X55649Y-42768D01*
X55787Y-42768D01*
X55915Y-42715D01*
X56012Y-42618D01*
X56065Y-42490D01*
X56065Y-42352D01*
X56012Y-42224D01*
X56009Y-42221D01*
X56088Y-42206D01*
X56089Y-42206D01*
X56169Y-42152D01*
X56169Y-42679D01*
X56131Y-42771D01*
X56131Y-42909D01*
X56184Y-43037D01*
X56281Y-43134D01*
X56409Y-43187D01*
X56547Y-43187D01*
X56675Y-43134D01*
X56764Y-43044D01*
X56827Y-43136D01*
X57011Y-43321D01*
G54D10*
G36*
X57495Y-40059D02*
X57481Y-40057D01*
X57355Y-40082D01*
X57249Y-40153D01*
X57162Y-40239D01*
X57116Y-40259D01*
X57019Y-40356D01*
X57000Y-40401D01*
X56999Y-40401D01*
X56999Y-40402D01*
X56954Y-40421D01*
X56857Y-40518D01*
X56837Y-40564D01*
X55827Y-41575D01*
X54628Y-41575D01*
X54591Y-41538D01*
X54544Y-41423D01*
X54447Y-41326D01*
X54319Y-41273D01*
X54181Y-41273D01*
X54135Y-41292D01*
X54016Y-41292D01*
X53956Y-41267D01*
X53818Y-41267D01*
X53690Y-41320D01*
X53593Y-41417D01*
X53540Y-41545D01*
X53540Y-41683D01*
X53593Y-41811D01*
X53641Y-41859D01*
X53238Y-41859D01*
X53199Y-41859D01*
X53227Y-41831D01*
X53280Y-41703D01*
X53280Y-41565D01*
X53227Y-41437D01*
X53130Y-41340D01*
X53002Y-41287D01*
X52864Y-41287D01*
X52851Y-41292D01*
X52741Y-41292D01*
X52696Y-41273D01*
X52558Y-41273D01*
X52430Y-41326D01*
X52421Y-41334D01*
X52328Y-41353D01*
X52276Y-41388D01*
X52269Y-41381D01*
X52141Y-41328D01*
X52093Y-41328D01*
X52093Y-41317D01*
X52093Y-41259D01*
X52093Y-41237D01*
X52093Y-41160D01*
X52093Y-41102D01*
X52093Y-41080D01*
X52093Y-41003D01*
X52093Y-40945D01*
X52093Y-40923D01*
X52093Y-40846D01*
X52093Y-40788D01*
X52093Y-40766D01*
X52093Y-40689D01*
X52093Y-40631D01*
X52093Y-40609D01*
X52093Y-40606D01*
X52102Y-40613D01*
X52213Y-40635D01*
X52390Y-40635D01*
X52390Y-40634D01*
X52500Y-40613D01*
X52501Y-40613D01*
X52594Y-40550D01*
X52728Y-40417D01*
X52728Y-40416D01*
X52791Y-40323D01*
X52812Y-40212D01*
X52813Y-40212D01*
X52813Y-39961D01*
X52791Y-39850D01*
X52728Y-39757D01*
X52728Y-39756D01*
X52643Y-39671D01*
X52643Y-39538D01*
X52686Y-39435D01*
X52686Y-39297D01*
X52633Y-39169D01*
X52536Y-39072D01*
X52421Y-39024D01*
X52465Y-38919D01*
X52465Y-38911D01*
X52966Y-38410D01*
X53031Y-38475D01*
X53159Y-38528D01*
X53297Y-38528D01*
X53425Y-38475D01*
X53460Y-38440D01*
X53468Y-38448D01*
X53596Y-38501D01*
X53734Y-38501D01*
X53860Y-38448D01*
X53862Y-38448D01*
X53872Y-38453D01*
X54010Y-38453D01*
X54106Y-38412D01*
X54148Y-38430D01*
X54270Y-38430D01*
X54270Y-38731D01*
X54150Y-38852D01*
X54087Y-38945D01*
X54065Y-39056D01*
X54065Y-39263D01*
X54045Y-39283D01*
X53992Y-39411D01*
X53992Y-39549D01*
X54045Y-39677D01*
X54142Y-39774D01*
X54270Y-39827D01*
X54408Y-39827D01*
X54536Y-39774D01*
X54633Y-39677D01*
X54686Y-39549D01*
X54686Y-39521D01*
X54730Y-39540D01*
X54868Y-39540D01*
X54951Y-39505D01*
X55025Y-39536D01*
X55163Y-39536D01*
X55258Y-39496D01*
X55325Y-39524D01*
X55463Y-39524D01*
X55581Y-39474D01*
X55594Y-39487D01*
X55722Y-39540D01*
X55860Y-39540D01*
X55988Y-39487D01*
X56082Y-39392D01*
X56132Y-39442D01*
X56225Y-39505D01*
X56226Y-39505D01*
X56336Y-39527D01*
X56425Y-39527D01*
X56430Y-39532D01*
X56558Y-39585D01*
X56696Y-39585D01*
X56807Y-39538D01*
X56350Y-39996D01*
X56279Y-39996D01*
X56047Y-39996D01*
X55956Y-39958D01*
X55818Y-39958D01*
X55690Y-40011D01*
X55593Y-40108D01*
X55540Y-40236D01*
X55540Y-40238D01*
X55444Y-40334D01*
X55391Y-40462D01*
X55391Y-40600D01*
X55444Y-40728D01*
X55541Y-40825D01*
X55669Y-40878D01*
X55807Y-40878D01*
X55898Y-40840D01*
X56053Y-40840D01*
X56053Y-40839D01*
X56171Y-40816D01*
X56271Y-40749D01*
X56406Y-40614D01*
X56478Y-40614D01*
X56478Y-40613D01*
X56596Y-40590D01*
X56696Y-40523D01*
X57495Y-39724D01*
X57495Y-39766D01*
X57495Y-39824D01*
X57495Y-39846D01*
X57495Y-39923D01*
X57495Y-39981D01*
X57495Y-40003D01*
X57495Y-40059D01*
X57495Y-40059D01*
G37*
G54D34*
X57495Y-40059D02*
X57481Y-40057D01*
X57355Y-40082D01*
X57249Y-40153D01*
X57162Y-40239D01*
X57116Y-40259D01*
X57019Y-40356D01*
X57000Y-40401D01*
X56999Y-40401D01*
X56999Y-40402D01*
X56954Y-40421D01*
X56857Y-40518D01*
X56837Y-40564D01*
X55827Y-41575D01*
X54628Y-41575D01*
X54591Y-41538D01*
X54544Y-41423D01*
X54447Y-41326D01*
X54319Y-41273D01*
X54181Y-41273D01*
X54135Y-41292D01*
X54016Y-41292D01*
X53956Y-41267D01*
X53818Y-41267D01*
X53690Y-41320D01*
X53593Y-41417D01*
X53540Y-41545D01*
X53540Y-41683D01*
X53593Y-41811D01*
X53641Y-41859D01*
X53238Y-41859D01*
X53199Y-41859D01*
X53227Y-41831D01*
X53280Y-41703D01*
X53280Y-41565D01*
X53227Y-41437D01*
X53130Y-41340D01*
X53002Y-41287D01*
X52864Y-41287D01*
X52851Y-41292D01*
X52741Y-41292D01*
X52696Y-41273D01*
X52558Y-41273D01*
X52430Y-41326D01*
X52421Y-41334D01*
X52328Y-41353D01*
X52276Y-41388D01*
X52269Y-41381D01*
X52141Y-41328D01*
X52093Y-41328D01*
X52093Y-41317D01*
X52093Y-41259D01*
X52093Y-41237D01*
X52093Y-41160D01*
X52093Y-41102D01*
X52093Y-41080D01*
X52093Y-41003D01*
X52093Y-40945D01*
X52093Y-40923D01*
X52093Y-40846D01*
X52093Y-40788D01*
X52093Y-40766D01*
X52093Y-40689D01*
X52093Y-40631D01*
X52093Y-40609D01*
X52093Y-40606D01*
X52102Y-40613D01*
X52213Y-40635D01*
X52390Y-40635D01*
X52390Y-40634D01*
X52500Y-40613D01*
X52501Y-40613D01*
X52594Y-40550D01*
X52728Y-40417D01*
X52728Y-40416D01*
X52791Y-40323D01*
X52812Y-40212D01*
X52813Y-40212D01*
X52813Y-39961D01*
X52791Y-39850D01*
X52728Y-39757D01*
X52728Y-39756D01*
X52643Y-39671D01*
X52643Y-39538D01*
X52686Y-39435D01*
X52686Y-39297D01*
X52633Y-39169D01*
X52536Y-39072D01*
X52421Y-39024D01*
X52465Y-38919D01*
X52465Y-38911D01*
X52966Y-38410D01*
X53031Y-38475D01*
X53159Y-38528D01*
X53297Y-38528D01*
X53425Y-38475D01*
X53460Y-38440D01*
X53468Y-38448D01*
X53596Y-38501D01*
X53734Y-38501D01*
X53860Y-38448D01*
X53862Y-38448D01*
X53872Y-38453D01*
X54010Y-38453D01*
X54106Y-38412D01*
X54148Y-38430D01*
X54270Y-38430D01*
X54270Y-38731D01*
X54150Y-38852D01*
X54087Y-38945D01*
X54065Y-39056D01*
X54065Y-39263D01*
X54045Y-39283D01*
X53992Y-39411D01*
X53992Y-39549D01*
X54045Y-39677D01*
X54142Y-39774D01*
X54270Y-39827D01*
X54408Y-39827D01*
X54536Y-39774D01*
X54633Y-39677D01*
X54686Y-39549D01*
X54686Y-39521D01*
X54730Y-39540D01*
X54868Y-39540D01*
X54951Y-39505D01*
X55025Y-39536D01*
X55163Y-39536D01*
X55258Y-39496D01*
X55325Y-39524D01*
X55463Y-39524D01*
X55581Y-39474D01*
X55594Y-39487D01*
X55722Y-39540D01*
X55860Y-39540D01*
X55988Y-39487D01*
X56082Y-39392D01*
X56132Y-39442D01*
X56225Y-39505D01*
X56226Y-39505D01*
X56336Y-39527D01*
X56425Y-39527D01*
X56430Y-39532D01*
X56558Y-39585D01*
X56696Y-39585D01*
X56807Y-39538D01*
X56350Y-39996D01*
X56279Y-39996D01*
X56047Y-39996D01*
X55956Y-39958D01*
X55818Y-39958D01*
X55690Y-40011D01*
X55593Y-40108D01*
X55540Y-40236D01*
X55540Y-40238D01*
X55444Y-40334D01*
X55391Y-40462D01*
X55391Y-40600D01*
X55444Y-40728D01*
X55541Y-40825D01*
X55669Y-40878D01*
X55807Y-40878D01*
X55898Y-40840D01*
X56053Y-40840D01*
X56053Y-40839D01*
X56171Y-40816D01*
X56271Y-40749D01*
X56406Y-40614D01*
X56478Y-40614D01*
X56478Y-40613D01*
X56596Y-40590D01*
X56696Y-40523D01*
X57495Y-39724D01*
X57495Y-39766D01*
X57495Y-39824D01*
X57495Y-39846D01*
X57495Y-39923D01*
X57495Y-39981D01*
X57495Y-40003D01*
X57495Y-40059D01*
G54D10*
G36*
X58371Y-46846D02*
X58350Y-46867D01*
X58350Y-47080D01*
X58350Y-47130D01*
X58350Y-47230D01*
X58250Y-47230D01*
X58250Y-47130D01*
X58250Y-46867D01*
X58188Y-46805D01*
X58124Y-46806D01*
X58025Y-46806D01*
X57934Y-46844D01*
X57864Y-46914D01*
X57826Y-47006D01*
X57825Y-47068D01*
X57887Y-47130D01*
X58250Y-47130D01*
X58250Y-47230D01*
X58200Y-47230D01*
X57887Y-47230D01*
X57825Y-47292D01*
X57826Y-47354D01*
X57864Y-47446D01*
X57898Y-47480D01*
X57887Y-47491D01*
X57580Y-47491D01*
X57469Y-47513D01*
X57375Y-47576D01*
X56831Y-48120D01*
X55663Y-48120D01*
X55663Y-48102D01*
X55652Y-48077D01*
X55713Y-48017D01*
X55751Y-47926D01*
X55751Y-47827D01*
X55751Y-47655D01*
X55757Y-47658D01*
X55774Y-47659D01*
X55836Y-47597D01*
X55836Y-47516D01*
X55850Y-47550D01*
X55894Y-47594D01*
X55894Y-47597D01*
X55956Y-47659D01*
X55973Y-47658D01*
X55992Y-47649D01*
X56012Y-47658D01*
X56029Y-47659D01*
X56091Y-47597D01*
X56091Y-47594D01*
X56120Y-47565D01*
X56149Y-47594D01*
X56149Y-47597D01*
X56211Y-47659D01*
X56228Y-47658D01*
X56247Y-47650D01*
X56266Y-47658D01*
X56365Y-47658D01*
X56483Y-47658D01*
X56575Y-47620D01*
X56645Y-47550D01*
X56654Y-47528D01*
X56654Y-47527D01*
X56731Y-47476D01*
X57142Y-47066D01*
X57142Y-47065D01*
X57173Y-47018D01*
X57205Y-46972D01*
X57205Y-46971D01*
X57226Y-46861D01*
X57227Y-46861D01*
X57227Y-46799D01*
X57304Y-46768D01*
X57374Y-46698D01*
X57412Y-46607D01*
X57412Y-46508D01*
X57412Y-46323D01*
X57527Y-46209D01*
X57527Y-46208D01*
X57590Y-46115D01*
X57598Y-46073D01*
X58371Y-46846D01*
X58371Y-46846D01*
G37*
G54D34*
X58371Y-46846D02*
X58350Y-46867D01*
X58350Y-47080D01*
X58350Y-47130D01*
X58350Y-47230D01*
X58250Y-47230D01*
X58250Y-47130D01*
X58250Y-46867D01*
X58188Y-46805D01*
X58124Y-46806D01*
X58025Y-46806D01*
X57934Y-46844D01*
X57864Y-46914D01*
X57826Y-47006D01*
X57825Y-47068D01*
X57887Y-47130D01*
X58250Y-47130D01*
X58250Y-47230D01*
X58200Y-47230D01*
X57887Y-47230D01*
X57825Y-47292D01*
X57826Y-47354D01*
X57864Y-47446D01*
X57898Y-47480D01*
X57887Y-47491D01*
X57580Y-47491D01*
X57469Y-47513D01*
X57375Y-47576D01*
X56831Y-48120D01*
X55663Y-48120D01*
X55663Y-48102D01*
X55652Y-48077D01*
X55713Y-48017D01*
X55751Y-47926D01*
X55751Y-47827D01*
X55751Y-47655D01*
X55757Y-47658D01*
X55774Y-47659D01*
X55836Y-47597D01*
X55836Y-47516D01*
X55850Y-47550D01*
X55894Y-47594D01*
X55894Y-47597D01*
X55956Y-47659D01*
X55973Y-47658D01*
X55992Y-47649D01*
X56012Y-47658D01*
X56029Y-47659D01*
X56091Y-47597D01*
X56091Y-47594D01*
X56120Y-47565D01*
X56149Y-47594D01*
X56149Y-47597D01*
X56211Y-47659D01*
X56228Y-47658D01*
X56247Y-47650D01*
X56266Y-47658D01*
X56365Y-47658D01*
X56483Y-47658D01*
X56575Y-47620D01*
X56645Y-47550D01*
X56654Y-47528D01*
X56654Y-47527D01*
X56731Y-47476D01*
X57142Y-47066D01*
X57142Y-47065D01*
X57173Y-47018D01*
X57205Y-46972D01*
X57205Y-46971D01*
X57226Y-46861D01*
X57227Y-46861D01*
X57227Y-46799D01*
X57304Y-46768D01*
X57374Y-46698D01*
X57412Y-46607D01*
X57412Y-46508D01*
X57412Y-46323D01*
X57527Y-46209D01*
X57527Y-46208D01*
X57590Y-46115D01*
X57598Y-46073D01*
X58371Y-46846D01*
G54D10*
G36*
X59191Y-44067D02*
X59184Y-44075D01*
X59174Y-44099D01*
X59160Y-44099D01*
X58921Y-44098D01*
X58859Y-44160D01*
X58859Y-44548D01*
X58859Y-44598D01*
X58859Y-44698D01*
X58759Y-44698D01*
X58759Y-44598D01*
X58759Y-44548D01*
X58759Y-44160D01*
X58697Y-44098D01*
X58543Y-44098D01*
X58542Y-44098D01*
X58535Y-44059D01*
X58535Y-44058D01*
X58472Y-43965D01*
X58404Y-43897D01*
X58458Y-43897D01*
X58894Y-43897D01*
X58967Y-43969D01*
X58970Y-43973D01*
X59076Y-44044D01*
X59191Y-44067D01*
X59191Y-44067D01*
G37*
G54D34*
X59191Y-44067D02*
X59184Y-44075D01*
X59174Y-44099D01*
X59160Y-44099D01*
X58921Y-44098D01*
X58859Y-44160D01*
X58859Y-44548D01*
X58859Y-44598D01*
X58859Y-44698D01*
X58759Y-44698D01*
X58759Y-44598D01*
X58759Y-44548D01*
X58759Y-44160D01*
X58697Y-44098D01*
X58543Y-44098D01*
X58542Y-44098D01*
X58535Y-44059D01*
X58535Y-44058D01*
X58472Y-43965D01*
X58404Y-43897D01*
X58458Y-43897D01*
X58894Y-43897D01*
X58967Y-43969D01*
X58970Y-43973D01*
X59076Y-44044D01*
X59191Y-44067D01*
G54D10*
G36*
X59335Y-49448D02*
X59145Y-49638D01*
X59020Y-49638D01*
X59063Y-49595D01*
X59159Y-49364D01*
X59159Y-49113D01*
X59063Y-48881D01*
X58886Y-48704D01*
X58655Y-48608D01*
X58404Y-48608D01*
X58172Y-48704D01*
X57995Y-48881D01*
X57899Y-49112D01*
X57899Y-49363D01*
X57995Y-49595D01*
X58172Y-49772D01*
X58403Y-49868D01*
X58559Y-49868D01*
X58538Y-49889D01*
X58449Y-50102D01*
X58449Y-50333D01*
X58537Y-50546D01*
X58678Y-50687D01*
X56930Y-50687D01*
X57070Y-50547D01*
X57159Y-50334D01*
X57159Y-50103D01*
X57071Y-49890D01*
X57049Y-49868D01*
X57194Y-49868D01*
X57426Y-49772D01*
X57603Y-49595D01*
X57699Y-49364D01*
X57699Y-49113D01*
X57603Y-48881D01*
X57426Y-48704D01*
X57195Y-48608D01*
X57160Y-48608D01*
X57699Y-48069D01*
X57887Y-48069D01*
X57934Y-48116D01*
X58025Y-48154D01*
X58124Y-48154D01*
X58574Y-48154D01*
X58583Y-48149D01*
X58977Y-48543D01*
X58977Y-48551D01*
X59030Y-48679D01*
X59127Y-48776D01*
X59255Y-48829D01*
X59335Y-48829D01*
X59335Y-49448D01*
X59335Y-49448D01*
G37*
G54D34*
X59335Y-49448D02*
X59145Y-49638D01*
X59020Y-49638D01*
X59063Y-49595D01*
X59159Y-49364D01*
X59159Y-49113D01*
X59063Y-48881D01*
X58886Y-48704D01*
X58655Y-48608D01*
X58404Y-48608D01*
X58172Y-48704D01*
X57995Y-48881D01*
X57899Y-49112D01*
X57899Y-49363D01*
X57995Y-49595D01*
X58172Y-49772D01*
X58403Y-49868D01*
X58559Y-49868D01*
X58538Y-49889D01*
X58449Y-50102D01*
X58449Y-50333D01*
X58537Y-50546D01*
X58678Y-50687D01*
X56930Y-50687D01*
X57070Y-50547D01*
X57159Y-50334D01*
X57159Y-50103D01*
X57071Y-49890D01*
X57049Y-49868D01*
X57194Y-49868D01*
X57426Y-49772D01*
X57603Y-49595D01*
X57699Y-49364D01*
X57699Y-49113D01*
X57603Y-48881D01*
X57426Y-48704D01*
X57195Y-48608D01*
X57160Y-48608D01*
X57699Y-48069D01*
X57887Y-48069D01*
X57934Y-48116D01*
X58025Y-48154D01*
X58124Y-48154D01*
X58574Y-48154D01*
X58583Y-48149D01*
X58977Y-48543D01*
X58977Y-48551D01*
X59030Y-48679D01*
X59127Y-48776D01*
X59255Y-48829D01*
X59335Y-48829D01*
X59335Y-49448D01*
G54D10*
G36*
X61380Y-44552D02*
X61335Y-44570D01*
X61335Y-44390D01*
X61273Y-44328D01*
X60910Y-44328D01*
X60910Y-44591D01*
X60972Y-44653D01*
X61036Y-44652D01*
X61135Y-44652D01*
X61226Y-44614D01*
X61296Y-44544D01*
X61334Y-44452D01*
X61335Y-44390D01*
X61335Y-44570D01*
X61303Y-44584D01*
X61234Y-44652D01*
X61233Y-44653D01*
X61139Y-44716D01*
X60839Y-45017D01*
X60810Y-45059D01*
X60810Y-44591D01*
X60810Y-44328D01*
X60447Y-44328D01*
X60408Y-44367D01*
X60284Y-44367D01*
X60284Y-44630D01*
X60346Y-44692D01*
X60410Y-44691D01*
X60509Y-44691D01*
X60600Y-44653D01*
X60601Y-44652D01*
X60684Y-44652D01*
X60748Y-44653D01*
X60810Y-44591D01*
X60810Y-45059D01*
X60776Y-45110D01*
X60754Y-45221D01*
X60754Y-45431D01*
X60425Y-45103D01*
X60332Y-45040D01*
X60221Y-45018D01*
X60184Y-45018D01*
X60184Y-44630D01*
X60184Y-44367D01*
X59821Y-44367D01*
X59797Y-44391D01*
X59670Y-44391D01*
X59670Y-44654D01*
X59732Y-44716D01*
X59796Y-44715D01*
X59895Y-44715D01*
X59955Y-44689D01*
X59959Y-44691D01*
X60058Y-44691D01*
X60122Y-44692D01*
X60184Y-44630D01*
X60184Y-45018D01*
X60111Y-45018D01*
X60066Y-44909D01*
X59969Y-44812D01*
X59841Y-44759D01*
X59703Y-44759D01*
X59575Y-44812D01*
X59478Y-44909D01*
X59458Y-44956D01*
X59459Y-44760D01*
X59447Y-44748D01*
X59459Y-44748D01*
X59459Y-44715D01*
X59508Y-44716D01*
X59570Y-44654D01*
X59570Y-44441D01*
X59570Y-44391D01*
X59570Y-44291D01*
X59670Y-44291D01*
X59720Y-44291D01*
X60033Y-44291D01*
X60057Y-44267D01*
X60134Y-44267D01*
X60184Y-44267D01*
X60284Y-44267D01*
X60334Y-44267D01*
X60647Y-44267D01*
X60686Y-44228D01*
X60760Y-44228D01*
X60810Y-44228D01*
X60910Y-44228D01*
X60960Y-44228D01*
X61273Y-44228D01*
X61335Y-44166D01*
X61334Y-44104D01*
X61296Y-44012D01*
X61262Y-43978D01*
X61296Y-43944D01*
X61334Y-43853D01*
X61334Y-43754D01*
X61334Y-43675D01*
X61380Y-43721D01*
X61380Y-44552D01*
X61380Y-44552D01*
G37*
G54D34*
X61380Y-44552D02*
X61335Y-44570D01*
X61335Y-44390D01*
X61273Y-44328D01*
X60910Y-44328D01*
X60910Y-44591D01*
X60972Y-44653D01*
X61036Y-44652D01*
X61135Y-44652D01*
X61226Y-44614D01*
X61296Y-44544D01*
X61334Y-44452D01*
X61335Y-44390D01*
X61335Y-44570D01*
X61303Y-44584D01*
X61234Y-44652D01*
X61233Y-44653D01*
X61139Y-44716D01*
X60839Y-45017D01*
X60810Y-45059D01*
X60810Y-44591D01*
X60810Y-44328D01*
X60447Y-44328D01*
X60408Y-44367D01*
X60284Y-44367D01*
X60284Y-44630D01*
X60346Y-44692D01*
X60410Y-44691D01*
X60509Y-44691D01*
X60600Y-44653D01*
X60601Y-44652D01*
X60684Y-44652D01*
X60748Y-44653D01*
X60810Y-44591D01*
X60810Y-45059D01*
X60776Y-45110D01*
X60754Y-45221D01*
X60754Y-45431D01*
X60425Y-45103D01*
X60332Y-45040D01*
X60221Y-45018D01*
X60184Y-45018D01*
X60184Y-44630D01*
X60184Y-44367D01*
X59821Y-44367D01*
X59797Y-44391D01*
X59670Y-44391D01*
X59670Y-44654D01*
X59732Y-44716D01*
X59796Y-44715D01*
X59895Y-44715D01*
X59955Y-44689D01*
X59959Y-44691D01*
X60058Y-44691D01*
X60122Y-44692D01*
X60184Y-44630D01*
X60184Y-45018D01*
X60111Y-45018D01*
X60066Y-44909D01*
X59969Y-44812D01*
X59841Y-44759D01*
X59703Y-44759D01*
X59575Y-44812D01*
X59478Y-44909D01*
X59458Y-44956D01*
X59459Y-44760D01*
X59447Y-44748D01*
X59459Y-44748D01*
X59459Y-44715D01*
X59508Y-44716D01*
X59570Y-44654D01*
X59570Y-44441D01*
X59570Y-44391D01*
X59570Y-44291D01*
X59670Y-44291D01*
X59720Y-44291D01*
X60033Y-44291D01*
X60057Y-44267D01*
X60134Y-44267D01*
X60184Y-44267D01*
X60284Y-44267D01*
X60334Y-44267D01*
X60647Y-44267D01*
X60686Y-44228D01*
X60760Y-44228D01*
X60810Y-44228D01*
X60910Y-44228D01*
X60960Y-44228D01*
X61273Y-44228D01*
X61335Y-44166D01*
X61334Y-44104D01*
X61296Y-44012D01*
X61262Y-43978D01*
X61296Y-43944D01*
X61334Y-43853D01*
X61334Y-43754D01*
X61334Y-43675D01*
X61380Y-43721D01*
X61380Y-44552D01*
G54D10*
G36*
X61719Y-45570D02*
X61619Y-45570D01*
X61619Y-45470D01*
X61719Y-45470D01*
X61719Y-45570D01*
X61719Y-45570D01*
G37*
G54D34*
X61719Y-45570D02*
X61619Y-45570D01*
X61619Y-45470D01*
X61719Y-45470D01*
X61719Y-45570D01*
G54D10*
G36*
X62605Y-45853D02*
X62433Y-45925D01*
X62279Y-46079D01*
X62199Y-46271D01*
X62119Y-46079D01*
X61965Y-45925D01*
X61890Y-45894D01*
X61944Y-45894D01*
X62035Y-45856D01*
X62105Y-45786D01*
X62126Y-45734D01*
X62204Y-45787D01*
X62315Y-45809D01*
X62550Y-45809D01*
X62586Y-45845D01*
X62605Y-45853D01*
X62605Y-45853D01*
G37*
G54D34*
X62605Y-45853D02*
X62433Y-45925D01*
X62279Y-46079D01*
X62199Y-46271D01*
X62119Y-46079D01*
X61965Y-45925D01*
X61890Y-45894D01*
X61944Y-45894D01*
X62035Y-45856D01*
X62105Y-45786D01*
X62126Y-45734D01*
X62204Y-45787D01*
X62315Y-45809D01*
X62550Y-45809D01*
X62586Y-45845D01*
X62605Y-45853D01*
G54D10*
G36*
X62650Y-37371D02*
X62550Y-37371D01*
X62550Y-37271D01*
X62650Y-37271D01*
X62650Y-37371D01*
X62650Y-37371D01*
G37*
G54D34*
X62650Y-37371D02*
X62550Y-37371D01*
X62550Y-37271D01*
X62650Y-37271D01*
X62650Y-37371D01*
G54D10*
G36*
X65424Y-43297D02*
X65340Y-43332D01*
X65186Y-43486D01*
X65167Y-43530D01*
X64653Y-43016D01*
X64547Y-42945D01*
X64421Y-42920D01*
X63220Y-42920D01*
X63175Y-42901D01*
X63037Y-42901D01*
X62981Y-42924D01*
X62827Y-42924D01*
X62782Y-42905D01*
X62769Y-42905D01*
X62769Y-42476D01*
X62768Y-42475D01*
X62747Y-42365D01*
X62684Y-42272D01*
X62684Y-42271D01*
X62578Y-42166D01*
X62485Y-42103D01*
X62404Y-42086D01*
X62404Y-41958D01*
X62403Y-41896D01*
X62365Y-41804D01*
X62295Y-41734D01*
X62204Y-41696D01*
X62105Y-41696D01*
X62041Y-41695D01*
X61979Y-41757D01*
X61979Y-42020D01*
X62342Y-42020D01*
X62404Y-41958D01*
X62404Y-42086D01*
X62374Y-42081D01*
X61879Y-42081D01*
X61879Y-42020D01*
X61879Y-41757D01*
X61817Y-41695D01*
X61753Y-41696D01*
X61654Y-41696D01*
X61563Y-41734D01*
X61493Y-41804D01*
X61455Y-41896D01*
X61454Y-41958D01*
X61516Y-42020D01*
X61879Y-42020D01*
X61879Y-42081D01*
X61685Y-42081D01*
X61654Y-42081D01*
X60652Y-42081D01*
X60604Y-41964D01*
X60652Y-41917D01*
X60679Y-41851D01*
X60691Y-41851D01*
X60819Y-41798D01*
X60916Y-41701D01*
X60969Y-41573D01*
X60969Y-41435D01*
X60916Y-41307D01*
X60890Y-41281D01*
X61313Y-41281D01*
X61445Y-41413D01*
X61446Y-41413D01*
X61448Y-41415D01*
X61538Y-41505D01*
X61631Y-41568D01*
X61632Y-41568D01*
X61742Y-41590D01*
X65142Y-41590D01*
X65102Y-41688D01*
X65102Y-41906D01*
X65186Y-42108D01*
X65340Y-42262D01*
X65424Y-42297D01*
X65340Y-42332D01*
X65186Y-42486D01*
X65102Y-42688D01*
X65102Y-42906D01*
X65186Y-43108D01*
X65340Y-43262D01*
X65424Y-43297D01*
X65424Y-43297D01*
G37*
G54D34*
X65424Y-43297D02*
X65340Y-43332D01*
X65186Y-43486D01*
X65167Y-43530D01*
X64653Y-43016D01*
X64547Y-42945D01*
X64421Y-42920D01*
X63220Y-42920D01*
X63175Y-42901D01*
X63037Y-42901D01*
X62981Y-42924D01*
X62827Y-42924D01*
X62782Y-42905D01*
X62769Y-42905D01*
X62769Y-42476D01*
X62768Y-42475D01*
X62747Y-42365D01*
X62684Y-42272D01*
X62684Y-42271D01*
X62578Y-42166D01*
X62485Y-42103D01*
X62404Y-42086D01*
X62404Y-41958D01*
X62403Y-41896D01*
X62365Y-41804D01*
X62295Y-41734D01*
X62204Y-41696D01*
X62105Y-41696D01*
X62041Y-41695D01*
X61979Y-41757D01*
X61979Y-42020D01*
X62342Y-42020D01*
X62404Y-41958D01*
X62404Y-42086D01*
X62374Y-42081D01*
X61879Y-42081D01*
X61879Y-42020D01*
X61879Y-41757D01*
X61817Y-41695D01*
X61753Y-41696D01*
X61654Y-41696D01*
X61563Y-41734D01*
X61493Y-41804D01*
X61455Y-41896D01*
X61454Y-41958D01*
X61516Y-42020D01*
X61879Y-42020D01*
X61879Y-42081D01*
X61685Y-42081D01*
X61654Y-42081D01*
X60652Y-42081D01*
X60604Y-41964D01*
X60652Y-41917D01*
X60679Y-41851D01*
X60691Y-41851D01*
X60819Y-41798D01*
X60916Y-41701D01*
X60969Y-41573D01*
X60969Y-41435D01*
X60916Y-41307D01*
X60890Y-41281D01*
X61313Y-41281D01*
X61445Y-41413D01*
X61446Y-41413D01*
X61448Y-41415D01*
X61538Y-41505D01*
X61631Y-41568D01*
X61632Y-41568D01*
X61742Y-41590D01*
X65142Y-41590D01*
X65102Y-41688D01*
X65102Y-41906D01*
X65186Y-42108D01*
X65340Y-42262D01*
X65424Y-42297D01*
X65340Y-42332D01*
X65186Y-42486D01*
X65102Y-42688D01*
X65102Y-42906D01*
X65186Y-43108D01*
X65340Y-43262D01*
X65424Y-43297D01*
G54D10*
G36*
X66306Y-49219D02*
X66206Y-49219D01*
X66206Y-49119D01*
X66306Y-49119D01*
X66306Y-49219D01*
X66306Y-49219D01*
G37*
G54D34*
X66306Y-49219D02*
X66206Y-49219D01*
X66206Y-49119D01*
X66306Y-49119D01*
X66306Y-49219D01*
G54D10*
G36*
X66722Y-47797D02*
X66651Y-47868D01*
X66580Y-47797D01*
X66545Y-47762D01*
X66273Y-47489D01*
X66179Y-47516D01*
X66155Y-47581D01*
X66116Y-47486D01*
X65962Y-47332D01*
X65870Y-47294D01*
X65932Y-47269D01*
X65959Y-47175D01*
X65686Y-46903D01*
X65651Y-46868D01*
X65580Y-46797D01*
X65651Y-46726D01*
X65686Y-46691D01*
X65959Y-46419D01*
X65932Y-46325D01*
X65866Y-46301D01*
X65962Y-46262D01*
X66116Y-46108D01*
X66151Y-46023D01*
X66186Y-46108D01*
X66340Y-46262D01*
X66424Y-46297D01*
X66340Y-46332D01*
X66186Y-46486D01*
X66148Y-46577D01*
X66123Y-46516D01*
X66029Y-46489D01*
X65722Y-46797D01*
X66029Y-47105D01*
X66123Y-47078D01*
X66146Y-47012D01*
X66186Y-47108D01*
X66340Y-47262D01*
X66431Y-47299D01*
X66370Y-47325D01*
X66343Y-47419D01*
X66616Y-47691D01*
X66651Y-47726D01*
X66722Y-47797D01*
X66722Y-47797D01*
G37*
G54D34*
X66722Y-47797D02*
X66651Y-47868D01*
X66580Y-47797D01*
X66545Y-47762D01*
X66273Y-47489D01*
X66179Y-47516D01*
X66155Y-47581D01*
X66116Y-47486D01*
X65962Y-47332D01*
X65870Y-47294D01*
X65932Y-47269D01*
X65959Y-47175D01*
X65686Y-46903D01*
X65651Y-46868D01*
X65580Y-46797D01*
X65651Y-46726D01*
X65686Y-46691D01*
X65959Y-46419D01*
X65932Y-46325D01*
X65866Y-46301D01*
X65962Y-46262D01*
X66116Y-46108D01*
X66151Y-46023D01*
X66186Y-46108D01*
X66340Y-46262D01*
X66424Y-46297D01*
X66340Y-46332D01*
X66186Y-46486D01*
X66148Y-46577D01*
X66123Y-46516D01*
X66029Y-46489D01*
X65722Y-46797D01*
X66029Y-47105D01*
X66123Y-47078D01*
X66146Y-47012D01*
X66186Y-47108D01*
X66340Y-47262D01*
X66431Y-47299D01*
X66370Y-47325D01*
X66343Y-47419D01*
X66616Y-47691D01*
X66651Y-47726D01*
X66722Y-47797D01*
G54D10*
G36*
X68075Y-51850D02*
X67458Y-51850D01*
X67458Y-49276D01*
X67458Y-49023D01*
X67458Y-48245D01*
X67458Y-36610D01*
X67433Y-36484D01*
X67362Y-36378D01*
X67358Y-36375D01*
X66944Y-35961D01*
X66973Y-35961D01*
X67065Y-35923D01*
X67135Y-35853D01*
X67173Y-35762D01*
X67173Y-35663D01*
X67173Y-35349D01*
X67135Y-35257D01*
X67110Y-35232D01*
X67135Y-35173D01*
X67135Y-35074D01*
X67135Y-34624D01*
X67105Y-34551D01*
X67127Y-34499D01*
X67127Y-34400D01*
X67127Y-33950D01*
X67094Y-33872D01*
X67127Y-33795D01*
X67127Y-33696D01*
X67127Y-33246D01*
X67089Y-33154D01*
X67019Y-33084D01*
X66928Y-33046D01*
X66829Y-33046D01*
X66579Y-33046D01*
X66487Y-33084D01*
X66474Y-33097D01*
X66474Y-33083D01*
X66473Y-33082D01*
X66449Y-32957D01*
X66378Y-32851D01*
X66377Y-32850D01*
X65323Y-31796D01*
X65217Y-31725D01*
X65091Y-31700D01*
X59137Y-31700D01*
X59136Y-31700D01*
X59011Y-31725D01*
X58905Y-31796D01*
X58902Y-31799D01*
X58581Y-32119D01*
X58535Y-32139D01*
X58438Y-32236D01*
X58385Y-32364D01*
X58385Y-32502D01*
X58438Y-32630D01*
X58469Y-32661D01*
X58382Y-32661D01*
X58320Y-32723D01*
X58320Y-33291D01*
X58688Y-33291D01*
X58750Y-33229D01*
X58749Y-32960D01*
X58749Y-32861D01*
X58715Y-32780D01*
X58801Y-32780D01*
X58929Y-32727D01*
X59026Y-32630D01*
X59045Y-32583D01*
X59272Y-32356D01*
X64955Y-32356D01*
X65751Y-33152D01*
X65544Y-33152D01*
X65543Y-33152D01*
X65418Y-33177D01*
X65312Y-33248D01*
X65309Y-33250D01*
X65227Y-33332D01*
X65181Y-33352D01*
X65084Y-33449D01*
X65031Y-33577D01*
X65031Y-33715D01*
X65084Y-33843D01*
X65181Y-33940D01*
X65309Y-33993D01*
X65447Y-33993D01*
X65575Y-33940D01*
X65672Y-33843D01*
X65686Y-33808D01*
X65784Y-33808D01*
X65811Y-33871D01*
X65779Y-33949D01*
X65779Y-34048D01*
X65778Y-34112D01*
X65840Y-34174D01*
X66053Y-34174D01*
X66103Y-34174D01*
X66203Y-34174D01*
X66203Y-34274D01*
X66203Y-34324D01*
X66203Y-34637D01*
X66211Y-34645D01*
X66211Y-34798D01*
X66211Y-34848D01*
X66211Y-34948D01*
X66111Y-34948D01*
X66111Y-34848D01*
X66111Y-34485D01*
X66103Y-34477D01*
X66103Y-34274D01*
X65840Y-34274D01*
X65778Y-34336D01*
X65779Y-34400D01*
X65779Y-34499D01*
X65808Y-34570D01*
X65787Y-34623D01*
X65787Y-34722D01*
X65786Y-34786D01*
X65848Y-34848D01*
X66111Y-34848D01*
X66111Y-34948D01*
X66061Y-34948D01*
X65848Y-34948D01*
X65786Y-35010D01*
X65787Y-35074D01*
X65787Y-35173D01*
X65818Y-35247D01*
X65809Y-35257D01*
X65805Y-35266D01*
X65390Y-35266D01*
X65279Y-35288D01*
X65185Y-35351D01*
X64850Y-35686D01*
X64850Y-33453D01*
X64850Y-33229D01*
X64849Y-32960D01*
X64849Y-32861D01*
X64811Y-32770D01*
X64741Y-32700D01*
X64649Y-32662D01*
X64482Y-32661D01*
X64420Y-32723D01*
X64420Y-33291D01*
X64788Y-33291D01*
X64850Y-33229D01*
X64850Y-33453D01*
X64788Y-33391D01*
X64420Y-33391D01*
X64420Y-33959D01*
X64482Y-34021D01*
X64649Y-34020D01*
X64741Y-33982D01*
X64811Y-33912D01*
X64849Y-33821D01*
X64849Y-33722D01*
X64850Y-33453D01*
X64850Y-35686D01*
X64605Y-35932D01*
X64542Y-36025D01*
X64520Y-36136D01*
X64520Y-36601D01*
X64492Y-36601D01*
X64430Y-36663D01*
X64430Y-37021D01*
X64430Y-37071D01*
X64430Y-37171D01*
X64430Y-37221D01*
X64430Y-37579D01*
X64492Y-37641D01*
X64520Y-37640D01*
X64520Y-38165D01*
X64473Y-38279D01*
X64473Y-38417D01*
X64526Y-38545D01*
X64550Y-38569D01*
X64330Y-38789D01*
X63784Y-39335D01*
X62915Y-39335D01*
X62872Y-39335D01*
X60865Y-39335D01*
X61376Y-38824D01*
X61439Y-38824D01*
X61466Y-38835D01*
X61604Y-38835D01*
X61649Y-38816D01*
X61794Y-38816D01*
X61840Y-38835D01*
X61978Y-38835D01*
X62106Y-38782D01*
X62203Y-38685D01*
X62256Y-38557D01*
X62256Y-38419D01*
X62203Y-38291D01*
X62106Y-38194D01*
X62018Y-38157D01*
X62043Y-38122D01*
X62043Y-38121D01*
X62068Y-37996D01*
X62068Y-37880D01*
X62089Y-37880D01*
X62349Y-37880D01*
X62385Y-37865D01*
X62421Y-37880D01*
X62488Y-37881D01*
X62500Y-37869D01*
X62500Y-37881D01*
X62581Y-37881D01*
X62543Y-37974D01*
X62543Y-38112D01*
X62596Y-38240D01*
X62693Y-38337D01*
X62821Y-38390D01*
X62877Y-38390D01*
X62879Y-38394D01*
X62976Y-38491D01*
X63104Y-38544D01*
X63242Y-38544D01*
X63370Y-38491D01*
X63467Y-38394D01*
X63520Y-38266D01*
X63520Y-38258D01*
X63644Y-38134D01*
X63774Y-38134D01*
X63902Y-38081D01*
X63999Y-37984D01*
X64042Y-37880D01*
X64079Y-37880D01*
X64171Y-37842D01*
X64241Y-37772D01*
X64279Y-37681D01*
X64279Y-37630D01*
X64330Y-37579D01*
X64330Y-37221D01*
X64330Y-37171D01*
X64330Y-37071D01*
X64330Y-37021D01*
X64330Y-36663D01*
X64320Y-36653D01*
X64320Y-33959D01*
X64320Y-33391D01*
X64320Y-33291D01*
X64320Y-32723D01*
X64258Y-32661D01*
X64091Y-32662D01*
X63999Y-32700D01*
X63929Y-32770D01*
X63891Y-32861D01*
X63891Y-32960D01*
X63890Y-33229D01*
X63952Y-33291D01*
X64320Y-33291D01*
X64320Y-33391D01*
X63952Y-33391D01*
X63890Y-33453D01*
X63891Y-33722D01*
X63891Y-33821D01*
X63929Y-33912D01*
X63999Y-33982D01*
X64091Y-34020D01*
X64258Y-34021D01*
X64320Y-33959D01*
X64320Y-36653D01*
X64268Y-36601D01*
X64101Y-36602D01*
X64053Y-36621D01*
X63974Y-36568D01*
X63888Y-36551D01*
X63887Y-36550D01*
X63886Y-36549D01*
X63759Y-36496D01*
X63759Y-34934D01*
X63737Y-34823D01*
X63709Y-34781D01*
X63709Y-33269D01*
X63709Y-33094D01*
X63642Y-32933D01*
X63519Y-32809D01*
X63358Y-32742D01*
X63183Y-32742D01*
X63022Y-32809D01*
X62898Y-32932D01*
X62831Y-33093D01*
X62831Y-33268D01*
X62898Y-33429D01*
X63021Y-33553D01*
X63182Y-33620D01*
X63357Y-33620D01*
X63518Y-33553D01*
X63642Y-33430D01*
X63709Y-33269D01*
X63709Y-34781D01*
X63674Y-34730D01*
X63674Y-34729D01*
X62304Y-33359D01*
X62304Y-33352D01*
X62251Y-33224D01*
X62154Y-33127D01*
X62026Y-33074D01*
X61888Y-33074D01*
X61760Y-33127D01*
X61663Y-33224D01*
X61658Y-33234D01*
X61654Y-33230D01*
X61526Y-33177D01*
X61388Y-33177D01*
X61260Y-33230D01*
X61163Y-33327D01*
X61110Y-33455D01*
X61110Y-33593D01*
X61163Y-33721D01*
X61260Y-33818D01*
X61388Y-33871D01*
X61395Y-33871D01*
X62751Y-35226D01*
X62751Y-36761D01*
X62712Y-36761D01*
X62700Y-36773D01*
X62700Y-36761D01*
X62607Y-36761D01*
X62638Y-36687D01*
X62638Y-36549D01*
X62585Y-36421D01*
X62488Y-36324D01*
X62360Y-36271D01*
X62222Y-36271D01*
X62094Y-36324D01*
X62089Y-36329D01*
X61626Y-36329D01*
X61515Y-36351D01*
X61422Y-36414D01*
X61311Y-36524D01*
X61307Y-36515D01*
X61210Y-36418D01*
X61082Y-36365D01*
X60972Y-36365D01*
X60920Y-36313D01*
X60814Y-36242D01*
X60796Y-36238D01*
X60795Y-36238D01*
X60698Y-36198D01*
X60600Y-36198D01*
X61097Y-35701D01*
X61175Y-35733D01*
X61313Y-35733D01*
X61441Y-35680D01*
X61538Y-35583D01*
X61591Y-35455D01*
X61591Y-35317D01*
X61538Y-35189D01*
X61441Y-35092D01*
X61313Y-35039D01*
X61175Y-35039D01*
X61047Y-35092D01*
X61042Y-35097D01*
X61004Y-35097D01*
X60994Y-35098D01*
X60994Y-35019D01*
X60941Y-34891D01*
X60844Y-34794D01*
X60716Y-34741D01*
X60578Y-34741D01*
X60559Y-34748D01*
X60559Y-33269D01*
X60559Y-33094D01*
X60492Y-32933D01*
X60369Y-32809D01*
X60208Y-32742D01*
X60033Y-32742D01*
X59872Y-32809D01*
X59748Y-32932D01*
X59681Y-33093D01*
X59681Y-33268D01*
X59748Y-33429D01*
X59871Y-33553D01*
X60032Y-33620D01*
X60207Y-33620D01*
X60368Y-33553D01*
X60492Y-33430D01*
X60559Y-33269D01*
X60559Y-34748D01*
X60450Y-34794D01*
X60353Y-34891D01*
X60300Y-35019D01*
X60300Y-35026D01*
X59690Y-35636D01*
X59690Y-34175D01*
X59690Y-34037D01*
X59637Y-33909D01*
X59540Y-33812D01*
X59412Y-33759D01*
X59274Y-33759D01*
X59153Y-33809D01*
X58930Y-33809D01*
X58925Y-33804D01*
X58797Y-33751D01*
X58749Y-33751D01*
X58749Y-33722D01*
X58750Y-33453D01*
X58688Y-33391D01*
X58320Y-33391D01*
X58320Y-33959D01*
X58382Y-34021D01*
X58384Y-34020D01*
X58381Y-34029D01*
X58381Y-34167D01*
X58434Y-34295D01*
X58531Y-34392D01*
X58659Y-34445D01*
X58797Y-34445D01*
X58925Y-34392D01*
X58930Y-34387D01*
X59133Y-34387D01*
X59146Y-34400D01*
X59274Y-34453D01*
X59412Y-34453D01*
X59540Y-34400D01*
X59637Y-34303D01*
X59690Y-34175D01*
X59690Y-35636D01*
X59644Y-35682D01*
X59641Y-35685D01*
X59640Y-35687D01*
X59580Y-35776D01*
X59579Y-35778D01*
X59578Y-35778D01*
X59577Y-35781D01*
X59556Y-35891D01*
X59557Y-35896D01*
X59557Y-36553D01*
X59189Y-36921D01*
X59189Y-36900D01*
X59189Y-36801D01*
X59151Y-36710D01*
X59081Y-36640D01*
X58989Y-36602D01*
X58742Y-36601D01*
X58680Y-36663D01*
X58680Y-37021D01*
X58680Y-37071D01*
X58680Y-37171D01*
X58580Y-37171D01*
X58580Y-37071D01*
X58580Y-36663D01*
X58518Y-36601D01*
X58271Y-36602D01*
X58220Y-36623D01*
X58220Y-33959D01*
X58220Y-33391D01*
X58220Y-33291D01*
X58220Y-32723D01*
X58158Y-32661D01*
X57991Y-32662D01*
X57899Y-32700D01*
X57829Y-32770D01*
X57791Y-32861D01*
X57791Y-32960D01*
X57790Y-33229D01*
X57852Y-33291D01*
X58220Y-33291D01*
X58220Y-33391D01*
X57852Y-33391D01*
X57790Y-33453D01*
X57791Y-33722D01*
X57791Y-33821D01*
X57829Y-33912D01*
X57899Y-33982D01*
X57991Y-34020D01*
X58158Y-34021D01*
X58220Y-33959D01*
X58220Y-36623D01*
X58179Y-36640D01*
X58109Y-36710D01*
X58071Y-36801D01*
X58071Y-36900D01*
X58070Y-37009D01*
X58132Y-37071D01*
X58580Y-37071D01*
X58580Y-37171D01*
X58530Y-37171D01*
X58132Y-37171D01*
X58097Y-37206D01*
X57490Y-37206D01*
X57479Y-37179D01*
X57409Y-37109D01*
X57318Y-37071D01*
X57219Y-37071D01*
X57161Y-37071D01*
X57139Y-37071D01*
X57062Y-37071D01*
X57046Y-37071D01*
X57046Y-36573D01*
X57046Y-36572D01*
X57024Y-36462D01*
X57024Y-36461D01*
X56961Y-36369D01*
X56961Y-36368D01*
X56926Y-36344D01*
X56697Y-36115D01*
X56807Y-36070D01*
X56904Y-35973D01*
X56957Y-35845D01*
X56957Y-35707D01*
X56904Y-35579D01*
X56807Y-35482D01*
X56679Y-35429D01*
X56541Y-35429D01*
X56413Y-35482D01*
X56408Y-35487D01*
X56024Y-35487D01*
X56024Y-34486D01*
X56024Y-34348D01*
X55994Y-34275D01*
X55994Y-34189D01*
X55994Y-33929D01*
X55993Y-33928D01*
X55970Y-33811D01*
X55969Y-33810D01*
X55947Y-33777D01*
X55903Y-33711D01*
X55903Y-33710D01*
X55505Y-33313D01*
X55405Y-33246D01*
X55287Y-33222D01*
X54265Y-33222D01*
X54215Y-33232D01*
X54148Y-33232D01*
X54020Y-33285D01*
X53923Y-33382D01*
X53870Y-33510D01*
X53870Y-33648D01*
X53923Y-33776D01*
X54020Y-33873D01*
X54148Y-33926D01*
X54286Y-33926D01*
X54414Y-33873D01*
X54447Y-33840D01*
X55159Y-33840D01*
X55376Y-34056D01*
X55376Y-34189D01*
X55376Y-34236D01*
X55330Y-34348D01*
X55330Y-34486D01*
X55383Y-34614D01*
X55480Y-34711D01*
X55608Y-34764D01*
X55746Y-34764D01*
X55874Y-34711D01*
X55971Y-34614D01*
X56024Y-34486D01*
X56024Y-35487D01*
X55914Y-35487D01*
X55785Y-35358D01*
X55767Y-35331D01*
X55674Y-35268D01*
X55563Y-35246D01*
X52492Y-35246D01*
X52381Y-35268D01*
X52287Y-35331D01*
X51963Y-35655D01*
X51963Y-32478D01*
X51963Y-32254D01*
X51962Y-32115D01*
X51962Y-32016D01*
X51924Y-31925D01*
X51854Y-31855D01*
X51762Y-31817D01*
X51525Y-31816D01*
X51463Y-31878D01*
X51463Y-32316D01*
X51901Y-32316D01*
X51963Y-32254D01*
X51963Y-32478D01*
X51901Y-32416D01*
X51463Y-32416D01*
X51463Y-32854D01*
X51525Y-32916D01*
X51762Y-32915D01*
X51854Y-32877D01*
X51924Y-32807D01*
X51962Y-32716D01*
X51962Y-32617D01*
X51963Y-32478D01*
X51963Y-35655D01*
X51827Y-35792D01*
X51764Y-35885D01*
X51742Y-35996D01*
X51742Y-36196D01*
X51764Y-36307D01*
X51827Y-36400D01*
X52497Y-37071D01*
X52451Y-37071D01*
X52429Y-37071D01*
X52352Y-37071D01*
X52272Y-37071D01*
X52271Y-37071D01*
X51974Y-36774D01*
X51974Y-36767D01*
X51921Y-36639D01*
X51824Y-36542D01*
X51696Y-36489D01*
X51558Y-36489D01*
X51430Y-36542D01*
X51333Y-36639D01*
X51280Y-36767D01*
X51280Y-36905D01*
X51306Y-36968D01*
X51269Y-37059D01*
X51269Y-37197D01*
X51322Y-37325D01*
X51380Y-37383D01*
X51380Y-37923D01*
X51353Y-37935D01*
X51331Y-37956D01*
X51287Y-37938D01*
X51149Y-37938D01*
X51039Y-37983D01*
X51039Y-36853D01*
X51067Y-36825D01*
X51120Y-36697D01*
X51120Y-36559D01*
X51067Y-36431D01*
X50970Y-36334D01*
X50842Y-36281D01*
X50704Y-36281D01*
X50576Y-36334D01*
X50479Y-36431D01*
X50459Y-36478D01*
X50429Y-36478D01*
X50325Y-36521D01*
X50325Y-36480D01*
X50272Y-36352D01*
X50175Y-36255D01*
X50047Y-36202D01*
X49909Y-36202D01*
X49781Y-36255D01*
X49738Y-36298D01*
X49695Y-36255D01*
X49567Y-36202D01*
X49429Y-36202D01*
X49301Y-36255D01*
X49204Y-36352D01*
X49151Y-36480D01*
X49151Y-36618D01*
X49204Y-36746D01*
X49209Y-36751D01*
X49209Y-38218D01*
X49231Y-38329D01*
X49294Y-38422D01*
X49625Y-38753D01*
X49625Y-38754D01*
X49551Y-38804D01*
X49489Y-38866D01*
X49482Y-38866D01*
X49354Y-38919D01*
X49257Y-39016D01*
X49204Y-39144D01*
X49204Y-39282D01*
X49257Y-39410D01*
X49354Y-39507D01*
X49482Y-39560D01*
X49620Y-39560D01*
X49639Y-39551D01*
X49684Y-39659D01*
X49781Y-39756D01*
X49909Y-39809D01*
X49916Y-39809D01*
X50067Y-39960D01*
X50068Y-39960D01*
X50161Y-40023D01*
X50271Y-40044D01*
X50272Y-40045D01*
X50349Y-40045D01*
X50263Y-40131D01*
X50210Y-40259D01*
X50210Y-40397D01*
X50214Y-40409D01*
X49521Y-40409D01*
X49087Y-39975D01*
X48759Y-39647D01*
X48759Y-37462D01*
X48759Y-37447D01*
X48737Y-37336D01*
X48674Y-37243D01*
X48674Y-37242D01*
X48349Y-36918D01*
X48301Y-36885D01*
X48909Y-36278D01*
X48909Y-36277D01*
X48910Y-36277D01*
X49006Y-36133D01*
X49007Y-36132D01*
X49040Y-35962D01*
X49041Y-35961D01*
X49041Y-34414D01*
X49263Y-34323D01*
X49450Y-34136D01*
X49552Y-33891D01*
X49552Y-33738D01*
X49643Y-33720D01*
X49788Y-33623D01*
X50496Y-32915D01*
X50522Y-32915D01*
X50724Y-32831D01*
X50864Y-32691D01*
X50864Y-32716D01*
X50902Y-32807D01*
X50972Y-32877D01*
X51064Y-32915D01*
X51301Y-32916D01*
X51363Y-32854D01*
X51363Y-32466D01*
X51363Y-32416D01*
X51363Y-32316D01*
X51363Y-32266D01*
X51363Y-31878D01*
X51301Y-31816D01*
X51064Y-31817D01*
X50972Y-31855D01*
X50902Y-31925D01*
X50864Y-32016D01*
X50864Y-32041D01*
X50724Y-31901D01*
X50522Y-31817D01*
X50304Y-31817D01*
X50102Y-31901D01*
X49948Y-32055D01*
X49864Y-32257D01*
X49864Y-32282D01*
X49514Y-32632D01*
X49451Y-32479D01*
X49264Y-32292D01*
X49019Y-32190D01*
X48754Y-32190D01*
X48509Y-32291D01*
X48322Y-32478D01*
X48220Y-32723D01*
X48220Y-32988D01*
X48220Y-33369D01*
X48181Y-33428D01*
X48147Y-33599D01*
X48147Y-34242D01*
X48068Y-34170D01*
X47860Y-34105D01*
X47755Y-34152D01*
X47755Y-35096D01*
X47755Y-35146D01*
X47755Y-35246D01*
X47655Y-35246D01*
X47655Y-35146D01*
X47655Y-34152D01*
X47550Y-34105D01*
X47342Y-34170D01*
X47203Y-34297D01*
X47203Y-33902D01*
X47203Y-33357D01*
X47203Y-33257D01*
X47203Y-32712D01*
X47088Y-32465D01*
X46887Y-32281D01*
X46679Y-32216D01*
X46574Y-32263D01*
X46574Y-33257D01*
X47203Y-33257D01*
X47203Y-33357D01*
X46574Y-33357D01*
X46574Y-34351D01*
X46679Y-34398D01*
X46887Y-34333D01*
X47088Y-34149D01*
X47203Y-33902D01*
X47203Y-34297D01*
X47141Y-34354D01*
X47026Y-34601D01*
X47026Y-35146D01*
X47655Y-35146D01*
X47655Y-35246D01*
X47605Y-35246D01*
X47026Y-35246D01*
X47026Y-35791D01*
X47141Y-36038D01*
X47277Y-36163D01*
X46474Y-36163D01*
X46474Y-34351D01*
X46474Y-33357D01*
X46474Y-33257D01*
X46474Y-32263D01*
X46369Y-32216D01*
X46161Y-32281D01*
X45960Y-32465D01*
X45845Y-32712D01*
X45845Y-33257D01*
X46474Y-33257D01*
X46474Y-33357D01*
X45845Y-33357D01*
X45845Y-33902D01*
X45960Y-34149D01*
X46161Y-34333D01*
X46369Y-34398D01*
X46474Y-34351D01*
X46474Y-36163D01*
X46358Y-36163D01*
X46187Y-36197D01*
X46042Y-36294D01*
X45349Y-36987D01*
X45252Y-37132D01*
X45218Y-37303D01*
X45218Y-47051D01*
X45252Y-47222D01*
X45349Y-47367D01*
X45789Y-47808D01*
X45790Y-47808D01*
X45886Y-47872D01*
X45916Y-47892D01*
X45934Y-47980D01*
X46031Y-48125D01*
X46179Y-48273D01*
X46324Y-48370D01*
X46495Y-48404D01*
X46689Y-48404D01*
X47380Y-49095D01*
X47381Y-49096D01*
X49735Y-51450D01*
X49880Y-51547D01*
X50051Y-51581D01*
X61728Y-51581D01*
X61899Y-51547D01*
X62044Y-51450D01*
X62753Y-50742D01*
X62753Y-50741D01*
X62817Y-50645D01*
X62849Y-50597D01*
X62850Y-50596D01*
X62873Y-50475D01*
X62878Y-50477D01*
X63150Y-50204D01*
X63185Y-50169D01*
X63256Y-50098D01*
X63291Y-50063D01*
X63564Y-49791D01*
X63537Y-49697D01*
X63471Y-49673D01*
X63567Y-49634D01*
X63721Y-49480D01*
X63756Y-49395D01*
X63791Y-49480D01*
X63945Y-49634D01*
X64029Y-49669D01*
X63945Y-49704D01*
X63791Y-49858D01*
X63753Y-49949D01*
X63728Y-49888D01*
X63634Y-49861D01*
X63327Y-50169D01*
X63634Y-50477D01*
X63728Y-50450D01*
X63751Y-50384D01*
X63791Y-50480D01*
X63945Y-50634D01*
X64147Y-50718D01*
X64365Y-50718D01*
X64567Y-50634D01*
X64721Y-50480D01*
X64756Y-50395D01*
X64791Y-50480D01*
X64945Y-50634D01*
X65147Y-50718D01*
X65365Y-50718D01*
X65567Y-50634D01*
X65721Y-50480D01*
X65756Y-50395D01*
X65791Y-50480D01*
X65945Y-50634D01*
X66147Y-50718D01*
X66365Y-50718D01*
X66567Y-50634D01*
X66721Y-50480D01*
X66805Y-50278D01*
X66805Y-50060D01*
X66781Y-50004D01*
X66842Y-49992D01*
X66843Y-49992D01*
X66949Y-49921D01*
X67362Y-49508D01*
X67433Y-49402D01*
X67433Y-49401D01*
X67458Y-49276D01*
X67458Y-51850D01*
X63564Y-51850D01*
X63564Y-50547D01*
X63256Y-50240D01*
X62948Y-50547D01*
X62975Y-50641D01*
X63177Y-50712D01*
X63390Y-50701D01*
X63537Y-50641D01*
X63564Y-50547D01*
X63564Y-51850D01*
X44950Y-51850D01*
X44975Y-31575D01*
X68075Y-31525D01*
X68075Y-51850D01*
X68075Y-51850D01*
G37*
G54D34*
X68075Y-51850D02*
X67458Y-51850D01*
X67458Y-49276D01*
X67458Y-49023D01*
X67458Y-48245D01*
X67458Y-36610D01*
X67433Y-36484D01*
X67362Y-36378D01*
X67358Y-36375D01*
X66944Y-35961D01*
X66973Y-35961D01*
X67065Y-35923D01*
X67135Y-35853D01*
X67173Y-35762D01*
X67173Y-35663D01*
X67173Y-35349D01*
X67135Y-35257D01*
X67110Y-35232D01*
X67135Y-35173D01*
X67135Y-35074D01*
X67135Y-34624D01*
X67105Y-34551D01*
X67127Y-34499D01*
X67127Y-34400D01*
X67127Y-33950D01*
X67094Y-33872D01*
X67127Y-33795D01*
X67127Y-33696D01*
X67127Y-33246D01*
X67089Y-33154D01*
X67019Y-33084D01*
X66928Y-33046D01*
X66829Y-33046D01*
X66579Y-33046D01*
X66487Y-33084D01*
X66474Y-33097D01*
X66474Y-33083D01*
X66473Y-33082D01*
X66449Y-32957D01*
X66378Y-32851D01*
X66377Y-32850D01*
X65323Y-31796D01*
X65217Y-31725D01*
X65091Y-31700D01*
X59137Y-31700D01*
X59136Y-31700D01*
X59011Y-31725D01*
X58905Y-31796D01*
X58902Y-31799D01*
X58581Y-32119D01*
X58535Y-32139D01*
X58438Y-32236D01*
X58385Y-32364D01*
X58385Y-32502D01*
X58438Y-32630D01*
X58469Y-32661D01*
X58382Y-32661D01*
X58320Y-32723D01*
X58320Y-33291D01*
X58688Y-33291D01*
X58750Y-33229D01*
X58749Y-32960D01*
X58749Y-32861D01*
X58715Y-32780D01*
X58801Y-32780D01*
X58929Y-32727D01*
X59026Y-32630D01*
X59045Y-32583D01*
X59272Y-32356D01*
X64955Y-32356D01*
X65751Y-33152D01*
X65544Y-33152D01*
X65543Y-33152D01*
X65418Y-33177D01*
X65312Y-33248D01*
X65309Y-33250D01*
X65227Y-33332D01*
X65181Y-33352D01*
X65084Y-33449D01*
X65031Y-33577D01*
X65031Y-33715D01*
X65084Y-33843D01*
X65181Y-33940D01*
X65309Y-33993D01*
X65447Y-33993D01*
X65575Y-33940D01*
X65672Y-33843D01*
X65686Y-33808D01*
X65784Y-33808D01*
X65811Y-33871D01*
X65779Y-33949D01*
X65779Y-34048D01*
X65778Y-34112D01*
X65840Y-34174D01*
X66053Y-34174D01*
X66103Y-34174D01*
X66203Y-34174D01*
X66203Y-34274D01*
X66203Y-34324D01*
X66203Y-34637D01*
X66211Y-34645D01*
X66211Y-34798D01*
X66211Y-34848D01*
X66211Y-34948D01*
X66111Y-34948D01*
X66111Y-34848D01*
X66111Y-34485D01*
X66103Y-34477D01*
X66103Y-34274D01*
X65840Y-34274D01*
X65778Y-34336D01*
X65779Y-34400D01*
X65779Y-34499D01*
X65808Y-34570D01*
X65787Y-34623D01*
X65787Y-34722D01*
X65786Y-34786D01*
X65848Y-34848D01*
X66111Y-34848D01*
X66111Y-34948D01*
X66061Y-34948D01*
X65848Y-34948D01*
X65786Y-35010D01*
X65787Y-35074D01*
X65787Y-35173D01*
X65818Y-35247D01*
X65809Y-35257D01*
X65805Y-35266D01*
X65390Y-35266D01*
X65279Y-35288D01*
X65185Y-35351D01*
X64850Y-35686D01*
X64850Y-33453D01*
X64850Y-33229D01*
X64849Y-32960D01*
X64849Y-32861D01*
X64811Y-32770D01*
X64741Y-32700D01*
X64649Y-32662D01*
X64482Y-32661D01*
X64420Y-32723D01*
X64420Y-33291D01*
X64788Y-33291D01*
X64850Y-33229D01*
X64850Y-33453D01*
X64788Y-33391D01*
X64420Y-33391D01*
X64420Y-33959D01*
X64482Y-34021D01*
X64649Y-34020D01*
X64741Y-33982D01*
X64811Y-33912D01*
X64849Y-33821D01*
X64849Y-33722D01*
X64850Y-33453D01*
X64850Y-35686D01*
X64605Y-35932D01*
X64542Y-36025D01*
X64520Y-36136D01*
X64520Y-36601D01*
X64492Y-36601D01*
X64430Y-36663D01*
X64430Y-37021D01*
X64430Y-37071D01*
X64430Y-37171D01*
X64430Y-37221D01*
X64430Y-37579D01*
X64492Y-37641D01*
X64520Y-37640D01*
X64520Y-38165D01*
X64473Y-38279D01*
X64473Y-38417D01*
X64526Y-38545D01*
X64550Y-38569D01*
X64330Y-38789D01*
X63784Y-39335D01*
X62915Y-39335D01*
X62872Y-39335D01*
X60865Y-39335D01*
X61376Y-38824D01*
X61439Y-38824D01*
X61466Y-38835D01*
X61604Y-38835D01*
X61649Y-38816D01*
X61794Y-38816D01*
X61840Y-38835D01*
X61978Y-38835D01*
X62106Y-38782D01*
X62203Y-38685D01*
X62256Y-38557D01*
X62256Y-38419D01*
X62203Y-38291D01*
X62106Y-38194D01*
X62018Y-38157D01*
X62043Y-38122D01*
X62043Y-38121D01*
X62068Y-37996D01*
X62068Y-37880D01*
X62089Y-37880D01*
X62349Y-37880D01*
X62385Y-37865D01*
X62421Y-37880D01*
X62488Y-37881D01*
X62500Y-37869D01*
X62500Y-37881D01*
X62581Y-37881D01*
X62543Y-37974D01*
X62543Y-38112D01*
X62596Y-38240D01*
X62693Y-38337D01*
X62821Y-38390D01*
X62877Y-38390D01*
X62879Y-38394D01*
X62976Y-38491D01*
X63104Y-38544D01*
X63242Y-38544D01*
X63370Y-38491D01*
X63467Y-38394D01*
X63520Y-38266D01*
X63520Y-38258D01*
X63644Y-38134D01*
X63774Y-38134D01*
X63902Y-38081D01*
X63999Y-37984D01*
X64042Y-37880D01*
X64079Y-37880D01*
X64171Y-37842D01*
X64241Y-37772D01*
X64279Y-37681D01*
X64279Y-37630D01*
X64330Y-37579D01*
X64330Y-37221D01*
X64330Y-37171D01*
X64330Y-37071D01*
X64330Y-37021D01*
X64330Y-36663D01*
X64320Y-36653D01*
X64320Y-33959D01*
X64320Y-33391D01*
X64320Y-33291D01*
X64320Y-32723D01*
X64258Y-32661D01*
X64091Y-32662D01*
X63999Y-32700D01*
X63929Y-32770D01*
X63891Y-32861D01*
X63891Y-32960D01*
X63890Y-33229D01*
X63952Y-33291D01*
X64320Y-33291D01*
X64320Y-33391D01*
X63952Y-33391D01*
X63890Y-33453D01*
X63891Y-33722D01*
X63891Y-33821D01*
X63929Y-33912D01*
X63999Y-33982D01*
X64091Y-34020D01*
X64258Y-34021D01*
X64320Y-33959D01*
X64320Y-36653D01*
X64268Y-36601D01*
X64101Y-36602D01*
X64053Y-36621D01*
X63974Y-36568D01*
X63888Y-36551D01*
X63887Y-36550D01*
X63886Y-36549D01*
X63759Y-36496D01*
X63759Y-34934D01*
X63737Y-34823D01*
X63709Y-34781D01*
X63709Y-33269D01*
X63709Y-33094D01*
X63642Y-32933D01*
X63519Y-32809D01*
X63358Y-32742D01*
X63183Y-32742D01*
X63022Y-32809D01*
X62898Y-32932D01*
X62831Y-33093D01*
X62831Y-33268D01*
X62898Y-33429D01*
X63021Y-33553D01*
X63182Y-33620D01*
X63357Y-33620D01*
X63518Y-33553D01*
X63642Y-33430D01*
X63709Y-33269D01*
X63709Y-34781D01*
X63674Y-34730D01*
X63674Y-34729D01*
X62304Y-33359D01*
X62304Y-33352D01*
X62251Y-33224D01*
X62154Y-33127D01*
X62026Y-33074D01*
X61888Y-33074D01*
X61760Y-33127D01*
X61663Y-33224D01*
X61658Y-33234D01*
X61654Y-33230D01*
X61526Y-33177D01*
X61388Y-33177D01*
X61260Y-33230D01*
X61163Y-33327D01*
X61110Y-33455D01*
X61110Y-33593D01*
X61163Y-33721D01*
X61260Y-33818D01*
X61388Y-33871D01*
X61395Y-33871D01*
X62751Y-35226D01*
X62751Y-36761D01*
X62712Y-36761D01*
X62700Y-36773D01*
X62700Y-36761D01*
X62607Y-36761D01*
X62638Y-36687D01*
X62638Y-36549D01*
X62585Y-36421D01*
X62488Y-36324D01*
X62360Y-36271D01*
X62222Y-36271D01*
X62094Y-36324D01*
X62089Y-36329D01*
X61626Y-36329D01*
X61515Y-36351D01*
X61422Y-36414D01*
X61311Y-36524D01*
X61307Y-36515D01*
X61210Y-36418D01*
X61082Y-36365D01*
X60972Y-36365D01*
X60920Y-36313D01*
X60814Y-36242D01*
X60796Y-36238D01*
X60795Y-36238D01*
X60698Y-36198D01*
X60600Y-36198D01*
X61097Y-35701D01*
X61175Y-35733D01*
X61313Y-35733D01*
X61441Y-35680D01*
X61538Y-35583D01*
X61591Y-35455D01*
X61591Y-35317D01*
X61538Y-35189D01*
X61441Y-35092D01*
X61313Y-35039D01*
X61175Y-35039D01*
X61047Y-35092D01*
X61042Y-35097D01*
X61004Y-35097D01*
X60994Y-35098D01*
X60994Y-35019D01*
X60941Y-34891D01*
X60844Y-34794D01*
X60716Y-34741D01*
X60578Y-34741D01*
X60559Y-34748D01*
X60559Y-33269D01*
X60559Y-33094D01*
X60492Y-32933D01*
X60369Y-32809D01*
X60208Y-32742D01*
X60033Y-32742D01*
X59872Y-32809D01*
X59748Y-32932D01*
X59681Y-33093D01*
X59681Y-33268D01*
X59748Y-33429D01*
X59871Y-33553D01*
X60032Y-33620D01*
X60207Y-33620D01*
X60368Y-33553D01*
X60492Y-33430D01*
X60559Y-33269D01*
X60559Y-34748D01*
X60450Y-34794D01*
X60353Y-34891D01*
X60300Y-35019D01*
X60300Y-35026D01*
X59690Y-35636D01*
X59690Y-34175D01*
X59690Y-34037D01*
X59637Y-33909D01*
X59540Y-33812D01*
X59412Y-33759D01*
X59274Y-33759D01*
X59153Y-33809D01*
X58930Y-33809D01*
X58925Y-33804D01*
X58797Y-33751D01*
X58749Y-33751D01*
X58749Y-33722D01*
X58750Y-33453D01*
X58688Y-33391D01*
X58320Y-33391D01*
X58320Y-33959D01*
X58382Y-34021D01*
X58384Y-34020D01*
X58381Y-34029D01*
X58381Y-34167D01*
X58434Y-34295D01*
X58531Y-34392D01*
X58659Y-34445D01*
X58797Y-34445D01*
X58925Y-34392D01*
X58930Y-34387D01*
X59133Y-34387D01*
X59146Y-34400D01*
X59274Y-34453D01*
X59412Y-34453D01*
X59540Y-34400D01*
X59637Y-34303D01*
X59690Y-34175D01*
X59690Y-35636D01*
X59644Y-35682D01*
X59641Y-35685D01*
X59640Y-35687D01*
X59580Y-35776D01*
X59579Y-35778D01*
X59578Y-35778D01*
X59577Y-35781D01*
X59556Y-35891D01*
X59557Y-35896D01*
X59557Y-36553D01*
X59189Y-36921D01*
X59189Y-36900D01*
X59189Y-36801D01*
X59151Y-36710D01*
X59081Y-36640D01*
X58989Y-36602D01*
X58742Y-36601D01*
X58680Y-36663D01*
X58680Y-37021D01*
X58680Y-37071D01*
X58680Y-37171D01*
X58580Y-37171D01*
X58580Y-37071D01*
X58580Y-36663D01*
X58518Y-36601D01*
X58271Y-36602D01*
X58220Y-36623D01*
X58220Y-33959D01*
X58220Y-33391D01*
X58220Y-33291D01*
X58220Y-32723D01*
X58158Y-32661D01*
X57991Y-32662D01*
X57899Y-32700D01*
X57829Y-32770D01*
X57791Y-32861D01*
X57791Y-32960D01*
X57790Y-33229D01*
X57852Y-33291D01*
X58220Y-33291D01*
X58220Y-33391D01*
X57852Y-33391D01*
X57790Y-33453D01*
X57791Y-33722D01*
X57791Y-33821D01*
X57829Y-33912D01*
X57899Y-33982D01*
X57991Y-34020D01*
X58158Y-34021D01*
X58220Y-33959D01*
X58220Y-36623D01*
X58179Y-36640D01*
X58109Y-36710D01*
X58071Y-36801D01*
X58071Y-36900D01*
X58070Y-37009D01*
X58132Y-37071D01*
X58580Y-37071D01*
X58580Y-37171D01*
X58530Y-37171D01*
X58132Y-37171D01*
X58097Y-37206D01*
X57490Y-37206D01*
X57479Y-37179D01*
X57409Y-37109D01*
X57318Y-37071D01*
X57219Y-37071D01*
X57161Y-37071D01*
X57139Y-37071D01*
X57062Y-37071D01*
X57046Y-37071D01*
X57046Y-36573D01*
X57046Y-36572D01*
X57024Y-36462D01*
X57024Y-36461D01*
X56961Y-36369D01*
X56961Y-36368D01*
X56926Y-36344D01*
X56697Y-36115D01*
X56807Y-36070D01*
X56904Y-35973D01*
X56957Y-35845D01*
X56957Y-35707D01*
X56904Y-35579D01*
X56807Y-35482D01*
X56679Y-35429D01*
X56541Y-35429D01*
X56413Y-35482D01*
X56408Y-35487D01*
X56024Y-35487D01*
X56024Y-34486D01*
X56024Y-34348D01*
X55994Y-34275D01*
X55994Y-34189D01*
X55994Y-33929D01*
X55993Y-33928D01*
X55970Y-33811D01*
X55969Y-33810D01*
X55947Y-33777D01*
X55903Y-33711D01*
X55903Y-33710D01*
X55505Y-33313D01*
X55405Y-33246D01*
X55287Y-33222D01*
X54265Y-33222D01*
X54215Y-33232D01*
X54148Y-33232D01*
X54020Y-33285D01*
X53923Y-33382D01*
X53870Y-33510D01*
X53870Y-33648D01*
X53923Y-33776D01*
X54020Y-33873D01*
X54148Y-33926D01*
X54286Y-33926D01*
X54414Y-33873D01*
X54447Y-33840D01*
X55159Y-33840D01*
X55376Y-34056D01*
X55376Y-34189D01*
X55376Y-34236D01*
X55330Y-34348D01*
X55330Y-34486D01*
X55383Y-34614D01*
X55480Y-34711D01*
X55608Y-34764D01*
X55746Y-34764D01*
X55874Y-34711D01*
X55971Y-34614D01*
X56024Y-34486D01*
X56024Y-35487D01*
X55914Y-35487D01*
X55785Y-35358D01*
X55767Y-35331D01*
X55674Y-35268D01*
X55563Y-35246D01*
X52492Y-35246D01*
X52381Y-35268D01*
X52287Y-35331D01*
X51963Y-35655D01*
X51963Y-32478D01*
X51963Y-32254D01*
X51962Y-32115D01*
X51962Y-32016D01*
X51924Y-31925D01*
X51854Y-31855D01*
X51762Y-31817D01*
X51525Y-31816D01*
X51463Y-31878D01*
X51463Y-32316D01*
X51901Y-32316D01*
X51963Y-32254D01*
X51963Y-32478D01*
X51901Y-32416D01*
X51463Y-32416D01*
X51463Y-32854D01*
X51525Y-32916D01*
X51762Y-32915D01*
X51854Y-32877D01*
X51924Y-32807D01*
X51962Y-32716D01*
X51962Y-32617D01*
X51963Y-32478D01*
X51963Y-35655D01*
X51827Y-35792D01*
X51764Y-35885D01*
X51742Y-35996D01*
X51742Y-36196D01*
X51764Y-36307D01*
X51827Y-36400D01*
X52497Y-37071D01*
X52451Y-37071D01*
X52429Y-37071D01*
X52352Y-37071D01*
X52272Y-37071D01*
X52271Y-37071D01*
X51974Y-36774D01*
X51974Y-36767D01*
X51921Y-36639D01*
X51824Y-36542D01*
X51696Y-36489D01*
X51558Y-36489D01*
X51430Y-36542D01*
X51333Y-36639D01*
X51280Y-36767D01*
X51280Y-36905D01*
X51306Y-36968D01*
X51269Y-37059D01*
X51269Y-37197D01*
X51322Y-37325D01*
X51380Y-37383D01*
X51380Y-37923D01*
X51353Y-37935D01*
X51331Y-37956D01*
X51287Y-37938D01*
X51149Y-37938D01*
X51039Y-37983D01*
X51039Y-36853D01*
X51067Y-36825D01*
X51120Y-36697D01*
X51120Y-36559D01*
X51067Y-36431D01*
X50970Y-36334D01*
X50842Y-36281D01*
X50704Y-36281D01*
X50576Y-36334D01*
X50479Y-36431D01*
X50459Y-36478D01*
X50429Y-36478D01*
X50325Y-36521D01*
X50325Y-36480D01*
X50272Y-36352D01*
X50175Y-36255D01*
X50047Y-36202D01*
X49909Y-36202D01*
X49781Y-36255D01*
X49738Y-36298D01*
X49695Y-36255D01*
X49567Y-36202D01*
X49429Y-36202D01*
X49301Y-36255D01*
X49204Y-36352D01*
X49151Y-36480D01*
X49151Y-36618D01*
X49204Y-36746D01*
X49209Y-36751D01*
X49209Y-38218D01*
X49231Y-38329D01*
X49294Y-38422D01*
X49625Y-38753D01*
X49625Y-38754D01*
X49551Y-38804D01*
X49489Y-38866D01*
X49482Y-38866D01*
X49354Y-38919D01*
X49257Y-39016D01*
X49204Y-39144D01*
X49204Y-39282D01*
X49257Y-39410D01*
X49354Y-39507D01*
X49482Y-39560D01*
X49620Y-39560D01*
X49639Y-39551D01*
X49684Y-39659D01*
X49781Y-39756D01*
X49909Y-39809D01*
X49916Y-39809D01*
X50067Y-39960D01*
X50068Y-39960D01*
X50161Y-40023D01*
X50271Y-40044D01*
X50272Y-40045D01*
X50349Y-40045D01*
X50263Y-40131D01*
X50210Y-40259D01*
X50210Y-40397D01*
X50214Y-40409D01*
X49521Y-40409D01*
X49087Y-39975D01*
X48759Y-39647D01*
X48759Y-37462D01*
X48759Y-37447D01*
X48737Y-37336D01*
X48674Y-37243D01*
X48674Y-37242D01*
X48349Y-36918D01*
X48301Y-36885D01*
X48909Y-36278D01*
X48909Y-36277D01*
X48910Y-36277D01*
X49006Y-36133D01*
X49007Y-36132D01*
X49040Y-35962D01*
X49041Y-35961D01*
X49041Y-34414D01*
X49263Y-34323D01*
X49450Y-34136D01*
X49552Y-33891D01*
X49552Y-33738D01*
X49643Y-33720D01*
X49788Y-33623D01*
X50496Y-32915D01*
X50522Y-32915D01*
X50724Y-32831D01*
X50864Y-32691D01*
X50864Y-32716D01*
X50902Y-32807D01*
X50972Y-32877D01*
X51064Y-32915D01*
X51301Y-32916D01*
X51363Y-32854D01*
X51363Y-32466D01*
X51363Y-32416D01*
X51363Y-32316D01*
X51363Y-32266D01*
X51363Y-31878D01*
X51301Y-31816D01*
X51064Y-31817D01*
X50972Y-31855D01*
X50902Y-31925D01*
X50864Y-32016D01*
X50864Y-32041D01*
X50724Y-31901D01*
X50522Y-31817D01*
X50304Y-31817D01*
X50102Y-31901D01*
X49948Y-32055D01*
X49864Y-32257D01*
X49864Y-32282D01*
X49514Y-32632D01*
X49451Y-32479D01*
X49264Y-32292D01*
X49019Y-32190D01*
X48754Y-32190D01*
X48509Y-32291D01*
X48322Y-32478D01*
X48220Y-32723D01*
X48220Y-32988D01*
X48220Y-33369D01*
X48181Y-33428D01*
X48147Y-33599D01*
X48147Y-34242D01*
X48068Y-34170D01*
X47860Y-34105D01*
X47755Y-34152D01*
X47755Y-35096D01*
X47755Y-35146D01*
X47755Y-35246D01*
X47655Y-35246D01*
X47655Y-35146D01*
X47655Y-34152D01*
X47550Y-34105D01*
X47342Y-34170D01*
X47203Y-34297D01*
X47203Y-33902D01*
X47203Y-33357D01*
X47203Y-33257D01*
X47203Y-32712D01*
X47088Y-32465D01*
X46887Y-32281D01*
X46679Y-32216D01*
X46574Y-32263D01*
X46574Y-33257D01*
X47203Y-33257D01*
X47203Y-33357D01*
X46574Y-33357D01*
X46574Y-34351D01*
X46679Y-34398D01*
X46887Y-34333D01*
X47088Y-34149D01*
X47203Y-33902D01*
X47203Y-34297D01*
X47141Y-34354D01*
X47026Y-34601D01*
X47026Y-35146D01*
X47655Y-35146D01*
X47655Y-35246D01*
X47605Y-35246D01*
X47026Y-35246D01*
X47026Y-35791D01*
X47141Y-36038D01*
X47277Y-36163D01*
X46474Y-36163D01*
X46474Y-34351D01*
X46474Y-33357D01*
X46474Y-33257D01*
X46474Y-32263D01*
X46369Y-32216D01*
X46161Y-32281D01*
X45960Y-32465D01*
X45845Y-32712D01*
X45845Y-33257D01*
X46474Y-33257D01*
X46474Y-33357D01*
X45845Y-33357D01*
X45845Y-33902D01*
X45960Y-34149D01*
X46161Y-34333D01*
X46369Y-34398D01*
X46474Y-34351D01*
X46474Y-36163D01*
X46358Y-36163D01*
X46187Y-36197D01*
X46042Y-36294D01*
X45349Y-36987D01*
X45252Y-37132D01*
X45218Y-37303D01*
X45218Y-47051D01*
X45252Y-47222D01*
X45349Y-47367D01*
X45789Y-47808D01*
X45790Y-47808D01*
X45886Y-47872D01*
X45916Y-47892D01*
X45934Y-47980D01*
X46031Y-48125D01*
X46179Y-48273D01*
X46324Y-48370D01*
X46495Y-48404D01*
X46689Y-48404D01*
X47380Y-49095D01*
X47381Y-49096D01*
X49735Y-51450D01*
X49880Y-51547D01*
X50051Y-51581D01*
X61728Y-51581D01*
X61899Y-51547D01*
X62044Y-51450D01*
X62753Y-50742D01*
X62753Y-50741D01*
X62817Y-50645D01*
X62849Y-50597D01*
X62850Y-50596D01*
X62873Y-50475D01*
X62878Y-50477D01*
X63150Y-50204D01*
X63185Y-50169D01*
X63256Y-50098D01*
X63291Y-50063D01*
X63564Y-49791D01*
X63537Y-49697D01*
X63471Y-49673D01*
X63567Y-49634D01*
X63721Y-49480D01*
X63756Y-49395D01*
X63791Y-49480D01*
X63945Y-49634D01*
X64029Y-49669D01*
X63945Y-49704D01*
X63791Y-49858D01*
X63753Y-49949D01*
X63728Y-49888D01*
X63634Y-49861D01*
X63327Y-50169D01*
X63634Y-50477D01*
X63728Y-50450D01*
X63751Y-50384D01*
X63791Y-50480D01*
X63945Y-50634D01*
X64147Y-50718D01*
X64365Y-50718D01*
X64567Y-50634D01*
X64721Y-50480D01*
X64756Y-50395D01*
X64791Y-50480D01*
X64945Y-50634D01*
X65147Y-50718D01*
X65365Y-50718D01*
X65567Y-50634D01*
X65721Y-50480D01*
X65756Y-50395D01*
X65791Y-50480D01*
X65945Y-50634D01*
X66147Y-50718D01*
X66365Y-50718D01*
X66567Y-50634D01*
X66721Y-50480D01*
X66805Y-50278D01*
X66805Y-50060D01*
X66781Y-50004D01*
X66842Y-49992D01*
X66843Y-49992D01*
X66949Y-49921D01*
X67362Y-49508D01*
X67433Y-49402D01*
X67433Y-49401D01*
X67458Y-49276D01*
X67458Y-51850D01*
X63564Y-51850D01*
X63564Y-50547D01*
X63256Y-50240D01*
X62948Y-50547D01*
X62975Y-50641D01*
X63177Y-50712D01*
X63390Y-50701D01*
X63537Y-50641D01*
X63564Y-50547D01*
X63564Y-51850D01*
X44950Y-51850D01*
X44975Y-31575D01*
X68075Y-31525D01*
X68075Y-51850D01*
M02*
