G04 (created by PCBNEW-RS274X (2011-01-25 BZR 2758)-stable) date Fri 15 Apr 2011 01:28:21 PM COT*
G01*
G70*
G90*
%MOIN*%
G04 Gerber Fmt 3.4, Leading zero omitted, Abs format*
%FSLAX34Y34*%
G04 APERTURE LIST*
%ADD10C,0.006000*%
%ADD11C,0.001000*%
%ADD12C,0.008000*%
%ADD13C,0.007000*%
%ADD14C,0.002600*%
%ADD15C,0.003900*%
%ADD16C,0.000100*%
%ADD17C,0.005000*%
%ADD18C,0.010000*%
%ADD19C,0.004000*%
%ADD20C,0.012000*%
%ADD21C,0.015000*%
%ADD22C,0.002000*%
%ADD23C,0.003500*%
%ADD24C,0.004500*%
G04 APERTURE END LIST*
G54D10*
G54D11*
X53739Y-50758D02*
X53739Y-48658D01*
X53739Y-48658D02*
X57649Y-48658D01*
X57649Y-48658D02*
X57649Y-50758D01*
X57649Y-50758D02*
X53739Y-50758D01*
G54D12*
X57688Y-43376D02*
X57685Y-43402D01*
X57677Y-43428D01*
X57664Y-43452D01*
X57647Y-43473D01*
X57627Y-43490D01*
X57603Y-43503D01*
X57577Y-43511D01*
X57550Y-43513D01*
X57525Y-43511D01*
X57499Y-43503D01*
X57475Y-43491D01*
X57454Y-43474D01*
X57437Y-43453D01*
X57424Y-43430D01*
X57416Y-43404D01*
X57413Y-43377D01*
X57415Y-43352D01*
X57422Y-43326D01*
X57435Y-43302D01*
X57451Y-43281D01*
X57472Y-43263D01*
X57495Y-43250D01*
X57521Y-43242D01*
X57548Y-43239D01*
X57573Y-43241D01*
X57599Y-43248D01*
X57623Y-43260D01*
X57645Y-43277D01*
X57662Y-43297D01*
X57676Y-43320D01*
X57684Y-43346D01*
X57687Y-43373D01*
X57688Y-43376D01*
X52038Y-43376D02*
X57156Y-43376D01*
X57156Y-43376D02*
X57550Y-42982D01*
X57550Y-42982D02*
X57550Y-37864D01*
X57550Y-37864D02*
X52038Y-37864D01*
X52038Y-37864D02*
X52038Y-43376D01*
G54D13*
X64770Y-36761D02*
X64770Y-31901D01*
X64770Y-31901D02*
X64720Y-31851D01*
X64720Y-31851D02*
X57980Y-31851D01*
X57980Y-31851D02*
X57980Y-37561D01*
X57980Y-37561D02*
X58990Y-37561D01*
X58990Y-37561D02*
X58990Y-37791D01*
X58990Y-37791D02*
X64220Y-37791D01*
X64220Y-37791D02*
X64220Y-37581D01*
X64220Y-37581D02*
X64780Y-37581D01*
X64780Y-37581D02*
X64780Y-36731D01*
G54D10*
X48539Y-49386D02*
X48539Y-50386D01*
X48539Y-50386D02*
X46539Y-50386D01*
X46539Y-50386D02*
X46539Y-49386D01*
X46539Y-49386D02*
X48539Y-49386D01*
X53504Y-32697D02*
X53504Y-31697D01*
X53504Y-31697D02*
X55504Y-31697D01*
X55504Y-31697D02*
X55504Y-32697D01*
X55504Y-32697D02*
X53504Y-32697D01*
X55646Y-33866D02*
X55646Y-32866D01*
X55646Y-32866D02*
X57646Y-32866D01*
X57646Y-32866D02*
X57646Y-33866D01*
X57646Y-33866D02*
X55646Y-33866D01*
X55720Y-32724D02*
X55720Y-31724D01*
X55720Y-31724D02*
X57720Y-31724D01*
X57720Y-31724D02*
X57720Y-32724D01*
X57720Y-32724D02*
X55720Y-32724D01*
G54D14*
X47213Y-35295D02*
X48197Y-35295D01*
X48197Y-35295D02*
X48197Y-35098D01*
X47213Y-35098D02*
X48197Y-35098D01*
X47213Y-35295D02*
X47213Y-35098D01*
X48787Y-33897D02*
X48984Y-33897D01*
X48984Y-33897D02*
X48984Y-32717D01*
X48787Y-32717D02*
X48984Y-32717D01*
X48787Y-33897D02*
X48787Y-32717D01*
X46485Y-33799D02*
X46564Y-33799D01*
X46564Y-33799D02*
X46564Y-32815D01*
X46485Y-32815D02*
X46564Y-32815D01*
X46485Y-33799D02*
X46485Y-32815D01*
G54D15*
X43473Y-35078D02*
X43473Y-34566D01*
X43473Y-34566D02*
X43473Y-32048D01*
X43473Y-32048D02*
X43473Y-31536D01*
X44851Y-35078D02*
X44851Y-31733D01*
X44851Y-31733D02*
X44851Y-31536D01*
X44851Y-34881D02*
X48197Y-34881D01*
X44851Y-31733D02*
X48197Y-31733D01*
X48197Y-34881D02*
X48197Y-31733D01*
X48197Y-35078D02*
X48197Y-34881D01*
X48197Y-31733D02*
X48197Y-31536D01*
X43473Y-31536D02*
X48197Y-31536D01*
X43473Y-35078D02*
X48197Y-35078D01*
X48197Y-34881D02*
X48787Y-34881D01*
X48787Y-34881D02*
X48984Y-34881D01*
X48197Y-31733D02*
X48787Y-31733D01*
X48787Y-31733D02*
X48984Y-31733D01*
X48984Y-34881D02*
X48984Y-31733D01*
X48787Y-34881D02*
X48787Y-31733D01*
X43473Y-32048D02*
X47017Y-32048D01*
X43473Y-34566D02*
X47017Y-34566D01*
X47017Y-34566D02*
X47017Y-33700D01*
X47017Y-33700D02*
X47017Y-32914D01*
X47017Y-32914D02*
X47017Y-32048D01*
X44261Y-33700D02*
X47017Y-33700D01*
X44261Y-32914D02*
X47017Y-32914D01*
G54D16*
X48689Y-32619D02*
X49082Y-32619D01*
X49082Y-32619D02*
X49082Y-33995D01*
X49082Y-33995D02*
X48689Y-33995D01*
X48689Y-33995D02*
X48689Y-32619D01*
X46367Y-32717D02*
X46682Y-32717D01*
X46682Y-32717D02*
X46682Y-33897D01*
X46682Y-33897D02*
X46367Y-33897D01*
X46367Y-33897D02*
X46367Y-32717D01*
X47115Y-35039D02*
X48295Y-35039D01*
X48295Y-35039D02*
X48295Y-35354D01*
X48295Y-35354D02*
X47115Y-35354D01*
X47115Y-35354D02*
X47115Y-35039D01*
G54D15*
X43473Y-35078D02*
X46698Y-35078D01*
X48787Y-34881D02*
X48984Y-34881D01*
X48984Y-34881D02*
X48984Y-34232D01*
X48984Y-32382D02*
X48984Y-31733D01*
X48197Y-34381D02*
X48197Y-31733D01*
X48787Y-32382D02*
X48787Y-31733D01*
X48787Y-34881D02*
X48787Y-34232D01*
X44261Y-32914D02*
X44227Y-32916D01*
X44193Y-32920D01*
X44160Y-32928D01*
X44127Y-32938D01*
X44095Y-32951D01*
X44065Y-32967D01*
X44036Y-32986D01*
X44009Y-33006D01*
X43984Y-33030D01*
X43960Y-33055D01*
X43940Y-33082D01*
X43921Y-33111D01*
X43905Y-33141D01*
X43892Y-33173D01*
X43882Y-33206D01*
X43874Y-33239D01*
X43870Y-33273D01*
X43868Y-33307D01*
X43870Y-33341D01*
X43874Y-33375D01*
X43882Y-33408D01*
X43892Y-33441D01*
X43905Y-33473D01*
X43921Y-33503D01*
X43940Y-33532D01*
X43960Y-33559D01*
X43984Y-33584D01*
X44009Y-33608D01*
X44036Y-33628D01*
X44065Y-33647D01*
X44095Y-33663D01*
X44127Y-33676D01*
X44160Y-33686D01*
X44193Y-33694D01*
X44227Y-33698D01*
X44261Y-33700D01*
G54D17*
X66003Y-33974D02*
X66903Y-33974D01*
X66903Y-33974D02*
X66903Y-34474D01*
X66903Y-34474D02*
X66003Y-34474D01*
X66003Y-34474D02*
X66003Y-33974D01*
X66911Y-35148D02*
X66011Y-35148D01*
X66011Y-35148D02*
X66011Y-34648D01*
X66011Y-34648D02*
X66911Y-34648D01*
X66911Y-34648D02*
X66911Y-35148D01*
X46156Y-46553D02*
X47056Y-46553D01*
X47056Y-46553D02*
X47056Y-47053D01*
X47056Y-47053D02*
X46156Y-47053D01*
X46156Y-47053D02*
X46156Y-46553D01*
G54D18*
X66756Y-50756D02*
X62756Y-50756D01*
X66756Y-49756D02*
X62756Y-49756D01*
X62756Y-49756D02*
X62756Y-50756D01*
X66756Y-50756D02*
X66756Y-49756D01*
G54D14*
X66618Y-33303D02*
X66618Y-33657D01*
X66618Y-33657D02*
X66775Y-33657D01*
X66775Y-33303D02*
X66775Y-33657D01*
X66618Y-33303D02*
X66775Y-33303D01*
X66107Y-33303D02*
X66107Y-33657D01*
X66107Y-33657D02*
X66264Y-33657D01*
X66264Y-33303D02*
X66264Y-33657D01*
X66107Y-33303D02*
X66264Y-33303D01*
X66441Y-33303D02*
X66441Y-33362D01*
X66441Y-33362D02*
X66559Y-33362D01*
X66559Y-33303D02*
X66559Y-33362D01*
X66441Y-33303D02*
X66559Y-33303D01*
X66441Y-33598D02*
X66441Y-33657D01*
X66441Y-33657D02*
X66559Y-33657D01*
X66559Y-33598D02*
X66559Y-33657D01*
X66441Y-33598D02*
X66559Y-33598D01*
X66441Y-33421D02*
X66441Y-33539D01*
X66441Y-33539D02*
X66559Y-33539D01*
X66559Y-33421D02*
X66559Y-33539D01*
X66441Y-33421D02*
X66559Y-33421D01*
G54D19*
X66618Y-33323D02*
X66264Y-33323D01*
X66618Y-33637D02*
X66264Y-33637D01*
G54D14*
X66649Y-35378D02*
X66649Y-35732D01*
X66649Y-35732D02*
X66806Y-35732D01*
X66806Y-35378D02*
X66806Y-35732D01*
X66649Y-35378D02*
X66806Y-35378D01*
X66138Y-35378D02*
X66138Y-35732D01*
X66138Y-35732D02*
X66295Y-35732D01*
X66295Y-35378D02*
X66295Y-35732D01*
X66138Y-35378D02*
X66295Y-35378D01*
X66472Y-35378D02*
X66472Y-35437D01*
X66472Y-35437D02*
X66590Y-35437D01*
X66590Y-35378D02*
X66590Y-35437D01*
X66472Y-35378D02*
X66590Y-35378D01*
X66472Y-35673D02*
X66472Y-35732D01*
X66472Y-35732D02*
X66590Y-35732D01*
X66590Y-35673D02*
X66590Y-35732D01*
X66472Y-35673D02*
X66590Y-35673D01*
X66472Y-35496D02*
X66472Y-35614D01*
X66472Y-35614D02*
X66590Y-35614D01*
X66590Y-35496D02*
X66590Y-35614D01*
X66472Y-35496D02*
X66590Y-35496D01*
G54D19*
X66649Y-35398D02*
X66295Y-35398D01*
X66649Y-35712D02*
X66295Y-35712D01*
G54D14*
X46819Y-47315D02*
X46819Y-47669D01*
X46819Y-47669D02*
X46976Y-47669D01*
X46976Y-47315D02*
X46976Y-47669D01*
X46819Y-47315D02*
X46976Y-47315D01*
X46308Y-47315D02*
X46308Y-47669D01*
X46308Y-47669D02*
X46465Y-47669D01*
X46465Y-47315D02*
X46465Y-47669D01*
X46308Y-47315D02*
X46465Y-47315D01*
X46642Y-47315D02*
X46642Y-47374D01*
X46642Y-47374D02*
X46760Y-47374D01*
X46760Y-47315D02*
X46760Y-47374D01*
X46642Y-47315D02*
X46760Y-47315D01*
X46642Y-47610D02*
X46642Y-47669D01*
X46642Y-47669D02*
X46760Y-47669D01*
X46760Y-47610D02*
X46760Y-47669D01*
X46642Y-47610D02*
X46760Y-47610D01*
X46642Y-47433D02*
X46642Y-47551D01*
X46642Y-47551D02*
X46760Y-47551D01*
X46760Y-47433D02*
X46760Y-47551D01*
X46642Y-47433D02*
X46760Y-47433D01*
G54D19*
X46819Y-47335D02*
X46465Y-47335D01*
X46819Y-47649D02*
X46465Y-47649D01*
G54D14*
X59496Y-45779D02*
X59142Y-45779D01*
X59142Y-45779D02*
X59142Y-45936D01*
X59496Y-45936D02*
X59142Y-45936D01*
X59496Y-45779D02*
X59496Y-45936D01*
X59496Y-45268D02*
X59142Y-45268D01*
X59142Y-45268D02*
X59142Y-45425D01*
X59496Y-45425D02*
X59142Y-45425D01*
X59496Y-45268D02*
X59496Y-45425D01*
X59496Y-45602D02*
X59437Y-45602D01*
X59437Y-45602D02*
X59437Y-45720D01*
X59496Y-45720D02*
X59437Y-45720D01*
X59496Y-45602D02*
X59496Y-45720D01*
X59201Y-45602D02*
X59142Y-45602D01*
X59142Y-45602D02*
X59142Y-45720D01*
X59201Y-45720D02*
X59142Y-45720D01*
X59201Y-45602D02*
X59201Y-45720D01*
X59378Y-45602D02*
X59260Y-45602D01*
X59260Y-45602D02*
X59260Y-45720D01*
X59378Y-45720D02*
X59260Y-45720D01*
X59378Y-45602D02*
X59378Y-45720D01*
G54D19*
X59476Y-45779D02*
X59476Y-45425D01*
X59162Y-45779D02*
X59162Y-45425D01*
G54D17*
X49690Y-44352D02*
X48790Y-44352D01*
X48790Y-44352D02*
X48790Y-43852D01*
X48790Y-43852D02*
X49690Y-43852D01*
X49690Y-43852D02*
X49690Y-44352D01*
G54D20*
X46393Y-37153D02*
X48193Y-37153D01*
X48193Y-37153D02*
X48193Y-44953D01*
X48193Y-44953D02*
X46393Y-44953D01*
X46393Y-44953D02*
X46393Y-37153D01*
G54D21*
X67151Y-36297D02*
X65151Y-36297D01*
X65151Y-36297D02*
X65151Y-48297D01*
X65151Y-48297D02*
X67151Y-48297D01*
X67151Y-48297D02*
X67151Y-36297D01*
G54D17*
X62604Y-41045D02*
X61704Y-41045D01*
X61704Y-41045D02*
X61704Y-40545D01*
X61704Y-40545D02*
X62604Y-40545D01*
X62604Y-40545D02*
X62604Y-41045D01*
G54D11*
X57959Y-50758D02*
X57959Y-48658D01*
X57959Y-48658D02*
X61869Y-48658D01*
X61869Y-48658D02*
X61869Y-50758D01*
X61869Y-50758D02*
X57959Y-50758D01*
X49424Y-50758D02*
X49424Y-48658D01*
X49424Y-48658D02*
X53334Y-48658D01*
X53334Y-48658D02*
X53334Y-50758D01*
X53334Y-50758D02*
X49424Y-50758D01*
G54D17*
X49494Y-46145D02*
X49494Y-47045D01*
X49494Y-47045D02*
X50144Y-47045D01*
X50844Y-46145D02*
X51494Y-46145D01*
X51494Y-46145D02*
X51494Y-47045D01*
X51494Y-47045D02*
X50844Y-47045D01*
X50144Y-46145D02*
X49494Y-46145D01*
X51794Y-46645D02*
X51794Y-47545D01*
X51794Y-47545D02*
X52444Y-47545D01*
X53144Y-46645D02*
X53794Y-46645D01*
X53794Y-46645D02*
X53794Y-47545D01*
X53794Y-47545D02*
X53144Y-47545D01*
X52444Y-46645D02*
X51794Y-46645D01*
X49619Y-45995D02*
X49619Y-45095D01*
X49619Y-45095D02*
X48969Y-45095D01*
X48269Y-45995D02*
X47619Y-45995D01*
X47619Y-45995D02*
X47619Y-45095D01*
X47619Y-45095D02*
X48269Y-45095D01*
X48969Y-45995D02*
X49619Y-45995D01*
X59259Y-42998D02*
X58359Y-42998D01*
X58359Y-42998D02*
X58359Y-43648D01*
X59259Y-44348D02*
X59259Y-44998D01*
X59259Y-44998D02*
X58359Y-44998D01*
X58359Y-44998D02*
X58359Y-44348D01*
X59259Y-43648D02*
X59259Y-42998D01*
X56569Y-45070D02*
X56569Y-45970D01*
X56569Y-45970D02*
X56069Y-45970D01*
X56069Y-45970D02*
X56069Y-45070D01*
X56069Y-45070D02*
X56569Y-45070D01*
X54644Y-45070D02*
X54644Y-45970D01*
X54644Y-45970D02*
X54144Y-45970D01*
X54144Y-45970D02*
X54144Y-45070D01*
X54144Y-45070D02*
X54644Y-45070D01*
X53394Y-45070D02*
X53394Y-45970D01*
X53394Y-45970D02*
X52894Y-45970D01*
X52894Y-45970D02*
X52894Y-45070D01*
X52894Y-45070D02*
X53394Y-45070D01*
X52469Y-46045D02*
X53369Y-46045D01*
X53369Y-46045D02*
X53369Y-46545D01*
X53369Y-46545D02*
X52469Y-46545D01*
X52469Y-46545D02*
X52469Y-46045D01*
X52769Y-45045D02*
X52769Y-45945D01*
X52769Y-45945D02*
X52269Y-45945D01*
X52269Y-45945D02*
X52269Y-45045D01*
X52269Y-45045D02*
X52769Y-45045D01*
X50219Y-45095D02*
X50219Y-45995D01*
X50219Y-45995D02*
X49719Y-45995D01*
X49719Y-45995D02*
X49719Y-45095D01*
X49719Y-45095D02*
X50219Y-45095D01*
X51494Y-45095D02*
X51494Y-45995D01*
X51494Y-45995D02*
X50994Y-45995D01*
X50994Y-45995D02*
X50994Y-45095D01*
X50994Y-45095D02*
X51494Y-45095D01*
X54019Y-45070D02*
X54019Y-45970D01*
X54019Y-45970D02*
X53519Y-45970D01*
X53519Y-45970D02*
X53519Y-45070D01*
X53519Y-45070D02*
X54019Y-45070D01*
X50869Y-45095D02*
X50869Y-45995D01*
X50869Y-45995D02*
X50369Y-45995D01*
X50369Y-45995D02*
X50369Y-45095D01*
X50369Y-45095D02*
X50869Y-45095D01*
X52144Y-45020D02*
X52144Y-45920D01*
X52144Y-45920D02*
X51644Y-45920D01*
X51644Y-45920D02*
X51644Y-45020D01*
X51644Y-45020D02*
X52144Y-45020D01*
X49719Y-42270D02*
X48819Y-42270D01*
X48819Y-42270D02*
X48819Y-41770D01*
X48819Y-41770D02*
X49719Y-41770D01*
X49719Y-41770D02*
X49719Y-42270D01*
X55294Y-45070D02*
X55294Y-45970D01*
X55294Y-45970D02*
X54794Y-45970D01*
X54794Y-45970D02*
X54794Y-45070D01*
X54794Y-45070D02*
X55294Y-45070D01*
X49644Y-44995D02*
X48744Y-44995D01*
X48744Y-44995D02*
X48744Y-44495D01*
X48744Y-44495D02*
X49644Y-44495D01*
X49644Y-44495D02*
X49644Y-44995D01*
X61110Y-43528D02*
X61110Y-44428D01*
X61110Y-44428D02*
X60610Y-44428D01*
X60610Y-44428D02*
X60610Y-43528D01*
X60610Y-43528D02*
X61110Y-43528D01*
X60484Y-43567D02*
X60484Y-44467D01*
X60484Y-44467D02*
X59984Y-44467D01*
X59984Y-44467D02*
X59984Y-43567D01*
X59984Y-43567D02*
X60484Y-43567D01*
X49735Y-43519D02*
X48835Y-43519D01*
X48835Y-43519D02*
X48835Y-43019D01*
X48835Y-43019D02*
X49735Y-43019D01*
X49735Y-43019D02*
X49735Y-43519D01*
X54904Y-36462D02*
X55804Y-36462D01*
X55804Y-36462D02*
X55804Y-36962D01*
X55804Y-36962D02*
X54904Y-36962D01*
X54904Y-36962D02*
X54904Y-36462D01*
X49719Y-42895D02*
X48819Y-42895D01*
X48819Y-42895D02*
X48819Y-42395D01*
X48819Y-42395D02*
X49719Y-42395D01*
X49719Y-42395D02*
X49719Y-42895D01*
X59870Y-43591D02*
X59870Y-44491D01*
X59870Y-44491D02*
X59370Y-44491D01*
X59370Y-44491D02*
X59370Y-43591D01*
X59370Y-43591D02*
X59870Y-43591D01*
X58543Y-48208D02*
X58543Y-47308D01*
X58543Y-47308D02*
X59043Y-47308D01*
X59043Y-47308D02*
X59043Y-48208D01*
X59043Y-48208D02*
X58543Y-48208D01*
X63039Y-45040D02*
X63039Y-45940D01*
X63039Y-45940D02*
X62539Y-45940D01*
X62539Y-45940D02*
X62539Y-45040D01*
X62539Y-45040D02*
X63039Y-45040D01*
X64936Y-46102D02*
X64036Y-46102D01*
X64036Y-46102D02*
X64036Y-45602D01*
X64036Y-45602D02*
X64936Y-45602D01*
X64936Y-45602D02*
X64936Y-46102D01*
X61759Y-45028D02*
X61759Y-45928D01*
X61759Y-45928D02*
X61259Y-45928D01*
X61259Y-45928D02*
X61259Y-45028D01*
X61259Y-45028D02*
X61759Y-45028D01*
X63188Y-45589D02*
X63188Y-44689D01*
X63188Y-44689D02*
X63688Y-44689D01*
X63688Y-44689D02*
X63688Y-45589D01*
X63688Y-45589D02*
X63188Y-45589D01*
X60661Y-45920D02*
X60661Y-45020D01*
X60661Y-45020D02*
X61161Y-45020D01*
X61161Y-45020D02*
X61161Y-45920D01*
X61161Y-45920D02*
X60661Y-45920D01*
X60019Y-45920D02*
X60019Y-45020D01*
X60019Y-45020D02*
X60519Y-45020D01*
X60519Y-45020D02*
X60519Y-45920D01*
X60519Y-45920D02*
X60019Y-45920D01*
X62409Y-45040D02*
X62409Y-45940D01*
X62409Y-45940D02*
X61909Y-45940D01*
X61909Y-45940D02*
X61909Y-45040D01*
X61909Y-45040D02*
X62409Y-45040D01*
X55527Y-47001D02*
X55527Y-47901D01*
X55527Y-47901D02*
X55027Y-47901D01*
X55027Y-47901D02*
X55027Y-47001D01*
X55027Y-47001D02*
X55527Y-47001D01*
X54881Y-47382D02*
X53981Y-47382D01*
X53981Y-47382D02*
X53981Y-46882D01*
X53981Y-46882D02*
X54881Y-46882D01*
X54881Y-46882D02*
X54881Y-47382D01*
X54896Y-47988D02*
X53996Y-47988D01*
X53996Y-47988D02*
X53996Y-47488D01*
X53996Y-47488D02*
X54896Y-47488D01*
X54896Y-47488D02*
X54896Y-47988D01*
X57862Y-48243D02*
X57862Y-47343D01*
X57862Y-47343D02*
X58362Y-47343D01*
X58362Y-47343D02*
X58362Y-48243D01*
X58362Y-48243D02*
X57862Y-48243D01*
X55944Y-45070D02*
X55944Y-45970D01*
X55944Y-45970D02*
X55444Y-45970D01*
X55444Y-45970D02*
X55444Y-45070D01*
X55444Y-45070D02*
X55944Y-45070D01*
X57188Y-45682D02*
X57188Y-46582D01*
X57188Y-46582D02*
X56688Y-46582D01*
X56688Y-46582D02*
X56688Y-45682D01*
X56688Y-45682D02*
X57188Y-45682D01*
X54169Y-46245D02*
X55069Y-46245D01*
X55069Y-46245D02*
X55069Y-46745D01*
X55069Y-46745D02*
X54169Y-46745D01*
X54169Y-46745D02*
X54169Y-46245D01*
G54D20*
X64277Y-48230D02*
X59277Y-48230D01*
X59277Y-48230D02*
X59277Y-46230D01*
X59277Y-46230D02*
X64277Y-46230D01*
X64277Y-46230D02*
X64277Y-48230D01*
G54D18*
X66736Y-49614D02*
X62736Y-49614D01*
X66736Y-48614D02*
X62736Y-48614D01*
X62736Y-48614D02*
X62736Y-49614D01*
X66736Y-49614D02*
X66736Y-48614D01*
G54D10*
X48218Y-46230D02*
X49218Y-46230D01*
X49218Y-46230D02*
X49218Y-48230D01*
X49218Y-48230D02*
X48218Y-48230D01*
X48218Y-48230D02*
X48218Y-46230D01*
G54D14*
X56434Y-46525D02*
X56316Y-46525D01*
X56316Y-46525D02*
X56316Y-46722D01*
X56434Y-46722D02*
X56316Y-46722D01*
X56434Y-46525D02*
X56434Y-46722D01*
X56179Y-46525D02*
X56061Y-46525D01*
X56061Y-46525D02*
X56061Y-46722D01*
X56179Y-46722D02*
X56061Y-46722D01*
X56179Y-46525D02*
X56179Y-46722D01*
X55924Y-46525D02*
X55806Y-46525D01*
X55806Y-46525D02*
X55806Y-46722D01*
X55924Y-46722D02*
X55806Y-46722D01*
X55924Y-46525D02*
X55924Y-46722D01*
X55924Y-47194D02*
X55806Y-47194D01*
X55806Y-47194D02*
X55806Y-47391D01*
X55924Y-47391D02*
X55806Y-47391D01*
X55924Y-47194D02*
X55924Y-47391D01*
X56179Y-47194D02*
X56061Y-47194D01*
X56061Y-47194D02*
X56061Y-47391D01*
X56179Y-47391D02*
X56061Y-47391D01*
X56179Y-47194D02*
X56179Y-47391D01*
X56434Y-47194D02*
X56316Y-47194D01*
X56316Y-47194D02*
X56316Y-47391D01*
X56434Y-47391D02*
X56316Y-47391D01*
X56434Y-47194D02*
X56434Y-47391D01*
G54D12*
X56513Y-47174D02*
X55727Y-47174D01*
X55727Y-47174D02*
X55727Y-46742D01*
X55727Y-46742D02*
X56513Y-46742D01*
X56513Y-46742D02*
X56513Y-47174D01*
G54D16*
X56436Y-46860D02*
X56435Y-46867D01*
X56432Y-46875D01*
X56429Y-46882D01*
X56424Y-46888D01*
X56417Y-46893D01*
X56410Y-46897D01*
X56403Y-46900D01*
X56395Y-46900D01*
X56388Y-46900D01*
X56380Y-46898D01*
X56373Y-46894D01*
X56367Y-46889D01*
X56362Y-46883D01*
X56358Y-46876D01*
X56355Y-46868D01*
X56355Y-46860D01*
X56355Y-46853D01*
X56357Y-46845D01*
X56361Y-46838D01*
X56366Y-46832D01*
X56372Y-46827D01*
X56379Y-46823D01*
X56387Y-46820D01*
X56395Y-46820D01*
X56402Y-46820D01*
X56409Y-46822D01*
X56416Y-46826D01*
X56423Y-46831D01*
X56428Y-46837D01*
X56432Y-46844D01*
X56434Y-46851D01*
X56435Y-46859D01*
X56436Y-46860D01*
G54D22*
X54865Y-50348D02*
X54872Y-50326D01*
X54872Y-50288D01*
X54865Y-50273D01*
X54857Y-50266D01*
X54842Y-50258D01*
X54827Y-50258D01*
X54812Y-50266D01*
X54805Y-50273D01*
X54797Y-50288D01*
X54790Y-50318D01*
X54782Y-50333D01*
X54775Y-50341D01*
X54760Y-50348D01*
X54745Y-50348D01*
X54730Y-50341D01*
X54723Y-50333D01*
X54715Y-50318D01*
X54715Y-50281D01*
X54723Y-50258D01*
X54715Y-50206D02*
X54872Y-50168D01*
X54760Y-50138D01*
X54872Y-50108D01*
X54715Y-50071D01*
X54730Y-50019D02*
X54723Y-50012D01*
X54715Y-49997D01*
X54715Y-49959D01*
X54723Y-49944D01*
X54730Y-49937D01*
X54745Y-49929D01*
X54760Y-49929D01*
X54782Y-49937D01*
X54872Y-50027D01*
X54872Y-49929D01*
G54D12*
X54482Y-41053D02*
X54482Y-40713D01*
X54817Y-41020D02*
X54802Y-41036D01*
X54756Y-41053D01*
X54726Y-41053D01*
X54680Y-41036D01*
X54649Y-41004D01*
X54634Y-40972D01*
X54619Y-40907D01*
X54619Y-40858D01*
X54634Y-40794D01*
X54649Y-40761D01*
X54680Y-40729D01*
X54726Y-40713D01*
X54756Y-40713D01*
X54802Y-40729D01*
X54817Y-40745D01*
X55122Y-41053D02*
X54939Y-41053D01*
X55030Y-41053D02*
X55030Y-40713D01*
X55000Y-40761D01*
X54969Y-40794D01*
X54939Y-40810D01*
X54001Y-40364D02*
X54001Y-40137D01*
X54001Y-40024D02*
X53986Y-40040D01*
X54001Y-40056D01*
X54016Y-40040D01*
X54001Y-40024D01*
X54001Y-40056D01*
X54153Y-40364D02*
X54153Y-40024D01*
X54260Y-40266D01*
X54367Y-40024D01*
X54367Y-40364D01*
X54489Y-40024D02*
X54702Y-40364D01*
X54702Y-40024D02*
X54489Y-40364D01*
X54809Y-40056D02*
X54824Y-40040D01*
X54855Y-40024D01*
X54931Y-40024D01*
X54961Y-40040D01*
X54977Y-40056D01*
X54992Y-40088D01*
X54992Y-40121D01*
X54977Y-40169D01*
X54794Y-40364D01*
X54992Y-40364D01*
X55099Y-40024D02*
X55297Y-40024D01*
X55190Y-40153D01*
X55236Y-40153D01*
X55266Y-40169D01*
X55282Y-40186D01*
X55297Y-40218D01*
X55297Y-40299D01*
X55282Y-40331D01*
X55266Y-40347D01*
X55236Y-40364D01*
X55144Y-40364D01*
X55114Y-40347D01*
X55099Y-40331D01*
X55404Y-40024D02*
X55602Y-40024D01*
X55495Y-40153D01*
X55541Y-40153D01*
X55571Y-40169D01*
X55587Y-40186D01*
X55602Y-40218D01*
X55602Y-40299D01*
X55587Y-40331D01*
X55571Y-40347D01*
X55541Y-40364D01*
X55449Y-40364D01*
X55419Y-40347D01*
X55404Y-40331D01*
G54D22*
X61267Y-37306D02*
X61267Y-37418D01*
X61260Y-37441D01*
X61245Y-37456D01*
X61222Y-37463D01*
X61207Y-37463D01*
X61425Y-37463D02*
X61335Y-37463D01*
X61380Y-37463D02*
X61380Y-37306D01*
X61365Y-37328D01*
X61350Y-37343D01*
X61335Y-37351D01*
G54D10*
X47317Y-50757D02*
X47317Y-50457D01*
X47432Y-50457D01*
X47460Y-50472D01*
X47475Y-50486D01*
X47489Y-50515D01*
X47489Y-50557D01*
X47475Y-50586D01*
X47460Y-50600D01*
X47432Y-50615D01*
X47317Y-50615D01*
X47746Y-50457D02*
X47689Y-50457D01*
X47660Y-50472D01*
X47646Y-50486D01*
X47617Y-50529D01*
X47603Y-50586D01*
X47603Y-50700D01*
X47617Y-50729D01*
X47632Y-50743D01*
X47660Y-50757D01*
X47717Y-50757D01*
X47746Y-50743D01*
X47760Y-50729D01*
X47775Y-50700D01*
X47775Y-50629D01*
X47760Y-50600D01*
X47746Y-50586D01*
X47717Y-50572D01*
X47660Y-50572D01*
X47632Y-50586D01*
X47617Y-50600D01*
X47603Y-50629D01*
X54254Y-31268D02*
X54254Y-31483D01*
X54240Y-31526D01*
X54211Y-31554D01*
X54168Y-31568D01*
X54140Y-31568D01*
X54397Y-31568D02*
X54397Y-31268D01*
X54512Y-31268D01*
X54540Y-31283D01*
X54555Y-31297D01*
X54569Y-31326D01*
X54569Y-31368D01*
X54555Y-31397D01*
X54540Y-31411D01*
X54512Y-31426D01*
X54397Y-31426D01*
X54855Y-31568D02*
X54683Y-31568D01*
X54769Y-31568D02*
X54769Y-31268D01*
X54740Y-31311D01*
X54712Y-31340D01*
X54683Y-31354D01*
X56396Y-32437D02*
X56396Y-32652D01*
X56382Y-32695D01*
X56353Y-32723D01*
X56310Y-32737D01*
X56282Y-32737D01*
X56539Y-32737D02*
X56539Y-32437D01*
X56654Y-32437D01*
X56682Y-32452D01*
X56697Y-32466D01*
X56711Y-32495D01*
X56711Y-32537D01*
X56697Y-32566D01*
X56682Y-32580D01*
X56654Y-32595D01*
X56539Y-32595D01*
X56825Y-32466D02*
X56839Y-32452D01*
X56868Y-32437D01*
X56939Y-32437D01*
X56968Y-32452D01*
X56982Y-32466D01*
X56997Y-32495D01*
X56997Y-32523D01*
X56982Y-32566D01*
X56811Y-32737D01*
X56997Y-32737D01*
X56470Y-31295D02*
X56470Y-31510D01*
X56456Y-31553D01*
X56427Y-31581D01*
X56384Y-31595D01*
X56356Y-31595D01*
X56613Y-31595D02*
X56613Y-31295D01*
X56728Y-31295D01*
X56756Y-31310D01*
X56771Y-31324D01*
X56785Y-31353D01*
X56785Y-31395D01*
X56771Y-31424D01*
X56756Y-31438D01*
X56728Y-31453D01*
X56613Y-31453D01*
X56885Y-31295D02*
X57071Y-31295D01*
X56971Y-31410D01*
X57013Y-31410D01*
X57042Y-31424D01*
X57056Y-31438D01*
X57071Y-31467D01*
X57071Y-31538D01*
X57056Y-31567D01*
X57042Y-31581D01*
X57013Y-31595D01*
X56928Y-31595D01*
X56899Y-31581D01*
X56885Y-31567D01*
G54D23*
X44789Y-30759D02*
X44789Y-31117D01*
X44765Y-31188D01*
X44717Y-31236D01*
X44646Y-31259D01*
X44598Y-31259D01*
X45003Y-30807D02*
X45027Y-30783D01*
X45075Y-30759D01*
X45194Y-30759D01*
X45241Y-30783D01*
X45265Y-30807D01*
X45289Y-30855D01*
X45289Y-30902D01*
X45265Y-30974D01*
X44979Y-31259D01*
X45289Y-31259D01*
X43050Y-35259D02*
X43050Y-35617D01*
X43026Y-35688D01*
X42978Y-35736D01*
X42907Y-35759D01*
X42859Y-35759D01*
X43264Y-35617D02*
X43502Y-35617D01*
X43217Y-35759D02*
X43383Y-35259D01*
X43550Y-35759D01*
X44003Y-35712D02*
X43979Y-35736D01*
X43908Y-35759D01*
X43860Y-35759D01*
X43788Y-35736D01*
X43741Y-35688D01*
X43717Y-35640D01*
X43693Y-35545D01*
X43693Y-35474D01*
X43717Y-35378D01*
X43741Y-35331D01*
X43788Y-35283D01*
X43860Y-35259D01*
X43908Y-35259D01*
X43979Y-35283D01*
X44003Y-35307D01*
X44217Y-35759D02*
X44217Y-35259D01*
X44503Y-35759D02*
X44288Y-35474D01*
X44503Y-35259D02*
X44217Y-35545D01*
X44717Y-35569D02*
X45098Y-35569D01*
X45336Y-35759D02*
X45336Y-35259D01*
X45527Y-35259D01*
X45574Y-35283D01*
X45598Y-35307D01*
X45622Y-35355D01*
X45622Y-35426D01*
X45598Y-35474D01*
X45574Y-35497D01*
X45527Y-35521D01*
X45336Y-35521D01*
X46074Y-35759D02*
X45836Y-35759D01*
X45836Y-35259D01*
X46241Y-35259D02*
X46241Y-35664D01*
X46265Y-35712D01*
X46289Y-35736D01*
X46336Y-35759D01*
X46432Y-35759D01*
X46479Y-35736D01*
X46503Y-35712D01*
X46527Y-35664D01*
X46527Y-35259D01*
X47027Y-35283D02*
X46979Y-35259D01*
X46908Y-35259D01*
X46836Y-35283D01*
X46789Y-35331D01*
X46765Y-35378D01*
X46741Y-35474D01*
X46741Y-35545D01*
X46765Y-35640D01*
X46789Y-35688D01*
X46836Y-35736D01*
X46908Y-35759D01*
X46956Y-35759D01*
X47027Y-35736D01*
X47051Y-35712D01*
X47051Y-35545D01*
X46956Y-35545D01*
X47360Y-35259D02*
X47408Y-35259D01*
X47456Y-35283D01*
X47479Y-35307D01*
X47503Y-35355D01*
X47527Y-35450D01*
X47527Y-35569D01*
X47503Y-35664D01*
X47479Y-35712D01*
X47456Y-35736D01*
X47408Y-35759D01*
X47360Y-35759D01*
X47313Y-35736D01*
X47289Y-35712D01*
X47265Y-35664D01*
X47241Y-35569D01*
X47241Y-35450D01*
X47265Y-35355D01*
X47289Y-35307D01*
X47313Y-35283D01*
X47360Y-35259D01*
G54D24*
X66424Y-34337D02*
X66364Y-34204D01*
X66321Y-34337D02*
X66321Y-34057D01*
X66389Y-34057D01*
X66407Y-34071D01*
X66415Y-34084D01*
X66424Y-34111D01*
X66424Y-34151D01*
X66415Y-34177D01*
X66407Y-34191D01*
X66389Y-34204D01*
X66321Y-34204D01*
X66509Y-34337D02*
X66544Y-34337D01*
X66561Y-34324D01*
X66569Y-34311D01*
X66587Y-34271D01*
X66595Y-34217D01*
X66595Y-34111D01*
X66587Y-34084D01*
X66578Y-34071D01*
X66561Y-34057D01*
X66527Y-34057D01*
X66509Y-34071D01*
X66501Y-34084D01*
X66492Y-34111D01*
X66492Y-34177D01*
X66501Y-34204D01*
X66509Y-34217D01*
X66527Y-34231D01*
X66561Y-34231D01*
X66578Y-34217D01*
X66587Y-34204D01*
X66595Y-34177D01*
X66346Y-35011D02*
X66286Y-34878D01*
X66243Y-35011D02*
X66243Y-34731D01*
X66311Y-34731D01*
X66329Y-34745D01*
X66337Y-34758D01*
X66346Y-34785D01*
X66346Y-34825D01*
X66337Y-34851D01*
X66329Y-34865D01*
X66311Y-34878D01*
X66243Y-34878D01*
X66414Y-34758D02*
X66423Y-34745D01*
X66440Y-34731D01*
X66483Y-34731D01*
X66500Y-34745D01*
X66509Y-34758D01*
X66517Y-34785D01*
X66517Y-34811D01*
X66509Y-34851D01*
X66406Y-35011D01*
X66517Y-35011D01*
X66620Y-34851D02*
X66602Y-34838D01*
X66594Y-34825D01*
X66585Y-34798D01*
X66585Y-34785D01*
X66594Y-34758D01*
X66602Y-34745D01*
X66620Y-34731D01*
X66654Y-34731D01*
X66671Y-34745D01*
X66680Y-34758D01*
X66688Y-34785D01*
X66688Y-34798D01*
X66680Y-34825D01*
X66671Y-34838D01*
X66654Y-34851D01*
X66620Y-34851D01*
X66602Y-34865D01*
X66594Y-34878D01*
X66585Y-34905D01*
X66585Y-34958D01*
X66594Y-34985D01*
X66602Y-34998D01*
X66620Y-35011D01*
X66654Y-35011D01*
X66671Y-34998D01*
X66680Y-34985D01*
X66688Y-34958D01*
X66688Y-34905D01*
X66680Y-34878D01*
X66671Y-34865D01*
X66654Y-34851D01*
X46491Y-46916D02*
X46431Y-46783D01*
X46388Y-46916D02*
X46388Y-46636D01*
X46456Y-46636D01*
X46474Y-46650D01*
X46482Y-46663D01*
X46491Y-46690D01*
X46491Y-46730D01*
X46482Y-46756D01*
X46474Y-46770D01*
X46456Y-46783D01*
X46388Y-46783D01*
X46551Y-46636D02*
X46662Y-46636D01*
X46602Y-46743D01*
X46628Y-46743D01*
X46645Y-46756D01*
X46654Y-46770D01*
X46662Y-46796D01*
X46662Y-46863D01*
X46654Y-46890D01*
X46645Y-46903D01*
X46628Y-46916D01*
X46576Y-46916D01*
X46559Y-46903D01*
X46551Y-46890D01*
X46773Y-46636D02*
X46790Y-46636D01*
X46807Y-46650D01*
X46816Y-46663D01*
X46825Y-46690D01*
X46833Y-46743D01*
X46833Y-46810D01*
X46825Y-46863D01*
X46816Y-46890D01*
X46807Y-46903D01*
X46790Y-46916D01*
X46773Y-46916D01*
X46756Y-46903D01*
X46747Y-46890D01*
X46739Y-46863D01*
X46730Y-46810D01*
X46730Y-46743D01*
X46739Y-46690D01*
X46747Y-46663D01*
X46756Y-46650D01*
X46773Y-46636D01*
G54D12*
X64496Y-50902D02*
X64496Y-50502D01*
X64649Y-50502D01*
X64687Y-50521D01*
X64706Y-50540D01*
X64725Y-50578D01*
X64725Y-50635D01*
X64706Y-50673D01*
X64687Y-50692D01*
X64649Y-50711D01*
X64496Y-50711D01*
X65068Y-50635D02*
X65068Y-50902D01*
X64972Y-50483D02*
X64877Y-50769D01*
X65125Y-50769D01*
G54D23*
X66219Y-33201D02*
X66219Y-32901D01*
X66291Y-32901D01*
X66334Y-32916D01*
X66362Y-32944D01*
X66377Y-32973D01*
X66391Y-33030D01*
X66391Y-33073D01*
X66377Y-33130D01*
X66362Y-33159D01*
X66334Y-33187D01*
X66291Y-33201D01*
X66219Y-33201D01*
X66505Y-32930D02*
X66519Y-32916D01*
X66548Y-32901D01*
X66619Y-32901D01*
X66648Y-32916D01*
X66662Y-32930D01*
X66677Y-32959D01*
X66677Y-32987D01*
X66662Y-33030D01*
X66491Y-33201D01*
X66677Y-33201D01*
X66248Y-34001D02*
X66105Y-34001D01*
X66105Y-33701D01*
X66348Y-33844D02*
X66448Y-33844D01*
X66491Y-34001D02*
X66348Y-34001D01*
X66348Y-33701D01*
X66491Y-33701D01*
X66619Y-34001D02*
X66619Y-33701D01*
X66691Y-33701D01*
X66734Y-33716D01*
X66762Y-33744D01*
X66777Y-33773D01*
X66791Y-33830D01*
X66791Y-33873D01*
X66777Y-33930D01*
X66762Y-33959D01*
X66734Y-33987D01*
X66691Y-34001D01*
X66619Y-34001D01*
X66250Y-35276D02*
X66250Y-34976D01*
X66322Y-34976D01*
X66365Y-34991D01*
X66393Y-35019D01*
X66408Y-35048D01*
X66422Y-35105D01*
X66422Y-35148D01*
X66408Y-35205D01*
X66393Y-35234D01*
X66365Y-35262D01*
X66322Y-35276D01*
X66250Y-35276D01*
X66522Y-34976D02*
X66708Y-34976D01*
X66608Y-35091D01*
X66650Y-35091D01*
X66679Y-35105D01*
X66693Y-35119D01*
X66708Y-35148D01*
X66708Y-35219D01*
X66693Y-35248D01*
X66679Y-35262D01*
X66650Y-35276D01*
X66565Y-35276D01*
X66536Y-35262D01*
X66522Y-35248D01*
X66279Y-36076D02*
X66136Y-36076D01*
X66136Y-35776D01*
X66379Y-35919D02*
X66479Y-35919D01*
X66522Y-36076D02*
X66379Y-36076D01*
X66379Y-35776D01*
X66522Y-35776D01*
X66650Y-36076D02*
X66650Y-35776D01*
X66722Y-35776D01*
X66765Y-35791D01*
X66793Y-35819D01*
X66808Y-35848D01*
X66822Y-35905D01*
X66822Y-35948D01*
X66808Y-36005D01*
X66793Y-36034D01*
X66765Y-36062D01*
X66722Y-36076D01*
X66650Y-36076D01*
X46420Y-47213D02*
X46420Y-46913D01*
X46492Y-46913D01*
X46535Y-46928D01*
X46563Y-46956D01*
X46578Y-46985D01*
X46592Y-47042D01*
X46592Y-47085D01*
X46578Y-47142D01*
X46563Y-47171D01*
X46535Y-47199D01*
X46492Y-47213D01*
X46420Y-47213D01*
X46849Y-47013D02*
X46849Y-47213D01*
X46778Y-46899D02*
X46706Y-47113D01*
X46892Y-47113D01*
X46449Y-48013D02*
X46306Y-48013D01*
X46306Y-47713D01*
X46549Y-47856D02*
X46649Y-47856D01*
X46692Y-48013D02*
X46549Y-48013D01*
X46549Y-47713D01*
X46692Y-47713D01*
X46820Y-48013D02*
X46820Y-47713D01*
X46892Y-47713D01*
X46935Y-47728D01*
X46963Y-47756D01*
X46978Y-47785D01*
X46992Y-47842D01*
X46992Y-47885D01*
X46978Y-47942D01*
X46963Y-47971D01*
X46935Y-47999D01*
X46892Y-48013D01*
X46820Y-48013D01*
X59840Y-45824D02*
X59540Y-45824D01*
X59540Y-45752D01*
X59555Y-45709D01*
X59583Y-45681D01*
X59612Y-45666D01*
X59669Y-45652D01*
X59712Y-45652D01*
X59769Y-45666D01*
X59798Y-45681D01*
X59826Y-45709D01*
X59840Y-45752D01*
X59840Y-45824D01*
X59540Y-45381D02*
X59540Y-45524D01*
X59683Y-45538D01*
X59669Y-45524D01*
X59655Y-45495D01*
X59655Y-45424D01*
X59669Y-45395D01*
X59683Y-45381D01*
X59712Y-45366D01*
X59783Y-45366D01*
X59812Y-45381D01*
X59826Y-45395D01*
X59840Y-45424D01*
X59840Y-45495D01*
X59826Y-45524D01*
X59812Y-45538D01*
X59040Y-45795D02*
X59040Y-45938D01*
X58740Y-45938D01*
X58883Y-45695D02*
X58883Y-45595D01*
X59040Y-45552D02*
X59040Y-45695D01*
X58740Y-45695D01*
X58740Y-45552D01*
X59040Y-45424D02*
X58740Y-45424D01*
X58740Y-45352D01*
X58755Y-45309D01*
X58783Y-45281D01*
X58812Y-45266D01*
X58869Y-45252D01*
X58912Y-45252D01*
X58969Y-45266D01*
X58998Y-45281D01*
X59026Y-45309D01*
X59040Y-45352D01*
X59040Y-45424D01*
G54D24*
X49893Y-44221D02*
X49884Y-44234D01*
X49858Y-44247D01*
X49841Y-44247D01*
X49816Y-44234D01*
X49798Y-44207D01*
X49790Y-44181D01*
X49781Y-44127D01*
X49781Y-44087D01*
X49790Y-44034D01*
X49798Y-44007D01*
X49816Y-43981D01*
X49841Y-43967D01*
X49858Y-43967D01*
X49884Y-43981D01*
X49893Y-43994D01*
X49961Y-43994D02*
X49970Y-43981D01*
X49987Y-43967D01*
X50030Y-43967D01*
X50047Y-43981D01*
X50056Y-43994D01*
X50064Y-44021D01*
X50064Y-44047D01*
X50056Y-44087D01*
X49953Y-44247D01*
X50064Y-44247D01*
X50167Y-44087D02*
X50149Y-44074D01*
X50141Y-44061D01*
X50132Y-44034D01*
X50132Y-44021D01*
X50141Y-43994D01*
X50149Y-43981D01*
X50167Y-43967D01*
X50201Y-43967D01*
X50218Y-43981D01*
X50227Y-43994D01*
X50235Y-44021D01*
X50235Y-44034D01*
X50227Y-44061D01*
X50218Y-44074D01*
X50201Y-44087D01*
X50167Y-44087D01*
X50149Y-44101D01*
X50141Y-44114D01*
X50132Y-44141D01*
X50132Y-44194D01*
X50141Y-44221D01*
X50149Y-44234D01*
X50167Y-44247D01*
X50201Y-44247D01*
X50218Y-44234D01*
X50227Y-44221D01*
X50235Y-44194D01*
X50235Y-44141D01*
X50227Y-44114D01*
X50218Y-44101D01*
X50201Y-44087D01*
G54D12*
X48755Y-41348D02*
X48355Y-41348D01*
X48355Y-41195D01*
X48374Y-41157D01*
X48393Y-41138D01*
X48431Y-41119D01*
X48488Y-41119D01*
X48526Y-41138D01*
X48545Y-41157D01*
X48564Y-41195D01*
X48564Y-41348D01*
X48755Y-40738D02*
X48755Y-40967D01*
X48755Y-40853D02*
X48355Y-40853D01*
X48412Y-40891D01*
X48450Y-40929D01*
X48469Y-40967D01*
X46117Y-42281D02*
X46136Y-42300D01*
X46155Y-42357D01*
X46155Y-42395D01*
X46136Y-42453D01*
X46098Y-42491D01*
X46060Y-42510D01*
X45983Y-42529D01*
X45926Y-42529D01*
X45850Y-42510D01*
X45812Y-42491D01*
X45774Y-42453D01*
X45755Y-42395D01*
X45755Y-42357D01*
X45774Y-42300D01*
X45793Y-42281D01*
X45755Y-42034D02*
X45755Y-41957D01*
X45774Y-41919D01*
X45812Y-41881D01*
X45888Y-41862D01*
X46022Y-41862D01*
X46098Y-41881D01*
X46136Y-41919D01*
X46155Y-41957D01*
X46155Y-42034D01*
X46136Y-42072D01*
X46098Y-42110D01*
X46022Y-42129D01*
X45888Y-42129D01*
X45812Y-42110D01*
X45774Y-42072D01*
X45755Y-42034D01*
X46155Y-41691D02*
X45755Y-41691D01*
X46155Y-41462D01*
X45755Y-41462D01*
X46155Y-41272D02*
X45755Y-41272D01*
X46155Y-41043D01*
X45755Y-41043D01*
X46193Y-40948D02*
X46193Y-40643D01*
X45926Y-40491D02*
X45907Y-40529D01*
X45888Y-40548D01*
X45850Y-40567D01*
X45831Y-40567D01*
X45793Y-40548D01*
X45774Y-40529D01*
X45755Y-40491D01*
X45755Y-40414D01*
X45774Y-40376D01*
X45793Y-40357D01*
X45831Y-40338D01*
X45850Y-40338D01*
X45888Y-40357D01*
X45907Y-40376D01*
X45926Y-40414D01*
X45926Y-40491D01*
X45945Y-40529D01*
X45964Y-40548D01*
X46003Y-40567D01*
X46079Y-40567D01*
X46117Y-40548D01*
X46136Y-40529D01*
X46155Y-40491D01*
X46155Y-40414D01*
X46136Y-40376D01*
X46117Y-40357D01*
X46079Y-40338D01*
X46003Y-40338D01*
X45964Y-40357D01*
X45945Y-40376D01*
X45926Y-40414D01*
X45755Y-40205D02*
X46155Y-39938D01*
X45755Y-39938D02*
X46155Y-40205D01*
X45793Y-39805D02*
X45774Y-39786D01*
X45755Y-39748D01*
X45755Y-39652D01*
X45774Y-39614D01*
X45793Y-39595D01*
X45831Y-39576D01*
X45869Y-39576D01*
X45926Y-39595D01*
X46155Y-39824D01*
X46155Y-39576D01*
G54D18*
X67813Y-42592D02*
X67413Y-42592D01*
X67413Y-42439D01*
X67432Y-42401D01*
X67451Y-42382D01*
X67489Y-42363D01*
X67546Y-42363D01*
X67584Y-42382D01*
X67603Y-42401D01*
X67622Y-42439D01*
X67622Y-42592D01*
X67451Y-42211D02*
X67432Y-42192D01*
X67413Y-42154D01*
X67413Y-42058D01*
X67432Y-42020D01*
X67451Y-42001D01*
X67489Y-41982D01*
X67527Y-41982D01*
X67584Y-42001D01*
X67813Y-42230D01*
X67813Y-41982D01*
G54D12*
X64775Y-43716D02*
X64794Y-43735D01*
X64813Y-43792D01*
X64813Y-43830D01*
X64794Y-43888D01*
X64756Y-43926D01*
X64718Y-43945D01*
X64641Y-43964D01*
X64584Y-43964D01*
X64508Y-43945D01*
X64470Y-43926D01*
X64432Y-43888D01*
X64413Y-43830D01*
X64413Y-43792D01*
X64432Y-43735D01*
X64451Y-43716D01*
X64413Y-43469D02*
X64413Y-43392D01*
X64432Y-43354D01*
X64470Y-43316D01*
X64546Y-43297D01*
X64680Y-43297D01*
X64756Y-43316D01*
X64794Y-43354D01*
X64813Y-43392D01*
X64813Y-43469D01*
X64794Y-43507D01*
X64756Y-43545D01*
X64680Y-43564D01*
X64546Y-43564D01*
X64470Y-43545D01*
X64432Y-43507D01*
X64413Y-43469D01*
X64813Y-43126D02*
X64413Y-43126D01*
X64813Y-42897D01*
X64413Y-42897D01*
X64813Y-42707D02*
X64413Y-42707D01*
X64813Y-42478D01*
X64413Y-42478D01*
X64851Y-42383D02*
X64851Y-42078D01*
X64813Y-41773D02*
X64813Y-42002D01*
X64813Y-41888D02*
X64413Y-41888D01*
X64470Y-41926D01*
X64508Y-41964D01*
X64527Y-42002D01*
X64451Y-41621D02*
X64432Y-41602D01*
X64413Y-41564D01*
X64413Y-41468D01*
X64432Y-41430D01*
X64451Y-41411D01*
X64489Y-41392D01*
X64527Y-41392D01*
X64584Y-41411D01*
X64813Y-41640D01*
X64813Y-41392D01*
X64413Y-41259D02*
X64813Y-40992D01*
X64413Y-40992D02*
X64813Y-41259D01*
X64451Y-40859D02*
X64432Y-40840D01*
X64413Y-40802D01*
X64413Y-40706D01*
X64432Y-40668D01*
X64451Y-40649D01*
X64489Y-40630D01*
X64527Y-40630D01*
X64584Y-40649D01*
X64813Y-40878D01*
X64813Y-40630D01*
G54D24*
X62039Y-40908D02*
X61979Y-40775D01*
X61936Y-40908D02*
X61936Y-40628D01*
X62004Y-40628D01*
X62022Y-40642D01*
X62030Y-40655D01*
X62039Y-40682D01*
X62039Y-40722D01*
X62030Y-40748D01*
X62022Y-40762D01*
X62004Y-40775D01*
X61936Y-40775D01*
X62107Y-40655D02*
X62116Y-40642D01*
X62133Y-40628D01*
X62176Y-40628D01*
X62193Y-40642D01*
X62202Y-40655D01*
X62210Y-40682D01*
X62210Y-40708D01*
X62202Y-40748D01*
X62099Y-40908D01*
X62210Y-40908D01*
X62270Y-40628D02*
X62390Y-40628D01*
X62313Y-40908D01*
G54D22*
X59085Y-50348D02*
X59092Y-50326D01*
X59092Y-50288D01*
X59085Y-50273D01*
X59077Y-50266D01*
X59062Y-50258D01*
X59047Y-50258D01*
X59032Y-50266D01*
X59025Y-50273D01*
X59017Y-50288D01*
X59010Y-50318D01*
X59002Y-50333D01*
X58995Y-50341D01*
X58980Y-50348D01*
X58965Y-50348D01*
X58950Y-50341D01*
X58943Y-50333D01*
X58935Y-50318D01*
X58935Y-50281D01*
X58943Y-50258D01*
X58935Y-50206D02*
X59092Y-50168D01*
X58980Y-50138D01*
X59092Y-50108D01*
X58935Y-50071D01*
X59092Y-49929D02*
X59092Y-50019D01*
X59092Y-49974D02*
X58935Y-49974D01*
X58957Y-49989D01*
X58972Y-50004D01*
X58980Y-50019D01*
X50550Y-50348D02*
X50557Y-50326D01*
X50557Y-50288D01*
X50550Y-50273D01*
X50542Y-50266D01*
X50527Y-50258D01*
X50512Y-50258D01*
X50497Y-50266D01*
X50490Y-50273D01*
X50482Y-50288D01*
X50475Y-50318D01*
X50467Y-50333D01*
X50460Y-50341D01*
X50445Y-50348D01*
X50430Y-50348D01*
X50415Y-50341D01*
X50408Y-50333D01*
X50400Y-50318D01*
X50400Y-50281D01*
X50408Y-50258D01*
X50400Y-50206D02*
X50557Y-50168D01*
X50445Y-50138D01*
X50557Y-50108D01*
X50400Y-50071D01*
X50400Y-50027D02*
X50400Y-49929D01*
X50460Y-49982D01*
X50460Y-49959D01*
X50467Y-49944D01*
X50475Y-49937D01*
X50490Y-49929D01*
X50527Y-49929D01*
X50542Y-49937D01*
X50550Y-49944D01*
X50557Y-49959D01*
X50557Y-50004D01*
X50550Y-50019D01*
X50542Y-50027D01*
G54D17*
X50301Y-46688D02*
X50287Y-46702D01*
X50244Y-46716D01*
X50215Y-46716D01*
X50172Y-46702D01*
X50144Y-46674D01*
X50129Y-46645D01*
X50115Y-46588D01*
X50115Y-46545D01*
X50129Y-46488D01*
X50144Y-46459D01*
X50172Y-46431D01*
X50215Y-46416D01*
X50244Y-46416D01*
X50287Y-46431D01*
X50301Y-46445D01*
X50558Y-46516D02*
X50558Y-46716D01*
X50487Y-46402D02*
X50415Y-46616D01*
X50601Y-46616D01*
X50773Y-46416D02*
X50801Y-46416D01*
X50830Y-46431D01*
X50844Y-46445D01*
X50858Y-46474D01*
X50873Y-46531D01*
X50873Y-46602D01*
X50858Y-46659D01*
X50844Y-46688D01*
X50830Y-46702D01*
X50801Y-46716D01*
X50773Y-46716D01*
X50744Y-46702D01*
X50730Y-46688D01*
X50715Y-46659D01*
X50701Y-46602D01*
X50701Y-46531D01*
X50715Y-46474D01*
X50730Y-46445D01*
X50744Y-46431D01*
X50773Y-46416D01*
X52601Y-47188D02*
X52587Y-47202D01*
X52544Y-47216D01*
X52515Y-47216D01*
X52472Y-47202D01*
X52444Y-47174D01*
X52429Y-47145D01*
X52415Y-47088D01*
X52415Y-47045D01*
X52429Y-46988D01*
X52444Y-46959D01*
X52472Y-46931D01*
X52515Y-46916D01*
X52544Y-46916D01*
X52587Y-46931D01*
X52601Y-46945D01*
X52858Y-47016D02*
X52858Y-47216D01*
X52787Y-46902D02*
X52715Y-47116D01*
X52901Y-47116D01*
X53058Y-47045D02*
X53030Y-47031D01*
X53015Y-47016D01*
X53001Y-46988D01*
X53001Y-46974D01*
X53015Y-46945D01*
X53030Y-46931D01*
X53058Y-46916D01*
X53115Y-46916D01*
X53144Y-46931D01*
X53158Y-46945D01*
X53173Y-46974D01*
X53173Y-46988D01*
X53158Y-47016D01*
X53144Y-47031D01*
X53115Y-47045D01*
X53058Y-47045D01*
X53030Y-47059D01*
X53015Y-47074D01*
X53001Y-47102D01*
X53001Y-47159D01*
X53015Y-47188D01*
X53030Y-47202D01*
X53058Y-47216D01*
X53115Y-47216D01*
X53144Y-47202D01*
X53158Y-47188D01*
X53173Y-47159D01*
X53173Y-47102D01*
X53158Y-47074D01*
X53144Y-47059D01*
X53115Y-47045D01*
X48426Y-45638D02*
X48412Y-45652D01*
X48369Y-45666D01*
X48340Y-45666D01*
X48297Y-45652D01*
X48269Y-45624D01*
X48254Y-45595D01*
X48240Y-45538D01*
X48240Y-45495D01*
X48254Y-45438D01*
X48269Y-45409D01*
X48297Y-45381D01*
X48340Y-45366D01*
X48369Y-45366D01*
X48412Y-45381D01*
X48426Y-45395D01*
X48526Y-45366D02*
X48712Y-45366D01*
X48612Y-45481D01*
X48654Y-45481D01*
X48683Y-45495D01*
X48697Y-45509D01*
X48712Y-45538D01*
X48712Y-45609D01*
X48697Y-45638D01*
X48683Y-45652D01*
X48654Y-45666D01*
X48569Y-45666D01*
X48540Y-45652D01*
X48526Y-45638D01*
X48983Y-45366D02*
X48840Y-45366D01*
X48826Y-45509D01*
X48840Y-45495D01*
X48869Y-45481D01*
X48940Y-45481D01*
X48969Y-45495D01*
X48983Y-45509D01*
X48998Y-45538D01*
X48998Y-45609D01*
X48983Y-45638D01*
X48969Y-45652D01*
X48940Y-45666D01*
X48869Y-45666D01*
X48840Y-45652D01*
X48826Y-45638D01*
X58902Y-44191D02*
X58916Y-44205D01*
X58930Y-44248D01*
X58930Y-44277D01*
X58916Y-44320D01*
X58888Y-44348D01*
X58859Y-44363D01*
X58802Y-44377D01*
X58759Y-44377D01*
X58702Y-44363D01*
X58673Y-44348D01*
X58645Y-44320D01*
X58630Y-44277D01*
X58630Y-44248D01*
X58645Y-44205D01*
X58659Y-44191D01*
X58630Y-44091D02*
X58630Y-43905D01*
X58745Y-44005D01*
X58745Y-43963D01*
X58759Y-43934D01*
X58773Y-43920D01*
X58802Y-43905D01*
X58873Y-43905D01*
X58902Y-43920D01*
X58916Y-43934D01*
X58930Y-43963D01*
X58930Y-44048D01*
X58916Y-44077D01*
X58902Y-44091D01*
X58930Y-43762D02*
X58930Y-43705D01*
X58916Y-43677D01*
X58902Y-43662D01*
X58859Y-43634D01*
X58802Y-43619D01*
X58688Y-43619D01*
X58659Y-43634D01*
X58645Y-43648D01*
X58630Y-43677D01*
X58630Y-43734D01*
X58645Y-43762D01*
X58659Y-43777D01*
X58688Y-43791D01*
X58759Y-43791D01*
X58788Y-43777D01*
X58802Y-43762D01*
X58816Y-43734D01*
X58816Y-43677D01*
X58802Y-43648D01*
X58788Y-43634D01*
X58759Y-43619D01*
G54D24*
X56406Y-45635D02*
X56419Y-45644D01*
X56432Y-45670D01*
X56432Y-45687D01*
X56419Y-45712D01*
X56392Y-45730D01*
X56366Y-45738D01*
X56312Y-45747D01*
X56272Y-45747D01*
X56219Y-45738D01*
X56192Y-45730D01*
X56166Y-45712D01*
X56152Y-45687D01*
X56152Y-45670D01*
X56166Y-45644D01*
X56179Y-45635D01*
X56179Y-45567D02*
X56166Y-45558D01*
X56152Y-45541D01*
X56152Y-45498D01*
X56166Y-45481D01*
X56179Y-45472D01*
X56206Y-45464D01*
X56232Y-45464D01*
X56272Y-45472D01*
X56432Y-45575D01*
X56432Y-45464D01*
X56152Y-45404D02*
X56152Y-45293D01*
X56259Y-45353D01*
X56259Y-45327D01*
X56272Y-45310D01*
X56286Y-45301D01*
X56312Y-45293D01*
X56379Y-45293D01*
X56406Y-45301D01*
X56419Y-45310D01*
X56432Y-45327D01*
X56432Y-45379D01*
X56419Y-45396D01*
X56406Y-45404D01*
X54481Y-45635D02*
X54494Y-45644D01*
X54507Y-45670D01*
X54507Y-45687D01*
X54494Y-45712D01*
X54467Y-45730D01*
X54441Y-45738D01*
X54387Y-45747D01*
X54347Y-45747D01*
X54294Y-45738D01*
X54267Y-45730D01*
X54241Y-45712D01*
X54227Y-45687D01*
X54227Y-45670D01*
X54241Y-45644D01*
X54254Y-45635D01*
X54254Y-45567D02*
X54241Y-45558D01*
X54227Y-45541D01*
X54227Y-45498D01*
X54241Y-45481D01*
X54254Y-45472D01*
X54281Y-45464D01*
X54307Y-45464D01*
X54347Y-45472D01*
X54507Y-45575D01*
X54507Y-45464D01*
X54507Y-45379D02*
X54507Y-45344D01*
X54494Y-45327D01*
X54481Y-45319D01*
X54441Y-45301D01*
X54387Y-45293D01*
X54281Y-45293D01*
X54254Y-45301D01*
X54241Y-45310D01*
X54227Y-45327D01*
X54227Y-45361D01*
X54241Y-45379D01*
X54254Y-45387D01*
X54281Y-45396D01*
X54347Y-45396D01*
X54374Y-45387D01*
X54387Y-45379D01*
X54401Y-45361D01*
X54401Y-45327D01*
X54387Y-45310D01*
X54374Y-45301D01*
X54347Y-45293D01*
X53231Y-45635D02*
X53244Y-45644D01*
X53257Y-45670D01*
X53257Y-45687D01*
X53244Y-45712D01*
X53217Y-45730D01*
X53191Y-45738D01*
X53137Y-45747D01*
X53097Y-45747D01*
X53044Y-45738D01*
X53017Y-45730D01*
X52991Y-45712D01*
X52977Y-45687D01*
X52977Y-45670D01*
X52991Y-45644D01*
X53004Y-45635D01*
X52977Y-45575D02*
X52977Y-45464D01*
X53084Y-45524D01*
X53084Y-45498D01*
X53097Y-45481D01*
X53111Y-45472D01*
X53137Y-45464D01*
X53204Y-45464D01*
X53231Y-45472D01*
X53244Y-45481D01*
X53257Y-45498D01*
X53257Y-45550D01*
X53244Y-45567D01*
X53231Y-45575D01*
X53004Y-45396D02*
X52991Y-45387D01*
X52977Y-45370D01*
X52977Y-45327D01*
X52991Y-45310D01*
X53004Y-45301D01*
X53031Y-45293D01*
X53057Y-45293D01*
X53097Y-45301D01*
X53257Y-45404D01*
X53257Y-45293D01*
X52804Y-46382D02*
X52795Y-46395D01*
X52769Y-46408D01*
X52752Y-46408D01*
X52727Y-46395D01*
X52709Y-46368D01*
X52701Y-46342D01*
X52692Y-46288D01*
X52692Y-46248D01*
X52701Y-46195D01*
X52709Y-46168D01*
X52727Y-46142D01*
X52752Y-46128D01*
X52769Y-46128D01*
X52795Y-46142D01*
X52804Y-46155D01*
X52864Y-46128D02*
X52975Y-46128D01*
X52915Y-46235D01*
X52941Y-46235D01*
X52958Y-46248D01*
X52967Y-46262D01*
X52975Y-46288D01*
X52975Y-46355D01*
X52967Y-46382D01*
X52958Y-46395D01*
X52941Y-46408D01*
X52889Y-46408D01*
X52872Y-46395D01*
X52864Y-46382D01*
X53129Y-46222D02*
X53129Y-46408D01*
X53086Y-46115D02*
X53043Y-46315D01*
X53155Y-46315D01*
X52632Y-45524D02*
X52499Y-45584D01*
X52632Y-45627D02*
X52352Y-45627D01*
X52352Y-45559D01*
X52366Y-45541D01*
X52379Y-45533D01*
X52406Y-45524D01*
X52446Y-45524D01*
X52472Y-45533D01*
X52486Y-45541D01*
X52499Y-45559D01*
X52499Y-45627D01*
X52632Y-45353D02*
X52632Y-45456D01*
X52632Y-45404D02*
X52352Y-45404D01*
X52392Y-45421D01*
X52419Y-45439D01*
X52432Y-45456D01*
X50082Y-45574D02*
X49949Y-45634D01*
X50082Y-45677D02*
X49802Y-45677D01*
X49802Y-45609D01*
X49816Y-45591D01*
X49829Y-45583D01*
X49856Y-45574D01*
X49896Y-45574D01*
X49922Y-45583D01*
X49936Y-45591D01*
X49949Y-45609D01*
X49949Y-45677D01*
X49829Y-45506D02*
X49816Y-45497D01*
X49802Y-45480D01*
X49802Y-45437D01*
X49816Y-45420D01*
X49829Y-45411D01*
X49856Y-45403D01*
X49882Y-45403D01*
X49922Y-45411D01*
X50082Y-45514D01*
X50082Y-45403D01*
X51331Y-45660D02*
X51344Y-45669D01*
X51357Y-45695D01*
X51357Y-45712D01*
X51344Y-45737D01*
X51317Y-45755D01*
X51291Y-45763D01*
X51237Y-45772D01*
X51197Y-45772D01*
X51144Y-45763D01*
X51117Y-45755D01*
X51091Y-45737D01*
X51077Y-45712D01*
X51077Y-45695D01*
X51091Y-45669D01*
X51104Y-45660D01*
X51171Y-45506D02*
X51357Y-45506D01*
X51064Y-45549D02*
X51264Y-45592D01*
X51264Y-45480D01*
X51357Y-45318D02*
X51357Y-45421D01*
X51357Y-45369D02*
X51077Y-45369D01*
X51117Y-45386D01*
X51144Y-45404D01*
X51157Y-45421D01*
X53856Y-45635D02*
X53869Y-45644D01*
X53882Y-45670D01*
X53882Y-45687D01*
X53869Y-45712D01*
X53842Y-45730D01*
X53816Y-45738D01*
X53762Y-45747D01*
X53722Y-45747D01*
X53669Y-45738D01*
X53642Y-45730D01*
X53616Y-45712D01*
X53602Y-45687D01*
X53602Y-45670D01*
X53616Y-45644D01*
X53629Y-45635D01*
X53696Y-45481D02*
X53882Y-45481D01*
X53589Y-45524D02*
X53789Y-45567D01*
X53789Y-45455D01*
X53602Y-45404D02*
X53602Y-45293D01*
X53709Y-45353D01*
X53709Y-45327D01*
X53722Y-45310D01*
X53736Y-45301D01*
X53762Y-45293D01*
X53829Y-45293D01*
X53856Y-45301D01*
X53869Y-45310D01*
X53882Y-45327D01*
X53882Y-45379D01*
X53869Y-45396D01*
X53856Y-45404D01*
X50706Y-45660D02*
X50719Y-45669D01*
X50732Y-45695D01*
X50732Y-45712D01*
X50719Y-45737D01*
X50692Y-45755D01*
X50666Y-45763D01*
X50612Y-45772D01*
X50572Y-45772D01*
X50519Y-45763D01*
X50492Y-45755D01*
X50466Y-45737D01*
X50452Y-45712D01*
X50452Y-45695D01*
X50466Y-45669D01*
X50479Y-45660D01*
X50546Y-45506D02*
X50732Y-45506D01*
X50439Y-45549D02*
X50639Y-45592D01*
X50639Y-45480D01*
X50452Y-45326D02*
X50452Y-45412D01*
X50586Y-45421D01*
X50572Y-45412D01*
X50559Y-45395D01*
X50559Y-45352D01*
X50572Y-45335D01*
X50586Y-45326D01*
X50612Y-45318D01*
X50679Y-45318D01*
X50706Y-45326D01*
X50719Y-45335D01*
X50732Y-45352D01*
X50732Y-45395D01*
X50719Y-45412D01*
X50706Y-45421D01*
X52007Y-45499D02*
X51874Y-45559D01*
X52007Y-45602D02*
X51727Y-45602D01*
X51727Y-45534D01*
X51741Y-45516D01*
X51754Y-45508D01*
X51781Y-45499D01*
X51821Y-45499D01*
X51847Y-45508D01*
X51861Y-45516D01*
X51874Y-45534D01*
X51874Y-45602D01*
X51727Y-45439D02*
X51727Y-45328D01*
X51834Y-45388D01*
X51834Y-45362D01*
X51847Y-45345D01*
X51861Y-45336D01*
X51887Y-45328D01*
X51954Y-45328D01*
X51981Y-45336D01*
X51994Y-45345D01*
X52007Y-45362D01*
X52007Y-45414D01*
X51994Y-45431D01*
X51981Y-45439D01*
X49928Y-42146D02*
X49919Y-42159D01*
X49893Y-42172D01*
X49876Y-42172D01*
X49851Y-42159D01*
X49833Y-42132D01*
X49825Y-42106D01*
X49816Y-42052D01*
X49816Y-42012D01*
X49825Y-41959D01*
X49833Y-41932D01*
X49851Y-41906D01*
X49876Y-41892D01*
X49893Y-41892D01*
X49919Y-41906D01*
X49928Y-41919D01*
X49996Y-41919D02*
X50005Y-41906D01*
X50022Y-41892D01*
X50065Y-41892D01*
X50082Y-41906D01*
X50091Y-41919D01*
X50099Y-41946D01*
X50099Y-41972D01*
X50091Y-42012D01*
X49988Y-42172D01*
X50099Y-42172D01*
X50253Y-41986D02*
X50253Y-42172D01*
X50210Y-41879D02*
X50167Y-42079D01*
X50279Y-42079D01*
X55131Y-45635D02*
X55144Y-45644D01*
X55157Y-45670D01*
X55157Y-45687D01*
X55144Y-45712D01*
X55117Y-45730D01*
X55091Y-45738D01*
X55037Y-45747D01*
X54997Y-45747D01*
X54944Y-45738D01*
X54917Y-45730D01*
X54891Y-45712D01*
X54877Y-45687D01*
X54877Y-45670D01*
X54891Y-45644D01*
X54904Y-45635D01*
X54877Y-45575D02*
X54877Y-45464D01*
X54984Y-45524D01*
X54984Y-45498D01*
X54997Y-45481D01*
X55011Y-45472D01*
X55037Y-45464D01*
X55104Y-45464D01*
X55131Y-45472D01*
X55144Y-45481D01*
X55157Y-45498D01*
X55157Y-45550D01*
X55144Y-45567D01*
X55131Y-45575D01*
X55157Y-45293D02*
X55157Y-45396D01*
X55157Y-45344D02*
X54877Y-45344D01*
X54917Y-45361D01*
X54944Y-45379D01*
X54957Y-45396D01*
X49956Y-44839D02*
X49947Y-44852D01*
X49921Y-44865D01*
X49904Y-44865D01*
X49879Y-44852D01*
X49861Y-44825D01*
X49853Y-44799D01*
X49844Y-44745D01*
X49844Y-44705D01*
X49853Y-44652D01*
X49861Y-44625D01*
X49879Y-44599D01*
X49904Y-44585D01*
X49921Y-44585D01*
X49947Y-44599D01*
X49956Y-44612D01*
X50016Y-44585D02*
X50127Y-44585D01*
X50067Y-44692D01*
X50093Y-44692D01*
X50110Y-44705D01*
X50119Y-44719D01*
X50127Y-44745D01*
X50127Y-44812D01*
X50119Y-44839D01*
X50110Y-44852D01*
X50093Y-44865D01*
X50041Y-44865D01*
X50024Y-44852D01*
X50016Y-44839D01*
X50238Y-44585D02*
X50255Y-44585D01*
X50272Y-44599D01*
X50281Y-44612D01*
X50290Y-44639D01*
X50298Y-44692D01*
X50298Y-44759D01*
X50290Y-44812D01*
X50281Y-44839D01*
X50272Y-44852D01*
X50255Y-44865D01*
X50238Y-44865D01*
X50221Y-44852D01*
X50212Y-44839D01*
X50204Y-44812D01*
X50195Y-44759D01*
X50195Y-44692D01*
X50204Y-44639D01*
X50212Y-44612D01*
X50221Y-44599D01*
X50238Y-44585D01*
X60947Y-44093D02*
X60960Y-44102D01*
X60973Y-44128D01*
X60973Y-44145D01*
X60960Y-44170D01*
X60933Y-44188D01*
X60907Y-44196D01*
X60853Y-44205D01*
X60813Y-44205D01*
X60760Y-44196D01*
X60733Y-44188D01*
X60707Y-44170D01*
X60693Y-44145D01*
X60693Y-44128D01*
X60707Y-44102D01*
X60720Y-44093D01*
X60693Y-44033D02*
X60693Y-43922D01*
X60800Y-43982D01*
X60800Y-43956D01*
X60813Y-43939D01*
X60827Y-43930D01*
X60853Y-43922D01*
X60920Y-43922D01*
X60947Y-43930D01*
X60960Y-43939D01*
X60973Y-43956D01*
X60973Y-44008D01*
X60960Y-44025D01*
X60947Y-44033D01*
X60693Y-43768D02*
X60693Y-43802D01*
X60707Y-43819D01*
X60720Y-43828D01*
X60760Y-43845D01*
X60813Y-43854D01*
X60920Y-43854D01*
X60947Y-43845D01*
X60960Y-43837D01*
X60973Y-43819D01*
X60973Y-43785D01*
X60960Y-43768D01*
X60947Y-43759D01*
X60920Y-43751D01*
X60853Y-43751D01*
X60827Y-43759D01*
X60813Y-43768D01*
X60800Y-43785D01*
X60800Y-43819D01*
X60813Y-43837D01*
X60827Y-43845D01*
X60853Y-43854D01*
X60321Y-44132D02*
X60334Y-44141D01*
X60347Y-44167D01*
X60347Y-44184D01*
X60334Y-44209D01*
X60307Y-44227D01*
X60281Y-44235D01*
X60227Y-44244D01*
X60187Y-44244D01*
X60134Y-44235D01*
X60107Y-44227D01*
X60081Y-44209D01*
X60067Y-44184D01*
X60067Y-44167D01*
X60081Y-44141D01*
X60094Y-44132D01*
X60067Y-44072D02*
X60067Y-43961D01*
X60174Y-44021D01*
X60174Y-43995D01*
X60187Y-43978D01*
X60201Y-43969D01*
X60227Y-43961D01*
X60294Y-43961D01*
X60321Y-43969D01*
X60334Y-43978D01*
X60347Y-43995D01*
X60347Y-44047D01*
X60334Y-44064D01*
X60321Y-44072D01*
X60067Y-43901D02*
X60067Y-43781D01*
X60347Y-43858D01*
X49972Y-43363D02*
X49963Y-43376D01*
X49937Y-43389D01*
X49920Y-43389D01*
X49895Y-43376D01*
X49877Y-43349D01*
X49869Y-43323D01*
X49860Y-43269D01*
X49860Y-43229D01*
X49869Y-43176D01*
X49877Y-43149D01*
X49895Y-43123D01*
X49920Y-43109D01*
X49937Y-43109D01*
X49963Y-43123D01*
X49972Y-43136D01*
X50032Y-43109D02*
X50143Y-43109D01*
X50083Y-43216D01*
X50109Y-43216D01*
X50126Y-43229D01*
X50135Y-43243D01*
X50143Y-43269D01*
X50143Y-43336D01*
X50135Y-43363D01*
X50126Y-43376D01*
X50109Y-43389D01*
X50057Y-43389D01*
X50040Y-43376D01*
X50032Y-43363D01*
X50246Y-43229D02*
X50228Y-43216D01*
X50220Y-43203D01*
X50211Y-43176D01*
X50211Y-43163D01*
X50220Y-43136D01*
X50228Y-43123D01*
X50246Y-43109D01*
X50280Y-43109D01*
X50297Y-43123D01*
X50306Y-43136D01*
X50314Y-43163D01*
X50314Y-43176D01*
X50306Y-43203D01*
X50297Y-43216D01*
X50280Y-43229D01*
X50246Y-43229D01*
X50228Y-43243D01*
X50220Y-43256D01*
X50211Y-43283D01*
X50211Y-43336D01*
X50220Y-43363D01*
X50228Y-43376D01*
X50246Y-43389D01*
X50280Y-43389D01*
X50297Y-43376D01*
X50306Y-43363D01*
X50314Y-43336D01*
X50314Y-43283D01*
X50306Y-43256D01*
X50297Y-43243D01*
X50280Y-43229D01*
X55239Y-36799D02*
X55230Y-36812D01*
X55204Y-36825D01*
X55187Y-36825D01*
X55162Y-36812D01*
X55144Y-36785D01*
X55136Y-36759D01*
X55127Y-36705D01*
X55127Y-36665D01*
X55136Y-36612D01*
X55144Y-36585D01*
X55162Y-36559D01*
X55187Y-36545D01*
X55204Y-36545D01*
X55230Y-36559D01*
X55239Y-36572D01*
X55393Y-36639D02*
X55393Y-36825D01*
X55350Y-36532D02*
X55307Y-36732D01*
X55419Y-36732D01*
X55564Y-36545D02*
X55530Y-36545D01*
X55513Y-36559D01*
X55504Y-36572D01*
X55487Y-36612D01*
X55478Y-36665D01*
X55478Y-36772D01*
X55487Y-36799D01*
X55495Y-36812D01*
X55513Y-36825D01*
X55547Y-36825D01*
X55564Y-36812D01*
X55573Y-36799D01*
X55581Y-36772D01*
X55581Y-36705D01*
X55573Y-36679D01*
X55564Y-36665D01*
X55547Y-36652D01*
X55513Y-36652D01*
X55495Y-36665D01*
X55487Y-36679D01*
X55478Y-36705D01*
X49940Y-42768D02*
X49931Y-42781D01*
X49905Y-42794D01*
X49888Y-42794D01*
X49863Y-42781D01*
X49845Y-42754D01*
X49837Y-42728D01*
X49828Y-42674D01*
X49828Y-42634D01*
X49837Y-42581D01*
X49845Y-42554D01*
X49863Y-42528D01*
X49888Y-42514D01*
X49905Y-42514D01*
X49931Y-42528D01*
X49940Y-42541D01*
X50094Y-42608D02*
X50094Y-42794D01*
X50051Y-42501D02*
X50008Y-42701D01*
X50120Y-42701D01*
X50196Y-42794D02*
X50231Y-42794D01*
X50248Y-42781D01*
X50256Y-42768D01*
X50274Y-42728D01*
X50282Y-42674D01*
X50282Y-42568D01*
X50274Y-42541D01*
X50265Y-42528D01*
X50248Y-42514D01*
X50214Y-42514D01*
X50196Y-42528D01*
X50188Y-42541D01*
X50179Y-42568D01*
X50179Y-42634D01*
X50188Y-42661D01*
X50196Y-42674D01*
X50214Y-42688D01*
X50248Y-42688D01*
X50265Y-42674D01*
X50274Y-42661D01*
X50282Y-42634D01*
X59707Y-44156D02*
X59720Y-44165D01*
X59733Y-44191D01*
X59733Y-44208D01*
X59720Y-44233D01*
X59693Y-44251D01*
X59667Y-44259D01*
X59613Y-44268D01*
X59573Y-44268D01*
X59520Y-44259D01*
X59493Y-44251D01*
X59467Y-44233D01*
X59453Y-44208D01*
X59453Y-44191D01*
X59467Y-44165D01*
X59480Y-44156D01*
X59453Y-43993D02*
X59453Y-44079D01*
X59587Y-44088D01*
X59573Y-44079D01*
X59560Y-44062D01*
X59560Y-44019D01*
X59573Y-44002D01*
X59587Y-43993D01*
X59613Y-43985D01*
X59680Y-43985D01*
X59707Y-43993D01*
X59720Y-44002D01*
X59733Y-44019D01*
X59733Y-44062D01*
X59720Y-44079D01*
X59707Y-44088D01*
X59453Y-43831D02*
X59453Y-43865D01*
X59467Y-43882D01*
X59480Y-43891D01*
X59520Y-43908D01*
X59573Y-43917D01*
X59680Y-43917D01*
X59707Y-43908D01*
X59720Y-43900D01*
X59733Y-43882D01*
X59733Y-43848D01*
X59720Y-43831D01*
X59707Y-43822D01*
X59680Y-43814D01*
X59613Y-43814D01*
X59587Y-43822D01*
X59573Y-43831D01*
X59560Y-43848D01*
X59560Y-43882D01*
X59573Y-43900D01*
X59587Y-43908D01*
X59613Y-43917D01*
X58906Y-47873D02*
X58773Y-47933D01*
X58906Y-47976D02*
X58626Y-47976D01*
X58626Y-47908D01*
X58640Y-47890D01*
X58653Y-47882D01*
X58680Y-47873D01*
X58720Y-47873D01*
X58746Y-47882D01*
X58760Y-47890D01*
X58773Y-47908D01*
X58773Y-47976D01*
X58653Y-47805D02*
X58640Y-47796D01*
X58626Y-47779D01*
X58626Y-47736D01*
X58640Y-47719D01*
X58653Y-47710D01*
X58680Y-47702D01*
X58706Y-47702D01*
X58746Y-47710D01*
X58906Y-47813D01*
X58906Y-47702D01*
X58906Y-47531D02*
X58906Y-47634D01*
X58906Y-47582D02*
X58626Y-47582D01*
X58666Y-47599D01*
X58693Y-47617D01*
X58706Y-47634D01*
X62916Y-44784D02*
X62783Y-44844D01*
X62916Y-44887D02*
X62636Y-44887D01*
X62636Y-44819D01*
X62650Y-44801D01*
X62663Y-44793D01*
X62690Y-44784D01*
X62730Y-44784D01*
X62756Y-44793D01*
X62770Y-44801D01*
X62783Y-44819D01*
X62783Y-44887D01*
X62663Y-44716D02*
X62650Y-44707D01*
X62636Y-44690D01*
X62636Y-44647D01*
X62650Y-44630D01*
X62663Y-44621D01*
X62690Y-44613D01*
X62716Y-44613D01*
X62756Y-44621D01*
X62916Y-44724D01*
X62916Y-44613D01*
X62636Y-44502D02*
X62636Y-44485D01*
X62650Y-44468D01*
X62663Y-44459D01*
X62690Y-44450D01*
X62743Y-44442D01*
X62810Y-44442D01*
X62863Y-44450D01*
X62890Y-44459D01*
X62903Y-44468D01*
X62916Y-44485D01*
X62916Y-44502D01*
X62903Y-44519D01*
X62890Y-44528D01*
X62863Y-44536D01*
X62810Y-44545D01*
X62743Y-44545D01*
X62690Y-44536D01*
X62663Y-44528D01*
X62650Y-44519D01*
X62636Y-44502D01*
X64361Y-45463D02*
X64301Y-45330D01*
X64258Y-45463D02*
X64258Y-45183D01*
X64326Y-45183D01*
X64344Y-45197D01*
X64352Y-45210D01*
X64361Y-45237D01*
X64361Y-45277D01*
X64352Y-45303D01*
X64344Y-45317D01*
X64326Y-45330D01*
X64258Y-45330D01*
X64532Y-45463D02*
X64429Y-45463D01*
X64481Y-45463D02*
X64481Y-45183D01*
X64464Y-45223D01*
X64446Y-45250D01*
X64429Y-45263D01*
X64617Y-45463D02*
X64652Y-45463D01*
X64669Y-45450D01*
X64677Y-45437D01*
X64695Y-45397D01*
X64703Y-45343D01*
X64703Y-45237D01*
X64695Y-45210D01*
X64686Y-45197D01*
X64669Y-45183D01*
X64635Y-45183D01*
X64617Y-45197D01*
X64609Y-45210D01*
X64600Y-45237D01*
X64600Y-45303D01*
X64609Y-45330D01*
X64617Y-45343D01*
X64635Y-45357D01*
X64669Y-45357D01*
X64686Y-45343D01*
X64695Y-45330D01*
X64703Y-45303D01*
X61700Y-44796D02*
X61567Y-44856D01*
X61700Y-44899D02*
X61420Y-44899D01*
X61420Y-44831D01*
X61434Y-44813D01*
X61447Y-44805D01*
X61474Y-44796D01*
X61514Y-44796D01*
X61540Y-44805D01*
X61554Y-44813D01*
X61567Y-44831D01*
X61567Y-44899D01*
X61700Y-44625D02*
X61700Y-44728D01*
X61700Y-44676D02*
X61420Y-44676D01*
X61460Y-44693D01*
X61487Y-44711D01*
X61500Y-44728D01*
X61540Y-44522D02*
X61527Y-44540D01*
X61514Y-44548D01*
X61487Y-44557D01*
X61474Y-44557D01*
X61447Y-44548D01*
X61434Y-44540D01*
X61420Y-44522D01*
X61420Y-44488D01*
X61434Y-44471D01*
X61447Y-44462D01*
X61474Y-44454D01*
X61487Y-44454D01*
X61514Y-44462D01*
X61527Y-44471D01*
X61540Y-44488D01*
X61540Y-44522D01*
X61554Y-44540D01*
X61567Y-44548D01*
X61594Y-44557D01*
X61647Y-44557D01*
X61674Y-44548D01*
X61687Y-44540D01*
X61700Y-44522D01*
X61700Y-44488D01*
X61687Y-44471D01*
X61674Y-44462D01*
X61647Y-44454D01*
X61594Y-44454D01*
X61567Y-44462D01*
X61554Y-44471D01*
X61540Y-44488D01*
X64046Y-45084D02*
X63913Y-45144D01*
X64046Y-45187D02*
X63766Y-45187D01*
X63766Y-45119D01*
X63780Y-45101D01*
X63793Y-45093D01*
X63820Y-45084D01*
X63860Y-45084D01*
X63886Y-45093D01*
X63900Y-45101D01*
X63913Y-45119D01*
X63913Y-45187D01*
X64046Y-44913D02*
X64046Y-45016D01*
X64046Y-44964D02*
X63766Y-44964D01*
X63806Y-44981D01*
X63833Y-44999D01*
X63846Y-45016D01*
X63860Y-44759D02*
X64046Y-44759D01*
X63753Y-44802D02*
X63953Y-44845D01*
X63953Y-44733D01*
X61050Y-44867D02*
X60917Y-44927D01*
X61050Y-44970D02*
X60770Y-44970D01*
X60770Y-44902D01*
X60784Y-44884D01*
X60797Y-44876D01*
X60824Y-44867D01*
X60864Y-44867D01*
X60890Y-44876D01*
X60904Y-44884D01*
X60917Y-44902D01*
X60917Y-44970D01*
X61050Y-44696D02*
X61050Y-44799D01*
X61050Y-44747D02*
X60770Y-44747D01*
X60810Y-44764D01*
X60837Y-44782D01*
X60850Y-44799D01*
X61050Y-44525D02*
X61050Y-44628D01*
X61050Y-44576D02*
X60770Y-44576D01*
X60810Y-44593D01*
X60837Y-44611D01*
X60850Y-44628D01*
X60382Y-45585D02*
X60249Y-45645D01*
X60382Y-45688D02*
X60102Y-45688D01*
X60102Y-45620D01*
X60116Y-45602D01*
X60129Y-45594D01*
X60156Y-45585D01*
X60196Y-45585D01*
X60222Y-45594D01*
X60236Y-45602D01*
X60249Y-45620D01*
X60249Y-45688D01*
X60382Y-45414D02*
X60382Y-45517D01*
X60382Y-45465D02*
X60102Y-45465D01*
X60142Y-45482D01*
X60169Y-45500D01*
X60182Y-45517D01*
X60129Y-45346D02*
X60116Y-45337D01*
X60102Y-45320D01*
X60102Y-45277D01*
X60116Y-45260D01*
X60129Y-45251D01*
X60156Y-45243D01*
X60182Y-45243D01*
X60222Y-45251D01*
X60382Y-45354D01*
X60382Y-45243D01*
X62377Y-44776D02*
X62244Y-44836D01*
X62377Y-44879D02*
X62097Y-44879D01*
X62097Y-44811D01*
X62111Y-44793D01*
X62124Y-44785D01*
X62151Y-44776D01*
X62191Y-44776D01*
X62217Y-44785D01*
X62231Y-44793D01*
X62244Y-44811D01*
X62244Y-44879D01*
X62377Y-44605D02*
X62377Y-44708D01*
X62377Y-44656D02*
X62097Y-44656D01*
X62137Y-44673D01*
X62164Y-44691D01*
X62177Y-44708D01*
X62097Y-44442D02*
X62097Y-44528D01*
X62231Y-44537D01*
X62217Y-44528D01*
X62204Y-44511D01*
X62204Y-44468D01*
X62217Y-44451D01*
X62231Y-44442D01*
X62257Y-44434D01*
X62324Y-44434D01*
X62351Y-44442D01*
X62364Y-44451D01*
X62377Y-44468D01*
X62377Y-44511D01*
X62364Y-44528D01*
X62351Y-44537D01*
X55390Y-47566D02*
X55257Y-47626D01*
X55390Y-47669D02*
X55110Y-47669D01*
X55110Y-47601D01*
X55124Y-47583D01*
X55137Y-47575D01*
X55164Y-47566D01*
X55204Y-47566D01*
X55230Y-47575D01*
X55244Y-47583D01*
X55257Y-47601D01*
X55257Y-47669D01*
X55390Y-47395D02*
X55390Y-47498D01*
X55390Y-47446D02*
X55110Y-47446D01*
X55150Y-47463D01*
X55177Y-47481D01*
X55190Y-47498D01*
X55110Y-47335D02*
X55110Y-47224D01*
X55217Y-47284D01*
X55217Y-47258D01*
X55230Y-47241D01*
X55244Y-47232D01*
X55270Y-47224D01*
X55337Y-47224D01*
X55364Y-47232D01*
X55377Y-47241D01*
X55390Y-47258D01*
X55390Y-47310D01*
X55377Y-47327D01*
X55364Y-47335D01*
X54316Y-47245D02*
X54256Y-47112D01*
X54213Y-47245D02*
X54213Y-46965D01*
X54281Y-46965D01*
X54299Y-46979D01*
X54307Y-46992D01*
X54316Y-47019D01*
X54316Y-47059D01*
X54307Y-47085D01*
X54299Y-47099D01*
X54281Y-47112D01*
X54213Y-47112D01*
X54487Y-47245D02*
X54384Y-47245D01*
X54436Y-47245D02*
X54436Y-46965D01*
X54419Y-47005D01*
X54401Y-47032D01*
X54384Y-47045D01*
X54641Y-46965D02*
X54607Y-46965D01*
X54590Y-46979D01*
X54581Y-46992D01*
X54564Y-47032D01*
X54555Y-47085D01*
X54555Y-47192D01*
X54564Y-47219D01*
X54572Y-47232D01*
X54590Y-47245D01*
X54624Y-47245D01*
X54641Y-47232D01*
X54650Y-47219D01*
X54658Y-47192D01*
X54658Y-47125D01*
X54650Y-47099D01*
X54641Y-47085D01*
X54624Y-47072D01*
X54590Y-47072D01*
X54572Y-47085D01*
X54564Y-47099D01*
X54555Y-47125D01*
X54331Y-47825D02*
X54322Y-47838D01*
X54296Y-47851D01*
X54279Y-47851D01*
X54254Y-47838D01*
X54236Y-47811D01*
X54228Y-47785D01*
X54219Y-47731D01*
X54219Y-47691D01*
X54228Y-47638D01*
X54236Y-47611D01*
X54254Y-47585D01*
X54279Y-47571D01*
X54296Y-47571D01*
X54322Y-47585D01*
X54331Y-47598D01*
X54485Y-47571D02*
X54451Y-47571D01*
X54434Y-47585D01*
X54425Y-47598D01*
X54408Y-47638D01*
X54399Y-47691D01*
X54399Y-47798D01*
X54408Y-47825D01*
X54416Y-47838D01*
X54434Y-47851D01*
X54468Y-47851D01*
X54485Y-47838D01*
X54494Y-47825D01*
X54502Y-47798D01*
X54502Y-47731D01*
X54494Y-47705D01*
X54485Y-47691D01*
X54468Y-47678D01*
X54434Y-47678D01*
X54416Y-47691D01*
X54408Y-47705D01*
X54399Y-47731D01*
X54613Y-47571D02*
X54630Y-47571D01*
X54647Y-47585D01*
X54656Y-47598D01*
X54665Y-47625D01*
X54673Y-47678D01*
X54673Y-47745D01*
X54665Y-47798D01*
X54656Y-47825D01*
X54647Y-47838D01*
X54630Y-47851D01*
X54613Y-47851D01*
X54596Y-47838D01*
X54587Y-47825D01*
X54579Y-47798D01*
X54570Y-47745D01*
X54570Y-47678D01*
X54579Y-47625D01*
X54587Y-47598D01*
X54596Y-47585D01*
X54613Y-47571D01*
X58225Y-47822D02*
X58092Y-47882D01*
X58225Y-47925D02*
X57945Y-47925D01*
X57945Y-47857D01*
X57959Y-47839D01*
X57972Y-47831D01*
X57999Y-47822D01*
X58039Y-47822D01*
X58065Y-47831D01*
X58079Y-47839D01*
X58092Y-47857D01*
X58092Y-47925D01*
X57945Y-47668D02*
X57945Y-47702D01*
X57959Y-47719D01*
X57972Y-47728D01*
X58012Y-47745D01*
X58065Y-47754D01*
X58172Y-47754D01*
X58199Y-47745D01*
X58212Y-47737D01*
X58225Y-47719D01*
X58225Y-47685D01*
X58212Y-47668D01*
X58199Y-47659D01*
X58172Y-47651D01*
X58105Y-47651D01*
X58079Y-47659D01*
X58065Y-47668D01*
X58052Y-47685D01*
X58052Y-47719D01*
X58065Y-47737D01*
X58079Y-47745D01*
X58105Y-47754D01*
X55781Y-45635D02*
X55794Y-45644D01*
X55807Y-45670D01*
X55807Y-45687D01*
X55794Y-45712D01*
X55767Y-45730D01*
X55741Y-45738D01*
X55687Y-45747D01*
X55647Y-45747D01*
X55594Y-45738D01*
X55567Y-45730D01*
X55541Y-45712D01*
X55527Y-45687D01*
X55527Y-45670D01*
X55541Y-45644D01*
X55554Y-45635D01*
X55554Y-45567D02*
X55541Y-45558D01*
X55527Y-45541D01*
X55527Y-45498D01*
X55541Y-45481D01*
X55554Y-45472D01*
X55581Y-45464D01*
X55607Y-45464D01*
X55647Y-45472D01*
X55807Y-45575D01*
X55807Y-45464D01*
X55527Y-45310D02*
X55527Y-45344D01*
X55541Y-45361D01*
X55554Y-45370D01*
X55594Y-45387D01*
X55647Y-45396D01*
X55754Y-45396D01*
X55781Y-45387D01*
X55794Y-45379D01*
X55807Y-45361D01*
X55807Y-45327D01*
X55794Y-45310D01*
X55781Y-45301D01*
X55754Y-45293D01*
X55687Y-45293D01*
X55661Y-45301D01*
X55647Y-45310D01*
X55634Y-45327D01*
X55634Y-45361D01*
X55647Y-45379D01*
X55661Y-45387D01*
X55687Y-45396D01*
X57025Y-46247D02*
X57038Y-46256D01*
X57051Y-46282D01*
X57051Y-46299D01*
X57038Y-46324D01*
X57011Y-46342D01*
X56985Y-46350D01*
X56931Y-46359D01*
X56891Y-46359D01*
X56838Y-46350D01*
X56811Y-46342D01*
X56785Y-46324D01*
X56771Y-46299D01*
X56771Y-46282D01*
X56785Y-46256D01*
X56798Y-46247D01*
X56771Y-46084D02*
X56771Y-46170D01*
X56905Y-46179D01*
X56891Y-46170D01*
X56878Y-46153D01*
X56878Y-46110D01*
X56891Y-46093D01*
X56905Y-46084D01*
X56931Y-46076D01*
X56998Y-46076D01*
X57025Y-46084D01*
X57038Y-46093D01*
X57051Y-46110D01*
X57051Y-46153D01*
X57038Y-46170D01*
X57025Y-46179D01*
X56771Y-46016D02*
X56771Y-45905D01*
X56878Y-45965D01*
X56878Y-45939D01*
X56891Y-45922D01*
X56905Y-45913D01*
X56931Y-45905D01*
X56998Y-45905D01*
X57025Y-45913D01*
X57038Y-45922D01*
X57051Y-45939D01*
X57051Y-45991D01*
X57038Y-46008D01*
X57025Y-46016D01*
X54504Y-46582D02*
X54495Y-46595D01*
X54469Y-46608D01*
X54452Y-46608D01*
X54427Y-46595D01*
X54409Y-46568D01*
X54401Y-46542D01*
X54392Y-46488D01*
X54392Y-46448D01*
X54401Y-46395D01*
X54409Y-46368D01*
X54427Y-46342D01*
X54452Y-46328D01*
X54469Y-46328D01*
X54495Y-46342D01*
X54504Y-46355D01*
X54667Y-46328D02*
X54581Y-46328D01*
X54572Y-46462D01*
X54581Y-46448D01*
X54598Y-46435D01*
X54641Y-46435D01*
X54658Y-46448D01*
X54667Y-46462D01*
X54675Y-46488D01*
X54675Y-46555D01*
X54667Y-46582D01*
X54658Y-46595D01*
X54641Y-46608D01*
X54598Y-46608D01*
X54581Y-46595D01*
X54572Y-46582D01*
X54743Y-46355D02*
X54752Y-46342D01*
X54769Y-46328D01*
X54812Y-46328D01*
X54829Y-46342D01*
X54838Y-46355D01*
X54846Y-46382D01*
X54846Y-46408D01*
X54838Y-46448D01*
X54735Y-46608D01*
X54846Y-46608D01*
G54D12*
X61902Y-48532D02*
X61902Y-48132D01*
X62055Y-48132D01*
X62093Y-48151D01*
X62112Y-48170D01*
X62131Y-48208D01*
X62131Y-48265D01*
X62112Y-48303D01*
X62093Y-48322D01*
X62055Y-48341D01*
X61902Y-48341D01*
X62264Y-48132D02*
X62512Y-48132D01*
X62378Y-48284D01*
X62436Y-48284D01*
X62474Y-48303D01*
X62493Y-48322D01*
X62512Y-48360D01*
X62512Y-48456D01*
X62493Y-48494D01*
X62474Y-48513D01*
X62436Y-48532D01*
X62321Y-48532D01*
X62283Y-48513D01*
X62264Y-48494D01*
X64941Y-48693D02*
X64941Y-48293D01*
X65094Y-48293D01*
X65132Y-48312D01*
X65151Y-48331D01*
X65170Y-48369D01*
X65170Y-48426D01*
X65151Y-48464D01*
X65132Y-48483D01*
X65094Y-48502D01*
X64941Y-48502D01*
X65532Y-48293D02*
X65341Y-48293D01*
X65322Y-48483D01*
X65341Y-48464D01*
X65379Y-48445D01*
X65475Y-48445D01*
X65513Y-48464D01*
X65532Y-48483D01*
X65551Y-48521D01*
X65551Y-48617D01*
X65532Y-48655D01*
X65513Y-48674D01*
X65475Y-48693D01*
X65379Y-48693D01*
X65341Y-48674D01*
X65322Y-48655D01*
G54D10*
X49432Y-47466D02*
X49447Y-47423D01*
X49461Y-47408D01*
X49489Y-47394D01*
X49532Y-47394D01*
X49561Y-47408D01*
X49575Y-47423D01*
X49589Y-47451D01*
X49589Y-47566D01*
X49289Y-47566D01*
X49289Y-47466D01*
X49304Y-47437D01*
X49318Y-47423D01*
X49347Y-47408D01*
X49375Y-47408D01*
X49404Y-47423D01*
X49418Y-47437D01*
X49432Y-47466D01*
X49432Y-47566D01*
X49289Y-47308D02*
X49289Y-47137D01*
X49589Y-47223D02*
X49289Y-47223D01*
X49589Y-46879D02*
X49589Y-47051D01*
X49589Y-46965D02*
X49289Y-46965D01*
X49332Y-46994D01*
X49361Y-47022D01*
X49375Y-47051D01*
G54D23*
X55256Y-48028D02*
X55209Y-48004D01*
X55161Y-47957D01*
X55090Y-47885D01*
X55042Y-47861D01*
X54994Y-47861D01*
X55018Y-47980D02*
X54971Y-47957D01*
X54923Y-47909D01*
X54899Y-47814D01*
X54899Y-47647D01*
X54923Y-47552D01*
X54971Y-47504D01*
X55018Y-47480D01*
X55114Y-47480D01*
X55161Y-47504D01*
X55209Y-47552D01*
X55233Y-47647D01*
X55233Y-47814D01*
X55209Y-47909D01*
X55161Y-47957D01*
X55114Y-47980D01*
X55018Y-47980D01*
X55709Y-47980D02*
X55423Y-47980D01*
X55566Y-47980D02*
X55566Y-47480D01*
X55518Y-47552D01*
X55471Y-47599D01*
X55423Y-47623D01*
X53210Y-46348D02*
X53210Y-45848D01*
X53377Y-46206D01*
X53543Y-45848D01*
X53543Y-46348D01*
X53781Y-46348D02*
X53781Y-45848D01*
X53948Y-46206D01*
X54114Y-45848D01*
X54114Y-46348D01*
X54352Y-46348D02*
X54352Y-45848D01*
X54471Y-45848D01*
X54543Y-45872D01*
X54590Y-45920D01*
X54614Y-45967D01*
X54638Y-46063D01*
X54638Y-46134D01*
X54614Y-46229D01*
X54590Y-46277D01*
X54543Y-46325D01*
X54471Y-46348D01*
X54352Y-46348D01*
X54781Y-45848D02*
X55066Y-45848D01*
X54923Y-46348D02*
X54923Y-45848D01*
X55185Y-45848D02*
X55495Y-45848D01*
X55328Y-46039D01*
X55400Y-46039D01*
X55447Y-46063D01*
X55471Y-46086D01*
X55495Y-46134D01*
X55495Y-46253D01*
X55471Y-46301D01*
X55447Y-46325D01*
X55400Y-46348D01*
X55257Y-46348D01*
X55209Y-46325D01*
X55185Y-46301D01*
X55733Y-46348D02*
X55828Y-46348D01*
X55876Y-46325D01*
X55900Y-46301D01*
X55947Y-46229D01*
X55971Y-46134D01*
X55971Y-45944D01*
X55947Y-45896D01*
X55923Y-45872D01*
X55876Y-45848D01*
X55780Y-45848D01*
X55733Y-45872D01*
X55709Y-45896D01*
X55685Y-45944D01*
X55685Y-46063D01*
X55709Y-46110D01*
X55733Y-46134D01*
X55780Y-46158D01*
X55876Y-46158D01*
X55923Y-46134D01*
X55947Y-46110D01*
X55971Y-46063D01*
X56280Y-45848D02*
X56328Y-45848D01*
X56376Y-45872D01*
X56399Y-45896D01*
X56423Y-45944D01*
X56447Y-46039D01*
X56447Y-46158D01*
X56423Y-46253D01*
X56399Y-46301D01*
X56376Y-46325D01*
X56328Y-46348D01*
X56280Y-46348D01*
X56233Y-46325D01*
X56209Y-46301D01*
X56185Y-46253D01*
X56161Y-46158D01*
X56161Y-46039D01*
X56185Y-45944D01*
X56209Y-45896D01*
X56233Y-45872D01*
X56280Y-45848D01*
X56875Y-46015D02*
X56875Y-46348D01*
X56756Y-45825D02*
X56637Y-46182D01*
X56947Y-46182D01*
M02*
