G04 (created by PCBNEW-RS274X (2011-01-25 BZR 2758)-stable) date Mon 25 Apr 2011 03:55:26 PM COT*
G01*
G70*
G90*
%MOIN*%
G04 Gerber Fmt 3.4, Leading zero omitted, Abs format*
%FSLAX34Y34*%
G04 APERTURE LIST*
%ADD10C,0.006000*%
%ADD11C,0.004500*%
%ADD12C,0.007900*%
%ADD13C,0.000100*%
%ADD14C,0.005000*%
%ADD15C,0.005900*%
%ADD16C,0.003900*%
%ADD17C,0.003500*%
%ADD18C,0.004900*%
G04 APERTURE END LIST*
G54D10*
G54D11*
X52407Y-42251D02*
X52270Y-42251D01*
X52339Y-42357D02*
X52339Y-42144D01*
X60196Y-32267D02*
X60299Y-32267D01*
X60247Y-32267D02*
X60247Y-31987D01*
X60264Y-32027D01*
X60282Y-32054D01*
X60299Y-32067D01*
X56873Y-45022D02*
X56976Y-45022D01*
X56924Y-45022D02*
X56924Y-44742D01*
X56941Y-44782D01*
X56959Y-44809D01*
X56976Y-44822D01*
G54D12*
X52035Y-42868D02*
X53488Y-42864D01*
X53499Y-42844D02*
X53499Y-42368D01*
X53499Y-42368D02*
X52039Y-42372D01*
X52039Y-42372D02*
X52039Y-42832D01*
X57063Y-46838D02*
X59063Y-46834D01*
X59063Y-46815D02*
X59063Y-45240D01*
X59063Y-45240D02*
X57055Y-45240D01*
X57055Y-45240D02*
X57055Y-46819D01*
G54D13*
X57311Y-45453D02*
X57309Y-45463D01*
X57306Y-45473D01*
X57301Y-45483D01*
X57295Y-45491D01*
X57286Y-45498D01*
X57277Y-45503D01*
X57267Y-45506D01*
X57256Y-45507D01*
X57246Y-45507D01*
X57236Y-45503D01*
X57226Y-45499D01*
X57218Y-45492D01*
X57211Y-45484D01*
X57206Y-45474D01*
X57203Y-45464D01*
X57202Y-45453D01*
X57202Y-45444D01*
X57205Y-45433D01*
X57210Y-45424D01*
X57217Y-45415D01*
X57225Y-45408D01*
X57234Y-45403D01*
X57245Y-45400D01*
X57255Y-45399D01*
X57265Y-45399D01*
X57275Y-45402D01*
X57285Y-45407D01*
X57293Y-45414D01*
X57300Y-45422D01*
X57306Y-45431D01*
X57309Y-45441D01*
X57310Y-45452D01*
X57311Y-45453D01*
G54D12*
X60537Y-35426D02*
X60537Y-32926D01*
X60533Y-32950D02*
X62632Y-32946D01*
X60561Y-35438D02*
X62632Y-35438D01*
X62632Y-35438D02*
X62632Y-32946D01*
G54D14*
X56387Y-46259D02*
X56387Y-46077D01*
X56387Y-46585D02*
X56387Y-46765D01*
X56177Y-46265D02*
X56601Y-46265D01*
X56187Y-46585D02*
X56603Y-46585D01*
X56231Y-46511D02*
X56539Y-46511D01*
X56231Y-46509D02*
X56231Y-46347D01*
X56231Y-46347D02*
X56541Y-46347D01*
X56541Y-46347D02*
X56541Y-46503D01*
X56072Y-45777D02*
X56702Y-45777D01*
X56072Y-45777D02*
X56072Y-47096D01*
X56702Y-45777D02*
X56702Y-47096D01*
G54D15*
X60858Y-42244D02*
X61409Y-42244D01*
X60857Y-41456D02*
X61410Y-41456D01*
X61134Y-42204D02*
X61134Y-41496D01*
X60855Y-43136D02*
X61406Y-43136D01*
X60854Y-42348D02*
X61407Y-42348D01*
X61131Y-43096D02*
X61131Y-42388D01*
X59431Y-40396D02*
X59431Y-39845D01*
X58643Y-40397D02*
X58643Y-39844D01*
X59391Y-40120D02*
X58683Y-40120D01*
G54D16*
X57472Y-39501D02*
X57470Y-39512D01*
X57467Y-39523D01*
X57462Y-39533D01*
X57454Y-39542D01*
X57445Y-39549D01*
X57435Y-39555D01*
X57424Y-39558D01*
X57413Y-39559D01*
X57402Y-39558D01*
X57391Y-39555D01*
X57381Y-39550D01*
X57372Y-39543D01*
X57365Y-39534D01*
X57359Y-39524D01*
X57356Y-39513D01*
X57355Y-39501D01*
X57355Y-39491D01*
X57359Y-39480D01*
X57364Y-39470D01*
X57371Y-39461D01*
X57380Y-39453D01*
X57390Y-39447D01*
X57401Y-39444D01*
X57412Y-39443D01*
X57423Y-39443D01*
X57434Y-39446D01*
X57444Y-39452D01*
X57453Y-39459D01*
X57461Y-39467D01*
X57466Y-39478D01*
X57470Y-39488D01*
X57471Y-39500D01*
X57472Y-39501D01*
X48969Y-35652D02*
X48969Y-39588D01*
X48969Y-39588D02*
X57669Y-39588D01*
X57669Y-39588D02*
X57669Y-35652D01*
X57669Y-35652D02*
X48969Y-35652D01*
G54D14*
X54986Y-45201D02*
X54985Y-45210D01*
X54982Y-45220D01*
X54977Y-45228D01*
X54971Y-45236D01*
X54963Y-45242D01*
X54955Y-45247D01*
X54946Y-45249D01*
X54936Y-45250D01*
X54927Y-45250D01*
X54918Y-45247D01*
X54909Y-45242D01*
X54902Y-45236D01*
X54895Y-45229D01*
X54891Y-45220D01*
X54888Y-45211D01*
X54887Y-45201D01*
X54887Y-45192D01*
X54890Y-45183D01*
X54894Y-45174D01*
X54901Y-45167D01*
X54908Y-45160D01*
X54916Y-45156D01*
X54926Y-45153D01*
X54935Y-45152D01*
X54944Y-45152D01*
X54954Y-45155D01*
X54962Y-45159D01*
X54970Y-45165D01*
X54976Y-45173D01*
X54981Y-45181D01*
X54984Y-45190D01*
X54985Y-45200D01*
X54986Y-45201D01*
X54936Y-44751D02*
X54936Y-45151D01*
X54936Y-45151D02*
X55536Y-45151D01*
X55536Y-45151D02*
X55536Y-44751D01*
X55536Y-44351D02*
X55536Y-43951D01*
X55536Y-43951D02*
X54936Y-43951D01*
X54936Y-43951D02*
X54936Y-44351D01*
X60444Y-41262D02*
X61344Y-41262D01*
X61344Y-41262D02*
X61344Y-40762D01*
X61344Y-40762D02*
X60444Y-40762D01*
X60444Y-40762D02*
X60444Y-41262D01*
X57293Y-44148D02*
X56393Y-44148D01*
X56393Y-44148D02*
X56393Y-44648D01*
X56393Y-44648D02*
X57293Y-44648D01*
X57293Y-44648D02*
X57293Y-44148D01*
X58278Y-44640D02*
X59178Y-44640D01*
X59178Y-44640D02*
X59178Y-44140D01*
X59178Y-44140D02*
X58278Y-44140D01*
X58278Y-44140D02*
X58278Y-44640D01*
X59318Y-45081D02*
X60218Y-45081D01*
X60218Y-45081D02*
X60218Y-44581D01*
X60218Y-44581D02*
X59318Y-44581D01*
X59318Y-44581D02*
X59318Y-45081D01*
X57022Y-47978D02*
X57922Y-47978D01*
X57922Y-47978D02*
X57922Y-47478D01*
X57922Y-47478D02*
X57022Y-47478D01*
X57022Y-47478D02*
X57022Y-47978D01*
X58231Y-47967D02*
X59131Y-47967D01*
X59131Y-47967D02*
X59131Y-47467D01*
X59131Y-47467D02*
X58231Y-47467D01*
X58231Y-47467D02*
X58231Y-47967D01*
X51348Y-40117D02*
X51348Y-41017D01*
X51348Y-41017D02*
X51848Y-41017D01*
X51848Y-41017D02*
X51848Y-40117D01*
X51848Y-40117D02*
X51348Y-40117D01*
X59537Y-33753D02*
X59537Y-32853D01*
X59537Y-32853D02*
X59037Y-32853D01*
X59037Y-32853D02*
X59037Y-33753D01*
X59037Y-33753D02*
X59537Y-33753D01*
X63296Y-37077D02*
X62396Y-37077D01*
X62396Y-37077D02*
X62396Y-37577D01*
X62396Y-37577D02*
X63296Y-37577D01*
X63296Y-37577D02*
X63296Y-37077D01*
X59675Y-41768D02*
X59675Y-42668D01*
X59675Y-42668D02*
X59025Y-42668D01*
X58325Y-41768D02*
X57675Y-41768D01*
X57675Y-41768D02*
X57675Y-42668D01*
X57675Y-42668D02*
X58325Y-42668D01*
X59025Y-41768D02*
X59675Y-41768D01*
X51544Y-44720D02*
X51543Y-44729D01*
X51540Y-44739D01*
X51535Y-44747D01*
X51529Y-44755D01*
X51521Y-44761D01*
X51513Y-44766D01*
X51504Y-44768D01*
X51494Y-44769D01*
X51485Y-44769D01*
X51476Y-44766D01*
X51467Y-44761D01*
X51460Y-44755D01*
X51453Y-44748D01*
X51449Y-44739D01*
X51446Y-44730D01*
X51445Y-44720D01*
X51445Y-44711D01*
X51448Y-44702D01*
X51452Y-44693D01*
X51459Y-44686D01*
X51466Y-44679D01*
X51474Y-44675D01*
X51484Y-44672D01*
X51493Y-44671D01*
X51502Y-44671D01*
X51512Y-44674D01*
X51520Y-44678D01*
X51528Y-44684D01*
X51534Y-44692D01*
X51539Y-44700D01*
X51542Y-44709D01*
X51543Y-44719D01*
X51544Y-44720D01*
X51944Y-44720D02*
X51544Y-44720D01*
X51544Y-44720D02*
X51544Y-45320D01*
X51544Y-45320D02*
X51944Y-45320D01*
X52344Y-45320D02*
X52744Y-45320D01*
X52744Y-45320D02*
X52744Y-44720D01*
X52744Y-44720D02*
X52344Y-44720D01*
X51713Y-34964D02*
X52613Y-34964D01*
X52613Y-34964D02*
X52613Y-34464D01*
X52613Y-34464D02*
X51713Y-34464D01*
X51713Y-34464D02*
X51713Y-34964D01*
X51270Y-34515D02*
X50370Y-34515D01*
X50370Y-34515D02*
X50370Y-35015D01*
X50370Y-35015D02*
X51270Y-35015D01*
X51270Y-35015D02*
X51270Y-34515D01*
X54429Y-34271D02*
X55329Y-34271D01*
X55329Y-34271D02*
X55329Y-33771D01*
X55329Y-33771D02*
X54429Y-33771D01*
X54429Y-33771D02*
X54429Y-34271D01*
X54294Y-33771D02*
X53394Y-33771D01*
X53394Y-33771D02*
X53394Y-34271D01*
X53394Y-34271D02*
X54294Y-34271D01*
X54294Y-34271D02*
X54294Y-33771D01*
X54449Y-33590D02*
X55349Y-33590D01*
X55349Y-33590D02*
X55349Y-33090D01*
X55349Y-33090D02*
X54449Y-33090D01*
X54449Y-33090D02*
X54449Y-33590D01*
X54294Y-34472D02*
X53394Y-34472D01*
X53394Y-34472D02*
X53394Y-34972D01*
X53394Y-34972D02*
X54294Y-34972D01*
X54294Y-34972D02*
X54294Y-34472D01*
X55094Y-40091D02*
X55094Y-40991D01*
X55094Y-40991D02*
X55594Y-40991D01*
X55594Y-40991D02*
X55594Y-40091D01*
X55594Y-40091D02*
X55094Y-40091D01*
X53594Y-40120D02*
X53594Y-41020D01*
X53594Y-41020D02*
X54094Y-41020D01*
X54094Y-41020D02*
X54094Y-40120D01*
X54094Y-40120D02*
X53594Y-40120D01*
X52862Y-40146D02*
X52862Y-41046D01*
X52862Y-41046D02*
X53362Y-41046D01*
X53362Y-41046D02*
X53362Y-40146D01*
X53362Y-40146D02*
X52862Y-40146D01*
X56995Y-40094D02*
X56095Y-40094D01*
X56095Y-40094D02*
X56095Y-40594D01*
X56095Y-40594D02*
X56995Y-40594D01*
X56995Y-40594D02*
X56995Y-40094D01*
X56747Y-40708D02*
X55847Y-40708D01*
X55847Y-40708D02*
X55847Y-41208D01*
X55847Y-41208D02*
X56747Y-41208D01*
X56747Y-41208D02*
X56747Y-40708D01*
X50719Y-40515D02*
X50719Y-41415D01*
X50719Y-41415D02*
X51219Y-41415D01*
X51219Y-41415D02*
X51219Y-40515D01*
X51219Y-40515D02*
X50719Y-40515D01*
X54473Y-34964D02*
X55373Y-34964D01*
X55373Y-34964D02*
X55373Y-34464D01*
X55373Y-34464D02*
X54473Y-34464D01*
X54473Y-34464D02*
X54473Y-34964D01*
X55534Y-35136D02*
X56434Y-35136D01*
X56434Y-35136D02*
X56434Y-34636D01*
X56434Y-34636D02*
X55534Y-34636D01*
X55534Y-34636D02*
X55534Y-35136D01*
X59602Y-35178D02*
X59602Y-36078D01*
X59602Y-36078D02*
X60102Y-36078D01*
X60102Y-36078D02*
X60102Y-35178D01*
X60102Y-35178D02*
X59602Y-35178D01*
X56735Y-41472D02*
X55835Y-41472D01*
X55835Y-41472D02*
X55835Y-41972D01*
X55835Y-41972D02*
X56735Y-41972D01*
X56735Y-41972D02*
X56735Y-41472D01*
X54219Y-42820D02*
X54219Y-41920D01*
X54219Y-41920D02*
X53719Y-41920D01*
X53719Y-41920D02*
X53719Y-42820D01*
X53719Y-42820D02*
X54219Y-42820D01*
X57791Y-39729D02*
X57791Y-40629D01*
X57791Y-40629D02*
X58291Y-40629D01*
X58291Y-40629D02*
X58291Y-39729D01*
X58291Y-39729D02*
X57791Y-39729D01*
X58668Y-42771D02*
X57768Y-42771D01*
X57768Y-42771D02*
X57768Y-43271D01*
X57768Y-43271D02*
X58668Y-43271D01*
X58668Y-43271D02*
X58668Y-42771D01*
X58311Y-37861D02*
X58311Y-36961D01*
X58311Y-36961D02*
X57811Y-36961D01*
X57811Y-36961D02*
X57811Y-37861D01*
X57811Y-37861D02*
X58311Y-37861D01*
X58259Y-39554D02*
X58259Y-38654D01*
X58259Y-38654D02*
X57759Y-38654D01*
X57759Y-38654D02*
X57759Y-39554D01*
X57759Y-39554D02*
X58259Y-39554D01*
X55791Y-43873D02*
X55791Y-42973D01*
X55791Y-42973D02*
X55291Y-42973D01*
X55291Y-42973D02*
X55291Y-43873D01*
X55291Y-43873D02*
X55791Y-43873D01*
X50419Y-43920D02*
X51319Y-43920D01*
X51319Y-43920D02*
X51319Y-43420D01*
X51319Y-43420D02*
X50419Y-43420D01*
X50419Y-43420D02*
X50419Y-43920D01*
X64939Y-47029D02*
X64939Y-46129D01*
X64939Y-46129D02*
X64439Y-46129D01*
X64439Y-46129D02*
X64439Y-47029D01*
X64439Y-47029D02*
X64939Y-47029D01*
X58831Y-41665D02*
X59731Y-41665D01*
X59731Y-41665D02*
X59731Y-41165D01*
X59731Y-41165D02*
X58831Y-41165D01*
X58831Y-41165D02*
X58831Y-41665D01*
X59817Y-45991D02*
X59817Y-46891D01*
X59817Y-46891D02*
X60317Y-46891D01*
X60317Y-46891D02*
X60317Y-45991D01*
X60317Y-45991D02*
X59817Y-45991D01*
X53547Y-46579D02*
X53547Y-47479D01*
X53547Y-47479D02*
X54047Y-47479D01*
X54047Y-47479D02*
X54047Y-46579D01*
X54047Y-46579D02*
X53547Y-46579D01*
X53346Y-47487D02*
X53346Y-46587D01*
X53346Y-46587D02*
X52846Y-46587D01*
X52846Y-46587D02*
X52846Y-47487D01*
X52846Y-47487D02*
X53346Y-47487D01*
X60202Y-49089D02*
X59302Y-49089D01*
X59302Y-49089D02*
X59302Y-49589D01*
X59302Y-49589D02*
X60202Y-49589D01*
X60202Y-49589D02*
X60202Y-49089D01*
X57667Y-34377D02*
X57667Y-35277D01*
X57667Y-35277D02*
X58167Y-35277D01*
X58167Y-35277D02*
X58167Y-34377D01*
X58167Y-34377D02*
X57667Y-34377D01*
X58317Y-34377D02*
X58317Y-35277D01*
X58317Y-35277D02*
X58817Y-35277D01*
X58817Y-35277D02*
X58817Y-34377D01*
X58817Y-34377D02*
X58317Y-34377D01*
X60407Y-37848D02*
X59507Y-37848D01*
X59507Y-37848D02*
X59507Y-38348D01*
X59507Y-38348D02*
X60407Y-38348D01*
X60407Y-38348D02*
X60407Y-37848D01*
G54D11*
X53248Y-42255D02*
X53248Y-41975D01*
X53205Y-41975D01*
X53180Y-41989D01*
X53162Y-42015D01*
X53154Y-42042D01*
X53145Y-42095D01*
X53145Y-42135D01*
X53154Y-42189D01*
X53162Y-42215D01*
X53180Y-42242D01*
X53205Y-42255D01*
X53248Y-42255D01*
X52974Y-42255D02*
X53077Y-42255D01*
X53025Y-42255D02*
X53025Y-41975D01*
X53042Y-42015D01*
X53060Y-42042D01*
X53077Y-42055D01*
X53451Y-43298D02*
X53554Y-43298D01*
X53502Y-43298D02*
X53502Y-43018D01*
X53519Y-43058D01*
X53537Y-43085D01*
X53554Y-43098D01*
X53340Y-43018D02*
X53323Y-43018D01*
X53306Y-43032D01*
X53297Y-43045D01*
X53288Y-43072D01*
X53280Y-43125D01*
X53280Y-43192D01*
X53288Y-43245D01*
X53297Y-43272D01*
X53306Y-43285D01*
X53323Y-43298D01*
X53340Y-43298D01*
X53357Y-43285D01*
X53366Y-43272D01*
X53374Y-43245D01*
X53383Y-43192D01*
X53383Y-43125D01*
X53374Y-43072D01*
X53366Y-43045D01*
X53357Y-43032D01*
X53340Y-43018D01*
X53143Y-43152D02*
X53117Y-43165D01*
X53109Y-43178D01*
X53100Y-43205D01*
X53100Y-43245D01*
X53109Y-43272D01*
X53117Y-43285D01*
X53135Y-43298D01*
X53203Y-43298D01*
X53203Y-43018D01*
X53143Y-43018D01*
X53126Y-43032D01*
X53117Y-43045D01*
X53109Y-43072D01*
X53109Y-43098D01*
X53117Y-43125D01*
X53126Y-43138D01*
X53143Y-43152D01*
X53203Y-43152D01*
X52903Y-43325D02*
X52920Y-43312D01*
X52937Y-43285D01*
X52963Y-43245D01*
X52980Y-43232D01*
X52997Y-43232D01*
X52989Y-43298D02*
X53006Y-43285D01*
X53023Y-43258D01*
X53032Y-43205D01*
X53032Y-43112D01*
X53023Y-43058D01*
X53006Y-43032D01*
X52989Y-43018D01*
X52955Y-43018D01*
X52937Y-43032D01*
X52920Y-43058D01*
X52912Y-43112D01*
X52912Y-43205D01*
X52920Y-43258D01*
X52937Y-43285D01*
X52955Y-43298D01*
X52989Y-43298D01*
X52800Y-43018D02*
X52783Y-43018D01*
X52766Y-43032D01*
X52757Y-43045D01*
X52748Y-43072D01*
X52740Y-43125D01*
X52740Y-43192D01*
X52748Y-43245D01*
X52757Y-43272D01*
X52766Y-43285D01*
X52783Y-43298D01*
X52800Y-43298D01*
X52817Y-43285D01*
X52826Y-43272D01*
X52834Y-43245D01*
X52843Y-43192D01*
X52843Y-43125D01*
X52834Y-43072D01*
X52826Y-43045D01*
X52817Y-43032D01*
X52800Y-43018D01*
X52569Y-43298D02*
X52672Y-43298D01*
X52620Y-43298D02*
X52620Y-43018D01*
X52637Y-43058D01*
X52655Y-43085D01*
X52672Y-43098D01*
X52406Y-43018D02*
X52492Y-43018D01*
X52501Y-43152D01*
X52492Y-43138D01*
X52475Y-43125D01*
X52432Y-43125D01*
X52415Y-43138D01*
X52406Y-43152D01*
X52398Y-43178D01*
X52398Y-43245D01*
X52406Y-43272D01*
X52415Y-43285D01*
X52432Y-43298D01*
X52475Y-43298D01*
X52492Y-43285D01*
X52501Y-43272D01*
X59239Y-46792D02*
X59466Y-46792D01*
X59493Y-46800D01*
X59506Y-46809D01*
X59519Y-46826D01*
X59519Y-46860D01*
X59506Y-46878D01*
X59493Y-46886D01*
X59466Y-46895D01*
X59239Y-46895D01*
X59519Y-47075D02*
X59519Y-46972D01*
X59519Y-47024D02*
X59239Y-47024D01*
X59279Y-47007D01*
X59306Y-46989D01*
X59319Y-46972D01*
X60726Y-47549D02*
X60640Y-47549D01*
X60743Y-47629D02*
X60683Y-47349D01*
X60623Y-47629D01*
X60563Y-47629D02*
X60563Y-47349D01*
X60520Y-47349D01*
X60495Y-47363D01*
X60477Y-47389D01*
X60469Y-47416D01*
X60460Y-47469D01*
X60460Y-47509D01*
X60469Y-47563D01*
X60477Y-47589D01*
X60495Y-47616D01*
X60520Y-47629D01*
X60563Y-47629D01*
X60383Y-47629D02*
X60383Y-47349D01*
X60323Y-47549D01*
X60263Y-47349D01*
X60263Y-47629D01*
X60194Y-47349D02*
X60083Y-47349D01*
X60143Y-47456D01*
X60117Y-47456D01*
X60100Y-47469D01*
X60091Y-47483D01*
X60083Y-47509D01*
X60083Y-47576D01*
X60091Y-47603D01*
X60100Y-47616D01*
X60117Y-47629D01*
X60169Y-47629D01*
X60186Y-47616D01*
X60194Y-47603D01*
X59912Y-47629D02*
X60015Y-47629D01*
X59963Y-47629D02*
X59963Y-47349D01*
X59980Y-47389D01*
X59998Y-47416D01*
X60015Y-47429D01*
X59801Y-47349D02*
X59784Y-47349D01*
X59767Y-47363D01*
X59758Y-47376D01*
X59749Y-47403D01*
X59741Y-47456D01*
X59741Y-47523D01*
X59749Y-47576D01*
X59758Y-47603D01*
X59767Y-47616D01*
X59784Y-47629D01*
X59801Y-47629D01*
X59818Y-47616D01*
X59827Y-47603D01*
X59835Y-47576D01*
X59844Y-47523D01*
X59844Y-47456D01*
X59835Y-47403D01*
X59827Y-47376D01*
X59818Y-47363D01*
X59801Y-47349D01*
X59570Y-47629D02*
X59673Y-47629D01*
X59621Y-47629D02*
X59621Y-47349D01*
X59638Y-47389D01*
X59656Y-47416D01*
X59673Y-47429D01*
X59493Y-47483D02*
X59433Y-47483D01*
X59407Y-47629D02*
X59493Y-47629D01*
X59493Y-47349D01*
X59407Y-47349D01*
X59987Y-34233D02*
X60214Y-34233D01*
X60241Y-34241D01*
X60254Y-34250D01*
X60267Y-34267D01*
X60267Y-34301D01*
X60254Y-34319D01*
X60241Y-34327D01*
X60214Y-34336D01*
X59987Y-34336D01*
X59987Y-34405D02*
X59987Y-34516D01*
X60094Y-34456D01*
X60094Y-34482D01*
X60107Y-34499D01*
X60121Y-34508D01*
X60147Y-34516D01*
X60214Y-34516D01*
X60241Y-34508D01*
X60254Y-34499D01*
X60267Y-34482D01*
X60267Y-34430D01*
X60254Y-34413D01*
X60241Y-34405D01*
X63688Y-33933D02*
X63408Y-33933D01*
X63608Y-33993D01*
X63408Y-34053D01*
X63688Y-34053D01*
X63435Y-34130D02*
X63422Y-34139D01*
X63408Y-34156D01*
X63408Y-34199D01*
X63422Y-34216D01*
X63435Y-34225D01*
X63462Y-34233D01*
X63488Y-34233D01*
X63528Y-34225D01*
X63688Y-34122D01*
X63688Y-34233D01*
X63408Y-34396D02*
X63408Y-34310D01*
X63542Y-34301D01*
X63528Y-34310D01*
X63515Y-34327D01*
X63515Y-34370D01*
X63528Y-34387D01*
X63542Y-34396D01*
X63568Y-34404D01*
X63635Y-34404D01*
X63662Y-34396D01*
X63675Y-34387D01*
X63688Y-34370D01*
X63688Y-34327D01*
X63675Y-34310D01*
X63662Y-34301D01*
X63688Y-34481D02*
X63408Y-34481D01*
X63408Y-34549D01*
X63422Y-34567D01*
X63435Y-34575D01*
X63462Y-34584D01*
X63502Y-34584D01*
X63528Y-34575D01*
X63542Y-34567D01*
X63555Y-34549D01*
X63555Y-34481D01*
X63408Y-34644D02*
X63408Y-34755D01*
X63515Y-34695D01*
X63515Y-34721D01*
X63528Y-34738D01*
X63542Y-34747D01*
X63568Y-34755D01*
X63635Y-34755D01*
X63662Y-34747D01*
X63675Y-34738D01*
X63688Y-34721D01*
X63688Y-34669D01*
X63675Y-34652D01*
X63662Y-34644D01*
X63435Y-34823D02*
X63422Y-34832D01*
X63408Y-34849D01*
X63408Y-34892D01*
X63422Y-34909D01*
X63435Y-34918D01*
X63462Y-34926D01*
X63488Y-34926D01*
X63528Y-34918D01*
X63688Y-34815D01*
X63688Y-34926D01*
G54D17*
X56654Y-48267D02*
X56441Y-48587D01*
X56441Y-48267D02*
X56654Y-48587D01*
X56151Y-48587D02*
X56334Y-48587D01*
X56243Y-48587D02*
X56243Y-48267D01*
X56273Y-48312D01*
X56304Y-48343D01*
X56334Y-48358D01*
G54D11*
X61818Y-41621D02*
X61685Y-41561D01*
X61818Y-41518D02*
X61538Y-41518D01*
X61538Y-41586D01*
X61552Y-41604D01*
X61565Y-41612D01*
X61592Y-41621D01*
X61632Y-41621D01*
X61658Y-41612D01*
X61672Y-41604D01*
X61685Y-41586D01*
X61685Y-41518D01*
X61818Y-41698D02*
X61538Y-41698D01*
X61538Y-41766D01*
X61552Y-41784D01*
X61565Y-41792D01*
X61592Y-41801D01*
X61632Y-41801D01*
X61658Y-41792D01*
X61672Y-41784D01*
X61685Y-41766D01*
X61685Y-41698D01*
X61632Y-41955D02*
X61818Y-41955D01*
X61525Y-41912D02*
X61725Y-41869D01*
X61725Y-41981D01*
X61778Y-42503D02*
X61645Y-42443D01*
X61778Y-42400D02*
X61498Y-42400D01*
X61498Y-42468D01*
X61512Y-42486D01*
X61525Y-42494D01*
X61552Y-42503D01*
X61592Y-42503D01*
X61618Y-42494D01*
X61632Y-42486D01*
X61645Y-42468D01*
X61645Y-42400D01*
X61778Y-42580D02*
X61498Y-42580D01*
X61498Y-42648D01*
X61512Y-42666D01*
X61525Y-42674D01*
X61552Y-42683D01*
X61592Y-42683D01*
X61618Y-42674D01*
X61632Y-42666D01*
X61645Y-42648D01*
X61645Y-42580D01*
X61498Y-42743D02*
X61498Y-42854D01*
X61605Y-42794D01*
X61605Y-42820D01*
X61618Y-42837D01*
X61632Y-42846D01*
X61658Y-42854D01*
X61725Y-42854D01*
X61752Y-42846D01*
X61765Y-42837D01*
X61778Y-42820D01*
X61778Y-42768D01*
X61765Y-42751D01*
X61752Y-42743D01*
G54D18*
X59238Y-39658D02*
X59303Y-39564D01*
X59350Y-39658D02*
X59350Y-39461D01*
X59275Y-39461D01*
X59256Y-39471D01*
X59247Y-39480D01*
X59238Y-39499D01*
X59238Y-39527D01*
X59247Y-39546D01*
X59256Y-39555D01*
X59275Y-39564D01*
X59350Y-39564D01*
X59153Y-39658D02*
X59153Y-39461D01*
X59078Y-39461D01*
X59059Y-39471D01*
X59050Y-39480D01*
X59041Y-39499D01*
X59041Y-39527D01*
X59050Y-39546D01*
X59059Y-39555D01*
X59078Y-39564D01*
X59153Y-39564D01*
X58862Y-39461D02*
X58956Y-39461D01*
X58965Y-39555D01*
X58956Y-39546D01*
X58937Y-39536D01*
X58890Y-39536D01*
X58872Y-39546D01*
X58862Y-39555D01*
X58853Y-39574D01*
X58853Y-39621D01*
X58862Y-39639D01*
X58872Y-39649D01*
X58890Y-39658D01*
X58937Y-39658D01*
X58956Y-39649D01*
X58965Y-39639D01*
G54D11*
X48605Y-37583D02*
X48832Y-37583D01*
X48859Y-37591D01*
X48872Y-37600D01*
X48885Y-37617D01*
X48885Y-37651D01*
X48872Y-37669D01*
X48859Y-37677D01*
X48832Y-37686D01*
X48605Y-37686D01*
X48632Y-37763D02*
X48619Y-37772D01*
X48605Y-37789D01*
X48605Y-37832D01*
X48619Y-37849D01*
X48632Y-37858D01*
X48659Y-37866D01*
X48685Y-37866D01*
X48725Y-37858D01*
X48885Y-37755D01*
X48885Y-37866D01*
G54D14*
X54778Y-44522D02*
X54778Y-44403D01*
X54528Y-44403D01*
X54552Y-44593D02*
X54540Y-44605D01*
X54528Y-44628D01*
X54528Y-44688D01*
X54540Y-44712D01*
X54552Y-44724D01*
X54576Y-44735D01*
X54600Y-44735D01*
X54635Y-44724D01*
X54778Y-44581D01*
X54778Y-44735D01*
G54D11*
X61015Y-40563D02*
X61075Y-40430D01*
X61118Y-40563D02*
X61118Y-40283D01*
X61050Y-40283D01*
X61032Y-40297D01*
X61024Y-40310D01*
X61015Y-40337D01*
X61015Y-40377D01*
X61024Y-40403D01*
X61032Y-40417D01*
X61050Y-40430D01*
X61118Y-40430D01*
X60955Y-40283D02*
X60844Y-40283D01*
X60904Y-40390D01*
X60878Y-40390D01*
X60861Y-40403D01*
X60852Y-40417D01*
X60844Y-40443D01*
X60844Y-40510D01*
X60852Y-40537D01*
X60861Y-40550D01*
X60878Y-40563D01*
X60930Y-40563D01*
X60947Y-40550D01*
X60955Y-40537D01*
X60776Y-40310D02*
X60767Y-40297D01*
X60750Y-40283D01*
X60707Y-40283D01*
X60690Y-40297D01*
X60681Y-40310D01*
X60673Y-40337D01*
X60673Y-40363D01*
X60681Y-40403D01*
X60784Y-40563D01*
X60673Y-40563D01*
X56793Y-44012D02*
X56802Y-44025D01*
X56828Y-44038D01*
X56845Y-44038D01*
X56870Y-44025D01*
X56888Y-43998D01*
X56896Y-43972D01*
X56905Y-43918D01*
X56905Y-43878D01*
X56896Y-43825D01*
X56888Y-43798D01*
X56870Y-43772D01*
X56845Y-43758D01*
X56828Y-43758D01*
X56802Y-43772D01*
X56793Y-43785D01*
X56622Y-44038D02*
X56725Y-44038D01*
X56673Y-44038D02*
X56673Y-43758D01*
X56690Y-43798D01*
X56708Y-43825D01*
X56725Y-43838D01*
X58730Y-43965D02*
X58739Y-43978D01*
X58765Y-43991D01*
X58782Y-43991D01*
X58807Y-43978D01*
X58825Y-43951D01*
X58833Y-43925D01*
X58842Y-43871D01*
X58842Y-43831D01*
X58833Y-43778D01*
X58825Y-43751D01*
X58807Y-43725D01*
X58782Y-43711D01*
X58765Y-43711D01*
X58739Y-43725D01*
X58730Y-43738D01*
X58662Y-43738D02*
X58653Y-43725D01*
X58636Y-43711D01*
X58593Y-43711D01*
X58576Y-43725D01*
X58567Y-43738D01*
X58559Y-43765D01*
X58559Y-43791D01*
X58567Y-43831D01*
X58670Y-43991D01*
X58559Y-43991D01*
X59809Y-44493D02*
X59818Y-44506D01*
X59844Y-44519D01*
X59861Y-44519D01*
X59886Y-44506D01*
X59904Y-44479D01*
X59912Y-44453D01*
X59921Y-44399D01*
X59921Y-44359D01*
X59912Y-44306D01*
X59904Y-44279D01*
X59886Y-44253D01*
X59861Y-44239D01*
X59844Y-44239D01*
X59818Y-44253D01*
X59809Y-44266D01*
X59749Y-44239D02*
X59638Y-44239D01*
X59698Y-44346D01*
X59672Y-44346D01*
X59655Y-44359D01*
X59646Y-44373D01*
X59638Y-44399D01*
X59638Y-44466D01*
X59646Y-44493D01*
X59655Y-44506D01*
X59672Y-44519D01*
X59724Y-44519D01*
X59741Y-44506D01*
X59749Y-44493D01*
X57501Y-48347D02*
X57510Y-48360D01*
X57536Y-48373D01*
X57553Y-48373D01*
X57578Y-48360D01*
X57596Y-48333D01*
X57604Y-48307D01*
X57613Y-48253D01*
X57613Y-48213D01*
X57604Y-48160D01*
X57596Y-48133D01*
X57578Y-48107D01*
X57553Y-48093D01*
X57536Y-48093D01*
X57510Y-48107D01*
X57501Y-48120D01*
X57347Y-48187D02*
X57347Y-48373D01*
X57390Y-48080D02*
X57433Y-48280D01*
X57321Y-48280D01*
X58746Y-48339D02*
X58755Y-48352D01*
X58781Y-48365D01*
X58798Y-48365D01*
X58823Y-48352D01*
X58841Y-48325D01*
X58849Y-48299D01*
X58858Y-48245D01*
X58858Y-48205D01*
X58849Y-48152D01*
X58841Y-48125D01*
X58823Y-48099D01*
X58798Y-48085D01*
X58781Y-48085D01*
X58755Y-48099D01*
X58746Y-48112D01*
X58583Y-48085D02*
X58669Y-48085D01*
X58678Y-48219D01*
X58669Y-48205D01*
X58652Y-48192D01*
X58609Y-48192D01*
X58592Y-48205D01*
X58583Y-48219D01*
X58575Y-48245D01*
X58575Y-48312D01*
X58583Y-48339D01*
X58592Y-48352D01*
X58609Y-48365D01*
X58652Y-48365D01*
X58669Y-48352D01*
X58678Y-48339D01*
X52270Y-40601D02*
X52137Y-40541D01*
X52270Y-40498D02*
X51990Y-40498D01*
X51990Y-40566D01*
X52004Y-40584D01*
X52017Y-40592D01*
X52044Y-40601D01*
X52084Y-40601D01*
X52110Y-40592D01*
X52124Y-40584D01*
X52137Y-40566D01*
X52137Y-40498D01*
X51990Y-40661D02*
X51990Y-40781D01*
X52270Y-40704D01*
X58916Y-33270D02*
X58783Y-33210D01*
X58916Y-33167D02*
X58636Y-33167D01*
X58636Y-33235D01*
X58650Y-33253D01*
X58663Y-33261D01*
X58690Y-33270D01*
X58730Y-33270D01*
X58756Y-33261D01*
X58770Y-33253D01*
X58783Y-33235D01*
X58783Y-33167D01*
X58756Y-33373D02*
X58743Y-33355D01*
X58730Y-33347D01*
X58703Y-33338D01*
X58690Y-33338D01*
X58663Y-33347D01*
X58650Y-33355D01*
X58636Y-33373D01*
X58636Y-33407D01*
X58650Y-33424D01*
X58663Y-33433D01*
X58690Y-33441D01*
X58703Y-33441D01*
X58730Y-33433D01*
X58743Y-33424D01*
X58756Y-33407D01*
X58756Y-33373D01*
X58770Y-33355D01*
X58783Y-33347D01*
X58810Y-33338D01*
X58863Y-33338D01*
X58890Y-33347D01*
X58903Y-33355D01*
X58916Y-33373D01*
X58916Y-33407D01*
X58903Y-33424D01*
X58890Y-33433D01*
X58863Y-33441D01*
X58810Y-33441D01*
X58783Y-33433D01*
X58770Y-33424D01*
X58756Y-33407D01*
X62627Y-38019D02*
X62687Y-37886D01*
X62730Y-38019D02*
X62730Y-37739D01*
X62662Y-37739D01*
X62644Y-37753D01*
X62636Y-37766D01*
X62627Y-37793D01*
X62627Y-37833D01*
X62636Y-37859D01*
X62644Y-37873D01*
X62662Y-37886D01*
X62730Y-37886D01*
X62559Y-37766D02*
X62550Y-37753D01*
X62533Y-37739D01*
X62490Y-37739D01*
X62473Y-37753D01*
X62464Y-37766D01*
X62456Y-37793D01*
X62456Y-37819D01*
X62464Y-37859D01*
X62567Y-38019D01*
X62456Y-38019D01*
X62371Y-38019D02*
X62336Y-38019D01*
X62319Y-38006D01*
X62311Y-37993D01*
X62293Y-37953D01*
X62285Y-37899D01*
X62285Y-37793D01*
X62293Y-37766D01*
X62302Y-37753D01*
X62319Y-37739D01*
X62353Y-37739D01*
X62371Y-37753D01*
X62379Y-37766D01*
X62388Y-37793D01*
X62388Y-37859D01*
X62379Y-37886D01*
X62371Y-37899D01*
X62353Y-37913D01*
X62319Y-37913D01*
X62302Y-37899D01*
X62293Y-37886D01*
X62285Y-37859D01*
X60225Y-42319D02*
X60234Y-42332D01*
X60260Y-42345D01*
X60277Y-42345D01*
X60302Y-42332D01*
X60320Y-42305D01*
X60328Y-42279D01*
X60337Y-42225D01*
X60337Y-42185D01*
X60328Y-42132D01*
X60320Y-42105D01*
X60302Y-42079D01*
X60277Y-42065D01*
X60260Y-42065D01*
X60234Y-42079D01*
X60225Y-42092D01*
X60157Y-42092D02*
X60148Y-42079D01*
X60131Y-42065D01*
X60088Y-42065D01*
X60071Y-42079D01*
X60062Y-42092D01*
X60054Y-42119D01*
X60054Y-42145D01*
X60062Y-42185D01*
X60165Y-42345D01*
X60054Y-42345D01*
X59994Y-42065D02*
X59874Y-42065D01*
X59951Y-42345D01*
G54D14*
X52191Y-44636D02*
X52310Y-44636D01*
X52310Y-44386D01*
X51978Y-44636D02*
X52120Y-44636D01*
X52049Y-44636D02*
X52049Y-44386D01*
X52073Y-44422D01*
X52097Y-44446D01*
X52120Y-44458D01*
G54D11*
X52308Y-34314D02*
X52368Y-34181D01*
X52411Y-34314D02*
X52411Y-34034D01*
X52343Y-34034D01*
X52325Y-34048D01*
X52317Y-34061D01*
X52308Y-34088D01*
X52308Y-34128D01*
X52317Y-34154D01*
X52325Y-34168D01*
X52343Y-34181D01*
X52411Y-34181D01*
X52240Y-34061D02*
X52231Y-34048D01*
X52214Y-34034D01*
X52171Y-34034D01*
X52154Y-34048D01*
X52145Y-34061D01*
X52137Y-34088D01*
X52137Y-34114D01*
X52145Y-34154D01*
X52248Y-34314D01*
X52137Y-34314D01*
X52069Y-34061D02*
X52060Y-34048D01*
X52043Y-34034D01*
X52000Y-34034D01*
X51983Y-34048D01*
X51974Y-34061D01*
X51966Y-34088D01*
X51966Y-34114D01*
X51974Y-34154D01*
X52077Y-34314D01*
X51966Y-34314D01*
X50914Y-34357D02*
X50974Y-34224D01*
X51017Y-34357D02*
X51017Y-34077D01*
X50949Y-34077D01*
X50931Y-34091D01*
X50923Y-34104D01*
X50914Y-34131D01*
X50914Y-34171D01*
X50923Y-34197D01*
X50931Y-34211D01*
X50949Y-34224D01*
X51017Y-34224D01*
X50846Y-34104D02*
X50837Y-34091D01*
X50820Y-34077D01*
X50777Y-34077D01*
X50760Y-34091D01*
X50751Y-34104D01*
X50743Y-34131D01*
X50743Y-34157D01*
X50751Y-34197D01*
X50854Y-34357D01*
X50743Y-34357D01*
X50683Y-34077D02*
X50572Y-34077D01*
X50632Y-34184D01*
X50606Y-34184D01*
X50589Y-34197D01*
X50580Y-34211D01*
X50572Y-34237D01*
X50572Y-34304D01*
X50580Y-34331D01*
X50589Y-34344D01*
X50606Y-34357D01*
X50658Y-34357D01*
X50675Y-34344D01*
X50683Y-34331D01*
X55824Y-34070D02*
X55884Y-33937D01*
X55927Y-34070D02*
X55927Y-33790D01*
X55859Y-33790D01*
X55841Y-33804D01*
X55833Y-33817D01*
X55824Y-33844D01*
X55824Y-33884D01*
X55833Y-33910D01*
X55841Y-33924D01*
X55859Y-33937D01*
X55927Y-33937D01*
X55756Y-33817D02*
X55747Y-33804D01*
X55730Y-33790D01*
X55687Y-33790D01*
X55670Y-33804D01*
X55661Y-33817D01*
X55653Y-33844D01*
X55653Y-33870D01*
X55661Y-33910D01*
X55764Y-34070D01*
X55653Y-34070D01*
X55490Y-33790D02*
X55576Y-33790D01*
X55585Y-33924D01*
X55576Y-33910D01*
X55559Y-33897D01*
X55516Y-33897D01*
X55499Y-33910D01*
X55490Y-33924D01*
X55482Y-33950D01*
X55482Y-34017D01*
X55490Y-34044D01*
X55499Y-34057D01*
X55516Y-34070D01*
X55559Y-34070D01*
X55576Y-34057D01*
X55585Y-34044D01*
X53174Y-34215D02*
X53234Y-34082D01*
X53277Y-34215D02*
X53277Y-33935D01*
X53209Y-33935D01*
X53191Y-33949D01*
X53183Y-33962D01*
X53174Y-33989D01*
X53174Y-34029D01*
X53183Y-34055D01*
X53191Y-34069D01*
X53209Y-34082D01*
X53277Y-34082D01*
X53106Y-33962D02*
X53097Y-33949D01*
X53080Y-33935D01*
X53037Y-33935D01*
X53020Y-33949D01*
X53011Y-33962D01*
X53003Y-33989D01*
X53003Y-34015D01*
X53011Y-34055D01*
X53114Y-34215D01*
X53003Y-34215D01*
X52849Y-34029D02*
X52849Y-34215D01*
X52892Y-33922D02*
X52935Y-34122D01*
X52823Y-34122D01*
X55072Y-32957D02*
X55081Y-32970D01*
X55107Y-32983D01*
X55124Y-32983D01*
X55149Y-32970D01*
X55167Y-32943D01*
X55175Y-32917D01*
X55184Y-32863D01*
X55184Y-32823D01*
X55175Y-32770D01*
X55167Y-32743D01*
X55149Y-32717D01*
X55124Y-32703D01*
X55107Y-32703D01*
X55081Y-32717D01*
X55072Y-32730D01*
X55012Y-32703D02*
X54892Y-32703D01*
X54969Y-32983D01*
X54730Y-32983D02*
X54833Y-32983D01*
X54781Y-32983D02*
X54781Y-32703D01*
X54798Y-32743D01*
X54816Y-32770D01*
X54833Y-32783D01*
X53174Y-34878D02*
X53183Y-34891D01*
X53209Y-34904D01*
X53226Y-34904D01*
X53251Y-34891D01*
X53269Y-34864D01*
X53277Y-34838D01*
X53286Y-34784D01*
X53286Y-34744D01*
X53277Y-34691D01*
X53269Y-34664D01*
X53251Y-34638D01*
X53226Y-34624D01*
X53209Y-34624D01*
X53183Y-34638D01*
X53174Y-34651D01*
X53114Y-34624D02*
X52994Y-34624D01*
X53071Y-34904D01*
X52892Y-34624D02*
X52875Y-34624D01*
X52858Y-34638D01*
X52849Y-34651D01*
X52840Y-34678D01*
X52832Y-34731D01*
X52832Y-34798D01*
X52840Y-34851D01*
X52849Y-34878D01*
X52858Y-34891D01*
X52875Y-34904D01*
X52892Y-34904D01*
X52909Y-34891D01*
X52918Y-34878D01*
X52926Y-34851D01*
X52935Y-34798D01*
X52935Y-34731D01*
X52926Y-34678D01*
X52918Y-34651D01*
X52909Y-34638D01*
X52892Y-34624D01*
X54906Y-40409D02*
X54919Y-40400D01*
X54932Y-40374D01*
X54932Y-40357D01*
X54919Y-40332D01*
X54892Y-40314D01*
X54866Y-40306D01*
X54812Y-40297D01*
X54772Y-40297D01*
X54719Y-40306D01*
X54692Y-40314D01*
X54666Y-40332D01*
X54652Y-40357D01*
X54652Y-40374D01*
X54666Y-40400D01*
X54679Y-40409D01*
X54652Y-40563D02*
X54652Y-40529D01*
X54666Y-40512D01*
X54679Y-40503D01*
X54719Y-40486D01*
X54772Y-40477D01*
X54879Y-40477D01*
X54906Y-40486D01*
X54919Y-40494D01*
X54932Y-40512D01*
X54932Y-40546D01*
X54919Y-40563D01*
X54906Y-40572D01*
X54879Y-40580D01*
X54812Y-40580D01*
X54786Y-40572D01*
X54772Y-40563D01*
X54759Y-40546D01*
X54759Y-40512D01*
X54772Y-40494D01*
X54786Y-40486D01*
X54812Y-40477D01*
X54932Y-40751D02*
X54932Y-40648D01*
X54932Y-40700D02*
X54652Y-40700D01*
X54692Y-40683D01*
X54719Y-40665D01*
X54732Y-40648D01*
X53942Y-41426D02*
X53951Y-41439D01*
X53977Y-41452D01*
X53994Y-41452D01*
X54019Y-41439D01*
X54037Y-41412D01*
X54045Y-41386D01*
X54054Y-41332D01*
X54054Y-41292D01*
X54045Y-41239D01*
X54037Y-41212D01*
X54019Y-41186D01*
X53994Y-41172D01*
X53977Y-41172D01*
X53951Y-41186D01*
X53942Y-41199D01*
X53788Y-41172D02*
X53822Y-41172D01*
X53839Y-41186D01*
X53848Y-41199D01*
X53865Y-41239D01*
X53874Y-41292D01*
X53874Y-41399D01*
X53865Y-41426D01*
X53857Y-41439D01*
X53839Y-41452D01*
X53805Y-41452D01*
X53788Y-41439D01*
X53779Y-41426D01*
X53771Y-41399D01*
X53771Y-41332D01*
X53779Y-41306D01*
X53788Y-41292D01*
X53805Y-41279D01*
X53839Y-41279D01*
X53857Y-41292D01*
X53865Y-41306D01*
X53874Y-41332D01*
X53703Y-41199D02*
X53694Y-41186D01*
X53677Y-41172D01*
X53634Y-41172D01*
X53617Y-41186D01*
X53608Y-41199D01*
X53600Y-41226D01*
X53600Y-41252D01*
X53608Y-41292D01*
X53711Y-41452D01*
X53600Y-41452D01*
X52693Y-40385D02*
X52706Y-40376D01*
X52719Y-40350D01*
X52719Y-40333D01*
X52706Y-40308D01*
X52679Y-40290D01*
X52653Y-40282D01*
X52599Y-40273D01*
X52559Y-40273D01*
X52506Y-40282D01*
X52479Y-40290D01*
X52453Y-40308D01*
X52439Y-40333D01*
X52439Y-40350D01*
X52453Y-40376D01*
X52466Y-40385D01*
X52439Y-40539D02*
X52439Y-40505D01*
X52453Y-40488D01*
X52466Y-40479D01*
X52506Y-40462D01*
X52559Y-40453D01*
X52666Y-40453D01*
X52693Y-40462D01*
X52706Y-40470D01*
X52719Y-40488D01*
X52719Y-40522D01*
X52706Y-40539D01*
X52693Y-40548D01*
X52666Y-40556D01*
X52599Y-40556D01*
X52573Y-40548D01*
X52559Y-40539D01*
X52546Y-40522D01*
X52546Y-40488D01*
X52559Y-40470D01*
X52573Y-40462D01*
X52599Y-40453D01*
X52439Y-40616D02*
X52439Y-40727D01*
X52546Y-40667D01*
X52546Y-40693D01*
X52559Y-40710D01*
X52573Y-40719D01*
X52599Y-40727D01*
X52666Y-40727D01*
X52693Y-40719D01*
X52706Y-40710D01*
X52719Y-40693D01*
X52719Y-40641D01*
X52706Y-40624D01*
X52693Y-40616D01*
X57355Y-40231D02*
X57368Y-40222D01*
X57381Y-40196D01*
X57381Y-40179D01*
X57368Y-40154D01*
X57341Y-40136D01*
X57315Y-40128D01*
X57261Y-40119D01*
X57221Y-40119D01*
X57168Y-40128D01*
X57141Y-40136D01*
X57115Y-40154D01*
X57101Y-40179D01*
X57101Y-40196D01*
X57115Y-40222D01*
X57128Y-40231D01*
X57101Y-40385D02*
X57101Y-40351D01*
X57115Y-40334D01*
X57128Y-40325D01*
X57168Y-40308D01*
X57221Y-40299D01*
X57328Y-40299D01*
X57355Y-40308D01*
X57368Y-40316D01*
X57381Y-40334D01*
X57381Y-40368D01*
X57368Y-40385D01*
X57355Y-40394D01*
X57328Y-40402D01*
X57261Y-40402D01*
X57235Y-40394D01*
X57221Y-40385D01*
X57208Y-40368D01*
X57208Y-40334D01*
X57221Y-40316D01*
X57235Y-40308D01*
X57261Y-40299D01*
X57381Y-40487D02*
X57381Y-40522D01*
X57368Y-40539D01*
X57355Y-40547D01*
X57315Y-40565D01*
X57261Y-40573D01*
X57155Y-40573D01*
X57128Y-40565D01*
X57115Y-40556D01*
X57101Y-40539D01*
X57101Y-40505D01*
X57115Y-40487D01*
X57128Y-40479D01*
X57155Y-40470D01*
X57221Y-40470D01*
X57248Y-40479D01*
X57261Y-40487D01*
X57275Y-40505D01*
X57275Y-40539D01*
X57261Y-40556D01*
X57248Y-40565D01*
X57221Y-40573D01*
X57178Y-41095D02*
X57187Y-41108D01*
X57213Y-41121D01*
X57230Y-41121D01*
X57255Y-41108D01*
X57273Y-41081D01*
X57281Y-41055D01*
X57290Y-41001D01*
X57290Y-40961D01*
X57281Y-40908D01*
X57273Y-40881D01*
X57255Y-40855D01*
X57230Y-40841D01*
X57213Y-40841D01*
X57187Y-40855D01*
X57178Y-40868D01*
X57024Y-40841D02*
X57058Y-40841D01*
X57075Y-40855D01*
X57084Y-40868D01*
X57101Y-40908D01*
X57110Y-40961D01*
X57110Y-41068D01*
X57101Y-41095D01*
X57093Y-41108D01*
X57075Y-41121D01*
X57041Y-41121D01*
X57024Y-41108D01*
X57015Y-41095D01*
X57007Y-41068D01*
X57007Y-41001D01*
X57015Y-40975D01*
X57024Y-40961D01*
X57041Y-40948D01*
X57075Y-40948D01*
X57093Y-40961D01*
X57101Y-40975D01*
X57110Y-41001D01*
X56947Y-40841D02*
X56827Y-40841D01*
X56904Y-41121D01*
X50552Y-40794D02*
X50565Y-40785D01*
X50578Y-40759D01*
X50578Y-40742D01*
X50565Y-40717D01*
X50538Y-40699D01*
X50512Y-40691D01*
X50458Y-40682D01*
X50418Y-40682D01*
X50365Y-40691D01*
X50338Y-40699D01*
X50312Y-40717D01*
X50298Y-40742D01*
X50298Y-40759D01*
X50312Y-40785D01*
X50325Y-40794D01*
X50298Y-40948D02*
X50298Y-40914D01*
X50312Y-40897D01*
X50325Y-40888D01*
X50365Y-40871D01*
X50418Y-40862D01*
X50525Y-40862D01*
X50552Y-40871D01*
X50565Y-40879D01*
X50578Y-40897D01*
X50578Y-40931D01*
X50565Y-40948D01*
X50552Y-40957D01*
X50525Y-40965D01*
X50458Y-40965D01*
X50432Y-40957D01*
X50418Y-40948D01*
X50405Y-40931D01*
X50405Y-40897D01*
X50418Y-40879D01*
X50432Y-40871D01*
X50458Y-40862D01*
X50298Y-41119D02*
X50298Y-41085D01*
X50312Y-41068D01*
X50325Y-41059D01*
X50365Y-41042D01*
X50418Y-41033D01*
X50525Y-41033D01*
X50552Y-41042D01*
X50565Y-41050D01*
X50578Y-41068D01*
X50578Y-41102D01*
X50565Y-41119D01*
X50552Y-41128D01*
X50525Y-41136D01*
X50458Y-41136D01*
X50432Y-41128D01*
X50418Y-41119D01*
X50405Y-41102D01*
X50405Y-41068D01*
X50418Y-41050D01*
X50432Y-41042D01*
X50458Y-41033D01*
X55863Y-34437D02*
X55872Y-34450D01*
X55898Y-34463D01*
X55915Y-34463D01*
X55940Y-34450D01*
X55958Y-34423D01*
X55966Y-34397D01*
X55975Y-34343D01*
X55975Y-34303D01*
X55966Y-34250D01*
X55958Y-34223D01*
X55940Y-34197D01*
X55915Y-34183D01*
X55898Y-34183D01*
X55872Y-34197D01*
X55863Y-34210D01*
X55709Y-34183D02*
X55743Y-34183D01*
X55760Y-34197D01*
X55769Y-34210D01*
X55786Y-34250D01*
X55795Y-34303D01*
X55795Y-34410D01*
X55786Y-34437D01*
X55778Y-34450D01*
X55760Y-34463D01*
X55726Y-34463D01*
X55709Y-34450D01*
X55700Y-34437D01*
X55692Y-34410D01*
X55692Y-34343D01*
X55700Y-34317D01*
X55709Y-34303D01*
X55726Y-34290D01*
X55760Y-34290D01*
X55778Y-34303D01*
X55786Y-34317D01*
X55795Y-34343D01*
X55529Y-34183D02*
X55615Y-34183D01*
X55624Y-34317D01*
X55615Y-34303D01*
X55598Y-34290D01*
X55555Y-34290D01*
X55538Y-34303D01*
X55529Y-34317D01*
X55521Y-34343D01*
X55521Y-34410D01*
X55529Y-34437D01*
X55538Y-34450D01*
X55555Y-34463D01*
X55598Y-34463D01*
X55615Y-34450D01*
X55624Y-34437D01*
X56961Y-35004D02*
X56970Y-35017D01*
X56996Y-35030D01*
X57013Y-35030D01*
X57038Y-35017D01*
X57056Y-34990D01*
X57064Y-34964D01*
X57073Y-34910D01*
X57073Y-34870D01*
X57064Y-34817D01*
X57056Y-34790D01*
X57038Y-34764D01*
X57013Y-34750D01*
X56996Y-34750D01*
X56970Y-34764D01*
X56961Y-34777D01*
X56807Y-34750D02*
X56841Y-34750D01*
X56858Y-34764D01*
X56867Y-34777D01*
X56884Y-34817D01*
X56893Y-34870D01*
X56893Y-34977D01*
X56884Y-35004D01*
X56876Y-35017D01*
X56858Y-35030D01*
X56824Y-35030D01*
X56807Y-35017D01*
X56798Y-35004D01*
X56790Y-34977D01*
X56790Y-34910D01*
X56798Y-34884D01*
X56807Y-34870D01*
X56824Y-34857D01*
X56858Y-34857D01*
X56876Y-34870D01*
X56884Y-34884D01*
X56893Y-34910D01*
X56636Y-34844D02*
X56636Y-35030D01*
X56679Y-34737D02*
X56722Y-34937D01*
X56610Y-34937D01*
X59390Y-35436D02*
X59403Y-35427D01*
X59416Y-35401D01*
X59416Y-35384D01*
X59403Y-35359D01*
X59376Y-35341D01*
X59350Y-35333D01*
X59296Y-35324D01*
X59256Y-35324D01*
X59203Y-35333D01*
X59176Y-35341D01*
X59150Y-35359D01*
X59136Y-35384D01*
X59136Y-35401D01*
X59150Y-35427D01*
X59163Y-35436D01*
X59136Y-35590D02*
X59136Y-35556D01*
X59150Y-35539D01*
X59163Y-35530D01*
X59203Y-35513D01*
X59256Y-35504D01*
X59363Y-35504D01*
X59390Y-35513D01*
X59403Y-35521D01*
X59416Y-35539D01*
X59416Y-35573D01*
X59403Y-35590D01*
X59390Y-35599D01*
X59363Y-35607D01*
X59296Y-35607D01*
X59270Y-35599D01*
X59256Y-35590D01*
X59243Y-35573D01*
X59243Y-35539D01*
X59256Y-35521D01*
X59270Y-35513D01*
X59296Y-35504D01*
X59256Y-35710D02*
X59243Y-35692D01*
X59230Y-35684D01*
X59203Y-35675D01*
X59190Y-35675D01*
X59163Y-35684D01*
X59150Y-35692D01*
X59136Y-35710D01*
X59136Y-35744D01*
X59150Y-35761D01*
X59163Y-35770D01*
X59190Y-35778D01*
X59203Y-35778D01*
X59230Y-35770D01*
X59243Y-35761D01*
X59256Y-35744D01*
X59256Y-35710D01*
X59270Y-35692D01*
X59283Y-35684D01*
X59310Y-35675D01*
X59363Y-35675D01*
X59390Y-35684D01*
X59403Y-35692D01*
X59416Y-35710D01*
X59416Y-35744D01*
X59403Y-35761D01*
X59390Y-35770D01*
X59363Y-35778D01*
X59310Y-35778D01*
X59283Y-35770D01*
X59270Y-35761D01*
X59256Y-35744D01*
X56410Y-42341D02*
X56470Y-42208D01*
X56513Y-42341D02*
X56513Y-42061D01*
X56445Y-42061D01*
X56427Y-42075D01*
X56419Y-42088D01*
X56410Y-42115D01*
X56410Y-42155D01*
X56419Y-42181D01*
X56427Y-42195D01*
X56445Y-42208D01*
X56513Y-42208D01*
X56342Y-42088D02*
X56333Y-42075D01*
X56316Y-42061D01*
X56273Y-42061D01*
X56256Y-42075D01*
X56247Y-42088D01*
X56239Y-42115D01*
X56239Y-42141D01*
X56247Y-42181D01*
X56350Y-42341D01*
X56239Y-42341D01*
X56085Y-42061D02*
X56119Y-42061D01*
X56136Y-42075D01*
X56145Y-42088D01*
X56162Y-42128D01*
X56171Y-42181D01*
X56171Y-42288D01*
X56162Y-42315D01*
X56154Y-42328D01*
X56136Y-42341D01*
X56102Y-42341D01*
X56085Y-42328D01*
X56076Y-42315D01*
X56068Y-42288D01*
X56068Y-42221D01*
X56076Y-42195D01*
X56085Y-42181D01*
X56102Y-42168D01*
X56136Y-42168D01*
X56154Y-42181D01*
X56162Y-42195D01*
X56171Y-42221D01*
X54681Y-42243D02*
X54694Y-42234D01*
X54707Y-42208D01*
X54707Y-42191D01*
X54694Y-42166D01*
X54667Y-42148D01*
X54641Y-42140D01*
X54587Y-42131D01*
X54547Y-42131D01*
X54494Y-42140D01*
X54467Y-42148D01*
X54441Y-42166D01*
X54427Y-42191D01*
X54427Y-42208D01*
X54441Y-42234D01*
X54454Y-42243D01*
X54427Y-42406D02*
X54427Y-42320D01*
X54561Y-42311D01*
X54547Y-42320D01*
X54534Y-42337D01*
X54534Y-42380D01*
X54547Y-42397D01*
X54561Y-42406D01*
X54587Y-42414D01*
X54654Y-42414D01*
X54681Y-42406D01*
X54694Y-42397D01*
X54707Y-42380D01*
X54707Y-42337D01*
X54694Y-42320D01*
X54681Y-42311D01*
X54427Y-42525D02*
X54427Y-42542D01*
X54441Y-42559D01*
X54454Y-42568D01*
X54481Y-42577D01*
X54534Y-42585D01*
X54601Y-42585D01*
X54654Y-42577D01*
X54681Y-42568D01*
X54694Y-42559D01*
X54707Y-42542D01*
X54707Y-42525D01*
X54694Y-42508D01*
X54681Y-42499D01*
X54654Y-42491D01*
X54601Y-42482D01*
X54534Y-42482D01*
X54481Y-42491D01*
X54454Y-42499D01*
X54441Y-42508D01*
X54427Y-42525D01*
X58634Y-40578D02*
X58647Y-40569D01*
X58660Y-40543D01*
X58660Y-40526D01*
X58647Y-40501D01*
X58620Y-40483D01*
X58594Y-40475D01*
X58540Y-40466D01*
X58500Y-40466D01*
X58447Y-40475D01*
X58420Y-40483D01*
X58394Y-40501D01*
X58380Y-40526D01*
X58380Y-40543D01*
X58394Y-40569D01*
X58407Y-40578D01*
X58407Y-40646D02*
X58394Y-40655D01*
X58380Y-40672D01*
X58380Y-40715D01*
X58394Y-40732D01*
X58407Y-40741D01*
X58434Y-40749D01*
X58460Y-40749D01*
X58500Y-40741D01*
X58660Y-40638D01*
X58660Y-40749D01*
X58407Y-40817D02*
X58394Y-40826D01*
X58380Y-40843D01*
X58380Y-40886D01*
X58394Y-40903D01*
X58407Y-40912D01*
X58434Y-40920D01*
X58460Y-40920D01*
X58500Y-40912D01*
X58660Y-40809D01*
X58660Y-40920D01*
X58335Y-43615D02*
X58344Y-43628D01*
X58370Y-43641D01*
X58387Y-43641D01*
X58412Y-43628D01*
X58430Y-43601D01*
X58438Y-43575D01*
X58447Y-43521D01*
X58447Y-43481D01*
X58438Y-43428D01*
X58430Y-43401D01*
X58412Y-43375D01*
X58387Y-43361D01*
X58370Y-43361D01*
X58344Y-43375D01*
X58335Y-43388D01*
X58267Y-43388D02*
X58258Y-43375D01*
X58241Y-43361D01*
X58198Y-43361D01*
X58181Y-43375D01*
X58172Y-43388D01*
X58164Y-43415D01*
X58164Y-43441D01*
X58172Y-43481D01*
X58275Y-43641D01*
X58164Y-43641D01*
X58001Y-43361D02*
X58087Y-43361D01*
X58096Y-43495D01*
X58087Y-43481D01*
X58070Y-43468D01*
X58027Y-43468D01*
X58010Y-43481D01*
X58001Y-43495D01*
X57993Y-43521D01*
X57993Y-43588D01*
X58001Y-43615D01*
X58010Y-43628D01*
X58027Y-43641D01*
X58070Y-43641D01*
X58087Y-43628D01*
X58096Y-43615D01*
X58658Y-37294D02*
X58671Y-37285D01*
X58684Y-37259D01*
X58684Y-37242D01*
X58671Y-37217D01*
X58644Y-37199D01*
X58618Y-37191D01*
X58564Y-37182D01*
X58524Y-37182D01*
X58471Y-37191D01*
X58444Y-37199D01*
X58418Y-37217D01*
X58404Y-37242D01*
X58404Y-37259D01*
X58418Y-37285D01*
X58431Y-37294D01*
X58498Y-37448D02*
X58684Y-37448D01*
X58391Y-37405D02*
X58591Y-37362D01*
X58591Y-37474D01*
X58498Y-37619D02*
X58684Y-37619D01*
X58391Y-37576D02*
X58591Y-37533D01*
X58591Y-37645D01*
X58646Y-38920D02*
X58659Y-38911D01*
X58672Y-38885D01*
X58672Y-38868D01*
X58659Y-38843D01*
X58632Y-38825D01*
X58606Y-38817D01*
X58552Y-38808D01*
X58512Y-38808D01*
X58459Y-38817D01*
X58432Y-38825D01*
X58406Y-38843D01*
X58392Y-38868D01*
X58392Y-38885D01*
X58406Y-38911D01*
X58419Y-38920D01*
X58486Y-39074D02*
X58672Y-39074D01*
X58379Y-39031D02*
X58579Y-38988D01*
X58579Y-39100D01*
X58392Y-39151D02*
X58392Y-39271D01*
X58672Y-39194D01*
X56217Y-43322D02*
X56230Y-43313D01*
X56243Y-43287D01*
X56243Y-43270D01*
X56230Y-43245D01*
X56203Y-43227D01*
X56177Y-43219D01*
X56123Y-43210D01*
X56083Y-43210D01*
X56030Y-43219D01*
X56003Y-43227D01*
X55977Y-43245D01*
X55963Y-43270D01*
X55963Y-43287D01*
X55977Y-43313D01*
X55990Y-43322D01*
X56057Y-43476D02*
X56243Y-43476D01*
X55950Y-43433D02*
X56150Y-43390D01*
X56150Y-43502D01*
X55990Y-43561D02*
X55977Y-43570D01*
X55963Y-43587D01*
X55963Y-43630D01*
X55977Y-43647D01*
X55990Y-43656D01*
X56017Y-43664D01*
X56043Y-43664D01*
X56083Y-43656D01*
X56243Y-43553D01*
X56243Y-43664D01*
X50981Y-43248D02*
X50990Y-43261D01*
X51016Y-43274D01*
X51033Y-43274D01*
X51058Y-43261D01*
X51076Y-43234D01*
X51084Y-43208D01*
X51093Y-43154D01*
X51093Y-43114D01*
X51084Y-43061D01*
X51076Y-43034D01*
X51058Y-43008D01*
X51033Y-42994D01*
X51016Y-42994D01*
X50990Y-43008D01*
X50981Y-43021D01*
X50818Y-42994D02*
X50904Y-42994D01*
X50913Y-43128D01*
X50904Y-43114D01*
X50887Y-43101D01*
X50844Y-43101D01*
X50827Y-43114D01*
X50818Y-43128D01*
X50810Y-43154D01*
X50810Y-43221D01*
X50818Y-43248D01*
X50827Y-43261D01*
X50844Y-43274D01*
X50887Y-43274D01*
X50904Y-43261D01*
X50913Y-43248D01*
X50639Y-43274D02*
X50742Y-43274D01*
X50690Y-43274D02*
X50690Y-42994D01*
X50707Y-43034D01*
X50725Y-43061D01*
X50742Y-43074D01*
X64802Y-45677D02*
X64669Y-45617D01*
X64802Y-45574D02*
X64522Y-45574D01*
X64522Y-45642D01*
X64536Y-45660D01*
X64549Y-45668D01*
X64576Y-45677D01*
X64616Y-45677D01*
X64642Y-45668D01*
X64656Y-45660D01*
X64669Y-45642D01*
X64669Y-45574D01*
X64802Y-45848D02*
X64802Y-45745D01*
X64802Y-45797D02*
X64522Y-45797D01*
X64562Y-45780D01*
X64589Y-45762D01*
X64602Y-45745D01*
X64616Y-46002D02*
X64802Y-46002D01*
X64509Y-45959D02*
X64709Y-45916D01*
X64709Y-46028D01*
X59351Y-41015D02*
X59411Y-40882D01*
X59454Y-41015D02*
X59454Y-40735D01*
X59386Y-40735D01*
X59368Y-40749D01*
X59360Y-40762D01*
X59351Y-40789D01*
X59351Y-40829D01*
X59360Y-40855D01*
X59368Y-40869D01*
X59386Y-40882D01*
X59454Y-40882D01*
X59180Y-41015D02*
X59283Y-41015D01*
X59231Y-41015D02*
X59231Y-40735D01*
X59248Y-40775D01*
X59266Y-40802D01*
X59283Y-40815D01*
X59069Y-40735D02*
X59052Y-40735D01*
X59035Y-40749D01*
X59026Y-40762D01*
X59017Y-40789D01*
X59009Y-40842D01*
X59009Y-40909D01*
X59017Y-40962D01*
X59026Y-40989D01*
X59035Y-41002D01*
X59052Y-41015D01*
X59069Y-41015D01*
X59086Y-41002D01*
X59095Y-40989D01*
X59103Y-40962D01*
X59112Y-40909D01*
X59112Y-40842D01*
X59103Y-40789D01*
X59095Y-40762D01*
X59086Y-40749D01*
X59069Y-40735D01*
X59688Y-46285D02*
X59555Y-46225D01*
X59688Y-46182D02*
X59408Y-46182D01*
X59408Y-46250D01*
X59422Y-46268D01*
X59435Y-46276D01*
X59462Y-46285D01*
X59502Y-46285D01*
X59528Y-46276D01*
X59542Y-46268D01*
X59555Y-46250D01*
X59555Y-46182D01*
X59688Y-46456D02*
X59688Y-46353D01*
X59688Y-46405D02*
X59408Y-46405D01*
X59448Y-46388D01*
X59475Y-46370D01*
X59488Y-46353D01*
X59435Y-46524D02*
X59422Y-46533D01*
X59408Y-46550D01*
X59408Y-46593D01*
X59422Y-46610D01*
X59435Y-46619D01*
X59462Y-46627D01*
X59488Y-46627D01*
X59528Y-46619D01*
X59688Y-46516D01*
X59688Y-46627D01*
X53871Y-46457D02*
X53880Y-46470D01*
X53906Y-46483D01*
X53923Y-46483D01*
X53948Y-46470D01*
X53966Y-46443D01*
X53974Y-46417D01*
X53983Y-46363D01*
X53983Y-46323D01*
X53974Y-46270D01*
X53966Y-46243D01*
X53948Y-46217D01*
X53923Y-46203D01*
X53906Y-46203D01*
X53880Y-46217D01*
X53871Y-46230D01*
X53708Y-46203D02*
X53794Y-46203D01*
X53803Y-46337D01*
X53794Y-46323D01*
X53777Y-46310D01*
X53734Y-46310D01*
X53717Y-46323D01*
X53708Y-46337D01*
X53700Y-46363D01*
X53700Y-46430D01*
X53708Y-46457D01*
X53717Y-46470D01*
X53734Y-46483D01*
X53777Y-46483D01*
X53794Y-46470D01*
X53803Y-46457D01*
X53640Y-46203D02*
X53520Y-46203D01*
X53597Y-46483D01*
X52700Y-47062D02*
X52567Y-47002D01*
X52700Y-46959D02*
X52420Y-46959D01*
X52420Y-47027D01*
X52434Y-47045D01*
X52447Y-47053D01*
X52474Y-47062D01*
X52514Y-47062D01*
X52540Y-47053D01*
X52554Y-47045D01*
X52567Y-47027D01*
X52567Y-46959D01*
X52514Y-47216D02*
X52700Y-47216D01*
X52407Y-47173D02*
X52607Y-47130D01*
X52607Y-47242D01*
X59738Y-48932D02*
X59798Y-48799D01*
X59841Y-48932D02*
X59841Y-48652D01*
X59773Y-48652D01*
X59755Y-48666D01*
X59747Y-48679D01*
X59738Y-48706D01*
X59738Y-48746D01*
X59747Y-48772D01*
X59755Y-48786D01*
X59773Y-48799D01*
X59841Y-48799D01*
X59575Y-48652D02*
X59661Y-48652D01*
X59670Y-48786D01*
X59661Y-48772D01*
X59644Y-48759D01*
X59601Y-48759D01*
X59584Y-48772D01*
X59575Y-48786D01*
X59567Y-48812D01*
X59567Y-48879D01*
X59575Y-48906D01*
X59584Y-48919D01*
X59601Y-48932D01*
X59644Y-48932D01*
X59661Y-48919D01*
X59670Y-48906D01*
X57550Y-34633D02*
X57417Y-34573D01*
X57550Y-34530D02*
X57270Y-34530D01*
X57270Y-34598D01*
X57284Y-34616D01*
X57297Y-34624D01*
X57324Y-34633D01*
X57364Y-34633D01*
X57390Y-34624D01*
X57404Y-34616D01*
X57417Y-34598D01*
X57417Y-34530D01*
X57270Y-34693D02*
X57270Y-34804D01*
X57377Y-34744D01*
X57377Y-34770D01*
X57390Y-34787D01*
X57404Y-34796D01*
X57430Y-34804D01*
X57497Y-34804D01*
X57524Y-34796D01*
X57537Y-34787D01*
X57550Y-34770D01*
X57550Y-34718D01*
X57537Y-34701D01*
X57524Y-34693D01*
X57270Y-34967D02*
X57270Y-34881D01*
X57404Y-34872D01*
X57390Y-34881D01*
X57377Y-34898D01*
X57377Y-34941D01*
X57390Y-34958D01*
X57404Y-34967D01*
X57430Y-34975D01*
X57497Y-34975D01*
X57524Y-34967D01*
X57537Y-34958D01*
X57550Y-34941D01*
X57550Y-34898D01*
X57537Y-34881D01*
X57524Y-34872D01*
X58700Y-35515D02*
X58567Y-35455D01*
X58700Y-35412D02*
X58420Y-35412D01*
X58420Y-35480D01*
X58434Y-35498D01*
X58447Y-35506D01*
X58474Y-35515D01*
X58514Y-35515D01*
X58540Y-35506D01*
X58554Y-35498D01*
X58567Y-35480D01*
X58567Y-35412D01*
X58420Y-35575D02*
X58420Y-35686D01*
X58527Y-35626D01*
X58527Y-35652D01*
X58540Y-35669D01*
X58554Y-35678D01*
X58580Y-35686D01*
X58647Y-35686D01*
X58674Y-35678D01*
X58687Y-35669D01*
X58700Y-35652D01*
X58700Y-35600D01*
X58687Y-35583D01*
X58674Y-35575D01*
X58514Y-35840D02*
X58700Y-35840D01*
X58407Y-35797D02*
X58607Y-35754D01*
X58607Y-35866D01*
X60099Y-38802D02*
X60159Y-38669D01*
X60202Y-38802D02*
X60202Y-38522D01*
X60134Y-38522D01*
X60116Y-38536D01*
X60108Y-38549D01*
X60099Y-38576D01*
X60099Y-38616D01*
X60108Y-38642D01*
X60116Y-38656D01*
X60134Y-38669D01*
X60202Y-38669D01*
X60039Y-38522D02*
X59928Y-38522D01*
X59988Y-38629D01*
X59962Y-38629D01*
X59945Y-38642D01*
X59936Y-38656D01*
X59928Y-38682D01*
X59928Y-38749D01*
X59936Y-38776D01*
X59945Y-38789D01*
X59962Y-38802D01*
X60014Y-38802D01*
X60031Y-38789D01*
X60039Y-38776D01*
X59868Y-38522D02*
X59757Y-38522D01*
X59817Y-38629D01*
X59791Y-38629D01*
X59774Y-38642D01*
X59765Y-38656D01*
X59757Y-38682D01*
X59757Y-38749D01*
X59765Y-38776D01*
X59774Y-38789D01*
X59791Y-38802D01*
X59843Y-38802D01*
X59860Y-38789D01*
X59868Y-38776D01*
M02*
