G04 (created by PCBNEW-RS274X (2011-01-25 BZR 2758)-stable) date Fri 15 Apr 2011 01:28:21 PM COT*
G01*
G70*
G90*
%MOIN*%
G04 Gerber Fmt 3.4, Leading zero omitted, Abs format*
%FSLAX34Y34*%
G04 APERTURE LIST*
%ADD10C,0.006000*%
%ADD11C,0.066000*%
%ADD12C,0.076000*%
%ADD13R,0.035000X0.008000*%
%ADD14R,0.008000X0.035000*%
%ADD15R,0.026000X0.062000*%
%ADD16R,0.062000X0.054000*%
%ADD17R,0.046000X0.086000*%
%ADD18R,0.046000X0.054000*%
%ADD19R,0.060000X0.060000*%
%ADD20C,0.060000*%
%ADD21O,0.085900X0.171900*%
%ADD22R,0.025000X0.045000*%
%ADD23R,0.031400X0.031400*%
%ADD24R,0.060000X0.080000*%
%ADD25R,0.080000X0.060000*%
%ADD26R,0.045000X0.025000*%
%ADD27R,0.011800X0.027500*%
%ADD28C,0.019700*%
%ADD29C,0.007900*%
%ADD30C,0.011800*%
%ADD31C,0.015700*%
G04 APERTURE END LIST*
G54D10*
G54D11*
X54809Y-50218D03*
X56579Y-50218D03*
G54D12*
X54309Y-49238D03*
X57069Y-49238D03*
G54D13*
X57919Y-43054D03*
G54D14*
X57228Y-37495D03*
G54D13*
X51669Y-38186D03*
G54D14*
X52360Y-43745D03*
G54D13*
X57919Y-42897D03*
G54D14*
X57071Y-37495D03*
G54D13*
X51669Y-38343D03*
G54D14*
X52517Y-43745D03*
G54D13*
X57919Y-42740D03*
G54D14*
X56914Y-37495D03*
G54D13*
X51669Y-38500D03*
G54D14*
X52674Y-43745D03*
G54D13*
X57919Y-42583D03*
G54D14*
X56757Y-37495D03*
G54D13*
X51669Y-38657D03*
G54D14*
X52831Y-43745D03*
G54D13*
X57919Y-42426D03*
G54D14*
X56600Y-37495D03*
G54D13*
X51669Y-38814D03*
G54D14*
X52988Y-43745D03*
G54D13*
X57919Y-42269D03*
G54D14*
X56443Y-37495D03*
G54D13*
X51669Y-38971D03*
G54D14*
X53145Y-43745D03*
G54D13*
X57919Y-42112D03*
G54D14*
X56286Y-37495D03*
G54D13*
X51669Y-39128D03*
G54D14*
X53302Y-43745D03*
G54D13*
X57919Y-41955D03*
G54D14*
X56129Y-37495D03*
G54D13*
X51669Y-39285D03*
G54D14*
X53459Y-43745D03*
G54D13*
X57919Y-41798D03*
G54D14*
X55972Y-37495D03*
G54D13*
X51669Y-39442D03*
G54D14*
X53616Y-43745D03*
G54D13*
X57919Y-41641D03*
G54D14*
X55815Y-37495D03*
G54D13*
X51669Y-39599D03*
G54D14*
X53773Y-43745D03*
G54D13*
X57919Y-41484D03*
G54D14*
X55658Y-37495D03*
G54D13*
X51669Y-39756D03*
G54D14*
X53930Y-43745D03*
G54D13*
X57919Y-41327D03*
G54D14*
X55501Y-37495D03*
G54D13*
X51669Y-39913D03*
G54D14*
X54087Y-43745D03*
G54D13*
X57919Y-41170D03*
G54D14*
X55344Y-37495D03*
G54D13*
X51669Y-40070D03*
G54D14*
X54244Y-43745D03*
G54D13*
X57919Y-41013D03*
G54D14*
X55187Y-37495D03*
G54D13*
X51669Y-40227D03*
G54D14*
X54401Y-43745D03*
G54D13*
X57919Y-40856D03*
G54D14*
X55030Y-37495D03*
G54D13*
X51669Y-40384D03*
G54D14*
X54558Y-43745D03*
G54D13*
X57919Y-40699D03*
G54D14*
X54873Y-37495D03*
G54D13*
X51669Y-40541D03*
G54D14*
X54715Y-43745D03*
G54D13*
X57919Y-40542D03*
G54D14*
X54716Y-37495D03*
G54D13*
X51669Y-40698D03*
G54D14*
X54872Y-43745D03*
G54D13*
X57919Y-40385D03*
G54D14*
X54559Y-37495D03*
G54D13*
X51669Y-40855D03*
G54D14*
X55029Y-43745D03*
G54D13*
X57919Y-40228D03*
G54D14*
X54402Y-37495D03*
G54D13*
X51669Y-41012D03*
G54D14*
X55186Y-43745D03*
G54D13*
X57919Y-40071D03*
G54D14*
X54245Y-37495D03*
G54D13*
X51669Y-41169D03*
G54D14*
X55343Y-43745D03*
G54D13*
X57919Y-39914D03*
G54D14*
X54088Y-37495D03*
G54D13*
X51669Y-41326D03*
G54D14*
X55500Y-43745D03*
G54D13*
X57919Y-39757D03*
G54D14*
X53931Y-37495D03*
G54D13*
X51669Y-41483D03*
G54D14*
X55657Y-43745D03*
G54D13*
X57919Y-39600D03*
G54D14*
X53774Y-37495D03*
G54D13*
X51669Y-41640D03*
G54D14*
X55814Y-43745D03*
G54D13*
X57919Y-39443D03*
G54D14*
X53617Y-37495D03*
G54D13*
X51669Y-41797D03*
G54D14*
X55971Y-43745D03*
G54D13*
X57919Y-39286D03*
G54D14*
X53460Y-37495D03*
G54D13*
X51669Y-41954D03*
G54D14*
X56128Y-43745D03*
G54D13*
X57919Y-39129D03*
G54D14*
X53303Y-37495D03*
G54D13*
X51669Y-42111D03*
G54D14*
X56285Y-43745D03*
G54D13*
X57919Y-38972D03*
G54D14*
X53146Y-37495D03*
G54D13*
X51669Y-42268D03*
G54D14*
X56442Y-43745D03*
G54D13*
X57919Y-38815D03*
G54D14*
X52989Y-37495D03*
G54D13*
X51669Y-42425D03*
G54D14*
X56599Y-43745D03*
G54D13*
X57919Y-38658D03*
G54D14*
X52832Y-37495D03*
G54D13*
X51669Y-42582D03*
G54D14*
X56756Y-43745D03*
G54D13*
X57919Y-38501D03*
G54D14*
X52675Y-37495D03*
G54D13*
X51669Y-42739D03*
G54D14*
X56913Y-43745D03*
G54D13*
X57919Y-38344D03*
G54D14*
X52518Y-37495D03*
G54D13*
X51669Y-42896D03*
G54D14*
X57070Y-43745D03*
G54D13*
X57919Y-38187D03*
G54D14*
X52361Y-37495D03*
G54D13*
X51669Y-43053D03*
G54D14*
X57227Y-43745D03*
G54D15*
X60440Y-37321D03*
X60870Y-37321D03*
X61300Y-37321D03*
X61740Y-37321D03*
X62170Y-37321D03*
X62600Y-37321D03*
X63040Y-37321D03*
X63470Y-37321D03*
X63900Y-37321D03*
G54D16*
X58630Y-37121D03*
G54D17*
X58270Y-33341D03*
X64370Y-33341D03*
G54D18*
X64380Y-37121D03*
G54D19*
X48039Y-49886D03*
G54D20*
X47039Y-49886D03*
G54D19*
X54004Y-32197D03*
G54D20*
X55004Y-32197D03*
G54D19*
X56146Y-33366D03*
G54D20*
X57146Y-33366D03*
G54D19*
X56220Y-32224D03*
G54D20*
X57220Y-32224D03*
G54D21*
X46524Y-33307D03*
X47705Y-35196D03*
X48886Y-33307D03*
G54D22*
X66153Y-34224D03*
X66753Y-34224D03*
X66761Y-34898D03*
X66161Y-34898D03*
X46306Y-46803D03*
X46906Y-46803D03*
G54D19*
X63256Y-50256D03*
G54D20*
X64256Y-50256D03*
X65256Y-50256D03*
X66256Y-50256D03*
G54D23*
X66146Y-33480D03*
X66736Y-33480D03*
X66177Y-35555D03*
X66767Y-35555D03*
X46347Y-47492D03*
X46937Y-47492D03*
X59319Y-45307D03*
X59319Y-45897D03*
G54D22*
X49540Y-44102D03*
X48940Y-44102D03*
G54D19*
X46793Y-37553D03*
G54D20*
X47793Y-37553D03*
X46793Y-38553D03*
X47793Y-38553D03*
X46793Y-39553D03*
X47793Y-39553D03*
X46793Y-40553D03*
X47793Y-40553D03*
X46793Y-41553D03*
X47793Y-41553D03*
X46793Y-42553D03*
X47793Y-42553D03*
X46793Y-43553D03*
X47793Y-43553D03*
X46793Y-44553D03*
X47793Y-44553D03*
G54D19*
X65651Y-36797D03*
G54D20*
X66651Y-36797D03*
X65651Y-37797D03*
X66651Y-37797D03*
X65651Y-38797D03*
X66651Y-38797D03*
X65651Y-39797D03*
X66651Y-39797D03*
X65651Y-40797D03*
X66651Y-40797D03*
X65651Y-41797D03*
X66651Y-41797D03*
X65651Y-42797D03*
X66651Y-42797D03*
X65651Y-43797D03*
X66651Y-43797D03*
X65651Y-44797D03*
X66651Y-44797D03*
X65651Y-45797D03*
X66651Y-45797D03*
X65651Y-46797D03*
X66651Y-46797D03*
X65651Y-47797D03*
X66651Y-47797D03*
G54D22*
X62454Y-40795D03*
X61854Y-40795D03*
G54D11*
X59029Y-50218D03*
X60799Y-50218D03*
G54D12*
X58529Y-49238D03*
X61289Y-49238D03*
G54D11*
X50494Y-50218D03*
X52264Y-50218D03*
G54D12*
X49994Y-49238D03*
X52754Y-49238D03*
G54D24*
X49844Y-46595D03*
X51144Y-46595D03*
X52144Y-47095D03*
X53444Y-47095D03*
X49269Y-45545D03*
X47969Y-45545D03*
G54D25*
X58809Y-43348D03*
X58809Y-44648D03*
G54D26*
X56319Y-45220D03*
X56319Y-45820D03*
X54394Y-45220D03*
X54394Y-45820D03*
X53144Y-45220D03*
X53144Y-45820D03*
G54D22*
X52619Y-46295D03*
X53219Y-46295D03*
G54D26*
X52519Y-45195D03*
X52519Y-45795D03*
X49969Y-45245D03*
X49969Y-45845D03*
X51244Y-45245D03*
X51244Y-45845D03*
X53769Y-45220D03*
X53769Y-45820D03*
X50619Y-45245D03*
X50619Y-45845D03*
X51894Y-45170D03*
X51894Y-45770D03*
G54D22*
X49569Y-42020D03*
X48969Y-42020D03*
G54D26*
X55044Y-45220D03*
X55044Y-45820D03*
G54D22*
X49494Y-44745D03*
X48894Y-44745D03*
G54D26*
X60860Y-43678D03*
X60860Y-44278D03*
X60234Y-43717D03*
X60234Y-44317D03*
G54D22*
X49585Y-43269D03*
X48985Y-43269D03*
X55054Y-36712D03*
X55654Y-36712D03*
X49569Y-42645D03*
X48969Y-42645D03*
G54D26*
X59620Y-43741D03*
X59620Y-44341D03*
X58793Y-48058D03*
X58793Y-47458D03*
X62789Y-45190D03*
X62789Y-45790D03*
G54D22*
X64786Y-45852D03*
X64186Y-45852D03*
G54D26*
X61509Y-45178D03*
X61509Y-45778D03*
X63438Y-45439D03*
X63438Y-44839D03*
X60911Y-45770D03*
X60911Y-45170D03*
X60269Y-45770D03*
X60269Y-45170D03*
X62159Y-45190D03*
X62159Y-45790D03*
X55277Y-47151D03*
X55277Y-47751D03*
G54D22*
X54731Y-47132D03*
X54131Y-47132D03*
X54746Y-47738D03*
X54146Y-47738D03*
G54D26*
X58112Y-48093D03*
X58112Y-47493D03*
X55694Y-45220D03*
X55694Y-45820D03*
X56938Y-45832D03*
X56938Y-46432D03*
G54D22*
X54319Y-46495D03*
X54919Y-46495D03*
G54D19*
X63777Y-46730D03*
G54D20*
X63777Y-47730D03*
X62777Y-46730D03*
X62777Y-47730D03*
X61777Y-46730D03*
X61777Y-47730D03*
X60777Y-46730D03*
X60777Y-47730D03*
X59777Y-46730D03*
X59777Y-47730D03*
G54D19*
X63236Y-49114D03*
G54D20*
X64236Y-49114D03*
X65236Y-49114D03*
X66236Y-49114D03*
G54D19*
X48718Y-46730D03*
G54D20*
X48718Y-47730D03*
G54D27*
X56375Y-46644D03*
X56120Y-46644D03*
X55865Y-46644D03*
X55865Y-47272D03*
X56120Y-47272D03*
X56375Y-47272D03*
G54D28*
X50557Y-40328D03*
X51616Y-37128D03*
X51627Y-36836D03*
X49827Y-39240D03*
X49738Y-36754D03*
X50246Y-36974D03*
X50498Y-36825D03*
X50773Y-36628D03*
X51061Y-40124D03*
X52252Y-36094D03*
X56828Y-39014D03*
X56627Y-39238D03*
X54217Y-38083D03*
X53941Y-38106D03*
X53406Y-37976D03*
X56610Y-35776D03*
X53228Y-38181D03*
X55094Y-39189D03*
X54799Y-39193D03*
X54339Y-39480D03*
X54328Y-36584D03*
X54616Y-37136D03*
X56390Y-38205D03*
X61457Y-33524D03*
X61071Y-38059D03*
X62890Y-38043D03*
X61957Y-33421D03*
X60591Y-38276D03*
X63173Y-38197D03*
X58717Y-38079D03*
X58732Y-38421D03*
X60575Y-37976D03*
X57846Y-33937D03*
X49978Y-39462D03*
X51218Y-38285D03*
X49551Y-39213D03*
X49498Y-36549D03*
X49978Y-36549D03*
X50864Y-40325D03*
X52118Y-38850D03*
X52088Y-38242D03*
X52339Y-39366D03*
X53169Y-36331D03*
X53665Y-38154D03*
X56438Y-39025D03*
X55791Y-39193D03*
X55394Y-39177D03*
X54179Y-36821D03*
X53592Y-36573D03*
X55561Y-37145D03*
X52108Y-38521D03*
X52297Y-40116D03*
X61244Y-35386D03*
X59297Y-38762D03*
X64820Y-38348D03*
X58474Y-38543D03*
X65049Y-37801D03*
X58690Y-38726D03*
X63705Y-37787D03*
X59094Y-37744D03*
X63689Y-36843D03*
X62291Y-36618D03*
X62063Y-36831D03*
X60647Y-35088D03*
X57457Y-44047D03*
X57528Y-43764D03*
X63657Y-43630D03*
X61366Y-43543D03*
X60293Y-43029D03*
X61697Y-43705D03*
X63358Y-43705D03*
X63835Y-44929D03*
X60331Y-42760D03*
X61787Y-44697D03*
X61012Y-46142D03*
X60567Y-42622D03*
X61283Y-44764D03*
X61543Y-44094D03*
X62197Y-43957D03*
X59965Y-42370D03*
X60307Y-42154D03*
X60146Y-41937D03*
X60358Y-41720D03*
X60622Y-41504D03*
X57293Y-41722D03*
X57415Y-40935D03*
X54139Y-44825D03*
X53813Y-44758D03*
X55683Y-44368D03*
X57772Y-44583D03*
X58051Y-44445D03*
X50130Y-42323D03*
X48407Y-42277D03*
X50057Y-43521D03*
X50852Y-43285D03*
X52072Y-41675D03*
X52442Y-41943D03*
X52218Y-43076D03*
X50236Y-41230D03*
X49803Y-41398D03*
X50374Y-41661D03*
X51146Y-41882D03*
X49941Y-42122D03*
X61984Y-50154D03*
X60713Y-49681D03*
X60469Y-48524D03*
X60677Y-48343D03*
X56183Y-44612D03*
X55600Y-46250D03*
X56976Y-45504D03*
X56399Y-44836D03*
X55724Y-48020D03*
X56004Y-48681D03*
X56835Y-48681D03*
X54797Y-44852D03*
X66976Y-49965D03*
X60598Y-44839D03*
X59394Y-35378D03*
X64024Y-36626D03*
X59846Y-49795D03*
X57866Y-49846D03*
X55551Y-49417D03*
X54780Y-48189D03*
X57898Y-43488D03*
X55344Y-36358D03*
X53568Y-44258D03*
X55273Y-46199D03*
X57557Y-38510D03*
X63541Y-32388D03*
X59777Y-34191D03*
X53320Y-35809D03*
X53785Y-35769D03*
X56903Y-35923D03*
X56131Y-39403D03*
X54627Y-39415D03*
X62801Y-36612D03*
X53726Y-47785D03*
X54750Y-41112D03*
X54600Y-41632D03*
X55019Y-43070D03*
X51369Y-44420D03*
X54717Y-44358D03*
X59772Y-45894D03*
X55316Y-48171D03*
X55372Y-48840D03*
X52411Y-44439D03*
X51769Y-44120D03*
X59324Y-48482D03*
X53742Y-48147D03*
X58639Y-40612D03*
X59171Y-40675D03*
X63777Y-45860D03*
X61280Y-46457D03*
X52734Y-42923D03*
X47039Y-49366D03*
X47024Y-48928D03*
X49970Y-44586D03*
X51840Y-43671D03*
X53163Y-43297D03*
X51576Y-43521D03*
X52431Y-43248D03*
X54212Y-43021D03*
X53907Y-42982D03*
X52131Y-43415D03*
X50423Y-43228D03*
X52883Y-42175D03*
X55718Y-42421D03*
X57480Y-42736D03*
X57273Y-42460D03*
X55301Y-42395D03*
X52584Y-42187D03*
X51003Y-42736D03*
X50144Y-43220D03*
X50498Y-42699D03*
X63958Y-45360D03*
X62679Y-44742D03*
X58823Y-45413D03*
X58961Y-45874D03*
X61189Y-48165D03*
X63106Y-43248D03*
X62713Y-43252D03*
X58732Y-32433D03*
X65378Y-33646D03*
X59772Y-45106D03*
X61740Y-36839D03*
X61013Y-36712D03*
X65311Y-36012D03*
X65047Y-36280D03*
X61535Y-38488D03*
X61909Y-38488D03*
X60629Y-36545D03*
X52933Y-41634D03*
X53887Y-41614D03*
X57151Y-40715D03*
X57313Y-40553D03*
X52627Y-41620D03*
X54250Y-41620D03*
X54217Y-33579D03*
X55677Y-34417D03*
X57435Y-39071D03*
X57083Y-38559D03*
X55244Y-37846D03*
X54346Y-37846D03*
X55738Y-40531D03*
X55887Y-40305D03*
X54120Y-35758D03*
X54564Y-35750D03*
X56139Y-36600D03*
X56935Y-38309D03*
X56931Y-41372D03*
X56478Y-42840D03*
X57435Y-39348D03*
X54053Y-36576D03*
X53907Y-43269D03*
X52775Y-44576D03*
X52765Y-44321D03*
X50167Y-44785D03*
X53549Y-44655D03*
X53370Y-44465D03*
X52954Y-42443D03*
X57378Y-45441D03*
G54D29*
X51669Y-39913D02*
X50968Y-39913D01*
X50557Y-40324D02*
X50557Y-40328D01*
X50968Y-39913D02*
X50557Y-40324D01*
X51669Y-37181D02*
X51669Y-38186D01*
X51616Y-37128D02*
X51669Y-37181D01*
X52361Y-37495D02*
X52286Y-37495D01*
X52286Y-37495D02*
X51627Y-36836D01*
X51669Y-39599D02*
X50434Y-39599D01*
X50075Y-39240D02*
X49827Y-39240D01*
X50434Y-39599D02*
X50075Y-39240D01*
X50643Y-39128D02*
X51669Y-39128D01*
X49750Y-38235D02*
X50643Y-39128D01*
X49750Y-36766D02*
X49750Y-38235D01*
X49738Y-36754D02*
X49750Y-36766D01*
X50873Y-38814D02*
X51669Y-38814D01*
X50253Y-38194D02*
X50873Y-38814D01*
X50253Y-36981D02*
X50253Y-38194D01*
X50246Y-36974D02*
X50253Y-36981D01*
X51669Y-38653D02*
X51669Y-38657D01*
X50976Y-38653D02*
X51669Y-38653D01*
X50494Y-38171D02*
X50976Y-38653D01*
X50494Y-36829D02*
X50494Y-38171D01*
X50498Y-36825D02*
X50494Y-36829D01*
X51098Y-38500D02*
X51669Y-38500D01*
X50750Y-38152D02*
X51098Y-38500D01*
X50750Y-36651D02*
X50750Y-38152D01*
X50773Y-36628D02*
X50750Y-36651D01*
X51669Y-40384D02*
X51321Y-40384D01*
X51321Y-40384D02*
X51061Y-40124D01*
X52258Y-36100D02*
X52252Y-36094D01*
X56757Y-36572D02*
X56745Y-36572D01*
X56757Y-36573D02*
X56757Y-36572D01*
X54844Y-35986D02*
X54730Y-36100D01*
X56159Y-35986D02*
X54844Y-35986D01*
X56745Y-36572D02*
X56159Y-35986D01*
X54730Y-36100D02*
X52258Y-36100D01*
X56757Y-36573D02*
X56757Y-36573D01*
X56757Y-36573D02*
X56757Y-37495D01*
X55976Y-37495D02*
X55972Y-37495D01*
X55976Y-38166D02*
X55976Y-37495D01*
X56828Y-39014D02*
X55976Y-38166D01*
X56179Y-39065D02*
X56179Y-39081D01*
X56336Y-39238D02*
X56627Y-39238D01*
X56179Y-39081D02*
X56336Y-39238D01*
X55658Y-38544D02*
X56179Y-39065D01*
X55658Y-37495D02*
X55658Y-38544D01*
X53931Y-37495D02*
X53931Y-37797D01*
X53931Y-37797D02*
X54217Y-38083D01*
X53774Y-37495D02*
X53774Y-37947D01*
X53933Y-38106D02*
X53941Y-38106D01*
X53774Y-37947D02*
X53933Y-38106D01*
X53770Y-37493D02*
X53774Y-37495D01*
X53303Y-37495D02*
X53303Y-37873D01*
X53303Y-37873D02*
X53406Y-37976D01*
X52989Y-37154D02*
X52031Y-36196D01*
X52031Y-36196D02*
X52031Y-35996D01*
X52031Y-35996D02*
X52492Y-35535D01*
X52492Y-35535D02*
X55563Y-35535D01*
X52989Y-37154D02*
X52989Y-37495D01*
X55563Y-35544D02*
X55563Y-35535D01*
X55795Y-35776D02*
X55563Y-35544D01*
X56610Y-35776D02*
X55795Y-35776D01*
X53146Y-37495D02*
X53146Y-38099D01*
X53146Y-38099D02*
X53228Y-38181D01*
X54873Y-38879D02*
X54873Y-38968D01*
X54873Y-37495D02*
X54873Y-38879D01*
X54873Y-38968D02*
X55094Y-39189D01*
X54716Y-39020D02*
X54716Y-39110D01*
X54716Y-39110D02*
X54799Y-39193D01*
X54716Y-37495D02*
X54716Y-39020D01*
X54716Y-39020D02*
X54716Y-39023D01*
X54354Y-39056D02*
X54559Y-38851D01*
X54354Y-39465D02*
X54354Y-39056D01*
X54339Y-39480D02*
X54354Y-39465D01*
X54559Y-37495D02*
X54559Y-38851D01*
X54402Y-37495D02*
X54402Y-36658D01*
X54402Y-36658D02*
X54328Y-36584D01*
X55191Y-37274D02*
X55187Y-37274D01*
X55092Y-37175D02*
X55191Y-37274D01*
X54655Y-37175D02*
X55092Y-37175D01*
X54616Y-37136D02*
X54655Y-37175D01*
X55187Y-37495D02*
X55187Y-37274D01*
X55187Y-37274D02*
X55187Y-37274D01*
X55183Y-37495D02*
X55187Y-37495D01*
X56286Y-37495D02*
X56286Y-38101D01*
X56286Y-38101D02*
X56390Y-38205D01*
X63040Y-37321D02*
X63040Y-35107D01*
X63040Y-35107D02*
X61457Y-33524D01*
X59425Y-39757D02*
X61071Y-38111D01*
X61071Y-38111D02*
X61071Y-38059D01*
X57919Y-39757D02*
X59425Y-39757D01*
X63040Y-37893D02*
X63040Y-37321D01*
X62890Y-38043D02*
X63040Y-37893D01*
X57919Y-39761D02*
X57919Y-39757D01*
X63470Y-37321D02*
X63470Y-34934D01*
X63470Y-34934D02*
X61957Y-33421D01*
X59267Y-39600D02*
X60591Y-38276D01*
X57919Y-39600D02*
X59267Y-39600D01*
X63470Y-37900D02*
X63470Y-37321D01*
X63173Y-38197D02*
X63470Y-37900D01*
X58815Y-38177D02*
X58717Y-38079D01*
X57919Y-39286D02*
X59080Y-39286D01*
X59614Y-38527D02*
X59264Y-38177D01*
X59614Y-38752D02*
X59614Y-38527D01*
X59080Y-39286D02*
X59614Y-38752D01*
X59264Y-38177D02*
X58815Y-38177D01*
X57919Y-39290D02*
X57919Y-39286D01*
X57919Y-38976D02*
X57919Y-38972D01*
X58812Y-38976D02*
X57919Y-38976D01*
X58933Y-38855D02*
X58812Y-38976D01*
X58933Y-38622D02*
X58933Y-38855D01*
X58732Y-38421D02*
X58933Y-38622D01*
X60870Y-37681D02*
X60575Y-37976D01*
X60870Y-37321D02*
X60870Y-37681D01*
X57787Y-32791D02*
X57220Y-32224D01*
X57787Y-33878D02*
X57787Y-32791D01*
X57846Y-33937D02*
X57787Y-33878D01*
X51669Y-39756D02*
X50272Y-39756D01*
X50272Y-39756D02*
X49978Y-39462D01*
X51669Y-38343D02*
X51276Y-38343D01*
X51276Y-38343D02*
X51218Y-38285D01*
X51669Y-38343D02*
X51446Y-38343D01*
X51669Y-39442D02*
X50493Y-39442D01*
X49756Y-39008D02*
X49551Y-39213D01*
X50059Y-39008D02*
X49756Y-39008D01*
X50493Y-39442D02*
X50059Y-39008D01*
X51669Y-39285D02*
X50565Y-39285D01*
X49498Y-38218D02*
X49498Y-36549D01*
X50565Y-39285D02*
X49498Y-38218D01*
X51669Y-38971D02*
X50805Y-38971D01*
X49978Y-38144D02*
X49978Y-36549D01*
X50805Y-38971D02*
X49978Y-38144D01*
X51669Y-40541D02*
X51080Y-40541D01*
X51080Y-40541D02*
X50864Y-40325D01*
X52836Y-37495D02*
X52832Y-37495D01*
X52836Y-38132D02*
X52836Y-37495D01*
X52118Y-38850D02*
X52836Y-38132D01*
X52518Y-37812D02*
X52518Y-37495D01*
X52088Y-38242D02*
X52518Y-37812D01*
X51669Y-40231D02*
X51669Y-40227D01*
X52098Y-40231D02*
X51669Y-40231D01*
X52213Y-40346D02*
X52098Y-40231D01*
X52390Y-40346D02*
X52213Y-40346D01*
X52524Y-40212D02*
X52390Y-40346D01*
X52524Y-39961D02*
X52524Y-40212D01*
X52354Y-39791D02*
X52524Y-39961D01*
X52354Y-39381D02*
X52354Y-39791D01*
X52339Y-39366D02*
X52354Y-39381D01*
X54225Y-36344D02*
X53182Y-36344D01*
X56104Y-36147D02*
X56604Y-36647D01*
X56600Y-36647D02*
X56604Y-36647D01*
X54225Y-36344D02*
X54785Y-36344D01*
X54982Y-36147D02*
X56100Y-36147D01*
X54785Y-36344D02*
X54982Y-36147D01*
X56100Y-36147D02*
X56104Y-36147D01*
X53182Y-36344D02*
X53169Y-36331D01*
X56600Y-36651D02*
X56600Y-36647D01*
X56600Y-36647D02*
X56600Y-36651D01*
X56600Y-36651D02*
X56600Y-37495D01*
X53460Y-37495D02*
X53460Y-37719D01*
X53618Y-38107D02*
X53665Y-38154D01*
X53618Y-37877D02*
X53618Y-38107D01*
X53460Y-37719D02*
X53618Y-37877D01*
X56238Y-38821D02*
X56238Y-38825D01*
X56238Y-38821D02*
X55815Y-38398D01*
X55815Y-37495D02*
X55815Y-38398D01*
X56238Y-38825D02*
X56438Y-39025D01*
X55501Y-38906D02*
X55504Y-38906D01*
X55501Y-37495D02*
X55501Y-38906D01*
X55504Y-38906D02*
X55791Y-39193D01*
X55030Y-38747D02*
X55030Y-38813D01*
X55030Y-37495D02*
X55030Y-38747D01*
X55030Y-38813D02*
X55394Y-39177D01*
X54245Y-37495D02*
X54245Y-36887D01*
X54245Y-36887D02*
X54179Y-36821D01*
X53617Y-36598D02*
X53617Y-37495D01*
X53592Y-36573D02*
X53617Y-36598D01*
X56129Y-37495D02*
X56129Y-37262D01*
X56012Y-37145D02*
X55561Y-37145D01*
X56129Y-37262D02*
X56012Y-37145D01*
X52675Y-37495D02*
X52675Y-37954D01*
X52675Y-37954D02*
X52108Y-38521D01*
X51669Y-40070D02*
X52251Y-40070D01*
X52251Y-40070D02*
X52297Y-40116D01*
X48309Y-38069D02*
X47793Y-37553D01*
X51669Y-40855D02*
X49252Y-40855D01*
X48745Y-40348D02*
X48309Y-39912D01*
X48309Y-39912D02*
X48309Y-38069D01*
X49252Y-40855D02*
X48745Y-40348D01*
X49402Y-40698D02*
X48883Y-40179D01*
X51669Y-40698D02*
X50521Y-40698D01*
X48883Y-40179D02*
X48470Y-39766D01*
X50521Y-40698D02*
X49402Y-40698D01*
X48470Y-37462D02*
X48470Y-37447D01*
X48470Y-39766D02*
X48470Y-37462D01*
X47224Y-37122D02*
X46793Y-37553D01*
X48145Y-37122D02*
X47224Y-37122D01*
X48470Y-37447D02*
X48145Y-37122D01*
X60440Y-37321D02*
X60440Y-36712D01*
X61004Y-35386D02*
X61244Y-35386D01*
X60268Y-36122D02*
X61004Y-35386D01*
X60268Y-36540D02*
X60268Y-36122D01*
X60440Y-36712D02*
X60268Y-36540D01*
X57919Y-39443D02*
X59172Y-39443D01*
X60268Y-37493D02*
X60440Y-37321D01*
X60268Y-38347D02*
X60268Y-37493D01*
X59172Y-39443D02*
X60268Y-38347D01*
X57919Y-39129D02*
X58930Y-39129D01*
X58930Y-39129D02*
X59297Y-38762D01*
X64809Y-36836D02*
X64809Y-36136D01*
X65390Y-35555D02*
X66177Y-35555D01*
X64809Y-36136D02*
X65390Y-35555D01*
X64820Y-38348D02*
X64809Y-38337D01*
X64809Y-38337D02*
X64809Y-36836D01*
X64809Y-36836D02*
X65376Y-36269D01*
X65376Y-36269D02*
X66123Y-36269D01*
X66651Y-36797D02*
X66123Y-36269D01*
X58290Y-38658D02*
X57919Y-38658D01*
X58359Y-38658D02*
X58290Y-38658D01*
X58474Y-38543D02*
X58359Y-38658D01*
X57919Y-38815D02*
X58601Y-38815D01*
X65017Y-37431D02*
X65651Y-36797D01*
X65017Y-37769D02*
X65017Y-37431D01*
X65049Y-37801D02*
X65017Y-37769D01*
X58601Y-38815D02*
X58690Y-38726D01*
X57919Y-38187D02*
X57971Y-38187D01*
X63705Y-37787D02*
X63900Y-37592D01*
X63900Y-37592D02*
X63900Y-37321D01*
X58414Y-37744D02*
X59094Y-37744D01*
X57971Y-38187D02*
X58414Y-37744D01*
X63900Y-36872D02*
X63900Y-37321D01*
X63863Y-36835D02*
X63900Y-36872D01*
X63697Y-36835D02*
X63863Y-36835D01*
X63689Y-36843D02*
X63697Y-36835D01*
X61300Y-37321D02*
X61300Y-36944D01*
X61626Y-36618D02*
X62291Y-36618D01*
X61300Y-36944D02*
X61626Y-36618D01*
X57919Y-39914D02*
X59535Y-39914D01*
X61287Y-38162D02*
X61287Y-37858D01*
X59535Y-39914D02*
X61287Y-38162D01*
X61300Y-37321D02*
X61300Y-37845D01*
X61300Y-37845D02*
X61287Y-37858D01*
X62170Y-37321D02*
X62170Y-36938D01*
X62170Y-36938D02*
X62063Y-36831D01*
X58253Y-37592D02*
X58927Y-37592D01*
X58156Y-37495D02*
X58253Y-37592D01*
X57228Y-37495D02*
X58156Y-37495D01*
X59846Y-36673D02*
X59846Y-35889D01*
X58927Y-37592D02*
X59846Y-36673D01*
X59844Y-35891D02*
X59846Y-35889D01*
X59846Y-35889D02*
X60647Y-35088D01*
X57457Y-44047D02*
X57138Y-44047D01*
X57070Y-43979D02*
X57070Y-43745D01*
X57138Y-44047D02*
X57070Y-43979D01*
X57528Y-43764D02*
X57509Y-43745D01*
X57227Y-43745D02*
X57509Y-43745D01*
X59339Y-41641D02*
X59339Y-41639D01*
X57919Y-41641D02*
X59339Y-41641D01*
X66137Y-41283D02*
X66651Y-41797D01*
X59695Y-41283D02*
X66137Y-41283D01*
X59339Y-41639D02*
X59695Y-41283D01*
X63657Y-43630D02*
X63658Y-43630D01*
X63658Y-43630D02*
X64067Y-44039D01*
X64067Y-44039D02*
X64067Y-45027D01*
X64067Y-45027D02*
X63948Y-45146D01*
X63948Y-45146D02*
X63858Y-45146D01*
X63565Y-45439D02*
X63438Y-45439D01*
X63565Y-45439D02*
X63858Y-45146D01*
X63438Y-45439D02*
X63557Y-45439D01*
X61366Y-43543D02*
X60852Y-43029D01*
X60852Y-43029D02*
X60293Y-43029D01*
X63438Y-45439D02*
X63502Y-45439D01*
X63438Y-45439D02*
X63438Y-46391D01*
X63438Y-46391D02*
X63777Y-46730D01*
X57919Y-42897D02*
X60161Y-42897D01*
X60161Y-42897D02*
X60293Y-43029D01*
X60421Y-42850D02*
X60331Y-42760D01*
X61094Y-42850D02*
X60421Y-42850D01*
X61591Y-43347D02*
X61094Y-42850D01*
X61591Y-43599D02*
X61591Y-43347D01*
X61697Y-43705D02*
X61591Y-43599D01*
X63827Y-44174D02*
X63358Y-43705D01*
X63827Y-44921D02*
X63827Y-44174D01*
X63835Y-44929D02*
X63827Y-44921D01*
X62159Y-45790D02*
X62159Y-46112D01*
X62159Y-46112D02*
X62777Y-46730D01*
X60280Y-42740D02*
X60311Y-42740D01*
X60311Y-42740D02*
X60331Y-42760D01*
X57919Y-42740D02*
X60280Y-42740D01*
X60280Y-42740D02*
X60294Y-42740D01*
X61351Y-42622D02*
X60567Y-42622D01*
X61953Y-43224D02*
X61351Y-42622D01*
X61953Y-44531D02*
X61953Y-43224D01*
X61787Y-44697D02*
X61953Y-44531D01*
X60911Y-46041D02*
X60911Y-45770D01*
X61012Y-46142D02*
X60911Y-46041D01*
X60082Y-42583D02*
X57919Y-42583D01*
X60567Y-42622D02*
X60492Y-42547D01*
X60492Y-42547D02*
X60118Y-42547D01*
X60118Y-42547D02*
X60082Y-42583D01*
X62197Y-43957D02*
X62224Y-43957D01*
X61283Y-44764D02*
X61543Y-44504D01*
X61543Y-44504D02*
X61543Y-44094D01*
X59965Y-42370D02*
X61618Y-42370D01*
X62398Y-43150D02*
X61618Y-42370D01*
X62398Y-43783D02*
X62398Y-43150D01*
X62224Y-43957D02*
X62398Y-43783D01*
X60777Y-46730D02*
X60742Y-46730D01*
X60742Y-46730D02*
X60269Y-46257D01*
X60269Y-46257D02*
X60269Y-45770D01*
X59904Y-42426D02*
X57919Y-42426D01*
X59909Y-42426D02*
X59904Y-42426D01*
X59965Y-42370D02*
X59909Y-42426D01*
X57919Y-42269D02*
X59739Y-42269D01*
X59854Y-42154D02*
X60307Y-42154D01*
X59739Y-42269D02*
X59854Y-42154D01*
X60146Y-41937D02*
X60146Y-41941D01*
X59709Y-41941D02*
X59538Y-42112D01*
X60146Y-41941D02*
X59709Y-41941D01*
X57919Y-42112D02*
X59538Y-42112D01*
X59538Y-42112D02*
X59541Y-42112D01*
X57919Y-41955D02*
X59474Y-41955D01*
X59709Y-41720D02*
X60358Y-41720D01*
X59474Y-41955D02*
X59709Y-41720D01*
X57919Y-41798D02*
X59404Y-41798D01*
X59698Y-41504D02*
X60622Y-41504D01*
X59404Y-41798D02*
X59698Y-41504D01*
X65651Y-37797D02*
X65651Y-37876D01*
X62872Y-39624D02*
X62915Y-39624D01*
X58379Y-40542D02*
X58399Y-40522D01*
X59710Y-40301D02*
X60387Y-39624D01*
X60387Y-39624D02*
X62872Y-39624D01*
X59627Y-40384D02*
X59710Y-40301D01*
X58537Y-40384D02*
X59627Y-40384D01*
X58399Y-40522D02*
X58537Y-40384D01*
X58379Y-40542D02*
X57919Y-40542D01*
X63903Y-39624D02*
X62915Y-39624D01*
X65651Y-37876D02*
X63903Y-39624D01*
X65651Y-40797D02*
X62456Y-40797D01*
X62456Y-40797D02*
X62454Y-40795D01*
X57919Y-41488D02*
X57919Y-41484D01*
X59246Y-41488D02*
X57919Y-41488D01*
X57919Y-41484D02*
X57531Y-41484D01*
X57531Y-41484D02*
X57293Y-41722D01*
X61854Y-40795D02*
X59939Y-40795D01*
X59939Y-40795D02*
X59246Y-41488D01*
X59116Y-41327D02*
X59191Y-41327D01*
X66175Y-40321D02*
X66651Y-40797D01*
X60197Y-40321D02*
X66175Y-40321D01*
X59191Y-41327D02*
X60197Y-40321D01*
X57919Y-41327D02*
X59116Y-41327D01*
X59116Y-41327D02*
X59125Y-41327D01*
X58268Y-44965D02*
X58268Y-45496D01*
X59502Y-46730D02*
X59777Y-46730D01*
X58268Y-45496D02*
X59502Y-46730D01*
X59777Y-46730D02*
X59777Y-46482D01*
X57961Y-43862D02*
X57031Y-42932D01*
X57031Y-42932D02*
X57031Y-41634D01*
X57031Y-41634D02*
X57415Y-41250D01*
X57415Y-41250D02*
X57415Y-40935D01*
X58268Y-44169D02*
X57961Y-43862D01*
X58268Y-44973D02*
X58268Y-44965D01*
X58268Y-44965D02*
X58268Y-44169D01*
X59777Y-46730D02*
X59762Y-46730D01*
X57493Y-41013D02*
X57919Y-41013D01*
X57415Y-40935D02*
X57493Y-41013D01*
X57919Y-41170D02*
X59097Y-41170D01*
X65458Y-39990D02*
X65651Y-39797D01*
X60277Y-39990D02*
X65458Y-39990D01*
X59097Y-41170D02*
X60277Y-39990D01*
X65647Y-39793D02*
X65651Y-39797D01*
X54087Y-44773D02*
X54139Y-44825D01*
X54087Y-44773D02*
X54087Y-43745D01*
X53930Y-44641D02*
X53930Y-43745D01*
X53813Y-44758D02*
X53930Y-44641D01*
X55814Y-44237D02*
X55814Y-43745D01*
X55683Y-44368D02*
X55814Y-44237D01*
X56756Y-44222D02*
X57128Y-44594D01*
X56756Y-43745D02*
X56756Y-44222D01*
X57761Y-44594D02*
X57772Y-44583D01*
X57128Y-44594D02*
X57761Y-44594D01*
X56913Y-43745D02*
X56913Y-44047D01*
X57870Y-44264D02*
X58051Y-44445D01*
X57130Y-44264D02*
X57870Y-44264D01*
X56913Y-44047D02*
X57130Y-44264D01*
X50185Y-42268D02*
X50130Y-42323D01*
X50185Y-42268D02*
X51669Y-42268D01*
X48407Y-42277D02*
X48210Y-42080D01*
X48124Y-42080D02*
X48210Y-42080D01*
X50116Y-43580D02*
X50474Y-43580D01*
X50057Y-43521D02*
X50116Y-43580D01*
X50557Y-43580D02*
X50852Y-43285D01*
X50474Y-43580D02*
X50557Y-43580D01*
X50459Y-43580D02*
X50474Y-43580D01*
X46793Y-41553D02*
X47320Y-42080D01*
X48124Y-42080D02*
X47320Y-42080D01*
X48147Y-42080D02*
X48124Y-42080D01*
X52328Y-42073D02*
X52328Y-42057D01*
X51669Y-41958D02*
X51669Y-41954D01*
X51892Y-41958D02*
X51669Y-41958D01*
X51962Y-41888D02*
X51892Y-41958D01*
X51962Y-41785D02*
X51962Y-41888D01*
X52072Y-41675D02*
X51962Y-41785D01*
X52328Y-42057D02*
X52442Y-41943D01*
X52328Y-42966D02*
X52328Y-42702D01*
X52218Y-43076D02*
X52328Y-42966D01*
X51896Y-41954D02*
X51669Y-41954D01*
X52328Y-42159D02*
X52328Y-42702D01*
X52328Y-42061D02*
X52328Y-42073D01*
X52328Y-42073D02*
X52328Y-42159D01*
X52328Y-42702D02*
X52328Y-42892D01*
X47309Y-39680D02*
X47309Y-39069D01*
X47309Y-39069D02*
X46793Y-38553D01*
X51669Y-41012D02*
X49194Y-41012D01*
X47966Y-40010D02*
X47639Y-40010D01*
X47639Y-40010D02*
X47309Y-39680D01*
X48192Y-40010D02*
X47966Y-40010D01*
X49194Y-41012D02*
X48192Y-40010D01*
X50236Y-41230D02*
X50756Y-41230D01*
X51669Y-41165D02*
X51669Y-41169D01*
X50821Y-41165D02*
X51669Y-41165D01*
X50756Y-41230D02*
X50821Y-41165D01*
X49852Y-41447D02*
X49803Y-41398D01*
X50767Y-41447D02*
X49852Y-41447D01*
X51669Y-41326D02*
X50888Y-41326D01*
X50888Y-41326D02*
X50767Y-41447D01*
X51669Y-41479D02*
X51669Y-41483D01*
X50958Y-41479D02*
X51669Y-41479D01*
X50783Y-41654D02*
X50958Y-41479D01*
X50381Y-41654D02*
X50783Y-41654D01*
X50374Y-41661D02*
X50381Y-41654D01*
X47248Y-41008D02*
X46793Y-40553D01*
X47862Y-41008D02*
X47248Y-41008D01*
X48023Y-41169D02*
X47862Y-41008D01*
X49263Y-41169D02*
X48023Y-41169D01*
X49976Y-41882D02*
X49263Y-41169D01*
X50783Y-41882D02*
X49976Y-41882D01*
X51669Y-41640D02*
X51025Y-41640D01*
X51025Y-41640D02*
X50783Y-41882D01*
X51669Y-41797D02*
X51231Y-41797D01*
X51231Y-41797D02*
X51146Y-41882D01*
X51669Y-42111D02*
X49952Y-42111D01*
X49952Y-42111D02*
X49941Y-42122D01*
X61574Y-49744D02*
X61984Y-50154D01*
X60776Y-49744D02*
X61574Y-49744D01*
X60713Y-49681D02*
X60776Y-49744D01*
X56442Y-44340D02*
X57153Y-45051D01*
X57153Y-45051D02*
X57295Y-45051D01*
X57295Y-45051D02*
X57594Y-45350D01*
X57594Y-45350D02*
X57594Y-45661D01*
X56442Y-43745D02*
X56442Y-44316D01*
X59953Y-47311D02*
X59586Y-47311D01*
X59953Y-47311D02*
X60193Y-47551D01*
X60193Y-47551D02*
X60193Y-48248D01*
X60193Y-48248D02*
X60469Y-48524D01*
X59236Y-47303D02*
X57594Y-45661D01*
X59578Y-47303D02*
X59236Y-47303D01*
X59586Y-47311D02*
X59578Y-47303D01*
X56442Y-44316D02*
X56442Y-44340D01*
X57747Y-45598D02*
X57747Y-45287D01*
X57747Y-45598D02*
X59299Y-47150D01*
X59299Y-47150D02*
X60020Y-47150D01*
X60020Y-47150D02*
X60350Y-47480D01*
X60350Y-47480D02*
X60350Y-48016D01*
X60350Y-48016D02*
X60677Y-48343D01*
X56599Y-43745D02*
X56599Y-44257D01*
X56599Y-44281D02*
X56599Y-44257D01*
X57216Y-44898D02*
X56599Y-44281D01*
X57358Y-44898D02*
X57216Y-44898D01*
X57747Y-45287D02*
X57358Y-44898D01*
X55500Y-43745D02*
X55500Y-43964D01*
X55344Y-44870D02*
X55694Y-45220D01*
X55344Y-44120D02*
X55344Y-44870D01*
X55500Y-43964D02*
X55344Y-44120D01*
X55622Y-46644D02*
X55518Y-46644D01*
X55518Y-46644D02*
X55369Y-46495D01*
X56124Y-43745D02*
X56128Y-43745D01*
X56124Y-44553D02*
X56124Y-43745D01*
X56183Y-44612D02*
X56124Y-44553D01*
X55600Y-46250D02*
X55369Y-46481D01*
X55369Y-46481D02*
X55369Y-46495D01*
X55865Y-46644D02*
X55622Y-46644D01*
X55622Y-46644D02*
X55618Y-46644D01*
X55369Y-46495D02*
X54919Y-46495D01*
X56938Y-46432D02*
X56938Y-46389D01*
X57126Y-45504D02*
X56976Y-45504D01*
X57323Y-45701D02*
X57126Y-45504D01*
X57323Y-46004D02*
X57323Y-45701D01*
X56938Y-46389D02*
X57323Y-46004D01*
X56375Y-47272D02*
X56527Y-47272D01*
X56938Y-46861D02*
X56938Y-46432D01*
X56527Y-47272D02*
X56938Y-46861D01*
X56285Y-43745D02*
X56285Y-44404D01*
X56399Y-44518D02*
X56399Y-44836D01*
X56285Y-44404D02*
X56399Y-44518D01*
X48718Y-47730D02*
X50009Y-47730D01*
X50009Y-47730D02*
X51144Y-46595D01*
X55744Y-47393D02*
X55865Y-47272D01*
X55744Y-48000D02*
X55744Y-47393D01*
X55724Y-48020D02*
X55744Y-48000D01*
X56835Y-48681D02*
X56004Y-48681D01*
X48940Y-44102D02*
X48940Y-44699D01*
X48940Y-44699D02*
X48894Y-44745D01*
X48718Y-47730D02*
X48718Y-49207D01*
X48718Y-49207D02*
X48039Y-49886D01*
X60860Y-44278D02*
X60273Y-44278D01*
X60273Y-44278D02*
X60234Y-44317D01*
X59620Y-44341D02*
X60210Y-44341D01*
X60210Y-44341D02*
X60234Y-44317D01*
X55004Y-44260D02*
X55004Y-44413D01*
X54715Y-43971D02*
X55004Y-44260D01*
X54715Y-43745D02*
X54715Y-43971D01*
X54797Y-44620D02*
X54797Y-44852D01*
X55004Y-44413D02*
X54797Y-44620D01*
X66153Y-34224D02*
X66153Y-34890D01*
X66153Y-34890D02*
X66161Y-34898D01*
X63256Y-50256D02*
X63284Y-50256D01*
X66976Y-50331D02*
X66976Y-49965D01*
X66567Y-50740D02*
X66976Y-50331D01*
X63768Y-50740D02*
X66567Y-50740D01*
X63284Y-50256D02*
X63768Y-50740D01*
X60911Y-45152D02*
X60911Y-45170D01*
X60598Y-44839D02*
X60911Y-45152D01*
X58809Y-44648D02*
X60026Y-44648D01*
X60269Y-44891D02*
X60269Y-45170D01*
X60026Y-44648D02*
X60269Y-44891D01*
X46306Y-46803D02*
X46306Y-46201D01*
X46306Y-46201D02*
X46962Y-45545D01*
X66161Y-34898D02*
X65927Y-34898D01*
X65927Y-34898D02*
X64370Y-33341D01*
X58915Y-35395D02*
X59377Y-35395D01*
X58630Y-35680D02*
X58915Y-35395D01*
X58630Y-37121D02*
X58630Y-35680D01*
X59377Y-35395D02*
X59394Y-35378D01*
X65406Y-48697D02*
X65819Y-48697D01*
X65819Y-48697D02*
X66236Y-49114D01*
X61509Y-45178D02*
X61566Y-45178D01*
X63087Y-44839D02*
X62772Y-44524D01*
X62772Y-44524D02*
X62587Y-44524D01*
X63087Y-44839D02*
X63438Y-44839D01*
X62190Y-44921D02*
X62587Y-44524D01*
X61823Y-44921D02*
X62190Y-44921D01*
X61566Y-45178D02*
X61823Y-44921D01*
X48940Y-44102D02*
X48940Y-43314D01*
X48940Y-43314D02*
X48985Y-43269D01*
X64380Y-36982D02*
X64380Y-37121D01*
X64024Y-36626D02*
X64380Y-36982D01*
X46793Y-44553D02*
X46793Y-45376D01*
X46793Y-45376D02*
X46962Y-45545D01*
X54732Y-48169D02*
X54760Y-48169D01*
X65410Y-48697D02*
X65406Y-48697D01*
X65406Y-48697D02*
X60973Y-48697D01*
X60973Y-48697D02*
X59875Y-49795D01*
X59875Y-49795D02*
X59846Y-49795D01*
X57866Y-49846D02*
X57756Y-49736D01*
X57756Y-49736D02*
X55870Y-49736D01*
X55870Y-49736D02*
X55551Y-49417D01*
X54732Y-48169D02*
X54577Y-48169D01*
X54146Y-47738D02*
X54577Y-48169D01*
X54760Y-48169D02*
X54780Y-48189D01*
X59620Y-44341D02*
X59463Y-44341D01*
X58296Y-43886D02*
X57898Y-43488D01*
X59008Y-43886D02*
X58296Y-43886D01*
X59463Y-44341D02*
X59008Y-43886D01*
X55654Y-36712D02*
X55654Y-36668D01*
X55654Y-36668D02*
X55344Y-36358D01*
X48718Y-47730D02*
X48399Y-47730D01*
X47969Y-47300D02*
X47969Y-45545D01*
X48399Y-47730D02*
X47969Y-47300D01*
X48985Y-43269D02*
X48985Y-42661D01*
X48985Y-42661D02*
X48969Y-42645D01*
X53616Y-44210D02*
X53568Y-44258D01*
X53616Y-44210D02*
X53616Y-43745D01*
X55273Y-46199D02*
X55044Y-45970D01*
X55044Y-45970D02*
X55044Y-45820D01*
X57199Y-38250D02*
X57450Y-38501D01*
X57450Y-38501D02*
X57557Y-38501D01*
X56914Y-37965D02*
X57199Y-38250D01*
X56914Y-37495D02*
X56914Y-37965D01*
X57557Y-38510D02*
X57557Y-38501D01*
X58112Y-47493D02*
X57857Y-47493D01*
X56120Y-47522D02*
X56120Y-47272D01*
X56293Y-47695D02*
X56120Y-47522D01*
X57655Y-47695D02*
X56293Y-47695D01*
X57857Y-47493D02*
X57655Y-47695D01*
X58112Y-47493D02*
X57915Y-47493D01*
X56938Y-45832D02*
X56331Y-45832D01*
X56331Y-45832D02*
X56319Y-45820D01*
X64370Y-33341D02*
X64370Y-33217D01*
X64370Y-33217D02*
X63541Y-32388D01*
X58270Y-33341D02*
X58927Y-33341D01*
X58927Y-33341D02*
X59777Y-34191D01*
X53745Y-35809D02*
X53320Y-35809D01*
X53785Y-35769D02*
X53745Y-35809D01*
X56914Y-37495D02*
X56914Y-35934D01*
X56914Y-35934D02*
X56903Y-35923D01*
X57557Y-38501D02*
X57919Y-38501D01*
X54639Y-39403D02*
X56131Y-39403D01*
X54627Y-39415D02*
X54639Y-39403D01*
X62600Y-37321D02*
X62600Y-36813D01*
X62600Y-36813D02*
X62801Y-36612D01*
X51144Y-46595D02*
X51144Y-47243D01*
X51144Y-47243D02*
X51781Y-47880D01*
X51781Y-47880D02*
X52659Y-47880D01*
X52659Y-47880D02*
X53444Y-47095D01*
X61509Y-45178D02*
X60919Y-45178D01*
X60919Y-45178D02*
X60911Y-45170D01*
X54319Y-46495D02*
X54319Y-46065D01*
X54319Y-46065D02*
X54319Y-45895D01*
X54319Y-45895D02*
X54394Y-45820D01*
X59620Y-44341D02*
X59116Y-44341D01*
X59116Y-44341D02*
X58809Y-44648D01*
X60911Y-45170D02*
X60269Y-45170D01*
X53773Y-47738D02*
X54146Y-47738D01*
X53726Y-47785D02*
X53773Y-47738D01*
X54750Y-41482D02*
X54750Y-41112D01*
X54600Y-41632D02*
X54750Y-41482D01*
X54131Y-47132D02*
X54131Y-47723D01*
X54131Y-47723D02*
X54146Y-47738D01*
X46962Y-45545D02*
X47969Y-45545D01*
X54131Y-47132D02*
X53481Y-47132D01*
X53481Y-47132D02*
X53444Y-47095D01*
X56375Y-46644D02*
X56375Y-45876D01*
X56375Y-45876D02*
X56319Y-45820D01*
X56375Y-46644D02*
X56375Y-46857D01*
X56375Y-46857D02*
X56278Y-46954D01*
X56278Y-46954D02*
X56202Y-46954D01*
X56202Y-46954D02*
X56120Y-47036D01*
X56120Y-47036D02*
X56120Y-47272D01*
X56120Y-47272D02*
X55865Y-47272D01*
X53616Y-43745D02*
X53616Y-42773D01*
X53616Y-42773D02*
X53894Y-42495D01*
X53894Y-42495D02*
X54694Y-42495D01*
X54694Y-42495D02*
X55019Y-42820D01*
X55657Y-43745D02*
X55657Y-43408D01*
X55657Y-43408D02*
X55619Y-43370D01*
X54715Y-43424D02*
X54715Y-43745D01*
X54769Y-43370D02*
X54715Y-43424D01*
X52517Y-43745D02*
X52517Y-44022D01*
X52517Y-44022D02*
X52119Y-44420D01*
X52119Y-44420D02*
X51369Y-44420D01*
X56344Y-45795D02*
X56319Y-45820D01*
X53444Y-47095D02*
X53444Y-46520D01*
X53444Y-46520D02*
X53219Y-46295D01*
X50619Y-45845D02*
X51244Y-45845D01*
X51144Y-46595D02*
X51144Y-45945D01*
X51144Y-45945D02*
X51244Y-45845D01*
X54394Y-45820D02*
X53769Y-45820D01*
X53769Y-45820D02*
X53144Y-45820D01*
X53219Y-46295D02*
X53219Y-45895D01*
X53219Y-45895D02*
X53144Y-45820D01*
X56319Y-45820D02*
X55694Y-45820D01*
X55694Y-45820D02*
X55044Y-45820D01*
X55044Y-45820D02*
X54394Y-45820D01*
X48969Y-42020D02*
X48969Y-42645D01*
X48894Y-44745D02*
X48769Y-44745D01*
X48769Y-44745D02*
X47969Y-45545D01*
X55019Y-42820D02*
X55019Y-43070D01*
X55019Y-43070D02*
X55019Y-43370D01*
X55619Y-43370D02*
X55019Y-43370D01*
X55019Y-43370D02*
X54769Y-43370D01*
X54598Y-44239D02*
X54598Y-44071D01*
X54717Y-44358D02*
X54598Y-44239D01*
X54555Y-43748D02*
X54558Y-43745D01*
X54555Y-44028D02*
X54555Y-43748D01*
X54598Y-44071D02*
X54555Y-44028D01*
X54554Y-43745D02*
X54558Y-43745D01*
X54554Y-43745D02*
X54558Y-43745D01*
X66736Y-33480D02*
X66736Y-34207D01*
X66736Y-34207D02*
X66753Y-34224D01*
X46937Y-47492D02*
X46937Y-46834D01*
X46937Y-46834D02*
X46906Y-46803D01*
X66767Y-35555D02*
X66767Y-34904D01*
X66767Y-34904D02*
X66761Y-34898D01*
X59319Y-45897D02*
X59769Y-45897D01*
X59769Y-45897D02*
X59772Y-45894D01*
X55316Y-48171D02*
X55277Y-48132D01*
X55277Y-48132D02*
X55277Y-47751D01*
X55320Y-49180D02*
X55331Y-49180D01*
X55320Y-48892D02*
X55372Y-48840D01*
X54052Y-50218D02*
X52264Y-50218D01*
X54801Y-49699D02*
X55320Y-49180D01*
X54571Y-49699D02*
X54801Y-49699D01*
X54052Y-50218D02*
X54571Y-49699D01*
X55372Y-49139D02*
X55372Y-48840D01*
X55331Y-49180D02*
X55372Y-49139D01*
X52674Y-44101D02*
X52423Y-44352D01*
X52674Y-44081D02*
X52674Y-43745D01*
X52674Y-44081D02*
X52674Y-44101D01*
X52423Y-44427D02*
X52423Y-44352D01*
X52411Y-44439D02*
X52423Y-44427D01*
X52360Y-43745D02*
X52144Y-43745D01*
X52144Y-43745D02*
X51769Y-44120D01*
X59324Y-48482D02*
X58427Y-48482D01*
X58427Y-48482D02*
X58112Y-48167D01*
X58112Y-48167D02*
X58112Y-48093D01*
X53742Y-48147D02*
X53742Y-48155D01*
X57796Y-48409D02*
X58112Y-48093D01*
X53996Y-48409D02*
X57796Y-48409D01*
X53742Y-48155D02*
X53996Y-48409D01*
X52619Y-46295D02*
X52619Y-45895D01*
X52619Y-45895D02*
X52519Y-45795D01*
X51894Y-45770D02*
X51894Y-46845D01*
X51894Y-46845D02*
X52144Y-47095D01*
X49844Y-46595D02*
X49844Y-45970D01*
X49844Y-45970D02*
X49969Y-45845D01*
X57919Y-40699D02*
X58552Y-40699D01*
X58552Y-40699D02*
X58639Y-40612D01*
X57919Y-40856D02*
X58990Y-40856D01*
X58990Y-40856D02*
X59171Y-40675D01*
X58793Y-47458D02*
X59505Y-47458D01*
X59505Y-47458D02*
X59777Y-47730D01*
X62789Y-45790D02*
X62789Y-46002D01*
X61289Y-47218D02*
X60777Y-47730D01*
X63061Y-47218D02*
X61289Y-47218D01*
X63250Y-47029D02*
X63061Y-47218D01*
X63250Y-46463D02*
X63250Y-47029D01*
X62789Y-46002D02*
X63250Y-46463D01*
X64186Y-45852D02*
X63785Y-45852D01*
X63785Y-45852D02*
X63777Y-45860D01*
X61554Y-45778D02*
X61285Y-46047D01*
X61285Y-46047D02*
X61280Y-46457D01*
X61509Y-45778D02*
X61554Y-45778D01*
X54731Y-47132D02*
X54731Y-47723D01*
X54731Y-47723D02*
X54746Y-47738D01*
X55277Y-47151D02*
X54750Y-47151D01*
X54750Y-47151D02*
X54731Y-47132D01*
X55277Y-47151D02*
X55321Y-47151D01*
X56120Y-46765D02*
X56120Y-46644D01*
X55923Y-46962D02*
X56120Y-46765D01*
X55510Y-46962D02*
X55923Y-46962D01*
X55321Y-47151D02*
X55510Y-46962D01*
X55004Y-32197D02*
X55004Y-32358D01*
X56658Y-32878D02*
X57146Y-33366D01*
X55524Y-32878D02*
X56658Y-32878D01*
X55004Y-32358D02*
X55524Y-32878D01*
X52988Y-43441D02*
X52827Y-43280D01*
X52827Y-43280D02*
X52719Y-43280D01*
X52719Y-43280D02*
X52647Y-43208D01*
X52647Y-43208D02*
X52647Y-43010D01*
X52647Y-43010D02*
X52734Y-42923D01*
X52988Y-43745D02*
X52988Y-43441D01*
G54D30*
X51894Y-45170D02*
X51919Y-45170D01*
G54D29*
X51919Y-45170D02*
X52169Y-44920D01*
X52169Y-44920D02*
X52844Y-44920D01*
X52844Y-44920D02*
X52988Y-44776D01*
X52988Y-44776D02*
X52988Y-43745D01*
G54D31*
X47039Y-49366D02*
X47039Y-49886D01*
X47806Y-50710D02*
X47549Y-50710D01*
X47549Y-50710D02*
X47039Y-50200D01*
X47039Y-50200D02*
X47039Y-49886D01*
X61935Y-50710D02*
X61991Y-50710D01*
X61935Y-50710D02*
X61719Y-50710D01*
X61719Y-50710D02*
X61717Y-50710D01*
X61717Y-50710D02*
X47806Y-50710D01*
X63236Y-49114D02*
X62386Y-49964D01*
X62386Y-50315D02*
X62386Y-49964D01*
X61991Y-50710D02*
X62386Y-50315D01*
X46020Y-49083D02*
X46020Y-49224D01*
X46020Y-49224D02*
X46682Y-49886D01*
X46682Y-49886D02*
X47039Y-49886D01*
X48886Y-33307D02*
X48091Y-33307D01*
X46020Y-35378D02*
X48091Y-33307D01*
X46020Y-49083D02*
X46020Y-35378D01*
X47024Y-48928D02*
X47039Y-48943D01*
G54D29*
X47024Y-48928D02*
X47024Y-48646D01*
X46347Y-47969D02*
X46347Y-47492D01*
X47024Y-48646D02*
X46347Y-47969D01*
G54D31*
X49970Y-44586D02*
X49971Y-44586D01*
X49971Y-44586D02*
X50307Y-44250D01*
X51576Y-43521D02*
X51576Y-43525D01*
X51722Y-43671D02*
X51840Y-43671D01*
X51576Y-43525D02*
X51722Y-43671D01*
G54D29*
X53145Y-43745D02*
X53145Y-43315D01*
G54D31*
X50300Y-44250D02*
X50307Y-44250D01*
X50307Y-44250D02*
X50847Y-44250D01*
X51576Y-43521D02*
X51017Y-44080D01*
X50847Y-44250D02*
X51017Y-44080D01*
G54D29*
X53145Y-43315D02*
X53163Y-43297D01*
X53144Y-45220D02*
X53144Y-43746D01*
X53144Y-43746D02*
X53145Y-43745D01*
G54D31*
X52519Y-45195D02*
X53119Y-45195D01*
X53119Y-45195D02*
X53144Y-45220D01*
X49494Y-44745D02*
X49494Y-44148D01*
X49494Y-44148D02*
X49540Y-44102D01*
X50032Y-43873D02*
X49769Y-43873D01*
X49769Y-43873D02*
X49540Y-44102D01*
X50779Y-43873D02*
X50032Y-43873D01*
G54D29*
X52131Y-43415D02*
X52264Y-43415D01*
X52264Y-43415D02*
X52431Y-43248D01*
X54212Y-43021D02*
X54212Y-43062D01*
X54401Y-43251D02*
X54401Y-43745D01*
X54212Y-43062D02*
X54401Y-43251D01*
X53907Y-42982D02*
X54173Y-42982D01*
X54173Y-42982D02*
X54212Y-43021D01*
X51669Y-43053D02*
X51599Y-43053D01*
G54D31*
X50776Y-43876D02*
X50779Y-43873D01*
X50779Y-43873D02*
X51442Y-43210D01*
G54D29*
X51599Y-43053D02*
X51442Y-43210D01*
X51669Y-43049D02*
X51669Y-43053D01*
X54401Y-43745D02*
X54401Y-44137D01*
X54401Y-44137D02*
X54394Y-44144D01*
G54D31*
X54394Y-45220D02*
X54394Y-44144D01*
X54394Y-44144D02*
X54399Y-44139D01*
G54D29*
X51669Y-43053D02*
X51769Y-43053D01*
X52131Y-43415D02*
X51769Y-43053D01*
G54D31*
X55044Y-45220D02*
X54394Y-45220D01*
X49269Y-45545D02*
X49269Y-44970D01*
X49269Y-44970D02*
X49494Y-44745D01*
X60234Y-43717D02*
X59644Y-43717D01*
X59644Y-43717D02*
X59620Y-43741D01*
X60860Y-43678D02*
X60273Y-43678D01*
X60273Y-43678D02*
X60234Y-43717D01*
X50144Y-43220D02*
X50415Y-43220D01*
X50415Y-43220D02*
X50423Y-43228D01*
X55301Y-42395D02*
X55692Y-42395D01*
X55692Y-42395D02*
X55718Y-42421D01*
X57541Y-42982D02*
X57541Y-42797D01*
X57613Y-43054D02*
X57541Y-42982D01*
G54D29*
X57919Y-43054D02*
X57613Y-43054D01*
G54D31*
X57541Y-42797D02*
X57480Y-42736D01*
X57480Y-42667D02*
X57480Y-42736D01*
X57273Y-42460D02*
X57480Y-42667D01*
X53238Y-42187D02*
X53879Y-42187D01*
X55301Y-42395D02*
X55234Y-42328D01*
X53238Y-42187D02*
X52584Y-42187D01*
X55132Y-42226D02*
X55234Y-42328D01*
X53918Y-42226D02*
X55132Y-42226D01*
X53879Y-42187D02*
X53918Y-42226D01*
G54D29*
X51003Y-42736D02*
X50535Y-42736D01*
X50535Y-42736D02*
X50498Y-42699D01*
X51669Y-42739D02*
X51006Y-42739D01*
X51006Y-42739D02*
X51003Y-42736D01*
G54D31*
X59644Y-43717D02*
X59620Y-43741D01*
X50144Y-43220D02*
X49634Y-43220D01*
X49634Y-43220D02*
X49585Y-43269D01*
G54D29*
X50538Y-42739D02*
X50498Y-42699D01*
G54D31*
X59620Y-43741D02*
X59202Y-43741D01*
X59202Y-43741D02*
X58809Y-43348D01*
G54D29*
X51669Y-42743D02*
X51669Y-42739D01*
G54D31*
X58809Y-43348D02*
X58506Y-43348D01*
G54D29*
X58506Y-43348D02*
X58208Y-43050D01*
X58208Y-43050D02*
X57919Y-43050D01*
X57919Y-43050D02*
X57919Y-43054D01*
X51669Y-42739D02*
X51669Y-42578D01*
X51669Y-42578D02*
X51669Y-42582D01*
G54D31*
X63958Y-45360D02*
X64644Y-45360D01*
X62159Y-45190D02*
X62231Y-45190D01*
X62231Y-45190D02*
X62679Y-44742D01*
X64786Y-45502D02*
X64786Y-45852D01*
X64644Y-45360D02*
X64786Y-45502D01*
G54D29*
X58823Y-45413D02*
X58961Y-45551D01*
X58961Y-45551D02*
X58961Y-45874D01*
X61177Y-48177D02*
X61177Y-48492D01*
X61189Y-48165D02*
X61177Y-48177D01*
G54D31*
X62713Y-43252D02*
X63102Y-43252D01*
X63102Y-43252D02*
X63106Y-43248D01*
X62713Y-43252D02*
X63020Y-43252D01*
X63024Y-43248D02*
X64421Y-43248D01*
X63020Y-43252D02*
X63024Y-43248D01*
X64421Y-43248D02*
X65061Y-43888D01*
X65061Y-45561D02*
X65061Y-43888D01*
X66146Y-33480D02*
X66146Y-33083D01*
X59137Y-32028D02*
X58732Y-32433D01*
X65091Y-32028D02*
X59137Y-32028D01*
X66146Y-33083D02*
X65091Y-32028D01*
X65544Y-33480D02*
X66146Y-33480D01*
X65378Y-33646D02*
X65544Y-33480D01*
X64256Y-50256D02*
X64256Y-50193D01*
X67130Y-49023D02*
X67130Y-48245D01*
X66464Y-49689D02*
X67130Y-49023D01*
X64760Y-49689D02*
X66464Y-49689D01*
X64256Y-50193D02*
X64760Y-49689D01*
G54D29*
X59319Y-45307D02*
X59571Y-45307D01*
X59571Y-45307D02*
X59772Y-45106D01*
G54D31*
X59663Y-48791D02*
X60595Y-48791D01*
X60595Y-48791D02*
X60894Y-48492D01*
X60894Y-48492D02*
X61177Y-48492D01*
X64956Y-48492D02*
X65651Y-47797D01*
X61177Y-48492D02*
X64956Y-48492D01*
X61740Y-36839D02*
X61740Y-37321D01*
X48661Y-43685D02*
X47793Y-44553D01*
X48661Y-41692D02*
X48661Y-43685D01*
X48729Y-41624D02*
X48661Y-41692D01*
X49183Y-41624D02*
X48729Y-41624D01*
X47793Y-44553D02*
X47927Y-44553D01*
X62159Y-45190D02*
X62789Y-45190D01*
X65651Y-47797D02*
X66366Y-48512D01*
X66532Y-36012D02*
X65311Y-36012D01*
X67130Y-36610D02*
X66532Y-36012D01*
X67130Y-48245D02*
X67130Y-36610D01*
X66863Y-48512D02*
X67130Y-48245D01*
X66366Y-48512D02*
X66863Y-48512D01*
X65311Y-36016D02*
X65311Y-36012D01*
X65047Y-36280D02*
X65311Y-36016D01*
X61535Y-38488D02*
X61527Y-38496D01*
X61240Y-38496D02*
X61527Y-38496D01*
X61909Y-38488D02*
X61535Y-38488D01*
X61013Y-36712D02*
X60855Y-36712D01*
X60688Y-36545D02*
X60629Y-36545D01*
X60855Y-36712D02*
X60688Y-36545D01*
X49569Y-42020D02*
X49569Y-42010D01*
X49569Y-42010D02*
X49183Y-41624D01*
X52627Y-41620D02*
X52919Y-41620D01*
X52919Y-41620D02*
X52933Y-41634D01*
X54250Y-41620D02*
X53893Y-41620D01*
X53893Y-41620D02*
X53887Y-41614D01*
X57151Y-40715D02*
X57313Y-40553D01*
G54D29*
X51669Y-42896D02*
X51276Y-42896D01*
G54D31*
X50066Y-42645D02*
X50372Y-42951D01*
X50066Y-42645D02*
X49569Y-42645D01*
G54D29*
X51221Y-42951D02*
X50372Y-42951D01*
X51276Y-42896D02*
X51221Y-42951D01*
X57919Y-40385D02*
X58253Y-40385D01*
X58253Y-40385D02*
X58289Y-40349D01*
G54D31*
X61740Y-37321D02*
X61740Y-37996D01*
X61740Y-37996D02*
X61240Y-38496D01*
X61240Y-38496D02*
X59620Y-40116D01*
X59620Y-40116D02*
X58522Y-40116D01*
X58522Y-40116D02*
X58289Y-40349D01*
X58289Y-40349D02*
X58289Y-40350D01*
G54D29*
X52120Y-41946D02*
X52120Y-41939D01*
X52120Y-41939D02*
X52439Y-41620D01*
X52439Y-41620D02*
X52627Y-41620D01*
G54D31*
X54250Y-41620D02*
X54250Y-41660D01*
X55994Y-41872D02*
X57313Y-40553D01*
X55963Y-41903D02*
X55994Y-41872D01*
X54493Y-41903D02*
X55963Y-41903D01*
X54250Y-41660D02*
X54493Y-41903D01*
G54D29*
X52120Y-42498D02*
X52120Y-41946D01*
G54D31*
X59663Y-48273D02*
X59576Y-48273D01*
X59361Y-48058D02*
X58793Y-48058D01*
X59576Y-48273D02*
X59361Y-48058D01*
X65061Y-45828D02*
X65061Y-45561D01*
G54D29*
X57481Y-40385D02*
X57919Y-40385D01*
G54D31*
X57313Y-40553D02*
X57481Y-40385D01*
X65061Y-45828D02*
X64810Y-45828D01*
X64810Y-45828D02*
X64786Y-45852D01*
X59663Y-48273D02*
X59663Y-48791D01*
X59663Y-48791D02*
X59663Y-49584D01*
X59663Y-49584D02*
X59029Y-50218D01*
X65061Y-47207D02*
X65651Y-47797D01*
X65061Y-45828D02*
X65061Y-47207D01*
G54D29*
X51669Y-42425D02*
X52047Y-42425D01*
G54D31*
X52047Y-42425D02*
X52120Y-42498D01*
X52120Y-42498D02*
X52135Y-42513D01*
X52135Y-42513D02*
X52135Y-42805D01*
X52135Y-42805D02*
X52044Y-42896D01*
G54D29*
X52044Y-42896D02*
X51669Y-42896D01*
G54D31*
X49569Y-42645D02*
X49569Y-42020D01*
G54D30*
X55685Y-34189D02*
X55685Y-34409D01*
X54217Y-33579D02*
X54265Y-33531D01*
X54265Y-33531D02*
X55287Y-33531D01*
X55287Y-33531D02*
X55685Y-33929D01*
X55685Y-33929D02*
X55685Y-34189D01*
X55685Y-34409D02*
X55677Y-34417D01*
X57112Y-38596D02*
X57112Y-38588D01*
X57112Y-38588D02*
X57083Y-38559D01*
G54D29*
X54088Y-37495D02*
X54088Y-37718D01*
X55344Y-37746D02*
X55344Y-37495D01*
X55244Y-37846D02*
X55344Y-37746D01*
X54216Y-37846D02*
X54346Y-37846D01*
X54088Y-37718D02*
X54216Y-37846D01*
X55054Y-36712D02*
X55054Y-36905D01*
X55054Y-36905D02*
X55344Y-37195D01*
X55344Y-37195D02*
X55344Y-37495D01*
G54D30*
X56279Y-40305D02*
X56478Y-40305D01*
X56053Y-40531D02*
X56279Y-40305D01*
X55738Y-40531D02*
X56053Y-40531D01*
X56364Y-40305D02*
X55887Y-40305D01*
G54D29*
X54556Y-35758D02*
X54120Y-35758D01*
X54564Y-35750D02*
X54556Y-35758D01*
X56443Y-36904D02*
X56443Y-36710D01*
X56443Y-37495D02*
X56443Y-36904D01*
X56333Y-36600D02*
X56139Y-36600D01*
X56443Y-36710D02*
X56333Y-36600D01*
G54D30*
X56848Y-38332D02*
X56912Y-38332D01*
X56912Y-38332D02*
X56935Y-38309D01*
X56364Y-40305D02*
X56478Y-40305D01*
X56478Y-40305D02*
X57435Y-39348D01*
X57261Y-38745D02*
X57264Y-38745D01*
X57264Y-38745D02*
X57435Y-38916D01*
X57435Y-38916D02*
X57435Y-39071D01*
G54D29*
X56443Y-37495D02*
X56443Y-37927D01*
G54D30*
X57261Y-38745D02*
X57112Y-38596D01*
X57112Y-38596D02*
X56848Y-38332D01*
X56848Y-38332D02*
X56490Y-37974D01*
G54D29*
X56443Y-37927D02*
X56490Y-37974D01*
X54088Y-37495D02*
X54088Y-37183D01*
G54D30*
X53887Y-36982D02*
X54068Y-37163D01*
X53887Y-36982D02*
X53879Y-36982D01*
G54D29*
X54088Y-37183D02*
X54068Y-37163D01*
G54D30*
X56478Y-41825D02*
X56931Y-41372D01*
X56478Y-42840D02*
X56478Y-41825D01*
X56368Y-40305D02*
X56364Y-40305D01*
X53879Y-36982D02*
X53879Y-36750D01*
X53879Y-36750D02*
X54053Y-36576D01*
X53879Y-36989D02*
X53879Y-36982D01*
G54D29*
X56447Y-37495D02*
X56443Y-37495D01*
X53773Y-43403D02*
X53773Y-43745D01*
X53907Y-43269D02*
X53773Y-43403D01*
G54D31*
X50167Y-44785D02*
X50155Y-44785D01*
X50155Y-44785D02*
X49960Y-44980D01*
G54D29*
X52765Y-44321D02*
X52765Y-44566D01*
X52765Y-44566D02*
X52775Y-44576D01*
G54D31*
X52775Y-44576D02*
X52765Y-44566D01*
X52765Y-44566D02*
X52765Y-44545D01*
X52765Y-44545D02*
X52761Y-44549D01*
X51247Y-45245D02*
X51797Y-44695D01*
X51797Y-44695D02*
X52615Y-44695D01*
X52615Y-44695D02*
X52761Y-44549D01*
X51247Y-45245D02*
X51244Y-45245D01*
G54D29*
X53370Y-44465D02*
X53370Y-44459D01*
X53370Y-44459D02*
X53302Y-44391D01*
X53302Y-44391D02*
X53302Y-43745D01*
X52765Y-44321D02*
X52765Y-44238D01*
X52827Y-43745D02*
X52831Y-43745D01*
X52827Y-44176D02*
X52827Y-43745D01*
X52765Y-44238D02*
X52827Y-44176D01*
G54D31*
X49960Y-44980D02*
X49970Y-44970D01*
X53549Y-44655D02*
X53561Y-44667D01*
X53561Y-44667D02*
X53572Y-44667D01*
X50619Y-44860D02*
X50454Y-44695D01*
X50454Y-44695D02*
X50257Y-44695D01*
X50257Y-44695D02*
X50167Y-44785D01*
X50619Y-45245D02*
X50619Y-44860D01*
G54D29*
X53370Y-44465D02*
X53356Y-44451D01*
G54D30*
X53572Y-44880D02*
X53572Y-44667D01*
X53769Y-45077D02*
X53572Y-44880D01*
X53769Y-45220D02*
X53769Y-45077D01*
X53572Y-44667D02*
X53356Y-44451D01*
X53375Y-44454D02*
X53359Y-44454D01*
X53356Y-44451D02*
X53359Y-44454D01*
X51269Y-45245D02*
X51244Y-45245D01*
X52954Y-42443D02*
X53163Y-42443D01*
X53444Y-43336D02*
X53444Y-43334D01*
X53444Y-42724D02*
X53444Y-43336D01*
X53163Y-42443D02*
X53444Y-42724D01*
X53442Y-43336D02*
X53444Y-43334D01*
X53444Y-43334D02*
X53359Y-43419D01*
X53359Y-43419D02*
X53359Y-43435D01*
G54D29*
X53359Y-43435D02*
X53298Y-43496D01*
X53298Y-43496D02*
X53298Y-43745D01*
X53298Y-43745D02*
X53302Y-43745D01*
G54D30*
X52954Y-42443D02*
X52954Y-42439D01*
G54D31*
X51244Y-45245D02*
X50757Y-45245D01*
G54D30*
X49969Y-45245D02*
X50619Y-45245D01*
X50619Y-45245D02*
X51244Y-45245D01*
G54D29*
X57157Y-45220D02*
X56319Y-45220D01*
X57378Y-45441D02*
X57157Y-45220D01*
X55971Y-43745D02*
X55971Y-43269D01*
X55971Y-43745D02*
X55971Y-44872D01*
X55971Y-44872D02*
X56319Y-45220D01*
M02*
