G04 (created by PCBNEW-RS274X (2011-07-20 BZR 3052)-testing) date Mon 29 Aug 2011 11:42:48 PM COT*
G01*
G70*
G90*
%MOIN*%
G04 Gerber Fmt 3.4, Leading zero omitted, Abs format*
%FSLAX34Y34*%
G04 APERTURE LIST*
%ADD10C,0.006000*%
%ADD11C,0.106600*%
%ADD12C,0.079100*%
%ADD13R,0.075100X0.075100*%
%ADD14R,0.059300X0.043600*%
%ADD15R,0.046000X0.082000*%
%ADD16R,0.082000X0.074000*%
%ADD17R,0.066000X0.106000*%
%ADD18R,0.066000X0.074000*%
%ADD19R,0.075000X0.055000*%
%ADD20R,0.045000X0.065000*%
%ADD21R,0.065000X0.045000*%
%ADD22R,0.080000X0.080000*%
%ADD23C,0.080000*%
%ADD24C,0.086000*%
%ADD25C,0.096000*%
%ADD26R,0.080000X0.100000*%
%ADD27R,0.100000X0.080000*%
%ADD28R,0.055000X0.075000*%
%ADD29R,0.043600X0.039600*%
%ADD30C,0.209000*%
%ADD31R,0.209000X0.209000*%
%ADD32R,0.032600X0.066000*%
%ADD33R,0.067200X0.075100*%
%ADD34C,0.216900*%
G04 APERTURE END LIST*
G54D10*
G54D11*
X55866Y-51198D03*
X58008Y-51198D03*
G54D12*
X56937Y-53666D03*
X56937Y-52879D03*
X56937Y-52091D03*
X56937Y-51304D03*
G54D11*
X58008Y-53953D03*
X55866Y-53953D03*
X59433Y-51206D03*
X61575Y-51206D03*
G54D12*
X60504Y-53674D03*
X60504Y-52887D03*
X60504Y-52099D03*
X60504Y-51312D03*
G54D11*
X61575Y-53961D03*
X59433Y-53961D03*
G54D13*
X51870Y-51720D03*
X53366Y-51720D03*
X64626Y-52488D03*
X64626Y-53984D03*
G54D14*
X53059Y-48839D03*
X53925Y-48839D03*
G54D15*
X62356Y-39449D03*
X61926Y-39449D03*
X61496Y-39449D03*
X61056Y-39449D03*
X60626Y-39449D03*
X60196Y-39449D03*
X59756Y-39449D03*
X59326Y-39449D03*
X58896Y-39449D03*
G54D16*
X64166Y-39249D03*
G54D17*
X64526Y-35469D03*
X58426Y-35469D03*
G54D18*
X58416Y-39249D03*
G54D19*
X54563Y-42192D03*
X54563Y-42942D03*
G54D20*
X64493Y-42244D03*
X63893Y-42244D03*
G54D21*
X62496Y-47706D03*
X62496Y-47106D03*
G54D22*
X65642Y-36839D03*
G54D23*
X66642Y-36839D03*
X65642Y-37839D03*
X66642Y-37839D03*
X65642Y-38839D03*
X66642Y-38839D03*
X65642Y-39839D03*
X66642Y-39839D03*
X65642Y-40839D03*
X66642Y-40839D03*
X65642Y-41839D03*
X66642Y-41839D03*
X65642Y-42839D03*
X66642Y-42839D03*
X65642Y-43839D03*
X66642Y-43839D03*
X65642Y-44839D03*
X66642Y-44839D03*
X65642Y-45839D03*
X66642Y-45839D03*
X65642Y-46839D03*
X66642Y-46839D03*
X65642Y-47839D03*
X66642Y-47839D03*
G54D24*
X52319Y-53890D03*
X54089Y-53890D03*
G54D25*
X51819Y-52910D03*
X54579Y-52910D03*
G54D26*
X51200Y-46921D03*
X52500Y-46921D03*
G54D27*
X55236Y-47385D03*
X55236Y-48685D03*
G54D26*
X50839Y-43835D03*
X49539Y-43835D03*
G54D27*
X49008Y-42867D03*
X49008Y-41567D03*
G54D20*
X53401Y-34567D03*
X54001Y-34567D03*
X52957Y-34390D03*
X52357Y-34390D03*
G54D21*
X49228Y-40369D03*
X49228Y-40969D03*
X56791Y-40452D03*
X56791Y-41052D03*
X57366Y-40452D03*
X57366Y-41052D03*
X53055Y-40448D03*
X53055Y-41048D03*
X53835Y-40448D03*
X53835Y-41048D03*
X55378Y-40452D03*
X55378Y-41052D03*
X55740Y-44625D03*
X55740Y-45225D03*
G54D20*
X50536Y-43067D03*
X49936Y-43067D03*
X49114Y-50330D03*
X49714Y-50330D03*
X49114Y-49630D03*
X49714Y-49630D03*
G54D21*
X51453Y-45642D03*
X51453Y-46242D03*
G54D20*
X51936Y-44961D03*
X52536Y-44961D03*
X51944Y-45556D03*
X52544Y-45556D03*
X51944Y-46143D03*
X52544Y-46143D03*
X53928Y-48272D03*
X54528Y-48272D03*
X53928Y-47697D03*
X54528Y-47697D03*
X58936Y-40657D03*
X59536Y-40657D03*
G54D21*
X52185Y-42446D03*
X52185Y-41846D03*
X53831Y-42831D03*
X53831Y-42231D03*
X53264Y-42831D03*
X53264Y-42231D03*
X50373Y-42419D03*
X50373Y-41819D03*
G54D20*
X51489Y-42055D03*
X50889Y-42055D03*
G54D21*
X49799Y-42419D03*
X49799Y-41819D03*
X52146Y-43302D03*
X52146Y-43902D03*
G54D20*
X52913Y-41756D03*
X53513Y-41756D03*
G54D21*
X56854Y-42745D03*
X56854Y-42145D03*
G54D22*
X65642Y-48839D03*
G54D23*
X66642Y-48839D03*
X65642Y-49839D03*
X66642Y-49839D03*
X65642Y-50839D03*
X66642Y-50839D03*
X65642Y-51839D03*
X66642Y-51839D03*
G54D22*
X64642Y-47839D03*
G54D23*
X64642Y-46839D03*
G54D22*
X64642Y-45839D03*
G54D23*
X64642Y-44839D03*
G54D22*
X47642Y-48839D03*
G54D23*
X46642Y-48839D03*
G54D22*
X47642Y-49839D03*
G54D23*
X46642Y-49839D03*
G54D22*
X62851Y-43673D03*
G54D23*
X62851Y-44673D03*
G54D26*
X58212Y-44091D03*
X59512Y-44091D03*
G54D21*
X59311Y-46586D03*
X59311Y-47186D03*
G54D20*
X58765Y-45717D03*
X58165Y-45717D03*
X57940Y-48929D03*
X58540Y-48929D03*
X60779Y-47287D03*
X61379Y-47287D03*
X59999Y-45307D03*
X60599Y-45307D03*
X60747Y-48469D03*
X61347Y-48469D03*
X59999Y-45878D03*
X60599Y-45878D03*
X57320Y-44969D03*
X56720Y-44969D03*
X58228Y-48031D03*
X58828Y-48031D03*
X58621Y-43264D03*
X59221Y-43264D03*
G54D22*
X46642Y-36839D03*
G54D23*
X47642Y-36839D03*
X46642Y-37839D03*
X47642Y-37839D03*
X46642Y-38839D03*
X47642Y-38839D03*
X46642Y-39839D03*
X47642Y-39839D03*
X46642Y-40839D03*
X47642Y-40839D03*
X46642Y-41839D03*
X47642Y-41839D03*
X46642Y-42839D03*
X47642Y-42839D03*
X46642Y-43839D03*
X47642Y-43839D03*
X46642Y-44839D03*
X47642Y-44839D03*
X46642Y-45839D03*
X47642Y-45839D03*
X46642Y-46839D03*
X47642Y-46839D03*
X46642Y-47839D03*
X47642Y-47839D03*
G54D21*
X62433Y-52961D03*
X62433Y-52361D03*
X55390Y-52556D03*
X55390Y-51956D03*
G54D19*
X59150Y-52153D03*
X59150Y-52903D03*
X56150Y-52184D03*
X56150Y-52934D03*
X56224Y-42946D03*
X56224Y-42196D03*
G54D28*
X58219Y-44988D03*
X58969Y-44988D03*
G54D19*
X55472Y-42946D03*
X55472Y-42196D03*
G54D27*
X63559Y-53540D03*
X63559Y-52240D03*
X54469Y-51709D03*
X54469Y-50409D03*
G54D29*
X61289Y-52685D03*
X61289Y-52293D03*
X61799Y-52489D03*
X57820Y-52728D03*
X57820Y-52336D03*
X58330Y-52532D03*
X64594Y-51178D03*
X64594Y-51570D03*
X64084Y-51374D03*
X64594Y-50158D03*
X64594Y-50550D03*
X64084Y-50354D03*
G54D30*
X47864Y-53780D03*
G54D31*
X47864Y-51380D03*
G54D30*
X49864Y-52880D03*
G54D32*
X57416Y-39800D03*
X57416Y-35220D03*
X57160Y-39800D03*
X57160Y-35220D03*
X56904Y-39800D03*
X56904Y-35220D03*
X56648Y-39800D03*
X56648Y-35220D03*
X56392Y-39800D03*
X56392Y-35220D03*
X56136Y-39800D03*
X56136Y-35220D03*
X55880Y-39800D03*
X55880Y-35220D03*
X55624Y-39800D03*
X55624Y-35220D03*
X55368Y-39800D03*
X55368Y-35220D03*
X55112Y-39800D03*
X55112Y-35220D03*
X54856Y-39800D03*
X54856Y-35220D03*
X54600Y-39800D03*
X54600Y-35220D03*
X54344Y-39800D03*
X54344Y-35220D03*
X54088Y-39800D03*
X54088Y-35220D03*
X53832Y-39800D03*
X53832Y-35220D03*
X53576Y-39800D03*
X53576Y-35220D03*
X53320Y-39800D03*
X53320Y-35220D03*
X53064Y-39800D03*
X53064Y-35220D03*
X52808Y-39800D03*
X52808Y-35220D03*
X52552Y-39800D03*
X52552Y-35220D03*
X52296Y-39800D03*
X52296Y-35220D03*
X52040Y-39800D03*
X52040Y-35220D03*
X51784Y-39800D03*
X51784Y-35220D03*
X51528Y-39800D03*
X51528Y-35220D03*
X51272Y-39800D03*
X51272Y-35220D03*
X51016Y-39800D03*
X51016Y-35220D03*
X50760Y-39800D03*
X50760Y-35220D03*
X50504Y-39800D03*
X50504Y-35220D03*
X50248Y-39800D03*
X50248Y-35220D03*
X49992Y-39800D03*
X49992Y-35220D03*
X49736Y-39800D03*
X49736Y-35220D03*
X49480Y-39800D03*
X49480Y-35220D03*
X49224Y-39800D03*
X49224Y-35220D03*
G54D33*
X57898Y-47299D03*
X57898Y-46433D03*
X58567Y-46433D03*
X58567Y-47299D03*
G54D34*
X66173Y-34808D03*
X47173Y-34808D03*
G54D28*
X50239Y-50330D03*
X50989Y-50330D03*
X51064Y-41240D03*
X50314Y-41240D03*
G54D22*
X56189Y-47646D03*
G54D23*
X56189Y-48646D03*
G54D22*
X56193Y-49654D03*
G54D23*
X55193Y-49654D03*
G54D34*
X66173Y-53808D03*
G54D28*
X50710Y-34260D03*
X49960Y-34260D03*
G54D19*
X62664Y-54205D03*
X62664Y-53455D03*
G54D28*
X55743Y-34181D03*
X56493Y-34181D03*
M02*
