G04 (created by PCBNEW-RS274X (2011-07-20 BZR 3052)-testing) date Mon 29 Aug 2011 11:42:48 PM COT*
G01*
G70*
G90*
%MOIN*%
G04 Gerber Fmt 3.4, Leading zero omitted, Abs format*
%FSLAX34Y34*%
G04 APERTURE LIST*
%ADD10C,0.006000*%
%ADD11C,0.006900*%
%ADD12C,0.009900*%
%ADD13C,0.003900*%
%ADD14C,0.007900*%
%ADD15C,0.004500*%
%ADD16C,0.003500*%
%ADD17C,0.000100*%
%ADD18C,0.015000*%
%ADD19C,0.008000*%
%ADD20C,0.005000*%
%ADD21C,0.001000*%
%ADD22C,0.012000*%
%ADD23C,0.004300*%
%ADD24C,0.004700*%
%ADD25C,0.004000*%
%ADD26C,0.005900*%
%ADD27C,0.010000*%
G04 APERTURE END LIST*
G54D10*
G54D11*
X61264Y-41865D02*
X61358Y-42049D01*
X61452Y-41865D01*
X62108Y-42049D02*
X61883Y-42049D01*
X61996Y-42049D02*
X61996Y-41773D01*
X61958Y-41812D01*
X61921Y-41838D01*
X61883Y-41852D01*
X62277Y-42022D02*
X62296Y-42036D01*
X62277Y-42049D01*
X62258Y-42036D01*
X62277Y-42022D01*
X62277Y-42049D01*
X62540Y-41773D02*
X62577Y-41773D01*
X62615Y-41786D01*
X62634Y-41799D01*
X62652Y-41825D01*
X62671Y-41878D01*
X62671Y-41944D01*
X62652Y-41996D01*
X62634Y-42022D01*
X62615Y-42036D01*
X62577Y-42049D01*
X62540Y-42049D01*
X62502Y-42036D01*
X62484Y-42022D01*
X62465Y-41996D01*
X62446Y-41944D01*
X62446Y-41878D01*
X62465Y-41825D01*
X62484Y-41799D01*
X62502Y-41786D01*
X62540Y-41773D01*
X62840Y-42022D02*
X62859Y-42036D01*
X62840Y-42049D01*
X62821Y-42036D01*
X62840Y-42022D01*
X62840Y-42049D01*
X63197Y-42036D02*
X63159Y-42049D01*
X63084Y-42049D01*
X63047Y-42036D01*
X63028Y-42022D01*
X63009Y-41996D01*
X63009Y-41917D01*
X63028Y-41891D01*
X63047Y-41878D01*
X63084Y-41865D01*
X63159Y-41865D01*
X63197Y-41878D01*
X63535Y-42049D02*
X63535Y-41904D01*
X63516Y-41878D01*
X63478Y-41865D01*
X63403Y-41865D01*
X63366Y-41878D01*
X63535Y-42036D02*
X63497Y-42049D01*
X63403Y-42049D01*
X63366Y-42036D01*
X63347Y-42009D01*
X63347Y-41983D01*
X63366Y-41957D01*
X63403Y-41944D01*
X63497Y-41944D01*
X63535Y-41930D01*
X63722Y-42049D02*
X63722Y-41865D01*
X63722Y-41773D02*
X63703Y-41786D01*
X63722Y-41799D01*
X63741Y-41786D01*
X63722Y-41773D01*
X63722Y-41799D01*
X63910Y-41865D02*
X63910Y-42049D01*
X63910Y-41891D02*
X63929Y-41878D01*
X63966Y-41865D01*
X64022Y-41865D01*
X64060Y-41878D01*
X64079Y-41904D01*
X64079Y-42049D01*
G54D12*
X58634Y-41581D02*
X58634Y-41292D01*
X58634Y-41148D02*
X58608Y-41168D01*
X58634Y-41189D01*
X58660Y-41168D01*
X58634Y-41148D01*
X58634Y-41189D01*
X58896Y-41540D02*
X58922Y-41560D01*
X58896Y-41581D01*
X58870Y-41560D01*
X58896Y-41540D01*
X58896Y-41581D01*
X59158Y-41581D02*
X59158Y-41292D01*
X59158Y-41333D02*
X59184Y-41313D01*
X59237Y-41292D01*
X59316Y-41292D01*
X59368Y-41313D01*
X59394Y-41354D01*
X59394Y-41581D01*
X59394Y-41354D02*
X59421Y-41313D01*
X59473Y-41292D01*
X59552Y-41292D01*
X59604Y-41313D01*
X59630Y-41354D01*
X59630Y-41581D01*
X59841Y-41581D02*
X60129Y-41292D01*
X59841Y-41292D02*
X60129Y-41581D01*
X60313Y-41189D02*
X60339Y-41168D01*
X60392Y-41148D01*
X60523Y-41148D01*
X60575Y-41168D01*
X60602Y-41189D01*
X60628Y-41230D01*
X60628Y-41271D01*
X60602Y-41333D01*
X60287Y-41581D01*
X60628Y-41581D01*
X60812Y-41148D02*
X61153Y-41148D01*
X60969Y-41313D01*
X61048Y-41313D01*
X61100Y-41333D01*
X61127Y-41354D01*
X61153Y-41395D01*
X61153Y-41498D01*
X61127Y-41540D01*
X61100Y-41560D01*
X61048Y-41581D01*
X60890Y-41581D01*
X60838Y-41560D01*
X60812Y-41540D01*
X61337Y-41148D02*
X61678Y-41148D01*
X61494Y-41313D01*
X61573Y-41313D01*
X61625Y-41333D01*
X61652Y-41354D01*
X61678Y-41395D01*
X61678Y-41498D01*
X61652Y-41540D01*
X61625Y-41560D01*
X61573Y-41581D01*
X61415Y-41581D01*
X61363Y-41560D01*
X61337Y-41540D01*
X61888Y-41560D02*
X61940Y-41581D01*
X62045Y-41581D01*
X62098Y-41560D01*
X62124Y-41519D01*
X62124Y-41498D01*
X62098Y-41457D01*
X62045Y-41436D01*
X61967Y-41436D01*
X61914Y-41416D01*
X61888Y-41375D01*
X61888Y-41354D01*
X61914Y-41313D01*
X61967Y-41292D01*
X62045Y-41292D01*
X62098Y-41313D01*
X62281Y-41292D02*
X62491Y-41292D01*
X62360Y-41148D02*
X62360Y-41519D01*
X62386Y-41560D01*
X62439Y-41581D01*
X62491Y-41581D01*
X62911Y-41581D02*
X62911Y-41354D01*
X62885Y-41313D01*
X62833Y-41292D01*
X62728Y-41292D01*
X62675Y-41313D01*
X62911Y-41560D02*
X62859Y-41581D01*
X62728Y-41581D01*
X62675Y-41560D01*
X62649Y-41519D01*
X62649Y-41478D01*
X62675Y-41436D01*
X62728Y-41416D01*
X62859Y-41416D01*
X62911Y-41395D01*
X63174Y-41581D02*
X63174Y-41292D01*
X63174Y-41333D02*
X63200Y-41313D01*
X63253Y-41292D01*
X63332Y-41292D01*
X63384Y-41313D01*
X63410Y-41354D01*
X63410Y-41581D01*
X63410Y-41354D02*
X63437Y-41313D01*
X63489Y-41292D01*
X63568Y-41292D01*
X63620Y-41313D01*
X63646Y-41354D01*
X63646Y-41581D01*
X63909Y-41292D02*
X63909Y-41725D01*
X63909Y-41313D02*
X63962Y-41292D01*
X64067Y-41292D01*
X64119Y-41313D01*
X64145Y-41333D01*
X64172Y-41375D01*
X64172Y-41498D01*
X64145Y-41540D01*
X64119Y-41560D01*
X64067Y-41581D01*
X63962Y-41581D01*
X63909Y-41560D01*
G54D13*
X64961Y-43960D02*
X64961Y-44035D01*
X64804Y-44035D01*
X64976Y-43945D02*
X64976Y-43825D01*
X64961Y-43788D02*
X64804Y-43788D01*
X64804Y-43750D01*
X64812Y-43728D01*
X64826Y-43713D01*
X64841Y-43705D01*
X64871Y-43698D01*
X64894Y-43698D01*
X64924Y-43705D01*
X64939Y-43713D01*
X64954Y-43728D01*
X64961Y-43750D01*
X64961Y-43788D01*
X64804Y-43646D02*
X64804Y-43548D01*
X64864Y-43601D01*
X64864Y-43578D01*
X64871Y-43563D01*
X64879Y-43556D01*
X64894Y-43548D01*
X64931Y-43548D01*
X64946Y-43556D01*
X64954Y-43563D01*
X64961Y-43578D01*
X64961Y-43623D01*
X64954Y-43638D01*
X64946Y-43646D01*
X64942Y-42921D02*
X64942Y-42996D01*
X64785Y-42996D01*
X64957Y-42906D02*
X64957Y-42786D01*
X64942Y-42749D02*
X64785Y-42749D01*
X64785Y-42711D01*
X64793Y-42689D01*
X64807Y-42674D01*
X64822Y-42666D01*
X64852Y-42659D01*
X64875Y-42659D01*
X64905Y-42666D01*
X64920Y-42674D01*
X64935Y-42689D01*
X64942Y-42711D01*
X64942Y-42749D01*
X64785Y-42517D02*
X64785Y-42592D01*
X64860Y-42599D01*
X64852Y-42592D01*
X64845Y-42577D01*
X64845Y-42539D01*
X64852Y-42524D01*
X64860Y-42517D01*
X64875Y-42509D01*
X64912Y-42509D01*
X64927Y-42517D01*
X64935Y-42524D01*
X64942Y-42539D01*
X64942Y-42577D01*
X64935Y-42592D01*
X64927Y-42599D01*
X64953Y-41941D02*
X64953Y-42016D01*
X64796Y-42016D01*
X64968Y-41926D02*
X64968Y-41806D01*
X64953Y-41769D02*
X64796Y-41769D01*
X64796Y-41731D01*
X64804Y-41709D01*
X64818Y-41694D01*
X64833Y-41686D01*
X64863Y-41679D01*
X64886Y-41679D01*
X64916Y-41686D01*
X64931Y-41694D01*
X64946Y-41709D01*
X64953Y-41731D01*
X64953Y-41769D01*
X64796Y-41627D02*
X64796Y-41522D01*
X64953Y-41589D01*
X64969Y-40959D02*
X64969Y-41034D01*
X64812Y-41034D01*
X64984Y-40944D02*
X64984Y-40824D01*
X64887Y-40787D02*
X64887Y-40734D01*
X64969Y-40712D02*
X64969Y-40787D01*
X64812Y-40787D01*
X64812Y-40712D01*
X64969Y-40645D02*
X64812Y-40645D01*
X64969Y-40555D01*
X64812Y-40555D01*
X64989Y-39911D02*
X64989Y-39986D01*
X64832Y-39986D01*
X65004Y-39896D02*
X65004Y-39776D01*
X64832Y-39754D02*
X64989Y-39716D01*
X64877Y-39686D01*
X64989Y-39656D01*
X64832Y-39619D01*
X64989Y-39470D02*
X64914Y-39522D01*
X64989Y-39560D02*
X64832Y-39560D01*
X64832Y-39500D01*
X64840Y-39485D01*
X64847Y-39477D01*
X64862Y-39470D01*
X64884Y-39470D01*
X64899Y-39477D01*
X64907Y-39485D01*
X64914Y-39500D01*
X64914Y-39560D01*
X64993Y-39102D02*
X64993Y-39177D01*
X64836Y-39177D01*
X65008Y-39087D02*
X65008Y-38967D01*
X64993Y-38930D02*
X64836Y-38930D01*
X64911Y-38930D02*
X64911Y-38840D01*
X64993Y-38840D02*
X64836Y-38840D01*
X64986Y-38773D02*
X64993Y-38751D01*
X64993Y-38713D01*
X64986Y-38698D01*
X64978Y-38691D01*
X64963Y-38683D01*
X64948Y-38683D01*
X64933Y-38691D01*
X64926Y-38698D01*
X64918Y-38713D01*
X64911Y-38743D01*
X64903Y-38758D01*
X64896Y-38766D01*
X64881Y-38773D01*
X64866Y-38773D01*
X64851Y-38766D01*
X64844Y-38758D01*
X64836Y-38743D01*
X64836Y-38706D01*
X64844Y-38683D01*
X64918Y-38586D02*
X64993Y-38586D01*
X64836Y-38638D02*
X64918Y-38586D01*
X64836Y-38533D01*
X64993Y-38481D02*
X64836Y-38481D01*
X64993Y-38391D01*
X64836Y-38391D01*
X64977Y-38153D02*
X64977Y-38228D01*
X64820Y-38228D01*
X64992Y-38138D02*
X64992Y-38018D01*
X64977Y-37981D02*
X64820Y-37981D01*
X64820Y-37943D01*
X64828Y-37921D01*
X64842Y-37906D01*
X64857Y-37898D01*
X64887Y-37891D01*
X64910Y-37891D01*
X64940Y-37898D01*
X64955Y-37906D01*
X64970Y-37921D01*
X64977Y-37943D01*
X64977Y-37981D01*
X64962Y-37734D02*
X64970Y-37741D01*
X64977Y-37764D01*
X64977Y-37779D01*
X64970Y-37801D01*
X64955Y-37816D01*
X64940Y-37824D01*
X64910Y-37831D01*
X64887Y-37831D01*
X64857Y-37824D01*
X64842Y-37816D01*
X64828Y-37801D01*
X64820Y-37779D01*
X64820Y-37764D01*
X64828Y-37741D01*
X64835Y-37734D01*
X64977Y-37592D02*
X64977Y-37667D01*
X64820Y-37667D01*
X64977Y-37540D02*
X64820Y-37540D01*
X64977Y-37450D02*
X64887Y-37517D01*
X64820Y-37450D02*
X64910Y-37540D01*
X64797Y-36931D02*
X64789Y-36946D01*
X64789Y-36969D01*
X64797Y-36991D01*
X64811Y-37006D01*
X64826Y-37014D01*
X64856Y-37021D01*
X64879Y-37021D01*
X64909Y-37014D01*
X64924Y-37006D01*
X64939Y-36991D01*
X64946Y-36969D01*
X64946Y-36954D01*
X64939Y-36931D01*
X64931Y-36924D01*
X64879Y-36924D01*
X64879Y-36954D01*
X64946Y-36857D02*
X64789Y-36857D01*
X64789Y-36819D01*
X64797Y-36797D01*
X64811Y-36782D01*
X64826Y-36774D01*
X64856Y-36767D01*
X64879Y-36767D01*
X64909Y-36774D01*
X64924Y-36782D01*
X64939Y-36797D01*
X64946Y-36819D01*
X64946Y-36857D01*
X64789Y-36715D02*
X64789Y-36610D01*
X64946Y-36677D01*
X67308Y-36927D02*
X67300Y-36942D01*
X67300Y-36965D01*
X67308Y-36987D01*
X67322Y-37002D01*
X67337Y-37010D01*
X67367Y-37017D01*
X67390Y-37017D01*
X67420Y-37010D01*
X67435Y-37002D01*
X67450Y-36987D01*
X67457Y-36965D01*
X67457Y-36950D01*
X67450Y-36927D01*
X67442Y-36920D01*
X67390Y-36920D01*
X67390Y-36950D01*
X67457Y-36853D02*
X67300Y-36853D01*
X67300Y-36815D01*
X67308Y-36793D01*
X67322Y-36778D01*
X67337Y-36770D01*
X67367Y-36763D01*
X67390Y-36763D01*
X67420Y-36770D01*
X67435Y-36778D01*
X67450Y-36793D01*
X67457Y-36815D01*
X67457Y-36853D01*
X67300Y-36628D02*
X67300Y-36658D01*
X67308Y-36673D01*
X67315Y-36681D01*
X67337Y-36696D01*
X67367Y-36703D01*
X67427Y-36703D01*
X67442Y-36696D01*
X67450Y-36688D01*
X67457Y-36673D01*
X67457Y-36643D01*
X67450Y-36628D01*
X67442Y-36621D01*
X67427Y-36613D01*
X67390Y-36613D01*
X67375Y-36621D01*
X67367Y-36628D01*
X67360Y-36643D01*
X67360Y-36673D01*
X67367Y-36688D01*
X67375Y-36696D01*
X67390Y-36703D01*
X67304Y-37907D02*
X67296Y-37922D01*
X67296Y-37945D01*
X67304Y-37967D01*
X67318Y-37982D01*
X67333Y-37990D01*
X67363Y-37997D01*
X67386Y-37997D01*
X67416Y-37990D01*
X67431Y-37982D01*
X67446Y-37967D01*
X67453Y-37945D01*
X67453Y-37930D01*
X67446Y-37907D01*
X67438Y-37900D01*
X67386Y-37900D01*
X67386Y-37930D01*
X67453Y-37833D02*
X67296Y-37833D01*
X67296Y-37795D01*
X67304Y-37773D01*
X67318Y-37758D01*
X67333Y-37750D01*
X67363Y-37743D01*
X67386Y-37743D01*
X67416Y-37750D01*
X67431Y-37758D01*
X67446Y-37773D01*
X67453Y-37795D01*
X67453Y-37833D01*
X67296Y-37601D02*
X67296Y-37676D01*
X67371Y-37683D01*
X67363Y-37676D01*
X67356Y-37661D01*
X67356Y-37623D01*
X67363Y-37608D01*
X67371Y-37601D01*
X67386Y-37593D01*
X67423Y-37593D01*
X67438Y-37601D01*
X67446Y-37608D01*
X67453Y-37623D01*
X67453Y-37661D01*
X67446Y-37676D01*
X67438Y-37683D01*
X67449Y-39106D02*
X67449Y-39181D01*
X67292Y-39181D01*
X67464Y-39091D02*
X67464Y-38971D01*
X67292Y-38956D02*
X67449Y-38904D01*
X67292Y-38851D01*
X67442Y-38806D02*
X67449Y-38784D01*
X67449Y-38746D01*
X67442Y-38731D01*
X67434Y-38724D01*
X67419Y-38716D01*
X67404Y-38716D01*
X67389Y-38724D01*
X67382Y-38731D01*
X67374Y-38746D01*
X67367Y-38776D01*
X67359Y-38791D01*
X67352Y-38799D01*
X67337Y-38806D01*
X67322Y-38806D01*
X67307Y-38799D01*
X67300Y-38791D01*
X67292Y-38776D01*
X67292Y-38739D01*
X67300Y-38716D01*
X67374Y-38619D02*
X67449Y-38619D01*
X67292Y-38671D02*
X67374Y-38619D01*
X67292Y-38566D01*
X67449Y-38514D02*
X67292Y-38514D01*
X67449Y-38424D01*
X67292Y-38424D01*
X67438Y-39996D02*
X67438Y-40071D01*
X67281Y-40071D01*
X67453Y-39981D02*
X67453Y-39861D01*
X67438Y-39734D02*
X67363Y-39786D01*
X67438Y-39824D02*
X67281Y-39824D01*
X67281Y-39764D01*
X67289Y-39749D01*
X67296Y-39741D01*
X67311Y-39734D01*
X67333Y-39734D01*
X67348Y-39741D01*
X67356Y-39749D01*
X67363Y-39764D01*
X67363Y-39824D01*
X67431Y-39674D02*
X67438Y-39652D01*
X67438Y-39614D01*
X67431Y-39599D01*
X67423Y-39592D01*
X67408Y-39584D01*
X67393Y-39584D01*
X67378Y-39592D01*
X67371Y-39599D01*
X67363Y-39614D01*
X67356Y-39644D01*
X67348Y-39659D01*
X67341Y-39667D01*
X67326Y-39674D01*
X67311Y-39674D01*
X67296Y-39667D01*
X67289Y-39659D01*
X67281Y-39644D01*
X67281Y-39607D01*
X67289Y-39584D01*
X67461Y-41012D02*
X67461Y-41087D01*
X67304Y-41087D01*
X67476Y-40997D02*
X67476Y-40877D01*
X67461Y-40750D02*
X67386Y-40802D01*
X67461Y-40840D02*
X67304Y-40840D01*
X67304Y-40780D01*
X67312Y-40765D01*
X67319Y-40757D01*
X67334Y-40750D01*
X67356Y-40750D01*
X67371Y-40757D01*
X67379Y-40765D01*
X67386Y-40780D01*
X67386Y-40840D01*
X67454Y-40690D02*
X67461Y-40668D01*
X67461Y-40630D01*
X67454Y-40615D01*
X67446Y-40608D01*
X67431Y-40600D01*
X67416Y-40600D01*
X67401Y-40608D01*
X67394Y-40615D01*
X67386Y-40630D01*
X67379Y-40660D01*
X67371Y-40675D01*
X67364Y-40683D01*
X67349Y-40690D01*
X67334Y-40690D01*
X67319Y-40683D01*
X67312Y-40675D01*
X67304Y-40660D01*
X67304Y-40623D01*
X67312Y-40600D01*
X67304Y-40555D02*
X67304Y-40465D01*
X67461Y-40510D02*
X67304Y-40510D01*
X67438Y-41917D02*
X67438Y-41992D01*
X67281Y-41992D01*
X67453Y-41902D02*
X67453Y-41782D01*
X67423Y-41655D02*
X67431Y-41662D01*
X67438Y-41685D01*
X67438Y-41700D01*
X67431Y-41722D01*
X67416Y-41737D01*
X67401Y-41745D01*
X67371Y-41752D01*
X67348Y-41752D01*
X67318Y-41745D01*
X67303Y-41737D01*
X67289Y-41722D01*
X67281Y-41700D01*
X67281Y-41685D01*
X67289Y-41662D01*
X67296Y-41655D01*
X67431Y-41595D02*
X67438Y-41573D01*
X67438Y-41535D01*
X67431Y-41520D01*
X67423Y-41513D01*
X67408Y-41505D01*
X67393Y-41505D01*
X67378Y-41513D01*
X67371Y-41520D01*
X67363Y-41535D01*
X67356Y-41565D01*
X67348Y-41580D01*
X67341Y-41588D01*
X67326Y-41595D01*
X67311Y-41595D01*
X67296Y-41588D01*
X67289Y-41580D01*
X67281Y-41565D01*
X67281Y-41528D01*
X67289Y-41505D01*
X67449Y-42956D02*
X67449Y-43031D01*
X67292Y-43031D01*
X67464Y-42941D02*
X67464Y-42821D01*
X67449Y-42784D02*
X67292Y-42784D01*
X67292Y-42746D01*
X67300Y-42724D01*
X67314Y-42709D01*
X67329Y-42701D01*
X67359Y-42694D01*
X67382Y-42694D01*
X67412Y-42701D01*
X67427Y-42709D01*
X67442Y-42724D01*
X67449Y-42746D01*
X67449Y-42784D01*
X67292Y-42559D02*
X67292Y-42589D01*
X67300Y-42604D01*
X67307Y-42612D01*
X67329Y-42627D01*
X67359Y-42634D01*
X67419Y-42634D01*
X67434Y-42627D01*
X67442Y-42619D01*
X67449Y-42604D01*
X67449Y-42574D01*
X67442Y-42559D01*
X67434Y-42552D01*
X67419Y-42544D01*
X67382Y-42544D01*
X67367Y-42552D01*
X67359Y-42559D01*
X67352Y-42574D01*
X67352Y-42604D01*
X67359Y-42619D01*
X67367Y-42627D01*
X67382Y-42634D01*
X67449Y-43925D02*
X67449Y-44000D01*
X67292Y-44000D01*
X67464Y-43910D02*
X67464Y-43790D01*
X67449Y-43753D02*
X67292Y-43753D01*
X67292Y-43715D01*
X67300Y-43693D01*
X67314Y-43678D01*
X67329Y-43670D01*
X67359Y-43663D01*
X67382Y-43663D01*
X67412Y-43670D01*
X67427Y-43678D01*
X67442Y-43693D01*
X67449Y-43715D01*
X67449Y-43753D01*
X67344Y-43528D02*
X67449Y-43528D01*
X67285Y-43566D02*
X67397Y-43603D01*
X67397Y-43506D01*
X67426Y-44972D02*
X67426Y-45047D01*
X67269Y-45047D01*
X67441Y-44957D02*
X67441Y-44837D01*
X67426Y-44800D02*
X67269Y-44800D01*
X67269Y-44762D01*
X67277Y-44740D01*
X67291Y-44725D01*
X67306Y-44717D01*
X67336Y-44710D01*
X67359Y-44710D01*
X67389Y-44717D01*
X67404Y-44725D01*
X67419Y-44740D01*
X67426Y-44762D01*
X67426Y-44800D01*
X67284Y-44650D02*
X67277Y-44643D01*
X67269Y-44628D01*
X67269Y-44590D01*
X67277Y-44575D01*
X67284Y-44568D01*
X67299Y-44560D01*
X67314Y-44560D01*
X67336Y-44568D01*
X67426Y-44658D01*
X67426Y-44560D01*
X67461Y-45972D02*
X67461Y-46047D01*
X67304Y-46047D01*
X67476Y-45957D02*
X67476Y-45837D01*
X67461Y-45800D02*
X67304Y-45800D01*
X67304Y-45762D01*
X67312Y-45740D01*
X67326Y-45725D01*
X67341Y-45717D01*
X67371Y-45710D01*
X67394Y-45710D01*
X67424Y-45717D01*
X67439Y-45725D01*
X67454Y-45740D01*
X67461Y-45762D01*
X67461Y-45800D01*
X67304Y-45613D02*
X67304Y-45598D01*
X67312Y-45583D01*
X67319Y-45575D01*
X67334Y-45568D01*
X67364Y-45560D01*
X67401Y-45560D01*
X67431Y-45568D01*
X67446Y-45575D01*
X67454Y-45583D01*
X67461Y-45598D01*
X67461Y-45613D01*
X67454Y-45628D01*
X67446Y-45635D01*
X67431Y-45643D01*
X67401Y-45650D01*
X67364Y-45650D01*
X67334Y-45643D01*
X67319Y-45635D01*
X67312Y-45628D01*
X67304Y-45613D01*
X67442Y-46963D02*
X67449Y-46941D01*
X67449Y-46903D01*
X67442Y-46888D01*
X67434Y-46881D01*
X67419Y-46873D01*
X67404Y-46873D01*
X67389Y-46881D01*
X67382Y-46888D01*
X67374Y-46903D01*
X67367Y-46933D01*
X67359Y-46948D01*
X67352Y-46956D01*
X67337Y-46963D01*
X67322Y-46963D01*
X67307Y-46956D01*
X67300Y-46948D01*
X67292Y-46933D01*
X67292Y-46896D01*
X67300Y-46873D01*
X67434Y-46716D02*
X67442Y-46723D01*
X67449Y-46746D01*
X67449Y-46761D01*
X67442Y-46783D01*
X67427Y-46798D01*
X67412Y-46806D01*
X67382Y-46813D01*
X67359Y-46813D01*
X67329Y-46806D01*
X67314Y-46798D01*
X67300Y-46783D01*
X67292Y-46761D01*
X67292Y-46746D01*
X67300Y-46723D01*
X67307Y-46716D01*
X67449Y-46574D02*
X67449Y-46649D01*
X67292Y-46649D01*
X48926Y-48248D02*
X48769Y-48248D01*
X48769Y-48188D01*
X48777Y-48173D01*
X48784Y-48165D01*
X48799Y-48158D01*
X48821Y-48158D01*
X48836Y-48165D01*
X48844Y-48173D01*
X48851Y-48188D01*
X48851Y-48248D01*
X48919Y-48098D02*
X48926Y-48076D01*
X48926Y-48038D01*
X48919Y-48023D01*
X48911Y-48016D01*
X48896Y-48008D01*
X48881Y-48008D01*
X48866Y-48016D01*
X48859Y-48023D01*
X48851Y-48038D01*
X48844Y-48068D01*
X48836Y-48083D01*
X48829Y-48091D01*
X48814Y-48098D01*
X48799Y-48098D01*
X48784Y-48091D01*
X48777Y-48083D01*
X48769Y-48068D01*
X48769Y-48031D01*
X48777Y-48008D01*
X48769Y-47956D02*
X48926Y-47918D01*
X48814Y-47888D01*
X48926Y-47858D01*
X48769Y-47821D01*
X48926Y-47762D02*
X48769Y-47762D01*
X48769Y-47709D02*
X48769Y-47619D01*
X48926Y-47664D02*
X48769Y-47664D01*
X48911Y-47477D02*
X48919Y-47484D01*
X48926Y-47507D01*
X48926Y-47522D01*
X48919Y-47544D01*
X48904Y-47559D01*
X48889Y-47567D01*
X48859Y-47574D01*
X48836Y-47574D01*
X48806Y-47567D01*
X48791Y-47559D01*
X48777Y-47544D01*
X48769Y-47522D01*
X48769Y-47507D01*
X48777Y-47484D01*
X48784Y-47477D01*
X48926Y-47410D02*
X48769Y-47410D01*
X48844Y-47410D02*
X48844Y-47320D01*
X48926Y-47320D02*
X48769Y-47320D01*
X47695Y-36111D02*
X47688Y-36119D01*
X47665Y-36126D01*
X47650Y-36126D01*
X47628Y-36119D01*
X47613Y-36104D01*
X47605Y-36089D01*
X47598Y-36059D01*
X47598Y-36036D01*
X47605Y-36006D01*
X47613Y-35991D01*
X47628Y-35977D01*
X47650Y-35969D01*
X47665Y-35969D01*
X47688Y-35977D01*
X47695Y-35984D01*
X47762Y-36044D02*
X47815Y-36044D01*
X47837Y-36126D02*
X47762Y-36126D01*
X47762Y-35969D01*
X47837Y-35969D01*
X47934Y-35969D02*
X47949Y-35969D01*
X47964Y-35977D01*
X47972Y-35984D01*
X47979Y-35999D01*
X47987Y-36029D01*
X47987Y-36066D01*
X47979Y-36096D01*
X47972Y-36111D01*
X47964Y-36119D01*
X47949Y-36126D01*
X47934Y-36126D01*
X47919Y-36119D01*
X47912Y-36111D01*
X47904Y-36096D01*
X47897Y-36066D01*
X47897Y-36029D01*
X47904Y-35999D01*
X47912Y-35984D01*
X47919Y-35977D01*
X47934Y-35969D01*
X46541Y-36107D02*
X46534Y-36115D01*
X46511Y-36122D01*
X46496Y-36122D01*
X46474Y-36115D01*
X46459Y-36100D01*
X46451Y-36085D01*
X46444Y-36055D01*
X46444Y-36032D01*
X46451Y-36002D01*
X46459Y-35987D01*
X46474Y-35973D01*
X46496Y-35965D01*
X46511Y-35965D01*
X46534Y-35973D01*
X46541Y-35980D01*
X46608Y-36040D02*
X46661Y-36040D01*
X46683Y-36122D02*
X46608Y-36122D01*
X46608Y-35965D01*
X46683Y-35965D01*
X46833Y-36122D02*
X46743Y-36122D01*
X46788Y-36122D02*
X46788Y-35965D01*
X46773Y-35987D01*
X46758Y-36002D01*
X46743Y-36010D01*
X48470Y-38254D02*
X48477Y-38232D01*
X48477Y-38194D01*
X48470Y-38179D01*
X48462Y-38172D01*
X48447Y-38164D01*
X48432Y-38164D01*
X48417Y-38172D01*
X48410Y-38179D01*
X48402Y-38194D01*
X48395Y-38224D01*
X48387Y-38239D01*
X48380Y-38247D01*
X48365Y-38254D01*
X48350Y-38254D01*
X48335Y-38247D01*
X48328Y-38239D01*
X48320Y-38224D01*
X48320Y-38187D01*
X48328Y-38164D01*
X48477Y-38097D02*
X48320Y-38097D01*
X48320Y-38037D01*
X48328Y-38022D01*
X48335Y-38014D01*
X48350Y-38007D01*
X48372Y-38007D01*
X48387Y-38014D01*
X48395Y-38022D01*
X48402Y-38037D01*
X48402Y-38097D01*
X48477Y-37940D02*
X48320Y-37940D01*
X48492Y-37902D02*
X48492Y-37782D01*
X48477Y-37745D02*
X48320Y-37745D01*
X48320Y-37707D01*
X48328Y-37685D01*
X48342Y-37670D01*
X48357Y-37662D01*
X48387Y-37655D01*
X48410Y-37655D01*
X48440Y-37662D01*
X48455Y-37670D01*
X48470Y-37685D01*
X48477Y-37707D01*
X48477Y-37745D01*
X48320Y-37558D02*
X48320Y-37543D01*
X48328Y-37528D01*
X48335Y-37520D01*
X48350Y-37513D01*
X48380Y-37505D01*
X48417Y-37505D01*
X48447Y-37513D01*
X48462Y-37520D01*
X48470Y-37528D01*
X48477Y-37543D01*
X48477Y-37558D01*
X48470Y-37573D01*
X48462Y-37580D01*
X48447Y-37588D01*
X48417Y-37595D01*
X48380Y-37595D01*
X48350Y-37588D01*
X48335Y-37580D01*
X48328Y-37573D01*
X48320Y-37558D01*
X48470Y-39254D02*
X48477Y-39232D01*
X48477Y-39194D01*
X48470Y-39179D01*
X48462Y-39172D01*
X48447Y-39164D01*
X48432Y-39164D01*
X48417Y-39172D01*
X48410Y-39179D01*
X48402Y-39194D01*
X48395Y-39224D01*
X48387Y-39239D01*
X48380Y-39247D01*
X48365Y-39254D01*
X48350Y-39254D01*
X48335Y-39247D01*
X48328Y-39239D01*
X48320Y-39224D01*
X48320Y-39187D01*
X48328Y-39164D01*
X48477Y-39097D02*
X48320Y-39097D01*
X48320Y-39037D01*
X48328Y-39022D01*
X48335Y-39014D01*
X48350Y-39007D01*
X48372Y-39007D01*
X48387Y-39014D01*
X48395Y-39022D01*
X48402Y-39037D01*
X48402Y-39097D01*
X48477Y-38940D02*
X48320Y-38940D01*
X48492Y-38902D02*
X48492Y-38782D01*
X48477Y-38745D02*
X48320Y-38745D01*
X48320Y-38707D01*
X48328Y-38685D01*
X48342Y-38670D01*
X48357Y-38662D01*
X48387Y-38655D01*
X48410Y-38655D01*
X48440Y-38662D01*
X48455Y-38670D01*
X48470Y-38685D01*
X48477Y-38707D01*
X48477Y-38745D01*
X48335Y-38595D02*
X48328Y-38588D01*
X48320Y-38573D01*
X48320Y-38535D01*
X48328Y-38520D01*
X48335Y-38513D01*
X48350Y-38505D01*
X48365Y-38505D01*
X48387Y-38513D01*
X48477Y-38603D01*
X48477Y-38505D01*
X48470Y-40260D02*
X48477Y-40238D01*
X48477Y-40200D01*
X48470Y-40185D01*
X48462Y-40178D01*
X48447Y-40170D01*
X48432Y-40170D01*
X48417Y-40178D01*
X48410Y-40185D01*
X48402Y-40200D01*
X48395Y-40230D01*
X48387Y-40245D01*
X48380Y-40253D01*
X48365Y-40260D01*
X48350Y-40260D01*
X48335Y-40253D01*
X48328Y-40245D01*
X48320Y-40230D01*
X48320Y-40193D01*
X48328Y-40170D01*
X48477Y-40103D02*
X48320Y-40103D01*
X48320Y-40043D01*
X48328Y-40028D01*
X48335Y-40020D01*
X48350Y-40013D01*
X48372Y-40013D01*
X48387Y-40020D01*
X48395Y-40028D01*
X48402Y-40043D01*
X48402Y-40103D01*
X48477Y-39946D02*
X48320Y-39946D01*
X48492Y-39908D02*
X48492Y-39788D01*
X48477Y-39751D02*
X48320Y-39751D01*
X48320Y-39713D01*
X48328Y-39691D01*
X48342Y-39676D01*
X48357Y-39668D01*
X48387Y-39661D01*
X48410Y-39661D01*
X48440Y-39668D01*
X48455Y-39676D01*
X48470Y-39691D01*
X48477Y-39713D01*
X48477Y-39751D01*
X48395Y-39594D02*
X48395Y-39541D01*
X48477Y-39519D02*
X48477Y-39594D01*
X48320Y-39594D01*
X48320Y-39519D01*
X48320Y-39474D02*
X48320Y-39384D01*
X48477Y-39429D02*
X48320Y-39429D01*
X48470Y-41271D02*
X48477Y-41249D01*
X48477Y-41211D01*
X48470Y-41196D01*
X48462Y-41189D01*
X48447Y-41181D01*
X48432Y-41181D01*
X48417Y-41189D01*
X48410Y-41196D01*
X48402Y-41211D01*
X48395Y-41241D01*
X48387Y-41256D01*
X48380Y-41264D01*
X48365Y-41271D01*
X48350Y-41271D01*
X48335Y-41264D01*
X48328Y-41256D01*
X48320Y-41241D01*
X48320Y-41204D01*
X48328Y-41181D01*
X48477Y-41114D02*
X48320Y-41114D01*
X48320Y-41054D01*
X48328Y-41039D01*
X48335Y-41031D01*
X48350Y-41024D01*
X48372Y-41024D01*
X48387Y-41031D01*
X48395Y-41039D01*
X48402Y-41054D01*
X48402Y-41114D01*
X48477Y-40957D02*
X48320Y-40957D01*
X48492Y-40919D02*
X48492Y-40799D01*
X48462Y-40672D02*
X48470Y-40679D01*
X48477Y-40702D01*
X48477Y-40717D01*
X48470Y-40739D01*
X48455Y-40754D01*
X48440Y-40762D01*
X48410Y-40769D01*
X48387Y-40769D01*
X48357Y-40762D01*
X48342Y-40754D01*
X48328Y-40739D01*
X48320Y-40717D01*
X48320Y-40702D01*
X48328Y-40679D01*
X48335Y-40672D01*
X48477Y-40530D02*
X48477Y-40605D01*
X48320Y-40605D01*
X48477Y-40478D02*
X48320Y-40478D01*
X48477Y-40388D02*
X48387Y-40455D01*
X48320Y-40388D02*
X48410Y-40478D01*
X48320Y-42182D02*
X48477Y-42130D01*
X48320Y-42077D01*
X48477Y-42025D02*
X48320Y-42025D01*
X48320Y-41987D01*
X48328Y-41965D01*
X48342Y-41950D01*
X48357Y-41942D01*
X48387Y-41935D01*
X48410Y-41935D01*
X48440Y-41942D01*
X48455Y-41950D01*
X48470Y-41965D01*
X48477Y-41987D01*
X48477Y-42025D01*
X48432Y-41875D02*
X48432Y-41800D01*
X48477Y-41890D02*
X48320Y-41838D01*
X48477Y-41785D01*
X48462Y-41643D02*
X48470Y-41650D01*
X48477Y-41673D01*
X48477Y-41688D01*
X48470Y-41710D01*
X48455Y-41725D01*
X48440Y-41733D01*
X48410Y-41740D01*
X48387Y-41740D01*
X48357Y-41733D01*
X48342Y-41725D01*
X48328Y-41710D01*
X48320Y-41688D01*
X48320Y-41673D01*
X48328Y-41650D01*
X48335Y-41643D01*
X48477Y-41493D02*
X48477Y-41583D01*
X48477Y-41538D02*
X48320Y-41538D01*
X48342Y-41553D01*
X48357Y-41568D01*
X48365Y-41583D01*
X48335Y-42643D02*
X48260Y-42643D01*
X48260Y-42486D01*
X48477Y-42643D02*
X48425Y-42568D01*
X48387Y-42643D02*
X48387Y-42486D01*
X48447Y-42486D01*
X48462Y-42494D01*
X48470Y-42501D01*
X48477Y-42516D01*
X48477Y-42538D01*
X48470Y-42553D01*
X48462Y-42561D01*
X48447Y-42568D01*
X48387Y-42568D01*
X48537Y-42598D02*
X48612Y-42598D01*
X48522Y-42643D02*
X48574Y-42486D01*
X48627Y-42643D01*
X48679Y-42643D02*
X48679Y-42486D01*
X48717Y-42486D01*
X48739Y-42494D01*
X48754Y-42508D01*
X48762Y-42523D01*
X48769Y-42553D01*
X48769Y-42576D01*
X48762Y-42606D01*
X48754Y-42621D01*
X48739Y-42636D01*
X48717Y-42643D01*
X48679Y-42643D01*
X48926Y-42628D02*
X48919Y-42636D01*
X48896Y-42643D01*
X48881Y-42643D01*
X48859Y-42636D01*
X48844Y-42621D01*
X48836Y-42606D01*
X48829Y-42576D01*
X48829Y-42553D01*
X48836Y-42523D01*
X48844Y-42508D01*
X48859Y-42494D01*
X48881Y-42486D01*
X48896Y-42486D01*
X48919Y-42494D01*
X48926Y-42501D01*
X49023Y-42486D02*
X49038Y-42486D01*
X49053Y-42494D01*
X49061Y-42501D01*
X49068Y-42516D01*
X49076Y-42546D01*
X49076Y-42583D01*
X49068Y-42613D01*
X49061Y-42628D01*
X49053Y-42636D01*
X49038Y-42643D01*
X49023Y-42643D01*
X49008Y-42636D01*
X49001Y-42628D01*
X48993Y-42613D01*
X48986Y-42583D01*
X48986Y-42546D01*
X48993Y-42516D01*
X49001Y-42501D01*
X49008Y-42494D01*
X49023Y-42486D01*
X48320Y-44013D02*
X48320Y-43915D01*
X48380Y-43968D01*
X48380Y-43945D01*
X48387Y-43930D01*
X48395Y-43923D01*
X48410Y-43915D01*
X48447Y-43915D01*
X48462Y-43923D01*
X48470Y-43930D01*
X48477Y-43945D01*
X48477Y-43990D01*
X48470Y-44005D01*
X48462Y-44013D01*
X48462Y-43848D02*
X48470Y-43840D01*
X48477Y-43848D01*
X48470Y-43855D01*
X48462Y-43848D01*
X48477Y-43848D01*
X48320Y-43788D02*
X48320Y-43690D01*
X48380Y-43743D01*
X48380Y-43720D01*
X48387Y-43705D01*
X48395Y-43698D01*
X48410Y-43690D01*
X48447Y-43690D01*
X48462Y-43698D01*
X48470Y-43705D01*
X48477Y-43720D01*
X48477Y-43765D01*
X48470Y-43780D01*
X48462Y-43788D01*
X48320Y-43645D02*
X48477Y-43593D01*
X48320Y-43540D01*
X48477Y-45270D02*
X48320Y-45270D01*
X48395Y-45270D02*
X48395Y-45180D01*
X48477Y-45180D02*
X48320Y-45180D01*
X48477Y-45106D02*
X48320Y-45106D01*
X48320Y-45046D01*
X48328Y-45031D01*
X48335Y-45023D01*
X48350Y-45016D01*
X48372Y-45016D01*
X48387Y-45023D01*
X48395Y-45031D01*
X48402Y-45046D01*
X48402Y-45106D01*
X48492Y-44986D02*
X48492Y-44866D01*
X48320Y-44851D02*
X48477Y-44799D01*
X48320Y-44746D01*
X48328Y-44611D02*
X48320Y-44626D01*
X48320Y-44649D01*
X48328Y-44671D01*
X48342Y-44686D01*
X48357Y-44694D01*
X48387Y-44701D01*
X48410Y-44701D01*
X48440Y-44694D01*
X48455Y-44686D01*
X48470Y-44671D01*
X48477Y-44649D01*
X48477Y-44634D01*
X48470Y-44611D01*
X48462Y-44604D01*
X48410Y-44604D01*
X48410Y-44634D01*
X48477Y-44537D02*
X48320Y-44537D01*
X48477Y-44447D01*
X48320Y-44447D01*
X48477Y-44373D02*
X48320Y-44373D01*
X48320Y-44335D01*
X48328Y-44313D01*
X48342Y-44298D01*
X48357Y-44290D01*
X48387Y-44283D01*
X48410Y-44283D01*
X48440Y-44290D01*
X48455Y-44298D01*
X48470Y-44313D01*
X48477Y-44335D01*
X48477Y-44373D01*
X48520Y-45963D02*
X48363Y-45963D01*
X48438Y-45963D02*
X48438Y-45873D01*
X48520Y-45873D02*
X48363Y-45873D01*
X48520Y-45799D02*
X48363Y-45799D01*
X48363Y-45739D01*
X48371Y-45724D01*
X48378Y-45716D01*
X48393Y-45709D01*
X48415Y-45709D01*
X48430Y-45716D01*
X48438Y-45724D01*
X48445Y-45739D01*
X48445Y-45799D01*
X48520Y-45567D02*
X48520Y-45642D01*
X48363Y-45642D01*
X48532Y-47009D02*
X48532Y-47084D01*
X48375Y-47084D01*
X48532Y-46874D02*
X48532Y-46964D01*
X48532Y-46919D02*
X48375Y-46919D01*
X48397Y-46934D01*
X48412Y-46949D01*
X48420Y-46964D01*
X48547Y-46844D02*
X48547Y-46724D01*
X48532Y-46687D02*
X48375Y-46687D01*
X48532Y-46612D02*
X48375Y-46612D01*
X48532Y-46522D01*
X48375Y-46522D01*
X48532Y-46373D02*
X48532Y-46448D01*
X48375Y-46448D01*
X45828Y-48349D02*
X45820Y-48364D01*
X45820Y-48387D01*
X45828Y-48409D01*
X45842Y-48424D01*
X45857Y-48432D01*
X45887Y-48439D01*
X45910Y-48439D01*
X45940Y-48432D01*
X45955Y-48424D01*
X45970Y-48409D01*
X45977Y-48387D01*
X45977Y-48372D01*
X45970Y-48349D01*
X45962Y-48342D01*
X45910Y-48342D01*
X45910Y-48372D01*
X45977Y-48275D02*
X45820Y-48275D01*
X45977Y-48185D01*
X45820Y-48185D01*
X45977Y-48111D02*
X45820Y-48111D01*
X45820Y-48073D01*
X45828Y-48051D01*
X45842Y-48036D01*
X45857Y-48028D01*
X45887Y-48021D01*
X45910Y-48021D01*
X45940Y-48028D01*
X45955Y-48036D01*
X45970Y-48051D01*
X45977Y-48073D01*
X45977Y-48111D01*
X45977Y-46948D02*
X45820Y-46948D01*
X45932Y-46895D01*
X45820Y-46843D01*
X45977Y-46843D01*
X45977Y-46769D02*
X45820Y-46769D01*
X45962Y-46604D02*
X45970Y-46611D01*
X45977Y-46634D01*
X45977Y-46649D01*
X45970Y-46671D01*
X45955Y-46686D01*
X45940Y-46694D01*
X45910Y-46701D01*
X45887Y-46701D01*
X45857Y-46694D01*
X45842Y-46686D01*
X45828Y-46671D01*
X45820Y-46649D01*
X45820Y-46634D01*
X45828Y-46611D01*
X45835Y-46604D01*
X45977Y-46036D02*
X45977Y-46111D01*
X45820Y-46111D01*
X45977Y-45901D02*
X45977Y-45991D01*
X45977Y-45946D02*
X45820Y-45946D01*
X45842Y-45961D01*
X45857Y-45976D01*
X45865Y-45991D01*
X45992Y-45871D02*
X45992Y-45751D01*
X45977Y-45714D02*
X45820Y-45714D01*
X45977Y-45639D02*
X45820Y-45639D01*
X45977Y-45549D01*
X45820Y-45549D01*
X45977Y-45082D02*
X45820Y-45082D01*
X45895Y-45082D02*
X45895Y-44992D01*
X45977Y-44992D02*
X45820Y-44992D01*
X45977Y-44918D02*
X45820Y-44918D01*
X45820Y-44858D01*
X45828Y-44843D01*
X45835Y-44835D01*
X45850Y-44828D01*
X45872Y-44828D01*
X45887Y-44835D01*
X45895Y-44843D01*
X45902Y-44858D01*
X45902Y-44918D01*
X45977Y-44671D02*
X45902Y-44723D01*
X45977Y-44761D02*
X45820Y-44761D01*
X45820Y-44701D01*
X45828Y-44686D01*
X45835Y-44678D01*
X45850Y-44671D01*
X45872Y-44671D01*
X45887Y-44678D01*
X45895Y-44686D01*
X45902Y-44701D01*
X45902Y-44761D01*
X45828Y-43949D02*
X45820Y-43964D01*
X45820Y-43987D01*
X45828Y-44009D01*
X45842Y-44024D01*
X45857Y-44032D01*
X45887Y-44039D01*
X45910Y-44039D01*
X45940Y-44032D01*
X45955Y-44024D01*
X45970Y-44009D01*
X45977Y-43987D01*
X45977Y-43972D01*
X45970Y-43949D01*
X45962Y-43942D01*
X45910Y-43942D01*
X45910Y-43972D01*
X45977Y-43875D02*
X45820Y-43875D01*
X45977Y-43785D01*
X45820Y-43785D01*
X45977Y-43711D02*
X45820Y-43711D01*
X45820Y-43673D01*
X45828Y-43651D01*
X45842Y-43636D01*
X45857Y-43628D01*
X45887Y-43621D01*
X45910Y-43621D01*
X45940Y-43628D01*
X45955Y-43636D01*
X45970Y-43651D01*
X45977Y-43673D01*
X45977Y-43711D01*
X45977Y-43109D02*
X45977Y-43184D01*
X45820Y-43184D01*
X45977Y-42967D02*
X45902Y-43019D01*
X45977Y-43057D02*
X45820Y-43057D01*
X45820Y-42997D01*
X45828Y-42982D01*
X45835Y-42974D01*
X45850Y-42967D01*
X45872Y-42967D01*
X45887Y-42974D01*
X45895Y-42982D01*
X45902Y-42997D01*
X45902Y-43057D01*
X45932Y-42907D02*
X45932Y-42832D01*
X45977Y-42922D02*
X45820Y-42870D01*
X45977Y-42817D01*
X45977Y-42765D02*
X45820Y-42765D01*
X45820Y-42727D01*
X45828Y-42705D01*
X45842Y-42690D01*
X45857Y-42682D01*
X45887Y-42675D01*
X45910Y-42675D01*
X45940Y-42682D01*
X45955Y-42690D01*
X45970Y-42705D01*
X45977Y-42727D01*
X45977Y-42765D01*
X45962Y-42518D02*
X45970Y-42525D01*
X45977Y-42548D01*
X45977Y-42563D01*
X45970Y-42585D01*
X45955Y-42600D01*
X45940Y-42608D01*
X45910Y-42615D01*
X45887Y-42615D01*
X45857Y-42608D01*
X45842Y-42600D01*
X45828Y-42585D01*
X45820Y-42563D01*
X45820Y-42548D01*
X45828Y-42525D01*
X45835Y-42518D01*
X45977Y-42368D02*
X45977Y-42458D01*
X45977Y-42413D02*
X45820Y-42413D01*
X45842Y-42428D01*
X45857Y-42443D01*
X45865Y-42458D01*
X45977Y-42075D02*
X45820Y-42075D01*
X45820Y-42015D01*
X45828Y-42000D01*
X45835Y-41992D01*
X45850Y-41985D01*
X45872Y-41985D01*
X45887Y-41992D01*
X45895Y-42000D01*
X45902Y-42015D01*
X45902Y-42075D01*
X45820Y-41933D02*
X45977Y-41895D01*
X45865Y-41865D01*
X45977Y-41835D01*
X45820Y-41798D01*
X45977Y-41739D02*
X45820Y-41739D01*
X45932Y-41686D01*
X45820Y-41634D01*
X45977Y-41634D01*
X45835Y-41567D02*
X45828Y-41560D01*
X45820Y-41545D01*
X45820Y-41507D01*
X45828Y-41492D01*
X45835Y-41485D01*
X45850Y-41477D01*
X45865Y-41477D01*
X45887Y-41485D01*
X45977Y-41575D01*
X45977Y-41477D01*
X45970Y-41223D02*
X45977Y-41201D01*
X45977Y-41163D01*
X45970Y-41148D01*
X45962Y-41141D01*
X45947Y-41133D01*
X45932Y-41133D01*
X45917Y-41141D01*
X45910Y-41148D01*
X45902Y-41163D01*
X45895Y-41193D01*
X45887Y-41208D01*
X45880Y-41216D01*
X45865Y-41223D01*
X45850Y-41223D01*
X45835Y-41216D01*
X45828Y-41208D01*
X45820Y-41193D01*
X45820Y-41156D01*
X45828Y-41133D01*
X45813Y-40953D02*
X46014Y-41088D01*
X45820Y-40857D02*
X45932Y-40857D01*
X45955Y-40864D01*
X45970Y-40879D01*
X45977Y-40902D01*
X45977Y-40917D01*
X45820Y-40804D02*
X45820Y-40714D01*
X45977Y-40759D02*
X45820Y-40759D01*
X45932Y-40669D02*
X45932Y-40594D01*
X45977Y-40684D02*
X45820Y-40632D01*
X45977Y-40579D01*
X45828Y-40444D02*
X45820Y-40459D01*
X45820Y-40482D01*
X45828Y-40504D01*
X45842Y-40519D01*
X45857Y-40527D01*
X45887Y-40534D01*
X45910Y-40534D01*
X45940Y-40527D01*
X45955Y-40519D01*
X45970Y-40504D01*
X45977Y-40482D01*
X45977Y-40467D01*
X45970Y-40444D01*
X45962Y-40437D01*
X45910Y-40437D01*
X45910Y-40467D01*
X45970Y-40154D02*
X45977Y-40132D01*
X45977Y-40094D01*
X45970Y-40079D01*
X45962Y-40072D01*
X45947Y-40064D01*
X45932Y-40064D01*
X45917Y-40072D01*
X45910Y-40079D01*
X45902Y-40094D01*
X45895Y-40124D01*
X45887Y-40139D01*
X45880Y-40147D01*
X45865Y-40154D01*
X45850Y-40154D01*
X45835Y-40147D01*
X45828Y-40139D01*
X45820Y-40124D01*
X45820Y-40087D01*
X45828Y-40064D01*
X45977Y-39997D02*
X45820Y-39997D01*
X45820Y-39937D01*
X45828Y-39922D01*
X45835Y-39914D01*
X45850Y-39907D01*
X45872Y-39907D01*
X45887Y-39914D01*
X45895Y-39922D01*
X45902Y-39937D01*
X45902Y-39997D01*
X45977Y-39840D02*
X45820Y-39840D01*
X45992Y-39802D02*
X45992Y-39682D01*
X45977Y-39645D02*
X45820Y-39645D01*
X45820Y-39607D01*
X45828Y-39585D01*
X45842Y-39570D01*
X45857Y-39562D01*
X45887Y-39555D01*
X45910Y-39555D01*
X45940Y-39562D01*
X45955Y-39570D01*
X45970Y-39585D01*
X45977Y-39607D01*
X45977Y-39645D01*
X45820Y-39503D02*
X45820Y-39405D01*
X45880Y-39458D01*
X45880Y-39435D01*
X45887Y-39420D01*
X45895Y-39413D01*
X45910Y-39405D01*
X45947Y-39405D01*
X45962Y-39413D01*
X45970Y-39420D01*
X45977Y-39435D01*
X45977Y-39480D01*
X45970Y-39495D01*
X45962Y-39503D01*
X45970Y-39104D02*
X45977Y-39082D01*
X45977Y-39044D01*
X45970Y-39029D01*
X45962Y-39022D01*
X45947Y-39014D01*
X45932Y-39014D01*
X45917Y-39022D01*
X45910Y-39029D01*
X45902Y-39044D01*
X45895Y-39074D01*
X45887Y-39089D01*
X45880Y-39097D01*
X45865Y-39104D01*
X45850Y-39104D01*
X45835Y-39097D01*
X45828Y-39089D01*
X45820Y-39074D01*
X45820Y-39037D01*
X45828Y-39014D01*
X45977Y-38947D02*
X45820Y-38947D01*
X45820Y-38887D01*
X45828Y-38872D01*
X45835Y-38864D01*
X45850Y-38857D01*
X45872Y-38857D01*
X45887Y-38864D01*
X45895Y-38872D01*
X45902Y-38887D01*
X45902Y-38947D01*
X45977Y-38790D02*
X45820Y-38790D01*
X45992Y-38752D02*
X45992Y-38632D01*
X45977Y-38595D02*
X45820Y-38595D01*
X45820Y-38557D01*
X45828Y-38535D01*
X45842Y-38520D01*
X45857Y-38512D01*
X45887Y-38505D01*
X45910Y-38505D01*
X45940Y-38512D01*
X45955Y-38520D01*
X45970Y-38535D01*
X45977Y-38557D01*
X45977Y-38595D01*
X45977Y-38355D02*
X45977Y-38445D01*
X45977Y-38400D02*
X45820Y-38400D01*
X45842Y-38415D01*
X45857Y-38430D01*
X45865Y-38445D01*
X45970Y-38169D02*
X45977Y-38147D01*
X45977Y-38109D01*
X45970Y-38094D01*
X45962Y-38087D01*
X45947Y-38079D01*
X45932Y-38079D01*
X45917Y-38087D01*
X45910Y-38094D01*
X45902Y-38109D01*
X45895Y-38139D01*
X45887Y-38154D01*
X45880Y-38162D01*
X45865Y-38169D01*
X45850Y-38169D01*
X45835Y-38162D01*
X45828Y-38154D01*
X45820Y-38139D01*
X45820Y-38102D01*
X45828Y-38079D01*
X45977Y-38012D02*
X45820Y-38012D01*
X45820Y-37952D01*
X45828Y-37937D01*
X45835Y-37929D01*
X45850Y-37922D01*
X45872Y-37922D01*
X45887Y-37929D01*
X45895Y-37937D01*
X45902Y-37952D01*
X45902Y-38012D01*
X45977Y-37855D02*
X45820Y-37855D01*
X45992Y-37817D02*
X45992Y-37697D01*
X45962Y-37570D02*
X45970Y-37577D01*
X45977Y-37600D01*
X45977Y-37615D01*
X45970Y-37637D01*
X45955Y-37652D01*
X45940Y-37660D01*
X45910Y-37667D01*
X45887Y-37667D01*
X45857Y-37660D01*
X45842Y-37652D01*
X45828Y-37637D01*
X45820Y-37615D01*
X45820Y-37600D01*
X45828Y-37577D01*
X45835Y-37570D01*
X45977Y-37503D02*
X45820Y-37503D01*
X45932Y-37450D01*
X45820Y-37398D01*
X45977Y-37398D01*
G54D14*
X59633Y-42677D02*
X59614Y-42693D01*
X59558Y-42710D01*
X59520Y-42710D01*
X59464Y-42693D01*
X59427Y-42660D01*
X59408Y-42626D01*
X59389Y-42559D01*
X59389Y-42508D01*
X59408Y-42441D01*
X59427Y-42407D01*
X59464Y-42373D01*
X59520Y-42356D01*
X59558Y-42356D01*
X59614Y-42373D01*
X59633Y-42390D01*
X60027Y-42677D02*
X60008Y-42693D01*
X59952Y-42710D01*
X59914Y-42710D01*
X59858Y-42693D01*
X59821Y-42660D01*
X59802Y-42626D01*
X59783Y-42559D01*
X59783Y-42508D01*
X59802Y-42441D01*
X59821Y-42407D01*
X59858Y-42373D01*
X59914Y-42356D01*
X59952Y-42356D01*
X60008Y-42373D01*
X60027Y-42390D01*
X60196Y-42575D02*
X60496Y-42575D01*
X60815Y-42525D02*
X60871Y-42542D01*
X60890Y-42559D01*
X60909Y-42592D01*
X60909Y-42643D01*
X60890Y-42677D01*
X60871Y-42693D01*
X60834Y-42710D01*
X60684Y-42710D01*
X60684Y-42356D01*
X60815Y-42356D01*
X60853Y-42373D01*
X60871Y-42390D01*
X60890Y-42424D01*
X60890Y-42457D01*
X60871Y-42491D01*
X60853Y-42508D01*
X60815Y-42525D01*
X60684Y-42525D01*
X61153Y-42542D02*
X61153Y-42710D01*
X61022Y-42356D02*
X61153Y-42542D01*
X61284Y-42356D01*
X61416Y-42575D02*
X61716Y-42575D01*
X61885Y-42693D02*
X61941Y-42710D01*
X62035Y-42710D01*
X62073Y-42693D01*
X62091Y-42677D01*
X62110Y-42643D01*
X62110Y-42609D01*
X62091Y-42575D01*
X62073Y-42559D01*
X62035Y-42542D01*
X61960Y-42525D01*
X61923Y-42508D01*
X61904Y-42491D01*
X61885Y-42457D01*
X61885Y-42424D01*
X61904Y-42390D01*
X61923Y-42373D01*
X61960Y-42356D01*
X62054Y-42356D01*
X62110Y-42373D01*
X62260Y-42609D02*
X62448Y-42609D01*
X62223Y-42710D02*
X62354Y-42356D01*
X62485Y-42710D01*
G54D15*
X59287Y-38656D02*
X59287Y-38376D01*
X59352Y-38376D01*
X59392Y-38390D01*
X59418Y-38416D01*
X59431Y-38443D01*
X59444Y-38496D01*
X59444Y-38536D01*
X59431Y-38590D01*
X59418Y-38616D01*
X59392Y-38643D01*
X59352Y-38656D01*
X59287Y-38656D01*
X59563Y-38510D02*
X59655Y-38510D01*
X59694Y-38656D02*
X59563Y-38656D01*
X59563Y-38376D01*
X59694Y-38376D01*
X59905Y-38510D02*
X59813Y-38510D01*
X59813Y-38656D02*
X59813Y-38376D01*
X59944Y-38376D01*
X60037Y-38576D02*
X60168Y-38576D01*
X60010Y-38656D02*
X60102Y-38376D01*
X60194Y-38656D01*
X60287Y-38376D02*
X60287Y-38603D01*
X60300Y-38630D01*
X60313Y-38643D01*
X60339Y-38656D01*
X60392Y-38656D01*
X60418Y-38643D01*
X60431Y-38630D01*
X60444Y-38603D01*
X60444Y-38376D01*
X60707Y-38656D02*
X60576Y-38656D01*
X60576Y-38376D01*
X60759Y-38376D02*
X60917Y-38376D01*
X60838Y-38656D02*
X60838Y-38376D01*
X61009Y-38630D02*
X61022Y-38643D01*
X61009Y-38656D01*
X60996Y-38643D01*
X61009Y-38630D01*
X61009Y-38656D01*
X61009Y-38483D02*
X61022Y-38496D01*
X61009Y-38510D01*
X60996Y-38496D01*
X61009Y-38483D01*
X61009Y-38510D01*
X61337Y-38643D02*
X61376Y-38656D01*
X61442Y-38656D01*
X61468Y-38643D01*
X61481Y-38630D01*
X61494Y-38603D01*
X61494Y-38576D01*
X61481Y-38550D01*
X61468Y-38536D01*
X61442Y-38523D01*
X61389Y-38510D01*
X61363Y-38496D01*
X61350Y-38483D01*
X61337Y-38456D01*
X61337Y-38430D01*
X61350Y-38403D01*
X61363Y-38390D01*
X61389Y-38376D01*
X61455Y-38376D01*
X61494Y-38390D01*
X61613Y-38656D02*
X61613Y-38376D01*
X61678Y-38376D01*
X61718Y-38390D01*
X61744Y-38416D01*
X61757Y-38443D01*
X61770Y-38496D01*
X61770Y-38536D01*
X61757Y-38590D01*
X61744Y-38616D01*
X61718Y-38643D01*
X61678Y-38656D01*
X61613Y-38656D01*
X62086Y-38363D02*
X61849Y-38723D01*
X62178Y-38656D02*
X62178Y-38376D01*
X62270Y-38576D01*
X62362Y-38376D01*
X62362Y-38656D01*
X62493Y-38656D02*
X62493Y-38376D01*
X62585Y-38576D01*
X62677Y-38376D01*
X62677Y-38656D01*
X62965Y-38630D02*
X62952Y-38643D01*
X62913Y-38656D01*
X62887Y-38656D01*
X62847Y-38643D01*
X62821Y-38616D01*
X62808Y-38590D01*
X62795Y-38536D01*
X62795Y-38496D01*
X62808Y-38443D01*
X62821Y-38416D01*
X62847Y-38390D01*
X62887Y-38376D01*
X62913Y-38376D01*
X62952Y-38390D01*
X62965Y-38403D01*
X63281Y-38643D02*
X63320Y-38656D01*
X63386Y-38656D01*
X63412Y-38643D01*
X63425Y-38630D01*
X63438Y-38603D01*
X63438Y-38576D01*
X63425Y-38550D01*
X63412Y-38536D01*
X63386Y-38523D01*
X63333Y-38510D01*
X63307Y-38496D01*
X63294Y-38483D01*
X63281Y-38456D01*
X63281Y-38430D01*
X63294Y-38403D01*
X63307Y-38390D01*
X63333Y-38376D01*
X63399Y-38376D01*
X63438Y-38390D01*
X63544Y-38643D02*
X63583Y-38656D01*
X63649Y-38656D01*
X63675Y-38643D01*
X63688Y-38630D01*
X63701Y-38603D01*
X63701Y-38576D01*
X63688Y-38550D01*
X63675Y-38536D01*
X63649Y-38523D01*
X63596Y-38510D01*
X63570Y-38496D01*
X63557Y-38483D01*
X63544Y-38456D01*
X63544Y-38430D01*
X63557Y-38403D01*
X63570Y-38390D01*
X63596Y-38376D01*
X63662Y-38376D01*
X63701Y-38390D01*
X63820Y-38656D02*
X63820Y-38376D01*
X63925Y-38376D01*
X63951Y-38390D01*
X63964Y-38403D01*
X63977Y-38430D01*
X63977Y-38470D01*
X63964Y-38496D01*
X63951Y-38510D01*
X63925Y-38523D01*
X63820Y-38523D01*
X64083Y-38403D02*
X64096Y-38390D01*
X64122Y-38376D01*
X64188Y-38376D01*
X64214Y-38390D01*
X64227Y-38403D01*
X64240Y-38430D01*
X64240Y-38456D01*
X64227Y-38496D01*
X64069Y-38656D01*
X64240Y-38656D01*
X59216Y-39987D02*
X59216Y-40187D01*
X59202Y-40227D01*
X59176Y-40254D01*
X59137Y-40267D01*
X59110Y-40267D01*
X59347Y-40267D02*
X59347Y-39987D01*
X59452Y-39987D01*
X59478Y-40001D01*
X59491Y-40014D01*
X59504Y-40041D01*
X59504Y-40081D01*
X59491Y-40107D01*
X59478Y-40121D01*
X59452Y-40134D01*
X59347Y-40134D01*
X59610Y-40014D02*
X59623Y-40001D01*
X59649Y-39987D01*
X59715Y-39987D01*
X59741Y-40001D01*
X59754Y-40014D01*
X59767Y-40041D01*
X59767Y-40067D01*
X59754Y-40107D01*
X59596Y-40267D01*
X59767Y-40267D01*
X59886Y-40161D02*
X60096Y-40161D01*
X60307Y-39987D02*
X60307Y-40187D01*
X60293Y-40227D01*
X60267Y-40254D01*
X60228Y-40267D01*
X60201Y-40267D01*
X60438Y-40267D02*
X60438Y-39987D01*
X60543Y-39987D01*
X60569Y-40001D01*
X60582Y-40014D01*
X60595Y-40041D01*
X60595Y-40081D01*
X60582Y-40107D01*
X60569Y-40121D01*
X60543Y-40134D01*
X60438Y-40134D01*
X60687Y-39987D02*
X60858Y-39987D01*
X60766Y-40094D01*
X60806Y-40094D01*
X60832Y-40107D01*
X60845Y-40121D01*
X60858Y-40147D01*
X60858Y-40214D01*
X60845Y-40241D01*
X60832Y-40254D01*
X60806Y-40267D01*
X60727Y-40267D01*
X60701Y-40254D01*
X60687Y-40241D01*
X60977Y-40241D02*
X60990Y-40254D01*
X60977Y-40267D01*
X60964Y-40254D01*
X60977Y-40241D01*
X60977Y-40267D01*
X60977Y-40094D02*
X60990Y-40107D01*
X60977Y-40121D01*
X60964Y-40107D01*
X60977Y-40094D01*
X60977Y-40121D01*
X61318Y-39987D02*
X61318Y-40214D01*
X61331Y-40241D01*
X61344Y-40254D01*
X61370Y-40267D01*
X61423Y-40267D01*
X61449Y-40254D01*
X61462Y-40241D01*
X61475Y-40214D01*
X61475Y-39987D01*
X61594Y-40254D02*
X61633Y-40267D01*
X61699Y-40267D01*
X61725Y-40254D01*
X61738Y-40241D01*
X61751Y-40214D01*
X61751Y-40187D01*
X61738Y-40161D01*
X61725Y-40147D01*
X61699Y-40134D01*
X61646Y-40121D01*
X61620Y-40107D01*
X61607Y-40094D01*
X61594Y-40067D01*
X61594Y-40041D01*
X61607Y-40014D01*
X61620Y-40001D01*
X61646Y-39987D01*
X61712Y-39987D01*
X61751Y-40001D01*
X61962Y-40121D02*
X62001Y-40134D01*
X62014Y-40147D01*
X62027Y-40174D01*
X62027Y-40214D01*
X62014Y-40241D01*
X62001Y-40254D01*
X61975Y-40267D01*
X61870Y-40267D01*
X61870Y-39987D01*
X61962Y-39987D01*
X61988Y-40001D01*
X62001Y-40014D01*
X62014Y-40041D01*
X62014Y-40067D01*
X62001Y-40094D01*
X61988Y-40107D01*
X61962Y-40121D01*
X61870Y-40121D01*
X59216Y-39597D02*
X59216Y-39797D01*
X59202Y-39837D01*
X59176Y-39864D01*
X59137Y-39877D01*
X59110Y-39877D01*
X59347Y-39877D02*
X59347Y-39597D01*
X59452Y-39597D01*
X59478Y-39611D01*
X59491Y-39624D01*
X59504Y-39651D01*
X59504Y-39691D01*
X59491Y-39717D01*
X59478Y-39731D01*
X59452Y-39744D01*
X59347Y-39744D01*
X59767Y-39877D02*
X59610Y-39877D01*
X59688Y-39877D02*
X59688Y-39597D01*
X59662Y-39637D01*
X59636Y-39664D01*
X59610Y-39677D01*
X59886Y-39771D02*
X60096Y-39771D01*
X60307Y-39597D02*
X60307Y-39797D01*
X60293Y-39837D01*
X60267Y-39864D01*
X60228Y-39877D01*
X60201Y-39877D01*
X60438Y-39877D02*
X60438Y-39597D01*
X60543Y-39597D01*
X60569Y-39611D01*
X60582Y-39624D01*
X60595Y-39651D01*
X60595Y-39691D01*
X60582Y-39717D01*
X60569Y-39731D01*
X60543Y-39744D01*
X60438Y-39744D01*
X60701Y-39624D02*
X60714Y-39611D01*
X60740Y-39597D01*
X60806Y-39597D01*
X60832Y-39611D01*
X60845Y-39624D01*
X60858Y-39651D01*
X60858Y-39677D01*
X60845Y-39717D01*
X60687Y-39877D01*
X60858Y-39877D01*
X60977Y-39851D02*
X60990Y-39864D01*
X60977Y-39877D01*
X60964Y-39864D01*
X60977Y-39851D01*
X60977Y-39877D01*
X60977Y-39704D02*
X60990Y-39717D01*
X60977Y-39731D01*
X60964Y-39717D01*
X60977Y-39704D01*
X60977Y-39731D01*
X61305Y-39864D02*
X61344Y-39877D01*
X61410Y-39877D01*
X61436Y-39864D01*
X61449Y-39851D01*
X61462Y-39824D01*
X61462Y-39797D01*
X61449Y-39771D01*
X61436Y-39757D01*
X61410Y-39744D01*
X61357Y-39731D01*
X61331Y-39717D01*
X61318Y-39704D01*
X61305Y-39677D01*
X61305Y-39651D01*
X61318Y-39624D01*
X61331Y-39611D01*
X61357Y-39597D01*
X61423Y-39597D01*
X61462Y-39611D01*
X61581Y-39877D02*
X61581Y-39597D01*
X61646Y-39597D01*
X61686Y-39611D01*
X61712Y-39637D01*
X61725Y-39664D01*
X61738Y-39717D01*
X61738Y-39757D01*
X61725Y-39811D01*
X61712Y-39837D01*
X61686Y-39864D01*
X61646Y-39877D01*
X61581Y-39877D01*
X62054Y-39584D02*
X61817Y-39944D01*
X62146Y-39877D02*
X62146Y-39597D01*
X62238Y-39797D01*
X62330Y-39597D01*
X62330Y-39877D01*
X62461Y-39877D02*
X62461Y-39597D01*
X62553Y-39797D01*
X62645Y-39597D01*
X62645Y-39877D01*
X62933Y-39851D02*
X62920Y-39864D01*
X62881Y-39877D01*
X62855Y-39877D01*
X62815Y-39864D01*
X62789Y-39837D01*
X62776Y-39811D01*
X62763Y-39757D01*
X62763Y-39717D01*
X62776Y-39664D01*
X62789Y-39637D01*
X62815Y-39611D01*
X62855Y-39597D01*
X62881Y-39597D01*
X62920Y-39611D01*
X62933Y-39624D01*
X63249Y-39864D02*
X63288Y-39877D01*
X63354Y-39877D01*
X63380Y-39864D01*
X63393Y-39851D01*
X63406Y-39824D01*
X63406Y-39797D01*
X63393Y-39771D01*
X63380Y-39757D01*
X63354Y-39744D01*
X63301Y-39731D01*
X63275Y-39717D01*
X63262Y-39704D01*
X63249Y-39677D01*
X63249Y-39651D01*
X63262Y-39624D01*
X63275Y-39611D01*
X63301Y-39597D01*
X63367Y-39597D01*
X63406Y-39611D01*
X63512Y-39864D02*
X63551Y-39877D01*
X63617Y-39877D01*
X63643Y-39864D01*
X63656Y-39851D01*
X63669Y-39824D01*
X63669Y-39797D01*
X63656Y-39771D01*
X63643Y-39757D01*
X63617Y-39744D01*
X63564Y-39731D01*
X63538Y-39717D01*
X63525Y-39704D01*
X63512Y-39677D01*
X63512Y-39651D01*
X63525Y-39624D01*
X63538Y-39611D01*
X63564Y-39597D01*
X63630Y-39597D01*
X63669Y-39611D01*
X63788Y-39877D02*
X63788Y-39597D01*
X63893Y-39597D01*
X63919Y-39611D01*
X63932Y-39624D01*
X63945Y-39651D01*
X63945Y-39691D01*
X63932Y-39717D01*
X63919Y-39731D01*
X63893Y-39744D01*
X63788Y-39744D01*
X64208Y-39877D02*
X64051Y-39877D01*
X64129Y-39877D02*
X64129Y-39597D01*
X64103Y-39637D01*
X64077Y-39664D01*
X64051Y-39677D01*
X59468Y-39215D02*
X59468Y-39415D01*
X59454Y-39455D01*
X59428Y-39482D01*
X59389Y-39495D01*
X59362Y-39495D01*
X59599Y-39495D02*
X59599Y-39215D01*
X59704Y-39215D01*
X59730Y-39229D01*
X59743Y-39242D01*
X59756Y-39269D01*
X59756Y-39309D01*
X59743Y-39335D01*
X59730Y-39349D01*
X59704Y-39362D01*
X59599Y-39362D01*
X59848Y-39215D02*
X60019Y-39215D01*
X59927Y-39322D01*
X59967Y-39322D01*
X59993Y-39335D01*
X60006Y-39349D01*
X60019Y-39375D01*
X60019Y-39442D01*
X60006Y-39469D01*
X59993Y-39482D01*
X59967Y-39495D01*
X59888Y-39495D01*
X59862Y-39482D01*
X59848Y-39469D01*
X60978Y-39469D02*
X60991Y-39482D01*
X60978Y-39495D01*
X60965Y-39482D01*
X60978Y-39469D01*
X60978Y-39495D01*
X60978Y-39322D02*
X60991Y-39335D01*
X60978Y-39349D01*
X60965Y-39335D01*
X60978Y-39322D01*
X60978Y-39349D01*
X61306Y-39482D02*
X61345Y-39495D01*
X61411Y-39495D01*
X61437Y-39482D01*
X61450Y-39469D01*
X61463Y-39442D01*
X61463Y-39415D01*
X61450Y-39389D01*
X61437Y-39375D01*
X61411Y-39362D01*
X61358Y-39349D01*
X61332Y-39335D01*
X61319Y-39322D01*
X61306Y-39295D01*
X61306Y-39269D01*
X61319Y-39242D01*
X61332Y-39229D01*
X61358Y-39215D01*
X61424Y-39215D01*
X61463Y-39229D01*
X61582Y-39495D02*
X61582Y-39215D01*
X61687Y-39215D01*
X61713Y-39229D01*
X61726Y-39242D01*
X61739Y-39269D01*
X61739Y-39309D01*
X61726Y-39335D01*
X61713Y-39349D01*
X61687Y-39362D01*
X61582Y-39362D01*
X61858Y-39495D02*
X61858Y-39215D01*
X62291Y-39349D02*
X62199Y-39349D01*
X62199Y-39495D02*
X62199Y-39215D01*
X62330Y-39215D01*
X62475Y-39495D02*
X62449Y-39482D01*
X62436Y-39455D01*
X62436Y-39215D01*
X62699Y-39495D02*
X62699Y-39349D01*
X62686Y-39322D01*
X62660Y-39309D01*
X62607Y-39309D01*
X62581Y-39322D01*
X62699Y-39482D02*
X62673Y-39495D01*
X62607Y-39495D01*
X62581Y-39482D01*
X62568Y-39455D01*
X62568Y-39429D01*
X62581Y-39402D01*
X62607Y-39389D01*
X62673Y-39389D01*
X62699Y-39375D01*
X62818Y-39482D02*
X62844Y-39495D01*
X62896Y-39495D01*
X62923Y-39482D01*
X62936Y-39455D01*
X62936Y-39442D01*
X62923Y-39415D01*
X62896Y-39402D01*
X62857Y-39402D01*
X62831Y-39389D01*
X62818Y-39362D01*
X62818Y-39349D01*
X62831Y-39322D01*
X62857Y-39309D01*
X62896Y-39309D01*
X62923Y-39322D01*
X63054Y-39495D02*
X63054Y-39215D01*
X63172Y-39495D02*
X63172Y-39349D01*
X63159Y-39322D01*
X63133Y-39309D01*
X63093Y-39309D01*
X63067Y-39322D01*
X63054Y-39335D01*
X63501Y-39482D02*
X63540Y-39495D01*
X63606Y-39495D01*
X63632Y-39482D01*
X63645Y-39469D01*
X63658Y-39442D01*
X63658Y-39415D01*
X63645Y-39389D01*
X63632Y-39375D01*
X63606Y-39362D01*
X63553Y-39349D01*
X63527Y-39335D01*
X63514Y-39322D01*
X63501Y-39295D01*
X63501Y-39269D01*
X63514Y-39242D01*
X63527Y-39229D01*
X63553Y-39215D01*
X63619Y-39215D01*
X63658Y-39229D01*
X63764Y-39482D02*
X63803Y-39495D01*
X63869Y-39495D01*
X63895Y-39482D01*
X63908Y-39469D01*
X63921Y-39442D01*
X63921Y-39415D01*
X63908Y-39389D01*
X63895Y-39375D01*
X63869Y-39362D01*
X63816Y-39349D01*
X63790Y-39335D01*
X63777Y-39322D01*
X63764Y-39295D01*
X63764Y-39269D01*
X63777Y-39242D01*
X63790Y-39229D01*
X63816Y-39215D01*
X63882Y-39215D01*
X63921Y-39229D01*
X64040Y-39495D02*
X64040Y-39215D01*
X64145Y-39215D01*
X64171Y-39229D01*
X64184Y-39242D01*
X64197Y-39269D01*
X64197Y-39309D01*
X64184Y-39335D01*
X64171Y-39349D01*
X64145Y-39362D01*
X64040Y-39362D01*
X64460Y-39495D02*
X64303Y-39495D01*
X64381Y-39495D02*
X64381Y-39215D01*
X64355Y-39255D01*
X64329Y-39282D01*
X64303Y-39295D01*
X58343Y-38794D02*
X58343Y-38994D01*
X58329Y-39034D01*
X58303Y-39061D01*
X58264Y-39074D01*
X58237Y-39074D01*
X58474Y-39074D02*
X58474Y-38794D01*
X58579Y-38794D01*
X58605Y-38808D01*
X58618Y-38821D01*
X58631Y-38848D01*
X58631Y-38888D01*
X58618Y-38914D01*
X58605Y-38928D01*
X58579Y-38941D01*
X58474Y-38941D01*
X58894Y-39074D02*
X58737Y-39074D01*
X58815Y-39074D02*
X58815Y-38794D01*
X58789Y-38834D01*
X58763Y-38861D01*
X58737Y-38874D01*
X59013Y-38968D02*
X59223Y-38968D01*
X59434Y-38794D02*
X59434Y-38994D01*
X59420Y-39034D01*
X59394Y-39061D01*
X59355Y-39074D01*
X59328Y-39074D01*
X59565Y-39074D02*
X59565Y-38794D01*
X59670Y-38794D01*
X59696Y-38808D01*
X59709Y-38821D01*
X59722Y-38848D01*
X59722Y-38888D01*
X59709Y-38914D01*
X59696Y-38928D01*
X59670Y-38941D01*
X59565Y-38941D01*
X59814Y-38794D02*
X59985Y-38794D01*
X59893Y-38901D01*
X59933Y-38901D01*
X59959Y-38914D01*
X59972Y-38928D01*
X59985Y-38954D01*
X59985Y-39021D01*
X59972Y-39048D01*
X59959Y-39061D01*
X59933Y-39074D01*
X59854Y-39074D01*
X59828Y-39061D01*
X59814Y-39048D01*
X60301Y-39061D02*
X60340Y-39074D01*
X60406Y-39074D01*
X60432Y-39061D01*
X60445Y-39048D01*
X60458Y-39021D01*
X60458Y-38994D01*
X60445Y-38968D01*
X60432Y-38954D01*
X60406Y-38941D01*
X60353Y-38928D01*
X60327Y-38914D01*
X60314Y-38901D01*
X60301Y-38874D01*
X60301Y-38848D01*
X60314Y-38821D01*
X60327Y-38808D01*
X60353Y-38794D01*
X60419Y-38794D01*
X60458Y-38808D01*
X60577Y-39074D02*
X60577Y-38794D01*
X60682Y-38794D01*
X60708Y-38808D01*
X60721Y-38821D01*
X60734Y-38848D01*
X60734Y-38888D01*
X60721Y-38914D01*
X60708Y-38928D01*
X60682Y-38941D01*
X60577Y-38941D01*
X60853Y-39074D02*
X60853Y-38794D01*
X60984Y-39048D02*
X60997Y-39061D01*
X60984Y-39074D01*
X60971Y-39061D01*
X60984Y-39048D01*
X60984Y-39074D01*
X60984Y-38901D02*
X60997Y-38914D01*
X60984Y-38928D01*
X60971Y-38914D01*
X60984Y-38901D01*
X60984Y-38928D01*
X61285Y-38888D02*
X61390Y-38888D01*
X61325Y-39074D02*
X61325Y-38834D01*
X61338Y-38808D01*
X61364Y-38794D01*
X61390Y-38794D01*
X61522Y-39074D02*
X61496Y-39061D01*
X61483Y-39034D01*
X61483Y-38794D01*
X61746Y-39074D02*
X61746Y-38928D01*
X61733Y-38901D01*
X61707Y-38888D01*
X61654Y-38888D01*
X61628Y-38901D01*
X61746Y-39061D02*
X61720Y-39074D01*
X61654Y-39074D01*
X61628Y-39061D01*
X61615Y-39034D01*
X61615Y-39008D01*
X61628Y-38981D01*
X61654Y-38968D01*
X61720Y-38968D01*
X61746Y-38954D01*
X61865Y-39061D02*
X61891Y-39074D01*
X61943Y-39074D01*
X61970Y-39061D01*
X61983Y-39034D01*
X61983Y-39021D01*
X61970Y-38994D01*
X61943Y-38981D01*
X61904Y-38981D01*
X61878Y-38968D01*
X61865Y-38941D01*
X61865Y-38928D01*
X61878Y-38901D01*
X61904Y-38888D01*
X61943Y-38888D01*
X61970Y-38901D01*
X62101Y-39074D02*
X62101Y-38794D01*
X62219Y-39074D02*
X62219Y-38928D01*
X62206Y-38901D01*
X62180Y-38888D01*
X62140Y-38888D01*
X62114Y-38901D01*
X62101Y-38914D01*
X62548Y-39061D02*
X62587Y-39074D01*
X62653Y-39074D01*
X62679Y-39061D01*
X62692Y-39048D01*
X62705Y-39021D01*
X62705Y-38994D01*
X62692Y-38968D01*
X62679Y-38954D01*
X62653Y-38941D01*
X62600Y-38928D01*
X62574Y-38914D01*
X62561Y-38901D01*
X62548Y-38874D01*
X62548Y-38848D01*
X62561Y-38821D01*
X62574Y-38808D01*
X62600Y-38794D01*
X62666Y-38794D01*
X62705Y-38808D01*
X62811Y-39061D02*
X62850Y-39074D01*
X62916Y-39074D01*
X62942Y-39061D01*
X62955Y-39048D01*
X62968Y-39021D01*
X62968Y-38994D01*
X62955Y-38968D01*
X62942Y-38954D01*
X62916Y-38941D01*
X62863Y-38928D01*
X62837Y-38914D01*
X62824Y-38901D01*
X62811Y-38874D01*
X62811Y-38848D01*
X62824Y-38821D01*
X62837Y-38808D01*
X62863Y-38794D01*
X62929Y-38794D01*
X62968Y-38808D01*
X63087Y-39074D02*
X63087Y-38794D01*
X63192Y-38794D01*
X63218Y-38808D01*
X63231Y-38821D01*
X63244Y-38848D01*
X63244Y-38888D01*
X63231Y-38914D01*
X63218Y-38928D01*
X63192Y-38941D01*
X63087Y-38941D01*
X63350Y-38821D02*
X63363Y-38808D01*
X63389Y-38794D01*
X63455Y-38794D01*
X63481Y-38808D01*
X63494Y-38821D01*
X63507Y-38848D01*
X63507Y-38874D01*
X63494Y-38914D01*
X63336Y-39074D01*
X63507Y-39074D01*
X64196Y-46537D02*
X64333Y-46537D01*
X64264Y-46643D02*
X64264Y-46430D01*
X49255Y-46070D02*
X49392Y-46070D01*
X49323Y-46176D02*
X49323Y-45963D01*
X52859Y-52463D02*
X52767Y-52330D01*
X52702Y-52463D02*
X52702Y-52183D01*
X52807Y-52183D01*
X52833Y-52197D01*
X52846Y-52210D01*
X52859Y-52237D01*
X52859Y-52277D01*
X52846Y-52303D01*
X52833Y-52317D01*
X52807Y-52330D01*
X52702Y-52330D01*
X52978Y-52317D02*
X53070Y-52317D01*
X53109Y-52463D02*
X52978Y-52463D01*
X52978Y-52183D01*
X53109Y-52183D01*
X53215Y-52450D02*
X53254Y-52463D01*
X53320Y-52463D01*
X53346Y-52450D01*
X53359Y-52437D01*
X53372Y-52410D01*
X53372Y-52383D01*
X53359Y-52357D01*
X53346Y-52343D01*
X53320Y-52330D01*
X53267Y-52317D01*
X53241Y-52303D01*
X53228Y-52290D01*
X53215Y-52263D01*
X53215Y-52237D01*
X53228Y-52210D01*
X53241Y-52197D01*
X53267Y-52183D01*
X53333Y-52183D01*
X53372Y-52197D01*
X53491Y-52317D02*
X53583Y-52317D01*
X53622Y-52463D02*
X53491Y-52463D01*
X53491Y-52183D01*
X53622Y-52183D01*
X53701Y-52183D02*
X53859Y-52183D01*
X53780Y-52463D02*
X53780Y-52183D01*
X67550Y-50287D02*
X67270Y-50287D01*
X67270Y-50222D01*
X67284Y-50182D01*
X67310Y-50156D01*
X67337Y-50143D01*
X67390Y-50130D01*
X67430Y-50130D01*
X67484Y-50143D01*
X67510Y-50156D01*
X67537Y-50182D01*
X67550Y-50222D01*
X67550Y-50287D01*
X67270Y-50038D02*
X67270Y-49867D01*
X67377Y-49959D01*
X67377Y-49919D01*
X67390Y-49893D01*
X67404Y-49880D01*
X67430Y-49867D01*
X67497Y-49867D01*
X67524Y-49880D01*
X67537Y-49893D01*
X67550Y-49919D01*
X67550Y-49998D01*
X67537Y-50024D01*
X67524Y-50038D01*
X67444Y-49748D02*
X67444Y-49538D01*
X67550Y-49643D02*
X67337Y-49643D01*
X64315Y-50046D02*
X64315Y-49766D01*
X64380Y-49766D01*
X64420Y-49780D01*
X64446Y-49806D01*
X64459Y-49833D01*
X64472Y-49886D01*
X64472Y-49926D01*
X64459Y-49980D01*
X64446Y-50006D01*
X64420Y-50033D01*
X64380Y-50046D01*
X64315Y-50046D01*
X64564Y-49766D02*
X64735Y-49766D01*
X64643Y-49873D01*
X64683Y-49873D01*
X64709Y-49886D01*
X64722Y-49900D01*
X64735Y-49926D01*
X64735Y-49993D01*
X64722Y-50020D01*
X64709Y-50033D01*
X64683Y-50046D01*
X64604Y-50046D01*
X64578Y-50033D01*
X64564Y-50020D01*
X64854Y-49940D02*
X65064Y-49940D01*
X67304Y-52104D02*
X67290Y-52130D01*
X67290Y-52169D01*
X67304Y-52209D01*
X67330Y-52235D01*
X67357Y-52248D01*
X67410Y-52261D01*
X67450Y-52261D01*
X67504Y-52248D01*
X67530Y-52235D01*
X67557Y-52209D01*
X67570Y-52169D01*
X67570Y-52143D01*
X67557Y-52104D01*
X67544Y-52091D01*
X67450Y-52091D01*
X67450Y-52143D01*
X67570Y-51972D02*
X67290Y-51972D01*
X67570Y-51815D01*
X67290Y-51815D01*
X67570Y-51683D02*
X67290Y-51683D01*
X67290Y-51618D01*
X67304Y-51578D01*
X67330Y-51552D01*
X67357Y-51539D01*
X67410Y-51526D01*
X67450Y-51526D01*
X67504Y-51539D01*
X67530Y-51552D01*
X67557Y-51578D01*
X67570Y-51618D01*
X67570Y-51683D01*
X64715Y-51805D02*
X64584Y-51805D01*
X64571Y-51939D01*
X64584Y-51925D01*
X64610Y-51912D01*
X64676Y-51912D01*
X64702Y-51925D01*
X64715Y-51939D01*
X64728Y-51965D01*
X64728Y-52032D01*
X64715Y-52059D01*
X64702Y-52072D01*
X64676Y-52085D01*
X64610Y-52085D01*
X64584Y-52072D01*
X64571Y-52059D01*
X64807Y-51805D02*
X64899Y-52085D01*
X64991Y-51805D01*
X67343Y-47738D02*
X67352Y-47725D01*
X67369Y-47711D01*
X67412Y-47711D01*
X67429Y-47725D01*
X67438Y-47738D01*
X67446Y-47765D01*
X67446Y-47791D01*
X67438Y-47831D01*
X67335Y-47991D01*
X67446Y-47991D01*
X67600Y-47805D02*
X67600Y-47991D01*
X67557Y-47698D02*
X67514Y-47898D01*
X67626Y-47898D01*
X64784Y-48423D02*
X64793Y-48410D01*
X64810Y-48396D01*
X64853Y-48396D01*
X64870Y-48410D01*
X64879Y-48423D01*
X64887Y-48450D01*
X64887Y-48476D01*
X64879Y-48516D01*
X64776Y-48676D01*
X64887Y-48676D01*
X64947Y-48396D02*
X65058Y-48396D01*
X64998Y-48503D01*
X65024Y-48503D01*
X65041Y-48516D01*
X65050Y-48530D01*
X65058Y-48556D01*
X65058Y-48623D01*
X65050Y-48650D01*
X65041Y-48663D01*
X65024Y-48676D01*
X64972Y-48676D01*
X64955Y-48663D01*
X64947Y-48650D01*
X66686Y-35940D02*
X66699Y-35927D01*
X66725Y-35913D01*
X66791Y-35913D01*
X66817Y-35927D01*
X66830Y-35940D01*
X66843Y-35967D01*
X66843Y-35993D01*
X66830Y-36033D01*
X66672Y-36193D01*
X66843Y-36193D01*
X65443Y-36193D02*
X65286Y-36193D01*
X65364Y-36193D02*
X65364Y-35913D01*
X65338Y-35953D01*
X65312Y-35980D01*
X65286Y-35993D01*
X48394Y-47663D02*
X48403Y-47650D01*
X48420Y-47636D01*
X48463Y-47636D01*
X48480Y-47650D01*
X48489Y-47663D01*
X48497Y-47690D01*
X48497Y-47716D01*
X48489Y-47756D01*
X48386Y-47916D01*
X48497Y-47916D01*
X48651Y-47730D02*
X48651Y-47916D01*
X48608Y-47623D02*
X48565Y-47823D01*
X48677Y-47823D01*
X45727Y-47640D02*
X45736Y-47627D01*
X45753Y-47613D01*
X45796Y-47613D01*
X45813Y-47627D01*
X45822Y-47640D01*
X45830Y-47667D01*
X45830Y-47693D01*
X45822Y-47733D01*
X45719Y-47893D01*
X45830Y-47893D01*
X45890Y-47613D02*
X46001Y-47613D01*
X45941Y-47720D01*
X45967Y-47720D01*
X45984Y-47733D01*
X45993Y-47747D01*
X46001Y-47773D01*
X46001Y-47840D01*
X45993Y-47867D01*
X45984Y-47880D01*
X45967Y-47893D01*
X45915Y-47893D01*
X45898Y-47880D01*
X45890Y-47867D01*
G54D16*
X48469Y-36665D02*
X48483Y-36651D01*
X48512Y-36636D01*
X48583Y-36636D01*
X48612Y-36651D01*
X48626Y-36665D01*
X48641Y-36694D01*
X48641Y-36722D01*
X48626Y-36765D01*
X48455Y-36936D01*
X48641Y-36936D01*
X45984Y-36901D02*
X45812Y-36901D01*
X45898Y-36901D02*
X45898Y-36601D01*
X45869Y-36644D01*
X45841Y-36673D01*
X45812Y-36687D01*
G54D15*
X59854Y-38089D02*
X59893Y-38102D01*
X59906Y-38115D01*
X59919Y-38142D01*
X59919Y-38182D01*
X59906Y-38209D01*
X59893Y-38222D01*
X59867Y-38235D01*
X59762Y-38235D01*
X59762Y-37955D01*
X59854Y-37955D01*
X59880Y-37969D01*
X59893Y-37982D01*
X59906Y-38009D01*
X59906Y-38035D01*
X59893Y-38062D01*
X59880Y-38075D01*
X59854Y-38089D01*
X59762Y-38089D01*
X60090Y-37955D02*
X60143Y-37955D01*
X60169Y-37969D01*
X60195Y-37995D01*
X60209Y-38049D01*
X60209Y-38142D01*
X60195Y-38195D01*
X60169Y-38222D01*
X60143Y-38235D01*
X60090Y-38235D01*
X60064Y-38222D01*
X60038Y-38195D01*
X60025Y-38142D01*
X60025Y-38049D01*
X60038Y-37995D01*
X60064Y-37969D01*
X60090Y-37955D01*
X60379Y-37955D02*
X60432Y-37955D01*
X60458Y-37969D01*
X60484Y-37995D01*
X60498Y-38049D01*
X60498Y-38142D01*
X60484Y-38195D01*
X60458Y-38222D01*
X60432Y-38235D01*
X60379Y-38235D01*
X60353Y-38222D01*
X60327Y-38195D01*
X60314Y-38142D01*
X60314Y-38049D01*
X60327Y-37995D01*
X60353Y-37969D01*
X60379Y-37955D01*
X60576Y-37955D02*
X60734Y-37955D01*
X60655Y-38235D02*
X60655Y-37955D01*
X61036Y-38235D02*
X61036Y-37955D01*
X61128Y-38155D01*
X61220Y-37955D01*
X61220Y-38235D01*
X61403Y-37955D02*
X61456Y-37955D01*
X61482Y-37969D01*
X61508Y-37995D01*
X61522Y-38049D01*
X61522Y-38142D01*
X61508Y-38195D01*
X61482Y-38222D01*
X61456Y-38235D01*
X61403Y-38235D01*
X61377Y-38222D01*
X61351Y-38195D01*
X61338Y-38142D01*
X61338Y-38049D01*
X61351Y-37995D01*
X61377Y-37969D01*
X61403Y-37955D01*
X61640Y-38235D02*
X61640Y-37955D01*
X61705Y-37955D01*
X61745Y-37969D01*
X61771Y-37995D01*
X61784Y-38022D01*
X61797Y-38075D01*
X61797Y-38115D01*
X61784Y-38169D01*
X61771Y-38195D01*
X61745Y-38222D01*
X61705Y-38235D01*
X61640Y-38235D01*
X61916Y-38089D02*
X62008Y-38089D01*
X62047Y-38235D02*
X61916Y-38235D01*
X61916Y-37955D01*
X62047Y-37955D01*
X62153Y-38222D02*
X62192Y-38235D01*
X62258Y-38235D01*
X62284Y-38222D01*
X62297Y-38209D01*
X62310Y-38182D01*
X62310Y-38155D01*
X62297Y-38129D01*
X62284Y-38115D01*
X62258Y-38102D01*
X62205Y-38089D01*
X62179Y-38075D01*
X62166Y-38062D01*
X62153Y-38035D01*
X62153Y-38009D01*
X62166Y-37982D01*
X62179Y-37969D01*
X62205Y-37955D01*
X62271Y-37955D01*
X62310Y-37969D01*
X62429Y-38209D02*
X62442Y-38222D01*
X62429Y-38235D01*
X62416Y-38222D01*
X62429Y-38209D01*
X62429Y-38235D01*
X62429Y-38062D02*
X62442Y-38075D01*
X62429Y-38089D01*
X62416Y-38075D01*
X62429Y-38062D01*
X62429Y-38089D01*
X48252Y-48613D02*
X48312Y-48893D01*
X48372Y-48613D01*
X48432Y-48893D02*
X48432Y-48613D01*
X48475Y-48613D01*
X48500Y-48627D01*
X48518Y-48653D01*
X48526Y-48680D01*
X48535Y-48733D01*
X48535Y-48773D01*
X48526Y-48827D01*
X48518Y-48853D01*
X48500Y-48880D01*
X48475Y-48893D01*
X48432Y-48893D01*
X48612Y-48893D02*
X48612Y-48613D01*
X48655Y-48613D01*
X48680Y-48627D01*
X48698Y-48653D01*
X48706Y-48680D01*
X48715Y-48733D01*
X48715Y-48773D01*
X48706Y-48827D01*
X48698Y-48853D01*
X48680Y-48880D01*
X48655Y-48893D01*
X48612Y-48893D01*
X48749Y-48920D02*
X48886Y-48920D01*
X48989Y-48747D02*
X49015Y-48760D01*
X49023Y-48773D01*
X49032Y-48800D01*
X49032Y-48840D01*
X49023Y-48867D01*
X49015Y-48880D01*
X48997Y-48893D01*
X48929Y-48893D01*
X48929Y-48613D01*
X48989Y-48613D01*
X49006Y-48627D01*
X49015Y-48640D01*
X49023Y-48667D01*
X49023Y-48693D01*
X49015Y-48720D01*
X49006Y-48733D01*
X48989Y-48747D01*
X48929Y-48747D01*
X49100Y-48813D02*
X49186Y-48813D01*
X49083Y-48893D02*
X49143Y-48613D01*
X49203Y-48893D01*
X49237Y-48613D02*
X49340Y-48613D01*
X49289Y-48893D02*
X49289Y-48613D01*
X49374Y-48613D02*
X49477Y-48613D01*
X49426Y-48893D02*
X49426Y-48613D01*
X45811Y-49467D02*
X45797Y-49484D01*
X45797Y-49510D01*
X45811Y-49535D01*
X45837Y-49553D01*
X45864Y-49561D01*
X45917Y-49570D01*
X45957Y-49570D01*
X46011Y-49561D01*
X46037Y-49553D01*
X46064Y-49535D01*
X46077Y-49510D01*
X46077Y-49493D01*
X46064Y-49467D01*
X46051Y-49458D01*
X45957Y-49458D01*
X45957Y-49493D01*
X46077Y-49381D02*
X45797Y-49381D01*
X46077Y-49278D01*
X45797Y-49278D01*
X46077Y-49192D02*
X45797Y-49192D01*
X45797Y-49149D01*
X45811Y-49124D01*
X45837Y-49106D01*
X45864Y-49098D01*
X45917Y-49089D01*
X45957Y-49089D01*
X46011Y-49098D01*
X46037Y-49106D01*
X46064Y-49124D01*
X46077Y-49149D01*
X46077Y-49192D01*
X49031Y-50739D02*
X49091Y-51019D01*
X49151Y-50739D01*
X49211Y-51019D02*
X49211Y-50739D01*
X49254Y-50739D01*
X49279Y-50753D01*
X49297Y-50779D01*
X49305Y-50806D01*
X49314Y-50859D01*
X49314Y-50899D01*
X49305Y-50953D01*
X49297Y-50979D01*
X49279Y-51006D01*
X49254Y-51019D01*
X49211Y-51019D01*
X49391Y-51019D02*
X49391Y-50739D01*
X49434Y-50739D01*
X49459Y-50753D01*
X49477Y-50779D01*
X49485Y-50806D01*
X49494Y-50859D01*
X49494Y-50899D01*
X49485Y-50953D01*
X49477Y-50979D01*
X49459Y-51006D01*
X49434Y-51019D01*
X49391Y-51019D01*
X49657Y-50739D02*
X49571Y-50739D01*
X49562Y-50873D01*
X49571Y-50859D01*
X49588Y-50846D01*
X49631Y-50846D01*
X49648Y-50859D01*
X49657Y-50873D01*
X49665Y-50899D01*
X49665Y-50966D01*
X49657Y-50993D01*
X49648Y-51006D01*
X49631Y-51019D01*
X49588Y-51019D01*
X49571Y-51006D01*
X49562Y-50993D01*
X49716Y-50739D02*
X49776Y-51019D01*
X49836Y-50739D01*
X67270Y-49112D02*
X67270Y-48954D01*
X67550Y-49033D02*
X67270Y-49033D01*
X67270Y-48889D02*
X67550Y-48705D01*
X67270Y-48705D02*
X67550Y-48889D01*
X64781Y-49085D02*
X64689Y-48952D01*
X64624Y-49085D02*
X64624Y-48805D01*
X64729Y-48805D01*
X64755Y-48819D01*
X64768Y-48832D01*
X64781Y-48859D01*
X64781Y-48899D01*
X64768Y-48925D01*
X64755Y-48939D01*
X64729Y-48952D01*
X64624Y-48952D01*
X64873Y-48805D02*
X65057Y-49085D01*
X65057Y-48805D02*
X64873Y-49085D01*
X67550Y-51224D02*
X67270Y-51224D01*
X67270Y-51159D01*
X67284Y-51119D01*
X67310Y-51093D01*
X67337Y-51080D01*
X67390Y-51067D01*
X67430Y-51067D01*
X67484Y-51080D01*
X67510Y-51093D01*
X67537Y-51119D01*
X67550Y-51159D01*
X67550Y-51224D01*
X67364Y-50830D02*
X67550Y-50830D01*
X67257Y-50896D02*
X67457Y-50961D01*
X67457Y-50791D01*
X67444Y-50685D02*
X67444Y-50475D01*
X67550Y-50580D02*
X67337Y-50580D01*
X64311Y-51034D02*
X64311Y-50754D01*
X64376Y-50754D01*
X64416Y-50768D01*
X64442Y-50794D01*
X64455Y-50821D01*
X64468Y-50874D01*
X64468Y-50914D01*
X64455Y-50968D01*
X64442Y-50994D01*
X64416Y-51021D01*
X64376Y-51034D01*
X64311Y-51034D01*
X64705Y-50848D02*
X64705Y-51034D01*
X64639Y-50741D02*
X64574Y-50941D01*
X64744Y-50941D01*
X64850Y-50928D02*
X65060Y-50928D01*
G54D13*
X53665Y-46103D02*
X53645Y-46083D01*
X53744Y-46201D02*
X53626Y-46201D01*
X53626Y-46201D02*
X53626Y-46063D01*
X53626Y-46063D02*
X53763Y-46063D01*
X53763Y-46063D02*
X53763Y-46181D01*
X53763Y-46181D02*
X53724Y-46083D01*
X53724Y-46083D02*
X53665Y-46103D01*
X53665Y-46103D02*
X53665Y-46162D01*
X53665Y-46162D02*
X53665Y-46181D01*
X53665Y-46181D02*
X53724Y-46181D01*
X53724Y-46181D02*
X53665Y-46103D01*
X52917Y-46319D02*
X53763Y-46319D01*
X53763Y-46319D02*
X53763Y-46181D01*
X53763Y-46181D02*
X53665Y-46063D01*
X53665Y-46063D02*
X52937Y-46063D01*
X52937Y-46063D02*
X52917Y-46063D01*
X52917Y-46063D02*
X52917Y-46319D01*
G54D17*
X53666Y-46103D02*
X53665Y-46110D01*
X53662Y-46118D01*
X53659Y-46125D01*
X53654Y-46131D01*
X53647Y-46136D01*
X53640Y-46140D01*
X53633Y-46143D01*
X53625Y-46143D01*
X53618Y-46143D01*
X53610Y-46141D01*
X53603Y-46137D01*
X53597Y-46132D01*
X53592Y-46126D01*
X53588Y-46119D01*
X53585Y-46111D01*
X53585Y-46103D01*
X53585Y-46096D01*
X53587Y-46088D01*
X53591Y-46081D01*
X53596Y-46075D01*
X53602Y-46070D01*
X53609Y-46066D01*
X53617Y-46063D01*
X53625Y-46063D01*
X53632Y-46063D01*
X53639Y-46065D01*
X53646Y-46069D01*
X53653Y-46074D01*
X53658Y-46080D01*
X53662Y-46087D01*
X53664Y-46094D01*
X53665Y-46102D01*
X53666Y-46103D01*
G54D18*
X58487Y-58659D02*
X55387Y-58659D01*
X55387Y-58559D02*
X55387Y-58759D01*
X55387Y-58759D02*
X58487Y-58759D01*
X58487Y-58759D02*
X58487Y-58559D01*
X58487Y-58559D02*
X55387Y-58559D01*
X58087Y-51059D02*
X55787Y-51059D01*
X55787Y-51059D02*
X55787Y-58659D01*
X58087Y-58659D02*
X58087Y-51059D01*
X62054Y-58667D02*
X58954Y-58667D01*
X58954Y-58567D02*
X58954Y-58767D01*
X58954Y-58767D02*
X62054Y-58767D01*
X62054Y-58767D02*
X62054Y-58567D01*
X62054Y-58567D02*
X58954Y-58567D01*
X61654Y-51067D02*
X59354Y-51067D01*
X59354Y-51067D02*
X59354Y-58667D01*
X61654Y-58667D02*
X61654Y-51067D01*
G54D14*
X63071Y-48434D02*
X61071Y-48430D01*
X61071Y-48411D02*
X61071Y-46836D01*
X61071Y-46836D02*
X63079Y-46836D01*
X63079Y-46836D02*
X63079Y-48415D01*
G54D17*
X62933Y-47049D02*
X62931Y-47059D01*
X62928Y-47069D01*
X62923Y-47079D01*
X62917Y-47087D01*
X62908Y-47094D01*
X62899Y-47099D01*
X62889Y-47102D01*
X62878Y-47103D01*
X62868Y-47103D01*
X62858Y-47099D01*
X62848Y-47095D01*
X62840Y-47088D01*
X62833Y-47080D01*
X62828Y-47070D01*
X62825Y-47060D01*
X62824Y-47049D01*
X62824Y-47040D01*
X62827Y-47029D01*
X62832Y-47020D01*
X62839Y-47011D01*
X62847Y-47004D01*
X62856Y-46999D01*
X62867Y-46996D01*
X62877Y-46995D01*
X62887Y-46995D01*
X62897Y-46998D01*
X62907Y-47003D01*
X62915Y-47010D01*
X62922Y-47018D01*
X62928Y-47027D01*
X62931Y-47037D01*
X62932Y-47048D01*
X62933Y-47049D01*
G54D19*
X57688Y-43376D02*
X57685Y-43402D01*
X57677Y-43428D01*
X57664Y-43452D01*
X57647Y-43473D01*
X57627Y-43490D01*
X57603Y-43503D01*
X57577Y-43511D01*
X57550Y-43513D01*
X57525Y-43511D01*
X57499Y-43503D01*
X57475Y-43491D01*
X57454Y-43474D01*
X57437Y-43453D01*
X57424Y-43430D01*
X57416Y-43404D01*
X57413Y-43377D01*
X57415Y-43352D01*
X57422Y-43326D01*
X57435Y-43302D01*
X57451Y-43281D01*
X57472Y-43263D01*
X57495Y-43250D01*
X57521Y-43242D01*
X57548Y-43239D01*
X57573Y-43241D01*
X57599Y-43248D01*
X57623Y-43260D01*
X57645Y-43277D01*
X57662Y-43297D01*
X57676Y-43320D01*
X57684Y-43346D01*
X57687Y-43373D01*
X57688Y-43376D01*
X52038Y-43376D02*
X57156Y-43376D01*
X57156Y-43376D02*
X57550Y-42982D01*
X57550Y-42982D02*
X57550Y-37864D01*
X57550Y-37864D02*
X52038Y-37864D01*
X52038Y-37864D02*
X52038Y-43376D01*
G54D20*
X62365Y-45648D02*
X63265Y-45648D01*
X63265Y-45648D02*
X63265Y-46148D01*
X63265Y-46148D02*
X62365Y-46148D01*
X62365Y-46148D02*
X62365Y-45648D01*
X61986Y-46184D02*
X61086Y-46184D01*
X61086Y-46184D02*
X61086Y-45684D01*
X61086Y-45684D02*
X61986Y-45684D01*
X61986Y-45684D02*
X61986Y-46184D01*
X63293Y-49617D02*
X62393Y-49617D01*
X62393Y-49617D02*
X62393Y-49117D01*
X62393Y-49117D02*
X63293Y-49117D01*
X63293Y-49117D02*
X63293Y-49617D01*
X61828Y-49608D02*
X60928Y-49608D01*
X60928Y-49608D02*
X60928Y-49108D01*
X60928Y-49108D02*
X61828Y-49108D01*
X61828Y-49108D02*
X61828Y-49608D01*
X52542Y-36502D02*
X53442Y-36502D01*
X53442Y-36502D02*
X53442Y-37002D01*
X53442Y-37002D02*
X52542Y-37002D01*
X52542Y-37002D02*
X52542Y-36502D01*
X64758Y-35337D02*
X64758Y-36237D01*
X64758Y-36237D02*
X64258Y-36237D01*
X64258Y-36237D02*
X64258Y-35337D01*
X64258Y-35337D02*
X64758Y-35337D01*
X48763Y-43825D02*
X49663Y-43825D01*
X49663Y-43825D02*
X49663Y-44325D01*
X49663Y-44325D02*
X48763Y-44325D01*
X48763Y-44325D02*
X48763Y-43825D01*
X64190Y-35289D02*
X63290Y-35289D01*
X63290Y-35289D02*
X63290Y-34789D01*
X63290Y-34789D02*
X64190Y-34789D01*
X64190Y-34789D02*
X64190Y-35289D01*
X57959Y-37320D02*
X57959Y-36420D01*
X57959Y-36420D02*
X58459Y-36420D01*
X58459Y-36420D02*
X58459Y-37320D01*
X58459Y-37320D02*
X57959Y-37320D01*
X51114Y-50530D02*
X50214Y-50530D01*
X50214Y-50530D02*
X50214Y-50030D01*
X50214Y-50030D02*
X51114Y-50030D01*
X51114Y-50030D02*
X51114Y-50530D01*
X60419Y-43872D02*
X59519Y-43872D01*
X59519Y-43872D02*
X59519Y-43372D01*
X59519Y-43372D02*
X60419Y-43372D01*
X60419Y-43372D02*
X60419Y-43872D01*
G54D18*
X67142Y-36339D02*
X65142Y-36339D01*
X65142Y-36339D02*
X65142Y-48339D01*
X65142Y-48339D02*
X67142Y-48339D01*
X67142Y-48339D02*
X67142Y-36339D01*
G54D21*
X51249Y-54430D02*
X51249Y-52330D01*
X51249Y-52330D02*
X55159Y-52330D01*
X55159Y-52330D02*
X55159Y-54430D01*
X55159Y-54430D02*
X51249Y-54430D01*
G54D20*
X50450Y-45732D02*
X49550Y-45732D01*
X49550Y-45732D02*
X49550Y-46382D01*
X50450Y-47082D02*
X50450Y-47732D01*
X50450Y-47732D02*
X49550Y-47732D01*
X49550Y-47732D02*
X49550Y-47082D01*
X50450Y-46382D02*
X50450Y-45732D01*
X52263Y-43452D02*
X52262Y-43461D01*
X52259Y-43471D01*
X52254Y-43479D01*
X52248Y-43487D01*
X52240Y-43493D01*
X52232Y-43498D01*
X52223Y-43500D01*
X52213Y-43501D01*
X52204Y-43501D01*
X52195Y-43498D01*
X52186Y-43493D01*
X52179Y-43487D01*
X52172Y-43480D01*
X52168Y-43471D01*
X52165Y-43462D01*
X52164Y-43452D01*
X52164Y-43443D01*
X52167Y-43434D01*
X52171Y-43425D01*
X52178Y-43418D01*
X52185Y-43411D01*
X52193Y-43407D01*
X52203Y-43404D01*
X52212Y-43403D01*
X52221Y-43403D01*
X52231Y-43406D01*
X52239Y-43410D01*
X52247Y-43416D01*
X52253Y-43424D01*
X52258Y-43432D01*
X52261Y-43441D01*
X52262Y-43451D01*
X52263Y-43452D01*
X51763Y-43452D02*
X52163Y-43452D01*
X52163Y-43452D02*
X52163Y-44052D01*
X52163Y-44052D02*
X51763Y-44052D01*
X51363Y-44052D02*
X50963Y-44052D01*
X50963Y-44052D02*
X50963Y-43452D01*
X50963Y-43452D02*
X51363Y-43452D01*
X51935Y-35745D02*
X51935Y-34845D01*
X51935Y-34845D02*
X52435Y-34845D01*
X52435Y-34845D02*
X52435Y-35745D01*
X52435Y-35745D02*
X51935Y-35745D01*
X51226Y-35962D02*
X51226Y-35062D01*
X51226Y-35062D02*
X51726Y-35062D01*
X51726Y-35062D02*
X51726Y-35962D01*
X51726Y-35962D02*
X51226Y-35962D01*
X54131Y-34817D02*
X53231Y-34817D01*
X53231Y-34817D02*
X53231Y-34317D01*
X53231Y-34317D02*
X54131Y-34317D01*
X54131Y-34317D02*
X54131Y-34817D01*
X54131Y-35467D02*
X53231Y-35467D01*
X53231Y-35467D02*
X53231Y-34967D01*
X53231Y-34967D02*
X54131Y-34967D01*
X54131Y-34967D02*
X54131Y-35467D01*
X54412Y-34967D02*
X55312Y-34967D01*
X55312Y-34967D02*
X55312Y-35467D01*
X55312Y-35467D02*
X54412Y-35467D01*
X54412Y-35467D02*
X54412Y-34967D01*
X56184Y-34593D02*
X57084Y-34593D01*
X57084Y-34593D02*
X57084Y-35093D01*
X57084Y-35093D02*
X56184Y-35093D01*
X56184Y-35093D02*
X56184Y-34593D01*
X58459Y-35003D02*
X58459Y-35903D01*
X58459Y-35903D02*
X57959Y-35903D01*
X57959Y-35903D02*
X57959Y-35003D01*
X57959Y-35003D02*
X58459Y-35003D01*
X56837Y-36848D02*
X56837Y-35948D01*
X56837Y-35948D02*
X57337Y-35948D01*
X57337Y-35948D02*
X57337Y-36848D01*
X57337Y-36848D02*
X56837Y-36848D01*
X55726Y-36884D02*
X54826Y-36884D01*
X54826Y-36884D02*
X54826Y-36384D01*
X54826Y-36384D02*
X55726Y-36384D01*
X55726Y-36384D02*
X55726Y-36884D01*
X58715Y-35584D02*
X58715Y-34684D01*
X58715Y-34684D02*
X59215Y-34684D01*
X59215Y-34684D02*
X59215Y-35584D01*
X59215Y-35584D02*
X58715Y-35584D01*
X62275Y-44211D02*
X62275Y-45111D01*
X62275Y-45111D02*
X61775Y-45111D01*
X61775Y-45111D02*
X61775Y-44211D01*
X61775Y-44211D02*
X62275Y-44211D01*
X63955Y-46380D02*
X63955Y-47280D01*
X63955Y-47280D02*
X63455Y-47280D01*
X63455Y-47280D02*
X63455Y-46380D01*
X63455Y-46380D02*
X63955Y-46380D01*
X61775Y-44143D02*
X61775Y-43243D01*
X61775Y-43243D02*
X62275Y-43243D01*
X62275Y-43243D02*
X62275Y-44143D01*
X62275Y-44143D02*
X61775Y-44143D01*
X63707Y-41060D02*
X63707Y-40160D01*
X63707Y-40160D02*
X64207Y-40160D01*
X64207Y-40160D02*
X64207Y-41060D01*
X64207Y-41060D02*
X63707Y-41060D01*
X63954Y-45267D02*
X63954Y-46167D01*
X63954Y-46167D02*
X63454Y-46167D01*
X63454Y-46167D02*
X63454Y-45267D01*
X63454Y-45267D02*
X63954Y-45267D01*
X55560Y-48967D02*
X54660Y-48967D01*
X54660Y-48967D02*
X54660Y-48467D01*
X54660Y-48467D02*
X55560Y-48467D01*
X55560Y-48467D02*
X55560Y-48967D01*
X55560Y-48396D02*
X54660Y-48396D01*
X54660Y-48396D02*
X54660Y-47896D01*
X54660Y-47896D02*
X55560Y-47896D01*
X55560Y-47896D02*
X55560Y-48396D01*
X55560Y-47821D02*
X54660Y-47821D01*
X54660Y-47821D02*
X54660Y-47321D01*
X54660Y-47321D02*
X55560Y-47321D01*
X55560Y-47321D02*
X55560Y-47821D01*
X52659Y-45400D02*
X52659Y-46300D01*
X52659Y-46300D02*
X52159Y-46300D01*
X52159Y-46300D02*
X52159Y-45400D01*
X52159Y-45400D02*
X52659Y-45400D01*
X51513Y-46305D02*
X50613Y-46305D01*
X50613Y-46305D02*
X50613Y-45805D01*
X50613Y-45805D02*
X51513Y-45805D01*
X51513Y-45805D02*
X51513Y-46305D01*
X51585Y-46300D02*
X51585Y-45400D01*
X51585Y-45400D02*
X52085Y-45400D01*
X52085Y-45400D02*
X52085Y-46300D01*
X52085Y-46300D02*
X51585Y-46300D01*
X54415Y-45759D02*
X54415Y-46659D01*
X54415Y-46659D02*
X53915Y-46659D01*
X53915Y-46659D02*
X53915Y-45759D01*
X53915Y-45759D02*
X54415Y-45759D01*
X55990Y-44475D02*
X55990Y-45375D01*
X55990Y-45375D02*
X55490Y-45375D01*
X55490Y-45375D02*
X55490Y-44475D01*
X55490Y-44475D02*
X55990Y-44475D01*
G54D22*
X67142Y-48339D02*
X67142Y-52339D01*
X67142Y-52339D02*
X65142Y-52339D01*
X65142Y-52339D02*
X65142Y-48339D01*
X65142Y-48339D02*
X67142Y-48339D01*
G54D10*
X65142Y-48339D02*
X64142Y-48339D01*
X64142Y-48339D02*
X64142Y-46339D01*
X64142Y-46339D02*
X65142Y-46339D01*
X65142Y-46339D02*
X65142Y-48339D01*
X65142Y-46339D02*
X64142Y-46339D01*
X64142Y-46339D02*
X64142Y-44339D01*
X64142Y-44339D02*
X65142Y-44339D01*
X65142Y-44339D02*
X65142Y-46339D01*
X48142Y-48339D02*
X48142Y-49339D01*
X48142Y-49339D02*
X46142Y-49339D01*
X46142Y-49339D02*
X46142Y-48339D01*
X46142Y-48339D02*
X48142Y-48339D01*
X48142Y-49339D02*
X48142Y-50339D01*
X48142Y-50339D02*
X46142Y-50339D01*
X46142Y-50339D02*
X46142Y-49339D01*
X46142Y-49339D02*
X48142Y-49339D01*
X62351Y-43173D02*
X63351Y-43173D01*
X63351Y-43173D02*
X63351Y-45173D01*
X63351Y-45173D02*
X62351Y-45173D01*
X62351Y-45173D02*
X62351Y-43173D01*
G54D20*
X63954Y-44302D02*
X63954Y-45202D01*
X63954Y-45202D02*
X63454Y-45202D01*
X63454Y-45202D02*
X63454Y-44302D01*
X63454Y-44302D02*
X63954Y-44302D01*
X58326Y-43014D02*
X59226Y-43014D01*
X59226Y-43014D02*
X59226Y-43514D01*
X59226Y-43514D02*
X58326Y-43514D01*
X58326Y-43514D02*
X58326Y-43014D01*
X63459Y-48248D02*
X63459Y-47348D01*
X63459Y-47348D02*
X63959Y-47348D01*
X63959Y-47348D02*
X63959Y-48248D01*
X63959Y-48248D02*
X63459Y-48248D01*
X61415Y-43872D02*
X60515Y-43872D01*
X60515Y-43872D02*
X60515Y-43372D01*
X60515Y-43372D02*
X61415Y-43372D01*
X61415Y-43372D02*
X61415Y-43872D01*
X59613Y-48477D02*
X59610Y-48504D01*
X59602Y-48530D01*
X59589Y-48555D01*
X59572Y-48576D01*
X59550Y-48593D01*
X59526Y-48606D01*
X59500Y-48615D01*
X59472Y-48617D01*
X59446Y-48615D01*
X59420Y-48607D01*
X59395Y-48594D01*
X59374Y-48577D01*
X59356Y-48556D01*
X59343Y-48532D01*
X59335Y-48506D01*
X59332Y-48478D01*
X59334Y-48452D01*
X59341Y-48426D01*
X59354Y-48401D01*
X59371Y-48380D01*
X59392Y-48362D01*
X59416Y-48348D01*
X59442Y-48340D01*
X59470Y-48337D01*
X59496Y-48339D01*
X59522Y-48346D01*
X59547Y-48358D01*
X59569Y-48375D01*
X59587Y-48396D01*
X59600Y-48420D01*
X59609Y-48446D01*
X59612Y-48474D01*
X59613Y-48477D01*
X58372Y-48677D02*
X58372Y-48377D01*
X58372Y-48377D02*
X58872Y-48377D01*
X58872Y-48377D02*
X58872Y-48677D01*
X59672Y-44627D02*
X59672Y-48677D01*
X57572Y-48677D02*
X57572Y-44627D01*
X57572Y-48677D02*
X59672Y-48677D01*
X57572Y-44627D02*
X59672Y-44627D01*
X60443Y-48934D02*
X60443Y-48034D01*
X60443Y-48034D02*
X60943Y-48034D01*
X60943Y-48034D02*
X60943Y-48934D01*
X60943Y-48934D02*
X60443Y-48934D01*
X60447Y-46580D02*
X60447Y-45680D01*
X60447Y-45680D02*
X60947Y-45680D01*
X60947Y-45680D02*
X60947Y-46580D01*
X60947Y-46580D02*
X60447Y-46580D01*
X60947Y-46830D02*
X60947Y-47730D01*
X60947Y-47730D02*
X60447Y-47730D01*
X60447Y-47730D02*
X60447Y-46830D01*
X60447Y-46830D02*
X60947Y-46830D01*
G54D18*
X48142Y-36339D02*
X46142Y-36339D01*
X46142Y-36339D02*
X46142Y-48339D01*
X46142Y-48339D02*
X48142Y-48339D01*
X48142Y-48339D02*
X48142Y-36339D01*
G54D20*
X60406Y-45387D02*
X61192Y-45387D01*
X61192Y-45387D02*
X61192Y-44439D01*
X61192Y-44439D02*
X60406Y-44439D01*
X60406Y-44439D02*
X60406Y-45387D01*
G54D18*
X46164Y-56580D02*
X46164Y-56880D01*
X46164Y-56880D02*
X49564Y-56880D01*
X49564Y-56880D02*
X49564Y-56580D01*
X46164Y-55380D02*
X49564Y-55380D01*
X46164Y-51580D02*
X49564Y-51580D01*
X49564Y-56580D02*
X49564Y-51580D01*
X46164Y-56580D02*
X46164Y-51580D01*
G54D14*
X56331Y-45468D02*
X54441Y-45468D01*
X54441Y-45468D02*
X54441Y-46925D01*
X54441Y-46925D02*
X56212Y-46925D01*
X56212Y-46925D02*
X56212Y-45390D01*
X56212Y-45390D02*
X56212Y-45311D01*
X56212Y-45311D02*
X56331Y-45311D01*
X56331Y-45311D02*
X56331Y-45429D01*
X62665Y-37508D02*
X62662Y-37529D01*
X62656Y-37549D01*
X62646Y-37568D01*
X62633Y-37585D01*
X62616Y-37599D01*
X62597Y-37609D01*
X62577Y-37615D01*
X62555Y-37617D01*
X62535Y-37616D01*
X62514Y-37609D01*
X62495Y-37600D01*
X62479Y-37586D01*
X62465Y-37570D01*
X62454Y-37551D01*
X62448Y-37530D01*
X62446Y-37509D01*
X62447Y-37489D01*
X62453Y-37468D01*
X62463Y-37449D01*
X62476Y-37432D01*
X62493Y-37418D01*
X62511Y-37408D01*
X62532Y-37401D01*
X62553Y-37399D01*
X62574Y-37400D01*
X62594Y-37406D01*
X62613Y-37416D01*
X62630Y-37429D01*
X62644Y-37445D01*
X62655Y-37464D01*
X62662Y-37484D01*
X62664Y-37505D01*
X62665Y-37508D01*
X58886Y-37835D02*
X58886Y-35685D01*
X58886Y-35685D02*
X64086Y-35678D01*
X64086Y-35678D02*
X64086Y-37847D01*
X64086Y-37847D02*
X58886Y-37835D01*
G54D10*
X55689Y-47146D02*
X56689Y-47146D01*
X56689Y-47146D02*
X56689Y-49146D01*
X56689Y-49146D02*
X55689Y-49146D01*
X55689Y-49146D02*
X55689Y-47146D01*
X56693Y-49154D02*
X56693Y-50154D01*
X56693Y-50154D02*
X54693Y-50154D01*
X54693Y-50154D02*
X54693Y-49154D01*
X54693Y-49154D02*
X56693Y-49154D01*
G54D13*
X49543Y-50216D02*
X49995Y-50216D01*
X49543Y-49744D02*
X49976Y-49744D01*
X49523Y-49744D02*
X49523Y-50216D01*
X49976Y-49724D02*
X49976Y-50236D01*
X50015Y-49724D02*
X50055Y-49724D01*
X50055Y-49724D02*
X50055Y-50236D01*
X50055Y-50236D02*
X49936Y-50236D01*
X49503Y-49744D02*
X49503Y-50216D01*
X49503Y-50216D02*
X49503Y-49763D01*
X48755Y-49704D02*
X48755Y-49468D01*
X48873Y-49586D02*
X48637Y-49586D01*
X50015Y-49724D02*
X48913Y-49724D01*
X48913Y-49724D02*
X48913Y-50236D01*
X48913Y-50236D02*
X50015Y-50236D01*
X50015Y-50236D02*
X50015Y-49744D01*
X50015Y-49744D02*
X50015Y-49724D01*
X64094Y-34173D02*
X63642Y-34173D01*
X64094Y-34645D02*
X63661Y-34645D01*
X64114Y-34645D02*
X64114Y-34173D01*
X63661Y-34665D02*
X63661Y-34153D01*
X63622Y-34665D02*
X63582Y-34665D01*
X63582Y-34665D02*
X63582Y-34153D01*
X63582Y-34153D02*
X63701Y-34153D01*
X64134Y-34645D02*
X64134Y-34173D01*
X64134Y-34173D02*
X64134Y-34626D01*
X64882Y-34685D02*
X64882Y-34921D01*
X64764Y-34803D02*
X65000Y-34803D01*
X63622Y-34665D02*
X64724Y-34665D01*
X64724Y-34665D02*
X64724Y-34153D01*
X64724Y-34153D02*
X63622Y-34153D01*
X63622Y-34153D02*
X63622Y-34645D01*
X63622Y-34645D02*
X63622Y-34665D01*
X49311Y-43661D02*
X49763Y-43661D01*
X49311Y-43189D02*
X49744Y-43189D01*
X49291Y-43189D02*
X49291Y-43661D01*
X49744Y-43169D02*
X49744Y-43681D01*
X49783Y-43169D02*
X49823Y-43169D01*
X49823Y-43169D02*
X49823Y-43681D01*
X49823Y-43681D02*
X49704Y-43681D01*
X49271Y-43189D02*
X49271Y-43661D01*
X49271Y-43661D02*
X49271Y-43208D01*
X48523Y-43149D02*
X48523Y-42913D01*
X48641Y-43031D02*
X48405Y-43031D01*
X49783Y-43169D02*
X48681Y-43169D01*
X48681Y-43169D02*
X48681Y-43681D01*
X48681Y-43681D02*
X49783Y-43681D01*
X49783Y-43681D02*
X49783Y-43189D01*
X49783Y-43189D02*
X49783Y-43169D01*
G54D23*
X53368Y-45618D02*
X53341Y-45605D01*
X53315Y-45579D01*
X53276Y-45539D01*
X53249Y-45526D01*
X53223Y-45526D01*
X53236Y-45592D02*
X53210Y-45579D01*
X53184Y-45552D01*
X53171Y-45500D01*
X53171Y-45408D01*
X53184Y-45355D01*
X53210Y-45329D01*
X53236Y-45316D01*
X53289Y-45316D01*
X53315Y-45329D01*
X53341Y-45355D01*
X53355Y-45408D01*
X53355Y-45500D01*
X53341Y-45552D01*
X53315Y-45579D01*
X53289Y-45592D01*
X53236Y-45592D01*
X53617Y-45592D02*
X53460Y-45592D01*
X53538Y-45592D02*
X53538Y-45316D01*
X53512Y-45355D01*
X53486Y-45381D01*
X53460Y-45395D01*
X54968Y-51060D02*
X54968Y-51257D01*
X54954Y-51296D01*
X54928Y-51323D01*
X54889Y-51336D01*
X54862Y-51336D01*
X55072Y-51060D02*
X55243Y-51060D01*
X55151Y-51165D01*
X55191Y-51165D01*
X55217Y-51178D01*
X55230Y-51191D01*
X55243Y-51217D01*
X55243Y-51283D01*
X55230Y-51309D01*
X55217Y-51323D01*
X55191Y-51336D01*
X55112Y-51336D01*
X55086Y-51323D01*
X55072Y-51309D01*
X62200Y-51013D02*
X62200Y-51210D01*
X62186Y-51249D01*
X62160Y-51276D01*
X62121Y-51289D01*
X62094Y-51289D01*
X62449Y-51105D02*
X62449Y-51289D01*
X62383Y-51000D02*
X62318Y-51197D01*
X62488Y-51197D01*
G54D15*
X63221Y-48487D02*
X63221Y-48714D01*
X63229Y-48741D01*
X63238Y-48754D01*
X63255Y-48767D01*
X63289Y-48767D01*
X63307Y-48754D01*
X63315Y-48741D01*
X63324Y-48714D01*
X63324Y-48487D01*
X63504Y-48767D02*
X63401Y-48767D01*
X63453Y-48767D02*
X63453Y-48487D01*
X63436Y-48527D01*
X63418Y-48554D01*
X63401Y-48567D01*
G54D16*
X51286Y-37570D02*
X51286Y-37270D01*
X51601Y-37542D02*
X51587Y-37556D01*
X51544Y-37570D01*
X51515Y-37570D01*
X51472Y-37556D01*
X51444Y-37528D01*
X51429Y-37499D01*
X51415Y-37442D01*
X51415Y-37399D01*
X51429Y-37342D01*
X51444Y-37313D01*
X51472Y-37285D01*
X51515Y-37270D01*
X51544Y-37270D01*
X51587Y-37285D01*
X51601Y-37299D01*
X51887Y-37570D02*
X51715Y-37570D01*
X51801Y-37570D02*
X51801Y-37270D01*
X51772Y-37313D01*
X51744Y-37342D01*
X51715Y-37356D01*
G54D19*
X54001Y-40364D02*
X54001Y-40137D01*
X54001Y-40024D02*
X53986Y-40040D01*
X54001Y-40056D01*
X54016Y-40040D01*
X54001Y-40024D01*
X54001Y-40056D01*
X54153Y-40364D02*
X54153Y-40024D01*
X54260Y-40266D01*
X54367Y-40024D01*
X54367Y-40364D01*
X54489Y-40024D02*
X54702Y-40364D01*
X54702Y-40024D02*
X54489Y-40364D01*
X54809Y-40056D02*
X54824Y-40040D01*
X54855Y-40024D01*
X54931Y-40024D01*
X54961Y-40040D01*
X54977Y-40056D01*
X54992Y-40088D01*
X54992Y-40121D01*
X54977Y-40169D01*
X54794Y-40364D01*
X54992Y-40364D01*
X55099Y-40024D02*
X55297Y-40024D01*
X55190Y-40153D01*
X55236Y-40153D01*
X55266Y-40169D01*
X55282Y-40186D01*
X55297Y-40218D01*
X55297Y-40299D01*
X55282Y-40331D01*
X55266Y-40347D01*
X55236Y-40364D01*
X55144Y-40364D01*
X55114Y-40347D01*
X55099Y-40331D01*
X55404Y-40024D02*
X55602Y-40024D01*
X55495Y-40153D01*
X55541Y-40153D01*
X55571Y-40169D01*
X55587Y-40186D01*
X55602Y-40218D01*
X55602Y-40299D01*
X55587Y-40331D01*
X55571Y-40347D01*
X55541Y-40364D01*
X55449Y-40364D01*
X55419Y-40347D01*
X55404Y-40331D01*
G54D15*
X62778Y-45548D02*
X62769Y-45561D01*
X62743Y-45574D01*
X62726Y-45574D01*
X62701Y-45561D01*
X62683Y-45534D01*
X62675Y-45508D01*
X62666Y-45454D01*
X62666Y-45414D01*
X62675Y-45361D01*
X62683Y-45334D01*
X62701Y-45308D01*
X62726Y-45294D01*
X62743Y-45294D01*
X62769Y-45308D01*
X62778Y-45321D01*
X62949Y-45574D02*
X62846Y-45574D01*
X62898Y-45574D02*
X62898Y-45294D01*
X62881Y-45334D01*
X62863Y-45361D01*
X62846Y-45374D01*
X61534Y-45509D02*
X61525Y-45522D01*
X61499Y-45535D01*
X61482Y-45535D01*
X61457Y-45522D01*
X61439Y-45495D01*
X61431Y-45469D01*
X61422Y-45415D01*
X61422Y-45375D01*
X61431Y-45322D01*
X61439Y-45295D01*
X61457Y-45269D01*
X61482Y-45255D01*
X61499Y-45255D01*
X61525Y-45269D01*
X61534Y-45282D01*
X61602Y-45282D02*
X61611Y-45269D01*
X61628Y-45255D01*
X61671Y-45255D01*
X61688Y-45269D01*
X61697Y-45282D01*
X61705Y-45309D01*
X61705Y-45335D01*
X61697Y-45375D01*
X61594Y-45535D01*
X61705Y-45535D01*
X62797Y-49986D02*
X62784Y-49999D01*
X62745Y-50012D01*
X62719Y-50012D01*
X62679Y-49999D01*
X62653Y-49972D01*
X62640Y-49946D01*
X62627Y-49892D01*
X62627Y-49852D01*
X62640Y-49799D01*
X62653Y-49772D01*
X62679Y-49746D01*
X62719Y-49732D01*
X62745Y-49732D01*
X62784Y-49746D01*
X62797Y-49759D01*
X63034Y-49826D02*
X63034Y-50012D01*
X62968Y-49719D02*
X62903Y-49919D01*
X63073Y-49919D01*
X61296Y-49980D02*
X61283Y-49993D01*
X61244Y-50006D01*
X61218Y-50006D01*
X61178Y-49993D01*
X61152Y-49966D01*
X61139Y-49940D01*
X61126Y-49886D01*
X61126Y-49846D01*
X61139Y-49793D01*
X61152Y-49766D01*
X61178Y-49740D01*
X61218Y-49726D01*
X61244Y-49726D01*
X61283Y-49740D01*
X61296Y-49753D01*
X61546Y-49726D02*
X61415Y-49726D01*
X61402Y-49860D01*
X61415Y-49846D01*
X61441Y-49833D01*
X61507Y-49833D01*
X61533Y-49846D01*
X61546Y-49860D01*
X61559Y-49886D01*
X61559Y-49953D01*
X61546Y-49980D01*
X61533Y-49993D01*
X61507Y-50006D01*
X61441Y-50006D01*
X61415Y-49993D01*
X61402Y-49980D01*
X52946Y-36396D02*
X52854Y-36263D01*
X52789Y-36396D02*
X52789Y-36116D01*
X52894Y-36116D01*
X52920Y-36130D01*
X52933Y-36143D01*
X52946Y-36170D01*
X52946Y-36210D01*
X52933Y-36236D01*
X52920Y-36250D01*
X52894Y-36263D01*
X52789Y-36263D01*
X53038Y-36116D02*
X53222Y-36116D01*
X53104Y-36396D01*
X65133Y-35833D02*
X65000Y-35925D01*
X65133Y-35990D02*
X64853Y-35990D01*
X64853Y-35885D01*
X64867Y-35859D01*
X64880Y-35846D01*
X64907Y-35833D01*
X64947Y-35833D01*
X64973Y-35846D01*
X64987Y-35859D01*
X65000Y-35885D01*
X65000Y-35990D01*
X64973Y-35675D02*
X64960Y-35701D01*
X64947Y-35714D01*
X64920Y-35727D01*
X64907Y-35727D01*
X64880Y-35714D01*
X64867Y-35701D01*
X64853Y-35675D01*
X64853Y-35622D01*
X64867Y-35596D01*
X64880Y-35583D01*
X64907Y-35570D01*
X64920Y-35570D01*
X64947Y-35583D01*
X64960Y-35596D01*
X64973Y-35622D01*
X64973Y-35675D01*
X64987Y-35701D01*
X65000Y-35714D01*
X65027Y-35727D01*
X65080Y-35727D01*
X65107Y-35714D01*
X65120Y-35701D01*
X65133Y-35675D01*
X65133Y-35622D01*
X65120Y-35596D01*
X65107Y-35583D01*
X65080Y-35570D01*
X65027Y-35570D01*
X65000Y-35583D01*
X64987Y-35596D01*
X64973Y-35622D01*
G54D23*
X50001Y-44191D02*
X49909Y-44059D01*
X49844Y-44191D02*
X49844Y-43915D01*
X49949Y-43915D01*
X49975Y-43928D01*
X49988Y-43941D01*
X50001Y-43967D01*
X50001Y-44007D01*
X49988Y-44033D01*
X49975Y-44046D01*
X49949Y-44059D01*
X49844Y-44059D01*
X50133Y-44191D02*
X50185Y-44191D01*
X50212Y-44178D01*
X50225Y-44164D01*
X50251Y-44125D01*
X50264Y-44072D01*
X50264Y-43967D01*
X50251Y-43941D01*
X50238Y-43928D01*
X50212Y-43915D01*
X50159Y-43915D01*
X50133Y-43928D01*
X50120Y-43941D01*
X50107Y-43967D01*
X50107Y-44033D01*
X50120Y-44059D01*
X50133Y-44072D01*
X50159Y-44086D01*
X50212Y-44086D01*
X50238Y-44072D01*
X50251Y-44059D01*
X50264Y-44033D01*
G54D15*
X62668Y-35175D02*
X62576Y-35042D01*
X62511Y-35175D02*
X62511Y-34895D01*
X62616Y-34895D01*
X62642Y-34909D01*
X62655Y-34922D01*
X62668Y-34949D01*
X62668Y-34989D01*
X62655Y-35015D01*
X62642Y-35029D01*
X62616Y-35042D01*
X62511Y-35042D01*
X62774Y-34922D02*
X62787Y-34909D01*
X62813Y-34895D01*
X62879Y-34895D01*
X62905Y-34909D01*
X62918Y-34922D01*
X62931Y-34949D01*
X62931Y-34975D01*
X62918Y-35015D01*
X62760Y-35175D01*
X62931Y-35175D01*
X63089Y-35015D02*
X63063Y-35002D01*
X63050Y-34989D01*
X63037Y-34962D01*
X63037Y-34949D01*
X63050Y-34922D01*
X63063Y-34909D01*
X63089Y-34895D01*
X63142Y-34895D01*
X63168Y-34909D01*
X63181Y-34922D01*
X63194Y-34949D01*
X63194Y-34962D01*
X63181Y-34989D01*
X63168Y-35002D01*
X63142Y-35015D01*
X63089Y-35015D01*
X63063Y-35029D01*
X63050Y-35042D01*
X63037Y-35069D01*
X63037Y-35122D01*
X63050Y-35149D01*
X63063Y-35162D01*
X63089Y-35175D01*
X63142Y-35175D01*
X63168Y-35162D01*
X63181Y-35149D01*
X63194Y-35122D01*
X63194Y-35069D01*
X63181Y-35042D01*
X63168Y-35029D01*
X63142Y-35015D01*
X57845Y-37084D02*
X57712Y-37176D01*
X57845Y-37241D02*
X57565Y-37241D01*
X57565Y-37136D01*
X57579Y-37110D01*
X57592Y-37097D01*
X57619Y-37084D01*
X57659Y-37084D01*
X57685Y-37097D01*
X57699Y-37110D01*
X57712Y-37136D01*
X57712Y-37241D01*
X57592Y-36978D02*
X57579Y-36965D01*
X57565Y-36939D01*
X57565Y-36873D01*
X57579Y-36847D01*
X57592Y-36834D01*
X57619Y-36821D01*
X57645Y-36821D01*
X57685Y-36834D01*
X57845Y-36992D01*
X57845Y-36821D01*
X57845Y-36689D02*
X57845Y-36637D01*
X57832Y-36610D01*
X57819Y-36597D01*
X57779Y-36571D01*
X57725Y-36558D01*
X57619Y-36558D01*
X57592Y-36571D01*
X57579Y-36584D01*
X57565Y-36610D01*
X57565Y-36663D01*
X57579Y-36689D01*
X57592Y-36702D01*
X57619Y-36715D01*
X57685Y-36715D01*
X57712Y-36702D01*
X57725Y-36689D01*
X57739Y-36663D01*
X57739Y-36610D01*
X57725Y-36584D01*
X57712Y-36571D01*
X57685Y-36558D01*
X51391Y-50429D02*
X51299Y-50296D01*
X51234Y-50429D02*
X51234Y-50149D01*
X51339Y-50149D01*
X51365Y-50163D01*
X51378Y-50176D01*
X51391Y-50203D01*
X51391Y-50243D01*
X51378Y-50269D01*
X51365Y-50283D01*
X51339Y-50296D01*
X51234Y-50296D01*
X51483Y-50149D02*
X51654Y-50149D01*
X51562Y-50256D01*
X51602Y-50256D01*
X51628Y-50269D01*
X51641Y-50283D01*
X51654Y-50309D01*
X51654Y-50376D01*
X51641Y-50403D01*
X51628Y-50416D01*
X51602Y-50429D01*
X51523Y-50429D01*
X51497Y-50416D01*
X51483Y-50403D01*
X51825Y-50149D02*
X51852Y-50149D01*
X51878Y-50163D01*
X51891Y-50176D01*
X51904Y-50203D01*
X51917Y-50256D01*
X51917Y-50323D01*
X51904Y-50376D01*
X51891Y-50403D01*
X51878Y-50416D01*
X51852Y-50429D01*
X51825Y-50429D01*
X51799Y-50416D01*
X51786Y-50403D01*
X51773Y-50376D01*
X51760Y-50323D01*
X51760Y-50256D01*
X51773Y-50203D01*
X51786Y-50176D01*
X51799Y-50163D01*
X51825Y-50149D01*
X59850Y-43270D02*
X59790Y-43137D01*
X59747Y-43270D02*
X59747Y-42990D01*
X59815Y-42990D01*
X59833Y-43004D01*
X59841Y-43017D01*
X59850Y-43044D01*
X59850Y-43084D01*
X59841Y-43110D01*
X59833Y-43124D01*
X59815Y-43137D01*
X59747Y-43137D01*
X59910Y-42990D02*
X60021Y-42990D01*
X59961Y-43097D01*
X59987Y-43097D01*
X60004Y-43110D01*
X60013Y-43124D01*
X60021Y-43150D01*
X60021Y-43217D01*
X60013Y-43244D01*
X60004Y-43257D01*
X59987Y-43270D01*
X59935Y-43270D01*
X59918Y-43257D01*
X59910Y-43244D01*
X60192Y-43270D02*
X60089Y-43270D01*
X60141Y-43270D02*
X60141Y-42990D01*
X60124Y-43030D01*
X60106Y-43057D01*
X60089Y-43070D01*
X65911Y-36193D02*
X65911Y-35913D01*
X66016Y-35913D01*
X66042Y-35927D01*
X66055Y-35940D01*
X66068Y-35967D01*
X66068Y-36007D01*
X66055Y-36033D01*
X66042Y-36047D01*
X66016Y-36060D01*
X65911Y-36060D01*
X66174Y-35940D02*
X66187Y-35927D01*
X66213Y-35913D01*
X66279Y-35913D01*
X66305Y-35927D01*
X66318Y-35940D01*
X66331Y-35967D01*
X66331Y-35993D01*
X66318Y-36033D01*
X66160Y-36193D01*
X66331Y-36193D01*
X51725Y-52131D02*
X51751Y-52144D01*
X51794Y-52144D01*
X51811Y-52131D01*
X51820Y-52118D01*
X51828Y-52091D01*
X51828Y-52064D01*
X51820Y-52038D01*
X51811Y-52024D01*
X51794Y-52011D01*
X51760Y-51998D01*
X51742Y-51984D01*
X51734Y-51971D01*
X51725Y-51944D01*
X51725Y-51918D01*
X51734Y-51891D01*
X51742Y-51878D01*
X51760Y-51864D01*
X51802Y-51864D01*
X51828Y-51878D01*
X51888Y-51864D02*
X51931Y-52144D01*
X51965Y-51944D01*
X51999Y-52144D01*
X52042Y-51864D01*
X52094Y-51864D02*
X52205Y-51864D01*
X52145Y-51971D01*
X52171Y-51971D01*
X52188Y-51984D01*
X52197Y-51998D01*
X52205Y-52024D01*
X52205Y-52091D01*
X52197Y-52118D01*
X52188Y-52131D01*
X52171Y-52144D01*
X52119Y-52144D01*
X52102Y-52131D01*
X52094Y-52118D01*
X49794Y-45524D02*
X49781Y-45537D01*
X49742Y-45550D01*
X49716Y-45550D01*
X49676Y-45537D01*
X49650Y-45510D01*
X49637Y-45484D01*
X49624Y-45430D01*
X49624Y-45390D01*
X49637Y-45337D01*
X49650Y-45310D01*
X49676Y-45284D01*
X49716Y-45270D01*
X49742Y-45270D01*
X49781Y-45284D01*
X49794Y-45297D01*
X49900Y-45297D02*
X49913Y-45284D01*
X49939Y-45270D01*
X50005Y-45270D01*
X50031Y-45284D01*
X50044Y-45297D01*
X50057Y-45324D01*
X50057Y-45350D01*
X50044Y-45390D01*
X49886Y-45550D01*
X50057Y-45550D01*
X50149Y-45270D02*
X50333Y-45270D01*
X50215Y-45550D01*
G54D23*
X51572Y-44435D02*
X51441Y-44435D01*
X51441Y-44159D01*
X51808Y-44435D02*
X51651Y-44435D01*
X51729Y-44435D02*
X51729Y-44159D01*
X51703Y-44198D01*
X51677Y-44224D01*
X51651Y-44238D01*
G54D15*
X52365Y-36410D02*
X52232Y-36502D01*
X52365Y-36567D02*
X52085Y-36567D01*
X52085Y-36462D01*
X52099Y-36436D01*
X52112Y-36423D01*
X52139Y-36410D01*
X52179Y-36410D01*
X52205Y-36423D01*
X52219Y-36436D01*
X52232Y-36462D01*
X52232Y-36567D01*
X52112Y-36304D02*
X52099Y-36291D01*
X52085Y-36265D01*
X52085Y-36199D01*
X52099Y-36173D01*
X52112Y-36160D01*
X52139Y-36147D01*
X52165Y-36147D01*
X52205Y-36160D01*
X52365Y-36318D01*
X52365Y-36147D01*
X52112Y-36041D02*
X52099Y-36028D01*
X52085Y-36002D01*
X52085Y-35936D01*
X52099Y-35910D01*
X52112Y-35897D01*
X52139Y-35884D01*
X52165Y-35884D01*
X52205Y-35897D01*
X52365Y-36055D01*
X52365Y-35884D01*
G54D13*
X51643Y-36580D02*
X51511Y-36672D01*
X51643Y-36737D02*
X51367Y-36737D01*
X51367Y-36632D01*
X51380Y-36606D01*
X51393Y-36593D01*
X51419Y-36580D01*
X51459Y-36580D01*
X51485Y-36593D01*
X51498Y-36606D01*
X51511Y-36632D01*
X51511Y-36737D01*
X51393Y-36474D02*
X51380Y-36461D01*
X51367Y-36435D01*
X51367Y-36369D01*
X51380Y-36343D01*
X51393Y-36330D01*
X51419Y-36317D01*
X51446Y-36317D01*
X51485Y-36330D01*
X51643Y-36488D01*
X51643Y-36317D01*
X51367Y-36225D02*
X51367Y-36054D01*
X51472Y-36146D01*
X51472Y-36106D01*
X51485Y-36080D01*
X51498Y-36067D01*
X51524Y-36054D01*
X51590Y-36054D01*
X51616Y-36067D01*
X51630Y-36080D01*
X51643Y-36106D01*
X51643Y-36185D01*
X51630Y-36211D01*
X51616Y-36225D01*
G54D15*
X54365Y-34684D02*
X54273Y-34551D01*
X54208Y-34684D02*
X54208Y-34404D01*
X54313Y-34404D01*
X54339Y-34418D01*
X54352Y-34431D01*
X54365Y-34458D01*
X54365Y-34498D01*
X54352Y-34524D01*
X54339Y-34538D01*
X54313Y-34551D01*
X54208Y-34551D01*
X54471Y-34431D02*
X54484Y-34418D01*
X54510Y-34404D01*
X54576Y-34404D01*
X54602Y-34418D01*
X54615Y-34431D01*
X54628Y-34458D01*
X54628Y-34484D01*
X54615Y-34524D01*
X54457Y-34684D01*
X54628Y-34684D01*
X54865Y-34498D02*
X54865Y-34684D01*
X54799Y-34391D02*
X54734Y-34591D01*
X54904Y-34591D01*
X53499Y-35807D02*
X53486Y-35820D01*
X53447Y-35833D01*
X53421Y-35833D01*
X53381Y-35820D01*
X53355Y-35793D01*
X53342Y-35767D01*
X53329Y-35713D01*
X53329Y-35673D01*
X53342Y-35620D01*
X53355Y-35593D01*
X53381Y-35567D01*
X53421Y-35553D01*
X53447Y-35553D01*
X53486Y-35567D01*
X53499Y-35580D01*
X53591Y-35553D02*
X53775Y-35553D01*
X53657Y-35833D01*
X53933Y-35553D02*
X53960Y-35553D01*
X53986Y-35567D01*
X53999Y-35580D01*
X54012Y-35607D01*
X54025Y-35660D01*
X54025Y-35727D01*
X54012Y-35780D01*
X53999Y-35807D01*
X53986Y-35820D01*
X53960Y-35833D01*
X53933Y-35833D01*
X53907Y-35820D01*
X53894Y-35807D01*
X53881Y-35780D01*
X53868Y-35727D01*
X53868Y-35660D01*
X53881Y-35607D01*
X53894Y-35580D01*
X53907Y-35567D01*
X53933Y-35553D01*
X54952Y-35819D02*
X54939Y-35832D01*
X54900Y-35845D01*
X54874Y-35845D01*
X54834Y-35832D01*
X54808Y-35805D01*
X54795Y-35779D01*
X54782Y-35725D01*
X54782Y-35685D01*
X54795Y-35632D01*
X54808Y-35605D01*
X54834Y-35579D01*
X54874Y-35565D01*
X54900Y-35565D01*
X54939Y-35579D01*
X54952Y-35592D01*
X55189Y-35565D02*
X55136Y-35565D01*
X55110Y-35579D01*
X55097Y-35592D01*
X55071Y-35632D01*
X55058Y-35685D01*
X55058Y-35792D01*
X55071Y-35819D01*
X55084Y-35832D01*
X55110Y-35845D01*
X55163Y-35845D01*
X55189Y-35832D01*
X55202Y-35819D01*
X55215Y-35792D01*
X55215Y-35725D01*
X55202Y-35699D01*
X55189Y-35685D01*
X55163Y-35672D01*
X55110Y-35672D01*
X55084Y-35685D01*
X55071Y-35699D01*
X55058Y-35725D01*
X55465Y-35565D02*
X55334Y-35565D01*
X55321Y-35699D01*
X55334Y-35685D01*
X55360Y-35672D01*
X55426Y-35672D01*
X55452Y-35685D01*
X55465Y-35699D01*
X55478Y-35725D01*
X55478Y-35792D01*
X55465Y-35819D01*
X55452Y-35832D01*
X55426Y-35845D01*
X55360Y-35845D01*
X55334Y-35832D01*
X55321Y-35819D01*
X56495Y-35426D02*
X56482Y-35439D01*
X56443Y-35452D01*
X56417Y-35452D01*
X56377Y-35439D01*
X56351Y-35412D01*
X56338Y-35386D01*
X56325Y-35332D01*
X56325Y-35292D01*
X56338Y-35239D01*
X56351Y-35212D01*
X56377Y-35186D01*
X56417Y-35172D01*
X56443Y-35172D01*
X56482Y-35186D01*
X56495Y-35199D01*
X56732Y-35172D02*
X56679Y-35172D01*
X56653Y-35186D01*
X56640Y-35199D01*
X56614Y-35239D01*
X56601Y-35292D01*
X56601Y-35399D01*
X56614Y-35426D01*
X56627Y-35439D01*
X56653Y-35452D01*
X56706Y-35452D01*
X56732Y-35439D01*
X56745Y-35426D01*
X56758Y-35399D01*
X56758Y-35332D01*
X56745Y-35306D01*
X56732Y-35292D01*
X56706Y-35279D01*
X56653Y-35279D01*
X56627Y-35292D01*
X56614Y-35306D01*
X56601Y-35332D01*
X56995Y-35266D02*
X56995Y-35452D01*
X56929Y-35159D02*
X56864Y-35359D01*
X57034Y-35359D01*
X57811Y-35654D02*
X57824Y-35667D01*
X57837Y-35706D01*
X57837Y-35732D01*
X57824Y-35772D01*
X57797Y-35798D01*
X57771Y-35811D01*
X57717Y-35824D01*
X57677Y-35824D01*
X57624Y-35811D01*
X57597Y-35798D01*
X57571Y-35772D01*
X57557Y-35732D01*
X57557Y-35706D01*
X57571Y-35667D01*
X57584Y-35654D01*
X57557Y-35417D02*
X57557Y-35470D01*
X57571Y-35496D01*
X57584Y-35509D01*
X57624Y-35535D01*
X57677Y-35548D01*
X57784Y-35548D01*
X57811Y-35535D01*
X57824Y-35522D01*
X57837Y-35496D01*
X57837Y-35443D01*
X57824Y-35417D01*
X57811Y-35404D01*
X57784Y-35391D01*
X57717Y-35391D01*
X57691Y-35404D01*
X57677Y-35417D01*
X57664Y-35443D01*
X57664Y-35496D01*
X57677Y-35522D01*
X57691Y-35535D01*
X57717Y-35548D01*
X57677Y-35233D02*
X57664Y-35259D01*
X57651Y-35272D01*
X57624Y-35285D01*
X57611Y-35285D01*
X57584Y-35272D01*
X57571Y-35259D01*
X57557Y-35233D01*
X57557Y-35180D01*
X57571Y-35154D01*
X57584Y-35141D01*
X57611Y-35128D01*
X57624Y-35128D01*
X57651Y-35141D01*
X57664Y-35154D01*
X57677Y-35180D01*
X57677Y-35233D01*
X57691Y-35259D01*
X57704Y-35272D01*
X57731Y-35285D01*
X57784Y-35285D01*
X57811Y-35272D01*
X57824Y-35259D01*
X57837Y-35233D01*
X57837Y-35180D01*
X57824Y-35154D01*
X57811Y-35141D01*
X57784Y-35128D01*
X57731Y-35128D01*
X57704Y-35141D01*
X57691Y-35154D01*
X57677Y-35180D01*
X56664Y-36511D02*
X56677Y-36520D01*
X56690Y-36546D01*
X56690Y-36563D01*
X56677Y-36588D01*
X56650Y-36606D01*
X56624Y-36614D01*
X56570Y-36623D01*
X56530Y-36623D01*
X56477Y-36614D01*
X56450Y-36606D01*
X56424Y-36588D01*
X56410Y-36563D01*
X56410Y-36546D01*
X56424Y-36520D01*
X56437Y-36511D01*
X56504Y-36357D02*
X56690Y-36357D01*
X56397Y-36400D02*
X56597Y-36443D01*
X56597Y-36331D01*
X56504Y-36186D02*
X56690Y-36186D01*
X56397Y-36229D02*
X56597Y-36272D01*
X56597Y-36160D01*
X55015Y-36292D02*
X55002Y-36305D01*
X54963Y-36318D01*
X54937Y-36318D01*
X54897Y-36305D01*
X54871Y-36278D01*
X54858Y-36252D01*
X54845Y-36198D01*
X54845Y-36158D01*
X54858Y-36105D01*
X54871Y-36078D01*
X54897Y-36052D01*
X54937Y-36038D01*
X54963Y-36038D01*
X55002Y-36052D01*
X55015Y-36065D01*
X55252Y-36132D02*
X55252Y-36318D01*
X55186Y-36025D02*
X55121Y-36225D01*
X55291Y-36225D01*
X55515Y-36038D02*
X55462Y-36038D01*
X55436Y-36052D01*
X55423Y-36065D01*
X55397Y-36105D01*
X55384Y-36158D01*
X55384Y-36265D01*
X55397Y-36292D01*
X55410Y-36305D01*
X55436Y-36318D01*
X55489Y-36318D01*
X55515Y-36305D01*
X55528Y-36292D01*
X55541Y-36265D01*
X55541Y-36198D01*
X55528Y-36172D01*
X55515Y-36158D01*
X55489Y-36145D01*
X55436Y-36145D01*
X55410Y-36158D01*
X55397Y-36172D01*
X55384Y-36198D01*
X59567Y-35292D02*
X59580Y-35305D01*
X59593Y-35344D01*
X59593Y-35370D01*
X59580Y-35410D01*
X59553Y-35436D01*
X59527Y-35449D01*
X59473Y-35462D01*
X59433Y-35462D01*
X59380Y-35449D01*
X59353Y-35436D01*
X59327Y-35410D01*
X59313Y-35370D01*
X59313Y-35344D01*
X59327Y-35305D01*
X59340Y-35292D01*
X59407Y-35055D02*
X59593Y-35055D01*
X59300Y-35121D02*
X59500Y-35186D01*
X59500Y-35016D01*
X59593Y-34897D02*
X59593Y-34845D01*
X59580Y-34818D01*
X59567Y-34805D01*
X59527Y-34779D01*
X59473Y-34766D01*
X59367Y-34766D01*
X59340Y-34779D01*
X59327Y-34792D01*
X59313Y-34818D01*
X59313Y-34871D01*
X59327Y-34897D01*
X59340Y-34910D01*
X59367Y-34923D01*
X59433Y-34923D01*
X59460Y-34910D01*
X59473Y-34897D01*
X59487Y-34871D01*
X59487Y-34818D01*
X59473Y-34792D01*
X59460Y-34779D01*
X59433Y-34766D01*
X61713Y-44768D02*
X61580Y-44828D01*
X61713Y-44871D02*
X61433Y-44871D01*
X61433Y-44803D01*
X61447Y-44785D01*
X61460Y-44777D01*
X61487Y-44768D01*
X61527Y-44768D01*
X61553Y-44777D01*
X61567Y-44785D01*
X61580Y-44803D01*
X61580Y-44871D01*
X61713Y-44597D02*
X61713Y-44700D01*
X61713Y-44648D02*
X61433Y-44648D01*
X61473Y-44665D01*
X61500Y-44683D01*
X61513Y-44700D01*
X61713Y-44512D02*
X61713Y-44477D01*
X61700Y-44460D01*
X61687Y-44452D01*
X61647Y-44434D01*
X61593Y-44426D01*
X61487Y-44426D01*
X61460Y-44434D01*
X61447Y-44443D01*
X61433Y-44460D01*
X61433Y-44494D01*
X61447Y-44512D01*
X61460Y-44520D01*
X61487Y-44529D01*
X61553Y-44529D01*
X61580Y-44520D01*
X61593Y-44512D01*
X61607Y-44494D01*
X61607Y-44460D01*
X61593Y-44443D01*
X61580Y-44434D01*
X61553Y-44426D01*
X63412Y-47028D02*
X63279Y-47120D01*
X63412Y-47185D02*
X63132Y-47185D01*
X63132Y-47080D01*
X63146Y-47054D01*
X63159Y-47041D01*
X63186Y-47028D01*
X63226Y-47028D01*
X63252Y-47041D01*
X63266Y-47054D01*
X63279Y-47080D01*
X63279Y-47185D01*
X63412Y-46765D02*
X63412Y-46922D01*
X63412Y-46844D02*
X63132Y-46844D01*
X63172Y-46870D01*
X63199Y-46896D01*
X63212Y-46922D01*
X63132Y-46673D02*
X63132Y-46489D01*
X63412Y-46607D01*
X61756Y-43764D02*
X61623Y-43824D01*
X61756Y-43867D02*
X61476Y-43867D01*
X61476Y-43799D01*
X61490Y-43781D01*
X61503Y-43773D01*
X61530Y-43764D01*
X61570Y-43764D01*
X61596Y-43773D01*
X61610Y-43781D01*
X61623Y-43799D01*
X61623Y-43867D01*
X61756Y-43593D02*
X61756Y-43696D01*
X61756Y-43644D02*
X61476Y-43644D01*
X61516Y-43661D01*
X61543Y-43679D01*
X61556Y-43696D01*
X61570Y-43439D02*
X61756Y-43439D01*
X61463Y-43482D02*
X61663Y-43525D01*
X61663Y-43413D01*
X64583Y-40833D02*
X64450Y-40925D01*
X64583Y-40990D02*
X64303Y-40990D01*
X64303Y-40885D01*
X64317Y-40859D01*
X64330Y-40846D01*
X64357Y-40833D01*
X64397Y-40833D01*
X64423Y-40846D01*
X64437Y-40859D01*
X64450Y-40885D01*
X64450Y-40990D01*
X64583Y-40570D02*
X64583Y-40727D01*
X64583Y-40649D02*
X64303Y-40649D01*
X64343Y-40675D01*
X64370Y-40701D01*
X64383Y-40727D01*
X64303Y-40399D02*
X64303Y-40372D01*
X64317Y-40346D01*
X64330Y-40333D01*
X64357Y-40320D01*
X64410Y-40307D01*
X64477Y-40307D01*
X64530Y-40320D01*
X64557Y-40333D01*
X64570Y-40346D01*
X64583Y-40372D01*
X64583Y-40399D01*
X64570Y-40425D01*
X64557Y-40438D01*
X64530Y-40451D01*
X64477Y-40464D01*
X64410Y-40464D01*
X64357Y-40451D01*
X64330Y-40438D01*
X64317Y-40425D01*
X64303Y-40399D01*
X63574Y-44109D02*
X63514Y-43976D01*
X63471Y-44109D02*
X63471Y-43829D01*
X63539Y-43829D01*
X63557Y-43843D01*
X63565Y-43856D01*
X63574Y-43883D01*
X63574Y-43923D01*
X63565Y-43949D01*
X63557Y-43963D01*
X63539Y-43976D01*
X63471Y-43976D01*
X63745Y-44109D02*
X63642Y-44109D01*
X63694Y-44109D02*
X63694Y-43829D01*
X63677Y-43869D01*
X63659Y-43896D01*
X63642Y-43909D01*
X63813Y-43856D02*
X63822Y-43843D01*
X63839Y-43829D01*
X63882Y-43829D01*
X63899Y-43843D01*
X63908Y-43856D01*
X63916Y-43883D01*
X63916Y-43909D01*
X63908Y-43949D01*
X63805Y-44109D01*
X63916Y-44109D01*
X54042Y-48896D02*
X53950Y-48763D01*
X53885Y-48896D02*
X53885Y-48616D01*
X53990Y-48616D01*
X54016Y-48630D01*
X54029Y-48643D01*
X54042Y-48670D01*
X54042Y-48710D01*
X54029Y-48736D01*
X54016Y-48750D01*
X53990Y-48763D01*
X53885Y-48763D01*
X54305Y-48896D02*
X54148Y-48896D01*
X54226Y-48896D02*
X54226Y-48616D01*
X54200Y-48656D01*
X54174Y-48683D01*
X54148Y-48696D01*
X54397Y-48616D02*
X54568Y-48616D01*
X54476Y-48723D01*
X54516Y-48723D01*
X54542Y-48736D01*
X54555Y-48750D01*
X54568Y-48776D01*
X54568Y-48843D01*
X54555Y-48870D01*
X54542Y-48883D01*
X54516Y-48896D01*
X54437Y-48896D01*
X54411Y-48883D01*
X54397Y-48870D01*
X54058Y-48267D02*
X53966Y-48134D01*
X53901Y-48267D02*
X53901Y-47987D01*
X54006Y-47987D01*
X54032Y-48001D01*
X54045Y-48014D01*
X54058Y-48041D01*
X54058Y-48081D01*
X54045Y-48107D01*
X54032Y-48121D01*
X54006Y-48134D01*
X53901Y-48134D01*
X54321Y-48267D02*
X54164Y-48267D01*
X54242Y-48267D02*
X54242Y-47987D01*
X54216Y-48027D01*
X54190Y-48054D01*
X54164Y-48067D01*
X54558Y-47987D02*
X54505Y-47987D01*
X54479Y-48001D01*
X54466Y-48014D01*
X54440Y-48054D01*
X54427Y-48107D01*
X54427Y-48214D01*
X54440Y-48241D01*
X54453Y-48254D01*
X54479Y-48267D01*
X54532Y-48267D01*
X54558Y-48254D01*
X54571Y-48241D01*
X54584Y-48214D01*
X54584Y-48147D01*
X54571Y-48121D01*
X54558Y-48107D01*
X54532Y-48094D01*
X54479Y-48094D01*
X54453Y-48107D01*
X54440Y-48121D01*
X54427Y-48147D01*
X54058Y-47689D02*
X54045Y-47702D01*
X54006Y-47715D01*
X53980Y-47715D01*
X53940Y-47702D01*
X53914Y-47675D01*
X53901Y-47649D01*
X53888Y-47595D01*
X53888Y-47555D01*
X53901Y-47502D01*
X53914Y-47475D01*
X53940Y-47449D01*
X53980Y-47435D01*
X54006Y-47435D01*
X54045Y-47449D01*
X54058Y-47462D01*
X54295Y-47435D02*
X54242Y-47435D01*
X54216Y-47449D01*
X54203Y-47462D01*
X54177Y-47502D01*
X54164Y-47555D01*
X54164Y-47662D01*
X54177Y-47689D01*
X54190Y-47702D01*
X54216Y-47715D01*
X54269Y-47715D01*
X54295Y-47702D01*
X54308Y-47689D01*
X54321Y-47662D01*
X54321Y-47595D01*
X54308Y-47569D01*
X54295Y-47555D01*
X54269Y-47542D01*
X54216Y-47542D01*
X54190Y-47555D01*
X54177Y-47569D01*
X54164Y-47595D01*
X54492Y-47435D02*
X54519Y-47435D01*
X54545Y-47449D01*
X54558Y-47462D01*
X54571Y-47489D01*
X54584Y-47542D01*
X54584Y-47609D01*
X54571Y-47662D01*
X54558Y-47689D01*
X54545Y-47702D01*
X54519Y-47715D01*
X54492Y-47715D01*
X54466Y-47702D01*
X54453Y-47689D01*
X54440Y-47662D01*
X54427Y-47609D01*
X54427Y-47542D01*
X54440Y-47489D01*
X54453Y-47462D01*
X54466Y-47449D01*
X54492Y-47435D01*
X52500Y-45162D02*
X52513Y-45175D01*
X52526Y-45214D01*
X52526Y-45240D01*
X52513Y-45280D01*
X52486Y-45306D01*
X52460Y-45319D01*
X52406Y-45332D01*
X52366Y-45332D01*
X52313Y-45319D01*
X52286Y-45306D01*
X52260Y-45280D01*
X52246Y-45240D01*
X52246Y-45214D01*
X52260Y-45175D01*
X52273Y-45162D01*
X52246Y-44912D02*
X52246Y-45043D01*
X52380Y-45056D01*
X52366Y-45043D01*
X52353Y-45017D01*
X52353Y-44951D01*
X52366Y-44925D01*
X52380Y-44912D01*
X52406Y-44899D01*
X52473Y-44899D01*
X52500Y-44912D01*
X52513Y-44925D01*
X52526Y-44951D01*
X52526Y-45017D01*
X52513Y-45043D01*
X52500Y-45056D01*
X52246Y-44807D02*
X52246Y-44623D01*
X52526Y-44741D01*
X51005Y-46700D02*
X50913Y-46567D01*
X50848Y-46700D02*
X50848Y-46420D01*
X50953Y-46420D01*
X50979Y-46434D01*
X50992Y-46447D01*
X51005Y-46474D01*
X51005Y-46514D01*
X50992Y-46540D01*
X50979Y-46554D01*
X50953Y-46567D01*
X50848Y-46567D01*
X51242Y-46420D02*
X51189Y-46420D01*
X51163Y-46434D01*
X51150Y-46447D01*
X51124Y-46487D01*
X51111Y-46540D01*
X51111Y-46647D01*
X51124Y-46674D01*
X51137Y-46687D01*
X51163Y-46700D01*
X51216Y-46700D01*
X51242Y-46687D01*
X51255Y-46674D01*
X51268Y-46647D01*
X51268Y-46580D01*
X51255Y-46554D01*
X51242Y-46540D01*
X51216Y-46527D01*
X51163Y-46527D01*
X51137Y-46540D01*
X51124Y-46554D01*
X51111Y-46580D01*
X51959Y-45133D02*
X51826Y-45225D01*
X51959Y-45290D02*
X51679Y-45290D01*
X51679Y-45185D01*
X51693Y-45159D01*
X51706Y-45146D01*
X51733Y-45133D01*
X51773Y-45133D01*
X51799Y-45146D01*
X51813Y-45159D01*
X51826Y-45185D01*
X51826Y-45290D01*
X51773Y-44896D02*
X51959Y-44896D01*
X51666Y-44962D02*
X51866Y-45027D01*
X51866Y-44857D01*
X54237Y-45434D02*
X54250Y-45447D01*
X54263Y-45486D01*
X54263Y-45512D01*
X54250Y-45552D01*
X54223Y-45578D01*
X54197Y-45591D01*
X54143Y-45604D01*
X54103Y-45604D01*
X54050Y-45591D01*
X54023Y-45578D01*
X53997Y-45552D01*
X53983Y-45512D01*
X53983Y-45486D01*
X53997Y-45447D01*
X54010Y-45434D01*
X53983Y-45184D02*
X53983Y-45315D01*
X54117Y-45328D01*
X54103Y-45315D01*
X54090Y-45289D01*
X54090Y-45223D01*
X54103Y-45197D01*
X54117Y-45184D01*
X54143Y-45171D01*
X54210Y-45171D01*
X54237Y-45184D01*
X54250Y-45197D01*
X54263Y-45223D01*
X54263Y-45289D01*
X54250Y-45315D01*
X54237Y-45328D01*
X53983Y-45079D02*
X53983Y-44908D01*
X54090Y-45000D01*
X54090Y-44960D01*
X54103Y-44934D01*
X54117Y-44921D01*
X54143Y-44908D01*
X54210Y-44908D01*
X54237Y-44921D01*
X54250Y-44934D01*
X54263Y-44960D01*
X54263Y-45039D01*
X54250Y-45065D01*
X54237Y-45079D01*
X56386Y-45036D02*
X56399Y-45049D01*
X56412Y-45088D01*
X56412Y-45114D01*
X56399Y-45154D01*
X56372Y-45180D01*
X56346Y-45193D01*
X56292Y-45206D01*
X56252Y-45206D01*
X56199Y-45193D01*
X56172Y-45180D01*
X56146Y-45154D01*
X56132Y-45114D01*
X56132Y-45088D01*
X56146Y-45049D01*
X56159Y-45036D01*
X56132Y-44786D02*
X56132Y-44917D01*
X56266Y-44930D01*
X56252Y-44917D01*
X56239Y-44891D01*
X56239Y-44825D01*
X56252Y-44799D01*
X56266Y-44786D01*
X56292Y-44773D01*
X56359Y-44773D01*
X56386Y-44786D01*
X56399Y-44799D01*
X56412Y-44825D01*
X56412Y-44891D01*
X56399Y-44917D01*
X56386Y-44930D01*
X56159Y-44667D02*
X56146Y-44654D01*
X56132Y-44628D01*
X56132Y-44562D01*
X56146Y-44536D01*
X56159Y-44523D01*
X56186Y-44510D01*
X56212Y-44510D01*
X56252Y-44523D01*
X56412Y-44681D01*
X56412Y-44510D01*
X66065Y-52775D02*
X66065Y-52495D01*
X66133Y-52495D01*
X66151Y-52509D01*
X66159Y-52522D01*
X66168Y-52549D01*
X66168Y-52589D01*
X66159Y-52615D01*
X66151Y-52629D01*
X66133Y-52642D01*
X66065Y-52642D01*
X66322Y-52589D02*
X66322Y-52775D01*
X66279Y-52482D02*
X66236Y-52682D01*
X66348Y-52682D01*
X64106Y-48437D02*
X64106Y-48637D01*
X64098Y-48677D01*
X64081Y-48704D01*
X64055Y-48717D01*
X64038Y-48717D01*
X64192Y-48717D02*
X64192Y-48437D01*
X64260Y-48437D01*
X64278Y-48451D01*
X64286Y-48464D01*
X64295Y-48491D01*
X64295Y-48531D01*
X64286Y-48557D01*
X64278Y-48571D01*
X64260Y-48584D01*
X64192Y-48584D01*
X64466Y-48717D02*
X64363Y-48717D01*
X64415Y-48717D02*
X64415Y-48437D01*
X64398Y-48477D01*
X64380Y-48504D01*
X64363Y-48517D01*
X64379Y-43943D02*
X64379Y-44143D01*
X64371Y-44183D01*
X64354Y-44210D01*
X64328Y-44223D01*
X64311Y-44223D01*
X64465Y-44223D02*
X64465Y-43943D01*
X64533Y-43943D01*
X64551Y-43957D01*
X64559Y-43970D01*
X64568Y-43997D01*
X64568Y-44037D01*
X64559Y-44063D01*
X64551Y-44077D01*
X64533Y-44090D01*
X64465Y-44090D01*
X64636Y-43970D02*
X64645Y-43957D01*
X64662Y-43943D01*
X64705Y-43943D01*
X64722Y-43957D01*
X64731Y-43970D01*
X64739Y-43997D01*
X64739Y-44023D01*
X64731Y-44063D01*
X64628Y-44223D01*
X64739Y-44223D01*
X46461Y-47991D02*
X46487Y-48004D01*
X46495Y-48017D01*
X46504Y-48044D01*
X46504Y-48084D01*
X46495Y-48111D01*
X46487Y-48124D01*
X46469Y-48137D01*
X46401Y-48137D01*
X46401Y-47857D01*
X46461Y-47857D01*
X46478Y-47871D01*
X46487Y-47884D01*
X46495Y-47911D01*
X46495Y-47937D01*
X46487Y-47964D01*
X46478Y-47977D01*
X46461Y-47991D01*
X46401Y-47991D01*
X46555Y-47857D02*
X46658Y-47857D01*
X46607Y-48137D02*
X46607Y-47857D01*
X46812Y-48137D02*
X46709Y-48137D01*
X46761Y-48137D02*
X46761Y-47857D01*
X46744Y-47897D01*
X46726Y-47924D01*
X46709Y-47937D01*
X48211Y-50293D02*
X48211Y-50013D01*
X48316Y-50013D01*
X48342Y-50027D01*
X48355Y-50040D01*
X48368Y-50067D01*
X48368Y-50107D01*
X48355Y-50133D01*
X48342Y-50147D01*
X48316Y-50160D01*
X48211Y-50160D01*
X48605Y-50013D02*
X48552Y-50013D01*
X48526Y-50027D01*
X48513Y-50040D01*
X48487Y-50080D01*
X48474Y-50133D01*
X48474Y-50240D01*
X48487Y-50267D01*
X48500Y-50280D01*
X48526Y-50293D01*
X48579Y-50293D01*
X48605Y-50280D01*
X48618Y-50267D01*
X48631Y-50240D01*
X48631Y-50173D01*
X48618Y-50147D01*
X48605Y-50133D01*
X48579Y-50120D01*
X48526Y-50120D01*
X48500Y-50133D01*
X48487Y-50147D01*
X48474Y-50173D01*
X62716Y-42805D02*
X62716Y-43005D01*
X62708Y-43045D01*
X62691Y-43072D01*
X62665Y-43085D01*
X62648Y-43085D01*
X62802Y-43085D02*
X62802Y-42805D01*
X62870Y-42805D01*
X62888Y-42819D01*
X62896Y-42832D01*
X62905Y-42859D01*
X62905Y-42899D01*
X62896Y-42925D01*
X62888Y-42939D01*
X62870Y-42952D01*
X62802Y-42952D01*
X62965Y-42805D02*
X63076Y-42805D01*
X63016Y-42912D01*
X63042Y-42912D01*
X63059Y-42925D01*
X63068Y-42939D01*
X63076Y-42965D01*
X63076Y-43032D01*
X63068Y-43059D01*
X63059Y-43072D01*
X63042Y-43085D01*
X62990Y-43085D01*
X62973Y-43072D01*
X62965Y-43059D01*
X63574Y-43696D02*
X63514Y-43563D01*
X63471Y-43696D02*
X63471Y-43416D01*
X63539Y-43416D01*
X63557Y-43430D01*
X63565Y-43443D01*
X63574Y-43470D01*
X63574Y-43510D01*
X63565Y-43536D01*
X63557Y-43550D01*
X63539Y-43563D01*
X63471Y-43563D01*
X63745Y-43696D02*
X63642Y-43696D01*
X63694Y-43696D02*
X63694Y-43416D01*
X63677Y-43456D01*
X63659Y-43483D01*
X63642Y-43496D01*
X63848Y-43536D02*
X63830Y-43523D01*
X63822Y-43510D01*
X63813Y-43483D01*
X63813Y-43470D01*
X63822Y-43443D01*
X63830Y-43430D01*
X63848Y-43416D01*
X63882Y-43416D01*
X63899Y-43430D01*
X63908Y-43443D01*
X63916Y-43470D01*
X63916Y-43483D01*
X63908Y-43510D01*
X63899Y-43523D01*
X63882Y-43536D01*
X63848Y-43536D01*
X63830Y-43550D01*
X63822Y-43563D01*
X63813Y-43590D01*
X63813Y-43643D01*
X63822Y-43670D01*
X63830Y-43683D01*
X63848Y-43696D01*
X63882Y-43696D01*
X63899Y-43683D01*
X63908Y-43670D01*
X63916Y-43643D01*
X63916Y-43590D01*
X63908Y-43563D01*
X63899Y-43550D01*
X63882Y-43536D01*
X58645Y-42940D02*
X58585Y-42807D01*
X58542Y-42940D02*
X58542Y-42660D01*
X58610Y-42660D01*
X58628Y-42674D01*
X58636Y-42687D01*
X58645Y-42714D01*
X58645Y-42754D01*
X58636Y-42780D01*
X58628Y-42794D01*
X58610Y-42807D01*
X58542Y-42807D01*
X58816Y-42940D02*
X58713Y-42940D01*
X58765Y-42940D02*
X58765Y-42660D01*
X58748Y-42700D01*
X58730Y-42727D01*
X58713Y-42740D01*
X58979Y-42660D02*
X58893Y-42660D01*
X58884Y-42794D01*
X58893Y-42780D01*
X58910Y-42767D01*
X58953Y-42767D01*
X58970Y-42780D01*
X58979Y-42794D01*
X58987Y-42820D01*
X58987Y-42887D01*
X58979Y-42914D01*
X58970Y-42927D01*
X58953Y-42940D01*
X58910Y-42940D01*
X58893Y-42927D01*
X58884Y-42914D01*
X63408Y-47973D02*
X63275Y-48065D01*
X63408Y-48130D02*
X63128Y-48130D01*
X63128Y-48025D01*
X63142Y-47999D01*
X63155Y-47986D01*
X63182Y-47973D01*
X63222Y-47973D01*
X63248Y-47986D01*
X63262Y-47999D01*
X63275Y-48025D01*
X63275Y-48130D01*
X63408Y-47710D02*
X63408Y-47867D01*
X63408Y-47789D02*
X63128Y-47789D01*
X63168Y-47815D01*
X63195Y-47841D01*
X63208Y-47867D01*
X63408Y-47447D02*
X63408Y-47604D01*
X63408Y-47526D02*
X63128Y-47526D01*
X63168Y-47552D01*
X63195Y-47578D01*
X63208Y-47604D01*
X60829Y-43274D02*
X60829Y-42994D01*
X60872Y-42994D01*
X60897Y-43008D01*
X60915Y-43034D01*
X60923Y-43061D01*
X60932Y-43114D01*
X60932Y-43154D01*
X60923Y-43208D01*
X60915Y-43234D01*
X60897Y-43261D01*
X60872Y-43274D01*
X60829Y-43274D01*
X61095Y-42994D02*
X61009Y-42994D01*
X61000Y-43128D01*
X61009Y-43114D01*
X61026Y-43101D01*
X61069Y-43101D01*
X61086Y-43114D01*
X61095Y-43128D01*
X61103Y-43154D01*
X61103Y-43221D01*
X61095Y-43248D01*
X61086Y-43261D01*
X61069Y-43274D01*
X61026Y-43274D01*
X61009Y-43261D01*
X61000Y-43248D01*
G54D20*
X58401Y-44219D02*
X58401Y-44462D01*
X58416Y-44491D01*
X58430Y-44505D01*
X58459Y-44519D01*
X58516Y-44519D01*
X58544Y-44505D01*
X58559Y-44491D01*
X58573Y-44462D01*
X58573Y-44219D01*
X58844Y-44319D02*
X58844Y-44519D01*
X58773Y-44205D02*
X58701Y-44419D01*
X58887Y-44419D01*
G54D15*
X60428Y-50353D02*
X60336Y-50220D01*
X60271Y-50353D02*
X60271Y-50073D01*
X60376Y-50073D01*
X60402Y-50087D01*
X60415Y-50100D01*
X60428Y-50127D01*
X60428Y-50167D01*
X60415Y-50193D01*
X60402Y-50207D01*
X60376Y-50220D01*
X60271Y-50220D01*
X60520Y-50073D02*
X60691Y-50073D01*
X60599Y-50180D01*
X60639Y-50180D01*
X60665Y-50193D01*
X60678Y-50207D01*
X60691Y-50233D01*
X60691Y-50300D01*
X60678Y-50327D01*
X60665Y-50340D01*
X60639Y-50353D01*
X60560Y-50353D01*
X60534Y-50340D01*
X60520Y-50327D01*
X60928Y-50073D02*
X60875Y-50073D01*
X60849Y-50087D01*
X60836Y-50100D01*
X60810Y-50140D01*
X60797Y-50193D01*
X60797Y-50300D01*
X60810Y-50327D01*
X60823Y-50340D01*
X60849Y-50353D01*
X60902Y-50353D01*
X60928Y-50340D01*
X60941Y-50327D01*
X60954Y-50300D01*
X60954Y-50233D01*
X60941Y-50207D01*
X60928Y-50193D01*
X60902Y-50180D01*
X60849Y-50180D01*
X60823Y-50193D01*
X60810Y-50207D01*
X60797Y-50233D01*
X60403Y-49583D02*
X60390Y-49596D01*
X60351Y-49609D01*
X60325Y-49609D01*
X60285Y-49596D01*
X60259Y-49569D01*
X60246Y-49543D01*
X60233Y-49489D01*
X60233Y-49449D01*
X60246Y-49396D01*
X60259Y-49369D01*
X60285Y-49343D01*
X60325Y-49329D01*
X60351Y-49329D01*
X60390Y-49343D01*
X60403Y-49356D01*
X60495Y-49329D02*
X60679Y-49329D01*
X60561Y-49609D01*
X60395Y-49957D02*
X60382Y-49970D01*
X60343Y-49983D01*
X60317Y-49983D01*
X60277Y-49970D01*
X60251Y-49943D01*
X60238Y-49917D01*
X60225Y-49863D01*
X60225Y-49823D01*
X60238Y-49770D01*
X60251Y-49743D01*
X60277Y-49717D01*
X60317Y-49703D01*
X60343Y-49703D01*
X60382Y-49717D01*
X60395Y-49730D01*
X60632Y-49703D02*
X60579Y-49703D01*
X60553Y-49717D01*
X60540Y-49730D01*
X60514Y-49770D01*
X60501Y-49823D01*
X60501Y-49930D01*
X60514Y-49957D01*
X60527Y-49970D01*
X60553Y-49983D01*
X60606Y-49983D01*
X60632Y-49970D01*
X60645Y-49957D01*
X60658Y-49930D01*
X60658Y-49863D01*
X60645Y-49837D01*
X60632Y-49823D01*
X60606Y-49810D01*
X60553Y-49810D01*
X60527Y-49823D01*
X60514Y-49837D01*
X60501Y-49863D01*
G54D24*
X45745Y-35788D02*
X45745Y-35388D01*
X45898Y-35388D01*
X45936Y-35407D01*
X45955Y-35426D01*
X45974Y-35464D01*
X45974Y-35521D01*
X45955Y-35559D01*
X45936Y-35578D01*
X45898Y-35597D01*
X45745Y-35597D01*
X46355Y-35788D02*
X46126Y-35788D01*
X46240Y-35788D02*
X46240Y-35388D01*
X46202Y-35445D01*
X46164Y-35483D01*
X46126Y-35502D01*
G54D25*
X60601Y-44080D02*
X60601Y-44303D01*
X60614Y-44329D01*
X60627Y-44343D01*
X60653Y-44356D01*
X60706Y-44356D01*
X60732Y-44343D01*
X60745Y-44329D01*
X60758Y-44303D01*
X60758Y-44080D01*
X60903Y-44356D02*
X60955Y-44356D01*
X60982Y-44343D01*
X60995Y-44329D01*
X61021Y-44290D01*
X61034Y-44237D01*
X61034Y-44132D01*
X61021Y-44106D01*
X61008Y-44093D01*
X60982Y-44080D01*
X60929Y-44080D01*
X60903Y-44093D01*
X60890Y-44106D01*
X60877Y-44132D01*
X60877Y-44198D01*
X60890Y-44224D01*
X60903Y-44237D01*
X60929Y-44251D01*
X60982Y-44251D01*
X61008Y-44237D01*
X61021Y-44224D01*
X61034Y-44198D01*
G54D26*
X46281Y-50892D02*
X46281Y-51178D01*
X46261Y-51235D01*
X46223Y-51273D01*
X46166Y-51292D01*
X46128Y-51292D01*
X46452Y-50930D02*
X46471Y-50911D01*
X46509Y-50892D01*
X46605Y-50892D01*
X46643Y-50911D01*
X46662Y-50930D01*
X46681Y-50968D01*
X46681Y-51006D01*
X46662Y-51063D01*
X46433Y-51292D01*
X46681Y-51292D01*
G54D27*
X46070Y-53840D02*
X45670Y-53840D01*
X45670Y-53687D01*
X45689Y-53649D01*
X45708Y-53630D01*
X45746Y-53611D01*
X45803Y-53611D01*
X45841Y-53630D01*
X45860Y-53649D01*
X45879Y-53687D01*
X45879Y-53840D01*
X45670Y-53364D02*
X45670Y-53287D01*
X45689Y-53249D01*
X45727Y-53211D01*
X45803Y-53192D01*
X45937Y-53192D01*
X46013Y-53211D01*
X46051Y-53249D01*
X46070Y-53287D01*
X46070Y-53364D01*
X46051Y-53402D01*
X46013Y-53440D01*
X45937Y-53459D01*
X45803Y-53459D01*
X45727Y-53440D01*
X45689Y-53402D01*
X45670Y-53364D01*
X45670Y-53059D02*
X46070Y-52964D01*
X45784Y-52887D01*
X46070Y-52811D01*
X45670Y-52716D01*
X45860Y-52564D02*
X45860Y-52430D01*
X46070Y-52373D02*
X46070Y-52564D01*
X45670Y-52564D01*
X45670Y-52373D01*
X46070Y-51973D02*
X45879Y-52107D01*
X46070Y-52202D02*
X45670Y-52202D01*
X45670Y-52049D01*
X45689Y-52011D01*
X45708Y-51992D01*
X45746Y-51973D01*
X45803Y-51973D01*
X45841Y-51992D01*
X45860Y-52011D01*
X45879Y-52049D01*
X45879Y-52202D01*
X46108Y-51897D02*
X46108Y-51592D01*
X45670Y-51306D02*
X45670Y-51497D01*
X45860Y-51516D01*
X45841Y-51497D01*
X45822Y-51459D01*
X45822Y-51363D01*
X45841Y-51325D01*
X45860Y-51306D01*
X45898Y-51287D01*
X45994Y-51287D01*
X46032Y-51306D01*
X46051Y-51325D01*
X46070Y-51363D01*
X46070Y-51459D01*
X46051Y-51497D01*
X46032Y-51516D01*
X45670Y-51173D02*
X46070Y-51040D01*
X45670Y-50906D01*
G54D23*
X57703Y-50255D02*
X57703Y-50386D01*
X57427Y-50386D01*
X57427Y-50190D02*
X57427Y-50019D01*
X57532Y-50111D01*
X57532Y-50071D01*
X57545Y-50045D01*
X57558Y-50032D01*
X57584Y-50019D01*
X57650Y-50019D01*
X57676Y-50032D01*
X57690Y-50045D01*
X57703Y-50071D01*
X57703Y-50150D01*
X57690Y-50176D01*
X57676Y-50190D01*
X59750Y-50259D02*
X59750Y-50390D01*
X59474Y-50390D01*
X59566Y-50049D02*
X59750Y-50049D01*
X59461Y-50115D02*
X59658Y-50180D01*
X59658Y-50010D01*
X59057Y-50235D02*
X59057Y-50366D01*
X58781Y-50366D01*
X58781Y-50012D02*
X58781Y-50143D01*
X58912Y-50156D01*
X58899Y-50143D01*
X58886Y-50117D01*
X58886Y-50051D01*
X58899Y-50025D01*
X58912Y-50012D01*
X58938Y-49999D01*
X59004Y-49999D01*
X59030Y-50012D01*
X59044Y-50025D01*
X59057Y-50051D01*
X59057Y-50117D01*
X59044Y-50143D01*
X59030Y-50156D01*
X58372Y-50235D02*
X58372Y-50366D01*
X58096Y-50366D01*
X58096Y-50025D02*
X58096Y-50078D01*
X58109Y-50104D01*
X58122Y-50117D01*
X58161Y-50143D01*
X58214Y-50156D01*
X58319Y-50156D01*
X58345Y-50143D01*
X58359Y-50130D01*
X58372Y-50104D01*
X58372Y-50051D01*
X58359Y-50025D01*
X58345Y-50012D01*
X58319Y-49999D01*
X58253Y-49999D01*
X58227Y-50012D01*
X58214Y-50025D01*
X58201Y-50051D01*
X58201Y-50104D01*
X58214Y-50130D01*
X58227Y-50143D01*
X58253Y-50156D01*
G54D13*
X54788Y-45049D02*
X54972Y-45325D01*
X54972Y-45049D02*
X54788Y-45325D01*
X55222Y-45325D02*
X55065Y-45325D01*
X55143Y-45325D02*
X55143Y-45049D01*
X55117Y-45088D01*
X55091Y-45114D01*
X55065Y-45128D01*
G54D23*
X61152Y-35127D02*
X61152Y-35350D01*
X61165Y-35376D01*
X61178Y-35390D01*
X61204Y-35403D01*
X61257Y-35403D01*
X61283Y-35390D01*
X61296Y-35376D01*
X61309Y-35350D01*
X61309Y-35127D01*
X61414Y-35127D02*
X61585Y-35127D01*
X61493Y-35232D01*
X61533Y-35232D01*
X61559Y-35245D01*
X61572Y-35258D01*
X61585Y-35284D01*
X61585Y-35350D01*
X61572Y-35376D01*
X61559Y-35390D01*
X61533Y-35403D01*
X61454Y-35403D01*
X61428Y-35390D01*
X61414Y-35376D01*
G54D10*
X56352Y-46943D02*
X56567Y-46943D01*
X56610Y-46957D01*
X56638Y-46986D01*
X56652Y-47029D01*
X56652Y-47057D01*
X56652Y-46800D02*
X56352Y-46800D01*
X56352Y-46685D01*
X56367Y-46657D01*
X56381Y-46642D01*
X56410Y-46628D01*
X56452Y-46628D01*
X56481Y-46642D01*
X56495Y-46657D01*
X56510Y-46685D01*
X56510Y-46800D01*
X56352Y-46357D02*
X56352Y-46500D01*
X56495Y-46514D01*
X56481Y-46500D01*
X56467Y-46471D01*
X56467Y-46400D01*
X56481Y-46371D01*
X56495Y-46357D01*
X56524Y-46342D01*
X56595Y-46342D01*
X56624Y-46357D01*
X56638Y-46371D01*
X56652Y-46400D01*
X56652Y-46471D01*
X56638Y-46500D01*
X56624Y-46514D01*
X55478Y-50278D02*
X55478Y-50493D01*
X55464Y-50536D01*
X55435Y-50564D01*
X55392Y-50578D01*
X55364Y-50578D01*
X55621Y-50578D02*
X55621Y-50278D01*
X55736Y-50278D01*
X55764Y-50293D01*
X55779Y-50307D01*
X55793Y-50336D01*
X55793Y-50378D01*
X55779Y-50407D01*
X55764Y-50421D01*
X55736Y-50436D01*
X55621Y-50436D01*
X56050Y-50378D02*
X56050Y-50578D01*
X55979Y-50264D02*
X55907Y-50478D01*
X56093Y-50478D01*
G54D23*
X48951Y-49703D02*
X48951Y-49403D01*
X49023Y-49403D01*
X49066Y-49418D01*
X49094Y-49446D01*
X49109Y-49475D01*
X49123Y-49532D01*
X49123Y-49575D01*
X49109Y-49632D01*
X49094Y-49661D01*
X49066Y-49689D01*
X49023Y-49703D01*
X48951Y-49703D01*
X49380Y-49503D02*
X49380Y-49703D01*
X49309Y-49389D02*
X49237Y-49603D01*
X49423Y-49603D01*
X63932Y-34097D02*
X63932Y-33797D01*
X64004Y-33797D01*
X64047Y-33812D01*
X64075Y-33840D01*
X64090Y-33869D01*
X64104Y-33926D01*
X64104Y-33969D01*
X64090Y-34026D01*
X64075Y-34055D01*
X64047Y-34083D01*
X64004Y-34097D01*
X63932Y-34097D01*
X64204Y-33797D02*
X64390Y-33797D01*
X64290Y-33912D01*
X64332Y-33912D01*
X64361Y-33926D01*
X64375Y-33940D01*
X64390Y-33969D01*
X64390Y-34040D01*
X64375Y-34069D01*
X64361Y-34083D01*
X64332Y-34097D01*
X64247Y-34097D01*
X64218Y-34083D01*
X64204Y-34069D01*
X48971Y-43074D02*
X48971Y-42774D01*
X49043Y-42774D01*
X49086Y-42789D01*
X49114Y-42817D01*
X49129Y-42846D01*
X49143Y-42903D01*
X49143Y-42946D01*
X49129Y-43003D01*
X49114Y-43032D01*
X49086Y-43060D01*
X49043Y-43074D01*
X48971Y-43074D01*
X49257Y-42803D02*
X49271Y-42789D01*
X49300Y-42774D01*
X49371Y-42774D01*
X49400Y-42789D01*
X49414Y-42803D01*
X49429Y-42832D01*
X49429Y-42860D01*
X49414Y-42903D01*
X49243Y-43074D01*
X49429Y-43074D01*
M02*
