M48
;DRILL file {PCBnew (2011-07-20 BZR 3052)-testing} date Mon 29 Aug 2011 11:41:44 PM COT
;FORMAT={-:-/ absolute / inch / decimal}
FMAT,2
INCH,TZ
T1C0.008
T2C0.012
T3C0.016
T4C0.032
T5C0.035
T6C0.038
T7C0.040
T8C0.051
T9C0.052
T10C0.118
%
G90
G05
M72
T1
X4.860Y-4.408
X4.955Y-3.921
X4.983Y-3.924
X4.990Y-3.862
X4.998Y-3.946
X5.020Y-3.860
X5.024Y-3.833
X5.053Y-3.831
X5.056Y-4.033
X5.057Y-3.803
X5.085Y-3.797
X5.086Y-4.032
X5.116Y-4.026
X5.120Y-4.305
X5.122Y-3.807
X5.128Y-4.259
X5.138Y-3.697
X5.156Y-5.033
X5.163Y-3.684
X5.177Y-3.589
X5.205Y-4.287
X5.207Y-3.577
X5.209Y-3.824
X5.209Y-4.123
X5.211Y-3.852
X5.212Y-3.885
X5.216Y-4.418
X5.224Y-4.228
X5.228Y-3.598
X5.230Y-4.012
X5.232Y-3.482
X5.234Y-3.937
X5.273Y-4.418
X5.301Y-4.943
X5.305Y-4.070
X5.310Y-4.418
X5.313Y-3.482
X5.323Y-3.818
X5.339Y-4.409
X5.341Y-3.798
X5.360Y-3.675
X5.367Y-3.815
X5.369Y-4.338
X5.370Y-4.409
X5.378Y-4.613
X5.383Y-4.070
X5.394Y-3.811
X5.412Y-4.333
X5.420Y-3.665
X5.422Y-3.808
X5.435Y-3.785
X5.435Y-3.923
X5.436Y-3.644
X5.446Y-4.417
X5.456Y-4.256
X5.459Y-3.488
X5.462Y-3.714
X5.464Y-3.672
X5.476Y-4.334
X5.480Y-3.919
X5.509Y-3.918
X5.513Y-4.503
X5.520Y-5.163
X5.524Y-3.785
X5.530Y-3.480
X5.538Y-4.071
X5.539Y-3.918
X5.550Y-4.259
X5.556Y-3.715
X5.564Y-4.686
X5.575Y-4.335
X5.579Y-3.919
X5.586Y-4.427
X5.614Y-3.482
X5.632Y-3.646
X5.639Y-3.821
X5.644Y-3.903
X5.661Y-3.927
X5.679Y-4.071
X5.683Y-3.901
X5.684Y-4.449
X5.691Y-3.785
X5.711Y-4.305
X5.721Y-3.579
X5.722Y-3.713
X5.737Y-4.071
X5.765Y-5.186
X5.769Y-4.783
X5.777Y-4.321
X5.780Y-4.577
X5.814Y-4.842
X5.841Y-4.034
X5.843Y-3.436
X5.846Y-3.845
X5.856Y-3.811
X5.863Y-4.843
X5.886Y-4.863
X5.890Y-3.648
X5.918Y-4.829
X5.931Y-4.753
X5.933Y-3.965
X5.936Y-4.683
X5.947Y-4.792
X5.954Y-5.010
X5.965Y-4.315
X5.971Y-4.863
X5.972Y-3.986
X5.990Y-3.843
X5.998Y-5.081
X6.009Y-4.481
X6.022Y-4.987
X6.024Y-3.845
X6.028Y-5.080
X6.030Y-3.620
X6.036Y-4.728
X6.051Y-4.917
X6.069Y-3.728
X6.070Y-4.788
X6.096Y-4.553
X6.111Y-4.471
X6.124Y-4.981
X6.130Y-4.316
X6.154Y-4.522
X6.156Y-4.011
X6.195Y-3.921
X6.197Y-4.703
X6.198Y-4.525
X6.203Y-4.374
X6.206Y-4.751
X6.231Y-5.343
X6.236Y-3.937
X6.266Y-3.843
X6.286Y-3.813
X6.323Y-4.713
X6.371Y-4.566
X6.401Y-4.468
X6.411Y-4.233
X6.456Y-3.953
T2
X5.339Y-4.714
X5.339Y-4.804
X5.793Y-4.799
X5.932Y-4.599
X6.017Y-4.880
T3
X5.167Y-3.459
X5.459Y-3.569
X5.615Y-3.567
X5.730Y-3.468
X5.778Y-4.505
X6.030Y-3.763
X6.313Y-3.437
X6.335Y-4.505
X6.347Y-4.090
T4
X4.664Y-3.684
X6.564Y-3.684
T5
X5.694Y-5.130
X5.694Y-5.209
X5.694Y-5.288
X5.694Y-5.367
X6.050Y-5.131
X6.050Y-5.210
X6.050Y-5.289
X6.050Y-5.367
T6
X5.953Y-3.531
X6.268Y-3.531
T7
X4.664Y-3.784
X4.664Y-3.884
X4.664Y-3.984
X4.664Y-4.084
X4.664Y-4.184
X4.664Y-4.284
X4.664Y-4.384
X4.664Y-4.484
X4.664Y-4.584
X4.664Y-4.684
X4.664Y-4.784
X4.664Y-4.884
X4.664Y-4.984
X4.764Y-3.684
X4.764Y-3.784
X4.764Y-3.884
X4.764Y-3.984
X4.764Y-4.084
X4.764Y-4.184
X4.764Y-4.284
X4.764Y-4.384
X4.764Y-4.484
X4.764Y-4.584
X4.764Y-4.684
X4.764Y-4.784
X4.764Y-4.884
X4.764Y-4.984
X5.232Y-5.389
X5.409Y-5.389
X5.519Y-4.965
X5.619Y-4.765
X5.619Y-4.865
X5.619Y-4.965
X6.285Y-4.367
X6.285Y-4.467
X6.464Y-4.484
X6.464Y-4.584
X6.464Y-4.684
X6.464Y-4.784
X6.564Y-3.784
X6.564Y-3.884
X6.564Y-3.984
X6.564Y-4.084
X6.564Y-4.184
X6.564Y-4.284
X6.564Y-4.384
X6.564Y-4.484
X6.564Y-4.584
X6.564Y-4.684
X6.564Y-4.784
X6.564Y-4.884
X6.564Y-4.984
X6.564Y-5.084
X6.564Y-5.184
X6.664Y-3.684
X6.664Y-3.784
X6.664Y-3.884
X6.664Y-3.984
X6.664Y-4.084
X6.664Y-4.184
X6.664Y-4.284
X6.664Y-4.384
X6.664Y-4.484
X6.664Y-4.584
X6.664Y-4.684
X6.664Y-4.784
X6.664Y-4.884
X6.664Y-4.984
X6.664Y-5.084
X6.664Y-5.184
T8
X5.587Y-5.120
X5.587Y-5.395
X5.801Y-5.120
X5.801Y-5.395
X5.943Y-5.121
X5.943Y-5.396
X6.158Y-5.121
X6.158Y-5.396
T9
X5.182Y-5.291
X5.458Y-5.291
T10
X4.717Y-3.481
X6.617Y-3.481
X6.617Y-5.381
T7
X4.756Y-5.138G85X4.816Y-5.138
G05
X4.756Y-5.378G85X4.816Y-5.378
G05
X4.986Y-5.318G85X4.986Y-5.258
G05
T0
M30
