G04 (created by PCBNEW-RS274X (2011-05-31)-stable) date Wed 17 Aug 2011 11:49:47 AM COT*
G01*
G70*
G90*
%MOIN*%
G04 Gerber Fmt 3.4, Leading zero omitted, Abs format*
%FSLAX34Y34*%
G04 APERTURE LIST*
%ADD10C,0.006000*%
%ADD11C,0.004500*%
%ADD12C,0.003500*%
%ADD13C,0.007900*%
%ADD14C,0.000100*%
%ADD15C,0.008000*%
%ADD16C,0.005000*%
%ADD17C,0.015000*%
%ADD18C,0.001000*%
%ADD19C,0.012000*%
%ADD20C,0.002600*%
%ADD21C,0.004000*%
%ADD22C,0.004300*%
%ADD23C,0.004700*%
%ADD24C,0.005900*%
%ADD25C,0.010000*%
%ADD26C,0.003900*%
G04 APERTURE END LIST*
G54D10*
G54D11*
X59617Y-38833D02*
X59617Y-38553D01*
X59682Y-38553D01*
X59722Y-38567D01*
X59748Y-38593D01*
X59761Y-38620D01*
X59774Y-38673D01*
X59774Y-38713D01*
X59761Y-38767D01*
X59748Y-38793D01*
X59722Y-38820D01*
X59682Y-38833D01*
X59617Y-38833D01*
X59893Y-38687D02*
X59985Y-38687D01*
X60024Y-38833D02*
X59893Y-38833D01*
X59893Y-38553D01*
X60024Y-38553D01*
X60235Y-38687D02*
X60143Y-38687D01*
X60143Y-38833D02*
X60143Y-38553D01*
X60274Y-38553D01*
X60367Y-38753D02*
X60498Y-38753D01*
X60340Y-38833D02*
X60432Y-38553D01*
X60524Y-38833D01*
X60617Y-38553D02*
X60617Y-38780D01*
X60630Y-38807D01*
X60643Y-38820D01*
X60669Y-38833D01*
X60722Y-38833D01*
X60748Y-38820D01*
X60761Y-38807D01*
X60774Y-38780D01*
X60774Y-38553D01*
X61037Y-38833D02*
X60906Y-38833D01*
X60906Y-38553D01*
X61089Y-38553D02*
X61247Y-38553D01*
X61168Y-38833D02*
X61168Y-38553D01*
X61339Y-38807D02*
X61352Y-38820D01*
X61339Y-38833D01*
X61326Y-38820D01*
X61339Y-38807D01*
X61339Y-38833D01*
X61339Y-38660D02*
X61352Y-38673D01*
X61339Y-38687D01*
X61326Y-38673D01*
X61339Y-38660D01*
X61339Y-38687D01*
X61667Y-38820D02*
X61706Y-38833D01*
X61772Y-38833D01*
X61798Y-38820D01*
X61811Y-38807D01*
X61824Y-38780D01*
X61824Y-38753D01*
X61811Y-38727D01*
X61798Y-38713D01*
X61772Y-38700D01*
X61719Y-38687D01*
X61693Y-38673D01*
X61680Y-38660D01*
X61667Y-38633D01*
X61667Y-38607D01*
X61680Y-38580D01*
X61693Y-38567D01*
X61719Y-38553D01*
X61785Y-38553D01*
X61824Y-38567D01*
X61943Y-38833D02*
X61943Y-38553D01*
X62008Y-38553D01*
X62048Y-38567D01*
X62074Y-38593D01*
X62087Y-38620D01*
X62100Y-38673D01*
X62100Y-38713D01*
X62087Y-38767D01*
X62074Y-38793D01*
X62048Y-38820D01*
X62008Y-38833D01*
X61943Y-38833D01*
X62416Y-38540D02*
X62179Y-38900D01*
X62508Y-38833D02*
X62508Y-38553D01*
X62600Y-38753D01*
X62692Y-38553D01*
X62692Y-38833D01*
X62823Y-38833D02*
X62823Y-38553D01*
X62915Y-38753D01*
X63007Y-38553D01*
X63007Y-38833D01*
X63295Y-38807D02*
X63282Y-38820D01*
X63243Y-38833D01*
X63217Y-38833D01*
X63177Y-38820D01*
X63151Y-38793D01*
X63138Y-38767D01*
X63125Y-38713D01*
X63125Y-38673D01*
X63138Y-38620D01*
X63151Y-38593D01*
X63177Y-38567D01*
X63217Y-38553D01*
X63243Y-38553D01*
X63282Y-38567D01*
X63295Y-38580D01*
X63611Y-38820D02*
X63650Y-38833D01*
X63716Y-38833D01*
X63742Y-38820D01*
X63755Y-38807D01*
X63768Y-38780D01*
X63768Y-38753D01*
X63755Y-38727D01*
X63742Y-38713D01*
X63716Y-38700D01*
X63663Y-38687D01*
X63637Y-38673D01*
X63624Y-38660D01*
X63611Y-38633D01*
X63611Y-38607D01*
X63624Y-38580D01*
X63637Y-38567D01*
X63663Y-38553D01*
X63729Y-38553D01*
X63768Y-38567D01*
X63874Y-38820D02*
X63913Y-38833D01*
X63979Y-38833D01*
X64005Y-38820D01*
X64018Y-38807D01*
X64031Y-38780D01*
X64031Y-38753D01*
X64018Y-38727D01*
X64005Y-38713D01*
X63979Y-38700D01*
X63926Y-38687D01*
X63900Y-38673D01*
X63887Y-38660D01*
X63874Y-38633D01*
X63874Y-38607D01*
X63887Y-38580D01*
X63900Y-38567D01*
X63926Y-38553D01*
X63992Y-38553D01*
X64031Y-38567D01*
X64150Y-38833D02*
X64150Y-38553D01*
X64255Y-38553D01*
X64281Y-38567D01*
X64294Y-38580D01*
X64307Y-38607D01*
X64307Y-38647D01*
X64294Y-38673D01*
X64281Y-38687D01*
X64255Y-38700D01*
X64150Y-38700D01*
X64413Y-38580D02*
X64426Y-38567D01*
X64452Y-38553D01*
X64518Y-38553D01*
X64544Y-38567D01*
X64557Y-38580D01*
X64570Y-38607D01*
X64570Y-38633D01*
X64557Y-38673D01*
X64399Y-38833D01*
X64570Y-38833D01*
X59570Y-40022D02*
X59570Y-40222D01*
X59556Y-40262D01*
X59530Y-40289D01*
X59491Y-40302D01*
X59464Y-40302D01*
X59701Y-40302D02*
X59701Y-40022D01*
X59806Y-40022D01*
X59832Y-40036D01*
X59845Y-40049D01*
X59858Y-40076D01*
X59858Y-40116D01*
X59845Y-40142D01*
X59832Y-40156D01*
X59806Y-40169D01*
X59701Y-40169D01*
X59964Y-40049D02*
X59977Y-40036D01*
X60003Y-40022D01*
X60069Y-40022D01*
X60095Y-40036D01*
X60108Y-40049D01*
X60121Y-40076D01*
X60121Y-40102D01*
X60108Y-40142D01*
X59950Y-40302D01*
X60121Y-40302D01*
X60240Y-40196D02*
X60450Y-40196D01*
X60661Y-40022D02*
X60661Y-40222D01*
X60647Y-40262D01*
X60621Y-40289D01*
X60582Y-40302D01*
X60555Y-40302D01*
X60792Y-40302D02*
X60792Y-40022D01*
X60897Y-40022D01*
X60923Y-40036D01*
X60936Y-40049D01*
X60949Y-40076D01*
X60949Y-40116D01*
X60936Y-40142D01*
X60923Y-40156D01*
X60897Y-40169D01*
X60792Y-40169D01*
X61041Y-40022D02*
X61212Y-40022D01*
X61120Y-40129D01*
X61160Y-40129D01*
X61186Y-40142D01*
X61199Y-40156D01*
X61212Y-40182D01*
X61212Y-40249D01*
X61199Y-40276D01*
X61186Y-40289D01*
X61160Y-40302D01*
X61081Y-40302D01*
X61055Y-40289D01*
X61041Y-40276D01*
X61331Y-40276D02*
X61344Y-40289D01*
X61331Y-40302D01*
X61318Y-40289D01*
X61331Y-40276D01*
X61331Y-40302D01*
X61331Y-40129D02*
X61344Y-40142D01*
X61331Y-40156D01*
X61318Y-40142D01*
X61331Y-40129D01*
X61331Y-40156D01*
X61672Y-40022D02*
X61672Y-40249D01*
X61685Y-40276D01*
X61698Y-40289D01*
X61724Y-40302D01*
X61777Y-40302D01*
X61803Y-40289D01*
X61816Y-40276D01*
X61829Y-40249D01*
X61829Y-40022D01*
X61948Y-40289D02*
X61987Y-40302D01*
X62053Y-40302D01*
X62079Y-40289D01*
X62092Y-40276D01*
X62105Y-40249D01*
X62105Y-40222D01*
X62092Y-40196D01*
X62079Y-40182D01*
X62053Y-40169D01*
X62000Y-40156D01*
X61974Y-40142D01*
X61961Y-40129D01*
X61948Y-40102D01*
X61948Y-40076D01*
X61961Y-40049D01*
X61974Y-40036D01*
X62000Y-40022D01*
X62066Y-40022D01*
X62105Y-40036D01*
X62316Y-40156D02*
X62355Y-40169D01*
X62368Y-40182D01*
X62381Y-40209D01*
X62381Y-40249D01*
X62368Y-40276D01*
X62355Y-40289D01*
X62329Y-40302D01*
X62224Y-40302D01*
X62224Y-40022D01*
X62316Y-40022D01*
X62342Y-40036D01*
X62355Y-40049D01*
X62368Y-40076D01*
X62368Y-40102D01*
X62355Y-40129D01*
X62342Y-40142D01*
X62316Y-40156D01*
X62224Y-40156D01*
X59566Y-39656D02*
X59566Y-39856D01*
X59552Y-39896D01*
X59526Y-39923D01*
X59487Y-39936D01*
X59460Y-39936D01*
X59697Y-39936D02*
X59697Y-39656D01*
X59802Y-39656D01*
X59828Y-39670D01*
X59841Y-39683D01*
X59854Y-39710D01*
X59854Y-39750D01*
X59841Y-39776D01*
X59828Y-39790D01*
X59802Y-39803D01*
X59697Y-39803D01*
X60117Y-39936D02*
X59960Y-39936D01*
X60038Y-39936D02*
X60038Y-39656D01*
X60012Y-39696D01*
X59986Y-39723D01*
X59960Y-39736D01*
X60236Y-39830D02*
X60446Y-39830D01*
X60657Y-39656D02*
X60657Y-39856D01*
X60643Y-39896D01*
X60617Y-39923D01*
X60578Y-39936D01*
X60551Y-39936D01*
X60788Y-39936D02*
X60788Y-39656D01*
X60893Y-39656D01*
X60919Y-39670D01*
X60932Y-39683D01*
X60945Y-39710D01*
X60945Y-39750D01*
X60932Y-39776D01*
X60919Y-39790D01*
X60893Y-39803D01*
X60788Y-39803D01*
X61051Y-39683D02*
X61064Y-39670D01*
X61090Y-39656D01*
X61156Y-39656D01*
X61182Y-39670D01*
X61195Y-39683D01*
X61208Y-39710D01*
X61208Y-39736D01*
X61195Y-39776D01*
X61037Y-39936D01*
X61208Y-39936D01*
X61327Y-39910D02*
X61340Y-39923D01*
X61327Y-39936D01*
X61314Y-39923D01*
X61327Y-39910D01*
X61327Y-39936D01*
X61327Y-39763D02*
X61340Y-39776D01*
X61327Y-39790D01*
X61314Y-39776D01*
X61327Y-39763D01*
X61327Y-39790D01*
X61655Y-39923D02*
X61694Y-39936D01*
X61760Y-39936D01*
X61786Y-39923D01*
X61799Y-39910D01*
X61812Y-39883D01*
X61812Y-39856D01*
X61799Y-39830D01*
X61786Y-39816D01*
X61760Y-39803D01*
X61707Y-39790D01*
X61681Y-39776D01*
X61668Y-39763D01*
X61655Y-39736D01*
X61655Y-39710D01*
X61668Y-39683D01*
X61681Y-39670D01*
X61707Y-39656D01*
X61773Y-39656D01*
X61812Y-39670D01*
X61931Y-39936D02*
X61931Y-39656D01*
X61996Y-39656D01*
X62036Y-39670D01*
X62062Y-39696D01*
X62075Y-39723D01*
X62088Y-39776D01*
X62088Y-39816D01*
X62075Y-39870D01*
X62062Y-39896D01*
X62036Y-39923D01*
X61996Y-39936D01*
X61931Y-39936D01*
X62404Y-39643D02*
X62167Y-40003D01*
X62496Y-39936D02*
X62496Y-39656D01*
X62588Y-39856D01*
X62680Y-39656D01*
X62680Y-39936D01*
X62811Y-39936D02*
X62811Y-39656D01*
X62903Y-39856D01*
X62995Y-39656D01*
X62995Y-39936D01*
X63283Y-39910D02*
X63270Y-39923D01*
X63231Y-39936D01*
X63205Y-39936D01*
X63165Y-39923D01*
X63139Y-39896D01*
X63126Y-39870D01*
X63113Y-39816D01*
X63113Y-39776D01*
X63126Y-39723D01*
X63139Y-39696D01*
X63165Y-39670D01*
X63205Y-39656D01*
X63231Y-39656D01*
X63270Y-39670D01*
X63283Y-39683D01*
X63599Y-39923D02*
X63638Y-39936D01*
X63704Y-39936D01*
X63730Y-39923D01*
X63743Y-39910D01*
X63756Y-39883D01*
X63756Y-39856D01*
X63743Y-39830D01*
X63730Y-39816D01*
X63704Y-39803D01*
X63651Y-39790D01*
X63625Y-39776D01*
X63612Y-39763D01*
X63599Y-39736D01*
X63599Y-39710D01*
X63612Y-39683D01*
X63625Y-39670D01*
X63651Y-39656D01*
X63717Y-39656D01*
X63756Y-39670D01*
X63862Y-39923D02*
X63901Y-39936D01*
X63967Y-39936D01*
X63993Y-39923D01*
X64006Y-39910D01*
X64019Y-39883D01*
X64019Y-39856D01*
X64006Y-39830D01*
X63993Y-39816D01*
X63967Y-39803D01*
X63914Y-39790D01*
X63888Y-39776D01*
X63875Y-39763D01*
X63862Y-39736D01*
X63862Y-39710D01*
X63875Y-39683D01*
X63888Y-39670D01*
X63914Y-39656D01*
X63980Y-39656D01*
X64019Y-39670D01*
X64138Y-39936D02*
X64138Y-39656D01*
X64243Y-39656D01*
X64269Y-39670D01*
X64282Y-39683D01*
X64295Y-39710D01*
X64295Y-39750D01*
X64282Y-39776D01*
X64269Y-39790D01*
X64243Y-39803D01*
X64138Y-39803D01*
X64558Y-39936D02*
X64401Y-39936D01*
X64479Y-39936D02*
X64479Y-39656D01*
X64453Y-39696D01*
X64427Y-39723D01*
X64401Y-39736D01*
X59826Y-39305D02*
X59826Y-39505D01*
X59812Y-39545D01*
X59786Y-39572D01*
X59747Y-39585D01*
X59720Y-39585D01*
X59957Y-39585D02*
X59957Y-39305D01*
X60062Y-39305D01*
X60088Y-39319D01*
X60101Y-39332D01*
X60114Y-39359D01*
X60114Y-39399D01*
X60101Y-39425D01*
X60088Y-39439D01*
X60062Y-39452D01*
X59957Y-39452D01*
X60206Y-39305D02*
X60377Y-39305D01*
X60285Y-39412D01*
X60325Y-39412D01*
X60351Y-39425D01*
X60364Y-39439D01*
X60377Y-39465D01*
X60377Y-39532D01*
X60364Y-39559D01*
X60351Y-39572D01*
X60325Y-39585D01*
X60246Y-39585D01*
X60220Y-39572D01*
X60206Y-39559D01*
X61336Y-39559D02*
X61349Y-39572D01*
X61336Y-39585D01*
X61323Y-39572D01*
X61336Y-39559D01*
X61336Y-39585D01*
X61336Y-39412D02*
X61349Y-39425D01*
X61336Y-39439D01*
X61323Y-39425D01*
X61336Y-39412D01*
X61336Y-39439D01*
X61664Y-39572D02*
X61703Y-39585D01*
X61769Y-39585D01*
X61795Y-39572D01*
X61808Y-39559D01*
X61821Y-39532D01*
X61821Y-39505D01*
X61808Y-39479D01*
X61795Y-39465D01*
X61769Y-39452D01*
X61716Y-39439D01*
X61690Y-39425D01*
X61677Y-39412D01*
X61664Y-39385D01*
X61664Y-39359D01*
X61677Y-39332D01*
X61690Y-39319D01*
X61716Y-39305D01*
X61782Y-39305D01*
X61821Y-39319D01*
X61940Y-39585D02*
X61940Y-39305D01*
X62045Y-39305D01*
X62071Y-39319D01*
X62084Y-39332D01*
X62097Y-39359D01*
X62097Y-39399D01*
X62084Y-39425D01*
X62071Y-39439D01*
X62045Y-39452D01*
X61940Y-39452D01*
X62216Y-39585D02*
X62216Y-39305D01*
X62649Y-39439D02*
X62557Y-39439D01*
X62557Y-39585D02*
X62557Y-39305D01*
X62688Y-39305D01*
X62833Y-39585D02*
X62807Y-39572D01*
X62794Y-39545D01*
X62794Y-39305D01*
X63057Y-39585D02*
X63057Y-39439D01*
X63044Y-39412D01*
X63018Y-39399D01*
X62965Y-39399D01*
X62939Y-39412D01*
X63057Y-39572D02*
X63031Y-39585D01*
X62965Y-39585D01*
X62939Y-39572D01*
X62926Y-39545D01*
X62926Y-39519D01*
X62939Y-39492D01*
X62965Y-39479D01*
X63031Y-39479D01*
X63057Y-39465D01*
X63176Y-39572D02*
X63202Y-39585D01*
X63254Y-39585D01*
X63281Y-39572D01*
X63294Y-39545D01*
X63294Y-39532D01*
X63281Y-39505D01*
X63254Y-39492D01*
X63215Y-39492D01*
X63189Y-39479D01*
X63176Y-39452D01*
X63176Y-39439D01*
X63189Y-39412D01*
X63215Y-39399D01*
X63254Y-39399D01*
X63281Y-39412D01*
X63412Y-39585D02*
X63412Y-39305D01*
X63530Y-39585D02*
X63530Y-39439D01*
X63517Y-39412D01*
X63491Y-39399D01*
X63451Y-39399D01*
X63425Y-39412D01*
X63412Y-39425D01*
X63859Y-39572D02*
X63898Y-39585D01*
X63964Y-39585D01*
X63990Y-39572D01*
X64003Y-39559D01*
X64016Y-39532D01*
X64016Y-39505D01*
X64003Y-39479D01*
X63990Y-39465D01*
X63964Y-39452D01*
X63911Y-39439D01*
X63885Y-39425D01*
X63872Y-39412D01*
X63859Y-39385D01*
X63859Y-39359D01*
X63872Y-39332D01*
X63885Y-39319D01*
X63911Y-39305D01*
X63977Y-39305D01*
X64016Y-39319D01*
X64122Y-39572D02*
X64161Y-39585D01*
X64227Y-39585D01*
X64253Y-39572D01*
X64266Y-39559D01*
X64279Y-39532D01*
X64279Y-39505D01*
X64266Y-39479D01*
X64253Y-39465D01*
X64227Y-39452D01*
X64174Y-39439D01*
X64148Y-39425D01*
X64135Y-39412D01*
X64122Y-39385D01*
X64122Y-39359D01*
X64135Y-39332D01*
X64148Y-39319D01*
X64174Y-39305D01*
X64240Y-39305D01*
X64279Y-39319D01*
X64398Y-39585D02*
X64398Y-39305D01*
X64503Y-39305D01*
X64529Y-39319D01*
X64542Y-39332D01*
X64555Y-39359D01*
X64555Y-39399D01*
X64542Y-39425D01*
X64529Y-39439D01*
X64503Y-39452D01*
X64398Y-39452D01*
X64818Y-39585D02*
X64661Y-39585D01*
X64739Y-39585D02*
X64739Y-39305D01*
X64713Y-39345D01*
X64687Y-39372D01*
X64661Y-39385D01*
X58696Y-38943D02*
X58696Y-39143D01*
X58682Y-39183D01*
X58656Y-39210D01*
X58617Y-39223D01*
X58590Y-39223D01*
X58827Y-39223D02*
X58827Y-38943D01*
X58932Y-38943D01*
X58958Y-38957D01*
X58971Y-38970D01*
X58984Y-38997D01*
X58984Y-39037D01*
X58971Y-39063D01*
X58958Y-39077D01*
X58932Y-39090D01*
X58827Y-39090D01*
X59247Y-39223D02*
X59090Y-39223D01*
X59168Y-39223D02*
X59168Y-38943D01*
X59142Y-38983D01*
X59116Y-39010D01*
X59090Y-39023D01*
X59366Y-39117D02*
X59576Y-39117D01*
X59787Y-38943D02*
X59787Y-39143D01*
X59773Y-39183D01*
X59747Y-39210D01*
X59708Y-39223D01*
X59681Y-39223D01*
X59918Y-39223D02*
X59918Y-38943D01*
X60023Y-38943D01*
X60049Y-38957D01*
X60062Y-38970D01*
X60075Y-38997D01*
X60075Y-39037D01*
X60062Y-39063D01*
X60049Y-39077D01*
X60023Y-39090D01*
X59918Y-39090D01*
X60167Y-38943D02*
X60338Y-38943D01*
X60246Y-39050D01*
X60286Y-39050D01*
X60312Y-39063D01*
X60325Y-39077D01*
X60338Y-39103D01*
X60338Y-39170D01*
X60325Y-39197D01*
X60312Y-39210D01*
X60286Y-39223D01*
X60207Y-39223D01*
X60181Y-39210D01*
X60167Y-39197D01*
X60654Y-39210D02*
X60693Y-39223D01*
X60759Y-39223D01*
X60785Y-39210D01*
X60798Y-39197D01*
X60811Y-39170D01*
X60811Y-39143D01*
X60798Y-39117D01*
X60785Y-39103D01*
X60759Y-39090D01*
X60706Y-39077D01*
X60680Y-39063D01*
X60667Y-39050D01*
X60654Y-39023D01*
X60654Y-38997D01*
X60667Y-38970D01*
X60680Y-38957D01*
X60706Y-38943D01*
X60772Y-38943D01*
X60811Y-38957D01*
X60930Y-39223D02*
X60930Y-38943D01*
X61035Y-38943D01*
X61061Y-38957D01*
X61074Y-38970D01*
X61087Y-38997D01*
X61087Y-39037D01*
X61074Y-39063D01*
X61061Y-39077D01*
X61035Y-39090D01*
X60930Y-39090D01*
X61206Y-39223D02*
X61206Y-38943D01*
X61337Y-39197D02*
X61350Y-39210D01*
X61337Y-39223D01*
X61324Y-39210D01*
X61337Y-39197D01*
X61337Y-39223D01*
X61337Y-39050D02*
X61350Y-39063D01*
X61337Y-39077D01*
X61324Y-39063D01*
X61337Y-39050D01*
X61337Y-39077D01*
X61638Y-39037D02*
X61743Y-39037D01*
X61678Y-39223D02*
X61678Y-38983D01*
X61691Y-38957D01*
X61717Y-38943D01*
X61743Y-38943D01*
X61875Y-39223D02*
X61849Y-39210D01*
X61836Y-39183D01*
X61836Y-38943D01*
X62099Y-39223D02*
X62099Y-39077D01*
X62086Y-39050D01*
X62060Y-39037D01*
X62007Y-39037D01*
X61981Y-39050D01*
X62099Y-39210D02*
X62073Y-39223D01*
X62007Y-39223D01*
X61981Y-39210D01*
X61968Y-39183D01*
X61968Y-39157D01*
X61981Y-39130D01*
X62007Y-39117D01*
X62073Y-39117D01*
X62099Y-39103D01*
X62218Y-39210D02*
X62244Y-39223D01*
X62296Y-39223D01*
X62323Y-39210D01*
X62336Y-39183D01*
X62336Y-39170D01*
X62323Y-39143D01*
X62296Y-39130D01*
X62257Y-39130D01*
X62231Y-39117D01*
X62218Y-39090D01*
X62218Y-39077D01*
X62231Y-39050D01*
X62257Y-39037D01*
X62296Y-39037D01*
X62323Y-39050D01*
X62454Y-39223D02*
X62454Y-38943D01*
X62572Y-39223D02*
X62572Y-39077D01*
X62559Y-39050D01*
X62533Y-39037D01*
X62493Y-39037D01*
X62467Y-39050D01*
X62454Y-39063D01*
X62901Y-39210D02*
X62940Y-39223D01*
X63006Y-39223D01*
X63032Y-39210D01*
X63045Y-39197D01*
X63058Y-39170D01*
X63058Y-39143D01*
X63045Y-39117D01*
X63032Y-39103D01*
X63006Y-39090D01*
X62953Y-39077D01*
X62927Y-39063D01*
X62914Y-39050D01*
X62901Y-39023D01*
X62901Y-38997D01*
X62914Y-38970D01*
X62927Y-38957D01*
X62953Y-38943D01*
X63019Y-38943D01*
X63058Y-38957D01*
X63164Y-39210D02*
X63203Y-39223D01*
X63269Y-39223D01*
X63295Y-39210D01*
X63308Y-39197D01*
X63321Y-39170D01*
X63321Y-39143D01*
X63308Y-39117D01*
X63295Y-39103D01*
X63269Y-39090D01*
X63216Y-39077D01*
X63190Y-39063D01*
X63177Y-39050D01*
X63164Y-39023D01*
X63164Y-38997D01*
X63177Y-38970D01*
X63190Y-38957D01*
X63216Y-38943D01*
X63282Y-38943D01*
X63321Y-38957D01*
X63440Y-39223D02*
X63440Y-38943D01*
X63545Y-38943D01*
X63571Y-38957D01*
X63584Y-38970D01*
X63597Y-38997D01*
X63597Y-39037D01*
X63584Y-39063D01*
X63571Y-39077D01*
X63545Y-39090D01*
X63440Y-39090D01*
X63703Y-38970D02*
X63716Y-38957D01*
X63742Y-38943D01*
X63808Y-38943D01*
X63834Y-38957D01*
X63847Y-38970D01*
X63860Y-38997D01*
X63860Y-39023D01*
X63847Y-39063D01*
X63689Y-39223D01*
X63860Y-39223D01*
X64376Y-46563D02*
X64513Y-46563D01*
X64444Y-46669D02*
X64444Y-46456D01*
X49255Y-46070D02*
X49392Y-46070D01*
X49323Y-46176D02*
X49323Y-45963D01*
X52863Y-52152D02*
X52771Y-52019D01*
X52706Y-52152D02*
X52706Y-51872D01*
X52811Y-51872D01*
X52837Y-51886D01*
X52850Y-51899D01*
X52863Y-51926D01*
X52863Y-51966D01*
X52850Y-51992D01*
X52837Y-52006D01*
X52811Y-52019D01*
X52706Y-52019D01*
X52982Y-52006D02*
X53074Y-52006D01*
X53113Y-52152D02*
X52982Y-52152D01*
X52982Y-51872D01*
X53113Y-51872D01*
X53219Y-52139D02*
X53258Y-52152D01*
X53324Y-52152D01*
X53350Y-52139D01*
X53363Y-52126D01*
X53376Y-52099D01*
X53376Y-52072D01*
X53363Y-52046D01*
X53350Y-52032D01*
X53324Y-52019D01*
X53271Y-52006D01*
X53245Y-51992D01*
X53232Y-51979D01*
X53219Y-51952D01*
X53219Y-51926D01*
X53232Y-51899D01*
X53245Y-51886D01*
X53271Y-51872D01*
X53337Y-51872D01*
X53376Y-51886D01*
X53495Y-52006D02*
X53587Y-52006D01*
X53626Y-52152D02*
X53495Y-52152D01*
X53495Y-51872D01*
X53626Y-51872D01*
X53705Y-51872D02*
X53863Y-51872D01*
X53784Y-52152D02*
X53784Y-51872D01*
X67550Y-50287D02*
X67270Y-50287D01*
X67270Y-50222D01*
X67284Y-50182D01*
X67310Y-50156D01*
X67337Y-50143D01*
X67390Y-50130D01*
X67430Y-50130D01*
X67484Y-50143D01*
X67510Y-50156D01*
X67537Y-50182D01*
X67550Y-50222D01*
X67550Y-50287D01*
X67270Y-50038D02*
X67270Y-49867D01*
X67377Y-49959D01*
X67377Y-49919D01*
X67390Y-49893D01*
X67404Y-49880D01*
X67430Y-49867D01*
X67497Y-49867D01*
X67524Y-49880D01*
X67537Y-49893D01*
X67550Y-49919D01*
X67550Y-49998D01*
X67537Y-50024D01*
X67524Y-50038D01*
X67444Y-49748D02*
X67444Y-49538D01*
X67550Y-49643D02*
X67337Y-49643D01*
X64315Y-50046D02*
X64315Y-49766D01*
X64380Y-49766D01*
X64420Y-49780D01*
X64446Y-49806D01*
X64459Y-49833D01*
X64472Y-49886D01*
X64472Y-49926D01*
X64459Y-49980D01*
X64446Y-50006D01*
X64420Y-50033D01*
X64380Y-50046D01*
X64315Y-50046D01*
X64564Y-49766D02*
X64735Y-49766D01*
X64643Y-49873D01*
X64683Y-49873D01*
X64709Y-49886D01*
X64722Y-49900D01*
X64735Y-49926D01*
X64735Y-49993D01*
X64722Y-50020D01*
X64709Y-50033D01*
X64683Y-50046D01*
X64604Y-50046D01*
X64578Y-50033D01*
X64564Y-50020D01*
X64854Y-49940D02*
X65064Y-49940D01*
X67304Y-52104D02*
X67290Y-52130D01*
X67290Y-52169D01*
X67304Y-52209D01*
X67330Y-52235D01*
X67357Y-52248D01*
X67410Y-52261D01*
X67450Y-52261D01*
X67504Y-52248D01*
X67530Y-52235D01*
X67557Y-52209D01*
X67570Y-52169D01*
X67570Y-52143D01*
X67557Y-52104D01*
X67544Y-52091D01*
X67450Y-52091D01*
X67450Y-52143D01*
X67570Y-51972D02*
X67290Y-51972D01*
X67570Y-51815D01*
X67290Y-51815D01*
X67570Y-51683D02*
X67290Y-51683D01*
X67290Y-51618D01*
X67304Y-51578D01*
X67330Y-51552D01*
X67357Y-51539D01*
X67410Y-51526D01*
X67450Y-51526D01*
X67504Y-51539D01*
X67530Y-51552D01*
X67557Y-51578D01*
X67570Y-51618D01*
X67570Y-51683D01*
X64715Y-51805D02*
X64584Y-51805D01*
X64571Y-51939D01*
X64584Y-51925D01*
X64610Y-51912D01*
X64676Y-51912D01*
X64702Y-51925D01*
X64715Y-51939D01*
X64728Y-51965D01*
X64728Y-52032D01*
X64715Y-52059D01*
X64702Y-52072D01*
X64676Y-52085D01*
X64610Y-52085D01*
X64584Y-52072D01*
X64571Y-52059D01*
X64807Y-51805D02*
X64899Y-52085D01*
X64991Y-51805D01*
X67343Y-47738D02*
X67352Y-47725D01*
X67369Y-47711D01*
X67412Y-47711D01*
X67429Y-47725D01*
X67438Y-47738D01*
X67446Y-47765D01*
X67446Y-47791D01*
X67438Y-47831D01*
X67335Y-47991D01*
X67446Y-47991D01*
X67600Y-47805D02*
X67600Y-47991D01*
X67557Y-47698D02*
X67514Y-47898D01*
X67626Y-47898D01*
X64784Y-48423D02*
X64793Y-48410D01*
X64810Y-48396D01*
X64853Y-48396D01*
X64870Y-48410D01*
X64879Y-48423D01*
X64887Y-48450D01*
X64887Y-48476D01*
X64879Y-48516D01*
X64776Y-48676D01*
X64887Y-48676D01*
X64947Y-48396D02*
X65058Y-48396D01*
X64998Y-48503D01*
X65024Y-48503D01*
X65041Y-48516D01*
X65050Y-48530D01*
X65058Y-48556D01*
X65058Y-48623D01*
X65050Y-48650D01*
X65041Y-48663D01*
X65024Y-48676D01*
X64972Y-48676D01*
X64955Y-48663D01*
X64947Y-48650D01*
X67312Y-36600D02*
X67325Y-36587D01*
X67351Y-36573D01*
X67417Y-36573D01*
X67443Y-36587D01*
X67456Y-36600D01*
X67469Y-36627D01*
X67469Y-36653D01*
X67456Y-36693D01*
X67298Y-36853D01*
X67469Y-36853D01*
X65036Y-36889D02*
X64879Y-36889D01*
X64957Y-36889D02*
X64957Y-36609D01*
X64931Y-36649D01*
X64905Y-36676D01*
X64879Y-36689D01*
X48394Y-47663D02*
X48403Y-47650D01*
X48420Y-47636D01*
X48463Y-47636D01*
X48480Y-47650D01*
X48489Y-47663D01*
X48497Y-47690D01*
X48497Y-47716D01*
X48489Y-47756D01*
X48386Y-47916D01*
X48497Y-47916D01*
X48651Y-47730D02*
X48651Y-47916D01*
X48608Y-47623D02*
X48565Y-47823D01*
X48677Y-47823D01*
X45765Y-47663D02*
X45774Y-47650D01*
X45791Y-47636D01*
X45834Y-47636D01*
X45851Y-47650D01*
X45860Y-47663D01*
X45868Y-47690D01*
X45868Y-47716D01*
X45860Y-47756D01*
X45757Y-47916D01*
X45868Y-47916D01*
X45928Y-47636D02*
X46039Y-47636D01*
X45979Y-47743D01*
X46005Y-47743D01*
X46022Y-47756D01*
X46031Y-47770D01*
X46039Y-47796D01*
X46039Y-47863D01*
X46031Y-47890D01*
X46022Y-47903D01*
X46005Y-47916D01*
X45953Y-47916D01*
X45936Y-47903D01*
X45928Y-47890D01*
G54D12*
X48469Y-36665D02*
X48483Y-36651D01*
X48512Y-36636D01*
X48583Y-36636D01*
X48612Y-36651D01*
X48626Y-36665D01*
X48641Y-36694D01*
X48641Y-36722D01*
X48626Y-36765D01*
X48455Y-36936D01*
X48641Y-36936D01*
X45984Y-36901D02*
X45812Y-36901D01*
X45898Y-36901D02*
X45898Y-36601D01*
X45869Y-36644D01*
X45841Y-36673D01*
X45812Y-36687D01*
G54D11*
X60287Y-38207D02*
X60326Y-38220D01*
X60339Y-38233D01*
X60352Y-38260D01*
X60352Y-38300D01*
X60339Y-38327D01*
X60326Y-38340D01*
X60300Y-38353D01*
X60195Y-38353D01*
X60195Y-38073D01*
X60287Y-38073D01*
X60313Y-38087D01*
X60326Y-38100D01*
X60339Y-38127D01*
X60339Y-38153D01*
X60326Y-38180D01*
X60313Y-38193D01*
X60287Y-38207D01*
X60195Y-38207D01*
X60523Y-38073D02*
X60576Y-38073D01*
X60602Y-38087D01*
X60628Y-38113D01*
X60642Y-38167D01*
X60642Y-38260D01*
X60628Y-38313D01*
X60602Y-38340D01*
X60576Y-38353D01*
X60523Y-38353D01*
X60497Y-38340D01*
X60471Y-38313D01*
X60458Y-38260D01*
X60458Y-38167D01*
X60471Y-38113D01*
X60497Y-38087D01*
X60523Y-38073D01*
X60812Y-38073D02*
X60865Y-38073D01*
X60891Y-38087D01*
X60917Y-38113D01*
X60931Y-38167D01*
X60931Y-38260D01*
X60917Y-38313D01*
X60891Y-38340D01*
X60865Y-38353D01*
X60812Y-38353D01*
X60786Y-38340D01*
X60760Y-38313D01*
X60747Y-38260D01*
X60747Y-38167D01*
X60760Y-38113D01*
X60786Y-38087D01*
X60812Y-38073D01*
X61009Y-38073D02*
X61167Y-38073D01*
X61088Y-38353D02*
X61088Y-38073D01*
X61469Y-38353D02*
X61469Y-38073D01*
X61561Y-38273D01*
X61653Y-38073D01*
X61653Y-38353D01*
X61836Y-38073D02*
X61889Y-38073D01*
X61915Y-38087D01*
X61941Y-38113D01*
X61955Y-38167D01*
X61955Y-38260D01*
X61941Y-38313D01*
X61915Y-38340D01*
X61889Y-38353D01*
X61836Y-38353D01*
X61810Y-38340D01*
X61784Y-38313D01*
X61771Y-38260D01*
X61771Y-38167D01*
X61784Y-38113D01*
X61810Y-38087D01*
X61836Y-38073D01*
X62073Y-38353D02*
X62073Y-38073D01*
X62138Y-38073D01*
X62178Y-38087D01*
X62204Y-38113D01*
X62217Y-38140D01*
X62230Y-38193D01*
X62230Y-38233D01*
X62217Y-38287D01*
X62204Y-38313D01*
X62178Y-38340D01*
X62138Y-38353D01*
X62073Y-38353D01*
X62349Y-38207D02*
X62441Y-38207D01*
X62480Y-38353D02*
X62349Y-38353D01*
X62349Y-38073D01*
X62480Y-38073D01*
X62586Y-38340D02*
X62625Y-38353D01*
X62691Y-38353D01*
X62717Y-38340D01*
X62730Y-38327D01*
X62743Y-38300D01*
X62743Y-38273D01*
X62730Y-38247D01*
X62717Y-38233D01*
X62691Y-38220D01*
X62638Y-38207D01*
X62612Y-38193D01*
X62599Y-38180D01*
X62586Y-38153D01*
X62586Y-38127D01*
X62599Y-38100D01*
X62612Y-38087D01*
X62638Y-38073D01*
X62704Y-38073D01*
X62743Y-38087D01*
X62862Y-38327D02*
X62875Y-38340D01*
X62862Y-38353D01*
X62849Y-38340D01*
X62862Y-38327D01*
X62862Y-38353D01*
X62862Y-38180D02*
X62875Y-38193D01*
X62862Y-38207D01*
X62849Y-38193D01*
X62862Y-38180D01*
X62862Y-38207D01*
X50719Y-48585D02*
X50779Y-48865D01*
X50839Y-48585D01*
X50899Y-48865D02*
X50899Y-48585D01*
X50942Y-48585D01*
X50967Y-48599D01*
X50985Y-48625D01*
X50993Y-48652D01*
X51002Y-48705D01*
X51002Y-48745D01*
X50993Y-48799D01*
X50985Y-48825D01*
X50967Y-48852D01*
X50942Y-48865D01*
X50899Y-48865D01*
X51079Y-48865D02*
X51079Y-48585D01*
X51122Y-48585D01*
X51147Y-48599D01*
X51165Y-48625D01*
X51173Y-48652D01*
X51182Y-48705D01*
X51182Y-48745D01*
X51173Y-48799D01*
X51165Y-48825D01*
X51147Y-48852D01*
X51122Y-48865D01*
X51079Y-48865D01*
X51216Y-48892D02*
X51353Y-48892D01*
X51456Y-48719D02*
X51482Y-48732D01*
X51490Y-48745D01*
X51499Y-48772D01*
X51499Y-48812D01*
X51490Y-48839D01*
X51482Y-48852D01*
X51464Y-48865D01*
X51396Y-48865D01*
X51396Y-48585D01*
X51456Y-48585D01*
X51473Y-48599D01*
X51482Y-48612D01*
X51490Y-48639D01*
X51490Y-48665D01*
X51482Y-48692D01*
X51473Y-48705D01*
X51456Y-48719D01*
X51396Y-48719D01*
X51567Y-48785D02*
X51653Y-48785D01*
X51550Y-48865D02*
X51610Y-48585D01*
X51670Y-48865D01*
X51704Y-48585D02*
X51807Y-48585D01*
X51756Y-48865D02*
X51756Y-48585D01*
X51841Y-48585D02*
X51944Y-48585D01*
X51893Y-48865D02*
X51893Y-48585D01*
X51194Y-50024D02*
X51177Y-50010D01*
X51151Y-50010D01*
X51126Y-50024D01*
X51108Y-50050D01*
X51100Y-50077D01*
X51091Y-50130D01*
X51091Y-50170D01*
X51100Y-50224D01*
X51108Y-50250D01*
X51126Y-50277D01*
X51151Y-50290D01*
X51168Y-50290D01*
X51194Y-50277D01*
X51203Y-50264D01*
X51203Y-50170D01*
X51168Y-50170D01*
X51280Y-50290D02*
X51280Y-50010D01*
X51383Y-50290D01*
X51383Y-50010D01*
X51469Y-50290D02*
X51469Y-50010D01*
X51512Y-50010D01*
X51537Y-50024D01*
X51555Y-50050D01*
X51563Y-50077D01*
X51572Y-50130D01*
X51572Y-50170D01*
X51563Y-50224D01*
X51555Y-50250D01*
X51537Y-50277D01*
X51512Y-50290D01*
X51469Y-50290D01*
X49031Y-50739D02*
X49091Y-51019D01*
X49151Y-50739D01*
X49211Y-51019D02*
X49211Y-50739D01*
X49254Y-50739D01*
X49279Y-50753D01*
X49297Y-50779D01*
X49305Y-50806D01*
X49314Y-50859D01*
X49314Y-50899D01*
X49305Y-50953D01*
X49297Y-50979D01*
X49279Y-51006D01*
X49254Y-51019D01*
X49211Y-51019D01*
X49391Y-51019D02*
X49391Y-50739D01*
X49434Y-50739D01*
X49459Y-50753D01*
X49477Y-50779D01*
X49485Y-50806D01*
X49494Y-50859D01*
X49494Y-50899D01*
X49485Y-50953D01*
X49477Y-50979D01*
X49459Y-51006D01*
X49434Y-51019D01*
X49391Y-51019D01*
X49657Y-50739D02*
X49571Y-50739D01*
X49562Y-50873D01*
X49571Y-50859D01*
X49588Y-50846D01*
X49631Y-50846D01*
X49648Y-50859D01*
X49657Y-50873D01*
X49665Y-50899D01*
X49665Y-50966D01*
X49657Y-50993D01*
X49648Y-51006D01*
X49631Y-51019D01*
X49588Y-51019D01*
X49571Y-51006D01*
X49562Y-50993D01*
X49716Y-50739D02*
X49776Y-51019D01*
X49836Y-50739D01*
X67270Y-49112D02*
X67270Y-48954D01*
X67550Y-49033D02*
X67270Y-49033D01*
X67270Y-48889D02*
X67550Y-48705D01*
X67270Y-48705D02*
X67550Y-48889D01*
X64781Y-49085D02*
X64689Y-48952D01*
X64624Y-49085D02*
X64624Y-48805D01*
X64729Y-48805D01*
X64755Y-48819D01*
X64768Y-48832D01*
X64781Y-48859D01*
X64781Y-48899D01*
X64768Y-48925D01*
X64755Y-48939D01*
X64729Y-48952D01*
X64624Y-48952D01*
X64873Y-48805D02*
X65057Y-49085D01*
X65057Y-48805D02*
X64873Y-49085D01*
X67550Y-51224D02*
X67270Y-51224D01*
X67270Y-51159D01*
X67284Y-51119D01*
X67310Y-51093D01*
X67337Y-51080D01*
X67390Y-51067D01*
X67430Y-51067D01*
X67484Y-51080D01*
X67510Y-51093D01*
X67537Y-51119D01*
X67550Y-51159D01*
X67550Y-51224D01*
X67364Y-50830D02*
X67550Y-50830D01*
X67257Y-50896D02*
X67457Y-50961D01*
X67457Y-50791D01*
X67444Y-50685D02*
X67444Y-50475D01*
X67550Y-50580D02*
X67337Y-50580D01*
X64311Y-51034D02*
X64311Y-50754D01*
X64376Y-50754D01*
X64416Y-50768D01*
X64442Y-50794D01*
X64455Y-50821D01*
X64468Y-50874D01*
X64468Y-50914D01*
X64455Y-50968D01*
X64442Y-50994D01*
X64416Y-51021D01*
X64376Y-51034D01*
X64311Y-51034D01*
X64705Y-50848D02*
X64705Y-51034D01*
X64639Y-50741D02*
X64574Y-50941D01*
X64744Y-50941D01*
X64850Y-50928D02*
X65060Y-50928D01*
G54D13*
X47571Y-48716D02*
X48657Y-48720D01*
X48657Y-48720D02*
X48661Y-49228D01*
X48661Y-49228D02*
X47563Y-49232D01*
X47563Y-49232D02*
X47567Y-48720D01*
X63071Y-48434D02*
X61071Y-48430D01*
X61071Y-48411D02*
X61071Y-46836D01*
X61071Y-46836D02*
X63079Y-46836D01*
X63079Y-46836D02*
X63079Y-48415D01*
G54D14*
X62933Y-47049D02*
X62931Y-47059D01*
X62928Y-47069D01*
X62923Y-47079D01*
X62917Y-47087D01*
X62908Y-47094D01*
X62899Y-47099D01*
X62889Y-47102D01*
X62878Y-47103D01*
X62868Y-47103D01*
X62858Y-47099D01*
X62848Y-47095D01*
X62840Y-47088D01*
X62833Y-47080D01*
X62828Y-47070D01*
X62825Y-47060D01*
X62824Y-47049D01*
X62824Y-47040D01*
X62827Y-47029D01*
X62832Y-47020D01*
X62839Y-47011D01*
X62847Y-47004D01*
X62856Y-46999D01*
X62867Y-46996D01*
X62877Y-46995D01*
X62887Y-46995D01*
X62897Y-46998D01*
X62907Y-47003D01*
X62915Y-47010D01*
X62922Y-47018D01*
X62928Y-47027D01*
X62931Y-47037D01*
X62932Y-47048D01*
X62933Y-47049D01*
G54D15*
X57688Y-43376D02*
X57685Y-43402D01*
X57677Y-43428D01*
X57664Y-43452D01*
X57647Y-43473D01*
X57627Y-43490D01*
X57603Y-43503D01*
X57577Y-43511D01*
X57550Y-43513D01*
X57525Y-43511D01*
X57499Y-43503D01*
X57475Y-43491D01*
X57454Y-43474D01*
X57437Y-43453D01*
X57424Y-43430D01*
X57416Y-43404D01*
X57413Y-43377D01*
X57415Y-43352D01*
X57422Y-43326D01*
X57435Y-43302D01*
X57451Y-43281D01*
X57472Y-43263D01*
X57495Y-43250D01*
X57521Y-43242D01*
X57548Y-43239D01*
X57573Y-43241D01*
X57599Y-43248D01*
X57623Y-43260D01*
X57645Y-43277D01*
X57662Y-43297D01*
X57676Y-43320D01*
X57684Y-43346D01*
X57687Y-43373D01*
X57688Y-43376D01*
X52038Y-43376D02*
X57156Y-43376D01*
X57156Y-43376D02*
X57550Y-42982D01*
X57550Y-42982D02*
X57550Y-37864D01*
X57550Y-37864D02*
X52038Y-37864D01*
X52038Y-37864D02*
X52038Y-43376D01*
G54D16*
X62365Y-45648D02*
X63265Y-45648D01*
X63265Y-45648D02*
X63265Y-46148D01*
X63265Y-46148D02*
X62365Y-46148D01*
X62365Y-46148D02*
X62365Y-45648D01*
X61986Y-46184D02*
X61086Y-46184D01*
X61086Y-46184D02*
X61086Y-45684D01*
X61086Y-45684D02*
X61986Y-45684D01*
X61986Y-45684D02*
X61986Y-46184D01*
X63293Y-49617D02*
X62393Y-49617D01*
X62393Y-49617D02*
X62393Y-49117D01*
X62393Y-49117D02*
X63293Y-49117D01*
X63293Y-49117D02*
X63293Y-49617D01*
X61828Y-49608D02*
X60928Y-49608D01*
X60928Y-49608D02*
X60928Y-49108D01*
X60928Y-49108D02*
X61828Y-49108D01*
X61828Y-49108D02*
X61828Y-49608D01*
X52542Y-36502D02*
X53442Y-36502D01*
X53442Y-36502D02*
X53442Y-37002D01*
X53442Y-37002D02*
X52542Y-37002D01*
X52542Y-37002D02*
X52542Y-36502D01*
X64758Y-35337D02*
X64758Y-36237D01*
X64758Y-36237D02*
X64258Y-36237D01*
X64258Y-36237D02*
X64258Y-35337D01*
X64258Y-35337D02*
X64758Y-35337D01*
X48515Y-43864D02*
X49415Y-43864D01*
X49415Y-43864D02*
X49415Y-44364D01*
X49415Y-44364D02*
X48515Y-44364D01*
X48515Y-44364D02*
X48515Y-43864D01*
X64190Y-35289D02*
X63290Y-35289D01*
X63290Y-35289D02*
X63290Y-34789D01*
X63290Y-34789D02*
X64190Y-34789D01*
X64190Y-34789D02*
X64190Y-35289D01*
X57959Y-37320D02*
X57959Y-36420D01*
X57959Y-36420D02*
X58459Y-36420D01*
X58459Y-36420D02*
X58459Y-37320D01*
X58459Y-37320D02*
X57959Y-37320D01*
X49647Y-49230D02*
X48747Y-49230D01*
X48747Y-49230D02*
X48747Y-48730D01*
X48747Y-48730D02*
X49647Y-48730D01*
X49647Y-48730D02*
X49647Y-49230D01*
X60419Y-43872D02*
X59519Y-43872D01*
X59519Y-43872D02*
X59519Y-43372D01*
X59519Y-43372D02*
X60419Y-43372D01*
X60419Y-43372D02*
X60419Y-43872D01*
G54D17*
X67151Y-36272D02*
X65151Y-36272D01*
X65151Y-36272D02*
X65151Y-48272D01*
X65151Y-48272D02*
X67151Y-48272D01*
X67151Y-48272D02*
X67151Y-36272D01*
G54D18*
X51249Y-54430D02*
X51249Y-52330D01*
X51249Y-52330D02*
X55159Y-52330D01*
X55159Y-52330D02*
X55159Y-54430D01*
X55159Y-54430D02*
X51249Y-54430D01*
G54D16*
X50450Y-45732D02*
X49550Y-45732D01*
X49550Y-45732D02*
X49550Y-46382D01*
X50450Y-47082D02*
X50450Y-47732D01*
X50450Y-47732D02*
X49550Y-47732D01*
X49550Y-47732D02*
X49550Y-47082D01*
X50450Y-46382D02*
X50450Y-45732D01*
X52263Y-43452D02*
X52262Y-43461D01*
X52259Y-43471D01*
X52254Y-43479D01*
X52248Y-43487D01*
X52240Y-43493D01*
X52232Y-43498D01*
X52223Y-43500D01*
X52213Y-43501D01*
X52204Y-43501D01*
X52195Y-43498D01*
X52186Y-43493D01*
X52179Y-43487D01*
X52172Y-43480D01*
X52168Y-43471D01*
X52165Y-43462D01*
X52164Y-43452D01*
X52164Y-43443D01*
X52167Y-43434D01*
X52171Y-43425D01*
X52178Y-43418D01*
X52185Y-43411D01*
X52193Y-43407D01*
X52203Y-43404D01*
X52212Y-43403D01*
X52221Y-43403D01*
X52231Y-43406D01*
X52239Y-43410D01*
X52247Y-43416D01*
X52253Y-43424D01*
X52258Y-43432D01*
X52261Y-43441D01*
X52262Y-43451D01*
X52263Y-43452D01*
X51763Y-43452D02*
X52163Y-43452D01*
X52163Y-43452D02*
X52163Y-44052D01*
X52163Y-44052D02*
X51763Y-44052D01*
X51363Y-44052D02*
X50963Y-44052D01*
X50963Y-44052D02*
X50963Y-43452D01*
X50963Y-43452D02*
X51363Y-43452D01*
X51935Y-35745D02*
X51935Y-34845D01*
X51935Y-34845D02*
X52435Y-34845D01*
X52435Y-34845D02*
X52435Y-35745D01*
X52435Y-35745D02*
X51935Y-35745D01*
X51226Y-35962D02*
X51226Y-35062D01*
X51226Y-35062D02*
X51726Y-35062D01*
X51726Y-35062D02*
X51726Y-35962D01*
X51726Y-35962D02*
X51226Y-35962D01*
X54131Y-34817D02*
X53231Y-34817D01*
X53231Y-34817D02*
X53231Y-34317D01*
X53231Y-34317D02*
X54131Y-34317D01*
X54131Y-34317D02*
X54131Y-34817D01*
X54131Y-35467D02*
X53231Y-35467D01*
X53231Y-35467D02*
X53231Y-34967D01*
X53231Y-34967D02*
X54131Y-34967D01*
X54131Y-34967D02*
X54131Y-35467D01*
X54412Y-34967D02*
X55312Y-34967D01*
X55312Y-34967D02*
X55312Y-35467D01*
X55312Y-35467D02*
X54412Y-35467D01*
X54412Y-35467D02*
X54412Y-34967D01*
X56184Y-34593D02*
X57084Y-34593D01*
X57084Y-34593D02*
X57084Y-35093D01*
X57084Y-35093D02*
X56184Y-35093D01*
X56184Y-35093D02*
X56184Y-34593D01*
X58459Y-35003D02*
X58459Y-35903D01*
X58459Y-35903D02*
X57959Y-35903D01*
X57959Y-35903D02*
X57959Y-35003D01*
X57959Y-35003D02*
X58459Y-35003D01*
X55726Y-36884D02*
X54826Y-36884D01*
X54826Y-36884D02*
X54826Y-36384D01*
X54826Y-36384D02*
X55726Y-36384D01*
X55726Y-36384D02*
X55726Y-36884D01*
X58715Y-35584D02*
X58715Y-34684D01*
X58715Y-34684D02*
X59215Y-34684D01*
X59215Y-34684D02*
X59215Y-35584D01*
X59215Y-35584D02*
X58715Y-35584D01*
X62275Y-44211D02*
X62275Y-45111D01*
X62275Y-45111D02*
X61775Y-45111D01*
X61775Y-45111D02*
X61775Y-44211D01*
X61775Y-44211D02*
X62275Y-44211D01*
X63955Y-46380D02*
X63955Y-47280D01*
X63955Y-47280D02*
X63455Y-47280D01*
X63455Y-47280D02*
X63455Y-46380D01*
X63455Y-46380D02*
X63955Y-46380D01*
X61775Y-44143D02*
X61775Y-43243D01*
X61775Y-43243D02*
X62275Y-43243D01*
X62275Y-43243D02*
X62275Y-44143D01*
X62275Y-44143D02*
X61775Y-44143D01*
X63707Y-41060D02*
X63707Y-40160D01*
X63707Y-40160D02*
X64207Y-40160D01*
X64207Y-40160D02*
X64207Y-41060D01*
X64207Y-41060D02*
X63707Y-41060D01*
X63954Y-45267D02*
X63954Y-46167D01*
X63954Y-46167D02*
X63454Y-46167D01*
X63454Y-46167D02*
X63454Y-45267D01*
X63454Y-45267D02*
X63954Y-45267D01*
X55560Y-48967D02*
X54660Y-48967D01*
X54660Y-48967D02*
X54660Y-48467D01*
X54660Y-48467D02*
X55560Y-48467D01*
X55560Y-48467D02*
X55560Y-48967D01*
X55560Y-48396D02*
X54660Y-48396D01*
X54660Y-48396D02*
X54660Y-47896D01*
X54660Y-47896D02*
X55560Y-47896D01*
X55560Y-47896D02*
X55560Y-48396D01*
X55560Y-47821D02*
X54660Y-47821D01*
X54660Y-47821D02*
X54660Y-47321D01*
X54660Y-47321D02*
X55560Y-47321D01*
X55560Y-47321D02*
X55560Y-47821D01*
X52659Y-45400D02*
X52659Y-46300D01*
X52659Y-46300D02*
X52159Y-46300D01*
X52159Y-46300D02*
X52159Y-45400D01*
X52159Y-45400D02*
X52659Y-45400D01*
X51513Y-46305D02*
X50613Y-46305D01*
X50613Y-46305D02*
X50613Y-45805D01*
X50613Y-45805D02*
X51513Y-45805D01*
X51513Y-45805D02*
X51513Y-46305D01*
X51585Y-46300D02*
X51585Y-45400D01*
X51585Y-45400D02*
X52085Y-45400D01*
X52085Y-45400D02*
X52085Y-46300D01*
X52085Y-46300D02*
X51585Y-46300D01*
X54415Y-45759D02*
X54415Y-46659D01*
X54415Y-46659D02*
X53915Y-46659D01*
X53915Y-46659D02*
X53915Y-45759D01*
X53915Y-45759D02*
X54415Y-45759D01*
X55990Y-44475D02*
X55990Y-45375D01*
X55990Y-45375D02*
X55490Y-45375D01*
X55490Y-45375D02*
X55490Y-44475D01*
X55490Y-44475D02*
X55990Y-44475D01*
G54D19*
X67169Y-48429D02*
X67169Y-52429D01*
X67169Y-52429D02*
X65169Y-52429D01*
X65169Y-52429D02*
X65169Y-48429D01*
X65169Y-48429D02*
X67169Y-48429D01*
G54D10*
X65024Y-48318D02*
X64024Y-48318D01*
X64024Y-48318D02*
X64024Y-46318D01*
X64024Y-46318D02*
X65024Y-46318D01*
X65024Y-46318D02*
X65024Y-48318D01*
X65023Y-46249D02*
X64023Y-46249D01*
X64023Y-46249D02*
X64023Y-44249D01*
X64023Y-44249D02*
X65023Y-44249D01*
X65023Y-44249D02*
X65023Y-46249D01*
X50854Y-48441D02*
X50854Y-47441D01*
X50854Y-47441D02*
X52854Y-47441D01*
X52854Y-47441D02*
X52854Y-48441D01*
X52854Y-48441D02*
X50854Y-48441D01*
X50969Y-49614D02*
X50969Y-50614D01*
X50969Y-50614D02*
X48969Y-50614D01*
X48969Y-50614D02*
X48969Y-49614D01*
X48969Y-49614D02*
X50969Y-49614D01*
X62351Y-43173D02*
X63351Y-43173D01*
X63351Y-43173D02*
X63351Y-45173D01*
X63351Y-45173D02*
X62351Y-45173D01*
X62351Y-45173D02*
X62351Y-43173D01*
G54D16*
X63954Y-44302D02*
X63954Y-45202D01*
X63954Y-45202D02*
X63454Y-45202D01*
X63454Y-45202D02*
X63454Y-44302D01*
X63454Y-44302D02*
X63954Y-44302D01*
X58326Y-43014D02*
X59226Y-43014D01*
X59226Y-43014D02*
X59226Y-43514D01*
X59226Y-43514D02*
X58326Y-43514D01*
X58326Y-43514D02*
X58326Y-43014D01*
X63459Y-48248D02*
X63459Y-47348D01*
X63459Y-47348D02*
X63959Y-47348D01*
X63959Y-47348D02*
X63959Y-48248D01*
X63959Y-48248D02*
X63459Y-48248D01*
X61415Y-43872D02*
X60515Y-43872D01*
X60515Y-43872D02*
X60515Y-43372D01*
X60515Y-43372D02*
X61415Y-43372D01*
X61415Y-43372D02*
X61415Y-43872D01*
X59613Y-48477D02*
X59610Y-48504D01*
X59602Y-48530D01*
X59589Y-48555D01*
X59572Y-48576D01*
X59550Y-48593D01*
X59526Y-48606D01*
X59500Y-48615D01*
X59472Y-48617D01*
X59446Y-48615D01*
X59420Y-48607D01*
X59395Y-48594D01*
X59374Y-48577D01*
X59356Y-48556D01*
X59343Y-48532D01*
X59335Y-48506D01*
X59332Y-48478D01*
X59334Y-48452D01*
X59341Y-48426D01*
X59354Y-48401D01*
X59371Y-48380D01*
X59392Y-48362D01*
X59416Y-48348D01*
X59442Y-48340D01*
X59470Y-48337D01*
X59496Y-48339D01*
X59522Y-48346D01*
X59547Y-48358D01*
X59569Y-48375D01*
X59587Y-48396D01*
X59600Y-48420D01*
X59609Y-48446D01*
X59612Y-48474D01*
X59613Y-48477D01*
X58372Y-48677D02*
X58372Y-48377D01*
X58372Y-48377D02*
X58872Y-48377D01*
X58872Y-48377D02*
X58872Y-48677D01*
X59672Y-44627D02*
X59672Y-48677D01*
X57572Y-48677D02*
X57572Y-44627D01*
X57572Y-48677D02*
X59672Y-48677D01*
X57572Y-44627D02*
X59672Y-44627D01*
X60443Y-48934D02*
X60443Y-48034D01*
X60443Y-48034D02*
X60943Y-48034D01*
X60943Y-48034D02*
X60943Y-48934D01*
X60943Y-48934D02*
X60443Y-48934D01*
X60447Y-46580D02*
X60447Y-45680D01*
X60447Y-45680D02*
X60947Y-45680D01*
X60947Y-45680D02*
X60947Y-46580D01*
X60947Y-46580D02*
X60447Y-46580D01*
X60947Y-46830D02*
X60947Y-47730D01*
X60947Y-47730D02*
X60447Y-47730D01*
X60447Y-47730D02*
X60447Y-46830D01*
X60447Y-46830D02*
X60947Y-46830D01*
G54D17*
X48256Y-36272D02*
X46256Y-36272D01*
X46256Y-36272D02*
X46256Y-48272D01*
X46256Y-48272D02*
X48256Y-48272D01*
X48256Y-48272D02*
X48256Y-36272D01*
G54D16*
X60406Y-45387D02*
X61192Y-45387D01*
X61192Y-45387D02*
X61192Y-44439D01*
X61192Y-44439D02*
X60406Y-44439D01*
X60406Y-44439D02*
X60406Y-45387D01*
G54D17*
X62054Y-58667D02*
X58954Y-58667D01*
X58954Y-58567D02*
X58954Y-58767D01*
X58954Y-58767D02*
X62054Y-58767D01*
X62054Y-58767D02*
X62054Y-58567D01*
X62054Y-58567D02*
X58954Y-58567D01*
X61654Y-51067D02*
X59354Y-51067D01*
X59354Y-51067D02*
X59354Y-58667D01*
X61654Y-58667D02*
X61654Y-51067D01*
X58487Y-58659D02*
X55387Y-58659D01*
X55387Y-58559D02*
X55387Y-58759D01*
X55387Y-58759D02*
X58487Y-58759D01*
X58487Y-58759D02*
X58487Y-58559D01*
X58487Y-58559D02*
X55387Y-58559D01*
X58087Y-51059D02*
X55787Y-51059D01*
X55787Y-51059D02*
X55787Y-58659D01*
X58087Y-58659D02*
X58087Y-51059D01*
G54D20*
X53664Y-45768D02*
X53546Y-45768D01*
X53546Y-45768D02*
X53546Y-45965D01*
X53664Y-45965D02*
X53546Y-45965D01*
X53664Y-45768D02*
X53664Y-45965D01*
X53409Y-45768D02*
X53291Y-45768D01*
X53291Y-45768D02*
X53291Y-45965D01*
X53409Y-45965D02*
X53291Y-45965D01*
X53409Y-45768D02*
X53409Y-45965D01*
X53154Y-45768D02*
X53036Y-45768D01*
X53036Y-45768D02*
X53036Y-45965D01*
X53154Y-45965D02*
X53036Y-45965D01*
X53154Y-45768D02*
X53154Y-45965D01*
X53154Y-46437D02*
X53036Y-46437D01*
X53036Y-46437D02*
X53036Y-46634D01*
X53154Y-46634D02*
X53036Y-46634D01*
X53154Y-46437D02*
X53154Y-46634D01*
X53409Y-46437D02*
X53291Y-46437D01*
X53291Y-46437D02*
X53291Y-46634D01*
X53409Y-46634D02*
X53291Y-46634D01*
X53409Y-46437D02*
X53409Y-46634D01*
X53664Y-46437D02*
X53546Y-46437D01*
X53546Y-46437D02*
X53546Y-46634D01*
X53664Y-46634D02*
X53546Y-46634D01*
X53664Y-46437D02*
X53664Y-46634D01*
G54D15*
X53743Y-46417D02*
X52957Y-46417D01*
X52957Y-46417D02*
X52957Y-45985D01*
X52957Y-45985D02*
X53743Y-45985D01*
X53743Y-45985D02*
X53743Y-46417D01*
G54D14*
X53666Y-46103D02*
X53665Y-46110D01*
X53662Y-46118D01*
X53659Y-46125D01*
X53654Y-46131D01*
X53647Y-46136D01*
X53640Y-46140D01*
X53633Y-46143D01*
X53625Y-46143D01*
X53618Y-46143D01*
X53610Y-46141D01*
X53603Y-46137D01*
X53597Y-46132D01*
X53592Y-46126D01*
X53588Y-46119D01*
X53585Y-46111D01*
X53585Y-46103D01*
X53585Y-46096D01*
X53587Y-46088D01*
X53591Y-46081D01*
X53596Y-46075D01*
X53602Y-46070D01*
X53609Y-46066D01*
X53617Y-46063D01*
X53625Y-46063D01*
X53632Y-46063D01*
X53639Y-46065D01*
X53646Y-46069D01*
X53653Y-46074D01*
X53658Y-46080D01*
X53662Y-46087D01*
X53664Y-46094D01*
X53665Y-46102D01*
X53666Y-46103D01*
G54D17*
X46174Y-56292D02*
X46174Y-56592D01*
X46174Y-56592D02*
X49574Y-56592D01*
X49574Y-56592D02*
X49574Y-56292D01*
X46174Y-55092D02*
X49574Y-55092D01*
X46174Y-51292D02*
X49574Y-51292D01*
X49574Y-56292D02*
X49574Y-51292D01*
X46174Y-56292D02*
X46174Y-51292D01*
G54D13*
X56331Y-45468D02*
X54441Y-45468D01*
X54441Y-45468D02*
X54441Y-46925D01*
X54441Y-46925D02*
X56212Y-46925D01*
X56212Y-46925D02*
X56212Y-45390D01*
X56212Y-45390D02*
X56212Y-45311D01*
X56212Y-45311D02*
X56331Y-45311D01*
X56331Y-45311D02*
X56331Y-45429D01*
X62665Y-37508D02*
X62662Y-37529D01*
X62656Y-37549D01*
X62646Y-37568D01*
X62633Y-37585D01*
X62616Y-37599D01*
X62597Y-37609D01*
X62577Y-37615D01*
X62555Y-37617D01*
X62535Y-37616D01*
X62514Y-37609D01*
X62495Y-37600D01*
X62479Y-37586D01*
X62465Y-37570D01*
X62454Y-37551D01*
X62448Y-37530D01*
X62446Y-37509D01*
X62447Y-37489D01*
X62453Y-37468D01*
X62463Y-37449D01*
X62476Y-37432D01*
X62493Y-37418D01*
X62511Y-37408D01*
X62532Y-37401D01*
X62553Y-37399D01*
X62574Y-37400D01*
X62594Y-37406D01*
X62613Y-37416D01*
X62630Y-37429D01*
X62644Y-37445D01*
X62655Y-37464D01*
X62662Y-37484D01*
X62664Y-37505D01*
X62665Y-37508D01*
X58886Y-37835D02*
X58886Y-35685D01*
X58886Y-35685D02*
X64086Y-35678D01*
X64086Y-35678D02*
X64086Y-37847D01*
X64086Y-37847D02*
X58886Y-37835D01*
G54D20*
X64646Y-34921D02*
X64292Y-34921D01*
X64292Y-34921D02*
X64292Y-35078D01*
X64646Y-35078D02*
X64292Y-35078D01*
X64646Y-34921D02*
X64646Y-35078D01*
X64646Y-34410D02*
X64292Y-34410D01*
X64292Y-34410D02*
X64292Y-34567D01*
X64646Y-34567D02*
X64292Y-34567D01*
X64646Y-34410D02*
X64646Y-34567D01*
X64646Y-34744D02*
X64587Y-34744D01*
X64587Y-34744D02*
X64587Y-34862D01*
X64646Y-34862D02*
X64587Y-34862D01*
X64646Y-34744D02*
X64646Y-34862D01*
X64351Y-34744D02*
X64292Y-34744D01*
X64292Y-34744D02*
X64292Y-34862D01*
X64351Y-34862D02*
X64292Y-34862D01*
X64351Y-34744D02*
X64351Y-34862D01*
X64528Y-34744D02*
X64410Y-34744D01*
X64410Y-34744D02*
X64410Y-34862D01*
X64528Y-34862D02*
X64410Y-34862D01*
X64528Y-34744D02*
X64528Y-34862D01*
G54D21*
X64626Y-34921D02*
X64626Y-34567D01*
X64312Y-34921D02*
X64312Y-34567D01*
G54D20*
X49153Y-43398D02*
X49153Y-43752D01*
X49153Y-43752D02*
X49310Y-43752D01*
X49310Y-43398D02*
X49310Y-43752D01*
X49153Y-43398D02*
X49310Y-43398D01*
X48642Y-43398D02*
X48642Y-43752D01*
X48642Y-43752D02*
X48799Y-43752D01*
X48799Y-43398D02*
X48799Y-43752D01*
X48642Y-43398D02*
X48799Y-43398D01*
X48976Y-43398D02*
X48976Y-43457D01*
X48976Y-43457D02*
X49094Y-43457D01*
X49094Y-43398D02*
X49094Y-43457D01*
X48976Y-43398D02*
X49094Y-43398D01*
X48976Y-43693D02*
X48976Y-43752D01*
X48976Y-43752D02*
X49094Y-43752D01*
X49094Y-43693D02*
X49094Y-43752D01*
X48976Y-43693D02*
X49094Y-43693D01*
X48976Y-43516D02*
X48976Y-43634D01*
X48976Y-43634D02*
X49094Y-43634D01*
X49094Y-43516D02*
X49094Y-43634D01*
X48976Y-43516D02*
X49094Y-43516D01*
G54D21*
X49153Y-43418D02*
X48799Y-43418D01*
X49153Y-43732D02*
X48799Y-43732D01*
G54D10*
X55689Y-47146D02*
X56689Y-47146D01*
X56689Y-47146D02*
X56689Y-49146D01*
X56689Y-49146D02*
X55689Y-49146D01*
X55689Y-49146D02*
X55689Y-47146D01*
X56693Y-49154D02*
X56693Y-50154D01*
X56693Y-50154D02*
X54693Y-50154D01*
X54693Y-50154D02*
X54693Y-49154D01*
X54693Y-49154D02*
X56693Y-49154D01*
G54D11*
X47057Y-49093D02*
X47057Y-48813D01*
X47122Y-48813D01*
X47162Y-48827D01*
X47188Y-48853D01*
X47201Y-48880D01*
X47214Y-48933D01*
X47214Y-48973D01*
X47201Y-49027D01*
X47188Y-49053D01*
X47162Y-49080D01*
X47122Y-49093D01*
X47057Y-49093D01*
X47451Y-48907D02*
X47451Y-49093D01*
X47385Y-48800D02*
X47320Y-49000D01*
X47490Y-49000D01*
X63221Y-48487D02*
X63221Y-48714D01*
X63229Y-48741D01*
X63238Y-48754D01*
X63255Y-48767D01*
X63289Y-48767D01*
X63307Y-48754D01*
X63315Y-48741D01*
X63324Y-48714D01*
X63324Y-48487D01*
X63504Y-48767D02*
X63401Y-48767D01*
X63453Y-48767D02*
X63453Y-48487D01*
X63436Y-48527D01*
X63418Y-48554D01*
X63401Y-48567D01*
G54D12*
X51286Y-37570D02*
X51286Y-37270D01*
X51601Y-37542D02*
X51587Y-37556D01*
X51544Y-37570D01*
X51515Y-37570D01*
X51472Y-37556D01*
X51444Y-37528D01*
X51429Y-37499D01*
X51415Y-37442D01*
X51415Y-37399D01*
X51429Y-37342D01*
X51444Y-37313D01*
X51472Y-37285D01*
X51515Y-37270D01*
X51544Y-37270D01*
X51587Y-37285D01*
X51601Y-37299D01*
X51887Y-37570D02*
X51715Y-37570D01*
X51801Y-37570D02*
X51801Y-37270D01*
X51772Y-37313D01*
X51744Y-37342D01*
X51715Y-37356D01*
G54D15*
X54001Y-40364D02*
X54001Y-40137D01*
X54001Y-40024D02*
X53986Y-40040D01*
X54001Y-40056D01*
X54016Y-40040D01*
X54001Y-40024D01*
X54001Y-40056D01*
X54153Y-40364D02*
X54153Y-40024D01*
X54260Y-40266D01*
X54367Y-40024D01*
X54367Y-40364D01*
X54489Y-40024D02*
X54702Y-40364D01*
X54702Y-40024D02*
X54489Y-40364D01*
X54809Y-40056D02*
X54824Y-40040D01*
X54855Y-40024D01*
X54931Y-40024D01*
X54961Y-40040D01*
X54977Y-40056D01*
X54992Y-40088D01*
X54992Y-40121D01*
X54977Y-40169D01*
X54794Y-40364D01*
X54992Y-40364D01*
X55099Y-40024D02*
X55297Y-40024D01*
X55190Y-40153D01*
X55236Y-40153D01*
X55266Y-40169D01*
X55282Y-40186D01*
X55297Y-40218D01*
X55297Y-40299D01*
X55282Y-40331D01*
X55266Y-40347D01*
X55236Y-40364D01*
X55144Y-40364D01*
X55114Y-40347D01*
X55099Y-40331D01*
X55404Y-40024D02*
X55602Y-40024D01*
X55495Y-40153D01*
X55541Y-40153D01*
X55571Y-40169D01*
X55587Y-40186D01*
X55602Y-40218D01*
X55602Y-40299D01*
X55587Y-40331D01*
X55571Y-40347D01*
X55541Y-40364D01*
X55449Y-40364D01*
X55419Y-40347D01*
X55404Y-40331D01*
G54D11*
X62778Y-45548D02*
X62769Y-45561D01*
X62743Y-45574D01*
X62726Y-45574D01*
X62701Y-45561D01*
X62683Y-45534D01*
X62675Y-45508D01*
X62666Y-45454D01*
X62666Y-45414D01*
X62675Y-45361D01*
X62683Y-45334D01*
X62701Y-45308D01*
X62726Y-45294D01*
X62743Y-45294D01*
X62769Y-45308D01*
X62778Y-45321D01*
X62949Y-45574D02*
X62846Y-45574D01*
X62898Y-45574D02*
X62898Y-45294D01*
X62881Y-45334D01*
X62863Y-45361D01*
X62846Y-45374D01*
X61534Y-45509D02*
X61525Y-45522D01*
X61499Y-45535D01*
X61482Y-45535D01*
X61457Y-45522D01*
X61439Y-45495D01*
X61431Y-45469D01*
X61422Y-45415D01*
X61422Y-45375D01*
X61431Y-45322D01*
X61439Y-45295D01*
X61457Y-45269D01*
X61482Y-45255D01*
X61499Y-45255D01*
X61525Y-45269D01*
X61534Y-45282D01*
X61602Y-45282D02*
X61611Y-45269D01*
X61628Y-45255D01*
X61671Y-45255D01*
X61688Y-45269D01*
X61697Y-45282D01*
X61705Y-45309D01*
X61705Y-45335D01*
X61697Y-45375D01*
X61594Y-45535D01*
X61705Y-45535D01*
X62797Y-49986D02*
X62784Y-49999D01*
X62745Y-50012D01*
X62719Y-50012D01*
X62679Y-49999D01*
X62653Y-49972D01*
X62640Y-49946D01*
X62627Y-49892D01*
X62627Y-49852D01*
X62640Y-49799D01*
X62653Y-49772D01*
X62679Y-49746D01*
X62719Y-49732D01*
X62745Y-49732D01*
X62784Y-49746D01*
X62797Y-49759D01*
X63034Y-49826D02*
X63034Y-50012D01*
X62968Y-49719D02*
X62903Y-49919D01*
X63073Y-49919D01*
X61296Y-49980D02*
X61283Y-49993D01*
X61244Y-50006D01*
X61218Y-50006D01*
X61178Y-49993D01*
X61152Y-49966D01*
X61139Y-49940D01*
X61126Y-49886D01*
X61126Y-49846D01*
X61139Y-49793D01*
X61152Y-49766D01*
X61178Y-49740D01*
X61218Y-49726D01*
X61244Y-49726D01*
X61283Y-49740D01*
X61296Y-49753D01*
X61546Y-49726D02*
X61415Y-49726D01*
X61402Y-49860D01*
X61415Y-49846D01*
X61441Y-49833D01*
X61507Y-49833D01*
X61533Y-49846D01*
X61546Y-49860D01*
X61559Y-49886D01*
X61559Y-49953D01*
X61546Y-49980D01*
X61533Y-49993D01*
X61507Y-50006D01*
X61441Y-50006D01*
X61415Y-49993D01*
X61402Y-49980D01*
X52946Y-36396D02*
X52854Y-36263D01*
X52789Y-36396D02*
X52789Y-36116D01*
X52894Y-36116D01*
X52920Y-36130D01*
X52933Y-36143D01*
X52946Y-36170D01*
X52946Y-36210D01*
X52933Y-36236D01*
X52920Y-36250D01*
X52894Y-36263D01*
X52789Y-36263D01*
X53038Y-36116D02*
X53222Y-36116D01*
X53104Y-36396D01*
X65133Y-35833D02*
X65000Y-35925D01*
X65133Y-35990D02*
X64853Y-35990D01*
X64853Y-35885D01*
X64867Y-35859D01*
X64880Y-35846D01*
X64907Y-35833D01*
X64947Y-35833D01*
X64973Y-35846D01*
X64987Y-35859D01*
X65000Y-35885D01*
X65000Y-35990D01*
X64973Y-35675D02*
X64960Y-35701D01*
X64947Y-35714D01*
X64920Y-35727D01*
X64907Y-35727D01*
X64880Y-35714D01*
X64867Y-35701D01*
X64853Y-35675D01*
X64853Y-35622D01*
X64867Y-35596D01*
X64880Y-35583D01*
X64907Y-35570D01*
X64920Y-35570D01*
X64947Y-35583D01*
X64960Y-35596D01*
X64973Y-35622D01*
X64973Y-35675D01*
X64987Y-35701D01*
X65000Y-35714D01*
X65027Y-35727D01*
X65080Y-35727D01*
X65107Y-35714D01*
X65120Y-35701D01*
X65133Y-35675D01*
X65133Y-35622D01*
X65120Y-35596D01*
X65107Y-35583D01*
X65080Y-35570D01*
X65027Y-35570D01*
X65000Y-35583D01*
X64987Y-35596D01*
X64973Y-35622D01*
G54D22*
X49753Y-44230D02*
X49661Y-44098D01*
X49596Y-44230D02*
X49596Y-43954D01*
X49701Y-43954D01*
X49727Y-43967D01*
X49740Y-43980D01*
X49753Y-44006D01*
X49753Y-44046D01*
X49740Y-44072D01*
X49727Y-44085D01*
X49701Y-44098D01*
X49596Y-44098D01*
X49885Y-44230D02*
X49937Y-44230D01*
X49964Y-44217D01*
X49977Y-44203D01*
X50003Y-44164D01*
X50016Y-44111D01*
X50016Y-44006D01*
X50003Y-43980D01*
X49990Y-43967D01*
X49964Y-43954D01*
X49911Y-43954D01*
X49885Y-43967D01*
X49872Y-43980D01*
X49859Y-44006D01*
X49859Y-44072D01*
X49872Y-44098D01*
X49885Y-44111D01*
X49911Y-44125D01*
X49964Y-44125D01*
X49990Y-44111D01*
X50003Y-44098D01*
X50016Y-44072D01*
G54D11*
X62668Y-35175D02*
X62576Y-35042D01*
X62511Y-35175D02*
X62511Y-34895D01*
X62616Y-34895D01*
X62642Y-34909D01*
X62655Y-34922D01*
X62668Y-34949D01*
X62668Y-34989D01*
X62655Y-35015D01*
X62642Y-35029D01*
X62616Y-35042D01*
X62511Y-35042D01*
X62774Y-34922D02*
X62787Y-34909D01*
X62813Y-34895D01*
X62879Y-34895D01*
X62905Y-34909D01*
X62918Y-34922D01*
X62931Y-34949D01*
X62931Y-34975D01*
X62918Y-35015D01*
X62760Y-35175D01*
X62931Y-35175D01*
X63089Y-35015D02*
X63063Y-35002D01*
X63050Y-34989D01*
X63037Y-34962D01*
X63037Y-34949D01*
X63050Y-34922D01*
X63063Y-34909D01*
X63089Y-34895D01*
X63142Y-34895D01*
X63168Y-34909D01*
X63181Y-34922D01*
X63194Y-34949D01*
X63194Y-34962D01*
X63181Y-34989D01*
X63168Y-35002D01*
X63142Y-35015D01*
X63089Y-35015D01*
X63063Y-35029D01*
X63050Y-35042D01*
X63037Y-35069D01*
X63037Y-35122D01*
X63050Y-35149D01*
X63063Y-35162D01*
X63089Y-35175D01*
X63142Y-35175D01*
X63168Y-35162D01*
X63181Y-35149D01*
X63194Y-35122D01*
X63194Y-35069D01*
X63181Y-35042D01*
X63168Y-35029D01*
X63142Y-35015D01*
X57845Y-37084D02*
X57712Y-37176D01*
X57845Y-37241D02*
X57565Y-37241D01*
X57565Y-37136D01*
X57579Y-37110D01*
X57592Y-37097D01*
X57619Y-37084D01*
X57659Y-37084D01*
X57685Y-37097D01*
X57699Y-37110D01*
X57712Y-37136D01*
X57712Y-37241D01*
X57592Y-36978D02*
X57579Y-36965D01*
X57565Y-36939D01*
X57565Y-36873D01*
X57579Y-36847D01*
X57592Y-36834D01*
X57619Y-36821D01*
X57645Y-36821D01*
X57685Y-36834D01*
X57845Y-36992D01*
X57845Y-36821D01*
X57845Y-36689D02*
X57845Y-36637D01*
X57832Y-36610D01*
X57819Y-36597D01*
X57779Y-36571D01*
X57725Y-36558D01*
X57619Y-36558D01*
X57592Y-36571D01*
X57579Y-36584D01*
X57565Y-36610D01*
X57565Y-36663D01*
X57579Y-36689D01*
X57592Y-36702D01*
X57619Y-36715D01*
X57685Y-36715D01*
X57712Y-36702D01*
X57725Y-36689D01*
X57739Y-36663D01*
X57739Y-36610D01*
X57725Y-36584D01*
X57712Y-36571D01*
X57685Y-36558D01*
X49924Y-49129D02*
X49832Y-48996D01*
X49767Y-49129D02*
X49767Y-48849D01*
X49872Y-48849D01*
X49898Y-48863D01*
X49911Y-48876D01*
X49924Y-48903D01*
X49924Y-48943D01*
X49911Y-48969D01*
X49898Y-48983D01*
X49872Y-48996D01*
X49767Y-48996D01*
X50016Y-48849D02*
X50187Y-48849D01*
X50095Y-48956D01*
X50135Y-48956D01*
X50161Y-48969D01*
X50174Y-48983D01*
X50187Y-49009D01*
X50187Y-49076D01*
X50174Y-49103D01*
X50161Y-49116D01*
X50135Y-49129D01*
X50056Y-49129D01*
X50030Y-49116D01*
X50016Y-49103D01*
X50358Y-48849D02*
X50385Y-48849D01*
X50411Y-48863D01*
X50424Y-48876D01*
X50437Y-48903D01*
X50450Y-48956D01*
X50450Y-49023D01*
X50437Y-49076D01*
X50424Y-49103D01*
X50411Y-49116D01*
X50385Y-49129D01*
X50358Y-49129D01*
X50332Y-49116D01*
X50319Y-49103D01*
X50306Y-49076D01*
X50293Y-49023D01*
X50293Y-48956D01*
X50306Y-48903D01*
X50319Y-48876D01*
X50332Y-48863D01*
X50358Y-48849D01*
X59850Y-43270D02*
X59790Y-43137D01*
X59747Y-43270D02*
X59747Y-42990D01*
X59815Y-42990D01*
X59833Y-43004D01*
X59841Y-43017D01*
X59850Y-43044D01*
X59850Y-43084D01*
X59841Y-43110D01*
X59833Y-43124D01*
X59815Y-43137D01*
X59747Y-43137D01*
X59910Y-42990D02*
X60021Y-42990D01*
X59961Y-43097D01*
X59987Y-43097D01*
X60004Y-43110D01*
X60013Y-43124D01*
X60021Y-43150D01*
X60021Y-43217D01*
X60013Y-43244D01*
X60004Y-43257D01*
X59987Y-43270D01*
X59935Y-43270D01*
X59918Y-43257D01*
X59910Y-43244D01*
X60192Y-43270D02*
X60089Y-43270D01*
X60141Y-43270D02*
X60141Y-42990D01*
X60124Y-43030D01*
X60106Y-43057D01*
X60089Y-43070D01*
X64889Y-42776D02*
X64609Y-42776D01*
X64609Y-42671D01*
X64623Y-42645D01*
X64636Y-42632D01*
X64663Y-42619D01*
X64703Y-42619D01*
X64729Y-42632D01*
X64743Y-42645D01*
X64756Y-42671D01*
X64756Y-42776D01*
X64636Y-42513D02*
X64623Y-42500D01*
X64609Y-42474D01*
X64609Y-42408D01*
X64623Y-42382D01*
X64636Y-42369D01*
X64663Y-42356D01*
X64689Y-42356D01*
X64729Y-42369D01*
X64889Y-42527D01*
X64889Y-42356D01*
X51725Y-52131D02*
X51751Y-52144D01*
X51794Y-52144D01*
X51811Y-52131D01*
X51820Y-52118D01*
X51828Y-52091D01*
X51828Y-52064D01*
X51820Y-52038D01*
X51811Y-52024D01*
X51794Y-52011D01*
X51760Y-51998D01*
X51742Y-51984D01*
X51734Y-51971D01*
X51725Y-51944D01*
X51725Y-51918D01*
X51734Y-51891D01*
X51742Y-51878D01*
X51760Y-51864D01*
X51802Y-51864D01*
X51828Y-51878D01*
X51888Y-51864D02*
X51931Y-52144D01*
X51965Y-51944D01*
X51999Y-52144D01*
X52042Y-51864D01*
X52094Y-51864D02*
X52205Y-51864D01*
X52145Y-51971D01*
X52171Y-51971D01*
X52188Y-51984D01*
X52197Y-51998D01*
X52205Y-52024D01*
X52205Y-52091D01*
X52197Y-52118D01*
X52188Y-52131D01*
X52171Y-52144D01*
X52119Y-52144D01*
X52102Y-52131D01*
X52094Y-52118D01*
X49794Y-45524D02*
X49781Y-45537D01*
X49742Y-45550D01*
X49716Y-45550D01*
X49676Y-45537D01*
X49650Y-45510D01*
X49637Y-45484D01*
X49624Y-45430D01*
X49624Y-45390D01*
X49637Y-45337D01*
X49650Y-45310D01*
X49676Y-45284D01*
X49716Y-45270D01*
X49742Y-45270D01*
X49781Y-45284D01*
X49794Y-45297D01*
X49900Y-45297D02*
X49913Y-45284D01*
X49939Y-45270D01*
X50005Y-45270D01*
X50031Y-45284D01*
X50044Y-45297D01*
X50057Y-45324D01*
X50057Y-45350D01*
X50044Y-45390D01*
X49886Y-45550D01*
X50057Y-45550D01*
X50149Y-45270D02*
X50333Y-45270D01*
X50215Y-45550D01*
G54D22*
X51572Y-44435D02*
X51441Y-44435D01*
X51441Y-44159D01*
X51808Y-44435D02*
X51651Y-44435D01*
X51729Y-44435D02*
X51729Y-44159D01*
X51703Y-44198D01*
X51677Y-44224D01*
X51651Y-44238D01*
G54D11*
X52365Y-36410D02*
X52232Y-36502D01*
X52365Y-36567D02*
X52085Y-36567D01*
X52085Y-36462D01*
X52099Y-36436D01*
X52112Y-36423D01*
X52139Y-36410D01*
X52179Y-36410D01*
X52205Y-36423D01*
X52219Y-36436D01*
X52232Y-36462D01*
X52232Y-36567D01*
X52112Y-36304D02*
X52099Y-36291D01*
X52085Y-36265D01*
X52085Y-36199D01*
X52099Y-36173D01*
X52112Y-36160D01*
X52139Y-36147D01*
X52165Y-36147D01*
X52205Y-36160D01*
X52365Y-36318D01*
X52365Y-36147D01*
X52112Y-36041D02*
X52099Y-36028D01*
X52085Y-36002D01*
X52085Y-35936D01*
X52099Y-35910D01*
X52112Y-35897D01*
X52139Y-35884D01*
X52165Y-35884D01*
X52205Y-35897D01*
X52365Y-36055D01*
X52365Y-35884D01*
X51644Y-36580D02*
X51511Y-36672D01*
X51644Y-36737D02*
X51364Y-36737D01*
X51364Y-36632D01*
X51378Y-36606D01*
X51391Y-36593D01*
X51418Y-36580D01*
X51458Y-36580D01*
X51484Y-36593D01*
X51498Y-36606D01*
X51511Y-36632D01*
X51511Y-36737D01*
X51391Y-36474D02*
X51378Y-36461D01*
X51364Y-36435D01*
X51364Y-36369D01*
X51378Y-36343D01*
X51391Y-36330D01*
X51418Y-36317D01*
X51444Y-36317D01*
X51484Y-36330D01*
X51644Y-36488D01*
X51644Y-36317D01*
X51364Y-36225D02*
X51364Y-36054D01*
X51471Y-36146D01*
X51471Y-36106D01*
X51484Y-36080D01*
X51498Y-36067D01*
X51524Y-36054D01*
X51591Y-36054D01*
X51618Y-36067D01*
X51631Y-36080D01*
X51644Y-36106D01*
X51644Y-36185D01*
X51631Y-36211D01*
X51618Y-36225D01*
X54365Y-34684D02*
X54273Y-34551D01*
X54208Y-34684D02*
X54208Y-34404D01*
X54313Y-34404D01*
X54339Y-34418D01*
X54352Y-34431D01*
X54365Y-34458D01*
X54365Y-34498D01*
X54352Y-34524D01*
X54339Y-34538D01*
X54313Y-34551D01*
X54208Y-34551D01*
X54471Y-34431D02*
X54484Y-34418D01*
X54510Y-34404D01*
X54576Y-34404D01*
X54602Y-34418D01*
X54615Y-34431D01*
X54628Y-34458D01*
X54628Y-34484D01*
X54615Y-34524D01*
X54457Y-34684D01*
X54628Y-34684D01*
X54865Y-34498D02*
X54865Y-34684D01*
X54799Y-34391D02*
X54734Y-34591D01*
X54904Y-34591D01*
X53499Y-35807D02*
X53486Y-35820D01*
X53447Y-35833D01*
X53421Y-35833D01*
X53381Y-35820D01*
X53355Y-35793D01*
X53342Y-35767D01*
X53329Y-35713D01*
X53329Y-35673D01*
X53342Y-35620D01*
X53355Y-35593D01*
X53381Y-35567D01*
X53421Y-35553D01*
X53447Y-35553D01*
X53486Y-35567D01*
X53499Y-35580D01*
X53591Y-35553D02*
X53775Y-35553D01*
X53657Y-35833D01*
X53933Y-35553D02*
X53960Y-35553D01*
X53986Y-35567D01*
X53999Y-35580D01*
X54012Y-35607D01*
X54025Y-35660D01*
X54025Y-35727D01*
X54012Y-35780D01*
X53999Y-35807D01*
X53986Y-35820D01*
X53960Y-35833D01*
X53933Y-35833D01*
X53907Y-35820D01*
X53894Y-35807D01*
X53881Y-35780D01*
X53868Y-35727D01*
X53868Y-35660D01*
X53881Y-35607D01*
X53894Y-35580D01*
X53907Y-35567D01*
X53933Y-35553D01*
X54952Y-35819D02*
X54939Y-35832D01*
X54900Y-35845D01*
X54874Y-35845D01*
X54834Y-35832D01*
X54808Y-35805D01*
X54795Y-35779D01*
X54782Y-35725D01*
X54782Y-35685D01*
X54795Y-35632D01*
X54808Y-35605D01*
X54834Y-35579D01*
X54874Y-35565D01*
X54900Y-35565D01*
X54939Y-35579D01*
X54952Y-35592D01*
X55189Y-35565D02*
X55136Y-35565D01*
X55110Y-35579D01*
X55097Y-35592D01*
X55071Y-35632D01*
X55058Y-35685D01*
X55058Y-35792D01*
X55071Y-35819D01*
X55084Y-35832D01*
X55110Y-35845D01*
X55163Y-35845D01*
X55189Y-35832D01*
X55202Y-35819D01*
X55215Y-35792D01*
X55215Y-35725D01*
X55202Y-35699D01*
X55189Y-35685D01*
X55163Y-35672D01*
X55110Y-35672D01*
X55084Y-35685D01*
X55071Y-35699D01*
X55058Y-35725D01*
X55465Y-35565D02*
X55334Y-35565D01*
X55321Y-35699D01*
X55334Y-35685D01*
X55360Y-35672D01*
X55426Y-35672D01*
X55452Y-35685D01*
X55465Y-35699D01*
X55478Y-35725D01*
X55478Y-35792D01*
X55465Y-35819D01*
X55452Y-35832D01*
X55426Y-35845D01*
X55360Y-35845D01*
X55334Y-35832D01*
X55321Y-35819D01*
X56495Y-35426D02*
X56482Y-35439D01*
X56443Y-35452D01*
X56417Y-35452D01*
X56377Y-35439D01*
X56351Y-35412D01*
X56338Y-35386D01*
X56325Y-35332D01*
X56325Y-35292D01*
X56338Y-35239D01*
X56351Y-35212D01*
X56377Y-35186D01*
X56417Y-35172D01*
X56443Y-35172D01*
X56482Y-35186D01*
X56495Y-35199D01*
X56732Y-35172D02*
X56679Y-35172D01*
X56653Y-35186D01*
X56640Y-35199D01*
X56614Y-35239D01*
X56601Y-35292D01*
X56601Y-35399D01*
X56614Y-35426D01*
X56627Y-35439D01*
X56653Y-35452D01*
X56706Y-35452D01*
X56732Y-35439D01*
X56745Y-35426D01*
X56758Y-35399D01*
X56758Y-35332D01*
X56745Y-35306D01*
X56732Y-35292D01*
X56706Y-35279D01*
X56653Y-35279D01*
X56627Y-35292D01*
X56614Y-35306D01*
X56601Y-35332D01*
X56995Y-35266D02*
X56995Y-35452D01*
X56929Y-35159D02*
X56864Y-35359D01*
X57034Y-35359D01*
X57811Y-35654D02*
X57824Y-35667D01*
X57837Y-35706D01*
X57837Y-35732D01*
X57824Y-35772D01*
X57797Y-35798D01*
X57771Y-35811D01*
X57717Y-35824D01*
X57677Y-35824D01*
X57624Y-35811D01*
X57597Y-35798D01*
X57571Y-35772D01*
X57557Y-35732D01*
X57557Y-35706D01*
X57571Y-35667D01*
X57584Y-35654D01*
X57557Y-35417D02*
X57557Y-35470D01*
X57571Y-35496D01*
X57584Y-35509D01*
X57624Y-35535D01*
X57677Y-35548D01*
X57784Y-35548D01*
X57811Y-35535D01*
X57824Y-35522D01*
X57837Y-35496D01*
X57837Y-35443D01*
X57824Y-35417D01*
X57811Y-35404D01*
X57784Y-35391D01*
X57717Y-35391D01*
X57691Y-35404D01*
X57677Y-35417D01*
X57664Y-35443D01*
X57664Y-35496D01*
X57677Y-35522D01*
X57691Y-35535D01*
X57717Y-35548D01*
X57677Y-35233D02*
X57664Y-35259D01*
X57651Y-35272D01*
X57624Y-35285D01*
X57611Y-35285D01*
X57584Y-35272D01*
X57571Y-35259D01*
X57557Y-35233D01*
X57557Y-35180D01*
X57571Y-35154D01*
X57584Y-35141D01*
X57611Y-35128D01*
X57624Y-35128D01*
X57651Y-35141D01*
X57664Y-35154D01*
X57677Y-35180D01*
X57677Y-35233D01*
X57691Y-35259D01*
X57704Y-35272D01*
X57731Y-35285D01*
X57784Y-35285D01*
X57811Y-35272D01*
X57824Y-35259D01*
X57837Y-35233D01*
X57837Y-35180D01*
X57824Y-35154D01*
X57811Y-35141D01*
X57784Y-35128D01*
X57731Y-35128D01*
X57704Y-35141D01*
X57691Y-35154D01*
X57677Y-35180D01*
X55015Y-36292D02*
X55002Y-36305D01*
X54963Y-36318D01*
X54937Y-36318D01*
X54897Y-36305D01*
X54871Y-36278D01*
X54858Y-36252D01*
X54845Y-36198D01*
X54845Y-36158D01*
X54858Y-36105D01*
X54871Y-36078D01*
X54897Y-36052D01*
X54937Y-36038D01*
X54963Y-36038D01*
X55002Y-36052D01*
X55015Y-36065D01*
X55252Y-36132D02*
X55252Y-36318D01*
X55186Y-36025D02*
X55121Y-36225D01*
X55291Y-36225D01*
X55515Y-36038D02*
X55462Y-36038D01*
X55436Y-36052D01*
X55423Y-36065D01*
X55397Y-36105D01*
X55384Y-36158D01*
X55384Y-36265D01*
X55397Y-36292D01*
X55410Y-36305D01*
X55436Y-36318D01*
X55489Y-36318D01*
X55515Y-36305D01*
X55528Y-36292D01*
X55541Y-36265D01*
X55541Y-36198D01*
X55528Y-36172D01*
X55515Y-36158D01*
X55489Y-36145D01*
X55436Y-36145D01*
X55410Y-36158D01*
X55397Y-36172D01*
X55384Y-36198D01*
X59567Y-35292D02*
X59580Y-35305D01*
X59593Y-35344D01*
X59593Y-35370D01*
X59580Y-35410D01*
X59553Y-35436D01*
X59527Y-35449D01*
X59473Y-35462D01*
X59433Y-35462D01*
X59380Y-35449D01*
X59353Y-35436D01*
X59327Y-35410D01*
X59313Y-35370D01*
X59313Y-35344D01*
X59327Y-35305D01*
X59340Y-35292D01*
X59407Y-35055D02*
X59593Y-35055D01*
X59300Y-35121D02*
X59500Y-35186D01*
X59500Y-35016D01*
X59593Y-34897D02*
X59593Y-34845D01*
X59580Y-34818D01*
X59567Y-34805D01*
X59527Y-34779D01*
X59473Y-34766D01*
X59367Y-34766D01*
X59340Y-34779D01*
X59327Y-34792D01*
X59313Y-34818D01*
X59313Y-34871D01*
X59327Y-34897D01*
X59340Y-34910D01*
X59367Y-34923D01*
X59433Y-34923D01*
X59460Y-34910D01*
X59473Y-34897D01*
X59487Y-34871D01*
X59487Y-34818D01*
X59473Y-34792D01*
X59460Y-34779D01*
X59433Y-34766D01*
X61713Y-44768D02*
X61580Y-44828D01*
X61713Y-44871D02*
X61433Y-44871D01*
X61433Y-44803D01*
X61447Y-44785D01*
X61460Y-44777D01*
X61487Y-44768D01*
X61527Y-44768D01*
X61553Y-44777D01*
X61567Y-44785D01*
X61580Y-44803D01*
X61580Y-44871D01*
X61713Y-44597D02*
X61713Y-44700D01*
X61713Y-44648D02*
X61433Y-44648D01*
X61473Y-44665D01*
X61500Y-44683D01*
X61513Y-44700D01*
X61713Y-44512D02*
X61713Y-44477D01*
X61700Y-44460D01*
X61687Y-44452D01*
X61647Y-44434D01*
X61593Y-44426D01*
X61487Y-44426D01*
X61460Y-44434D01*
X61447Y-44443D01*
X61433Y-44460D01*
X61433Y-44494D01*
X61447Y-44512D01*
X61460Y-44520D01*
X61487Y-44529D01*
X61553Y-44529D01*
X61580Y-44520D01*
X61593Y-44512D01*
X61607Y-44494D01*
X61607Y-44460D01*
X61593Y-44443D01*
X61580Y-44434D01*
X61553Y-44426D01*
X63412Y-47028D02*
X63279Y-47120D01*
X63412Y-47185D02*
X63132Y-47185D01*
X63132Y-47080D01*
X63146Y-47054D01*
X63159Y-47041D01*
X63186Y-47028D01*
X63226Y-47028D01*
X63252Y-47041D01*
X63266Y-47054D01*
X63279Y-47080D01*
X63279Y-47185D01*
X63412Y-46765D02*
X63412Y-46922D01*
X63412Y-46844D02*
X63132Y-46844D01*
X63172Y-46870D01*
X63199Y-46896D01*
X63212Y-46922D01*
X63132Y-46673D02*
X63132Y-46489D01*
X63412Y-46607D01*
X61756Y-43764D02*
X61623Y-43824D01*
X61756Y-43867D02*
X61476Y-43867D01*
X61476Y-43799D01*
X61490Y-43781D01*
X61503Y-43773D01*
X61530Y-43764D01*
X61570Y-43764D01*
X61596Y-43773D01*
X61610Y-43781D01*
X61623Y-43799D01*
X61623Y-43867D01*
X61756Y-43593D02*
X61756Y-43696D01*
X61756Y-43644D02*
X61476Y-43644D01*
X61516Y-43661D01*
X61543Y-43679D01*
X61556Y-43696D01*
X61570Y-43439D02*
X61756Y-43439D01*
X61463Y-43482D02*
X61663Y-43525D01*
X61663Y-43413D01*
X64583Y-40833D02*
X64450Y-40925D01*
X64583Y-40990D02*
X64303Y-40990D01*
X64303Y-40885D01*
X64317Y-40859D01*
X64330Y-40846D01*
X64357Y-40833D01*
X64397Y-40833D01*
X64423Y-40846D01*
X64437Y-40859D01*
X64450Y-40885D01*
X64450Y-40990D01*
X64583Y-40570D02*
X64583Y-40727D01*
X64583Y-40649D02*
X64303Y-40649D01*
X64343Y-40675D01*
X64370Y-40701D01*
X64383Y-40727D01*
X64303Y-40399D02*
X64303Y-40372D01*
X64317Y-40346D01*
X64330Y-40333D01*
X64357Y-40320D01*
X64410Y-40307D01*
X64477Y-40307D01*
X64530Y-40320D01*
X64557Y-40333D01*
X64570Y-40346D01*
X64583Y-40372D01*
X64583Y-40399D01*
X64570Y-40425D01*
X64557Y-40438D01*
X64530Y-40451D01*
X64477Y-40464D01*
X64410Y-40464D01*
X64357Y-40451D01*
X64330Y-40438D01*
X64317Y-40425D01*
X64303Y-40399D01*
X63574Y-44109D02*
X63514Y-43976D01*
X63471Y-44109D02*
X63471Y-43829D01*
X63539Y-43829D01*
X63557Y-43843D01*
X63565Y-43856D01*
X63574Y-43883D01*
X63574Y-43923D01*
X63565Y-43949D01*
X63557Y-43963D01*
X63539Y-43976D01*
X63471Y-43976D01*
X63745Y-44109D02*
X63642Y-44109D01*
X63694Y-44109D02*
X63694Y-43829D01*
X63677Y-43869D01*
X63659Y-43896D01*
X63642Y-43909D01*
X63813Y-43856D02*
X63822Y-43843D01*
X63839Y-43829D01*
X63882Y-43829D01*
X63899Y-43843D01*
X63908Y-43856D01*
X63916Y-43883D01*
X63916Y-43909D01*
X63908Y-43949D01*
X63805Y-44109D01*
X63916Y-44109D01*
X54042Y-48896D02*
X53950Y-48763D01*
X53885Y-48896D02*
X53885Y-48616D01*
X53990Y-48616D01*
X54016Y-48630D01*
X54029Y-48643D01*
X54042Y-48670D01*
X54042Y-48710D01*
X54029Y-48736D01*
X54016Y-48750D01*
X53990Y-48763D01*
X53885Y-48763D01*
X54305Y-48896D02*
X54148Y-48896D01*
X54226Y-48896D02*
X54226Y-48616D01*
X54200Y-48656D01*
X54174Y-48683D01*
X54148Y-48696D01*
X54397Y-48616D02*
X54568Y-48616D01*
X54476Y-48723D01*
X54516Y-48723D01*
X54542Y-48736D01*
X54555Y-48750D01*
X54568Y-48776D01*
X54568Y-48843D01*
X54555Y-48870D01*
X54542Y-48883D01*
X54516Y-48896D01*
X54437Y-48896D01*
X54411Y-48883D01*
X54397Y-48870D01*
X54058Y-48267D02*
X53966Y-48134D01*
X53901Y-48267D02*
X53901Y-47987D01*
X54006Y-47987D01*
X54032Y-48001D01*
X54045Y-48014D01*
X54058Y-48041D01*
X54058Y-48081D01*
X54045Y-48107D01*
X54032Y-48121D01*
X54006Y-48134D01*
X53901Y-48134D01*
X54321Y-48267D02*
X54164Y-48267D01*
X54242Y-48267D02*
X54242Y-47987D01*
X54216Y-48027D01*
X54190Y-48054D01*
X54164Y-48067D01*
X54558Y-47987D02*
X54505Y-47987D01*
X54479Y-48001D01*
X54466Y-48014D01*
X54440Y-48054D01*
X54427Y-48107D01*
X54427Y-48214D01*
X54440Y-48241D01*
X54453Y-48254D01*
X54479Y-48267D01*
X54532Y-48267D01*
X54558Y-48254D01*
X54571Y-48241D01*
X54584Y-48214D01*
X54584Y-48147D01*
X54571Y-48121D01*
X54558Y-48107D01*
X54532Y-48094D01*
X54479Y-48094D01*
X54453Y-48107D01*
X54440Y-48121D01*
X54427Y-48147D01*
X54058Y-47689D02*
X54045Y-47702D01*
X54006Y-47715D01*
X53980Y-47715D01*
X53940Y-47702D01*
X53914Y-47675D01*
X53901Y-47649D01*
X53888Y-47595D01*
X53888Y-47555D01*
X53901Y-47502D01*
X53914Y-47475D01*
X53940Y-47449D01*
X53980Y-47435D01*
X54006Y-47435D01*
X54045Y-47449D01*
X54058Y-47462D01*
X54295Y-47435D02*
X54242Y-47435D01*
X54216Y-47449D01*
X54203Y-47462D01*
X54177Y-47502D01*
X54164Y-47555D01*
X54164Y-47662D01*
X54177Y-47689D01*
X54190Y-47702D01*
X54216Y-47715D01*
X54269Y-47715D01*
X54295Y-47702D01*
X54308Y-47689D01*
X54321Y-47662D01*
X54321Y-47595D01*
X54308Y-47569D01*
X54295Y-47555D01*
X54269Y-47542D01*
X54216Y-47542D01*
X54190Y-47555D01*
X54177Y-47569D01*
X54164Y-47595D01*
X54492Y-47435D02*
X54519Y-47435D01*
X54545Y-47449D01*
X54558Y-47462D01*
X54571Y-47489D01*
X54584Y-47542D01*
X54584Y-47609D01*
X54571Y-47662D01*
X54558Y-47689D01*
X54545Y-47702D01*
X54519Y-47715D01*
X54492Y-47715D01*
X54466Y-47702D01*
X54453Y-47689D01*
X54440Y-47662D01*
X54427Y-47609D01*
X54427Y-47542D01*
X54440Y-47489D01*
X54453Y-47462D01*
X54466Y-47449D01*
X54492Y-47435D01*
X52500Y-45162D02*
X52513Y-45175D01*
X52526Y-45214D01*
X52526Y-45240D01*
X52513Y-45280D01*
X52486Y-45306D01*
X52460Y-45319D01*
X52406Y-45332D01*
X52366Y-45332D01*
X52313Y-45319D01*
X52286Y-45306D01*
X52260Y-45280D01*
X52246Y-45240D01*
X52246Y-45214D01*
X52260Y-45175D01*
X52273Y-45162D01*
X52246Y-44912D02*
X52246Y-45043D01*
X52380Y-45056D01*
X52366Y-45043D01*
X52353Y-45017D01*
X52353Y-44951D01*
X52366Y-44925D01*
X52380Y-44912D01*
X52406Y-44899D01*
X52473Y-44899D01*
X52500Y-44912D01*
X52513Y-44925D01*
X52526Y-44951D01*
X52526Y-45017D01*
X52513Y-45043D01*
X52500Y-45056D01*
X52246Y-44807D02*
X52246Y-44623D01*
X52526Y-44741D01*
X51005Y-46700D02*
X50913Y-46567D01*
X50848Y-46700D02*
X50848Y-46420D01*
X50953Y-46420D01*
X50979Y-46434D01*
X50992Y-46447D01*
X51005Y-46474D01*
X51005Y-46514D01*
X50992Y-46540D01*
X50979Y-46554D01*
X50953Y-46567D01*
X50848Y-46567D01*
X51242Y-46420D02*
X51189Y-46420D01*
X51163Y-46434D01*
X51150Y-46447D01*
X51124Y-46487D01*
X51111Y-46540D01*
X51111Y-46647D01*
X51124Y-46674D01*
X51137Y-46687D01*
X51163Y-46700D01*
X51216Y-46700D01*
X51242Y-46687D01*
X51255Y-46674D01*
X51268Y-46647D01*
X51268Y-46580D01*
X51255Y-46554D01*
X51242Y-46540D01*
X51216Y-46527D01*
X51163Y-46527D01*
X51137Y-46540D01*
X51124Y-46554D01*
X51111Y-46580D01*
X51959Y-45133D02*
X51826Y-45225D01*
X51959Y-45290D02*
X51679Y-45290D01*
X51679Y-45185D01*
X51693Y-45159D01*
X51706Y-45146D01*
X51733Y-45133D01*
X51773Y-45133D01*
X51799Y-45146D01*
X51813Y-45159D01*
X51826Y-45185D01*
X51826Y-45290D01*
X51773Y-44896D02*
X51959Y-44896D01*
X51666Y-44962D02*
X51866Y-45027D01*
X51866Y-44857D01*
X54237Y-45434D02*
X54250Y-45447D01*
X54263Y-45486D01*
X54263Y-45512D01*
X54250Y-45552D01*
X54223Y-45578D01*
X54197Y-45591D01*
X54143Y-45604D01*
X54103Y-45604D01*
X54050Y-45591D01*
X54023Y-45578D01*
X53997Y-45552D01*
X53983Y-45512D01*
X53983Y-45486D01*
X53997Y-45447D01*
X54010Y-45434D01*
X53983Y-45184D02*
X53983Y-45315D01*
X54117Y-45328D01*
X54103Y-45315D01*
X54090Y-45289D01*
X54090Y-45223D01*
X54103Y-45197D01*
X54117Y-45184D01*
X54143Y-45171D01*
X54210Y-45171D01*
X54237Y-45184D01*
X54250Y-45197D01*
X54263Y-45223D01*
X54263Y-45289D01*
X54250Y-45315D01*
X54237Y-45328D01*
X53983Y-45079D02*
X53983Y-44908D01*
X54090Y-45000D01*
X54090Y-44960D01*
X54103Y-44934D01*
X54117Y-44921D01*
X54143Y-44908D01*
X54210Y-44908D01*
X54237Y-44921D01*
X54250Y-44934D01*
X54263Y-44960D01*
X54263Y-45039D01*
X54250Y-45065D01*
X54237Y-45079D01*
X56386Y-45036D02*
X56399Y-45049D01*
X56412Y-45088D01*
X56412Y-45114D01*
X56399Y-45154D01*
X56372Y-45180D01*
X56346Y-45193D01*
X56292Y-45206D01*
X56252Y-45206D01*
X56199Y-45193D01*
X56172Y-45180D01*
X56146Y-45154D01*
X56132Y-45114D01*
X56132Y-45088D01*
X56146Y-45049D01*
X56159Y-45036D01*
X56132Y-44786D02*
X56132Y-44917D01*
X56266Y-44930D01*
X56252Y-44917D01*
X56239Y-44891D01*
X56239Y-44825D01*
X56252Y-44799D01*
X56266Y-44786D01*
X56292Y-44773D01*
X56359Y-44773D01*
X56386Y-44786D01*
X56399Y-44799D01*
X56412Y-44825D01*
X56412Y-44891D01*
X56399Y-44917D01*
X56386Y-44930D01*
X56159Y-44667D02*
X56146Y-44654D01*
X56132Y-44628D01*
X56132Y-44562D01*
X56146Y-44536D01*
X56159Y-44523D01*
X56186Y-44510D01*
X56212Y-44510D01*
X56252Y-44523D01*
X56412Y-44681D01*
X56412Y-44510D01*
X66092Y-52865D02*
X66092Y-52585D01*
X66160Y-52585D01*
X66178Y-52599D01*
X66186Y-52612D01*
X66195Y-52639D01*
X66195Y-52679D01*
X66186Y-52705D01*
X66178Y-52719D01*
X66160Y-52732D01*
X66092Y-52732D01*
X66349Y-52679D02*
X66349Y-52865D01*
X66306Y-52572D02*
X66263Y-52772D01*
X66375Y-52772D01*
X63988Y-48416D02*
X63988Y-48616D01*
X63980Y-48656D01*
X63963Y-48683D01*
X63937Y-48696D01*
X63920Y-48696D01*
X64074Y-48696D02*
X64074Y-48416D01*
X64142Y-48416D01*
X64160Y-48430D01*
X64168Y-48443D01*
X64177Y-48470D01*
X64177Y-48510D01*
X64168Y-48536D01*
X64160Y-48550D01*
X64142Y-48563D01*
X64074Y-48563D01*
X64348Y-48696D02*
X64245Y-48696D01*
X64297Y-48696D02*
X64297Y-48416D01*
X64280Y-48456D01*
X64262Y-48483D01*
X64245Y-48496D01*
X64397Y-43825D02*
X64397Y-44025D01*
X64389Y-44065D01*
X64372Y-44092D01*
X64346Y-44105D01*
X64329Y-44105D01*
X64483Y-44105D02*
X64483Y-43825D01*
X64551Y-43825D01*
X64569Y-43839D01*
X64577Y-43852D01*
X64586Y-43879D01*
X64586Y-43919D01*
X64577Y-43945D01*
X64569Y-43959D01*
X64551Y-43972D01*
X64483Y-43972D01*
X64654Y-43852D02*
X64663Y-43839D01*
X64680Y-43825D01*
X64723Y-43825D01*
X64740Y-43839D01*
X64749Y-43852D01*
X64757Y-43879D01*
X64757Y-43905D01*
X64749Y-43945D01*
X64646Y-44105D01*
X64757Y-44105D01*
X52253Y-48723D02*
X52279Y-48736D01*
X52287Y-48749D01*
X52296Y-48776D01*
X52296Y-48816D01*
X52287Y-48843D01*
X52279Y-48856D01*
X52261Y-48869D01*
X52193Y-48869D01*
X52193Y-48589D01*
X52253Y-48589D01*
X52270Y-48603D01*
X52279Y-48616D01*
X52287Y-48643D01*
X52287Y-48669D01*
X52279Y-48696D01*
X52270Y-48709D01*
X52253Y-48723D01*
X52193Y-48723D01*
X52347Y-48589D02*
X52450Y-48589D01*
X52399Y-48869D02*
X52399Y-48589D01*
X52604Y-48869D02*
X52501Y-48869D01*
X52553Y-48869D02*
X52553Y-48589D01*
X52536Y-48629D01*
X52518Y-48656D01*
X52501Y-48669D01*
X50230Y-51019D02*
X50230Y-50739D01*
X50335Y-50739D01*
X50361Y-50753D01*
X50374Y-50766D01*
X50387Y-50793D01*
X50387Y-50833D01*
X50374Y-50859D01*
X50361Y-50873D01*
X50335Y-50886D01*
X50230Y-50886D01*
X50624Y-50739D02*
X50571Y-50739D01*
X50545Y-50753D01*
X50532Y-50766D01*
X50506Y-50806D01*
X50493Y-50859D01*
X50493Y-50966D01*
X50506Y-50993D01*
X50519Y-51006D01*
X50545Y-51019D01*
X50598Y-51019D01*
X50624Y-51006D01*
X50637Y-50993D01*
X50650Y-50966D01*
X50650Y-50899D01*
X50637Y-50873D01*
X50624Y-50859D01*
X50598Y-50846D01*
X50545Y-50846D01*
X50519Y-50859D01*
X50506Y-50873D01*
X50493Y-50899D01*
X62716Y-42805D02*
X62716Y-43005D01*
X62708Y-43045D01*
X62691Y-43072D01*
X62665Y-43085D01*
X62648Y-43085D01*
X62802Y-43085D02*
X62802Y-42805D01*
X62870Y-42805D01*
X62888Y-42819D01*
X62896Y-42832D01*
X62905Y-42859D01*
X62905Y-42899D01*
X62896Y-42925D01*
X62888Y-42939D01*
X62870Y-42952D01*
X62802Y-42952D01*
X62965Y-42805D02*
X63076Y-42805D01*
X63016Y-42912D01*
X63042Y-42912D01*
X63059Y-42925D01*
X63068Y-42939D01*
X63076Y-42965D01*
X63076Y-43032D01*
X63068Y-43059D01*
X63059Y-43072D01*
X63042Y-43085D01*
X62990Y-43085D01*
X62973Y-43072D01*
X62965Y-43059D01*
X63574Y-43696D02*
X63514Y-43563D01*
X63471Y-43696D02*
X63471Y-43416D01*
X63539Y-43416D01*
X63557Y-43430D01*
X63565Y-43443D01*
X63574Y-43470D01*
X63574Y-43510D01*
X63565Y-43536D01*
X63557Y-43550D01*
X63539Y-43563D01*
X63471Y-43563D01*
X63745Y-43696D02*
X63642Y-43696D01*
X63694Y-43696D02*
X63694Y-43416D01*
X63677Y-43456D01*
X63659Y-43483D01*
X63642Y-43496D01*
X63848Y-43536D02*
X63830Y-43523D01*
X63822Y-43510D01*
X63813Y-43483D01*
X63813Y-43470D01*
X63822Y-43443D01*
X63830Y-43430D01*
X63848Y-43416D01*
X63882Y-43416D01*
X63899Y-43430D01*
X63908Y-43443D01*
X63916Y-43470D01*
X63916Y-43483D01*
X63908Y-43510D01*
X63899Y-43523D01*
X63882Y-43536D01*
X63848Y-43536D01*
X63830Y-43550D01*
X63822Y-43563D01*
X63813Y-43590D01*
X63813Y-43643D01*
X63822Y-43670D01*
X63830Y-43683D01*
X63848Y-43696D01*
X63882Y-43696D01*
X63899Y-43683D01*
X63908Y-43670D01*
X63916Y-43643D01*
X63916Y-43590D01*
X63908Y-43563D01*
X63899Y-43550D01*
X63882Y-43536D01*
X58645Y-42940D02*
X58585Y-42807D01*
X58542Y-42940D02*
X58542Y-42660D01*
X58610Y-42660D01*
X58628Y-42674D01*
X58636Y-42687D01*
X58645Y-42714D01*
X58645Y-42754D01*
X58636Y-42780D01*
X58628Y-42794D01*
X58610Y-42807D01*
X58542Y-42807D01*
X58816Y-42940D02*
X58713Y-42940D01*
X58765Y-42940D02*
X58765Y-42660D01*
X58748Y-42700D01*
X58730Y-42727D01*
X58713Y-42740D01*
X58979Y-42660D02*
X58893Y-42660D01*
X58884Y-42794D01*
X58893Y-42780D01*
X58910Y-42767D01*
X58953Y-42767D01*
X58970Y-42780D01*
X58979Y-42794D01*
X58987Y-42820D01*
X58987Y-42887D01*
X58979Y-42914D01*
X58970Y-42927D01*
X58953Y-42940D01*
X58910Y-42940D01*
X58893Y-42927D01*
X58884Y-42914D01*
X63408Y-47973D02*
X63275Y-48065D01*
X63408Y-48130D02*
X63128Y-48130D01*
X63128Y-48025D01*
X63142Y-47999D01*
X63155Y-47986D01*
X63182Y-47973D01*
X63222Y-47973D01*
X63248Y-47986D01*
X63262Y-47999D01*
X63275Y-48025D01*
X63275Y-48130D01*
X63408Y-47710D02*
X63408Y-47867D01*
X63408Y-47789D02*
X63128Y-47789D01*
X63168Y-47815D01*
X63195Y-47841D01*
X63208Y-47867D01*
X63408Y-47447D02*
X63408Y-47604D01*
X63408Y-47526D02*
X63128Y-47526D01*
X63168Y-47552D01*
X63195Y-47578D01*
X63208Y-47604D01*
X60829Y-43274D02*
X60829Y-42994D01*
X60872Y-42994D01*
X60897Y-43008D01*
X60915Y-43034D01*
X60923Y-43061D01*
X60932Y-43114D01*
X60932Y-43154D01*
X60923Y-43208D01*
X60915Y-43234D01*
X60897Y-43261D01*
X60872Y-43274D01*
X60829Y-43274D01*
X61095Y-42994D02*
X61009Y-42994D01*
X61000Y-43128D01*
X61009Y-43114D01*
X61026Y-43101D01*
X61069Y-43101D01*
X61086Y-43114D01*
X61095Y-43128D01*
X61103Y-43154D01*
X61103Y-43221D01*
X61095Y-43248D01*
X61086Y-43261D01*
X61069Y-43274D01*
X61026Y-43274D01*
X61009Y-43261D01*
X61000Y-43248D01*
G54D16*
X58401Y-44219D02*
X58401Y-44462D01*
X58416Y-44491D01*
X58430Y-44505D01*
X58459Y-44519D01*
X58516Y-44519D01*
X58544Y-44505D01*
X58559Y-44491D01*
X58573Y-44462D01*
X58573Y-44219D01*
X58844Y-44319D02*
X58844Y-44519D01*
X58773Y-44205D02*
X58701Y-44419D01*
X58887Y-44419D01*
G54D11*
X60428Y-50353D02*
X60336Y-50220D01*
X60271Y-50353D02*
X60271Y-50073D01*
X60376Y-50073D01*
X60402Y-50087D01*
X60415Y-50100D01*
X60428Y-50127D01*
X60428Y-50167D01*
X60415Y-50193D01*
X60402Y-50207D01*
X60376Y-50220D01*
X60271Y-50220D01*
X60520Y-50073D02*
X60691Y-50073D01*
X60599Y-50180D01*
X60639Y-50180D01*
X60665Y-50193D01*
X60678Y-50207D01*
X60691Y-50233D01*
X60691Y-50300D01*
X60678Y-50327D01*
X60665Y-50340D01*
X60639Y-50353D01*
X60560Y-50353D01*
X60534Y-50340D01*
X60520Y-50327D01*
X60928Y-50073D02*
X60875Y-50073D01*
X60849Y-50087D01*
X60836Y-50100D01*
X60810Y-50140D01*
X60797Y-50193D01*
X60797Y-50300D01*
X60810Y-50327D01*
X60823Y-50340D01*
X60849Y-50353D01*
X60902Y-50353D01*
X60928Y-50340D01*
X60941Y-50327D01*
X60954Y-50300D01*
X60954Y-50233D01*
X60941Y-50207D01*
X60928Y-50193D01*
X60902Y-50180D01*
X60849Y-50180D01*
X60823Y-50193D01*
X60810Y-50207D01*
X60797Y-50233D01*
X60403Y-49583D02*
X60390Y-49596D01*
X60351Y-49609D01*
X60325Y-49609D01*
X60285Y-49596D01*
X60259Y-49569D01*
X60246Y-49543D01*
X60233Y-49489D01*
X60233Y-49449D01*
X60246Y-49396D01*
X60259Y-49369D01*
X60285Y-49343D01*
X60325Y-49329D01*
X60351Y-49329D01*
X60390Y-49343D01*
X60403Y-49356D01*
X60495Y-49329D02*
X60679Y-49329D01*
X60561Y-49609D01*
X60395Y-49957D02*
X60382Y-49970D01*
X60343Y-49983D01*
X60317Y-49983D01*
X60277Y-49970D01*
X60251Y-49943D01*
X60238Y-49917D01*
X60225Y-49863D01*
X60225Y-49823D01*
X60238Y-49770D01*
X60251Y-49743D01*
X60277Y-49717D01*
X60317Y-49703D01*
X60343Y-49703D01*
X60382Y-49717D01*
X60395Y-49730D01*
X60632Y-49703D02*
X60579Y-49703D01*
X60553Y-49717D01*
X60540Y-49730D01*
X60514Y-49770D01*
X60501Y-49823D01*
X60501Y-49930D01*
X60514Y-49957D01*
X60527Y-49970D01*
X60553Y-49983D01*
X60606Y-49983D01*
X60632Y-49970D01*
X60645Y-49957D01*
X60658Y-49930D01*
X60658Y-49863D01*
X60645Y-49837D01*
X60632Y-49823D01*
X60606Y-49810D01*
X60553Y-49810D01*
X60527Y-49823D01*
X60514Y-49837D01*
X60501Y-49863D01*
G54D23*
X48918Y-42567D02*
X48518Y-42567D01*
X48518Y-42414D01*
X48537Y-42376D01*
X48556Y-42357D01*
X48594Y-42338D01*
X48651Y-42338D01*
X48689Y-42357D01*
X48708Y-42376D01*
X48727Y-42414D01*
X48727Y-42567D01*
X48918Y-41957D02*
X48918Y-42186D01*
X48918Y-42072D02*
X48518Y-42072D01*
X48575Y-42110D01*
X48613Y-42148D01*
X48632Y-42186D01*
G54D15*
X45880Y-43691D02*
X45899Y-43710D01*
X45918Y-43767D01*
X45918Y-43805D01*
X45899Y-43863D01*
X45861Y-43901D01*
X45823Y-43920D01*
X45746Y-43939D01*
X45689Y-43939D01*
X45613Y-43920D01*
X45575Y-43901D01*
X45537Y-43863D01*
X45518Y-43805D01*
X45518Y-43767D01*
X45537Y-43710D01*
X45556Y-43691D01*
X45518Y-43444D02*
X45518Y-43367D01*
X45537Y-43329D01*
X45575Y-43291D01*
X45651Y-43272D01*
X45785Y-43272D01*
X45861Y-43291D01*
X45899Y-43329D01*
X45918Y-43367D01*
X45918Y-43444D01*
X45899Y-43482D01*
X45861Y-43520D01*
X45785Y-43539D01*
X45651Y-43539D01*
X45575Y-43520D01*
X45537Y-43482D01*
X45518Y-43444D01*
X45918Y-43101D02*
X45518Y-43101D01*
X45918Y-42872D01*
X45518Y-42872D01*
X45918Y-42682D02*
X45518Y-42682D01*
X45918Y-42453D01*
X45518Y-42453D01*
X45956Y-42358D02*
X45956Y-42053D01*
X45918Y-41748D02*
X45918Y-41977D01*
X45918Y-41863D02*
X45518Y-41863D01*
X45575Y-41901D01*
X45613Y-41939D01*
X45632Y-41977D01*
X45556Y-41596D02*
X45537Y-41577D01*
X45518Y-41539D01*
X45518Y-41443D01*
X45537Y-41405D01*
X45556Y-41386D01*
X45594Y-41367D01*
X45632Y-41367D01*
X45689Y-41386D01*
X45918Y-41615D01*
X45918Y-41367D01*
X45518Y-41234D02*
X45918Y-40967D01*
X45518Y-40967D02*
X45918Y-41234D01*
X45556Y-40834D02*
X45537Y-40815D01*
X45518Y-40777D01*
X45518Y-40681D01*
X45537Y-40643D01*
X45556Y-40624D01*
X45594Y-40605D01*
X45632Y-40605D01*
X45689Y-40624D01*
X45918Y-40853D01*
X45918Y-40605D01*
G54D21*
X60601Y-44080D02*
X60601Y-44303D01*
X60614Y-44329D01*
X60627Y-44343D01*
X60653Y-44356D01*
X60706Y-44356D01*
X60732Y-44343D01*
X60745Y-44329D01*
X60758Y-44303D01*
X60758Y-44080D01*
X60903Y-44356D02*
X60955Y-44356D01*
X60982Y-44343D01*
X60995Y-44329D01*
X61021Y-44290D01*
X61034Y-44237D01*
X61034Y-44132D01*
X61021Y-44106D01*
X61008Y-44093D01*
X60982Y-44080D01*
X60929Y-44080D01*
X60903Y-44093D01*
X60890Y-44106D01*
X60877Y-44132D01*
X60877Y-44198D01*
X60890Y-44224D01*
X60903Y-44237D01*
X60929Y-44251D01*
X60982Y-44251D01*
X61008Y-44237D01*
X61021Y-44224D01*
X61034Y-44198D01*
G54D13*
X62131Y-52395D02*
X62131Y-52823D01*
X62103Y-52909D01*
X62046Y-52966D01*
X61960Y-52995D01*
X61903Y-52995D01*
X62674Y-52595D02*
X62674Y-52995D01*
X62531Y-52366D02*
X62388Y-52795D01*
X62760Y-52795D01*
X54536Y-51241D02*
X54536Y-51669D01*
X54508Y-51755D01*
X54451Y-51812D01*
X54365Y-51841D01*
X54308Y-51841D01*
X54765Y-51241D02*
X55136Y-51241D01*
X54936Y-51469D01*
X55022Y-51469D01*
X55079Y-51498D01*
X55108Y-51527D01*
X55136Y-51584D01*
X55136Y-51727D01*
X55108Y-51784D01*
X55079Y-51812D01*
X55022Y-51841D01*
X54850Y-51841D01*
X54793Y-51812D01*
X54765Y-51784D01*
G54D22*
X53368Y-45618D02*
X53341Y-45605D01*
X53315Y-45579D01*
X53276Y-45539D01*
X53249Y-45526D01*
X53223Y-45526D01*
X53236Y-45592D02*
X53210Y-45579D01*
X53184Y-45552D01*
X53171Y-45500D01*
X53171Y-45408D01*
X53184Y-45355D01*
X53210Y-45329D01*
X53236Y-45316D01*
X53289Y-45316D01*
X53315Y-45329D01*
X53341Y-45355D01*
X53355Y-45408D01*
X53355Y-45500D01*
X53341Y-45552D01*
X53315Y-45579D01*
X53289Y-45592D01*
X53236Y-45592D01*
X53617Y-45592D02*
X53460Y-45592D01*
X53538Y-45592D02*
X53538Y-45316D01*
X53512Y-45355D01*
X53486Y-45381D01*
X53460Y-45395D01*
G54D24*
X46355Y-50526D02*
X46355Y-50812D01*
X46335Y-50869D01*
X46297Y-50907D01*
X46240Y-50926D01*
X46202Y-50926D01*
X46526Y-50564D02*
X46545Y-50545D01*
X46583Y-50526D01*
X46679Y-50526D01*
X46717Y-50545D01*
X46736Y-50564D01*
X46755Y-50602D01*
X46755Y-50640D01*
X46736Y-50697D01*
X46507Y-50926D01*
X46755Y-50926D01*
G54D25*
X45090Y-50260D02*
X45090Y-49860D01*
X45243Y-49860D01*
X45281Y-49879D01*
X45300Y-49898D01*
X45319Y-49936D01*
X45319Y-49993D01*
X45300Y-50031D01*
X45281Y-50050D01*
X45243Y-50069D01*
X45090Y-50069D01*
X45566Y-49860D02*
X45643Y-49860D01*
X45681Y-49879D01*
X45719Y-49917D01*
X45738Y-49993D01*
X45738Y-50127D01*
X45719Y-50203D01*
X45681Y-50241D01*
X45643Y-50260D01*
X45566Y-50260D01*
X45528Y-50241D01*
X45490Y-50203D01*
X45471Y-50127D01*
X45471Y-49993D01*
X45490Y-49917D01*
X45528Y-49879D01*
X45566Y-49860D01*
X45871Y-49860D02*
X45966Y-50260D01*
X46043Y-49974D01*
X46119Y-50260D01*
X46214Y-49860D01*
X46366Y-50050D02*
X46500Y-50050D01*
X46557Y-50260D02*
X46366Y-50260D01*
X46366Y-49860D01*
X46557Y-49860D01*
X46957Y-50260D02*
X46823Y-50069D01*
X46728Y-50260D02*
X46728Y-49860D01*
X46881Y-49860D01*
X46919Y-49879D01*
X46938Y-49898D01*
X46957Y-49936D01*
X46957Y-49993D01*
X46938Y-50031D01*
X46919Y-50050D01*
X46881Y-50069D01*
X46728Y-50069D01*
X47033Y-50298D02*
X47338Y-50298D01*
X47624Y-49860D02*
X47433Y-49860D01*
X47414Y-50050D01*
X47433Y-50031D01*
X47471Y-50012D01*
X47567Y-50012D01*
X47605Y-50031D01*
X47624Y-50050D01*
X47643Y-50088D01*
X47643Y-50184D01*
X47624Y-50222D01*
X47605Y-50241D01*
X47567Y-50260D01*
X47471Y-50260D01*
X47433Y-50241D01*
X47414Y-50222D01*
X47757Y-49860D02*
X47890Y-50260D01*
X48024Y-49860D01*
G54D22*
X57703Y-50255D02*
X57703Y-50386D01*
X57427Y-50386D01*
X57427Y-50190D02*
X57427Y-50019D01*
X57532Y-50111D01*
X57532Y-50071D01*
X57545Y-50045D01*
X57558Y-50032D01*
X57584Y-50019D01*
X57650Y-50019D01*
X57676Y-50032D01*
X57690Y-50045D01*
X57703Y-50071D01*
X57703Y-50150D01*
X57690Y-50176D01*
X57676Y-50190D01*
X59750Y-50259D02*
X59750Y-50390D01*
X59474Y-50390D01*
X59566Y-50049D02*
X59750Y-50049D01*
X59461Y-50115D02*
X59658Y-50180D01*
X59658Y-50010D01*
X59057Y-50235D02*
X59057Y-50366D01*
X58781Y-50366D01*
X58781Y-50012D02*
X58781Y-50143D01*
X58912Y-50156D01*
X58899Y-50143D01*
X58886Y-50117D01*
X58886Y-50051D01*
X58899Y-50025D01*
X58912Y-50012D01*
X58938Y-49999D01*
X59004Y-49999D01*
X59030Y-50012D01*
X59044Y-50025D01*
X59057Y-50051D01*
X59057Y-50117D01*
X59044Y-50143D01*
X59030Y-50156D01*
X58372Y-50235D02*
X58372Y-50366D01*
X58096Y-50366D01*
X58096Y-50025D02*
X58096Y-50078D01*
X58109Y-50104D01*
X58122Y-50117D01*
X58161Y-50143D01*
X58214Y-50156D01*
X58319Y-50156D01*
X58345Y-50143D01*
X58359Y-50130D01*
X58372Y-50104D01*
X58372Y-50051D01*
X58359Y-50025D01*
X58345Y-50012D01*
X58319Y-49999D01*
X58253Y-49999D01*
X58227Y-50012D01*
X58214Y-50025D01*
X58201Y-50051D01*
X58201Y-50104D01*
X58214Y-50130D01*
X58227Y-50143D01*
X58253Y-50156D01*
G54D26*
X54788Y-45049D02*
X54972Y-45325D01*
X54972Y-45049D02*
X54788Y-45325D01*
X55222Y-45325D02*
X55065Y-45325D01*
X55143Y-45325D02*
X55143Y-45049D01*
X55117Y-45088D01*
X55091Y-45114D01*
X55065Y-45128D01*
G54D22*
X61152Y-35127D02*
X61152Y-35350D01*
X61165Y-35376D01*
X61178Y-35390D01*
X61204Y-35403D01*
X61257Y-35403D01*
X61283Y-35390D01*
X61296Y-35376D01*
X61309Y-35350D01*
X61309Y-35127D01*
X61414Y-35127D02*
X61585Y-35127D01*
X61493Y-35232D01*
X61533Y-35232D01*
X61559Y-35245D01*
X61572Y-35258D01*
X61585Y-35284D01*
X61585Y-35350D01*
X61572Y-35376D01*
X61559Y-35390D01*
X61533Y-35403D01*
X61454Y-35403D01*
X61428Y-35390D01*
X61414Y-35376D01*
G54D12*
X64990Y-34966D02*
X64690Y-34966D01*
X64690Y-34894D01*
X64705Y-34851D01*
X64733Y-34823D01*
X64762Y-34808D01*
X64819Y-34794D01*
X64862Y-34794D01*
X64919Y-34808D01*
X64948Y-34823D01*
X64976Y-34851D01*
X64990Y-34894D01*
X64990Y-34966D01*
X64690Y-34694D02*
X64690Y-34508D01*
X64805Y-34608D01*
X64805Y-34566D01*
X64819Y-34537D01*
X64833Y-34523D01*
X64862Y-34508D01*
X64933Y-34508D01*
X64962Y-34523D01*
X64976Y-34537D01*
X64990Y-34566D01*
X64990Y-34651D01*
X64976Y-34680D01*
X64962Y-34694D01*
G54D22*
X48463Y-43298D02*
X48463Y-42998D01*
X48535Y-42998D01*
X48578Y-43013D01*
X48606Y-43041D01*
X48621Y-43070D01*
X48635Y-43127D01*
X48635Y-43170D01*
X48621Y-43227D01*
X48606Y-43256D01*
X48578Y-43284D01*
X48535Y-43298D01*
X48463Y-43298D01*
X48749Y-43027D02*
X48763Y-43013D01*
X48792Y-42998D01*
X48863Y-42998D01*
X48892Y-43013D01*
X48906Y-43027D01*
X48921Y-43056D01*
X48921Y-43084D01*
X48906Y-43127D01*
X48735Y-43298D01*
X48921Y-43298D01*
G54D10*
X56352Y-46943D02*
X56567Y-46943D01*
X56610Y-46957D01*
X56638Y-46986D01*
X56652Y-47029D01*
X56652Y-47057D01*
X56652Y-46800D02*
X56352Y-46800D01*
X56352Y-46685D01*
X56367Y-46657D01*
X56381Y-46642D01*
X56410Y-46628D01*
X56452Y-46628D01*
X56481Y-46642D01*
X56495Y-46657D01*
X56510Y-46685D01*
X56510Y-46800D01*
X56352Y-46357D02*
X56352Y-46500D01*
X56495Y-46514D01*
X56481Y-46500D01*
X56467Y-46471D01*
X56467Y-46400D01*
X56481Y-46371D01*
X56495Y-46357D01*
X56524Y-46342D01*
X56595Y-46342D01*
X56624Y-46357D01*
X56638Y-46371D01*
X56652Y-46400D01*
X56652Y-46471D01*
X56638Y-46500D01*
X56624Y-46514D01*
X55478Y-50278D02*
X55478Y-50493D01*
X55464Y-50536D01*
X55435Y-50564D01*
X55392Y-50578D01*
X55364Y-50578D01*
X55621Y-50578D02*
X55621Y-50278D01*
X55736Y-50278D01*
X55764Y-50293D01*
X55779Y-50307D01*
X55793Y-50336D01*
X55793Y-50378D01*
X55779Y-50407D01*
X55764Y-50421D01*
X55736Y-50436D01*
X55621Y-50436D01*
X56050Y-50378D02*
X56050Y-50578D01*
X55979Y-50264D02*
X55907Y-50478D01*
X56093Y-50478D01*
M02*
