M48
;DRILL file {PCBnew (2011-07-20 BZR 3052)-testing} date Fri 19 Aug 2011 07:07:47 AM COT
;FORMAT={-:-/ absolute / inch / decimal}
FMAT,2
INCH,TZ
T1C0.008
T2C0.012
T3C0.016
T4C0.032
T5C0.035
T6C0.038
T7C0.040
T8C0.051
T9C0.052
T10C0.118
%
G90
G05
M72
T1
X4.860Y-4.408
X4.955Y-3.921
X4.983Y-3.924
X4.990Y-3.862
X4.998Y-3.946
X5.020Y-3.860
X5.024Y-3.833
X5.053Y-3.831
X5.056Y-4.033
X5.057Y-3.803
X5.085Y-3.797
X5.086Y-4.032
X5.116Y-4.026
X5.120Y-4.305
X5.122Y-3.807
X5.128Y-4.259
X5.138Y-3.697
X5.163Y-3.684
X5.177Y-3.589
X5.205Y-4.287
X5.207Y-3.577
X5.209Y-3.824
X5.209Y-4.123
X5.211Y-3.852
X5.212Y-3.885
X5.216Y-4.418
X5.224Y-4.228
X5.228Y-3.598
X5.230Y-4.012
X5.232Y-3.482
X5.234Y-3.937
X5.273Y-4.418
X5.305Y-4.070
X5.310Y-4.418
X5.313Y-3.482
X5.323Y-3.818
X5.339Y-4.409
X5.341Y-3.798
X5.360Y-3.675
X5.367Y-3.815
X5.369Y-4.338
X5.370Y-4.409
X5.378Y-4.613
X5.383Y-4.070
X5.394Y-3.811
X5.412Y-4.333
X5.420Y-3.665
X5.422Y-3.808
X5.435Y-3.785
X5.435Y-3.923
X5.436Y-3.644
X5.446Y-4.417
X5.456Y-4.256
X5.459Y-3.488
X5.462Y-3.714
X5.464Y-3.672
X5.476Y-4.334
X5.480Y-3.919
X5.509Y-3.918
X5.513Y-4.503
X5.520Y-5.163
X5.524Y-3.785
X5.530Y-3.480
X5.538Y-4.071
X5.539Y-3.918
X5.550Y-4.259
X5.556Y-3.715
X5.564Y-4.686
X5.575Y-4.335
X5.579Y-3.919
X5.586Y-4.427
X5.614Y-3.482
X5.632Y-3.646
X5.639Y-3.821
X5.644Y-3.903
X5.661Y-3.927
X5.679Y-4.071
X5.683Y-3.901
X5.684Y-4.449
X5.691Y-3.785
X5.711Y-4.305
X5.721Y-3.579
X5.722Y-3.713
X5.737Y-4.071
X5.765Y-5.186
X5.769Y-4.783
X5.777Y-4.321
X5.780Y-4.577
X5.814Y-4.842
X5.841Y-4.034
X5.843Y-3.436
X5.846Y-3.845
X5.856Y-3.811
X5.863Y-4.843
X5.886Y-4.863
X5.890Y-3.648
X5.918Y-4.829
X5.931Y-4.753
X5.933Y-3.965
X5.936Y-4.683
X5.947Y-4.792
X5.954Y-5.010
X5.965Y-4.315
X5.971Y-4.863
X5.972Y-3.986
X5.990Y-3.843
X5.998Y-5.081
X6.009Y-4.481
X6.022Y-4.987
X6.024Y-3.845
X6.028Y-5.080
X6.030Y-3.620
X6.051Y-4.917
X6.069Y-3.728
X6.070Y-4.788
X6.111Y-4.471
X6.122Y-4.549
X6.124Y-4.981
X6.130Y-4.316
X6.154Y-4.522
X6.156Y-4.011
X6.195Y-3.921
X6.197Y-4.703
X6.198Y-4.525
X6.203Y-4.374
X6.206Y-4.751
X6.222Y-3.839
X6.236Y-3.937
X6.250Y-3.811
X6.323Y-4.713
X6.371Y-4.566
T2
X5.339Y-4.714
X5.339Y-4.804
X5.793Y-4.799
X5.932Y-4.599
X6.017Y-4.880
X6.414Y-4.516
T3
X5.167Y-3.459
X5.459Y-3.569
X5.615Y-3.567
X5.730Y-3.468
X5.778Y-4.505
X6.030Y-3.763
X6.142Y-4.786
X6.313Y-3.437
X6.347Y-4.090
T4
X4.676Y-3.677
X6.565Y-3.677
T5
X5.694Y-5.130
X5.694Y-5.209
X5.694Y-5.288
X5.694Y-5.367
X6.050Y-5.131
X6.050Y-5.210
X6.050Y-5.289
X6.050Y-5.367
T6
X5.953Y-3.531
X6.268Y-3.531
T7
X4.676Y-3.777
X4.676Y-3.877
X4.676Y-3.977
X4.676Y-4.077
X4.676Y-4.177
X4.676Y-4.277
X4.676Y-4.377
X4.676Y-4.477
X4.676Y-4.577
X4.676Y-4.677
X4.676Y-4.777
X4.776Y-3.677
X4.776Y-3.777
X4.776Y-3.877
X4.776Y-3.977
X4.776Y-4.077
X4.776Y-4.177
X4.776Y-4.277
X4.776Y-4.377
X4.776Y-4.477
X4.776Y-4.577
X4.776Y-4.677
X4.776Y-4.777
X4.947Y-5.011
X5.047Y-5.011
X5.135Y-4.794
X5.232Y-5.389
X5.235Y-4.794
X5.409Y-5.389
X5.519Y-4.965
X5.619Y-4.765
X5.619Y-4.865
X5.619Y-4.965
X6.285Y-4.367
X6.285Y-4.467
X6.452Y-4.475
X6.452Y-4.575
X6.452Y-4.682
X6.452Y-4.782
X6.565Y-3.777
X6.565Y-3.877
X6.565Y-3.977
X6.565Y-4.077
X6.565Y-4.177
X6.565Y-4.277
X6.565Y-4.377
X6.565Y-4.477
X6.565Y-4.577
X6.565Y-4.677
X6.565Y-4.777
X6.567Y-4.893
X6.567Y-4.993
X6.567Y-5.093
X6.567Y-5.193
X6.665Y-3.677
X6.665Y-3.777
X6.665Y-3.877
X6.665Y-3.977
X6.665Y-4.077
X6.665Y-4.177
X6.665Y-4.277
X6.665Y-4.377
X6.665Y-4.477
X6.665Y-4.577
X6.665Y-4.677
X6.665Y-4.777
X6.667Y-4.893
X6.667Y-4.993
X6.667Y-5.093
X6.667Y-5.193
T8
X5.587Y-5.120
X5.587Y-5.395
X5.801Y-5.120
X5.801Y-5.395
X5.943Y-5.121
X5.943Y-5.396
X6.158Y-5.121
X6.158Y-5.396
T9
X5.182Y-5.291
X5.458Y-5.291
T10
X4.734Y-3.473
X6.634Y-3.473
X6.636Y-5.367
T7
X4.757Y-5.109G85X4.817Y-5.109
G05
X4.757Y-5.349G85X4.817Y-5.349
G05
X4.987Y-5.289G85X4.987Y-5.229
G05
T0
M30
